%FSAX24Y24*%
%MOIN*%
G70*
G01*
G75*
G04 Layer_Physical_Order=2*
G04 Layer_Color=16711680*
%ADD10R,0.0512X0.0591*%
%ADD11R,0.0472X0.0551*%
%ADD12R,0.0984X0.0787*%
%ADD13R,0.1063X0.0197*%
%ADD14O,0.0709X0.0236*%
%ADD15R,0.0551X0.0472*%
%ADD16R,0.1024X0.0945*%
%ADD17R,0.0512X0.0709*%
%ADD18O,0.0709X0.0114*%
%ADD19O,0.0114X0.0709*%
%ADD20C,0.0200*%
%ADD21C,0.0100*%
%ADD22C,0.0591*%
%ADD23R,0.0591X0.0591*%
%ADD24C,0.0551*%
%ADD25R,0.0591X0.0591*%
%ADD26C,0.0350*%
%ADD27O,0.0866X0.0236*%
%ADD28R,0.0591X0.0512*%
G36*
X037211Y040900D02*
X037142Y040858D01*
X037044Y040911D01*
X036900Y040954D01*
X036750Y040969D01*
X036600Y040954D01*
X036456Y040911D01*
X036436Y040900D01*
X036366Y040938D01*
X036354Y041050D01*
X036311Y041192D01*
X036359Y041256D01*
X037211D01*
Y040900D01*
D02*
G37*
G36*
X053400Y040891D02*
X053450Y040896D01*
X053594Y040939D01*
X053626Y040956D01*
X053913D01*
X054125Y040744D01*
X054123Y040664D01*
X054100Y040644D01*
X052511D01*
X052273Y040882D01*
X052304Y040956D01*
X052974D01*
X053006Y040939D01*
X053150Y040896D01*
X053200Y040891D01*
Y041650D01*
X053400D01*
Y040891D01*
D02*
G37*
G36*
X041505Y041760D02*
X041659Y041678D01*
X041706Y041663D01*
X041726Y041586D01*
X041642Y041502D01*
X041506Y041461D01*
X041373Y041390D01*
X041256Y041294D01*
X041160Y041177D01*
X041089Y041044D01*
X041046Y040900D01*
X041031Y040750D01*
X041046Y040600D01*
X041058Y040558D01*
X041011Y040494D01*
X039787D01*
X039194Y041087D01*
Y041633D01*
X039341Y041678D01*
X039495Y041760D01*
X039500Y041764D01*
X039505Y041760D01*
X039659Y041678D01*
X039826Y041627D01*
X040000Y041610D01*
X040174Y041627D01*
X040341Y041678D01*
X040495Y041760D01*
X040500Y041764D01*
X040505Y041760D01*
X040659Y041678D01*
X040826Y041627D01*
X041000Y041610D01*
X041174Y041627D01*
X041341Y041678D01*
X041495Y041760D01*
X041500Y041764D01*
X041505Y041760D01*
D02*
G37*
G36*
X030201Y044432D02*
X029890Y044121D01*
X029856Y044111D01*
X029723Y044040D01*
X029606Y043944D01*
X029510Y043827D01*
X029439Y043694D01*
X029396Y043550D01*
X029391Y043500D01*
X030150D01*
Y043400D01*
X030250D01*
Y042641D01*
X030300Y042646D01*
X030444Y042689D01*
X030577Y042760D01*
X030694Y042856D01*
X030790Y042973D01*
X030861Y043106D01*
X030871Y043140D01*
X031187Y043456D01*
X035124D01*
X035156Y043439D01*
X035300Y043396D01*
X035350Y043391D01*
Y044150D01*
X035550D01*
Y043391D01*
X035600Y043396D01*
X035744Y043439D01*
X035877Y043510D01*
X035994Y043606D01*
X036050Y043675D01*
X036124Y043644D01*
X036110Y043500D01*
X036120Y043393D01*
X036114Y043386D01*
X036114D01*
Y042544D01*
X033900D01*
X033774Y042531D01*
X033654Y042495D01*
X033542Y042435D01*
X033445Y042355D01*
X033045Y041955D01*
X032965Y041858D01*
X032905Y041746D01*
X032869Y041626D01*
X032856Y041500D01*
Y039662D01*
X032430D01*
X032291Y039648D01*
X032157Y039608D01*
X032034Y039542D01*
X031926Y039454D01*
X031840Y039348D01*
X031760D01*
X031674Y039454D01*
X031594Y039519D01*
Y039950D01*
X031581Y040085D01*
X031549Y040189D01*
Y040784D01*
X031561Y040806D01*
X031604Y040950D01*
X031619Y041100D01*
X031604Y041250D01*
X031561Y041394D01*
X031490Y041527D01*
X031394Y041644D01*
X031277Y041740D01*
X031144Y041811D01*
X031000Y041854D01*
X030850Y041869D01*
X030700Y041854D01*
X030556Y041811D01*
X030423Y041740D01*
X030306Y041644D01*
X030210Y041527D01*
X030139Y041394D01*
X030096Y041250D01*
X030081Y041100D01*
X030096Y040950D01*
X030139Y040806D01*
X030161Y040765D01*
Y040250D01*
X030100Y040204D01*
X029950Y040219D01*
X029800Y040204D01*
X029656Y040161D01*
X029624Y040144D01*
X027300D01*
X027165Y040131D01*
X027034Y040091D01*
X026914Y040027D01*
X026809Y039941D01*
X026525Y039656D01*
X026467Y039586D01*
X026169D01*
Y039544D01*
X024076D01*
X024044Y039561D01*
X023900Y039604D01*
X023850Y039609D01*
Y038850D01*
X023650D01*
Y039609D01*
X023600Y039604D01*
X023508Y039577D01*
X023444Y039624D01*
Y044483D01*
X023467Y044506D01*
X030171D01*
X030201Y044432D01*
D02*
G37*
G36*
X034889Y041192D02*
X034846Y041050D01*
X034831Y040900D01*
X034846Y040750D01*
X034852Y040729D01*
Y040281D01*
X034783Y040240D01*
X034744Y040261D01*
X034600Y040304D01*
X034550Y040309D01*
Y039550D01*
X034350D01*
Y040309D01*
X034300Y040304D01*
X034208Y040277D01*
X034144Y040324D01*
Y041233D01*
X034167Y041256D01*
X034841D01*
X034889Y041192D01*
D02*
G37*
G36*
X044006Y040987D02*
X043540Y040521D01*
X043506Y040511D01*
X043474Y040494D01*
X042589D01*
X042542Y040558D01*
X042552Y040592D01*
X043267Y041306D01*
X044006D01*
Y040987D01*
D02*
G37*
G36*
X045485Y047532D02*
X044446Y046494D01*
X039652D01*
X039611Y046562D01*
X039661Y046656D01*
X039704Y046800D01*
X039719Y046950D01*
X039704Y047100D01*
X039661Y047244D01*
X039590Y047377D01*
X039494Y047494D01*
X039449Y047531D01*
X039476Y047606D01*
X045455D01*
X045485Y047532D01*
D02*
G37*
G36*
X036419Y047194D02*
X035787D01*
X035621Y047360D01*
X035611Y047394D01*
X035540Y047527D01*
X035534Y047534D01*
X035568Y047606D01*
X036419D01*
Y047194D01*
D02*
G37*
G36*
X028056Y053384D02*
Y052920D01*
X027989Y052794D01*
X027946Y052650D01*
X027931Y052500D01*
X027946Y052350D01*
X027989Y052206D01*
X028060Y052073D01*
X028156Y051956D01*
X028273Y051860D01*
X028406Y051789D01*
X028550Y051746D01*
X028700Y051731D01*
X028756Y051680D01*
Y050667D01*
X028583Y050494D01*
X027031D01*
Y051334D01*
Y052045D01*
X027591Y052605D01*
X027677Y052710D01*
X027741Y052830D01*
X027781Y052960D01*
X027794Y053096D01*
Y053319D01*
X027966D01*
Y053419D01*
X027990Y053429D01*
X028056Y053384D01*
D02*
G37*
G36*
X047339Y044656D02*
X047410Y044523D01*
X047506Y044406D01*
X047597Y044331D01*
X047566Y044257D01*
X047500Y044264D01*
X047330Y044247D01*
X047167Y044198D01*
X047016Y044117D01*
X046885Y044009D01*
X046776Y043877D01*
X046696Y043727D01*
X046646Y043563D01*
X046630Y043394D01*
X046646Y043224D01*
X046696Y043061D01*
X046728Y043000D01*
X046696Y042939D01*
X046646Y042776D01*
X046630Y042606D01*
X046618Y042594D01*
X044881D01*
X044873Y042674D01*
X044822Y042841D01*
X044740Y042995D01*
X044736Y043000D01*
X044740Y043005D01*
X044822Y043159D01*
X044873Y043326D01*
X044890Y043500D01*
X044873Y043674D01*
X044822Y043841D01*
X044740Y043995D01*
X044629Y044129D01*
X044495Y044240D01*
X044341Y044322D01*
X044174Y044373D01*
X044000Y044390D01*
X043826Y044373D01*
X043659Y044322D01*
X043505Y044240D01*
X043500Y044236D01*
X043495Y044240D01*
X043341Y044322D01*
X043174Y044373D01*
X043000Y044390D01*
X042826Y044373D01*
X042659Y044322D01*
X042505Y044240D01*
X042500Y044236D01*
X042495Y044240D01*
X042341Y044322D01*
X042174Y044373D01*
X042000Y044390D01*
X041826Y044373D01*
X041659Y044322D01*
X041505Y044240D01*
X041500Y044236D01*
X041495Y044240D01*
X041341Y044322D01*
X041174Y044373D01*
X041000Y044390D01*
X040826Y044373D01*
X040659Y044322D01*
X040505Y044240D01*
X040500Y044236D01*
X040495Y044240D01*
X040341Y044322D01*
X040174Y044373D01*
X040000Y044390D01*
X039826Y044373D01*
X039659Y044322D01*
X039505Y044240D01*
X039500Y044236D01*
X039495Y044240D01*
X039341Y044322D01*
X039194Y044367D01*
Y044500D01*
X039200Y044506D01*
X044783D01*
X045148Y044142D01*
X045189Y044006D01*
X045260Y043873D01*
X045356Y043756D01*
X045473Y043660D01*
X045606Y043589D01*
X045750Y043546D01*
X045900Y043531D01*
X046050Y043546D01*
X046194Y043589D01*
X046327Y043660D01*
X046444Y043756D01*
X046540Y043873D01*
X046611Y044006D01*
X046654Y044150D01*
X046669Y044300D01*
X046654Y044450D01*
X046611Y044594D01*
X046564Y044682D01*
X046605Y044750D01*
X047311D01*
X047339Y044656D01*
D02*
G37*
G36*
X058575Y045663D02*
Y040030D01*
X058501Y039999D01*
X057675Y040825D01*
X057613Y040888D01*
X057611Y040894D01*
X057540Y041027D01*
X057444Y041144D01*
X057327Y041240D01*
X057194Y041311D01*
X057050Y041354D01*
X056900Y041369D01*
X056750Y041354D01*
X056606Y041311D01*
X056473Y041240D01*
X056356Y041144D01*
X056260Y041027D01*
X056221Y040954D01*
X056144Y040974D01*
Y042400D01*
X056131Y042526D01*
X056095Y042646D01*
X056035Y042758D01*
X055955Y042855D01*
X055505Y043305D01*
X055408Y043385D01*
X055296Y043445D01*
X055176Y043481D01*
X055050Y043494D01*
X051000D01*
X050874Y043481D01*
X050754Y043445D01*
X050642Y043385D01*
X050545Y043305D01*
X049833Y042594D01*
X048382D01*
X048370Y042606D01*
X048354Y042776D01*
X048304Y042939D01*
X048272Y043000D01*
X048304Y043061D01*
X048354Y043224D01*
X048370Y043394D01*
X048354Y043563D01*
X048304Y043727D01*
X048224Y043877D01*
X048115Y044009D01*
X047993Y044109D01*
X048024Y044183D01*
X048050Y044181D01*
X048200Y044196D01*
X048344Y044239D01*
X048477Y044310D01*
X048594Y044406D01*
X048690Y044523D01*
X048761Y044656D01*
X048795Y044768D01*
X048865Y044806D01*
X048900Y044796D01*
X049050Y044781D01*
X049200Y044796D01*
X049344Y044839D01*
X049477Y044910D01*
X049594Y045006D01*
X049690Y045123D01*
X049761Y045256D01*
X049804Y045400D01*
X049819Y045550D01*
X049804Y045700D01*
X049792Y045742D01*
X049839Y045806D01*
X058432D01*
X058575Y045663D01*
D02*
G37*
G36*
X034132Y047115D02*
X034131Y047100D01*
X034146Y046950D01*
X034189Y046806D01*
X034260Y046673D01*
X034348Y046566D01*
X034314Y046494D01*
X033508D01*
X033478Y046568D01*
X034060Y047150D01*
X034132Y047115D01*
D02*
G37*
G36*
X058575Y037213D02*
Y033806D01*
X058458Y033689D01*
X058450Y033690D01*
X058276Y033673D01*
X058109Y033622D01*
X057955Y033540D01*
X057821Y033429D01*
X057791Y033394D01*
X057419D01*
X057419Y033394D01*
X057284Y033381D01*
X057153Y033341D01*
X057034Y033277D01*
X057015Y033261D01*
X056928Y033191D01*
X056928Y033191D01*
X056163Y032426D01*
X056089Y032456D01*
Y036334D01*
X056981D01*
Y037384D01*
X056981D01*
Y037556D01*
X058232D01*
X058575Y037213D01*
D02*
G37*
G36*
X058856Y062248D02*
X058782Y062218D01*
X058360Y062641D01*
X058255Y062727D01*
X058135Y062791D01*
X058004Y062831D01*
X057869Y062844D01*
X033776D01*
X033744Y062861D01*
X033600Y062904D01*
X033450Y062919D01*
X033300Y062904D01*
X033156Y062861D01*
X033023Y062790D01*
X032906Y062694D01*
X032810Y062577D01*
X032739Y062444D01*
X032696Y062300D01*
X032681Y062150D01*
X032696Y062000D01*
X032739Y061856D01*
X032810Y061723D01*
X032906Y061606D01*
X033023Y061510D01*
X033156Y061439D01*
X033300Y061396D01*
X033450Y061381D01*
X033600Y061396D01*
X033744Y061439D01*
X033776Y061456D01*
X057582D01*
X058575Y060463D01*
Y047194D01*
X052264D01*
X052223Y047263D01*
X052245Y047304D01*
X052281Y047424D01*
X052281Y047424D01*
X052281Y047424D01*
Y047424D01*
X052294Y047550D01*
Y048846D01*
X052371Y048865D01*
X052376Y048856D01*
X052485Y048724D01*
X052616Y048616D01*
X052767Y048535D01*
X052930Y048486D01*
X053100Y048469D01*
X053270Y048486D01*
X053433Y048535D01*
X053584Y048616D01*
X053715Y048724D01*
X053824Y048856D01*
X053904Y049006D01*
X053954Y049170D01*
X053970Y049339D01*
X053954Y049509D01*
X053904Y049672D01*
X053824Y049823D01*
X053715Y049955D01*
X053584Y050063D01*
X053433Y050143D01*
X053270Y050193D01*
X053100Y050210D01*
X052930Y050193D01*
X052767Y050143D01*
X052616Y050063D01*
X052485Y049955D01*
X052376Y049823D01*
X052371Y049813D01*
X052294Y049833D01*
Y050767D01*
X052371Y050787D01*
X052376Y050777D01*
X052485Y050645D01*
X052616Y050537D01*
X052767Y050457D01*
X052930Y050407D01*
X053100Y050390D01*
X053270Y050407D01*
X053433Y050457D01*
X053584Y050537D01*
X053715Y050645D01*
X053824Y050777D01*
X053904Y050928D01*
X053954Y051091D01*
X053970Y051261D01*
X053954Y051430D01*
X053904Y051594D01*
X053824Y051744D01*
X053715Y051876D01*
X053584Y051984D01*
X053433Y052065D01*
X053270Y052114D01*
X053100Y052131D01*
X052930Y052114D01*
X052767Y052065D01*
X052616Y051984D01*
X052485Y051876D01*
X052376Y051744D01*
X052371Y051735D01*
X052294Y051754D01*
Y052200D01*
X052281Y052326D01*
X052245Y052446D01*
X052185Y052558D01*
X052155Y052594D01*
X052154Y052600D01*
X052111Y052744D01*
X052040Y052877D01*
X051944Y052994D01*
X051827Y053090D01*
X051694Y053161D01*
X051550Y053204D01*
X051400Y053219D01*
X051250Y053204D01*
X051151Y053175D01*
X051081Y053212D01*
X051072Y053241D01*
X050990Y053395D01*
X050986Y053400D01*
X050990Y053405D01*
X051072Y053559D01*
X051123Y053726D01*
X051140Y053900D01*
X051123Y054074D01*
X051072Y054241D01*
X050990Y054395D01*
X050986Y054400D01*
X050990Y054405D01*
X051072Y054559D01*
X051123Y054726D01*
X051140Y054900D01*
X051123Y055074D01*
X051072Y055241D01*
X050990Y055395D01*
X050879Y055529D01*
X050745Y055640D01*
X050591Y055722D01*
X050424Y055773D01*
X050250Y055790D01*
X050076Y055773D01*
X049909Y055722D01*
X049755Y055640D01*
X049750Y055636D01*
X049745Y055640D01*
X049591Y055722D01*
X049424Y055773D01*
X049250Y055790D01*
X049076Y055773D01*
X048909Y055722D01*
X048755Y055640D01*
X048621Y055529D01*
X048510Y055395D01*
X048428Y055241D01*
X048377Y055074D01*
X048360Y054900D01*
X048377Y054726D01*
X048428Y054559D01*
X048510Y054405D01*
X048514Y054400D01*
X048510Y054395D01*
X048428Y054241D01*
X048377Y054074D01*
X048360Y053900D01*
X048377Y053726D01*
X048428Y053559D01*
X048510Y053405D01*
X048514Y053400D01*
X048510Y053395D01*
X048428Y053241D01*
X048377Y053074D01*
X048360Y052900D01*
X048377Y052726D01*
X048428Y052559D01*
X048510Y052405D01*
X048514Y052400D01*
X048510Y052395D01*
X048428Y052241D01*
X048377Y052074D01*
X048360Y051900D01*
X048377Y051726D01*
X048428Y051559D01*
X048510Y051405D01*
X048514Y051400D01*
X048510Y051395D01*
X048428Y051241D01*
X048377Y051074D01*
X048360Y050900D01*
X048377Y050726D01*
X048428Y050559D01*
X048510Y050405D01*
X048514Y050400D01*
X048510Y050395D01*
X048428Y050241D01*
X048377Y050074D01*
X048360Y049900D01*
X048377Y049726D01*
X048428Y049559D01*
X048510Y049405D01*
X048514Y049400D01*
X048510Y049395D01*
X048428Y049241D01*
X048377Y049074D01*
X048360Y048900D01*
X048377Y048726D01*
X048413Y048608D01*
X048351Y048557D01*
X048344Y048561D01*
X048208Y048602D01*
X048105Y048705D01*
X048008Y048785D01*
X047896Y048845D01*
X047776Y048881D01*
X047650Y048894D01*
X037663D01*
X037612Y048950D01*
X036088D01*
X036037Y048894D01*
X034250D01*
X034124Y048881D01*
X034004Y048845D01*
X033892Y048785D01*
X033795Y048705D01*
X033327Y048237D01*
X033258Y048278D01*
X033273Y048326D01*
X033290Y048500D01*
X033273Y048674D01*
X033222Y048841D01*
X033140Y048995D01*
X033136Y049000D01*
X033140Y049005D01*
X033222Y049159D01*
X033273Y049326D01*
X033290Y049500D01*
X033273Y049674D01*
X033222Y049841D01*
X033140Y049995D01*
X033136Y050000D01*
X033140Y050005D01*
X033222Y050159D01*
X033273Y050326D01*
X033290Y050500D01*
X033273Y050674D01*
X033222Y050841D01*
X033140Y050995D01*
X033136Y051000D01*
X033140Y051005D01*
X033222Y051159D01*
X033273Y051326D01*
X033290Y051500D01*
X033273Y051674D01*
X033222Y051841D01*
X033140Y051995D01*
X033136Y052000D01*
X033140Y052005D01*
X033222Y052159D01*
X033273Y052326D01*
X033290Y052500D01*
X033273Y052674D01*
X033222Y052841D01*
X033140Y052995D01*
X033136Y053000D01*
X033140Y053005D01*
X033222Y053159D01*
X033273Y053326D01*
X033290Y053500D01*
X033273Y053674D01*
X033222Y053841D01*
X033140Y053995D01*
X033136Y054000D01*
X033140Y054005D01*
X033222Y054159D01*
X033273Y054326D01*
X033290Y054500D01*
X033273Y054674D01*
X033222Y054841D01*
X033140Y054995D01*
X033029Y055129D01*
X032895Y055240D01*
X032741Y055322D01*
X032574Y055373D01*
X032400Y055390D01*
X032293Y055380D01*
X032286Y055386D01*
Y055386D01*
X030514D01*
Y053614D01*
X030514D01*
X030520Y053607D01*
X030510Y053500D01*
X030527Y053326D01*
X030578Y053159D01*
X030660Y053005D01*
X030664Y053000D01*
X030660Y052995D01*
X030578Y052841D01*
X030527Y052674D01*
X030510Y052500D01*
X030527Y052326D01*
X030578Y052159D01*
X030660Y052005D01*
X030664Y052000D01*
X030660Y051995D01*
X030578Y051841D01*
X030527Y051674D01*
X030510Y051500D01*
X030527Y051326D01*
X030578Y051159D01*
X030660Y051005D01*
X030664Y051000D01*
X030660Y050995D01*
X030578Y050841D01*
X030527Y050674D01*
X030510Y050500D01*
X030527Y050326D01*
X030578Y050159D01*
X030660Y050005D01*
X030664Y050000D01*
X030660Y049995D01*
X030578Y049841D01*
X030527Y049674D01*
X030510Y049500D01*
X030527Y049326D01*
X030578Y049159D01*
X030660Y049005D01*
X030664Y049000D01*
X030660Y048995D01*
X030578Y048841D01*
X030527Y048674D01*
X030510Y048500D01*
X030527Y048326D01*
X030578Y048159D01*
X030660Y048005D01*
X030664Y048000D01*
X030660Y047995D01*
X030578Y047841D01*
X030527Y047674D01*
X030510Y047500D01*
X030527Y047326D01*
X030533Y047308D01*
X030485Y047244D01*
X026020D01*
X025894Y047311D01*
X025750Y047354D01*
X025600Y047369D01*
X025450Y047354D01*
X025306Y047311D01*
X025173Y047240D01*
X025056Y047144D01*
X024960Y047027D01*
X024889Y046894D01*
X024846Y046750D01*
X024831Y046600D01*
X024835Y046553D01*
X024782Y046494D01*
X021144D01*
Y050898D01*
X021212Y050939D01*
X021306Y050889D01*
X021450Y050846D01*
X021500Y050841D01*
Y051600D01*
X021700D01*
Y050841D01*
X021750Y050846D01*
X021894Y050889D01*
X022027Y050960D01*
X022144Y051056D01*
X022240Y051173D01*
X022311Y051306D01*
X022321Y051340D01*
X022337Y051356D01*
X022499D01*
X022555Y051310D01*
X022709Y051228D01*
X022876Y051177D01*
X022950Y051170D01*
Y052050D01*
X023150D01*
Y051170D01*
X023157Y051170D01*
X023164Y051164D01*
Y051164D01*
X023422D01*
X023455Y051054D01*
X023515Y050942D01*
X023595Y050845D01*
X023945Y050495D01*
Y050495D01*
X023945Y050495D01*
X023945Y050495D01*
Y050495D01*
X024042Y050415D01*
X024154Y050355D01*
X024274Y050319D01*
X024400Y050306D01*
X024444Y050311D01*
X024669D01*
Y050134D01*
X024846D01*
X024855Y050104D01*
X024915Y049992D01*
X024995Y049895D01*
X025495Y049395D01*
Y049395D01*
X025495Y049395D01*
X025495Y049395D01*
Y049395D01*
X025592Y049315D01*
X025704Y049255D01*
X025824Y049219D01*
X025950Y049206D01*
X028850D01*
X028976Y049219D01*
X029096Y049255D01*
X029208Y049315D01*
X029305Y049395D01*
X029305Y049395D01*
X029305Y049395D01*
X029855Y049945D01*
X029935Y050042D01*
X029995Y050154D01*
X030031Y050274D01*
X030044Y050400D01*
Y056106D01*
X032733D01*
X035798Y053042D01*
X035839Y052906D01*
X035910Y052773D01*
X036006Y052656D01*
X036123Y052560D01*
X036256Y052489D01*
X036263Y052487D01*
X036356Y052394D01*
X036358Y052389D01*
X036273Y052286D01*
X036209Y052166D01*
X036169Y052035D01*
X036156Y051900D01*
Y049376D01*
X036139Y049344D01*
X036096Y049200D01*
X036091Y049150D01*
X037609D01*
X037604Y049200D01*
X037561Y049344D01*
X037544Y049376D01*
Y051613D01*
X037741Y051809D01*
X037741Y051809D01*
X037827Y051914D01*
X037891Y052034D01*
X037931Y052165D01*
X037944Y052300D01*
Y053624D01*
X037961Y053656D01*
X038004Y053800D01*
X038009Y053850D01*
X037250D01*
Y053950D01*
X037150D01*
Y054709D01*
X037100Y054704D01*
X036956Y054661D01*
X036823Y054590D01*
X036706Y054494D01*
X036610Y054377D01*
X036539Y054244D01*
X036533Y054224D01*
X036456Y054205D01*
X033455Y057205D01*
X033358Y057285D01*
X033246Y057345D01*
X033126Y057381D01*
X033000Y057394D01*
X029700D01*
X029574Y057381D01*
X029454Y057345D01*
X029342Y057285D01*
X029245Y057205D01*
X028945Y056905D01*
X028865Y056808D01*
X028805Y056696D01*
X028769Y056576D01*
X028756Y056450D01*
Y054658D01*
X028682Y054628D01*
X028001Y055309D01*
X027966Y055338D01*
Y055681D01*
X027379D01*
X027255Y055805D01*
X027158Y055885D01*
X027046Y055945D01*
X026926Y055981D01*
X026800Y055994D01*
X024479D01*
X024438Y056062D01*
X024461Y056106D01*
X024504Y056250D01*
X024519Y056400D01*
X024504Y056550D01*
X024461Y056694D01*
X024390Y056827D01*
X024294Y056944D01*
X024177Y057040D01*
X024044Y057111D01*
X023900Y057154D01*
X023750Y057169D01*
X023600Y057154D01*
X023456Y057111D01*
X023326Y057041D01*
X023224Y057031D01*
X023104Y056995D01*
X022992Y056935D01*
X022895Y056855D01*
X022645Y056605D01*
X022565Y056508D01*
X022505Y056396D01*
X022469Y056276D01*
X022456Y056150D01*
Y054709D01*
X022438Y054694D01*
X022216D01*
Y054781D01*
X021425D01*
Y060044D01*
X021660Y060279D01*
X021694Y060289D01*
X021827Y060360D01*
X021944Y060456D01*
X022040Y060573D01*
X022111Y060706D01*
X022154Y060850D01*
X022169Y061000D01*
X022154Y061150D01*
X022111Y061294D01*
X022040Y061427D01*
X021944Y061544D01*
X021827Y061640D01*
X021694Y061711D01*
X021550Y061754D01*
X021400Y061769D01*
X021250Y061754D01*
X021208Y061742D01*
X021144Y061789D01*
Y066269D01*
X022186D01*
Y066421D01*
X022329D01*
X022371Y066371D01*
X022505Y066260D01*
X022659Y066178D01*
X022826Y066127D01*
X023000Y066110D01*
X023174Y066127D01*
X023341Y066178D01*
X023495Y066260D01*
X023551Y066306D01*
X024181D01*
X024306Y066239D01*
X024450Y066196D01*
X024600Y066181D01*
X024750Y066196D01*
X024894Y066239D01*
X025027Y066310D01*
X025144Y066406D01*
X025240Y066523D01*
X025311Y066656D01*
X025354Y066800D01*
X025369Y066950D01*
X025354Y067100D01*
X025311Y067244D01*
X025240Y067377D01*
X025144Y067494D01*
X025133Y067503D01*
X025190Y067573D01*
X025261Y067706D01*
X025304Y067850D01*
X025309Y067900D01*
X024550D01*
Y068100D01*
X025309D01*
X025304Y068150D01*
X025261Y068294D01*
X025190Y068427D01*
X025094Y068544D01*
X024977Y068640D01*
X024844Y068711D01*
X024700Y068754D01*
X024550Y068769D01*
X024400Y068754D01*
X024256Y068711D01*
X024224Y068694D01*
X023886D01*
Y068856D01*
X053092D01*
X053145Y068797D01*
X053141Y068750D01*
X054659D01*
X054655Y068797D01*
X054708Y068856D01*
X058856D01*
Y062248D01*
D02*
G37*
G36*
X046162Y032531D02*
X046056Y032444D01*
X045960Y032327D01*
X045889Y032194D01*
X045846Y032050D01*
X045831Y031900D01*
X045846Y031750D01*
X045889Y031606D01*
X045949Y031494D01*
X045908Y031425D01*
X044006D01*
X043586Y031845D01*
X043586Y031864D01*
D01*
D01*
Y031864D01*
X043586D01*
Y032606D01*
X046135D01*
X046162Y032531D01*
D02*
G37*
G36*
X051448Y032842D02*
X051489Y032706D01*
X051560Y032573D01*
X051607Y032516D01*
X051573Y032444D01*
X050986D01*
Y032686D01*
X050986D01*
X050980Y032693D01*
X050990Y032800D01*
X050976Y032947D01*
X051029Y033006D01*
X051283D01*
X051448Y032842D01*
D02*
G37*
G36*
X054802Y032444D02*
X052827D01*
X052793Y032516D01*
X052840Y032573D01*
X052911Y032706D01*
X052954Y032850D01*
X052969Y033000D01*
X052954Y033150D01*
X052911Y033294D01*
X052840Y033427D01*
X052819Y033453D01*
X052853Y033525D01*
X054802D01*
Y032444D01*
D02*
G37*
G36*
X029882Y035177D02*
X029948Y035054D01*
X030037Y034946D01*
X030145Y034858D01*
X030211Y034822D01*
Y034729D01*
X030210Y034727D01*
X030139Y034594D01*
X030109Y034494D01*
X029867D01*
X029452Y034908D01*
X029411Y035044D01*
X029340Y035177D01*
X029293Y035234D01*
X029327Y035306D01*
X029843D01*
X029882Y035177D01*
D02*
G37*
G36*
X048556Y036000D02*
Y035770D01*
X048489Y035644D01*
X048446Y035500D01*
X048431Y035350D01*
X048446Y035200D01*
X048489Y035056D01*
X048560Y034923D01*
X048591Y034885D01*
X048557Y034813D01*
X047094D01*
Y035614D01*
X047166Y035648D01*
X047273Y035560D01*
X047406Y035489D01*
X047550Y035446D01*
X047700Y035431D01*
X047850Y035446D01*
X047994Y035489D01*
X048127Y035560D01*
X048244Y035656D01*
X048340Y035773D01*
X048411Y035906D01*
X048445Y036019D01*
X048523Y036037D01*
X048556Y036000D01*
D02*
G37*
G36*
X056260Y040173D02*
X056356Y040056D01*
X056473Y039960D01*
X056606Y039889D01*
X056640Y039879D01*
X056675Y039844D01*
X056780Y039758D01*
X056780Y039757D01*
X057520Y039018D01*
X057489Y038944D01*
X056981D01*
Y039116D01*
X056144D01*
Y040226D01*
X056221Y040246D01*
X056260Y040173D01*
D02*
G37*
G36*
X052226Y035196D02*
X052334Y035108D01*
X052457Y035042D01*
X052591Y035002D01*
X052730Y034988D01*
X052776D01*
X052877Y034887D01*
X052846Y034813D01*
X051970D01*
X051916Y034872D01*
X051919Y034900D01*
X051904Y035050D01*
X051883Y035122D01*
X051974Y035196D01*
X052060Y035302D01*
X052140D01*
X052226Y035196D01*
D02*
G37*
G36*
X026872Y036632D02*
X026845Y036605D01*
X026765Y036508D01*
X026705Y036396D01*
X026669Y036276D01*
X026656Y036150D01*
Y033702D01*
X026588Y033661D01*
X026494Y033711D01*
X026350Y033754D01*
X026300Y033759D01*
Y033000D01*
X026200D01*
Y032900D01*
X025441D01*
X025446Y032850D01*
X025489Y032706D01*
X025560Y032573D01*
X025656Y032456D01*
X025773Y032360D01*
X025906Y032289D01*
X025940Y032279D01*
X026609Y031609D01*
X026714Y031523D01*
X026834Y031459D01*
X026965Y031419D01*
X027100Y031406D01*
X034074D01*
X034106Y031389D01*
X034250Y031346D01*
X034300Y031341D01*
Y032100D01*
X034500D01*
Y031341D01*
X034550Y031346D01*
X034694Y031389D01*
X034726Y031406D01*
X037879D01*
X037960Y031255D01*
X037992Y031216D01*
X037958Y031144D01*
X021144D01*
Y033615D01*
X021212Y033656D01*
X021359Y033578D01*
X021526Y033527D01*
X021700Y033510D01*
X021874Y033527D01*
X022041Y033578D01*
X022195Y033660D01*
X022200Y033664D01*
X022205Y033660D01*
X022359Y033578D01*
X022526Y033527D01*
X022700Y033510D01*
X022874Y033527D01*
X023041Y033578D01*
X023195Y033660D01*
X023329Y033771D01*
X023440Y033905D01*
X023522Y034059D01*
X023573Y034226D01*
X023590Y034400D01*
X023573Y034574D01*
X023537Y034692D01*
X023585Y034756D01*
X024374D01*
X024406Y034739D01*
X024550Y034696D01*
X024700Y034681D01*
X024850Y034696D01*
X024994Y034739D01*
X025127Y034810D01*
X025244Y034906D01*
X025340Y035023D01*
X025411Y035156D01*
X025454Y035300D01*
X025469Y035450D01*
X025454Y035600D01*
X025411Y035744D01*
X025340Y035877D01*
X025244Y035994D01*
X025127Y036090D01*
X024994Y036161D01*
X024850Y036204D01*
X024700Y036219D01*
X024550Y036204D01*
X024406Y036161D01*
X024273Y036090D01*
X024217Y036044D01*
X023585D01*
X023537Y036108D01*
X023573Y036226D01*
X023590Y036400D01*
X023573Y036574D01*
X023552Y036642D01*
X023600Y036706D01*
X026841D01*
X026872Y036632D01*
D02*
G37*
G36*
X050182Y035427D02*
X050248Y035304D01*
X050337Y035196D01*
X050419Y035129D01*
X050396Y035050D01*
X050381Y034900D01*
X050384Y034872D01*
X050330Y034813D01*
X049843D01*
X049809Y034885D01*
X049840Y034923D01*
X049911Y035056D01*
X049954Y035200D01*
X049969Y035350D01*
X049955Y035497D01*
X050009Y035556D01*
X050143D01*
X050182Y035427D01*
D02*
G37*
%LPC*%
G36*
X030050Y043300D02*
X029391D01*
X029396Y043250D01*
X029439Y043106D01*
X029510Y042973D01*
X029606Y042856D01*
X029723Y042760D01*
X029856Y042689D01*
X030000Y042646D01*
X030050Y042641D01*
Y043300D01*
D02*
G37*
G36*
X026100Y033759D02*
X026050Y033754D01*
X025906Y033711D01*
X025773Y033640D01*
X025656Y033544D01*
X025560Y033427D01*
X025489Y033294D01*
X025446Y033150D01*
X025441Y033100D01*
X026100D01*
Y033759D01*
D02*
G37*
G36*
X037350Y054709D02*
Y054050D01*
X038009D01*
X038004Y054100D01*
X037961Y054244D01*
X037890Y054377D01*
X037794Y054494D01*
X037677Y054590D01*
X037544Y054661D01*
X037400Y054704D01*
X037350Y054709D01*
D02*
G37*
G36*
X033300Y063900D02*
X032641D01*
X032646Y063850D01*
X032689Y063706D01*
X032760Y063573D01*
X032856Y063456D01*
X032973Y063360D01*
X033106Y063289D01*
X033250Y063246D01*
X033300Y063241D01*
Y063900D01*
D02*
G37*
G36*
X034159D02*
X033500D01*
Y063241D01*
X033550Y063246D01*
X033694Y063289D01*
X033827Y063360D01*
X033944Y063456D01*
X034040Y063573D01*
X034111Y063706D01*
X034154Y063850D01*
X034159Y063900D01*
D02*
G37*
G36*
X023850Y064209D02*
X023800Y064204D01*
X023656Y064161D01*
X023523Y064090D01*
X023406Y063994D01*
X023310Y063877D01*
X023239Y063744D01*
X023196Y063600D01*
X023191Y063550D01*
X023850D01*
Y064209D01*
D02*
G37*
G36*
X033700Y061059D02*
Y060400D01*
X034359D01*
X034354Y060450D01*
X034311Y060594D01*
X034240Y060727D01*
X034144Y060844D01*
X034027Y060940D01*
X033894Y061011D01*
X033750Y061054D01*
X033700Y061059D01*
D02*
G37*
G36*
X023850Y063350D02*
X023191D01*
X023196Y063300D01*
X023239Y063156D01*
X023310Y063023D01*
X023406Y062906D01*
X023523Y062810D01*
X023656Y062739D01*
X023800Y062696D01*
X023850Y062691D01*
Y063350D01*
D02*
G37*
G36*
X024709D02*
X024050D01*
Y062691D01*
X024100Y062696D01*
X024244Y062739D01*
X024377Y062810D01*
X024494Y062906D01*
X024590Y063023D01*
X024661Y063156D01*
X024704Y063300D01*
X024709Y063350D01*
D02*
G37*
G36*
X057383Y068206D02*
X057209Y068189D01*
X057042Y068138D01*
X056889Y068056D01*
X056754Y067946D01*
X056643Y067811D01*
X056561Y067657D01*
X056510Y067490D01*
X056493Y067316D01*
X056510Y067142D01*
X056561Y066976D01*
X056643Y066822D01*
X056754Y066687D01*
X056889Y066576D01*
X057042Y066494D01*
X057055Y066490D01*
Y066410D01*
X057042Y066406D01*
X056889Y066324D01*
X056754Y066213D01*
X056643Y066078D01*
X056561Y065924D01*
X056510Y065758D01*
X056493Y065584D01*
X056510Y065410D01*
X056561Y065243D01*
X056643Y065089D01*
X056754Y064954D01*
X056889Y064844D01*
X057042Y064762D01*
X057209Y064711D01*
X057383Y064694D01*
X057557Y064711D01*
X057724Y064762D01*
X057878Y064844D01*
X058012Y064954D01*
X058123Y065089D01*
X058205Y065243D01*
X058256Y065410D01*
X058273Y065584D01*
X058256Y065758D01*
X058205Y065924D01*
X058123Y066078D01*
X058012Y066213D01*
X057878Y066324D01*
X057724Y066406D01*
X057711Y066410D01*
Y066490D01*
X057724Y066494D01*
X057878Y066576D01*
X058012Y066687D01*
X058123Y066822D01*
X058205Y066976D01*
X058256Y067142D01*
X058273Y067316D01*
X058256Y067490D01*
X058205Y067657D01*
X058123Y067811D01*
X058012Y067946D01*
X057878Y068056D01*
X057724Y068138D01*
X057557Y068189D01*
X057383Y068206D01*
D02*
G37*
G36*
X053800Y068550D02*
X053141D01*
X053146Y068500D01*
X053189Y068356D01*
X053260Y068223D01*
X053356Y068106D01*
X053473Y068010D01*
X053606Y067939D01*
X053750Y067896D01*
X053800Y067891D01*
Y068550D01*
D02*
G37*
G36*
X054659D02*
X054000D01*
Y067891D01*
X054050Y067896D01*
X054194Y067939D01*
X054327Y068010D01*
X054444Y068106D01*
X054540Y068223D01*
X054611Y068356D01*
X054654Y068500D01*
X054659Y068550D01*
D02*
G37*
G36*
X024050Y064209D02*
Y063550D01*
X024709D01*
X024704Y063600D01*
X024661Y063744D01*
X024590Y063877D01*
X024494Y063994D01*
X024377Y064090D01*
X024244Y064161D01*
X024100Y064204D01*
X024050Y064209D01*
D02*
G37*
G36*
X033300Y064759D02*
X033250Y064754D01*
X033106Y064711D01*
X032973Y064640D01*
X032856Y064544D01*
X032760Y064427D01*
X032689Y064294D01*
X032646Y064150D01*
X032641Y064100D01*
X033300D01*
Y064759D01*
D02*
G37*
G36*
X033500D02*
Y064100D01*
X034159D01*
X034154Y064150D01*
X034111Y064294D01*
X034040Y064427D01*
X033944Y064544D01*
X033827Y064640D01*
X033694Y064711D01*
X033550Y064754D01*
X033500Y064759D01*
D02*
G37*
G36*
X044700Y056259D02*
X044650Y056254D01*
X044506Y056211D01*
X044373Y056140D01*
X044256Y056044D01*
X044160Y055927D01*
X044089Y055794D01*
X044046Y055650D01*
X044041Y055600D01*
X044700D01*
Y056259D01*
D02*
G37*
G36*
X044900D02*
Y055600D01*
X045559D01*
X045554Y055650D01*
X045511Y055794D01*
X045440Y055927D01*
X045344Y056044D01*
X045227Y056140D01*
X045094Y056211D01*
X044950Y056254D01*
X044900Y056259D01*
D02*
G37*
G36*
X032880Y059500D02*
X031120D01*
X031120Y059493D01*
X031114Y059486D01*
X031114D01*
Y057714D01*
X032886D01*
Y059486D01*
X032886D01*
X032880Y059493D01*
X032880Y059500D01*
D02*
G37*
G36*
X044700Y055400D02*
X044041D01*
X044046Y055350D01*
X044089Y055206D01*
X044160Y055073D01*
X044256Y054956D01*
X044373Y054860D01*
X044506Y054789D01*
X044650Y054746D01*
X044700Y054741D01*
Y055400D01*
D02*
G37*
G36*
X045559D02*
X044900D01*
Y054741D01*
X044950Y054746D01*
X045094Y054789D01*
X045227Y054860D01*
X045344Y054956D01*
X045440Y055073D01*
X045511Y055206D01*
X045554Y055350D01*
X045559Y055400D01*
D02*
G37*
G36*
X057886Y055086D02*
X056114D01*
Y054944D01*
X054270D01*
X054144Y055011D01*
X054000Y055054D01*
X053850Y055069D01*
X053700Y055054D01*
X053556Y055011D01*
X053423Y054940D01*
X053306Y054844D01*
X053210Y054727D01*
X053139Y054594D01*
X053096Y054450D01*
X053081Y054300D01*
X053096Y054150D01*
X053139Y054006D01*
X053210Y053873D01*
X053306Y053756D01*
X053423Y053660D01*
X053556Y053589D01*
X053700Y053546D01*
X053850Y053531D01*
X054000Y053546D01*
X054144Y053589D01*
X054164Y053600D01*
X054225Y053549D01*
X054196Y053450D01*
X054181Y053300D01*
X054196Y053150D01*
X054239Y053006D01*
X054310Y052873D01*
X054406Y052756D01*
X054523Y052660D01*
X054656Y052589D01*
X054800Y052546D01*
X054950Y052531D01*
X055100Y052546D01*
X055244Y052589D01*
X055370Y052656D01*
X056300D01*
X056371Y052571D01*
X056505Y052460D01*
X056659Y052378D01*
X056826Y052327D01*
X057000Y052310D01*
X057174Y052327D01*
X057341Y052378D01*
X057495Y052460D01*
X057629Y052571D01*
X057740Y052705D01*
X057822Y052859D01*
X057873Y053026D01*
X057890Y053200D01*
X057880Y053307D01*
X057886Y053314D01*
X057886D01*
Y055086D01*
D02*
G37*
G36*
X032100Y060480D02*
Y059700D01*
X032880D01*
X032873Y059774D01*
X032822Y059941D01*
X032740Y060095D01*
X032629Y060229D01*
X032495Y060340D01*
X032341Y060422D01*
X032174Y060473D01*
X032100Y060480D01*
D02*
G37*
G36*
X043000Y060240D02*
X042826Y060223D01*
X042659Y060172D01*
X042505Y060090D01*
X042500Y060086D01*
X042495Y060090D01*
X042341Y060172D01*
X042174Y060223D01*
X042000Y060240D01*
X041826Y060223D01*
X041659Y060172D01*
X041505Y060090D01*
X041500Y060086D01*
X041495Y060090D01*
X041341Y060172D01*
X041174Y060223D01*
X041000Y060240D01*
X040826Y060223D01*
X040659Y060172D01*
X040505Y060090D01*
X040500Y060086D01*
X040495Y060090D01*
X040341Y060172D01*
X040174Y060223D01*
X040000Y060240D01*
X039826Y060223D01*
X039659Y060172D01*
X039505Y060090D01*
X039500Y060086D01*
X039495Y060090D01*
X039341Y060172D01*
X039174Y060223D01*
X039000Y060240D01*
X038826Y060223D01*
X038659Y060172D01*
X038505Y060090D01*
X038500Y060086D01*
X038495Y060090D01*
X038341Y060172D01*
X038174Y060223D01*
X038000Y060240D01*
X037826Y060223D01*
X037659Y060172D01*
X037505Y060090D01*
X037500Y060086D01*
X037495Y060090D01*
X037341Y060172D01*
X037174Y060223D01*
X037000Y060240D01*
X036826Y060223D01*
X036659Y060172D01*
X036505Y060090D01*
X036371Y059979D01*
X036260Y059845D01*
X036178Y059691D01*
X036127Y059524D01*
X036110Y059350D01*
X036127Y059176D01*
X036178Y059009D01*
X036260Y058855D01*
X036264Y058850D01*
X036260Y058845D01*
X036178Y058691D01*
X036127Y058524D01*
X036110Y058350D01*
X036127Y058176D01*
X036178Y058009D01*
X036260Y057855D01*
X036371Y057721D01*
X036505Y057610D01*
X036659Y057528D01*
X036826Y057477D01*
X037000Y057460D01*
X037174Y057477D01*
X037341Y057528D01*
X037495Y057610D01*
X037500Y057614D01*
X037505Y057610D01*
X037659Y057528D01*
X037826Y057477D01*
X038000Y057460D01*
X038174Y057477D01*
X038341Y057528D01*
X038495Y057610D01*
X038500Y057614D01*
X038505Y057610D01*
X038659Y057528D01*
X038826Y057477D01*
X039000Y057460D01*
X039174Y057477D01*
X039341Y057528D01*
X039495Y057610D01*
X039500Y057614D01*
X039505Y057610D01*
X039659Y057528D01*
X039826Y057477D01*
X040000Y057460D01*
X040174Y057477D01*
X040341Y057528D01*
X040495Y057610D01*
X040500Y057614D01*
X040505Y057610D01*
X040659Y057528D01*
X040826Y057477D01*
X041000Y057460D01*
X041174Y057477D01*
X041341Y057528D01*
X041495Y057610D01*
X041500Y057614D01*
X041505Y057610D01*
X041659Y057528D01*
X041826Y057477D01*
X042000Y057460D01*
X042174Y057477D01*
X042341Y057528D01*
X042495Y057610D01*
X042500Y057614D01*
X042505Y057610D01*
X042659Y057528D01*
X042826Y057477D01*
X043000Y057460D01*
X043174Y057477D01*
X043341Y057528D01*
X043495Y057610D01*
X043500Y057614D01*
X043505Y057610D01*
X043659Y057528D01*
X043826Y057477D01*
X044000Y057460D01*
X044174Y057477D01*
X044341Y057528D01*
X044495Y057610D01*
X044629Y057721D01*
X044740Y057855D01*
X044822Y058009D01*
X044873Y058176D01*
X044890Y058350D01*
X044880Y058457D01*
X044886Y058464D01*
X044886D01*
Y060236D01*
X043114D01*
Y060236D01*
X043107Y060230D01*
X043000Y060240D01*
D02*
G37*
G36*
X033500Y061059D02*
X033450Y061054D01*
X033306Y061011D01*
X033173Y060940D01*
X033056Y060844D01*
X032960Y060727D01*
X032889Y060594D01*
X032846Y060450D01*
X032841Y060400D01*
X033500D01*
Y061059D01*
D02*
G37*
G36*
Y060200D02*
X032841D01*
X032846Y060150D01*
X032889Y060006D01*
X032960Y059873D01*
X033056Y059756D01*
X033173Y059660D01*
X033306Y059589D01*
X033450Y059546D01*
X033500Y059541D01*
Y060200D01*
D02*
G37*
G36*
X034359D02*
X033700D01*
Y059541D01*
X033750Y059546D01*
X033894Y059589D01*
X034027Y059660D01*
X034144Y059756D01*
X034240Y059873D01*
X034311Y060006D01*
X034354Y060150D01*
X034359Y060200D01*
D02*
G37*
G36*
X031900Y060480D02*
X031826Y060473D01*
X031659Y060422D01*
X031505Y060340D01*
X031371Y060229D01*
X031260Y060095D01*
X031178Y059941D01*
X031127Y059774D01*
X031120Y059700D01*
X031900D01*
Y060480D01*
D02*
G37*
%LPD*%
D10*
X027015Y038700D02*
D03*
X027685D02*
D03*
X048815Y039550D02*
D03*
X049485D02*
D03*
X037265Y047450D02*
D03*
X037935D02*
D03*
X037265Y046500D02*
D03*
X037935D02*
D03*
D11*
X045146Y035100D02*
D03*
X045854D02*
D03*
X036904Y035050D02*
D03*
X036196D02*
D03*
X045096Y036100D02*
D03*
X045804D02*
D03*
X036904Y036050D02*
D03*
X036196D02*
D03*
X045096Y037100D02*
D03*
X045804D02*
D03*
X037704Y037000D02*
D03*
X036996D02*
D03*
X045096Y038100D02*
D03*
X045804D02*
D03*
X036904Y038050D02*
D03*
X036196D02*
D03*
X045046Y039050D02*
D03*
X045754D02*
D03*
X025496Y052200D02*
D03*
X026204D02*
D03*
X025496Y051000D02*
D03*
X026204D02*
D03*
X036204Y039000D02*
D03*
X035496D02*
D03*
X056154Y038250D02*
D03*
X055446D02*
D03*
X037854Y039000D02*
D03*
X037146D02*
D03*
X055446Y037200D02*
D03*
X056154D02*
D03*
X035396Y037000D02*
D03*
X036104D02*
D03*
D15*
X021350Y053954D02*
D03*
Y053246D02*
D03*
X027100Y054854D02*
D03*
Y054146D02*
D03*
D20*
X021600Y051600D02*
X022050Y052050D01*
X023050D01*
X057200Y031250D02*
X057750Y031800D01*
X058450D01*
X035500Y046500D02*
X037265D01*
X034900Y047100D02*
X035500Y046500D01*
X055450Y030731D02*
X057419Y032700D01*
X058450D01*
X043719Y030731D02*
X055450D01*
X058450Y032700D02*
X059269Y033519D01*
Y037500D01*
X038500Y040800D02*
X039500Y039800D01*
X038500Y040800D02*
Y044500D01*
X038200Y044800D02*
X038500Y044500D01*
X039500Y039800D02*
X043800D01*
X036100Y044800D02*
X038200D01*
X035450Y044150D02*
X036100Y044800D01*
X030900Y044150D02*
X035450D01*
X030150Y043400D02*
X030900Y044150D01*
X037250Y052300D02*
Y053950D01*
X036850Y051900D02*
X037250Y052300D01*
X036850Y049050D02*
Y051900D01*
X022854Y053246D02*
X023050Y053050D01*
X021350Y053246D02*
X022854D01*
X021195Y053150D02*
X021291Y053246D01*
X020800Y053150D02*
X021195D01*
X020731Y053219D02*
X020800Y053150D01*
X020731Y053219D02*
Y060331D01*
X026204Y052200D02*
X027100Y053096D01*
Y054146D01*
X027004Y054050D02*
X027100Y054146D01*
X024931Y054050D02*
X027004D01*
X024431Y053550D02*
X024931Y054050D01*
X059269Y038250D02*
Y045950D01*
X048000Y046500D02*
X058719D01*
X059269Y045950D01*
Y060750D01*
X034400Y032100D02*
X038050D01*
X033000Y038450D02*
X034200D01*
X034450Y038700D01*
Y039550D01*
X036204Y039654D02*
X036750Y040200D01*
X036204Y039000D02*
Y039654D01*
X030855Y038950D02*
Y041095D01*
X030850Y041100D02*
X030855Y041095D01*
X043800Y039800D02*
X044700Y040700D01*
Y041350D01*
X047915Y039700D02*
X048065Y039550D01*
X048815D01*
X049835Y039200D02*
X051155D01*
X049485Y039550D02*
X049835Y039200D01*
X051150Y039205D02*
X051155Y039200D01*
X051150Y039205D02*
Y040300D01*
X050850Y040600D02*
X051150Y040300D01*
X047350Y040600D02*
X050850D01*
X045754Y040204D02*
X046150Y040600D01*
X047350D01*
X045754Y035200D02*
Y039050D01*
Y040204D01*
X057100Y040400D02*
X057165Y040335D01*
X056900Y040600D02*
X057100Y040400D01*
X057165Y040335D02*
X057185D01*
X059269Y038250D01*
X057119Y040400D02*
X057185Y040335D01*
X053300Y041650D02*
X054200D01*
X045000D02*
X053300D01*
X054200D02*
X054850Y041000D01*
X044700Y041350D02*
X045000Y041650D01*
X054850Y038950D02*
Y041000D01*
X053545Y035200D02*
X054150D01*
X053045Y035700D02*
X053545Y035200D01*
X059269Y037500D02*
Y038250D01*
X057100Y040400D02*
X057119D01*
X058519Y038250D02*
X059269Y037500D01*
X056154Y038250D02*
X058519D01*
X026204Y051000D02*
Y052200D01*
X021515Y068000D02*
X023000D01*
X021300Y067785D02*
X021515Y068000D01*
X021300Y067115D02*
X022885D01*
X023000Y067000D01*
X024550D01*
X024600Y066950D01*
X023000Y068000D02*
X024550D01*
X023050Y053050D02*
X023150D01*
X023650Y053550D01*
X045754Y035200D02*
X045854Y035100D01*
X056154Y037200D02*
Y038250D01*
X056154Y037200D02*
X056154Y037200D01*
X047450Y039700D02*
X047915D01*
X053045Y035700D02*
Y036200D01*
X027935Y038950D02*
X030855D01*
X027685Y038700D02*
X027935Y038950D01*
X027300Y037400D02*
X027685Y037785D01*
Y038700D01*
X022700Y037400D02*
X027300D01*
X032745Y035450D02*
Y035950D01*
X036196Y038991D02*
X036204Y039000D01*
Y038059D02*
Y039000D01*
X036196Y038050D02*
X036204Y038059D01*
X036196Y037091D02*
Y038050D01*
X036104Y037000D02*
X036196Y037091D01*
X036104Y037000D02*
X036996D01*
X036996Y037000D01*
X036104Y036141D02*
Y037000D01*
Y036141D02*
X036196Y036050D01*
Y035050D02*
Y036050D01*
X036204Y039000D02*
X037146D01*
X038700Y032750D02*
X039700D01*
X040700D01*
X041700D01*
X042700D01*
X021291Y053246D02*
X021350D01*
X020731Y060331D02*
X021400Y061000D01*
X038700Y031750D02*
X039700D01*
X040700D01*
X041700D01*
X042700D01*
X030900Y038995D02*
Y039950D01*
X030855Y038950D02*
X030900Y038995D01*
X042700Y031750D02*
X043719Y030731D01*
X033450Y062150D02*
X057869D01*
X059269Y060750D01*
X021700Y037400D02*
Y038800D01*
X021650Y038850D02*
X021700Y038800D01*
X026865Y038850D02*
X027015Y038700D01*
X053045D02*
X054600D01*
X053045Y037700D02*
X054200D01*
X032745Y035450D02*
X033450D01*
X034350Y034550D01*
X023750Y038850D02*
X026865D01*
X038050Y032100D02*
X038700Y032750D01*
X027100Y032100D02*
X034200D01*
X026200Y033000D02*
X027100Y032100D01*
X027300Y039450D02*
X029950D01*
X027015Y038700D02*
Y039165D01*
X027300Y039450D01*
X054600Y038700D02*
X054850Y038950D01*
X023650Y053550D02*
X024431D01*
D21*
X022800Y044750D02*
X023200Y045150D01*
X022800Y038950D02*
Y044750D01*
X022250Y038400D02*
X022800Y038950D01*
X023200Y045150D02*
X045050D01*
X022250Y036950D02*
Y038400D01*
X021250Y040881D02*
Y045319D01*
X020869Y040500D02*
X021250Y040881D01*
X021700Y040350D02*
Y045100D01*
X021050Y039700D02*
X021700Y040350D01*
Y045100D02*
X022000Y045400D01*
X021050Y036200D02*
Y039700D01*
X048931Y045669D02*
X049050Y045550D01*
X021600Y045669D02*
X048931D01*
X020988Y045850D02*
X044713D01*
X046013Y047150D01*
X020688Y045550D02*
X020988Y045850D01*
X020688Y034762D02*
Y045550D01*
X021250Y045319D02*
X021600Y045669D01*
X020869Y035581D02*
Y040500D01*
X022000Y045400D02*
X044450D01*
X032600Y046600D02*
X034250Y048250D01*
X025600Y046600D02*
X032600D01*
X021050Y036200D02*
X021350Y035900D01*
X022200D01*
X021050Y035400D02*
X021700D01*
X020869Y035581D02*
X021050Y035400D01*
Y034400D02*
X021700D01*
X020688Y034762D02*
X021050Y034400D01*
X023100Y054100D02*
Y056150D01*
X023350Y056400D01*
X023750D01*
X023050Y054050D02*
X023100Y054100D01*
X036954Y036000D02*
X038300D01*
X040000D01*
X028850Y037750D02*
X029050Y037950D01*
X030855D01*
X028800Y038450D02*
X030855D01*
X045050Y045150D02*
X045900Y044300D01*
X037935Y046500D02*
X038500D01*
X038950Y046950D01*
X037935Y047450D02*
X038085Y047300D01*
X024404Y050954D02*
X025450D01*
X024400Y050950D02*
X024404Y050954D01*
X024050Y051300D02*
X024400Y050950D01*
X024050Y051300D02*
Y052050D01*
X025550Y053050D02*
X025750Y053250D01*
X025496Y052996D02*
X025550Y053050D01*
X025496Y052200D02*
Y052996D01*
X024050Y053050D02*
X025550D01*
X027546Y054854D02*
X028650Y053750D01*
X027100Y054854D02*
X027546D01*
X028650Y053750D02*
X028700Y053700D01*
X027100Y054854D02*
Y055050D01*
X026800Y055350D02*
X027100Y055050D01*
X024350Y055350D02*
X026800D01*
X024050Y055050D02*
X024350Y055350D01*
X024050Y054050D02*
Y055050D01*
X028700Y052500D02*
Y053700D01*
X051650Y047550D02*
Y052200D01*
X051400Y052450D02*
X051650Y052200D01*
X046013Y047150D02*
X051250D01*
X051650Y047550D01*
X047606Y045394D02*
X048050Y044950D01*
X044456Y045394D02*
X047606D01*
X044450Y045400D02*
X044456Y045394D01*
X033850Y038100D02*
X035250D01*
X033700Y037950D02*
X033850Y038100D01*
X035250D02*
X035496Y038346D01*
X032745Y037950D02*
X033700D01*
X035196Y036800D02*
X035396Y037000D01*
X033550Y036800D02*
X035196D01*
X033400Y036950D02*
X033550Y036800D01*
X032745Y036950D02*
X033400D01*
X037550Y041900D02*
X037854Y041596D01*
Y039000D02*
Y041596D01*
X033900Y041900D02*
X037550D01*
X033500Y041500D02*
X033900Y041900D01*
X033500Y039100D02*
Y041500D01*
X027800Y033850D02*
X029600D01*
X028700Y034750D02*
X029600Y033850D01*
X030119D01*
X027650Y035600D02*
X028000Y035950D01*
X027650Y034000D02*
Y035600D01*
Y034000D02*
X027800Y033850D01*
X030119D02*
X030500Y033469D01*
X048131D01*
X029600Y033350D02*
X029650Y033300D01*
X027600Y033350D02*
X029600D01*
X027300Y033650D02*
X027600Y033350D01*
X027300Y033650D02*
Y036150D01*
X027600Y036450D01*
X030855D01*
X038600Y035000D02*
X040000D01*
X033901Y037201D02*
X034150Y037450D01*
X031899Y037201D02*
X033901D01*
X037704Y037000D02*
X038850D01*
X053045Y039200D02*
X054150D01*
X054300Y039350D01*
Y039800D01*
X054100Y040000D02*
X054300Y039800D01*
X052245Y040000D02*
X054100D01*
X050845Y041400D02*
X052245Y040000D01*
X045350Y041400D02*
X050845D01*
X045046Y041096D02*
X045350Y041400D01*
X045046Y039050D02*
Y041096D01*
X047350Y038900D02*
X047550Y038700D01*
X051155D01*
X041000Y037000D02*
X042100D01*
X044996D01*
X047700Y036200D02*
X048200Y036700D01*
X051155D01*
X041000Y036000D02*
X042750D01*
X044996D01*
X043050Y037950D02*
X043450Y037550D01*
X043050Y037950D02*
Y038000D01*
X044996D01*
X041000D02*
X043050D01*
X055446Y038250D02*
X055500Y038304D01*
Y042400D01*
X055050Y042850D02*
X055500Y042400D01*
X051000Y042850D02*
X055050D01*
X050100Y041950D02*
X051000Y042850D01*
X043000Y041950D02*
X050100D01*
X041800Y040750D02*
X043000Y041950D01*
X055246Y038450D02*
X055446Y038250D01*
X053850Y038450D02*
X055246D01*
X053600Y038200D02*
X053850Y038450D01*
X053045Y038200D02*
X053600D01*
X055146Y036900D02*
X055446Y037200D01*
X053850Y036900D02*
X055146D01*
X053550Y037200D02*
X053850Y036900D01*
X053045Y037200D02*
X053550D01*
X032655Y033650D02*
X051550D01*
X052200Y033000D01*
X048131Y033469D02*
X048750Y032850D01*
X049200Y035350D02*
Y036000D01*
X049400Y036200D01*
X051155D01*
X029700Y033250D02*
X047100D01*
X047700Y032650D01*
X046600Y031900D02*
X048750D01*
X049650Y032800D01*
X050100D01*
X033000Y056750D02*
X036550Y053200D01*
X029700Y056750D02*
X033000D01*
X029400Y056450D02*
X029700Y056750D01*
X029400Y050400D02*
Y056450D01*
X028850Y049850D02*
X029400Y050400D01*
X025950Y049850D02*
X028850D01*
X025450Y050350D02*
X025950Y049850D01*
X025450Y050350D02*
Y050954D01*
X025496Y051000D01*
X021350Y053954D02*
X021446Y054050D01*
X023050D01*
X053850Y054300D02*
X056900D01*
X057000Y054200D01*
X054950Y053300D02*
X056900D01*
X057000Y053200D01*
X037265Y046500D02*
Y047450D01*
X037935Y046500D02*
Y047450D01*
X037854Y039000D02*
X040000D01*
X037854Y039000D02*
X037854Y039000D01*
X036904Y038050D02*
X036954Y038000D01*
X037704Y037000D02*
X037704Y037000D01*
X036904Y036050D02*
X036954Y036000D01*
X036904Y035050D02*
X036954Y035000D01*
X041000D02*
X045046D01*
X045146Y035100D01*
X044996Y036000D02*
X045096Y036100D01*
X044996Y037000D02*
X045096Y037100D01*
X044996Y038000D02*
X045096Y038100D01*
X041000Y039000D02*
X044996D01*
X045046Y039050D01*
X049400Y038200D02*
X051155D01*
X049350Y038250D02*
X049400Y038200D01*
X046700Y037700D02*
X051155D01*
X046450Y037450D02*
X046700Y037700D01*
X046450Y034500D02*
Y037450D01*
X046300Y034350D02*
X046450Y034500D01*
X045400Y034350D02*
X046300D01*
X045146Y034604D02*
X045400Y034350D01*
X045146Y034604D02*
Y035100D01*
X049450Y037200D02*
X051155D01*
X049400Y037250D02*
X049450Y037200D01*
X050100Y031800D02*
X055100D01*
X055450Y032150D01*
X055446Y032154D02*
Y037200D01*
Y032154D02*
X055450Y032150D01*
X035496Y038346D02*
Y039000D01*
X053045Y036700D02*
X054865D01*
X055265Y036300D01*
Y034465D02*
Y036300D01*
X054969Y034169D02*
X055265Y034465D01*
X036081Y034169D02*
X054969D01*
X035550Y034700D02*
X036081Y034169D01*
X035550Y034700D02*
Y036150D01*
X035250Y036450D02*
X035550Y036150D01*
X030855Y035450D02*
X032655Y033650D01*
X051150Y034900D02*
Y035695D01*
X051155Y035700D01*
X028000Y035950D02*
X030855D01*
X036954Y035000D02*
X038600D01*
X038850Y037000D02*
X040000D01*
X030855Y034305D02*
Y035450D01*
X030850Y034300D02*
X030855Y034305D01*
X029650Y033300D02*
X029700Y033250D01*
Y037150D02*
X029900Y036950D01*
X030700D01*
X022200Y035900D02*
X022700Y036400D01*
X035496Y039000D02*
Y040796D01*
X035600Y040900D01*
X022700Y035400D02*
X024650D01*
X024700Y035450D01*
X047650Y048250D02*
X048050Y047850D01*
X034250Y048250D02*
X047650D01*
X021700Y036400D02*
X022250Y036950D01*
X032200D02*
X032745D01*
X031750Y036500D02*
X032200Y036950D01*
X031750Y035778D02*
Y036500D01*
Y035778D02*
X033128Y034400D01*
X033200D01*
X033600Y036450D02*
X034600Y035450D01*
X032745Y036450D02*
X033600D01*
X035250D01*
X032745Y038950D02*
X033350D01*
X033500Y039100D01*
X032100Y038450D02*
X032745D01*
X031850Y038200D02*
X032100Y038450D01*
X031850Y037756D02*
Y038200D01*
Y037756D02*
X032156Y037450D01*
X032745D01*
X036954Y038000D02*
X038650D01*
X040000D01*
X030855Y037450D02*
X031650D01*
X031899Y037201D01*
D22*
X022700Y034400D02*
D03*
X021700D02*
D03*
X022700Y035400D02*
D03*
X021700D02*
D03*
X022700Y036400D02*
D03*
X021700D02*
D03*
X022700Y037400D02*
D03*
X023050Y052050D02*
D03*
X024050Y053050D02*
D03*
X023050D02*
D03*
X024050Y054050D02*
D03*
X023050D02*
D03*
X057000Y053200D02*
D03*
X032000Y059600D02*
D03*
X040000Y039000D02*
D03*
X041000D02*
D03*
X040000Y038000D02*
D03*
X041000D02*
D03*
X040000Y037000D02*
D03*
X041000D02*
D03*
X040000Y036000D02*
D03*
X041000D02*
D03*
X040000Y035000D02*
D03*
X038700Y031750D02*
D03*
Y032750D02*
D03*
X039700Y031750D02*
D03*
Y032750D02*
D03*
X040700Y031750D02*
D03*
Y032750D02*
D03*
X041700Y031750D02*
D03*
Y032750D02*
D03*
X042700Y031750D02*
D03*
X050100Y032800D02*
D03*
X058450D02*
D03*
X023000Y067000D02*
D03*
X032400Y054500D02*
D03*
X031400Y053500D02*
D03*
X032400D02*
D03*
X031400Y052500D02*
D03*
X032400D02*
D03*
X031400Y051500D02*
D03*
X032400D02*
D03*
X031400Y050500D02*
D03*
X032400D02*
D03*
X031400Y049500D02*
D03*
X032400D02*
D03*
X031400Y048500D02*
D03*
X032400D02*
D03*
X031400Y047500D02*
D03*
X032400D02*
D03*
X037000Y043500D02*
D03*
X038000Y042500D02*
D03*
Y043500D02*
D03*
X039000Y042500D02*
D03*
Y043500D02*
D03*
X040000Y042500D02*
D03*
Y043500D02*
D03*
X041000Y042500D02*
D03*
Y043500D02*
D03*
X042000Y042500D02*
D03*
Y043500D02*
D03*
X043000Y042500D02*
D03*
Y043500D02*
D03*
X044000Y042500D02*
D03*
Y043500D02*
D03*
X049250Y047900D02*
D03*
X050250Y048900D02*
D03*
X049250D02*
D03*
X050250Y049900D02*
D03*
X049250D02*
D03*
X050250Y050900D02*
D03*
X049250D02*
D03*
X050250Y051900D02*
D03*
X049250D02*
D03*
X050250Y052900D02*
D03*
X049250D02*
D03*
X050250Y053900D02*
D03*
X049250D02*
D03*
X050250Y054900D02*
D03*
X049250D02*
D03*
X044000Y058350D02*
D03*
X043000Y059350D02*
D03*
Y058350D02*
D03*
X042000Y059350D02*
D03*
Y058350D02*
D03*
X041000Y059350D02*
D03*
Y058350D02*
D03*
X040000Y059350D02*
D03*
Y058350D02*
D03*
X039000Y059350D02*
D03*
Y058350D02*
D03*
X038000Y059350D02*
D03*
Y058350D02*
D03*
X037000Y059350D02*
D03*
Y058350D02*
D03*
X057383Y067316D02*
D03*
Y065584D02*
D03*
D23*
X021700Y037400D02*
D03*
X024050Y052050D02*
D03*
X057000Y054200D02*
D03*
X032000Y058600D02*
D03*
X041000Y035000D02*
D03*
X050100Y031800D02*
D03*
X058450D02*
D03*
X023000Y068000D02*
D03*
X031400Y054500D02*
D03*
X050250Y047900D02*
D03*
D24*
X053100Y051261D02*
D03*
Y049339D02*
D03*
X047500Y043394D02*
D03*
Y042606D02*
D03*
D25*
X042700Y032750D02*
D03*
X037000Y042500D02*
D03*
X044000Y059350D02*
D03*
D26*
X021600Y051600D02*
D03*
X033600Y060300D02*
D03*
X057200Y031250D02*
D03*
X034900Y047100D02*
D03*
X023750Y056400D02*
D03*
X038300Y036000D02*
D03*
X028850Y037750D02*
D03*
X028800Y038450D02*
D03*
X035450Y044150D02*
D03*
X038950Y046950D02*
D03*
X037250Y053950D02*
D03*
X025750Y053250D02*
D03*
X051400Y052450D02*
D03*
X048000Y046500D02*
D03*
X049050Y045550D02*
D03*
X048050Y044950D02*
D03*
X045900Y044300D02*
D03*
X034400Y032100D02*
D03*
X034450Y039550D02*
D03*
X036750Y040200D02*
D03*
X030150Y043400D02*
D03*
X030850Y041100D02*
D03*
X028700Y034750D02*
D03*
X038600Y035000D02*
D03*
X034150Y037450D02*
D03*
X038850Y037000D02*
D03*
X043800Y039800D02*
D03*
X047350Y040600D02*
D03*
X053300Y041650D02*
D03*
X047350Y038900D02*
D03*
X042100Y037000D02*
D03*
X047700Y036200D02*
D03*
X042750Y036000D02*
D03*
X043450Y037550D02*
D03*
X054150Y035200D02*
D03*
X052200Y033000D02*
D03*
X048750Y032850D02*
D03*
X049200Y035350D02*
D03*
X047700Y032650D02*
D03*
X046600Y031900D02*
D03*
X056900Y040600D02*
D03*
X044800Y055500D02*
D03*
X036550Y053200D02*
D03*
X024550Y068000D02*
D03*
X024600Y066950D02*
D03*
X028700Y052500D02*
D03*
X053850Y054300D02*
D03*
X054950Y053300D02*
D03*
X049350Y038250D02*
D03*
X049400Y037250D02*
D03*
X047450Y039700D02*
D03*
X051150Y034900D02*
D03*
X030850Y034300D02*
D03*
X029650Y033300D02*
D03*
X029700Y037150D02*
D03*
X021400Y061000D02*
D03*
X035600Y040900D02*
D03*
X033450Y062150D02*
D03*
X033400Y064000D02*
D03*
X053900Y068650D02*
D03*
X024700Y035450D02*
D03*
X025600Y046600D02*
D03*
X048050Y047850D02*
D03*
X036850Y049050D02*
D03*
X021650Y038850D02*
D03*
X023750D02*
D03*
X054200Y037700D02*
D03*
X041800Y040750D02*
D03*
X033200Y034400D02*
D03*
X034600Y035450D02*
D03*
X034350Y034550D02*
D03*
X029950Y039450D02*
D03*
X026200Y033000D02*
D03*
X038650Y038000D02*
D03*
X023950Y063450D02*
D03*
D27*
X053045Y039200D02*
D03*
Y038700D02*
D03*
Y038200D02*
D03*
Y037700D02*
D03*
Y037200D02*
D03*
Y036700D02*
D03*
Y036200D02*
D03*
Y035700D02*
D03*
X051155Y039200D02*
D03*
Y038700D02*
D03*
Y038200D02*
D03*
Y037700D02*
D03*
Y037200D02*
D03*
Y036700D02*
D03*
Y036200D02*
D03*
Y035700D02*
D03*
X032745Y038950D02*
D03*
Y038450D02*
D03*
Y037950D02*
D03*
Y037450D02*
D03*
Y036950D02*
D03*
Y036450D02*
D03*
Y035950D02*
D03*
Y035450D02*
D03*
X030855Y038950D02*
D03*
Y038450D02*
D03*
Y037950D02*
D03*
Y037450D02*
D03*
Y036950D02*
D03*
Y036450D02*
D03*
Y035950D02*
D03*
Y035450D02*
D03*
D28*
X021300Y067785D02*
D03*
Y067115D02*
D03*
M02*
