M48
;Layer_Color=9474304
;FILE_FORMAT=2:4
INCH
;TYPE=PLATED
T1F00S00C0.0130
T2F00S00C0.0160
T3F00S00C0.0276
T4F00S00C0.0354
%
T01
X026664Y047714
Y048186
X027136
Y047714
T02
X022000Y032850
X022050Y035455
Y035710
X023750Y035880
X023990Y034600
Y034310
X025600Y034130
X025390Y033900
X025290Y033060
X025830Y033120
X025920Y033460
X025589Y031870
X027210Y031630
X028520Y035100
X028960Y037920
X028000Y038414
X027970Y038780
X027850Y039070
X027888Y039920
X027670Y040130
X027910Y040989
Y041970
X028400Y041760
X028750
X028920Y042470
Y042950
X029600Y042740
X030240Y043070
X030602Y042780
X030870Y042930
X030208Y041710
X029610Y041300
X029030Y040890
X030430Y040260
X030210Y039670
X030602Y038580
X031155Y038545
X031180Y039080
X030570Y037220
X026070Y036180
X025390Y035630
X025900Y038100
X024538Y038020
X024190Y038420
X024400Y039500
X026113
X026340Y040000
X024612Y041518
X024830Y041800
X025390Y043500
X026007Y043753
X025610Y044150
X025140Y045130
X023640Y043265
X022750Y041230
X023255Y037900
X027450Y042670
X028060Y044230
X028400Y045380
X029940Y046210
X030440Y046270
X030470Y044650
X030740Y044760
X031670Y045455
X031290Y046010
X031670Y046710
X031810Y041730
X031570Y041510
X032360Y041390
Y040900
Y040120
X032380Y039460
X032140Y038740
X034130Y038840
X033630Y039361
X033450Y040520
X033600Y040776
X033530Y041250
X033590Y041860
X033130Y042160
X032620Y042120
X032910Y042660
X034655Y042905
X034670Y041850
X034050Y041500
Y040410
X035430Y040550
X035690Y040120
X036630Y040480
X036740Y041690
X036200Y043710
X035420Y044920
X031586Y040350
X031610Y037090
X033400Y037680
X033130Y035070
Y033590
X032840Y033360
X033460Y047060
X031390Y048353
X031180Y047940
X027880Y047200
X025910Y048670
X025590Y048750
T03
X031240Y036300
X032460
X034750Y039190
Y040410
T04
X021300Y032550
Y033550
X021150Y038000
Y039000
Y040000
Y041000
Y042000
X022150
Y041000
Y040000
Y039000
Y038000
X027050Y037500
Y038500
Y039500
Y040500
Y041500
X027450Y043600
X028450
X029450
X030450
X026450
X021150Y043800
Y044800
X029000Y033650
X030000
X031000
X032000
X034700Y034050
Y033050
X035700
Y034050
X036700
Y033050
X038150Y036150
Y037150
X036150Y037300
Y038300
Y039300
Y040300
Y041300
Y042300
X037500Y041900
Y040900
Y039900
X038500
Y040900
Y041900
Y042900
X037500
X033450Y043600
X032450
X031450
X021200Y047400
Y048400
M30
