%FSAX24Y24*%
%MOIN*%
G70*
G01*
G75*
G04 Layer_Color=32896*
%ADD10R,0.0177X0.0118*%
%ADD11R,0.0118X0.0177*%
%ADD12O,0.0118X0.0709*%
%ADD13O,0.0709X0.0118*%
%ADD14R,0.0197X0.0925*%
%ADD15R,0.0925X0.0984*%
%ADD16R,0.0591X0.0591*%
%ADD17R,0.0551X0.0433*%
%ADD18R,0.1024X0.0945*%
%ADD19R,0.0433X0.0551*%
%ADD20R,0.0866X0.0787*%
%ADD21R,0.0236X0.0126*%
%ADD22R,0.0126X0.0236*%
%ADD23O,0.0354X0.0118*%
%ADD24O,0.0118X0.0354*%
%ADD25R,0.1024X0.1024*%
%ADD26O,0.0591X0.0236*%
%ADD27C,0.0080*%
%ADD28R,0.0591X0.0591*%
%ADD29C,0.0591*%
%ADD30C,0.0512*%
%ADD31C,0.0240*%
%ADD32C,0.0260*%
%ADD33O,0.0984X0.0276*%
%ADD34C,0.0020*%
%ADD35C,0.0236*%
%ADD36C,0.0098*%
%ADD37C,0.0079*%
%ADD38C,0.0100*%
%ADD39R,0.0257X0.0198*%
%ADD40R,0.0198X0.0257*%
%ADD41O,0.0198X0.0789*%
%ADD42O,0.0789X0.0198*%
%ADD43R,0.0277X0.1005*%
%ADD44R,0.1005X0.1064*%
%ADD45R,0.0671X0.0671*%
%ADD46R,0.0631X0.0513*%
%ADD47R,0.1104X0.1025*%
%ADD48R,0.0513X0.0631*%
%ADD49R,0.0946X0.0867*%
%ADD50R,0.0316X0.0206*%
%ADD51R,0.0206X0.0316*%
%ADD52O,0.0434X0.0198*%
%ADD53O,0.0198X0.0434*%
%ADD54R,0.1104X0.1104*%
%ADD55O,0.0671X0.0316*%
%ADD56R,0.0671X0.0671*%
%ADD57C,0.0671*%
%ADD58C,0.0592*%
%ADD59C,0.0320*%
%ADD60O,0.1064X0.0356*%
%ADD61C,0.0340*%
G36*
X026011Y036310D02*
X025962D01*
Y036637D01*
X025851Y036310D01*
X025806D01*
X025694Y036631D01*
Y036310D01*
X025645D01*
Y036694D01*
X025713D01*
X025805Y036427D01*
X025810Y036412D01*
X025814Y036400D01*
X025818Y036389D01*
X025821Y036380D01*
X025823Y036374D01*
X025825Y036369D01*
X025825Y036366D01*
X025826Y036365D01*
X025828Y036373D01*
X025831Y036382D01*
X025834Y036391D01*
X025837Y036400D01*
X025840Y036409D01*
X025842Y036415D01*
X025843Y036418D01*
X025844Y036420D01*
X025844Y036421D01*
Y036422D01*
X025935Y036694D01*
X026011D01*
Y036310D01*
D02*
G37*
G36*
X023924D02*
X023875D01*
Y036637D01*
X023764Y036310D01*
X023719D01*
X023606Y036631D01*
Y036310D01*
X023558D01*
Y036694D01*
X023626D01*
X023718Y036427D01*
X023723Y036412D01*
X023727Y036400D01*
X023731Y036389D01*
X023733Y036380D01*
X023736Y036374D01*
X023737Y036369D01*
X023738Y036366D01*
X023738Y036365D01*
X023741Y036373D01*
X023743Y036382D01*
X023747Y036391D01*
X023750Y036400D01*
X023752Y036409D01*
X023755Y036415D01*
X023756Y036418D01*
X023756Y036420D01*
X023757Y036421D01*
Y036422D01*
X023848Y036694D01*
X023924D01*
Y036310D01*
D02*
G37*
G36*
X025066Y036509D02*
X025214Y036310D01*
X025153D01*
X025056Y036443D01*
X025054Y036447D01*
X025051Y036450D01*
X025045Y036459D01*
X025042Y036464D01*
X025040Y036467D01*
X025038Y036469D01*
X025038Y036470D01*
X025032Y036462D01*
X025027Y036454D01*
X025025Y036451D01*
X025024Y036449D01*
X025023Y036447D01*
X025022Y036447D01*
X024925Y036310D01*
X024862D01*
X025006Y036511D01*
X024873Y036694D01*
X024928D01*
X025005Y036592D01*
X025012Y036584D01*
X025017Y036576D01*
X025023Y036568D01*
X025027Y036562D01*
X025031Y036556D01*
X025034Y036552D01*
X025036Y036550D01*
X025036Y036549D01*
X025040Y036555D01*
X025044Y036563D01*
X025049Y036570D01*
X025054Y036578D01*
X025059Y036585D01*
X025063Y036590D01*
X025064Y036592D01*
X025065Y036594D01*
X025067Y036595D01*
Y036595D01*
X025137Y036694D01*
X025197D01*
X025066Y036509D01*
D02*
G37*
G36*
X022979D02*
X023127Y036310D01*
X023066D01*
X022969Y036443D01*
X022966Y036447D01*
X022964Y036450D01*
X022958Y036459D01*
X022955Y036464D01*
X022953Y036467D01*
X022951Y036469D01*
X022950Y036470D01*
X022945Y036462D01*
X022940Y036454D01*
X022938Y036451D01*
X022937Y036449D01*
X022935Y036447D01*
X022935Y036447D01*
X022838Y036310D01*
X022775D01*
X022919Y036511D01*
X022786Y036694D01*
X022841D01*
X022918Y036592D01*
X022924Y036584D01*
X022930Y036576D01*
X022935Y036568D01*
X022940Y036562D01*
X022944Y036556D01*
X022947Y036552D01*
X022948Y036550D01*
X022949Y036549D01*
X022953Y036555D01*
X022957Y036563D01*
X022962Y036570D01*
X022967Y036578D01*
X022972Y036585D01*
X022975Y036590D01*
X022977Y036592D01*
X022978Y036594D01*
X022979Y036595D01*
Y036595D01*
X023049Y036694D01*
X023110D01*
X022979Y036509D01*
D02*
G37*
G36*
X026697Y036700D02*
X026715Y036697D01*
X026730Y036694D01*
X026738Y036691D01*
X026744Y036689D01*
X026750Y036687D01*
X026756Y036685D01*
X026760Y036683D01*
X026765Y036681D01*
X026768Y036680D01*
X026770Y036679D01*
X026772Y036678D01*
X026772Y036677D01*
X026787Y036668D01*
X026800Y036657D01*
X026811Y036646D01*
X026820Y036635D01*
X026828Y036625D01*
X026830Y036620D01*
X026833Y036616D01*
X026835Y036614D01*
X026836Y036611D01*
X026836Y036610D01*
X026837Y036609D01*
X026845Y036592D01*
X026850Y036574D01*
X026854Y036556D01*
X026857Y036540D01*
X026858Y036533D01*
X026859Y036526D01*
X026859Y036520D01*
Y036515D01*
X026860Y036511D01*
Y036508D01*
Y036505D01*
Y036505D01*
X026859Y036485D01*
X026856Y036465D01*
X026854Y036448D01*
X026851Y036440D01*
X026850Y036433D01*
X026848Y036426D01*
X026846Y036420D01*
X026844Y036414D01*
X026843Y036410D01*
X026841Y036407D01*
X026841Y036404D01*
X026840Y036402D01*
Y036402D01*
X026832Y036385D01*
X026822Y036370D01*
X026812Y036357D01*
X026807Y036352D01*
X026803Y036347D01*
X026798Y036343D01*
X026794Y036339D01*
X026790Y036336D01*
X026787Y036333D01*
X026784Y036331D01*
X026782Y036329D01*
X026781Y036329D01*
X026780Y036328D01*
X026773Y036324D01*
X026765Y036320D01*
X026748Y036314D01*
X026732Y036309D01*
X026716Y036307D01*
X026708Y036306D01*
X026701Y036304D01*
X026695Y036304D01*
X026690D01*
X026686Y036303D01*
X026679D01*
X026668Y036304D01*
X026658Y036305D01*
X026648Y036306D01*
X026638Y036308D01*
X026629Y036311D01*
X026621Y036314D01*
X026613Y036317D01*
X026606Y036320D01*
X026600Y036323D01*
X026594Y036326D01*
X026590Y036328D01*
X026585Y036331D01*
X026582Y036333D01*
X026580Y036334D01*
X026578Y036336D01*
X026578Y036336D01*
X026570Y036343D01*
X026563Y036349D01*
X026557Y036357D01*
X026551Y036365D01*
X026541Y036380D01*
X026533Y036396D01*
X026530Y036403D01*
X026527Y036410D01*
X026525Y036416D01*
X026523Y036421D01*
X026522Y036425D01*
X026521Y036429D01*
X026520Y036431D01*
Y036432D01*
X026571Y036444D01*
X026573Y036435D01*
X026576Y036427D01*
X026579Y036419D01*
X026582Y036412D01*
X026585Y036405D01*
X026588Y036400D01*
X026592Y036394D01*
X026596Y036389D01*
X026598Y036385D01*
X026602Y036382D01*
X026604Y036378D01*
X026607Y036375D01*
X026609Y036374D01*
X026611Y036372D01*
X026611Y036372D01*
X026612Y036371D01*
X026617Y036367D01*
X026623Y036363D01*
X026636Y036357D01*
X026647Y036353D01*
X026659Y036350D01*
X026669Y036348D01*
X026673Y036347D01*
X026677D01*
X026680Y036347D01*
X026684D01*
X026697Y036347D01*
X026709Y036349D01*
X026720Y036352D01*
X026730Y036356D01*
X026738Y036359D01*
X026741Y036360D01*
X026744Y036362D01*
X026746Y036363D01*
X026748Y036364D01*
X026749Y036364D01*
X026749D01*
X026760Y036372D01*
X026769Y036380D01*
X026777Y036390D01*
X026783Y036399D01*
X026788Y036407D01*
X026791Y036413D01*
X026792Y036416D01*
X026793Y036418D01*
X026794Y036419D01*
Y036419D01*
X026798Y036434D01*
X026802Y036448D01*
X026804Y036463D01*
X026806Y036476D01*
X026807Y036482D01*
X026807Y036488D01*
Y036493D01*
X026808Y036496D01*
Y036500D01*
Y036503D01*
Y036504D01*
Y036505D01*
X026807Y036519D01*
X026806Y036533D01*
X026804Y036545D01*
X026802Y036556D01*
X026800Y036565D01*
X026799Y036569D01*
X026798Y036573D01*
X026797Y036575D01*
X026797Y036577D01*
X026796Y036578D01*
Y036579D01*
X026790Y036591D01*
X026784Y036603D01*
X026778Y036612D01*
X026770Y036621D01*
X026764Y036627D01*
X026759Y036632D01*
X026755Y036635D01*
X026755Y036636D01*
X026754D01*
X026743Y036643D01*
X026730Y036649D01*
X026718Y036652D01*
X026706Y036655D01*
X026696Y036656D01*
X026691Y036657D01*
X026687D01*
X026684Y036657D01*
X026680D01*
X026666Y036657D01*
X026653Y036655D01*
X026643Y036651D01*
X026633Y036648D01*
X026626Y036644D01*
X026621Y036641D01*
X026617Y036639D01*
X026616Y036638D01*
X026607Y036630D01*
X026599Y036620D01*
X026592Y036610D01*
X026587Y036600D01*
X026582Y036591D01*
X026581Y036587D01*
X026580Y036584D01*
X026578Y036581D01*
X026577Y036579D01*
X026577Y036578D01*
Y036577D01*
X026527Y036589D01*
X026530Y036599D01*
X026533Y036607D01*
X026538Y036616D01*
X026542Y036624D01*
X026546Y036631D01*
X026551Y036638D01*
X026556Y036645D01*
X026560Y036650D01*
X026565Y036655D01*
X026568Y036659D01*
X026572Y036663D01*
X026575Y036666D01*
X026578Y036669D01*
X026580Y036670D01*
X026581Y036671D01*
X026582Y036671D01*
X026590Y036676D01*
X026597Y036681D01*
X026605Y036685D01*
X026613Y036689D01*
X026630Y036694D01*
X026645Y036697D01*
X026652Y036699D01*
X026658Y036699D01*
X026664Y036700D01*
X026669Y036700D01*
X026673Y036701D01*
X026679D01*
X026697Y036700D01*
D02*
G37*
G36*
X026460Y036310D02*
X026219D01*
Y036356D01*
X026409D01*
Y036694D01*
X026460D01*
Y036310D01*
D02*
G37*
G36*
X025562Y036472D02*
Y036461D01*
X025561Y036450D01*
X025561Y036440D01*
X025559Y036431D01*
X025558Y036423D01*
X025557Y036415D01*
X025556Y036408D01*
X025554Y036401D01*
X025553Y036395D01*
X025552Y036390D01*
X025551Y036385D01*
X025549Y036382D01*
X025548Y036379D01*
X025548Y036377D01*
X025547Y036376D01*
Y036375D01*
X025541Y036363D01*
X025533Y036352D01*
X025526Y036343D01*
X025517Y036336D01*
X025510Y036329D01*
X025504Y036325D01*
X025502Y036324D01*
X025500Y036323D01*
X025499Y036322D01*
X025498D01*
X025485Y036316D01*
X025470Y036311D01*
X025455Y036308D01*
X025441Y036306D01*
X025435Y036305D01*
X025429Y036304D01*
X025423Y036304D01*
X025419D01*
X025415Y036303D01*
X025410D01*
X025390Y036304D01*
X025381Y036306D01*
X025373Y036307D01*
X025365Y036308D01*
X025357Y036310D01*
X025351Y036312D01*
X025345Y036314D01*
X025339Y036316D01*
X025335Y036318D01*
X025330Y036319D01*
X025327Y036321D01*
X025324Y036323D01*
X025322Y036323D01*
X025321Y036324D01*
X025321D01*
X025309Y036333D01*
X025299Y036342D01*
X025291Y036351D01*
X025284Y036360D01*
X025279Y036368D01*
X025276Y036374D01*
X025275Y036376D01*
X025274Y036378D01*
X025273Y036379D01*
Y036379D01*
X025271Y036386D01*
X025269Y036393D01*
X025265Y036408D01*
X025263Y036424D01*
X025261Y036439D01*
X025261Y036445D01*
X025260Y036452D01*
Y036458D01*
X025260Y036463D01*
Y036467D01*
Y036469D01*
Y036472D01*
Y036472D01*
Y036694D01*
X025311D01*
Y036472D01*
Y036459D01*
X025312Y036447D01*
X025313Y036437D01*
X025315Y036427D01*
X025316Y036418D01*
X025319Y036409D01*
X025320Y036402D01*
X025322Y036396D01*
X025325Y036391D01*
X025327Y036386D01*
X025329Y036383D01*
X025331Y036379D01*
X025332Y036377D01*
X025334Y036375D01*
X025334Y036375D01*
X025335Y036374D01*
X025340Y036370D01*
X025345Y036366D01*
X025357Y036360D01*
X025370Y036356D01*
X025384Y036353D01*
X025396Y036351D01*
X025401Y036350D01*
X025406D01*
X025409Y036349D01*
X025415D01*
X025426Y036350D01*
X025437Y036352D01*
X025447Y036353D01*
X025455Y036356D01*
X025461Y036358D01*
X025466Y036360D01*
X025469Y036362D01*
X025470Y036362D01*
X025478Y036367D01*
X025485Y036373D01*
X025490Y036379D01*
X025494Y036385D01*
X025497Y036390D01*
X025500Y036394D01*
X025501Y036397D01*
X025502Y036398D01*
X025503Y036403D01*
X025505Y036408D01*
X025507Y036420D01*
X025508Y036432D01*
X025509Y036444D01*
X025510Y036455D01*
Y036460D01*
X025511Y036464D01*
Y036467D01*
Y036470D01*
Y036472D01*
Y036472D01*
Y036694D01*
X025562D01*
Y036472D01*
D02*
G37*
G36*
X023474D02*
Y036461D01*
X023474Y036450D01*
X023473Y036440D01*
X023472Y036431D01*
X023471Y036423D01*
X023470Y036415D01*
X023468Y036408D01*
X023467Y036401D01*
X023466Y036395D01*
X023464Y036390D01*
X023463Y036385D01*
X023462Y036382D01*
X023461Y036379D01*
X023460Y036377D01*
X023460Y036376D01*
Y036375D01*
X023454Y036363D01*
X023446Y036352D01*
X023438Y036343D01*
X023430Y036336D01*
X023423Y036329D01*
X023417Y036325D01*
X023414Y036324D01*
X023413Y036323D01*
X023412Y036322D01*
X023411D01*
X023397Y036316D01*
X023383Y036311D01*
X023368Y036308D01*
X023354Y036306D01*
X023348Y036305D01*
X023342Y036304D01*
X023336Y036304D01*
X023332D01*
X023328Y036303D01*
X023323D01*
X023303Y036304D01*
X023294Y036306D01*
X023286Y036307D01*
X023277Y036308D01*
X023270Y036310D01*
X023263Y036312D01*
X023257Y036314D01*
X023252Y036316D01*
X023247Y036318D01*
X023243Y036319D01*
X023240Y036321D01*
X023237Y036323D01*
X023235Y036323D01*
X023234Y036324D01*
X023233D01*
X023221Y036333D01*
X023211Y036342D01*
X023203Y036351D01*
X023197Y036360D01*
X023192Y036368D01*
X023188Y036374D01*
X023187Y036376D01*
X023186Y036378D01*
X023186Y036379D01*
Y036379D01*
X023183Y036386D01*
X023181Y036393D01*
X023178Y036408D01*
X023176Y036424D01*
X023174Y036439D01*
X023173Y036445D01*
X023173Y036452D01*
Y036458D01*
X023172Y036463D01*
Y036467D01*
Y036469D01*
Y036472D01*
Y036472D01*
Y036694D01*
X023223D01*
Y036472D01*
Y036459D01*
X023225Y036447D01*
X023226Y036437D01*
X023227Y036427D01*
X023229Y036418D01*
X023231Y036409D01*
X023233Y036402D01*
X023235Y036396D01*
X023237Y036391D01*
X023240Y036386D01*
X023242Y036383D01*
X023243Y036379D01*
X023245Y036377D01*
X023246Y036375D01*
X023247Y036375D01*
X023247Y036374D01*
X023252Y036370D01*
X023258Y036366D01*
X023270Y036360D01*
X023283Y036356D01*
X023296Y036353D01*
X023308Y036351D01*
X023313Y036350D01*
X023318D01*
X023322Y036349D01*
X023327D01*
X023339Y036350D01*
X023349Y036352D01*
X023359Y036353D01*
X023367Y036356D01*
X023374Y036358D01*
X023379Y036360D01*
X023382Y036362D01*
X023383Y036362D01*
X023391Y036367D01*
X023397Y036373D01*
X023403Y036379D01*
X023407Y036385D01*
X023410Y036390D01*
X023413Y036394D01*
X023414Y036397D01*
X023414Y036398D01*
X023416Y036403D01*
X023417Y036408D01*
X023419Y036420D01*
X023421Y036432D01*
X023422Y036444D01*
X023423Y036455D01*
Y036460D01*
X023423Y036464D01*
Y036467D01*
Y036470D01*
Y036472D01*
Y036472D01*
Y036694D01*
X023474D01*
Y036472D01*
D02*
G37*
G36*
X025861Y043906D02*
X025867Y043897D01*
X025874Y043889D01*
X025881Y043881D01*
X025888Y043874D01*
X025893Y043869D01*
X025895Y043867D01*
X025897Y043865D01*
X025897Y043865D01*
X025898Y043864D01*
X025909Y043855D01*
X025921Y043846D01*
X025932Y043838D01*
X025943Y043832D01*
X025953Y043826D01*
X025957Y043824D01*
X025960Y043822D01*
X025963Y043821D01*
X025965Y043820D01*
X025966Y043819D01*
X025967D01*
Y043774D01*
X025958Y043777D01*
X025950Y043781D01*
X025942Y043785D01*
X025934Y043789D01*
X025927Y043792D01*
X025922Y043795D01*
X025918Y043797D01*
X025918Y043798D01*
X025917D01*
X025907Y043804D01*
X025898Y043810D01*
X025890Y043815D01*
X025884Y043820D01*
X025879Y043824D01*
X025875Y043827D01*
X025873Y043830D01*
X025872Y043830D01*
Y043530D01*
X025825D01*
Y043916D01*
X025856D01*
X025861Y043906D01*
D02*
G37*
G36*
X025562D02*
X025569Y043897D01*
X025576Y043889D01*
X025582Y043881D01*
X025589Y043874D01*
X025594Y043869D01*
X025596Y043867D01*
X025598Y043865D01*
X025599Y043865D01*
X025599Y043864D01*
X025611Y043855D01*
X025622Y043846D01*
X025634Y043838D01*
X025645Y043832D01*
X025654Y043826D01*
X025658Y043824D01*
X025661Y043822D01*
X025664Y043821D01*
X025666Y043820D01*
X025667Y043819D01*
X025668D01*
Y043774D01*
X025660Y043777D01*
X025651Y043781D01*
X025643Y043785D01*
X025635Y043789D01*
X025629Y043792D01*
X025623Y043795D01*
X025620Y043797D01*
X025619Y043798D01*
X025619D01*
X025609Y043804D01*
X025600Y043810D01*
X025592Y043815D01*
X025586Y043820D01*
X025580Y043824D01*
X025577Y043827D01*
X025574Y043830D01*
X025574Y043830D01*
Y043530D01*
X025526D01*
Y043916D01*
X025557D01*
X025562Y043906D01*
D02*
G37*
G36*
X023370Y035590D02*
X023319D01*
Y035760D01*
X023253D01*
X023247Y035760D01*
X023243D01*
X023239Y035759D01*
X023236Y035759D01*
X023234D01*
X023233Y035758D01*
X023232D01*
X023223Y035755D01*
X023220Y035754D01*
X023216Y035752D01*
X023213Y035750D01*
X023211Y035749D01*
X023210Y035749D01*
X023209Y035748D01*
X023205Y035745D01*
X023200Y035741D01*
X023192Y035733D01*
X023188Y035729D01*
X023185Y035725D01*
X023184Y035723D01*
X023183Y035723D01*
X023177Y035715D01*
X023171Y035707D01*
X023165Y035698D01*
X023159Y035689D01*
X023154Y035682D01*
X023150Y035675D01*
X023149Y035673D01*
X023147Y035672D01*
X023146Y035670D01*
Y035670D01*
X023096Y035590D01*
X023033D01*
X023099Y035694D01*
X023106Y035705D01*
X023114Y035715D01*
X023121Y035724D01*
X023127Y035732D01*
X023132Y035737D01*
X023137Y035742D01*
X023140Y035744D01*
X023141Y035745D01*
X023145Y035749D01*
X023150Y035753D01*
X023160Y035759D01*
X023165Y035761D01*
X023168Y035763D01*
X023170Y035764D01*
X023171Y035765D01*
X023161Y035766D01*
X023152Y035768D01*
X023144Y035771D01*
X023135Y035773D01*
X023128Y035776D01*
X023121Y035779D01*
X023115Y035782D01*
X023110Y035785D01*
X023105Y035788D01*
X023101Y035791D01*
X023097Y035793D01*
X023095Y035795D01*
X023093Y035797D01*
X023091Y035799D01*
X023090Y035799D01*
X023090Y035800D01*
X023085Y035805D01*
X023081Y035811D01*
X023074Y035823D01*
X023070Y035834D01*
X023066Y035845D01*
X023064Y035855D01*
X023064Y035859D01*
Y035863D01*
X023063Y035865D01*
Y035868D01*
Y035869D01*
Y035869D01*
X023064Y035881D01*
X023065Y035891D01*
X023068Y035901D01*
X023071Y035910D01*
X023074Y035917D01*
X023076Y035922D01*
X023079Y035926D01*
X023079Y035926D01*
Y035927D01*
X023086Y035936D01*
X023093Y035944D01*
X023100Y035950D01*
X023106Y035955D01*
X023112Y035959D01*
X023117Y035961D01*
X023121Y035963D01*
X023121Y035964D01*
X023122D01*
X023127Y035965D01*
X023133Y035967D01*
X023145Y035970D01*
X023159Y035971D01*
X023171Y035973D01*
X023182Y035974D01*
X023187D01*
X023192Y035974D01*
X023370D01*
Y035590D01*
D02*
G37*
G36*
X022594Y035975D02*
X022607Y035972D01*
X022619Y035969D01*
X022629Y035965D01*
X022637Y035960D01*
X022641Y035959D01*
X022644Y035956D01*
X022646Y035955D01*
X022647Y035954D01*
X022648Y035953D01*
X022648D01*
X022658Y035944D01*
X022667Y035934D01*
X022674Y035923D01*
X022680Y035913D01*
X022684Y035904D01*
X022686Y035900D01*
X022687Y035896D01*
X022688Y035893D01*
X022690Y035891D01*
X022690Y035890D01*
Y035889D01*
X022692Y035881D01*
X022695Y035872D01*
X022698Y035854D01*
X022701Y035836D01*
X022702Y035819D01*
X022703Y035810D01*
X022703Y035803D01*
Y035796D01*
X022704Y035790D01*
Y035786D01*
Y035782D01*
Y035780D01*
Y035779D01*
X022703Y035760D01*
X022702Y035742D01*
X022701Y035725D01*
X022698Y035709D01*
X022695Y035695D01*
X022692Y035682D01*
X022688Y035670D01*
X022685Y035660D01*
X022682Y035652D01*
X022678Y035644D01*
X022675Y035637D01*
X022672Y035632D01*
X022670Y035628D01*
X022668Y035625D01*
X022667Y035623D01*
X022666Y035623D01*
X022660Y035616D01*
X022653Y035610D01*
X022646Y035604D01*
X022639Y035600D01*
X022632Y035596D01*
X022625Y035593D01*
X022617Y035591D01*
X022611Y035588D01*
X022604Y035587D01*
X022598Y035586D01*
X022592Y035584D01*
X022588Y035584D01*
X022584Y035583D01*
X022579D01*
X022564Y035584D01*
X022550Y035587D01*
X022538Y035591D01*
X022528Y035594D01*
X022520Y035598D01*
X022517Y035601D01*
X022514Y035602D01*
X022512Y035603D01*
X022510Y035604D01*
X022510Y035606D01*
X022509D01*
X022499Y035615D01*
X022491Y035625D01*
X022484Y035636D01*
X022478Y035646D01*
X022474Y035655D01*
X022471Y035659D01*
X022470Y035663D01*
X022469Y035666D01*
X022468Y035668D01*
X022468Y035669D01*
Y035670D01*
X022465Y035678D01*
X022463Y035687D01*
X022459Y035704D01*
X022456Y035723D01*
X022455Y035740D01*
X022454Y035748D01*
X022454Y035755D01*
Y035762D01*
X022453Y035768D01*
Y035773D01*
Y035776D01*
Y035779D01*
Y035779D01*
Y035790D01*
X022454Y035800D01*
Y035809D01*
X022454Y035818D01*
X022455Y035825D01*
X022456Y035833D01*
X022456Y035840D01*
X022458Y035846D01*
X022458Y035851D01*
X022459Y035856D01*
X022460Y035860D01*
X022460Y035864D01*
X022461Y035866D01*
X022461Y035868D01*
X022462Y035869D01*
Y035870D01*
X022465Y035882D01*
X022469Y035893D01*
X022474Y035902D01*
X022477Y035911D01*
X022481Y035918D01*
X022483Y035923D01*
X022485Y035926D01*
X022486Y035927D01*
X022492Y035935D01*
X022498Y035942D01*
X022505Y035949D01*
X022511Y035954D01*
X022516Y035958D01*
X022521Y035961D01*
X022524Y035962D01*
X022524Y035963D01*
X022525D01*
X022534Y035967D01*
X022543Y035970D01*
X022552Y035972D01*
X022560Y035974D01*
X022567Y035975D01*
X022574Y035976D01*
X022579D01*
X022594Y035975D01*
D02*
G37*
G36*
X023121Y035246D02*
X023127Y035237D01*
X023134Y035229D01*
X023141Y035221D01*
X023148Y035214D01*
X023153Y035209D01*
X023155Y035207D01*
X023157Y035205D01*
X023157Y035205D01*
X023158Y035204D01*
X023169Y035195D01*
X023181Y035186D01*
X023192Y035178D01*
X023203Y035172D01*
X023213Y035166D01*
X023217Y035164D01*
X023220Y035162D01*
X023223Y035161D01*
X023225Y035160D01*
X023226Y035159D01*
X023227D01*
Y035114D01*
X023218Y035117D01*
X023210Y035121D01*
X023202Y035125D01*
X023194Y035129D01*
X023187Y035132D01*
X023182Y035135D01*
X023178Y035137D01*
X023178Y035138D01*
X023177D01*
X023167Y035144D01*
X023158Y035150D01*
X023150Y035155D01*
X023144Y035160D01*
X023139Y035164D01*
X023135Y035167D01*
X023133Y035170D01*
X023132Y035170D01*
Y034870D01*
X023085D01*
Y035256D01*
X023116D01*
X023121Y035246D01*
D02*
G37*
G36*
X023630Y034870D02*
X023579D01*
Y035040D01*
X023513D01*
X023507Y035040D01*
X023503D01*
X023499Y035039D01*
X023496Y035039D01*
X023494D01*
X023493Y035038D01*
X023492D01*
X023483Y035035D01*
X023480Y035034D01*
X023476Y035032D01*
X023473Y035030D01*
X023471Y035029D01*
X023470Y035029D01*
X023469Y035028D01*
X023465Y035025D01*
X023460Y035021D01*
X023452Y035013D01*
X023448Y035009D01*
X023445Y035005D01*
X023444Y035003D01*
X023443Y035003D01*
X023437Y034995D01*
X023431Y034987D01*
X023425Y034978D01*
X023419Y034969D01*
X023414Y034962D01*
X023410Y034955D01*
X023409Y034953D01*
X023407Y034952D01*
X023406Y034950D01*
Y034950D01*
X023356Y034870D01*
X023293D01*
X023359Y034974D01*
X023366Y034985D01*
X023374Y034995D01*
X023381Y035004D01*
X023387Y035012D01*
X023392Y035017D01*
X023397Y035022D01*
X023400Y035024D01*
X023401Y035025D01*
X023405Y035029D01*
X023410Y035033D01*
X023420Y035039D01*
X023425Y035041D01*
X023428Y035043D01*
X023430Y035044D01*
X023431Y035045D01*
X023421Y035046D01*
X023412Y035048D01*
X023404Y035051D01*
X023395Y035053D01*
X023388Y035056D01*
X023381Y035059D01*
X023375Y035062D01*
X023370Y035065D01*
X023365Y035068D01*
X023361Y035071D01*
X023357Y035073D01*
X023355Y035075D01*
X023352Y035077D01*
X023351Y035079D01*
X023350Y035079D01*
X023350Y035080D01*
X023345Y035085D01*
X023341Y035091D01*
X023334Y035103D01*
X023330Y035114D01*
X023326Y035125D01*
X023324Y035135D01*
X023324Y035139D01*
Y035143D01*
X023323Y035145D01*
Y035148D01*
Y035149D01*
Y035149D01*
X023324Y035161D01*
X023325Y035171D01*
X023328Y035181D01*
X023331Y035190D01*
X023334Y035197D01*
X023336Y035202D01*
X023339Y035206D01*
X023339Y035206D01*
Y035207D01*
X023346Y035216D01*
X023352Y035224D01*
X023360Y035230D01*
X023366Y035235D01*
X023372Y035239D01*
X023377Y035241D01*
X023381Y035243D01*
X023381Y035244D01*
X023382D01*
X023387Y035245D01*
X023393Y035247D01*
X023405Y035250D01*
X023419Y035251D01*
X023431Y035253D01*
X023442Y035254D01*
X023447D01*
X023452Y035254D01*
X023630D01*
Y034870D01*
D02*
G37*
G36*
X026370Y043530D02*
X026319D01*
Y043700D01*
X026253D01*
X026247Y043700D01*
X026243D01*
X026239Y043699D01*
X026236Y043699D01*
X026234D01*
X026233Y043698D01*
X026232D01*
X026223Y043695D01*
X026220Y043694D01*
X026216Y043692D01*
X026213Y043690D01*
X026211Y043689D01*
X026210Y043689D01*
X026209Y043688D01*
X026205Y043685D01*
X026200Y043681D01*
X026192Y043673D01*
X026188Y043669D01*
X026185Y043665D01*
X026184Y043663D01*
X026183Y043663D01*
X026177Y043655D01*
X026171Y043647D01*
X026165Y043638D01*
X026159Y043629D01*
X026154Y043622D01*
X026150Y043615D01*
X026149Y043613D01*
X026147Y043612D01*
X026146Y043610D01*
Y043610D01*
X026096Y043530D01*
X026033D01*
X026099Y043634D01*
X026106Y043645D01*
X026114Y043655D01*
X026121Y043664D01*
X026127Y043672D01*
X026132Y043677D01*
X026137Y043682D01*
X026140Y043684D01*
X026141Y043685D01*
X026145Y043689D01*
X026150Y043693D01*
X026160Y043699D01*
X026165Y043701D01*
X026168Y043703D01*
X026170Y043704D01*
X026171Y043705D01*
X026161Y043706D01*
X026152Y043708D01*
X026144Y043711D01*
X026135Y043713D01*
X026128Y043716D01*
X026121Y043719D01*
X026115Y043722D01*
X026110Y043725D01*
X026105Y043728D01*
X026101Y043731D01*
X026097Y043733D01*
X026095Y043735D01*
X026093Y043737D01*
X026091Y043739D01*
X026090Y043739D01*
X026090Y043740D01*
X026085Y043745D01*
X026081Y043751D01*
X026074Y043763D01*
X026070Y043774D01*
X026066Y043785D01*
X026064Y043795D01*
X026064Y043799D01*
Y043803D01*
X026063Y043805D01*
Y043808D01*
Y043809D01*
Y043809D01*
X026064Y043821D01*
X026065Y043831D01*
X026068Y043841D01*
X026071Y043850D01*
X026074Y043857D01*
X026076Y043862D01*
X026079Y043866D01*
X026079Y043866D01*
Y043867D01*
X026086Y043876D01*
X026093Y043884D01*
X026100Y043890D01*
X026106Y043895D01*
X026112Y043899D01*
X026117Y043901D01*
X026121Y043903D01*
X026121Y043904D01*
X026122D01*
X026127Y043905D01*
X026133Y043907D01*
X026145Y043910D01*
X026159Y043911D01*
X026171Y043913D01*
X026182Y043913D01*
X026187D01*
X026192Y043914D01*
X026370D01*
Y043530D01*
D02*
G37*
G36*
X022847Y035255D02*
X022856Y035255D01*
X022865Y035253D01*
X022874Y035251D01*
X022881Y035249D01*
X022889Y035247D01*
X022895Y035244D01*
X022901Y035241D01*
X022907Y035239D01*
X022911Y035236D01*
X022915Y035234D01*
X022918Y035231D01*
X022921Y035230D01*
X022923Y035228D01*
X022924Y035227D01*
X022925Y035227D01*
X022930Y035221D01*
X022935Y035215D01*
X022940Y035209D01*
X022944Y035202D01*
X022951Y035189D01*
X022955Y035175D01*
X022957Y035169D01*
X022958Y035163D01*
X022960Y035158D01*
X022961Y035154D01*
X022961Y035150D01*
Y035147D01*
X022962Y035145D01*
Y035145D01*
X022913Y035140D01*
X022912Y035152D01*
X022910Y035164D01*
X022907Y035174D01*
X022903Y035181D01*
X022900Y035188D01*
X022896Y035192D01*
X022894Y035195D01*
X022893Y035196D01*
X022885Y035203D01*
X022876Y035208D01*
X022866Y035212D01*
X022858Y035214D01*
X022850Y035216D01*
X022844Y035216D01*
X022841Y035217D01*
X022838D01*
X022826Y035216D01*
X022816Y035214D01*
X022807Y035211D01*
X022799Y035207D01*
X022793Y035204D01*
X022789Y035201D01*
X022786Y035199D01*
X022785Y035197D01*
X022779Y035190D01*
X022774Y035182D01*
X022770Y035174D01*
X022768Y035166D01*
X022766Y035160D01*
X022765Y035155D01*
X022765Y035151D01*
Y035151D01*
Y035150D01*
X022766Y035140D01*
X022768Y035130D01*
X022772Y035120D01*
X022776Y035111D01*
X022780Y035104D01*
X022784Y035098D01*
X022785Y035096D01*
X022786Y035094D01*
X022788Y035094D01*
Y035093D01*
X022792Y035087D01*
X022798Y035081D01*
X022804Y035074D01*
X022810Y035068D01*
X022824Y035054D01*
X022838Y035041D01*
X022845Y035035D01*
X022851Y035029D01*
X022857Y035024D01*
X022862Y035020D01*
X022866Y035017D01*
X022870Y035014D01*
X022872Y035012D01*
X022872Y035012D01*
X022886Y035000D01*
X022899Y034989D01*
X022910Y034979D01*
X022918Y034970D01*
X022925Y034963D01*
X022930Y034958D01*
X022933Y034955D01*
X022934Y034954D01*
Y034954D01*
X022942Y034944D01*
X022948Y034935D01*
X022953Y034927D01*
X022958Y034919D01*
X022961Y034912D01*
X022963Y034907D01*
X022965Y034904D01*
X022965Y034903D01*
Y034903D01*
X022967Y034897D01*
X022968Y034891D01*
X022970Y034886D01*
X022970Y034881D01*
X022971Y034876D01*
Y034873D01*
Y034871D01*
Y034870D01*
X022716D01*
Y034916D01*
X022905D01*
X022899Y034925D01*
X022895Y034929D01*
X022892Y034933D01*
X022890Y034936D01*
X022887Y034938D01*
X022886Y034940D01*
X022885Y034940D01*
X022882Y034943D01*
X022879Y034946D01*
X022871Y034953D01*
X022862Y034962D01*
X022853Y034970D01*
X022844Y034977D01*
X022840Y034980D01*
X022837Y034984D01*
X022834Y034986D01*
X022832Y034988D01*
X022831Y034989D01*
X022830Y034989D01*
X022821Y034997D01*
X022812Y035004D01*
X022805Y035012D01*
X022798Y035018D01*
X022791Y035024D01*
X022785Y035029D01*
X022780Y035034D01*
X022775Y035039D01*
X022771Y035043D01*
X022768Y035046D01*
X022765Y035049D01*
X022762Y035052D01*
X022759Y035055D01*
X022758Y035056D01*
X022750Y035066D01*
X022744Y035074D01*
X022738Y035083D01*
X022734Y035089D01*
X022730Y035095D01*
X022728Y035100D01*
X022727Y035103D01*
X022726Y035104D01*
X022723Y035112D01*
X022721Y035120D01*
X022719Y035128D01*
X022718Y035135D01*
X022717Y035141D01*
X022716Y035145D01*
Y035148D01*
Y035149D01*
X022717Y035157D01*
X022718Y035165D01*
X022719Y035173D01*
X022721Y035180D01*
X022727Y035193D01*
X022733Y035204D01*
X022736Y035209D01*
X022739Y035212D01*
X022741Y035216D01*
X022744Y035219D01*
X022746Y035221D01*
X022748Y035224D01*
X022749Y035224D01*
X022749Y035225D01*
X022755Y035230D01*
X022762Y035235D01*
X022769Y035239D01*
X022776Y035242D01*
X022791Y035248D01*
X022805Y035252D01*
X022811Y035253D01*
X022817Y035254D01*
X022823Y035255D01*
X022827Y035255D01*
X022831Y035256D01*
X022837D01*
X022847Y035255D01*
D02*
G37*
G36*
X025745Y042710D02*
X025607D01*
X025594Y042711D01*
X025582Y042711D01*
X025572Y042712D01*
X025563Y042713D01*
X025555Y042714D01*
X025549Y042715D01*
X025548Y042716D01*
X025546Y042716D01*
X025545D01*
X025535Y042719D01*
X025526Y042722D01*
X025518Y042725D01*
X025512Y042728D01*
X025506Y042731D01*
X025502Y042733D01*
X025500Y042735D01*
X025499Y042736D01*
X025492Y042741D01*
X025486Y042747D01*
X025480Y042752D01*
X025475Y042758D01*
X025470Y042763D01*
X025467Y042767D01*
X025465Y042769D01*
X025464Y042771D01*
X025458Y042779D01*
X025453Y042789D01*
X025448Y042798D01*
X025445Y042807D01*
X025442Y042814D01*
X025440Y042820D01*
X025439Y042823D01*
X025438Y042824D01*
X025438Y042825D01*
Y042826D01*
X025435Y042839D01*
X025432Y042853D01*
X025430Y042865D01*
X025428Y042878D01*
X025428Y042888D01*
Y042893D01*
X025427Y042896D01*
Y042899D01*
Y042902D01*
Y042903D01*
Y042904D01*
X025428Y042923D01*
X025430Y042940D01*
X025432Y042955D01*
X025433Y042963D01*
X025435Y042969D01*
X025437Y042975D01*
X025438Y042980D01*
X025439Y042984D01*
X025441Y042988D01*
X025441Y042991D01*
X025442Y042994D01*
X025443Y042995D01*
Y042995D01*
X025449Y043010D01*
X025456Y043022D01*
X025464Y043034D01*
X025471Y043043D01*
X025478Y043051D01*
X025483Y043056D01*
X025486Y043058D01*
X025487Y043060D01*
X025488Y043060D01*
X025488Y043061D01*
X025497Y043068D01*
X025507Y043074D01*
X025516Y043079D01*
X025525Y043082D01*
X025533Y043085D01*
X025539Y043087D01*
X025541Y043088D01*
X025543D01*
X025544Y043089D01*
X025544D01*
X025554Y043090D01*
X025565Y043092D01*
X025576Y043093D01*
X025587Y043094D01*
X025597Y043094D01*
X025745D01*
Y042710D01*
D02*
G37*
G36*
X025400D02*
X025346D01*
X025304Y042827D01*
X025143D01*
X025098Y042710D01*
X025041D01*
X025198Y043094D01*
X025253D01*
X025400Y042710D01*
D02*
G37*
G36*
X024402Y042872D02*
Y042861D01*
X024402Y042850D01*
X024401Y042840D01*
X024400Y042831D01*
X024399Y042823D01*
X024398Y042815D01*
X024396Y042808D01*
X024395Y042801D01*
X024394Y042795D01*
X024392Y042790D01*
X024391Y042785D01*
X024390Y042782D01*
X024389Y042779D01*
X024388Y042777D01*
X024388Y042776D01*
Y042775D01*
X024382Y042763D01*
X024374Y042752D01*
X024366Y042743D01*
X024358Y042736D01*
X024351Y042729D01*
X024345Y042725D01*
X024342Y042724D01*
X024341Y042723D01*
X024340Y042722D01*
X024339D01*
X024325Y042716D01*
X024311Y042711D01*
X024296Y042708D01*
X024282Y042706D01*
X024276Y042705D01*
X024270Y042704D01*
X024264Y042704D01*
X024260D01*
X024256Y042703D01*
X024251D01*
X024231Y042704D01*
X024222Y042706D01*
X024214Y042707D01*
X024205Y042708D01*
X024198Y042710D01*
X024191Y042712D01*
X024185Y042714D01*
X024180Y042716D01*
X024175Y042718D01*
X024171Y042719D01*
X024168Y042721D01*
X024165Y042723D01*
X024163Y042723D01*
X024162Y042724D01*
X024161D01*
X024149Y042733D01*
X024139Y042742D01*
X024131Y042751D01*
X024125Y042760D01*
X024120Y042768D01*
X024116Y042774D01*
X024115Y042776D01*
X024114Y042778D01*
X024114Y042779D01*
Y042779D01*
X024111Y042786D01*
X024109Y042793D01*
X024106Y042808D01*
X024104Y042824D01*
X024102Y042839D01*
X024101Y042845D01*
X024101Y042852D01*
Y042858D01*
X024100Y042863D01*
Y042867D01*
Y042869D01*
Y042871D01*
Y042872D01*
Y043094D01*
X024151D01*
Y042872D01*
Y042859D01*
X024153Y042847D01*
X024154Y042837D01*
X024155Y042827D01*
X024157Y042818D01*
X024159Y042809D01*
X024161Y042802D01*
X024163Y042796D01*
X024165Y042791D01*
X024168Y042786D01*
X024170Y042783D01*
X024171Y042779D01*
X024173Y042777D01*
X024174Y042775D01*
X024175Y042775D01*
X024175Y042774D01*
X024180Y042770D01*
X024186Y042766D01*
X024198Y042760D01*
X024211Y042756D01*
X024224Y042753D01*
X024236Y042751D01*
X024241Y042750D01*
X024246D01*
X024250Y042749D01*
X024255D01*
X024267Y042750D01*
X024277Y042752D01*
X024287Y042753D01*
X024295Y042756D01*
X024302Y042758D01*
X024307Y042760D01*
X024310Y042762D01*
X024311Y042762D01*
X024318Y042767D01*
X024325Y042773D01*
X024331Y042779D01*
X024335Y042785D01*
X024338Y042790D01*
X024341Y042794D01*
X024342Y042797D01*
X024342Y042798D01*
X024344Y042803D01*
X024345Y042808D01*
X024347Y042820D01*
X024349Y042832D01*
X024350Y042844D01*
X024351Y042855D01*
Y042860D01*
X024351Y042864D01*
Y042867D01*
Y042870D01*
Y042871D01*
Y042872D01*
Y043094D01*
X024402D01*
Y042872D01*
D02*
G37*
G36*
X022315D02*
Y042861D01*
X022314Y042850D01*
X022314Y042840D01*
X022313Y042831D01*
X022312Y042823D01*
X022310Y042815D01*
X022309Y042808D01*
X022308Y042801D01*
X022307Y042795D01*
X022305Y042790D01*
X022304Y042785D01*
X022303Y042782D01*
X022302Y042779D01*
X022301Y042777D01*
X022300Y042776D01*
Y042775D01*
X022294Y042763D01*
X022287Y042752D01*
X022279Y042743D01*
X022271Y042736D01*
X022263Y042729D01*
X022257Y042725D01*
X022255Y042724D01*
X022253Y042723D01*
X022252Y042722D01*
X022252D01*
X022238Y042716D01*
X022223Y042711D01*
X022208Y042708D01*
X022194Y042706D01*
X022188Y042705D01*
X022182Y042704D01*
X022177Y042704D01*
X022172D01*
X022168Y042703D01*
X022163D01*
X022143Y042704D01*
X022135Y042706D01*
X022126Y042707D01*
X022118Y042708D01*
X022111Y042710D01*
X022104Y042712D01*
X022098Y042714D01*
X022092Y042716D01*
X022088Y042718D01*
X022083Y042719D01*
X022080Y042721D01*
X022077Y042723D01*
X022076Y042723D01*
X022075Y042724D01*
X022074D01*
X022062Y042733D01*
X022052Y042742D01*
X022044Y042751D01*
X022037Y042760D01*
X022032Y042768D01*
X022029Y042774D01*
X022028Y042776D01*
X022027Y042778D01*
X022026Y042779D01*
Y042779D01*
X022024Y042786D01*
X022022Y042793D01*
X022019Y042808D01*
X022016Y042824D01*
X022015Y042839D01*
X022014Y042845D01*
X022014Y042852D01*
Y042858D01*
X022013Y042863D01*
Y042867D01*
Y042869D01*
Y042871D01*
Y042872D01*
Y043094D01*
X022064D01*
Y042872D01*
Y042859D01*
X022065Y042847D01*
X022066Y042837D01*
X022068Y042827D01*
X022070Y042818D01*
X022072Y042809D01*
X022073Y042802D01*
X022076Y042796D01*
X022078Y042791D01*
X022080Y042786D01*
X022082Y042783D01*
X022084Y042779D01*
X022086Y042777D01*
X022087Y042775D01*
X022087Y042775D01*
X022088Y042774D01*
X022093Y042770D01*
X022098Y042766D01*
X022111Y042760D01*
X022123Y042756D01*
X022137Y042753D01*
X022149Y042751D01*
X022154Y042750D01*
X022159D01*
X022162Y042749D01*
X022168D01*
X022180Y042750D01*
X022190Y042752D01*
X022200Y042753D01*
X022208Y042756D01*
X022214Y042758D01*
X022219Y042760D01*
X022222Y042762D01*
X022223Y042762D01*
X022231Y042767D01*
X022238Y042773D01*
X022243Y042779D01*
X022247Y042785D01*
X022251Y042790D01*
X022253Y042794D01*
X022254Y042797D01*
X022255Y042798D01*
X022257Y042803D01*
X022258Y042808D01*
X022260Y042820D01*
X022262Y042832D01*
X022263Y042844D01*
X022263Y042855D01*
Y042860D01*
X022264Y042864D01*
Y042867D01*
Y042870D01*
Y042871D01*
Y042872D01*
Y043094D01*
X022315D01*
Y042872D01*
D02*
G37*
G36*
X025985Y043100D02*
X025998Y043099D01*
X026010Y043096D01*
X026021Y043094D01*
X026029Y043092D01*
X026033Y043091D01*
X026036Y043090D01*
X026038Y043089D01*
X026040Y043088D01*
X026041Y043087D01*
X026041D01*
X026052Y043082D01*
X026062Y043076D01*
X026071Y043069D01*
X026077Y043063D01*
X026082Y043057D01*
X026086Y043053D01*
X026089Y043050D01*
X026089Y043049D01*
Y043049D01*
X026095Y043039D01*
X026099Y043030D01*
X026102Y043020D01*
X026103Y043012D01*
X026104Y043005D01*
X026106Y042999D01*
Y042997D01*
Y042995D01*
Y042995D01*
Y042994D01*
X026105Y042985D01*
X026103Y042976D01*
X026101Y042968D01*
X026099Y042960D01*
X026097Y042955D01*
X026094Y042950D01*
X026093Y042948D01*
X026092Y042946D01*
X026087Y042939D01*
X026080Y042931D01*
X026073Y042925D01*
X026067Y042920D01*
X026061Y042916D01*
X026056Y042913D01*
X026053Y042911D01*
X026052Y042910D01*
X026052D01*
X026047Y042908D01*
X026042Y042906D01*
X026031Y042902D01*
X026018Y042898D01*
X026006Y042894D01*
X025995Y042891D01*
X025990Y042890D01*
X025986Y042889D01*
X025982Y042888D01*
X025980Y042887D01*
X025978Y042886D01*
X025977D01*
X025968Y042884D01*
X025959Y042882D01*
X025951Y042880D01*
X025945Y042878D01*
X025938Y042877D01*
X025932Y042875D01*
X025927Y042874D01*
X025924Y042872D01*
X025920Y042871D01*
X025917Y042870D01*
X025912Y042869D01*
X025910Y042868D01*
X025909Y042868D01*
X025901Y042864D01*
X025894Y042860D01*
X025887Y042857D01*
X025883Y042853D01*
X025879Y042850D01*
X025877Y042848D01*
X025875Y042846D01*
X025875Y042845D01*
X025871Y042840D01*
X025868Y042835D01*
X025866Y042829D01*
X025865Y042825D01*
X025864Y042820D01*
X025864Y042817D01*
Y042814D01*
Y042814D01*
X025864Y042807D01*
X025865Y042801D01*
X025867Y042795D01*
X025869Y042791D01*
X025871Y042787D01*
X025873Y042784D01*
X025874Y042782D01*
X025875Y042781D01*
X025879Y042775D01*
X025885Y042771D01*
X025890Y042767D01*
X025895Y042763D01*
X025900Y042761D01*
X025904Y042759D01*
X025907Y042758D01*
X025908Y042757D01*
X025916Y042754D01*
X025925Y042752D01*
X025934Y042751D01*
X025942Y042750D01*
X025949Y042749D01*
X025954Y042749D01*
X025959D01*
X025971Y042749D01*
X025982Y042751D01*
X025992Y042752D01*
X026001Y042754D01*
X026008Y042757D01*
X026014Y042758D01*
X026016Y042759D01*
X026017Y042759D01*
X026018Y042760D01*
X026018D01*
X026027Y042764D01*
X026036Y042769D01*
X026042Y042774D01*
X026047Y042779D01*
X026052Y042783D01*
X026055Y042787D01*
X026056Y042789D01*
X026057Y042790D01*
X026061Y042797D01*
X026065Y042805D01*
X026067Y042813D01*
X026069Y042820D01*
X026071Y042828D01*
X026072Y042833D01*
Y042835D01*
X026072Y042837D01*
Y042837D01*
Y042838D01*
X026120Y042833D01*
X026119Y042819D01*
X026117Y042806D01*
X026113Y042794D01*
X026109Y042784D01*
X026106Y042775D01*
X026104Y042772D01*
X026103Y042769D01*
X026101Y042767D01*
X026101Y042765D01*
X026099Y042764D01*
Y042764D01*
X026091Y042753D01*
X026082Y042744D01*
X026073Y042736D01*
X026064Y042729D01*
X026056Y042724D01*
X026050Y042721D01*
X026047Y042720D01*
X026046Y042719D01*
X026045Y042718D01*
X026044D01*
X026030Y042713D01*
X026016Y042709D01*
X026001Y042707D01*
X025987Y042705D01*
X025981Y042704D01*
X025975Y042704D01*
X025970D01*
X025966Y042703D01*
X025957D01*
X025942Y042704D01*
X025928Y042706D01*
X025915Y042708D01*
X025905Y042711D01*
X025896Y042713D01*
X025892Y042715D01*
X025889Y042716D01*
X025886Y042717D01*
X025885Y042718D01*
X025884Y042718D01*
X025883D01*
X025871Y042724D01*
X025861Y042731D01*
X025852Y042738D01*
X025845Y042745D01*
X025840Y042751D01*
X025836Y042756D01*
X025833Y042759D01*
X025833Y042759D01*
Y042760D01*
X025826Y042771D01*
X025822Y042780D01*
X025819Y042790D01*
X025817Y042799D01*
X025816Y042807D01*
X025815Y042813D01*
Y042815D01*
Y042817D01*
Y042817D01*
Y042818D01*
X025815Y042829D01*
X025817Y042839D01*
X025820Y042849D01*
X025823Y042857D01*
X025826Y042863D01*
X025828Y042868D01*
X025830Y042871D01*
X025831Y042872D01*
X025838Y042880D01*
X025845Y042888D01*
X025854Y042895D01*
X025862Y042901D01*
X025869Y042905D01*
X025875Y042909D01*
X025877Y042910D01*
X025879Y042911D01*
X025880Y042911D01*
X025881D01*
X025885Y042914D01*
X025891Y042915D01*
X025897Y042918D01*
X025904Y042920D01*
X025917Y042924D01*
X025932Y042928D01*
X025939Y042929D01*
X025945Y042931D01*
X025951Y042933D01*
X025956Y042934D01*
X025960Y042935D01*
X025963Y042935D01*
X025965Y042936D01*
X025966D01*
X025977Y042939D01*
X025987Y042941D01*
X025996Y042944D01*
X026003Y042946D01*
X026011Y042949D01*
X026017Y042951D01*
X026022Y042953D01*
X026027Y042955D01*
X026031Y042957D01*
X026035Y042959D01*
X026037Y042960D01*
X026039Y042961D01*
X026042Y042963D01*
X026042Y042964D01*
X026047Y042969D01*
X026051Y042975D01*
X026053Y042980D01*
X026055Y042986D01*
X026056Y042990D01*
X026057Y042994D01*
Y042996D01*
Y042997D01*
X026056Y043006D01*
X026053Y043014D01*
X026050Y043021D01*
X026046Y043027D01*
X026043Y043031D01*
X026040Y043035D01*
X026037Y043037D01*
X026036Y043038D01*
X026032Y043041D01*
X026027Y043044D01*
X026017Y043048D01*
X026006Y043051D01*
X025995Y043053D01*
X025985Y043054D01*
X025980Y043055D01*
X025977Y043055D01*
X025969D01*
X025954Y043055D01*
X025940Y043052D01*
X025929Y043049D01*
X025919Y043046D01*
X025912Y043042D01*
X025906Y043039D01*
X025904Y043037D01*
X025902Y043036D01*
X025895Y043029D01*
X025889Y043020D01*
X025884Y043011D01*
X025880Y043002D01*
X025878Y042994D01*
X025876Y042988D01*
X025876Y042985D01*
X025875Y042984D01*
Y042983D01*
Y042982D01*
X025826Y042986D01*
X025828Y042998D01*
X025830Y043009D01*
X025833Y043020D01*
X025837Y043029D01*
X025840Y043036D01*
X025843Y043041D01*
X025844Y043043D01*
X025845Y043045D01*
X025846Y043045D01*
Y043046D01*
X025853Y043055D01*
X025861Y043064D01*
X025869Y043071D01*
X025877Y043076D01*
X025885Y043081D01*
X025890Y043084D01*
X025892Y043085D01*
X025894Y043086D01*
X025895Y043087D01*
X025896D01*
X025908Y043091D01*
X025921Y043095D01*
X025934Y043097D01*
X025945Y043099D01*
X025956Y043100D01*
X025960D01*
X025963Y043101D01*
X025971D01*
X025985Y043100D01*
D02*
G37*
G36*
X023699Y042703D02*
X023661D01*
X023550Y043101D01*
X023588D01*
X023699Y042703D01*
D02*
G37*
G36*
X023508Y042710D02*
X023370D01*
X023357Y042711D01*
X023346Y042711D01*
X023335Y042712D01*
X023326Y042713D01*
X023318Y042714D01*
X023313Y042715D01*
X023311Y042716D01*
X023309Y042716D01*
X023308D01*
X023298Y042719D01*
X023289Y042722D01*
X023282Y042725D01*
X023275Y042728D01*
X023270Y042731D01*
X023266Y042733D01*
X023263Y042735D01*
X023262Y042736D01*
X023255Y042741D01*
X023249Y042747D01*
X023243Y042752D01*
X023238Y042758D01*
X023233Y042763D01*
X023230Y042767D01*
X023228Y042769D01*
X023227Y042771D01*
X023222Y042779D01*
X023216Y042789D01*
X023212Y042798D01*
X023208Y042807D01*
X023205Y042814D01*
X023203Y042820D01*
X023202Y042823D01*
X023202Y042824D01*
X023201Y042825D01*
Y042826D01*
X023198Y042839D01*
X023195Y042853D01*
X023193Y042865D01*
X023192Y042878D01*
X023191Y042888D01*
Y042893D01*
X023191Y042896D01*
Y042899D01*
Y042902D01*
Y042903D01*
Y042904D01*
X023191Y042923D01*
X023193Y042940D01*
X023196Y042955D01*
X023197Y042963D01*
X023198Y042969D01*
X023200Y042975D01*
X023201Y042980D01*
X023202Y042984D01*
X023204Y042988D01*
X023205Y042991D01*
X023206Y042994D01*
X023206Y042995D01*
Y042995D01*
X023212Y043010D01*
X023220Y043022D01*
X023227Y043034D01*
X023235Y043043D01*
X023241Y043051D01*
X023247Y043056D01*
X023249Y043058D01*
X023251Y043060D01*
X023251Y043060D01*
X023252Y043061D01*
X023261Y043068D01*
X023270Y043074D01*
X023280Y043079D01*
X023288Y043082D01*
X023296Y043085D01*
X023302Y043087D01*
X023304Y043088D01*
X023306D01*
X023307Y043089D01*
X023308D01*
X023317Y043090D01*
X023328Y043092D01*
X023339Y043093D01*
X023351Y043094D01*
X023361Y043094D01*
X023508D01*
Y042710D01*
D02*
G37*
G36*
X023120D02*
X022833D01*
Y042756D01*
X023069D01*
Y042886D01*
X022857D01*
Y042931D01*
X023069D01*
Y043049D01*
X022842D01*
Y043094D01*
X023120D01*
Y042710D01*
D02*
G37*
G36*
X027085Y036700D02*
X027098Y036699D01*
X027110Y036696D01*
X027121Y036694D01*
X027129Y036692D01*
X027133Y036691D01*
X027136Y036690D01*
X027138Y036689D01*
X027140Y036688D01*
X027141Y036687D01*
X027141D01*
X027152Y036682D01*
X027162Y036676D01*
X027171Y036669D01*
X027177Y036663D01*
X027182Y036657D01*
X027186Y036653D01*
X027189Y036650D01*
X027189Y036649D01*
Y036649D01*
X027195Y036639D01*
X027199Y036630D01*
X027202Y036620D01*
X027203Y036612D01*
X027204Y036605D01*
X027206Y036599D01*
Y036597D01*
Y036595D01*
Y036595D01*
Y036594D01*
X027205Y036585D01*
X027203Y036576D01*
X027201Y036568D01*
X027199Y036560D01*
X027197Y036555D01*
X027194Y036550D01*
X027193Y036548D01*
X027192Y036546D01*
X027187Y036539D01*
X027180Y036531D01*
X027173Y036525D01*
X027167Y036520D01*
X027161Y036516D01*
X027156Y036513D01*
X027153Y036511D01*
X027152Y036510D01*
X027152D01*
X027147Y036508D01*
X027142Y036506D01*
X027131Y036502D01*
X027118Y036498D01*
X027106Y036494D01*
X027095Y036491D01*
X027090Y036490D01*
X027086Y036489D01*
X027082Y036488D01*
X027080Y036487D01*
X027078Y036486D01*
X027077D01*
X027068Y036484D01*
X027059Y036482D01*
X027051Y036480D01*
X027045Y036478D01*
X027038Y036477D01*
X027032Y036475D01*
X027027Y036474D01*
X027024Y036472D01*
X027020Y036471D01*
X027017Y036470D01*
X027012Y036469D01*
X027010Y036468D01*
X027009Y036468D01*
X027001Y036464D01*
X026994Y036460D01*
X026987Y036457D01*
X026983Y036453D01*
X026979Y036450D01*
X026977Y036448D01*
X026975Y036446D01*
X026975Y036445D01*
X026971Y036440D01*
X026968Y036435D01*
X026966Y036429D01*
X026965Y036425D01*
X026964Y036420D01*
X026964Y036417D01*
Y036414D01*
Y036414D01*
X026964Y036407D01*
X026965Y036401D01*
X026967Y036395D01*
X026969Y036391D01*
X026971Y036387D01*
X026973Y036384D01*
X026974Y036382D01*
X026975Y036381D01*
X026979Y036375D01*
X026985Y036371D01*
X026990Y036367D01*
X026995Y036363D01*
X027000Y036361D01*
X027004Y036359D01*
X027007Y036358D01*
X027008Y036357D01*
X027016Y036354D01*
X027025Y036352D01*
X027034Y036351D01*
X027042Y036350D01*
X027049Y036349D01*
X027054Y036349D01*
X027059D01*
X027071Y036349D01*
X027082Y036351D01*
X027092Y036352D01*
X027101Y036354D01*
X027108Y036357D01*
X027114Y036358D01*
X027116Y036359D01*
X027117Y036359D01*
X027118Y036360D01*
X027118D01*
X027127Y036364D01*
X027136Y036369D01*
X027142Y036374D01*
X027147Y036379D01*
X027152Y036383D01*
X027155Y036387D01*
X027156Y036389D01*
X027157Y036390D01*
X027161Y036397D01*
X027164Y036405D01*
X027167Y036413D01*
X027169Y036420D01*
X027171Y036428D01*
X027172Y036433D01*
Y036435D01*
X027172Y036437D01*
Y036437D01*
Y036438D01*
X027220Y036433D01*
X027219Y036419D01*
X027217Y036406D01*
X027213Y036394D01*
X027209Y036384D01*
X027206Y036375D01*
X027204Y036372D01*
X027203Y036369D01*
X027201Y036367D01*
X027201Y036365D01*
X027199Y036364D01*
Y036364D01*
X027191Y036353D01*
X027182Y036344D01*
X027173Y036336D01*
X027164Y036329D01*
X027156Y036324D01*
X027150Y036321D01*
X027147Y036320D01*
X027146Y036319D01*
X027145Y036318D01*
X027144D01*
X027130Y036313D01*
X027116Y036309D01*
X027101Y036307D01*
X027087Y036305D01*
X027081Y036304D01*
X027075Y036304D01*
X027070D01*
X027066Y036303D01*
X027057D01*
X027042Y036304D01*
X027028Y036306D01*
X027015Y036308D01*
X027005Y036311D01*
X026996Y036313D01*
X026992Y036315D01*
X026989Y036316D01*
X026986Y036317D01*
X026985Y036318D01*
X026984Y036318D01*
X026983D01*
X026971Y036324D01*
X026961Y036331D01*
X026952Y036338D01*
X026945Y036345D01*
X026940Y036351D01*
X026936Y036356D01*
X026933Y036359D01*
X026933Y036359D01*
Y036360D01*
X026926Y036370D01*
X026922Y036380D01*
X026919Y036390D01*
X026917Y036399D01*
X026916Y036407D01*
X026915Y036413D01*
Y036415D01*
Y036417D01*
Y036417D01*
Y036418D01*
X026915Y036429D01*
X026917Y036439D01*
X026920Y036449D01*
X026923Y036457D01*
X026926Y036463D01*
X026928Y036468D01*
X026930Y036471D01*
X026931Y036472D01*
X026938Y036480D01*
X026945Y036488D01*
X026954Y036495D01*
X026962Y036501D01*
X026969Y036505D01*
X026975Y036509D01*
X026977Y036510D01*
X026979Y036511D01*
X026980Y036511D01*
X026981D01*
X026985Y036514D01*
X026991Y036515D01*
X026997Y036518D01*
X027004Y036520D01*
X027017Y036524D01*
X027032Y036528D01*
X027039Y036529D01*
X027045Y036531D01*
X027051Y036533D01*
X027056Y036534D01*
X027060Y036535D01*
X027063Y036535D01*
X027065Y036536D01*
X027066D01*
X027077Y036539D01*
X027087Y036541D01*
X027096Y036544D01*
X027103Y036546D01*
X027111Y036549D01*
X027117Y036551D01*
X027122Y036553D01*
X027127Y036555D01*
X027131Y036557D01*
X027135Y036559D01*
X027137Y036560D01*
X027139Y036561D01*
X027142Y036563D01*
X027142Y036564D01*
X027147Y036569D01*
X027151Y036575D01*
X027153Y036580D01*
X027155Y036586D01*
X027156Y036590D01*
X027157Y036594D01*
Y036596D01*
Y036597D01*
X027156Y036606D01*
X027153Y036614D01*
X027150Y036621D01*
X027146Y036627D01*
X027143Y036631D01*
X027140Y036635D01*
X027137Y036637D01*
X027136Y036638D01*
X027132Y036641D01*
X027127Y036644D01*
X027117Y036648D01*
X027106Y036651D01*
X027095Y036653D01*
X027085Y036654D01*
X027080Y036655D01*
X027077Y036655D01*
X027069D01*
X027053Y036655D01*
X027040Y036652D01*
X027029Y036649D01*
X027019Y036646D01*
X027012Y036642D01*
X027006Y036639D01*
X027004Y036637D01*
X027002Y036636D01*
X026995Y036629D01*
X026989Y036620D01*
X026984Y036611D01*
X026980Y036602D01*
X026978Y036594D01*
X026976Y036588D01*
X026976Y036585D01*
X026975Y036584D01*
Y036583D01*
Y036582D01*
X026926Y036586D01*
X026928Y036598D01*
X026930Y036609D01*
X026933Y036620D01*
X026937Y036629D01*
X026940Y036636D01*
X026943Y036641D01*
X026944Y036643D01*
X026945Y036645D01*
X026946Y036645D01*
Y036646D01*
X026953Y036655D01*
X026961Y036664D01*
X026969Y036671D01*
X026977Y036676D01*
X026985Y036681D01*
X026990Y036684D01*
X026992Y036685D01*
X026994Y036686D01*
X026995Y036687D01*
X026996D01*
X027008Y036691D01*
X027021Y036695D01*
X027034Y036697D01*
X027045Y036699D01*
X027056Y036700D01*
X027060D01*
X027063Y036701D01*
X027071D01*
X027085Y036700D01*
D02*
G37*
G36*
X024858Y036303D02*
X024821D01*
X024709Y036701D01*
X024747D01*
X024858Y036303D01*
D02*
G37*
G36*
X024668Y036310D02*
X024529D01*
X024517Y036311D01*
X024505Y036311D01*
X024494Y036312D01*
X024486Y036313D01*
X024478Y036314D01*
X024472Y036315D01*
X024471Y036316D01*
X024469Y036316D01*
X024468D01*
X024458Y036319D01*
X024449Y036322D01*
X024441Y036325D01*
X024434Y036328D01*
X024429Y036331D01*
X024425Y036333D01*
X024423Y036335D01*
X024422Y036336D01*
X024414Y036341D01*
X024408Y036347D01*
X024402Y036352D01*
X024397Y036358D01*
X024393Y036363D01*
X024390Y036367D01*
X024387Y036369D01*
X024387Y036370D01*
X024381Y036379D01*
X024376Y036389D01*
X024371Y036398D01*
X024368Y036407D01*
X024365Y036414D01*
X024362Y036420D01*
X024362Y036423D01*
X024361Y036424D01*
X024361Y036425D01*
Y036426D01*
X024357Y036439D01*
X024355Y036453D01*
X024353Y036465D01*
X024351Y036478D01*
X024351Y036488D01*
Y036493D01*
X024350Y036496D01*
Y036499D01*
Y036502D01*
Y036503D01*
Y036504D01*
X024351Y036523D01*
X024352Y036540D01*
X024355Y036555D01*
X024356Y036563D01*
X024358Y036569D01*
X024360Y036575D01*
X024361Y036580D01*
X024362Y036584D01*
X024363Y036588D01*
X024364Y036591D01*
X024365Y036594D01*
X024366Y036595D01*
Y036595D01*
X024372Y036610D01*
X024379Y036622D01*
X024387Y036634D01*
X024394Y036643D01*
X024401Y036651D01*
X024406Y036656D01*
X024408Y036658D01*
X024410Y036660D01*
X024411Y036660D01*
X024411Y036661D01*
X024420Y036668D01*
X024429Y036674D01*
X024439Y036679D01*
X024448Y036682D01*
X024456Y036685D01*
X024462Y036687D01*
X024464Y036688D01*
X024466D01*
X024467Y036689D01*
X024467D01*
X024477Y036690D01*
X024488Y036692D01*
X024499Y036693D01*
X024510Y036694D01*
X024520Y036694D01*
X024668D01*
Y036310D01*
D02*
G37*
G36*
X024280D02*
X023993D01*
Y036356D01*
X024229D01*
Y036486D01*
X024016D01*
Y036531D01*
X024229D01*
Y036649D01*
X024002D01*
Y036694D01*
X024280D01*
Y036310D01*
D02*
G37*
G36*
X024852Y042710D02*
X024803D01*
Y043037D01*
X024692Y042710D01*
X024646D01*
X024534Y043031D01*
Y042710D01*
X024486D01*
Y043094D01*
X024554D01*
X024646Y042827D01*
X024651Y042812D01*
X024655Y042800D01*
X024659Y042789D01*
X024661Y042780D01*
X024664Y042774D01*
X024665Y042769D01*
X024666Y042766D01*
X024666Y042765D01*
X024669Y042773D01*
X024671Y042782D01*
X024675Y042791D01*
X024678Y042800D01*
X024680Y042809D01*
X024683Y042815D01*
X024684Y042818D01*
X024684Y042820D01*
X024685Y042821D01*
Y042822D01*
X024776Y043094D01*
X024852D01*
Y042710D01*
D02*
G37*
G36*
X022764D02*
X022716D01*
Y043037D01*
X022605Y042710D01*
X022559D01*
X022447Y043031D01*
Y042710D01*
X022398D01*
Y043094D01*
X022466D01*
X022559Y042827D01*
X022564Y042812D01*
X022567Y042800D01*
X022571Y042789D01*
X022574Y042780D01*
X022576Y042774D01*
X022578Y042769D01*
X022579Y042766D01*
X022579Y042765D01*
X022581Y042773D01*
X022584Y042782D01*
X022587Y042791D01*
X022590Y042800D01*
X022593Y042809D01*
X022595Y042815D01*
X022596Y042818D01*
X022597Y042820D01*
X022597Y042821D01*
Y042822D01*
X022688Y043094D01*
X022764D01*
Y042710D01*
D02*
G37*
G36*
X023907Y042909D02*
X024055Y042710D01*
X023994D01*
X023897Y042843D01*
X023894Y042847D01*
X023892Y042850D01*
X023886Y042859D01*
X023883Y042864D01*
X023881Y042867D01*
X023879Y042869D01*
X023878Y042870D01*
X023873Y042862D01*
X023868Y042854D01*
X023866Y042851D01*
X023864Y042849D01*
X023863Y042847D01*
X023863Y042847D01*
X023766Y042710D01*
X023703D01*
X023847Y042911D01*
X023714Y043094D01*
X023769D01*
X023846Y042992D01*
X023852Y042984D01*
X023858Y042976D01*
X023863Y042968D01*
X023868Y042962D01*
X023872Y042956D01*
X023874Y042952D01*
X023876Y042950D01*
X023877Y042949D01*
X023881Y042955D01*
X023885Y042963D01*
X023890Y042970D01*
X023895Y042978D01*
X023900Y042985D01*
X023903Y042990D01*
X023905Y042992D01*
X023906Y042994D01*
X023907Y042995D01*
Y042995D01*
X023977Y043094D01*
X024038D01*
X023907Y042909D01*
D02*
G37*
G36*
X021819D02*
X021967Y042710D01*
X021906D01*
X021809Y042843D01*
X021807Y042847D01*
X021804Y042850D01*
X021798Y042859D01*
X021795Y042864D01*
X021793Y042867D01*
X021792Y042869D01*
X021791Y042870D01*
X021785Y042862D01*
X021780Y042854D01*
X021778Y042851D01*
X021777Y042849D01*
X021776Y042847D01*
X021775Y042847D01*
X021678Y042710D01*
X021616D01*
X021759Y042911D01*
X021626Y043094D01*
X021682D01*
X021758Y042992D01*
X021765Y042984D01*
X021770Y042976D01*
X021776Y042968D01*
X021780Y042962D01*
X021784Y042956D01*
X021787Y042952D01*
X021789Y042950D01*
X021789Y042949D01*
X021793Y042955D01*
X021798Y042963D01*
X021803Y042970D01*
X021808Y042978D01*
X021813Y042985D01*
X021816Y042990D01*
X021818Y042992D01*
X021819Y042994D01*
X021820Y042995D01*
Y042995D01*
X021890Y043094D01*
X021950D01*
X021819Y042909D01*
D02*
G37*
G36*
X023230Y044280D02*
X023179D01*
Y044450D01*
X023113D01*
X023107Y044450D01*
X023103D01*
X023099Y044449D01*
X023096Y044449D01*
X023094D01*
X023093Y044448D01*
X023092D01*
X023083Y044445D01*
X023080Y044444D01*
X023076Y044442D01*
X023073Y044440D01*
X023071Y044439D01*
X023070Y044439D01*
X023069Y044438D01*
X023065Y044435D01*
X023060Y044431D01*
X023052Y044423D01*
X023048Y044419D01*
X023045Y044415D01*
X023044Y044413D01*
X023043Y044413D01*
X023037Y044405D01*
X023031Y044397D01*
X023025Y044388D01*
X023019Y044379D01*
X023014Y044372D01*
X023010Y044365D01*
X023009Y044363D01*
X023007Y044362D01*
X023006Y044360D01*
Y044360D01*
X022956Y044280D01*
X022893D01*
X022959Y044384D01*
X022966Y044395D01*
X022974Y044405D01*
X022981Y044414D01*
X022987Y044422D01*
X022992Y044427D01*
X022997Y044432D01*
X023000Y044434D01*
X023001Y044435D01*
X023005Y044439D01*
X023010Y044443D01*
X023020Y044449D01*
X023025Y044451D01*
X023028Y044453D01*
X023030Y044454D01*
X023031Y044455D01*
X023021Y044456D01*
X023012Y044458D01*
X023004Y044461D01*
X022995Y044463D01*
X022988Y044466D01*
X022981Y044469D01*
X022975Y044472D01*
X022970Y044475D01*
X022965Y044478D01*
X022961Y044481D01*
X022957Y044483D01*
X022955Y044485D01*
X022952Y044487D01*
X022951Y044489D01*
X022950Y044489D01*
X022950Y044490D01*
X022945Y044495D01*
X022941Y044501D01*
X022934Y044513D01*
X022930Y044524D01*
X022926Y044535D01*
X022924Y044545D01*
X022924Y044549D01*
Y044553D01*
X022923Y044555D01*
Y044557D01*
Y044559D01*
Y044559D01*
X022924Y044571D01*
X022925Y044581D01*
X022928Y044591D01*
X022931Y044600D01*
X022934Y044607D01*
X022936Y044612D01*
X022939Y044616D01*
X022939Y044616D01*
Y044617D01*
X022946Y044626D01*
X022952Y044634D01*
X022960Y044640D01*
X022966Y044645D01*
X022972Y044649D01*
X022977Y044651D01*
X022981Y044653D01*
X022981Y044654D01*
X022982D01*
X022987Y044655D01*
X022993Y044657D01*
X023005Y044660D01*
X023019Y044661D01*
X023031Y044663D01*
X023042Y044664D01*
X023047D01*
X023052Y044664D01*
X023230D01*
Y044280D01*
D02*
G37*
G36*
X022738Y044665D02*
X022748Y044664D01*
X022758Y044662D01*
X022768Y044659D01*
X022776Y044655D01*
X022784Y044652D01*
X022792Y044647D01*
X022798Y044644D01*
X022804Y044640D01*
X022809Y044635D01*
X022814Y044632D01*
X022817Y044629D01*
X022820Y044625D01*
X022822Y044623D01*
X022823Y044622D01*
X022824Y044621D01*
X022831Y044611D01*
X022837Y044600D01*
X022843Y044587D01*
X022848Y044575D01*
X022851Y044561D01*
X022855Y044548D01*
X022858Y044534D01*
X022860Y044521D01*
X022861Y044509D01*
X022863Y044497D01*
X022864Y044486D01*
X022864Y044478D01*
Y044470D01*
X022865Y044464D01*
Y044462D01*
Y044460D01*
Y044460D01*
Y044459D01*
X022864Y044441D01*
X022863Y044425D01*
X022861Y044409D01*
X022859Y044395D01*
X022856Y044382D01*
X022853Y044370D01*
X022850Y044360D01*
X022846Y044350D01*
X022843Y044343D01*
X022839Y044335D01*
X022837Y044330D01*
X022833Y044325D01*
X022831Y044321D01*
X022829Y044319D01*
X022828Y044317D01*
X022828Y044317D01*
X022820Y044309D01*
X022813Y044302D01*
X022805Y044297D01*
X022797Y044292D01*
X022789Y044287D01*
X022781Y044284D01*
X022773Y044281D01*
X022765Y044279D01*
X022759Y044277D01*
X022752Y044276D01*
X022747Y044274D01*
X022742Y044274D01*
X022737D01*
X022734Y044273D01*
X022732D01*
X022719Y044274D01*
X022707Y044276D01*
X022697Y044278D01*
X022687Y044282D01*
X022680Y044284D01*
X022674Y044287D01*
X022672Y044288D01*
X022671Y044289D01*
X022670Y044289D01*
X022669D01*
X022660Y044296D01*
X022651Y044304D01*
X022644Y044312D01*
X022638Y044319D01*
X022633Y044327D01*
X022629Y044332D01*
X022628Y044334D01*
X022627Y044336D01*
X022627Y044337D01*
Y044337D01*
X022621Y044349D01*
X022617Y044361D01*
X022615Y044372D01*
X022613Y044383D01*
X022611Y044392D01*
Y044395D01*
X022611Y044398D01*
Y044401D01*
Y044403D01*
Y044404D01*
Y044404D01*
X022611Y044414D01*
X022612Y044424D01*
X022614Y044433D01*
X022616Y044441D01*
X022618Y044449D01*
X022621Y044457D01*
X022624Y044464D01*
X022627Y044470D01*
X022631Y044475D01*
X022633Y044480D01*
X022636Y044484D01*
X022639Y044488D01*
X022641Y044491D01*
X022642Y044493D01*
X022643Y044494D01*
X022644Y044494D01*
X022650Y044500D01*
X022657Y044506D01*
X022664Y044510D01*
X022671Y044514D01*
X022677Y044518D01*
X022684Y044521D01*
X022697Y044525D01*
X022702Y044526D01*
X022708Y044528D01*
X022712Y044528D01*
X022717Y044529D01*
X022720Y044529D01*
X022724D01*
X022734Y044529D01*
X022744Y044527D01*
X022753Y044525D01*
X022760Y044523D01*
X022767Y044520D01*
X022772Y044519D01*
X022775Y044517D01*
X022776Y044516D01*
X022777D01*
X022785Y044511D01*
X022793Y044505D01*
X022800Y044499D01*
X022806Y044492D01*
X022811Y044486D01*
X022815Y044482D01*
X022817Y044479D01*
X022818Y044478D01*
Y044488D01*
X022817Y044498D01*
X022817Y044507D01*
X022815Y044516D01*
X022815Y044524D01*
X022814Y044531D01*
X022813Y044538D01*
X022811Y044544D01*
X022810Y044549D01*
X022809Y044554D01*
X022808Y044557D01*
X022807Y044561D01*
X022806Y044563D01*
X022805Y044565D01*
X022805Y044566D01*
Y044566D01*
X022799Y044577D01*
X022794Y044587D01*
X022788Y044595D01*
X022782Y044602D01*
X022777Y044607D01*
X022773Y044611D01*
X022770Y044614D01*
X022769Y044614D01*
X022763Y044619D01*
X022756Y044621D01*
X022749Y044624D01*
X022743Y044625D01*
X022738Y044626D01*
X022733Y044627D01*
X022729D01*
X022719Y044626D01*
X022710Y044624D01*
X022702Y044620D01*
X022695Y044617D01*
X022689Y044613D01*
X022686Y044610D01*
X022683Y044607D01*
X022682Y044606D01*
X022678Y044601D01*
X022674Y044595D01*
X022671Y044589D01*
X022669Y044582D01*
X022667Y044576D01*
X022665Y044571D01*
X022664Y044567D01*
X022664Y044567D01*
Y044566D01*
X022617Y044570D01*
X022620Y044586D01*
X022625Y044600D01*
X022631Y044612D01*
X022637Y044622D01*
X022643Y044630D01*
X022645Y044633D01*
X022648Y044636D01*
X022649Y044637D01*
X022651Y044639D01*
X022652Y044640D01*
X022652Y044640D01*
X022658Y044645D01*
X022664Y044649D01*
X022676Y044655D01*
X022688Y044660D01*
X022700Y044662D01*
X022711Y044665D01*
X022715Y044665D01*
X022719D01*
X022722Y044666D01*
X022727D01*
X022738Y044665D01*
D02*
G37*
G36*
X022020Y035490D02*
X021969D01*
Y035660D01*
X021903D01*
X021897Y035660D01*
X021893D01*
X021889Y035659D01*
X021886Y035659D01*
X021884D01*
X021883Y035658D01*
X021882D01*
X021873Y035655D01*
X021870Y035654D01*
X021866Y035652D01*
X021863Y035650D01*
X021861Y035649D01*
X021860Y035649D01*
X021859Y035648D01*
X021855Y035645D01*
X021850Y035641D01*
X021842Y035633D01*
X021838Y035629D01*
X021835Y035625D01*
X021834Y035623D01*
X021833Y035623D01*
X021827Y035615D01*
X021821Y035607D01*
X021815Y035598D01*
X021809Y035589D01*
X021804Y035582D01*
X021800Y035575D01*
X021799Y035573D01*
X021797Y035572D01*
X021796Y035570D01*
Y035570D01*
X021746Y035490D01*
X021683D01*
X021749Y035594D01*
X021756Y035605D01*
X021764Y035615D01*
X021771Y035624D01*
X021777Y035632D01*
X021782Y035637D01*
X021787Y035642D01*
X021790Y035644D01*
X021791Y035645D01*
X021795Y035649D01*
X021800Y035653D01*
X021810Y035659D01*
X021815Y035661D01*
X021818Y035663D01*
X021820Y035664D01*
X021821Y035665D01*
X021811Y035666D01*
X021802Y035668D01*
X021794Y035671D01*
X021785Y035673D01*
X021778Y035676D01*
X021771Y035679D01*
X021765Y035682D01*
X021760Y035685D01*
X021755Y035688D01*
X021751Y035691D01*
X021747Y035693D01*
X021745Y035695D01*
X021742Y035697D01*
X021741Y035699D01*
X021740Y035699D01*
X021740Y035700D01*
X021735Y035705D01*
X021731Y035711D01*
X021724Y035723D01*
X021720Y035734D01*
X021716Y035745D01*
X021714Y035755D01*
X021714Y035759D01*
Y035763D01*
X021713Y035765D01*
Y035768D01*
Y035769D01*
Y035769D01*
X021714Y035781D01*
X021715Y035791D01*
X021718Y035801D01*
X021721Y035810D01*
X021724Y035817D01*
X021726Y035822D01*
X021729Y035826D01*
X021729Y035826D01*
Y035827D01*
X021736Y035836D01*
X021742Y035844D01*
X021750Y035850D01*
X021756Y035855D01*
X021762Y035859D01*
X021767Y035861D01*
X021771Y035863D01*
X021771Y035864D01*
X021772D01*
X021777Y035865D01*
X021783Y035867D01*
X021795Y035870D01*
X021809Y035871D01*
X021821Y035873D01*
X021832Y035874D01*
X021837D01*
X021842Y035874D01*
X022020D01*
Y035490D01*
D02*
G37*
G36*
X024070Y037940D02*
X024019D01*
Y038110D01*
X023953D01*
X023947Y038110D01*
X023943D01*
X023939Y038109D01*
X023936Y038109D01*
X023934D01*
X023933Y038108D01*
X023932D01*
X023923Y038105D01*
X023920Y038104D01*
X023916Y038102D01*
X023913Y038100D01*
X023911Y038099D01*
X023910Y038099D01*
X023909Y038098D01*
X023905Y038095D01*
X023900Y038091D01*
X023892Y038083D01*
X023888Y038079D01*
X023885Y038075D01*
X023884Y038073D01*
X023883Y038073D01*
X023877Y038065D01*
X023871Y038057D01*
X023865Y038048D01*
X023859Y038039D01*
X023854Y038032D01*
X023850Y038025D01*
X023849Y038023D01*
X023847Y038022D01*
X023846Y038020D01*
Y038020D01*
X023796Y037940D01*
X023733D01*
X023799Y038044D01*
X023806Y038055D01*
X023814Y038065D01*
X023821Y038074D01*
X023827Y038082D01*
X023832Y038087D01*
X023837Y038092D01*
X023840Y038094D01*
X023841Y038095D01*
X023845Y038099D01*
X023850Y038103D01*
X023860Y038109D01*
X023865Y038111D01*
X023868Y038113D01*
X023870Y038114D01*
X023871Y038115D01*
X023861Y038116D01*
X023852Y038118D01*
X023844Y038121D01*
X023835Y038123D01*
X023828Y038126D01*
X023821Y038129D01*
X023815Y038132D01*
X023810Y038135D01*
X023805Y038138D01*
X023801Y038141D01*
X023797Y038143D01*
X023795Y038145D01*
X023793Y038147D01*
X023791Y038149D01*
X023790Y038149D01*
X023790Y038150D01*
X023785Y038155D01*
X023781Y038161D01*
X023774Y038173D01*
X023770Y038184D01*
X023766Y038195D01*
X023764Y038205D01*
X023764Y038209D01*
Y038213D01*
X023763Y038215D01*
Y038217D01*
Y038219D01*
Y038219D01*
X023764Y038231D01*
X023765Y038241D01*
X023768Y038251D01*
X023771Y038260D01*
X023774Y038267D01*
X023776Y038272D01*
X023779Y038276D01*
X023779Y038276D01*
Y038277D01*
X023786Y038286D01*
X023793Y038294D01*
X023800Y038300D01*
X023806Y038305D01*
X023812Y038309D01*
X023817Y038311D01*
X023821Y038313D01*
X023821Y038314D01*
X023822D01*
X023827Y038315D01*
X023833Y038317D01*
X023845Y038320D01*
X023859Y038321D01*
X023871Y038323D01*
X023882Y038324D01*
X023887D01*
X023892Y038324D01*
X024070D01*
Y037940D01*
D02*
G37*
G36*
X016616Y042291D02*
X016633Y042304D01*
X016650Y042317D01*
X016666Y042328D01*
X016682Y042339D01*
X016690Y042343D01*
X016696Y042347D01*
X016702Y042351D01*
X016707Y042354D01*
X016712Y042356D01*
X016715Y042358D01*
X016717Y042359D01*
X016717Y042359D01*
X016740Y042370D01*
X016762Y042380D01*
X016783Y042389D01*
X016792Y042392D01*
X016802Y042395D01*
X016810Y042399D01*
X016818Y042401D01*
X016825Y042403D01*
X016830Y042405D01*
X016835Y042407D01*
X016838Y042408D01*
X016841Y042408D01*
X016841D01*
X016864Y042414D01*
X016875Y042416D01*
X016885Y042418D01*
X016895Y042419D01*
X016904Y042421D01*
X016912Y042422D01*
X016919Y042423D01*
X016926Y042424D01*
X016932Y042424D01*
X016938Y042425D01*
X016942D01*
X016946Y042425D01*
X016950D01*
Y042377D01*
X016929Y042375D01*
X016909Y042373D01*
X016892Y042370D01*
X016883Y042368D01*
X016876Y042367D01*
X016869Y042365D01*
X016863Y042364D01*
X016857Y042363D01*
X016853Y042362D01*
X016850Y042360D01*
X016847Y042360D01*
X016845Y042359D01*
X016845D01*
X016819Y042351D01*
X016795Y042342D01*
X016783Y042338D01*
X016772Y042333D01*
X016762Y042328D01*
X016752Y042324D01*
X016744Y042320D01*
X016736Y042316D01*
X016729Y042313D01*
X016723Y042310D01*
X016718Y042307D01*
X016715Y042306D01*
X016712Y042304D01*
X016712Y042304D01*
X016700Y042297D01*
X016689Y042291D01*
X016678Y042284D01*
X016668Y042277D01*
X016659Y042271D01*
X016650Y042265D01*
X016643Y042259D01*
X016636Y042254D01*
X016629Y042249D01*
X016624Y042244D01*
X016619Y042240D01*
X016615Y042237D01*
X016612Y042235D01*
X016610Y042232D01*
X016609Y042231D01*
X016608Y042231D01*
X016571D01*
Y042479D01*
X016616D01*
Y042291D01*
D02*
G37*
G36*
X016950Y042799D02*
X016780D01*
Y042740D01*
Y042733D01*
X016780Y042727D01*
Y042723D01*
X016781Y042719D01*
X016781Y042716D01*
Y042714D01*
X016782Y042713D01*
Y042712D01*
X016785Y042703D01*
X016786Y042700D01*
X016788Y042696D01*
X016790Y042693D01*
X016791Y042691D01*
X016791Y042690D01*
X016792Y042689D01*
X016795Y042685D01*
X016799Y042680D01*
X016807Y042672D01*
X016811Y042668D01*
X016815Y042665D01*
X016817Y042664D01*
X016817Y042663D01*
X016825Y042657D01*
X016833Y042651D01*
X016842Y042645D01*
X016851Y042639D01*
X016858Y042634D01*
X016865Y042630D01*
X016867Y042629D01*
X016868Y042627D01*
X016870Y042626D01*
X016870D01*
X016950Y042576D01*
Y042513D01*
X016846Y042579D01*
X016835Y042586D01*
X016825Y042594D01*
X016816Y042601D01*
X016808Y042607D01*
X016803Y042612D01*
X016798Y042617D01*
X016796Y042620D01*
X016795Y042621D01*
X016791Y042625D01*
X016787Y042630D01*
X016781Y042640D01*
X016779Y042645D01*
X016777Y042648D01*
X016776Y042650D01*
X016775Y042651D01*
X016774Y042641D01*
X016772Y042632D01*
X016769Y042624D01*
X016767Y042615D01*
X016764Y042608D01*
X016761Y042601D01*
X016758Y042595D01*
X016755Y042590D01*
X016752Y042585D01*
X016749Y042581D01*
X016747Y042577D01*
X016745Y042575D01*
X016743Y042572D01*
X016741Y042571D01*
X016741Y042570D01*
X016740Y042570D01*
X016735Y042565D01*
X016729Y042561D01*
X016717Y042554D01*
X016706Y042550D01*
X016695Y042546D01*
X016685Y042544D01*
X016681Y042544D01*
X016677D01*
X016675Y042543D01*
X016671D01*
X016659Y042544D01*
X016649Y042545D01*
X016639Y042548D01*
X016630Y042551D01*
X016623Y042554D01*
X016618Y042556D01*
X016614Y042559D01*
X016614Y042559D01*
X016613D01*
X016604Y042566D01*
X016596Y042572D01*
X016590Y042580D01*
X016585Y042586D01*
X016581Y042592D01*
X016579Y042597D01*
X016577Y042601D01*
X016576Y042601D01*
Y042602D01*
X016575Y042607D01*
X016573Y042613D01*
X016570Y042625D01*
X016569Y042639D01*
X016567Y042651D01*
X016566Y042662D01*
Y042667D01*
X016566Y042672D01*
Y042675D01*
Y042678D01*
Y042680D01*
Y042680D01*
Y042850D01*
X016950D01*
Y042799D01*
D02*
G37*
G36*
X021644Y035671D02*
X021600Y035665D01*
X021596Y035671D01*
X021591Y035676D01*
X021587Y035681D01*
X021582Y035685D01*
X021578Y035688D01*
X021574Y035691D01*
X021572Y035692D01*
X021572Y035693D01*
X021564Y035696D01*
X021557Y035699D01*
X021550Y035700D01*
X021544Y035702D01*
X021538Y035703D01*
X021534Y035703D01*
X021523D01*
X021517Y035702D01*
X021505Y035699D01*
X021495Y035695D01*
X021486Y035691D01*
X021479Y035687D01*
X021474Y035683D01*
X021472Y035680D01*
X021471Y035680D01*
Y035679D01*
X021463Y035670D01*
X021457Y035660D01*
X021453Y035649D01*
X021451Y035639D01*
X021449Y035630D01*
X021448Y035626D01*
Y035623D01*
X021448Y035620D01*
Y035618D01*
Y035617D01*
Y035616D01*
Y035608D01*
X021449Y035601D01*
X021452Y035587D01*
X021456Y035575D01*
X021459Y035566D01*
X021464Y035558D01*
X021468Y035552D01*
X021469Y035550D01*
X021471Y035549D01*
X021471Y035548D01*
X021472Y035548D01*
X021476Y035543D01*
X021481Y035539D01*
X021491Y035533D01*
X021500Y035528D01*
X021509Y035526D01*
X021517Y035523D01*
X021524Y035523D01*
X021526Y035522D01*
X021529D01*
X021540Y035523D01*
X021549Y035525D01*
X021558Y035528D01*
X021564Y035531D01*
X021570Y035534D01*
X021575Y035537D01*
X021577Y035539D01*
X021578Y035540D01*
X021585Y035548D01*
X021590Y035556D01*
X021595Y035565D01*
X021598Y035574D01*
X021600Y035582D01*
X021602Y035588D01*
X021603Y035591D01*
X021603Y035593D01*
Y035594D01*
Y035594D01*
X021653Y035590D01*
X021651Y035582D01*
X021650Y035573D01*
X021645Y035558D01*
X021639Y035544D01*
X021635Y035538D01*
X021632Y035533D01*
X021629Y035528D01*
X021626Y035524D01*
X021623Y035521D01*
X021620Y035518D01*
X021618Y035516D01*
X021617Y035513D01*
X021616Y035513D01*
X021615Y035512D01*
X021609Y035507D01*
X021602Y035503D01*
X021595Y035499D01*
X021588Y035496D01*
X021574Y035491D01*
X021560Y035487D01*
X021554Y035486D01*
X021548Y035485D01*
X021543Y035484D01*
X021538Y035484D01*
X021534Y035483D01*
X021529D01*
X021518Y035484D01*
X021507Y035486D01*
X021496Y035488D01*
X021487Y035491D01*
X021478Y035494D01*
X021469Y035498D01*
X021462Y035502D01*
X021455Y035507D01*
X021449Y035511D01*
X021443Y035515D01*
X021439Y035519D01*
X021435Y035523D01*
X021432Y035526D01*
X021430Y035528D01*
X021429Y035529D01*
X021428Y035530D01*
X021423Y035537D01*
X021418Y035545D01*
X021414Y035552D01*
X021411Y035560D01*
X021405Y035575D01*
X021402Y035589D01*
X021401Y035595D01*
X021400Y035602D01*
X021399Y035607D01*
X021398Y035611D01*
X021398Y035615D01*
Y035618D01*
Y035619D01*
Y035620D01*
X021398Y035630D01*
X021400Y035639D01*
X021401Y035649D01*
X021403Y035657D01*
X021406Y035665D01*
X021409Y035673D01*
X021412Y035679D01*
X021415Y035685D01*
X021418Y035691D01*
X021422Y035696D01*
X021424Y035700D01*
X021427Y035704D01*
X021429Y035706D01*
X021431Y035708D01*
X021432Y035709D01*
X021433Y035710D01*
X021439Y035716D01*
X021446Y035721D01*
X021453Y035726D01*
X021461Y035730D01*
X021468Y035734D01*
X021475Y035736D01*
X021488Y035740D01*
X021494Y035742D01*
X021500Y035743D01*
X021505Y035744D01*
X021509Y035744D01*
X021513Y035745D01*
X021525D01*
X021532Y035744D01*
X021545Y035741D01*
X021557Y035737D01*
X021568Y035733D01*
X021577Y035728D01*
X021581Y035726D01*
X021584Y035724D01*
X021587Y035723D01*
X021589Y035721D01*
X021590Y035721D01*
X021590Y035720D01*
X021570Y035824D01*
X021416D01*
Y035869D01*
X021607D01*
X021644Y035671D01*
D02*
G37*
G36*
X024735Y037515D02*
X024745Y037515D01*
X024754Y037513D01*
X024762Y037511D01*
X024770Y037509D01*
X024777Y037507D01*
X024784Y037504D01*
X024790Y037501D01*
X024795Y037499D01*
X024800Y037496D01*
X024804Y037494D01*
X024807Y037491D01*
X024810Y037490D01*
X024812Y037488D01*
X024813Y037487D01*
X024813Y037487D01*
X024819Y037481D01*
X024824Y037475D01*
X024829Y037469D01*
X024833Y037462D01*
X024839Y037449D01*
X024844Y037435D01*
X024845Y037429D01*
X024847Y037423D01*
X024848Y037418D01*
X024849Y037414D01*
X024850Y037410D01*
Y037407D01*
X024850Y037405D01*
Y037405D01*
X024802Y037400D01*
X024801Y037412D01*
X024799Y037424D01*
X024795Y037434D01*
X024792Y037441D01*
X024788Y037448D01*
X024785Y037452D01*
X024783Y037455D01*
X024782Y037456D01*
X024773Y037463D01*
X024764Y037468D01*
X024755Y037472D01*
X024747Y037474D01*
X024739Y037476D01*
X024732Y037476D01*
X024730Y037477D01*
X024727D01*
X024715Y037476D01*
X024704Y037474D01*
X024696Y037471D01*
X024688Y037467D01*
X024682Y037464D01*
X024678Y037461D01*
X024675Y037459D01*
X024674Y037457D01*
X024667Y037450D01*
X024662Y037442D01*
X024658Y037434D01*
X024656Y037426D01*
X024654Y037420D01*
X024654Y037415D01*
X024653Y037411D01*
Y037411D01*
Y037410D01*
X024654Y037400D01*
X024657Y037390D01*
X024661Y037380D01*
X024664Y037371D01*
X024669Y037364D01*
X024673Y037358D01*
X024674Y037356D01*
X024675Y037354D01*
X024676Y037354D01*
Y037353D01*
X024681Y037347D01*
X024686Y037341D01*
X024692Y037334D01*
X024699Y037328D01*
X024713Y037314D01*
X024727Y037301D01*
X024734Y037295D01*
X024740Y037289D01*
X024746Y037284D01*
X024751Y037280D01*
X024755Y037277D01*
X024758Y037274D01*
X024760Y037272D01*
X024761Y037272D01*
X024775Y037260D01*
X024788Y037249D01*
X024798Y037239D01*
X024807Y037230D01*
X024814Y037223D01*
X024819Y037218D01*
X024822Y037215D01*
X024823Y037214D01*
Y037214D01*
X024830Y037204D01*
X024836Y037195D01*
X024842Y037187D01*
X024846Y037179D01*
X024850Y037172D01*
X024852Y037167D01*
X024853Y037164D01*
X024854Y037163D01*
Y037163D01*
X024856Y037157D01*
X024857Y037151D01*
X024858Y037146D01*
X024859Y037141D01*
X024859Y037136D01*
Y037133D01*
Y037131D01*
Y037130D01*
X024604D01*
Y037176D01*
X024794D01*
X024787Y037185D01*
X024784Y037189D01*
X024781Y037193D01*
X024778Y037196D01*
X024776Y037198D01*
X024774Y037200D01*
X024774Y037200D01*
X024771Y037203D01*
X024768Y037206D01*
X024760Y037213D01*
X024751Y037222D01*
X024742Y037230D01*
X024733Y037237D01*
X024729Y037240D01*
X024725Y037244D01*
X024723Y037246D01*
X024720Y037248D01*
X024719Y037249D01*
X024719Y037249D01*
X024710Y037257D01*
X024701Y037264D01*
X024693Y037272D01*
X024686Y037278D01*
X024679Y037284D01*
X024674Y037289D01*
X024668Y037294D01*
X024664Y037299D01*
X024659Y037303D01*
X024656Y037306D01*
X024653Y037309D01*
X024651Y037312D01*
X024648Y037315D01*
X024647Y037316D01*
X024639Y037326D01*
X024632Y037334D01*
X024627Y037343D01*
X024622Y037349D01*
X024619Y037355D01*
X024617Y037360D01*
X024616Y037363D01*
X024615Y037364D01*
X024612Y037372D01*
X024609Y037380D01*
X024607Y037388D01*
X024606Y037395D01*
X024606Y037401D01*
X024605Y037405D01*
Y037408D01*
Y037409D01*
X024606Y037417D01*
X024607Y037425D01*
X024608Y037433D01*
X024610Y037440D01*
X024616Y037453D01*
X024621Y037464D01*
X024624Y037469D01*
X024627Y037472D01*
X024630Y037476D01*
X024633Y037479D01*
X024635Y037481D01*
X024636Y037484D01*
X024637Y037484D01*
X024638Y037485D01*
X024644Y037490D01*
X024651Y037495D01*
X024658Y037499D01*
X024665Y037502D01*
X024679Y037508D01*
X024694Y037512D01*
X024700Y037513D01*
X024706Y037514D01*
X024712Y037515D01*
X024716Y037515D01*
X024720Y037516D01*
X024725D01*
X024735Y037515D01*
D02*
G37*
G36*
X023467Y033670D02*
X023485Y033667D01*
X023501Y033664D01*
X023508Y033661D01*
X023515Y033659D01*
X023521Y033657D01*
X023526Y033655D01*
X023531Y033653D01*
X023535Y033651D01*
X023538Y033650D01*
X023540Y033649D01*
X023542Y033648D01*
X023542Y033647D01*
X023557Y033638D01*
X023570Y033627D01*
X023581Y033616D01*
X023591Y033605D01*
X023598Y033595D01*
X023601Y033590D01*
X023603Y033586D01*
X023605Y033584D01*
X023606Y033581D01*
X023607Y033580D01*
X023607Y033579D01*
X023615Y033562D01*
X023621Y033544D01*
X023624Y033526D01*
X023627Y033510D01*
X023628Y033503D01*
X023629Y033496D01*
X023629Y033490D01*
Y033485D01*
X023630Y033481D01*
Y033478D01*
Y033475D01*
Y033475D01*
X023629Y033455D01*
X023627Y033435D01*
X023624Y033418D01*
X023622Y033410D01*
X023620Y033403D01*
X023618Y033396D01*
X023616Y033390D01*
X023614Y033384D01*
X023613Y033380D01*
X023612Y033377D01*
X023611Y033374D01*
X023610Y033372D01*
Y033372D01*
X023602Y033355D01*
X023592Y033340D01*
X023582Y033327D01*
X023577Y033322D01*
X023573Y033317D01*
X023568Y033313D01*
X023564Y033309D01*
X023560Y033306D01*
X023557Y033303D01*
X023555Y033301D01*
X023552Y033299D01*
X023551Y033299D01*
X023551Y033298D01*
X023543Y033294D01*
X023535Y033290D01*
X023518Y033284D01*
X023502Y033279D01*
X023486Y033277D01*
X023478Y033276D01*
X023471Y033274D01*
X023465Y033274D01*
X023460D01*
X023456Y033273D01*
X023450D01*
X023439Y033274D01*
X023428Y033275D01*
X023418Y033276D01*
X023409Y033278D01*
X023400Y033281D01*
X023391Y033284D01*
X023384Y033287D01*
X023376Y033290D01*
X023370Y033293D01*
X023364Y033296D01*
X023360Y033298D01*
X023355Y033301D01*
X023352Y033303D01*
X023350Y033304D01*
X023349Y033306D01*
X023348Y033306D01*
X023340Y033313D01*
X023334Y033319D01*
X023328Y033327D01*
X023321Y033335D01*
X023311Y033350D01*
X023304Y033366D01*
X023300Y033373D01*
X023298Y033380D01*
X023295Y033386D01*
X023294Y033391D01*
X023292Y033395D01*
X023291Y033399D01*
X023290Y033401D01*
Y033402D01*
X023341Y033414D01*
X023344Y033405D01*
X023346Y033397D01*
X023349Y033389D01*
X023352Y033382D01*
X023355Y033375D01*
X023359Y033370D01*
X023362Y033364D01*
X023366Y033359D01*
X023369Y033355D01*
X023372Y033352D01*
X023375Y033348D01*
X023377Y033345D01*
X023379Y033344D01*
X023381Y033342D01*
X023381Y033342D01*
X023382Y033341D01*
X023387Y033337D01*
X023394Y033333D01*
X023406Y033327D01*
X023417Y033323D01*
X023429Y033320D01*
X023439Y033318D01*
X023443Y033317D01*
X023447D01*
X023450Y033317D01*
X023454D01*
X023467Y033317D01*
X023479Y033319D01*
X023490Y033322D01*
X023500Y033326D01*
X023508Y033329D01*
X023511Y033331D01*
X023514Y033332D01*
X023516Y033333D01*
X023518Y033334D01*
X023519Y033334D01*
X023520D01*
X023530Y033342D01*
X023539Y033350D01*
X023547Y033360D01*
X023553Y033369D01*
X023558Y033377D01*
X023561Y033383D01*
X023562Y033386D01*
X023563Y033388D01*
X023564Y033389D01*
Y033389D01*
X023568Y033404D01*
X023572Y033418D01*
X023575Y033433D01*
X023576Y033446D01*
X023577Y033452D01*
X023577Y033458D01*
Y033463D01*
X023578Y033466D01*
Y033470D01*
Y033473D01*
Y033474D01*
Y033475D01*
X023577Y033489D01*
X023576Y033503D01*
X023574Y033515D01*
X023572Y033526D01*
X023570Y033535D01*
X023569Y033539D01*
X023568Y033543D01*
X023567Y033545D01*
X023567Y033547D01*
X023566Y033548D01*
Y033549D01*
X023561Y033561D01*
X023555Y033573D01*
X023548Y033582D01*
X023541Y033591D01*
X023535Y033597D01*
X023530Y033602D01*
X023526Y033605D01*
X023525Y033606D01*
X023525D01*
X023513Y033613D01*
X023500Y033619D01*
X023488Y033622D01*
X023476Y033625D01*
X023466Y033626D01*
X023461Y033627D01*
X023457D01*
X023455Y033627D01*
X023450D01*
X023436Y033627D01*
X023424Y033625D01*
X023413Y033621D01*
X023404Y033618D01*
X023396Y033614D01*
X023391Y033611D01*
X023387Y033609D01*
X023386Y033608D01*
X023377Y033600D01*
X023369Y033590D01*
X023362Y033580D01*
X023357Y033570D01*
X023352Y033561D01*
X023351Y033557D01*
X023350Y033554D01*
X023349Y033551D01*
X023348Y033549D01*
X023347Y033548D01*
Y033547D01*
X023297Y033559D01*
X023300Y033569D01*
X023304Y033577D01*
X023308Y033586D01*
X023312Y033594D01*
X023316Y033601D01*
X023321Y033608D01*
X023326Y033615D01*
X023330Y033620D01*
X023335Y033625D01*
X023339Y033629D01*
X023343Y033633D01*
X023345Y033636D01*
X023348Y033639D01*
X023350Y033640D01*
X023351Y033641D01*
X023352Y033641D01*
X023360Y033646D01*
X023367Y033651D01*
X023375Y033655D01*
X023384Y033659D01*
X023400Y033664D01*
X023415Y033667D01*
X023422Y033668D01*
X023429Y033669D01*
X023435Y033670D01*
X023440Y033670D01*
X023444Y033671D01*
X023449D01*
X023467Y033670D01*
D02*
G37*
G36*
X023143Y033665D02*
X023158Y033662D01*
X023170Y033657D01*
X023182Y033653D01*
X023187Y033650D01*
X023190Y033648D01*
X023194Y033646D01*
X023197Y033644D01*
X023199Y033642D01*
X023201Y033641D01*
X023202Y033640D01*
X023203Y033640D01*
X023213Y033629D01*
X023222Y033617D01*
X023228Y033605D01*
X023234Y033593D01*
X023237Y033582D01*
X023239Y033578D01*
X023240Y033574D01*
X023240Y033571D01*
X023241Y033569D01*
X023242Y033567D01*
Y033566D01*
X023194Y033558D01*
X023192Y033570D01*
X023189Y033581D01*
X023185Y033590D01*
X023181Y033597D01*
X023177Y033602D01*
X023174Y033606D01*
X023172Y033609D01*
X023171Y033610D01*
X023164Y033615D01*
X023156Y033620D01*
X023149Y033622D01*
X023142Y033625D01*
X023135Y033626D01*
X023130Y033627D01*
X023126D01*
X023116Y033626D01*
X023107Y033624D01*
X023099Y033621D01*
X023092Y033619D01*
X023087Y033615D01*
X023083Y033612D01*
X023081Y033610D01*
X023080Y033610D01*
X023074Y033603D01*
X023069Y033596D01*
X023067Y033589D01*
X023064Y033582D01*
X023063Y033576D01*
X023062Y033571D01*
Y033568D01*
Y033567D01*
Y033567D01*
Y033561D01*
X023063Y033555D01*
X023066Y033546D01*
X023070Y033538D01*
X023074Y033530D01*
X023079Y033525D01*
X023083Y033521D01*
X023086Y033519D01*
X023086Y033519D01*
X023087D01*
X023096Y033514D01*
X023105Y033510D01*
X023114Y033507D01*
X023123Y033505D01*
X023130Y033504D01*
X023136Y033503D01*
X023143D01*
X023145Y033504D01*
X023148D01*
X023154Y033462D01*
X023147Y033464D01*
X023140Y033465D01*
X023134Y033466D01*
X023129Y033466D01*
X023126Y033467D01*
X023121D01*
X023109Y033466D01*
X023098Y033464D01*
X023089Y033460D01*
X023081Y033456D01*
X023075Y033453D01*
X023071Y033449D01*
X023068Y033447D01*
X023067Y033446D01*
X023059Y033438D01*
X023054Y033429D01*
X023050Y033420D01*
X023048Y033411D01*
X023046Y033404D01*
X023046Y033398D01*
X023045Y033395D01*
Y033394D01*
Y033393D01*
Y033392D01*
X023046Y033380D01*
X023049Y033369D01*
X023052Y033359D01*
X023057Y033351D01*
X023061Y033344D01*
X023064Y033339D01*
X023067Y033336D01*
X023068Y033335D01*
X023077Y033327D01*
X023087Y033322D01*
X023096Y033318D01*
X023105Y033315D01*
X023113Y033313D01*
X023119Y033313D01*
X023121Y033312D01*
X023124D01*
X023134Y033313D01*
X023144Y033315D01*
X023152Y033318D01*
X023159Y033321D01*
X023164Y033324D01*
X023169Y033327D01*
X023171Y033329D01*
X023172Y033329D01*
X023179Y033337D01*
X023184Y033346D01*
X023189Y033355D01*
X023193Y033365D01*
X023196Y033374D01*
X023197Y033378D01*
X023198Y033381D01*
X023198Y033384D01*
X023199Y033386D01*
X023199Y033387D01*
Y033388D01*
X023246Y033382D01*
X023245Y033373D01*
X023244Y033364D01*
X023239Y033349D01*
X023233Y033335D01*
X023229Y033330D01*
X023226Y033324D01*
X023223Y033319D01*
X023219Y033316D01*
X023217Y033312D01*
X023214Y033309D01*
X023212Y033307D01*
X023210Y033305D01*
X023209Y033304D01*
X023209Y033303D01*
X023202Y033298D01*
X023195Y033293D01*
X023189Y033289D01*
X023182Y033286D01*
X023168Y033281D01*
X023154Y033277D01*
X023148Y033276D01*
X023143Y033275D01*
X023138Y033274D01*
X023133Y033274D01*
X023130Y033273D01*
X023125D01*
X023114Y033274D01*
X023105Y033275D01*
X023096Y033277D01*
X023087Y033279D01*
X023078Y033282D01*
X023071Y033284D01*
X023064Y033288D01*
X023058Y033291D01*
X023052Y033294D01*
X023047Y033297D01*
X023042Y033300D01*
X023039Y033303D01*
X023036Y033305D01*
X023034Y033307D01*
X023033Y033308D01*
X023032Y033308D01*
X023026Y033315D01*
X023020Y033322D01*
X023015Y033329D01*
X023011Y033337D01*
X023007Y033343D01*
X023004Y033350D01*
X023000Y033364D01*
X022998Y033370D01*
X022997Y033375D01*
X022996Y033380D01*
X022996Y033385D01*
X022995Y033388D01*
Y033391D01*
Y033393D01*
Y033393D01*
X022996Y033407D01*
X022998Y033419D01*
X023001Y033429D01*
X023005Y033438D01*
X023008Y033445D01*
X023011Y033451D01*
X023013Y033454D01*
X023014Y033455D01*
X023022Y033464D01*
X023030Y033471D01*
X023039Y033476D01*
X023048Y033481D01*
X023056Y033484D01*
X023062Y033486D01*
X023064Y033487D01*
X023066Y033488D01*
X023067Y033488D01*
X023067D01*
X023058Y033493D01*
X023050Y033498D01*
X023043Y033504D01*
X023038Y033509D01*
X023033Y033513D01*
X023030Y033517D01*
X023028Y033519D01*
X023028Y033520D01*
X023023Y033528D01*
X023020Y033536D01*
X023017Y033544D01*
X023016Y033551D01*
X023015Y033557D01*
X023014Y033561D01*
Y033565D01*
Y033566D01*
X023015Y033575D01*
X023016Y033585D01*
X023018Y033593D01*
X023021Y033600D01*
X023024Y033606D01*
X023026Y033611D01*
X023028Y033614D01*
X023028Y033615D01*
X023034Y033624D01*
X023041Y033631D01*
X023047Y033637D01*
X023054Y033642D01*
X023059Y033646D01*
X023064Y033650D01*
X023068Y033651D01*
X023068Y033652D01*
X023069D01*
X023079Y033656D01*
X023089Y033660D01*
X023099Y033662D01*
X023108Y033664D01*
X023115Y033665D01*
X023121Y033666D01*
X023135D01*
X023143Y033665D01*
D02*
G37*
G36*
X023130Y036830D02*
X023079D01*
Y037000D01*
X023013D01*
X023007Y037000D01*
X023003D01*
X022999Y036999D01*
X022996Y036999D01*
X022994D01*
X022993Y036998D01*
X022992D01*
X022983Y036995D01*
X022980Y036994D01*
X022976Y036992D01*
X022973Y036990D01*
X022971Y036989D01*
X022970Y036989D01*
X022969Y036988D01*
X022965Y036985D01*
X022960Y036981D01*
X022952Y036973D01*
X022948Y036969D01*
X022945Y036965D01*
X022944Y036963D01*
X022943Y036963D01*
X022937Y036955D01*
X022931Y036947D01*
X022925Y036938D01*
X022919Y036929D01*
X022914Y036922D01*
X022910Y036915D01*
X022909Y036913D01*
X022907Y036912D01*
X022906Y036910D01*
Y036910D01*
X022856Y036830D01*
X022793D01*
X022859Y036934D01*
X022866Y036945D01*
X022874Y036955D01*
X022881Y036964D01*
X022887Y036972D01*
X022892Y036977D01*
X022897Y036982D01*
X022900Y036984D01*
X022901Y036985D01*
X022905Y036989D01*
X022910Y036993D01*
X022920Y036999D01*
X022925Y037001D01*
X022928Y037003D01*
X022930Y037004D01*
X022931Y037005D01*
X022921Y037006D01*
X022912Y037008D01*
X022904Y037011D01*
X022895Y037013D01*
X022888Y037016D01*
X022881Y037019D01*
X022875Y037022D01*
X022870Y037025D01*
X022865Y037028D01*
X022861Y037031D01*
X022857Y037033D01*
X022855Y037035D01*
X022852Y037037D01*
X022851Y037039D01*
X022850Y037039D01*
X022850Y037040D01*
X022845Y037045D01*
X022841Y037051D01*
X022834Y037063D01*
X022830Y037074D01*
X022826Y037085D01*
X022824Y037095D01*
X022824Y037099D01*
Y037103D01*
X022823Y037105D01*
Y037108D01*
Y037109D01*
Y037109D01*
X022824Y037121D01*
X022825Y037131D01*
X022828Y037141D01*
X022831Y037150D01*
X022834Y037157D01*
X022836Y037162D01*
X022839Y037166D01*
X022839Y037166D01*
Y037167D01*
X022846Y037176D01*
X022852Y037184D01*
X022860Y037190D01*
X022866Y037195D01*
X022872Y037199D01*
X022877Y037201D01*
X022881Y037203D01*
X022881Y037204D01*
X022882D01*
X022887Y037205D01*
X022893Y037207D01*
X022905Y037210D01*
X022919Y037211D01*
X022931Y037213D01*
X022942Y037214D01*
X022947D01*
X022952Y037214D01*
X023130D01*
Y036830D01*
D02*
G37*
G36*
X022658Y037215D02*
X022673Y037212D01*
X022686Y037207D01*
X022697Y037203D01*
X022702Y037200D01*
X022706Y037198D01*
X022710Y037196D01*
X022713Y037194D01*
X022715Y037192D01*
X022717Y037191D01*
X022718Y037190D01*
X022718Y037190D01*
X022729Y037179D01*
X022737Y037167D01*
X022744Y037155D01*
X022749Y037143D01*
X022753Y037132D01*
X022754Y037128D01*
X022755Y037124D01*
X022756Y037121D01*
X022756Y037119D01*
X022757Y037117D01*
Y037116D01*
X022710Y037108D01*
X022708Y037120D01*
X022704Y037131D01*
X022700Y037140D01*
X022697Y037147D01*
X022693Y037152D01*
X022689Y037156D01*
X022687Y037159D01*
X022687Y037160D01*
X022679Y037165D01*
X022672Y037170D01*
X022664Y037172D01*
X022657Y037175D01*
X022650Y037176D01*
X022645Y037177D01*
X022641D01*
X022631Y037176D01*
X022622Y037174D01*
X022614Y037171D01*
X022608Y037169D01*
X022603Y037165D01*
X022599Y037162D01*
X022596Y037160D01*
X022596Y037160D01*
X022589Y037153D01*
X022585Y037146D01*
X022582Y037139D01*
X022580Y037132D01*
X022579Y037126D01*
X022578Y037121D01*
Y037118D01*
Y037117D01*
Y037117D01*
Y037111D01*
X022579Y037105D01*
X022582Y037096D01*
X022586Y037088D01*
X022590Y037080D01*
X022594Y037075D01*
X022598Y037071D01*
X022601Y037069D01*
X022602Y037069D01*
X022602D01*
X022612Y037064D01*
X022621Y037060D01*
X022630Y037057D01*
X022638Y037055D01*
X022645Y037054D01*
X022652Y037053D01*
X022659D01*
X022661Y037054D01*
X022664D01*
X022669Y037012D01*
X022662Y037014D01*
X022655Y037015D01*
X022650Y037016D01*
X022645Y037016D01*
X022641Y037017D01*
X022636D01*
X022624Y037016D01*
X022614Y037014D01*
X022604Y037010D01*
X022597Y037006D01*
X022591Y037003D01*
X022586Y036999D01*
X022583Y036997D01*
X022582Y036996D01*
X022575Y036988D01*
X022569Y036979D01*
X022566Y036970D01*
X022563Y036961D01*
X022562Y036954D01*
X022561Y036948D01*
X022561Y036945D01*
Y036944D01*
Y036943D01*
Y036942D01*
X022562Y036930D01*
X022564Y036919D01*
X022568Y036909D01*
X022572Y036901D01*
X022577Y036894D01*
X022580Y036889D01*
X022583Y036886D01*
X022584Y036885D01*
X022593Y036877D01*
X022602Y036872D01*
X022612Y036868D01*
X022621Y036865D01*
X022628Y036863D01*
X022634Y036863D01*
X022637Y036862D01*
X022640D01*
X022650Y036863D01*
X022659Y036865D01*
X022668Y036868D01*
X022674Y036871D01*
X022680Y036874D01*
X022684Y036877D01*
X022687Y036879D01*
X022688Y036879D01*
X022694Y036887D01*
X022700Y036896D01*
X022705Y036905D01*
X022709Y036915D01*
X022712Y036924D01*
X022713Y036928D01*
X022713Y036931D01*
X022714Y036934D01*
X022714Y036936D01*
X022715Y036937D01*
Y036938D01*
X022762Y036932D01*
X022761Y036923D01*
X022759Y036914D01*
X022754Y036899D01*
X022748Y036885D01*
X022745Y036880D01*
X022741Y036874D01*
X022738Y036869D01*
X022735Y036866D01*
X022732Y036862D01*
X022729Y036859D01*
X022728Y036857D01*
X022726Y036855D01*
X022725Y036854D01*
X022724Y036853D01*
X022718Y036848D01*
X022711Y036843D01*
X022704Y036839D01*
X022697Y036836D01*
X022683Y036831D01*
X022670Y036827D01*
X022664Y036826D01*
X022658Y036825D01*
X022653Y036824D01*
X022649Y036824D01*
X022645Y036823D01*
X022640D01*
X022630Y036824D01*
X022621Y036825D01*
X022611Y036827D01*
X022602Y036829D01*
X022594Y036832D01*
X022587Y036834D01*
X022579Y036838D01*
X022573Y036841D01*
X022567Y036844D01*
X022562Y036847D01*
X022558Y036850D01*
X022554Y036853D01*
X022552Y036855D01*
X022549Y036857D01*
X022548Y036858D01*
X022548Y036858D01*
X022541Y036865D01*
X022536Y036872D01*
X022531Y036879D01*
X022526Y036887D01*
X022523Y036893D01*
X022520Y036900D01*
X022515Y036914D01*
X022514Y036920D01*
X022513Y036925D01*
X022512Y036930D01*
X022511Y036935D01*
X022511Y036938D01*
Y036941D01*
Y036943D01*
Y036943D01*
X022511Y036957D01*
X022513Y036969D01*
X022517Y036979D01*
X022520Y036988D01*
X022523Y036995D01*
X022527Y037001D01*
X022529Y037004D01*
X022529Y037005D01*
X022537Y037014D01*
X022546Y037021D01*
X022554Y037026D01*
X022563Y037031D01*
X022571Y037034D01*
X022577Y037036D01*
X022579Y037037D01*
X022581Y037038D01*
X022582Y037038D01*
X022583D01*
X022573Y037043D01*
X022566Y037048D01*
X022559Y037054D01*
X022553Y037059D01*
X022549Y037063D01*
X022546Y037067D01*
X022544Y037069D01*
X022543Y037070D01*
X022539Y037078D01*
X022536Y037086D01*
X022533Y037094D01*
X022531Y037101D01*
X022530Y037107D01*
X022529Y037111D01*
Y037115D01*
Y037116D01*
X022530Y037125D01*
X022532Y037135D01*
X022534Y037143D01*
X022537Y037150D01*
X022539Y037156D01*
X022542Y037161D01*
X022543Y037164D01*
X022544Y037165D01*
X022549Y037174D01*
X022556Y037181D01*
X022563Y037187D01*
X022569Y037192D01*
X022575Y037196D01*
X022580Y037200D01*
X022583Y037201D01*
X022584Y037202D01*
X022584D01*
X022594Y037206D01*
X022604Y037210D01*
X022614Y037212D01*
X022623Y037214D01*
X022631Y037215D01*
X022637Y037216D01*
X022650D01*
X022658Y037215D01*
D02*
G37*
G36*
X025220Y037130D02*
X025169D01*
Y037300D01*
X025103D01*
X025097Y037300D01*
X025093D01*
X025089Y037299D01*
X025086Y037299D01*
X025084D01*
X025083Y037298D01*
X025082D01*
X025073Y037295D01*
X025070Y037294D01*
X025066Y037292D01*
X025063Y037290D01*
X025061Y037289D01*
X025060Y037289D01*
X025059Y037288D01*
X025055Y037285D01*
X025050Y037281D01*
X025042Y037273D01*
X025038Y037269D01*
X025035Y037265D01*
X025034Y037263D01*
X025033Y037263D01*
X025027Y037255D01*
X025021Y037247D01*
X025015Y037238D01*
X025009Y037229D01*
X025004Y037222D01*
X025000Y037215D01*
X024999Y037213D01*
X024997Y037212D01*
X024996Y037210D01*
Y037210D01*
X024946Y037130D01*
X024883D01*
X024949Y037234D01*
X024956Y037245D01*
X024964Y037255D01*
X024971Y037264D01*
X024977Y037272D01*
X024982Y037277D01*
X024987Y037282D01*
X024990Y037284D01*
X024991Y037285D01*
X024995Y037289D01*
X025000Y037293D01*
X025010Y037299D01*
X025015Y037301D01*
X025018Y037303D01*
X025020Y037304D01*
X025021Y037305D01*
X025011Y037306D01*
X025002Y037308D01*
X024994Y037311D01*
X024985Y037313D01*
X024978Y037316D01*
X024971Y037319D01*
X024965Y037322D01*
X024960Y037325D01*
X024955Y037328D01*
X024951Y037331D01*
X024947Y037333D01*
X024945Y037335D01*
X024943Y037337D01*
X024941Y037339D01*
X024940Y037339D01*
X024940Y037340D01*
X024935Y037345D01*
X024931Y037351D01*
X024924Y037363D01*
X024920Y037374D01*
X024916Y037385D01*
X024914Y037395D01*
X024914Y037399D01*
Y037403D01*
X024913Y037405D01*
Y037408D01*
Y037409D01*
Y037409D01*
X024914Y037421D01*
X024915Y037431D01*
X024918Y037441D01*
X024921Y037450D01*
X024924Y037457D01*
X024926Y037462D01*
X024929Y037466D01*
X024929Y037466D01*
Y037467D01*
X024936Y037476D01*
X024943Y037484D01*
X024950Y037490D01*
X024956Y037495D01*
X024962Y037499D01*
X024967Y037501D01*
X024971Y037503D01*
X024971Y037504D01*
X024972D01*
X024977Y037505D01*
X024983Y037507D01*
X024995Y037510D01*
X025009Y037511D01*
X025021Y037513D01*
X025032Y037514D01*
X025037D01*
X025042Y037514D01*
X025220D01*
Y037130D01*
D02*
G37*
G36*
X025871Y038556D02*
X025877Y038547D01*
X025884Y038539D01*
X025891Y038531D01*
X025898Y038524D01*
X025903Y038519D01*
X025905Y038517D01*
X025907Y038515D01*
X025907Y038515D01*
X025908Y038514D01*
X025919Y038505D01*
X025931Y038496D01*
X025942Y038488D01*
X025953Y038482D01*
X025963Y038476D01*
X025967Y038474D01*
X025970Y038472D01*
X025973Y038471D01*
X025975Y038470D01*
X025976Y038469D01*
X025977D01*
Y038424D01*
X025968Y038427D01*
X025960Y038431D01*
X025952Y038435D01*
X025944Y038439D01*
X025937Y038442D01*
X025932Y038445D01*
X025928Y038447D01*
X025928Y038448D01*
X025927D01*
X025917Y038454D01*
X025908Y038460D01*
X025900Y038465D01*
X025894Y038470D01*
X025889Y038474D01*
X025886Y038477D01*
X025883Y038480D01*
X025882Y038480D01*
Y038180D01*
X025835D01*
Y038566D01*
X025866D01*
X025871Y038556D01*
D02*
G37*
G36*
X025610Y038565D02*
X025625Y038562D01*
X025637Y038557D01*
X025649Y038553D01*
X025654Y038550D01*
X025657Y038548D01*
X025661Y038546D01*
X025664Y038544D01*
X025666Y038542D01*
X025668Y038541D01*
X025669Y038540D01*
X025670Y038540D01*
X025680Y038529D01*
X025688Y038517D01*
X025695Y038505D01*
X025701Y038493D01*
X025704Y038482D01*
X025706Y038478D01*
X025707Y038474D01*
X025707Y038471D01*
X025708Y038469D01*
X025708Y038467D01*
Y038466D01*
X025661Y038458D01*
X025659Y038470D01*
X025656Y038481D01*
X025652Y038490D01*
X025648Y038497D01*
X025644Y038502D01*
X025641Y038506D01*
X025639Y038509D01*
X025638Y038510D01*
X025631Y038515D01*
X025623Y038520D01*
X025616Y038522D01*
X025609Y038525D01*
X025602Y038526D01*
X025597Y038527D01*
X025592D01*
X025582Y038526D01*
X025574Y038524D01*
X025566Y038521D01*
X025559Y038519D01*
X025554Y038515D01*
X025550Y038512D01*
X025547Y038510D01*
X025547Y038510D01*
X025541Y038503D01*
X025536Y038496D01*
X025534Y038489D01*
X025531Y038482D01*
X025530Y038476D01*
X025529Y038471D01*
Y038468D01*
Y038467D01*
Y038467D01*
Y038461D01*
X025530Y038455D01*
X025533Y038446D01*
X025537Y038438D01*
X025541Y038430D01*
X025546Y038425D01*
X025550Y038421D01*
X025552Y038419D01*
X025553Y038419D01*
X025554D01*
X025563Y038414D01*
X025572Y038410D01*
X025581Y038407D01*
X025590Y038405D01*
X025597Y038404D01*
X025603Y038403D01*
X025610D01*
X025612Y038404D01*
X025615D01*
X025621Y038362D01*
X025614Y038364D01*
X025607Y038365D01*
X025601Y038366D01*
X025596Y038366D01*
X025592Y038367D01*
X025587D01*
X025576Y038366D01*
X025565Y038364D01*
X025556Y038360D01*
X025548Y038356D01*
X025542Y038353D01*
X025538Y038349D01*
X025535Y038347D01*
X025534Y038346D01*
X025526Y038338D01*
X025521Y038329D01*
X025519Y038324D01*
X025520D01*
Y038258D01*
X025524Y038251D01*
X025528Y038244D01*
X025531Y038239D01*
X025534Y038236D01*
X025535Y038235D01*
X025544Y038227D01*
X025554Y038222D01*
X025563Y038218D01*
X025572Y038215D01*
X025580Y038213D01*
X025586Y038213D01*
X025588Y038212D01*
X025591D01*
X025601Y038213D01*
X025611Y038215D01*
X025619Y038218D01*
X025626Y038221D01*
X025631Y038224D01*
X025636Y038227D01*
X025638Y038229D01*
X025639Y038229D01*
X025646Y038237D01*
X025651Y038246D01*
X025656Y038255D01*
X025660Y038265D01*
X025663Y038274D01*
X025664Y038278D01*
X025665Y038281D01*
X025665Y038284D01*
X025666Y038286D01*
X025666Y038287D01*
Y038288D01*
X025713Y038282D01*
X025712Y038273D01*
X025711Y038264D01*
X025706Y038249D01*
X025700Y038235D01*
X025696Y038230D01*
X025693Y038224D01*
X025690Y038219D01*
X025686Y038216D01*
X025683Y038212D01*
X025681Y038209D01*
X025679Y038207D01*
X025677Y038205D01*
X025676Y038204D01*
X025676Y038203D01*
X025669Y038198D01*
X025662Y038193D01*
X025656Y038189D01*
X025649Y038186D01*
X025635Y038181D01*
X025621Y038177D01*
X025615Y038176D01*
X025610Y038175D01*
X025605Y038174D01*
X025600Y038174D01*
X025597Y038173D01*
X025592D01*
X025581Y038174D01*
X025572Y038175D01*
X025562Y038177D01*
X025554Y038179D01*
X025545Y038182D01*
X025538Y038184D01*
X025531Y038188D01*
X025525Y038191D01*
X025520Y038193D01*
Y037940D01*
X025469D01*
Y038110D01*
X025403D01*
X025397Y038110D01*
X025393D01*
X025389Y038109D01*
X025386Y038109D01*
X025384D01*
X025383Y038108D01*
X025382D01*
X025373Y038105D01*
X025370Y038104D01*
X025366Y038102D01*
X025363Y038100D01*
X025361Y038099D01*
X025360Y038099D01*
X025359Y038098D01*
X025355Y038095D01*
X025350Y038091D01*
X025342Y038083D01*
X025338Y038079D01*
X025335Y038075D01*
X025334Y038073D01*
X025333Y038073D01*
X025327Y038065D01*
X025321Y038057D01*
X025315Y038048D01*
X025309Y038039D01*
X025304Y038032D01*
X025300Y038025D01*
X025299Y038023D01*
X025297Y038022D01*
X025296Y038020D01*
Y038020D01*
X025246Y037940D01*
X025183D01*
X025249Y038044D01*
X025256Y038055D01*
X025264Y038065D01*
X025271Y038074D01*
X025277Y038082D01*
X025282Y038087D01*
X025287Y038092D01*
X025290Y038094D01*
X025291Y038095D01*
X025295Y038099D01*
X025300Y038103D01*
X025310Y038109D01*
X025315Y038111D01*
X025318Y038113D01*
X025320Y038114D01*
X025321Y038115D01*
X025311Y038116D01*
X025302Y038118D01*
X025294Y038121D01*
X025285Y038123D01*
X025278Y038126D01*
X025271Y038129D01*
X025265Y038132D01*
X025260Y038135D01*
X025255Y038138D01*
X025251Y038141D01*
X025247Y038143D01*
X025245Y038145D01*
X025243Y038147D01*
X025241Y038149D01*
X025240Y038149D01*
X025240Y038150D01*
X025235Y038155D01*
X025231Y038161D01*
X025224Y038173D01*
X025220Y038184D01*
X025216Y038195D01*
X025214Y038205D01*
X025214Y038209D01*
Y038213D01*
X025213Y038215D01*
Y038217D01*
Y038219D01*
Y038219D01*
X025214Y038231D01*
X025215Y038241D01*
X025218Y038251D01*
X025221Y038260D01*
X025224Y038267D01*
X025226Y038272D01*
X025229Y038276D01*
X025229Y038276D01*
Y038277D01*
X025236Y038286D01*
X025243Y038294D01*
X025250Y038300D01*
X025256Y038305D01*
X025262Y038309D01*
X025267Y038311D01*
X025271Y038313D01*
X025271Y038314D01*
X025272D01*
X025277Y038315D01*
X025283Y038317D01*
X025295Y038320D01*
X025309Y038321D01*
X025321Y038323D01*
X025332Y038324D01*
X025337D01*
X025342Y038324D01*
X025466D01*
X025468Y038329D01*
X025471Y038338D01*
X025475Y038345D01*
X025478Y038351D01*
X025480Y038354D01*
X025481Y038355D01*
X025489Y038364D01*
X025497Y038371D01*
X025506Y038376D01*
X025515Y038381D01*
X025523Y038384D01*
X025529Y038386D01*
X025531Y038387D01*
X025533Y038388D01*
X025534Y038388D01*
X025534D01*
X025525Y038393D01*
X025517Y038398D01*
X025510Y038404D01*
X025505Y038409D01*
X025500Y038413D01*
X025497Y038417D01*
X025495Y038419D01*
X025495Y038420D01*
X025490Y038428D01*
X025487Y038436D01*
X025484Y038444D01*
X025483Y038451D01*
X025481Y038457D01*
X025481Y038461D01*
Y038465D01*
Y038466D01*
X025481Y038475D01*
X025483Y038485D01*
X025485Y038493D01*
X025488Y038500D01*
X025491Y038506D01*
X025493Y038511D01*
X025495Y038514D01*
X025495Y038515D01*
X025501Y038524D01*
X025508Y038531D01*
X025514Y038537D01*
X025521Y038542D01*
X025526Y038546D01*
X025531Y038550D01*
X025535Y038551D01*
X025535Y038552D01*
X025536D01*
X025546Y038556D01*
X025556Y038560D01*
X025566Y038562D01*
X025575Y038564D01*
X025582Y038565D01*
X025588Y038566D01*
X025602D01*
X025610Y038565D01*
D02*
G37*
G36*
X026380Y038180D02*
X026329D01*
Y038350D01*
X026263D01*
X026257Y038350D01*
X026253D01*
X026249Y038349D01*
X026246Y038349D01*
X026244D01*
X026243Y038348D01*
X026242D01*
X026233Y038345D01*
X026230Y038344D01*
X026226Y038342D01*
X026223Y038340D01*
X026221Y038339D01*
X026220Y038339D01*
X026219Y038338D01*
X026215Y038335D01*
X026210Y038331D01*
X026202Y038323D01*
X026198Y038319D01*
X026195Y038315D01*
X026194Y038313D01*
X026193Y038313D01*
X026187Y038305D01*
X026181Y038297D01*
X026175Y038288D01*
X026169Y038279D01*
X026164Y038272D01*
X026160Y038265D01*
X026159Y038263D01*
X026157Y038262D01*
X026156Y038260D01*
Y038260D01*
X026106Y038180D01*
X026043D01*
X026109Y038284D01*
X026116Y038295D01*
X026124Y038305D01*
X026131Y038314D01*
X026137Y038322D01*
X026142Y038327D01*
X026147Y038332D01*
X026150Y038334D01*
X026151Y038335D01*
X026155Y038339D01*
X026160Y038343D01*
X026170Y038349D01*
X026175Y038351D01*
X026178Y038353D01*
X026180Y038354D01*
X026181Y038355D01*
X026171Y038356D01*
X026162Y038358D01*
X026154Y038361D01*
X026145Y038363D01*
X026138Y038366D01*
X026131Y038369D01*
X026125Y038372D01*
X026120Y038375D01*
X026115Y038378D01*
X026111Y038381D01*
X026107Y038383D01*
X026105Y038385D01*
X026102Y038387D01*
X026101Y038389D01*
X026100Y038389D01*
X026100Y038390D01*
X026095Y038395D01*
X026091Y038401D01*
X026084Y038413D01*
X026080Y038424D01*
X026076Y038435D01*
X026074Y038445D01*
X026074Y038449D01*
Y038453D01*
X026073Y038455D01*
Y038458D01*
Y038459D01*
Y038459D01*
X026074Y038471D01*
X026075Y038481D01*
X026078Y038491D01*
X026081Y038500D01*
X026084Y038507D01*
X026086Y038512D01*
X026089Y038516D01*
X026089Y038516D01*
Y038517D01*
X026096Y038526D01*
X026102Y038534D01*
X026110Y038540D01*
X026116Y038545D01*
X026122Y038549D01*
X026127Y038551D01*
X026131Y038553D01*
X026131Y038554D01*
X026132D01*
X026137Y038555D01*
X026143Y038557D01*
X026155Y038560D01*
X026169Y038561D01*
X026181Y038563D01*
X026192Y038564D01*
X026197D01*
X026202Y038564D01*
X026380D01*
Y038180D01*
D02*
G37*
G36*
X022861Y035966D02*
X022867Y035957D01*
X022874Y035949D01*
X022881Y035941D01*
X022888Y035934D01*
X022893Y035929D01*
X022895Y035927D01*
X022897Y035925D01*
X022897Y035925D01*
X022898Y035924D01*
X022909Y035915D01*
X022921Y035906D01*
X022932Y035898D01*
X022943Y035892D01*
X022953Y035886D01*
X022957Y035884D01*
X022960Y035882D01*
X022963Y035881D01*
X022965Y035880D01*
X022966Y035879D01*
X022967D01*
Y035834D01*
X022958Y035837D01*
X022950Y035841D01*
X022942Y035845D01*
X022934Y035849D01*
X022927Y035852D01*
X022922Y035855D01*
X022918Y035857D01*
X022918Y035858D01*
X022917D01*
X022907Y035864D01*
X022898Y035870D01*
X022890Y035875D01*
X022884Y035880D01*
X022879Y035884D01*
X022875Y035887D01*
X022873Y035890D01*
X022872Y035890D01*
Y035590D01*
X022825D01*
Y035976D01*
X022856D01*
X022861Y035966D01*
D02*
G37*
G36*
X025042Y038325D02*
X025050Y038324D01*
X025059Y038322D01*
X025067Y038320D01*
X025082Y038314D01*
X025089Y038311D01*
X025094Y038308D01*
X025100Y038304D01*
X025104Y038301D01*
X025109Y038298D01*
X025112Y038295D01*
X025115Y038293D01*
X025117Y038291D01*
X025118Y038290D01*
X025118Y038290D01*
X025124Y038283D01*
X025129Y038275D01*
X025134Y038268D01*
X025138Y038260D01*
X025141Y038252D01*
X025144Y038244D01*
X025148Y038230D01*
X025150Y038222D01*
X025151Y038216D01*
X025151Y038210D01*
X025152Y038205D01*
X025153Y038201D01*
Y038199D01*
Y038196D01*
Y038196D01*
X025152Y038185D01*
X025151Y038176D01*
X025150Y038166D01*
X025148Y038158D01*
X025145Y038150D01*
X025142Y038142D01*
X025139Y038135D01*
X025136Y038129D01*
X025133Y038124D01*
X025130Y038119D01*
X025128Y038115D01*
X025125Y038111D01*
X025123Y038108D01*
X025122Y038107D01*
X025120Y038105D01*
X025120Y038105D01*
X025114Y038099D01*
X025107Y038094D01*
X025100Y038089D01*
X025093Y038085D01*
X025087Y038082D01*
X025080Y038079D01*
X025067Y038075D01*
X025062Y038073D01*
X025056Y038072D01*
X025052Y038072D01*
X025047Y038071D01*
X025044Y038070D01*
X025039D01*
X025029Y038071D01*
X025019Y038073D01*
X025010Y038075D01*
X025002Y038078D01*
X024996Y038080D01*
X024991Y038082D01*
X024987Y038084D01*
X024986Y038084D01*
X024977Y038090D01*
X024969Y038096D01*
X024963Y038102D01*
X024957Y038108D01*
X024953Y038113D01*
X024950Y038117D01*
X024948Y038120D01*
X024947Y038121D01*
Y038116D01*
Y038114D01*
Y038112D01*
Y038111D01*
X024948Y038100D01*
X024948Y038090D01*
X024949Y038080D01*
X024951Y038072D01*
X024952Y038064D01*
X024953Y038059D01*
X024954Y038057D01*
Y038055D01*
X024954Y038054D01*
Y038054D01*
X024957Y038044D01*
X024960Y038035D01*
X024963Y038027D01*
X024966Y038020D01*
X024968Y038015D01*
X024970Y038012D01*
X024971Y038009D01*
X024972Y038008D01*
X024976Y038002D01*
X024981Y037997D01*
X024985Y037993D01*
X024989Y037989D01*
X024993Y037986D01*
X024996Y037983D01*
X024998Y037982D01*
X024999Y037982D01*
X025005Y037978D01*
X025012Y037976D01*
X025018Y037974D01*
X025024Y037973D01*
X025029Y037973D01*
X025033Y037972D01*
X025037D01*
X025045Y037973D01*
X025054Y037974D01*
X025061Y037977D01*
X025067Y037979D01*
X025072Y037982D01*
X025075Y037984D01*
X025078Y037986D01*
X025078Y037986D01*
X025084Y037992D01*
X025088Y037999D01*
X025092Y038007D01*
X025095Y038015D01*
X025097Y038022D01*
X025099Y038028D01*
X025099Y038030D01*
Y038031D01*
X025100Y038032D01*
Y038033D01*
X025145Y038029D01*
X025142Y038013D01*
X025138Y037999D01*
X025132Y037987D01*
X025127Y037977D01*
X025121Y037969D01*
X025118Y037966D01*
X025116Y037963D01*
X025114Y037961D01*
X025113Y037959D01*
X025112Y037959D01*
X025112Y037958D01*
X025106Y037954D01*
X025100Y037950D01*
X025088Y037944D01*
X025075Y037939D01*
X025064Y037937D01*
X025053Y037934D01*
X025049Y037934D01*
X025045D01*
X025042Y037933D01*
X025038D01*
X025022Y037934D01*
X025008Y037937D01*
X024996Y037941D01*
X024985Y037945D01*
X024981Y037947D01*
X024976Y037949D01*
X024973Y037951D01*
X024969Y037953D01*
X024967Y037954D01*
X024966Y037955D01*
X024964Y037956D01*
X024964D01*
X024953Y037966D01*
X024943Y037976D01*
X024935Y037987D01*
X024928Y037998D01*
X024923Y038007D01*
X024921Y038012D01*
X024919Y038015D01*
X024918Y038018D01*
X024917Y038020D01*
X024916Y038022D01*
Y038022D01*
X024913Y038030D01*
X024911Y038040D01*
X024907Y038059D01*
X024904Y038079D01*
X024902Y038098D01*
X024901Y038106D01*
X024901Y038114D01*
Y038121D01*
X024900Y038128D01*
Y038133D01*
Y038136D01*
Y038139D01*
Y038140D01*
Y038153D01*
X024901Y038165D01*
X024902Y038176D01*
X024903Y038186D01*
X024904Y038196D01*
X024905Y038205D01*
X024907Y038213D01*
X024908Y038220D01*
X024910Y038226D01*
X024911Y038232D01*
X024913Y038237D01*
X024914Y038241D01*
X024915Y038244D01*
X024916Y038246D01*
X024917Y038247D01*
Y038247D01*
X024923Y038261D01*
X024931Y038272D01*
X024939Y038282D01*
X024946Y038291D01*
X024953Y038297D01*
X024959Y038301D01*
X024961Y038303D01*
X024963Y038304D01*
X024963Y038305D01*
X024964D01*
X024976Y038312D01*
X024987Y038317D01*
X024999Y038321D01*
X025009Y038323D01*
X025019Y038325D01*
X025023Y038325D01*
X025025D01*
X025028Y038326D01*
X025032D01*
X025042Y038325D01*
D02*
G37*
G36*
X023587D02*
X023595Y038325D01*
X023611Y038321D01*
X023618Y038319D01*
X023625Y038317D01*
X023631Y038314D01*
X023637Y038311D01*
X023641Y038309D01*
X023645Y038306D01*
X023649Y038304D01*
X023652Y038301D01*
X023654Y038300D01*
X023656Y038298D01*
X023657Y038297D01*
X023658Y038297D01*
X023663Y038291D01*
X023668Y038286D01*
X023672Y038280D01*
X023675Y038274D01*
X023680Y038262D01*
X023684Y038251D01*
X023686Y038241D01*
X023686Y038237D01*
X023687Y038234D01*
X023688Y038230D01*
Y038228D01*
Y038227D01*
Y038226D01*
X023687Y038216D01*
X023685Y038207D01*
X023683Y038199D01*
X023680Y038191D01*
X023678Y038186D01*
X023676Y038181D01*
X023674Y038179D01*
X023674Y038178D01*
X023668Y038171D01*
X023661Y038165D01*
X023654Y038160D01*
X023647Y038155D01*
X023640Y038152D01*
X023635Y038150D01*
X023633Y038149D01*
X023631Y038148D01*
X023630Y038148D01*
X023630D01*
X023643Y038144D01*
X023653Y038139D01*
X023663Y038133D01*
X023670Y038127D01*
X023677Y038121D01*
X023681Y038117D01*
X023683Y038114D01*
X023684Y038114D01*
Y038113D01*
X023690Y038103D01*
X023695Y038093D01*
X023699Y038083D01*
X023701Y038073D01*
X023702Y038064D01*
X023703Y038060D01*
Y038057D01*
X023703Y038054D01*
Y038052D01*
Y038051D01*
Y038050D01*
X023703Y038042D01*
X023701Y038033D01*
X023700Y038024D01*
X023698Y038016D01*
X023692Y038002D01*
X023689Y037996D01*
X023686Y037990D01*
X023683Y037984D01*
X023680Y037980D01*
X023677Y037976D01*
X023674Y037973D01*
X023672Y037970D01*
X023670Y037968D01*
X023669Y037967D01*
X023669Y037967D01*
X023662Y037961D01*
X023655Y037956D01*
X023647Y037951D01*
X023639Y037947D01*
X023632Y037944D01*
X023624Y037942D01*
X023609Y037938D01*
X023603Y037936D01*
X023597Y037935D01*
X023591Y037934D01*
X023586Y037934D01*
X023582Y037933D01*
X023577D01*
X023566Y037934D01*
X023557Y037935D01*
X023547Y037937D01*
X023538Y037938D01*
X023531Y037941D01*
X023523Y037944D01*
X023516Y037947D01*
X023509Y037950D01*
X023504Y037953D01*
X023499Y037956D01*
X023495Y037959D01*
X023491Y037962D01*
X023488Y037963D01*
X023487Y037965D01*
X023486Y037966D01*
X023485Y037967D01*
X023479Y037973D01*
X023473Y037980D01*
X023469Y037987D01*
X023465Y037994D01*
X023461Y038001D01*
X023458Y038008D01*
X023454Y038020D01*
X023453Y038027D01*
X023452Y038032D01*
X023451Y038037D01*
X023451Y038041D01*
X023450Y038044D01*
Y038047D01*
Y038049D01*
Y038049D01*
X023451Y038062D01*
X023453Y038074D01*
X023456Y038084D01*
X023459Y038093D01*
X023463Y038100D01*
X023466Y038106D01*
X023468Y038109D01*
X023469Y038110D01*
Y038110D01*
X023477Y038119D01*
X023485Y038127D01*
X023494Y038133D01*
X023502Y038139D01*
X023510Y038143D01*
X023517Y038145D01*
X023519Y038146D01*
X023521Y038147D01*
X023522Y038148D01*
X023522D01*
X023512Y038152D01*
X023504Y038157D01*
X023497Y038162D01*
X023491Y038167D01*
X023486Y038171D01*
X023483Y038175D01*
X023481Y038177D01*
X023480Y038178D01*
X023475Y038186D01*
X023472Y038194D01*
X023469Y038201D01*
X023467Y038209D01*
X023466Y038215D01*
X023466Y038220D01*
Y038224D01*
Y038224D01*
Y038225D01*
X023466Y038232D01*
X023467Y038240D01*
X023471Y038254D01*
X023476Y038266D01*
X023481Y038276D01*
X023487Y038285D01*
X023489Y038288D01*
X023492Y038291D01*
X023494Y038294D01*
X023496Y038295D01*
X023496Y038296D01*
X023497Y038296D01*
X023503Y038301D01*
X023509Y038306D01*
X023516Y038310D01*
X023522Y038314D01*
X023536Y038319D01*
X023549Y038322D01*
X023554Y038324D01*
X023560Y038324D01*
X023565Y038325D01*
X023569Y038325D01*
X023573Y038326D01*
X023578D01*
X023587Y038325D01*
D02*
G37*
%LPC*%
G36*
X026319Y043871D02*
X026198D01*
X026183Y043871D01*
X026170Y043869D01*
X026159Y043866D01*
X026151Y043862D01*
X026144Y043859D01*
X026139Y043856D01*
X026136Y043854D01*
X026135Y043854D01*
X026129Y043846D01*
X026124Y043839D01*
X026120Y043831D01*
X026117Y043825D01*
X026116Y043818D01*
X026116Y043813D01*
X026115Y043810D01*
Y043809D01*
Y043809D01*
X026116Y043802D01*
X026117Y043795D01*
X026119Y043790D01*
X026120Y043785D01*
X026122Y043780D01*
X026124Y043777D01*
X026125Y043775D01*
X026126Y043774D01*
X026130Y043769D01*
X026135Y043764D01*
X026140Y043760D01*
X026145Y043756D01*
X026149Y043754D01*
X026152Y043753D01*
X026155Y043751D01*
X026156Y043751D01*
X026164Y043749D01*
X026172Y043747D01*
X026181Y043746D01*
X026190Y043745D01*
X026198Y043745D01*
X026205Y043744D01*
X026319D01*
Y043871D01*
D02*
G37*
G36*
X023079Y037171D02*
X022958D01*
X022943Y037171D01*
X022930Y037169D01*
X022919Y037166D01*
X022911Y037162D01*
X022904Y037159D01*
X022899Y037156D01*
X022896Y037154D01*
X022895Y037154D01*
X022889Y037146D01*
X022884Y037139D01*
X022880Y037131D01*
X022877Y037125D01*
X022876Y037118D01*
X022876Y037113D01*
X022875Y037110D01*
Y037109D01*
Y037109D01*
X022876Y037102D01*
X022877Y037095D01*
X022879Y037090D01*
X022880Y037085D01*
X022882Y037080D01*
X022884Y037077D01*
X022885Y037075D01*
X022886Y037074D01*
X022890Y037069D01*
X022895Y037064D01*
X022900Y037060D01*
X022905Y037056D01*
X022909Y037054D01*
X022912Y037053D01*
X022915Y037051D01*
X022916Y037051D01*
X022924Y037049D01*
X022932Y037047D01*
X022941Y037046D01*
X022950Y037045D01*
X022958Y037045D01*
X022965Y037044D01*
X023079D01*
Y037171D01*
D02*
G37*
G36*
X023457Y043049D02*
X023368D01*
X023361Y043048D01*
X023354D01*
X023347Y043047D01*
X023336Y043046D01*
X023327Y043045D01*
X023320Y043043D01*
X023315Y043041D01*
X023312Y043041D01*
X023311Y043040D01*
X023301Y043035D01*
X023292Y043029D01*
X023283Y043022D01*
X023276Y043015D01*
X023271Y043008D01*
X023266Y043002D01*
X023265Y043000D01*
X023264Y042999D01*
X023263Y042997D01*
Y042997D01*
X023260Y042991D01*
X023256Y042984D01*
X023251Y042969D01*
X023248Y042954D01*
X023245Y042939D01*
X023245Y042932D01*
X023244Y042925D01*
X023243Y042920D01*
Y042915D01*
X023243Y042910D01*
Y042908D01*
Y042905D01*
Y042905D01*
X023243Y042889D01*
X023245Y042875D01*
X023246Y042862D01*
X023248Y042851D01*
X023249Y042847D01*
X023250Y042843D01*
X023251Y042839D01*
X023252Y042836D01*
X023252Y042834D01*
X023253Y042832D01*
X023253Y042831D01*
Y042830D01*
X023257Y042820D01*
X023262Y042810D01*
X023267Y042802D01*
X023271Y042795D01*
X023275Y042789D01*
X023278Y042785D01*
X023281Y042783D01*
X023281Y042782D01*
X023287Y042778D01*
X023292Y042774D01*
X023298Y042771D01*
X023303Y042767D01*
X023308Y042765D01*
X023312Y042763D01*
X023315Y042763D01*
X023316Y042762D01*
X023324Y042760D01*
X023334Y042758D01*
X023344Y042757D01*
X023354Y042757D01*
X023362Y042756D01*
X023366Y042756D01*
X023457D01*
Y043049D01*
D02*
G37*
G36*
X025694D02*
X025605D01*
X025598Y043048D01*
X025591D01*
X025584Y043047D01*
X025573Y043046D01*
X025564Y043045D01*
X025557Y043043D01*
X025552Y043041D01*
X025549Y043041D01*
X025548Y043040D01*
X025538Y043035D01*
X025528Y043029D01*
X025520Y043022D01*
X025513Y043015D01*
X025507Y043008D01*
X025503Y043002D01*
X025502Y043000D01*
X025501Y042999D01*
X025500Y042997D01*
Y042997D01*
X025496Y042991D01*
X025493Y042984D01*
X025488Y042969D01*
X025485Y042954D01*
X025482Y042939D01*
X025481Y042932D01*
X025481Y042925D01*
X025480Y042920D01*
Y042915D01*
X025480Y042910D01*
Y042908D01*
Y042905D01*
Y042905D01*
X025480Y042889D01*
X025481Y042875D01*
X025483Y042862D01*
X025485Y042851D01*
X025486Y042847D01*
X025487Y042843D01*
X025488Y042839D01*
X025488Y042836D01*
X025489Y042834D01*
X025490Y042832D01*
X025490Y042831D01*
Y042830D01*
X025494Y042820D01*
X025498Y042810D01*
X025503Y042802D01*
X025508Y042795D01*
X025512Y042789D01*
X025515Y042785D01*
X025517Y042783D01*
X025518Y042782D01*
X025523Y042778D01*
X025529Y042774D01*
X025534Y042771D01*
X025540Y042767D01*
X025545Y042765D01*
X025549Y042763D01*
X025552Y042763D01*
X025553Y042762D01*
X025561Y042760D01*
X025571Y042758D01*
X025581Y042757D01*
X025591Y042757D01*
X025599Y042756D01*
X025603Y042756D01*
X025694D01*
Y043049D01*
D02*
G37*
G36*
X025029Y038287D02*
X025020D01*
X025015Y038286D01*
X025005Y038283D01*
X024996Y038279D01*
X024988Y038275D01*
X024982Y038271D01*
X024978Y038267D01*
X024975Y038264D01*
X024974Y038264D01*
Y038263D01*
X024967Y038254D01*
X024961Y038243D01*
X024957Y038232D01*
X024955Y038221D01*
X024953Y038213D01*
X024953Y038209D01*
Y038205D01*
X024952Y038202D01*
Y038200D01*
Y038199D01*
Y038198D01*
X024953Y038184D01*
X024956Y038171D01*
X024959Y038160D01*
X024963Y038151D01*
X024967Y038144D01*
X024971Y038139D01*
X024973Y038136D01*
X024974Y038135D01*
X024982Y038127D01*
X024991Y038121D01*
X025000Y038118D01*
X025009Y038115D01*
X025016Y038113D01*
X025022Y038113D01*
X025024Y038112D01*
X025028D01*
X025039Y038113D01*
X025050Y038115D01*
X025059Y038119D01*
X025068Y038124D01*
X025074Y038128D01*
X025079Y038131D01*
X025082Y038134D01*
X025083Y038135D01*
X025090Y038144D01*
X025095Y038154D01*
X025099Y038164D01*
X025102Y038173D01*
X025103Y038181D01*
X025104Y038185D01*
Y038188D01*
X025104Y038191D01*
Y038193D01*
Y038194D01*
Y038194D01*
X025103Y038209D01*
X025101Y038222D01*
X025097Y038234D01*
X025093Y038243D01*
X025089Y038251D01*
X025085Y038256D01*
X025084Y038258D01*
X025083Y038260D01*
X025082Y038260D01*
Y038261D01*
X025077Y038265D01*
X025073Y038270D01*
X025063Y038276D01*
X025054Y038281D01*
X025045Y038284D01*
X025038Y038286D01*
X025032Y038286D01*
X025029Y038287D01*
D02*
G37*
G36*
X023319Y035931D02*
X023198D01*
X023183Y035931D01*
X023170Y035929D01*
X023159Y035926D01*
X023151Y035922D01*
X023144Y035919D01*
X023139Y035916D01*
X023136Y035914D01*
X023135Y035914D01*
X023129Y035906D01*
X023124Y035899D01*
X023120Y035891D01*
X023117Y035885D01*
X023116Y035878D01*
X023116Y035873D01*
X023115Y035870D01*
Y035869D01*
Y035869D01*
X023116Y035862D01*
X023117Y035855D01*
X023119Y035850D01*
X023120Y035845D01*
X023122Y035840D01*
X023124Y035837D01*
X023125Y035835D01*
X023126Y035834D01*
X023130Y035829D01*
X023135Y035824D01*
X023140Y035820D01*
X023145Y035816D01*
X023149Y035814D01*
X023152Y035813D01*
X023155Y035811D01*
X023156Y035811D01*
X023164Y035809D01*
X023172Y035807D01*
X023181Y035806D01*
X023190Y035805D01*
X023198Y035805D01*
X023205Y035804D01*
X023319D01*
Y035931D01*
D02*
G37*
G36*
X022582Y035937D02*
X022579D01*
X022573Y035936D01*
X022567Y035936D01*
X022561Y035934D01*
X022556Y035932D01*
X022547Y035927D01*
X022539Y035921D01*
X022533Y035915D01*
X022528Y035910D01*
X022526Y035908D01*
X022525Y035906D01*
X022524Y035906D01*
Y035905D01*
X022520Y035899D01*
X022516Y035891D01*
X022513Y035882D01*
X022511Y035872D01*
X022509Y035863D01*
X022507Y035852D01*
X022504Y035831D01*
X022503Y035820D01*
X022503Y035811D01*
X022502Y035802D01*
Y035795D01*
X022501Y035788D01*
Y035783D01*
Y035780D01*
Y035780D01*
Y035779D01*
Y035762D01*
X022503Y035747D01*
X022504Y035733D01*
X022505Y035719D01*
X022506Y035708D01*
X022509Y035698D01*
X022511Y035689D01*
X022513Y035680D01*
X022515Y035674D01*
X022517Y035668D01*
X022519Y035663D01*
X022521Y035659D01*
X022522Y035657D01*
X022523Y035655D01*
X022524Y035654D01*
Y035653D01*
X022529Y035648D01*
X022533Y035643D01*
X022538Y035639D01*
X022542Y035636D01*
X022551Y035630D01*
X022560Y035626D01*
X022567Y035624D01*
X022573Y035623D01*
X022575Y035622D01*
X022579D01*
X022585Y035623D01*
X022590Y035623D01*
X022601Y035627D01*
X022610Y035632D01*
X022619Y035638D01*
X022625Y035643D01*
X022630Y035648D01*
X022632Y035652D01*
X022634Y035653D01*
Y035653D01*
X022637Y035660D01*
X022641Y035668D01*
X022644Y035677D01*
X022646Y035686D01*
X022648Y035696D01*
X022650Y035707D01*
X022653Y035728D01*
X022654Y035738D01*
X022655Y035748D01*
X022655Y035756D01*
Y035764D01*
X022656Y035770D01*
Y035775D01*
Y035778D01*
Y035779D01*
X022655Y035796D01*
X022655Y035812D01*
X022653Y035826D01*
X022652Y035840D01*
X022650Y035851D01*
X022648Y035862D01*
X022646Y035871D01*
X022644Y035880D01*
X022641Y035887D01*
X022640Y035893D01*
X022637Y035898D01*
X022636Y035902D01*
X022634Y035905D01*
X022633Y035907D01*
X022632Y035909D01*
Y035909D01*
X022628Y035914D01*
X022624Y035919D01*
X022620Y035922D01*
X022615Y035925D01*
X022606Y035930D01*
X022598Y035934D01*
X022591Y035935D01*
X022585Y035936D01*
X022582Y035937D01*
D02*
G37*
G36*
X023582Y038128D02*
X023578D01*
X023566Y038126D01*
X023555Y038124D01*
X023545Y038120D01*
X023537Y038116D01*
X023530Y038112D01*
X023525Y038108D01*
X023522Y038106D01*
X023521Y038105D01*
X023513Y038096D01*
X023508Y038087D01*
X023504Y038077D01*
X023501Y038069D01*
X023499Y038060D01*
X023499Y038054D01*
X023498Y038052D01*
Y038050D01*
Y038049D01*
Y038049D01*
X023499Y038037D01*
X023502Y038026D01*
X023506Y038017D01*
X023509Y038009D01*
X023513Y038003D01*
X023517Y037998D01*
X023519Y037995D01*
X023521Y037994D01*
X023529Y037987D01*
X023538Y037981D01*
X023548Y037978D01*
X023557Y037975D01*
X023564Y037973D01*
X023571Y037973D01*
X023573Y037972D01*
X023577D01*
X023584Y037973D01*
X023592Y037974D01*
X023599Y037976D01*
X023605Y037977D01*
X023610Y037979D01*
X023614Y037981D01*
X023617Y037982D01*
X023618Y037982D01*
X023624Y037987D01*
X023630Y037991D01*
X023635Y037996D01*
X023639Y038001D01*
X023642Y038005D01*
X023644Y038008D01*
X023645Y038011D01*
X023646Y038012D01*
X023649Y038019D01*
X023651Y038025D01*
X023653Y038032D01*
X023654Y038038D01*
X023654Y038043D01*
X023655Y038047D01*
Y038049D01*
Y038050D01*
X023654Y038062D01*
X023652Y038073D01*
X023648Y038082D01*
X023644Y038090D01*
X023640Y038097D01*
X023637Y038102D01*
X023634Y038104D01*
X023633Y038105D01*
X023625Y038113D01*
X023615Y038118D01*
X023607Y038122D01*
X023598Y038125D01*
X023590Y038126D01*
X023584Y038127D01*
X023582Y038128D01*
D02*
G37*
G36*
X025169Y037471D02*
X025048D01*
X025033Y037471D01*
X025020Y037469D01*
X025009Y037466D01*
X025001Y037462D01*
X024994Y037459D01*
X024989Y037456D01*
X024986Y037454D01*
X024985Y037454D01*
X024979Y037446D01*
X024974Y037439D01*
X024970Y037431D01*
X024967Y037425D01*
X024966Y037418D01*
X024966Y037413D01*
X024965Y037410D01*
Y037409D01*
Y037409D01*
X024966Y037402D01*
X024967Y037395D01*
X024969Y037390D01*
X024970Y037385D01*
X024972Y037380D01*
X024974Y037377D01*
X024975Y037375D01*
X024976Y037374D01*
X024980Y037369D01*
X024985Y037364D01*
X024990Y037360D01*
X024995Y037356D01*
X024999Y037354D01*
X025002Y037353D01*
X025005Y037351D01*
X025006Y037351D01*
X025014Y037349D01*
X025022Y037347D01*
X025031Y037346D01*
X025040Y037345D01*
X025048Y037345D01*
X025055Y037344D01*
X025169D01*
Y037471D01*
D02*
G37*
G36*
X025463Y038281D02*
X025348D01*
X025333Y038281D01*
X025320Y038279D01*
X025309Y038276D01*
X025301Y038272D01*
X025294Y038269D01*
X025289Y038266D01*
X025286Y038264D01*
X025285Y038264D01*
X025279Y038256D01*
X025274Y038249D01*
X025270Y038241D01*
X025267Y038235D01*
X025266Y038228D01*
X025266Y038223D01*
X025265Y038220D01*
Y038219D01*
Y038219D01*
X025266Y038212D01*
X025267Y038205D01*
X025269Y038200D01*
X025270Y038195D01*
X025272Y038190D01*
X025274Y038187D01*
X025275Y038185D01*
X025276Y038184D01*
X025280Y038179D01*
X025285Y038174D01*
X025290Y038170D01*
X025295Y038166D01*
X025299Y038164D01*
X025302Y038163D01*
X025305Y038161D01*
X025306Y038161D01*
X025314Y038159D01*
X025322Y038157D01*
X025331Y038156D01*
X025340Y038155D01*
X025348Y038155D01*
X025355Y038154D01*
X025469D01*
Y038256D01*
X025466Y038264D01*
X025465Y038270D01*
X025464Y038275D01*
X025463Y038280D01*
X025463Y038281D01*
D02*
G37*
G36*
X023579Y035211D02*
X023458D01*
X023443Y035211D01*
X023430Y035209D01*
X023419Y035206D01*
X023411Y035202D01*
X023404Y035199D01*
X023399Y035196D01*
X023396Y035194D01*
X023395Y035194D01*
X023389Y035186D01*
X023384Y035179D01*
X023380Y035171D01*
X023377Y035165D01*
X023376Y035158D01*
X023376Y035153D01*
X023375Y035150D01*
Y035149D01*
Y035149D01*
X023376Y035142D01*
X023377Y035135D01*
X023379Y035130D01*
X023380Y035125D01*
X023382Y035120D01*
X023384Y035117D01*
X023385Y035115D01*
X023386Y035114D01*
X023390Y035109D01*
X023395Y035104D01*
X023400Y035100D01*
X023405Y035096D01*
X023409Y035094D01*
X023412Y035093D01*
X023415Y035091D01*
X023416Y035091D01*
X023424Y035089D01*
X023432Y035087D01*
X023441Y035086D01*
X023450Y035085D01*
X023458Y035085D01*
X023465Y035084D01*
X023579D01*
Y035211D01*
D02*
G37*
G36*
X022737Y044488D02*
X022734D01*
X022722Y044486D01*
X022712Y044484D01*
X022703Y044480D01*
X022695Y044476D01*
X022689Y044471D01*
X022684Y044468D01*
X022682Y044465D01*
X022681Y044464D01*
X022673Y044455D01*
X022668Y044445D01*
X022664Y044434D01*
X022662Y044424D01*
X022660Y044415D01*
X022659Y044412D01*
Y044408D01*
X022659Y044405D01*
Y044403D01*
Y044402D01*
Y044402D01*
X022660Y044387D01*
X022662Y044374D01*
X022666Y044363D01*
X022669Y044353D01*
X022674Y044346D01*
X022677Y044341D01*
X022679Y044337D01*
X022681Y044337D01*
Y044336D01*
X022684Y044332D01*
X022689Y044328D01*
X022698Y044322D01*
X022707Y044318D01*
X022714Y044315D01*
X022722Y044313D01*
X022727Y044313D01*
X022729Y044312D01*
X022732D01*
X022740Y044313D01*
X022747Y044314D01*
X022754Y044316D01*
X022759Y044318D01*
X022764Y044320D01*
X022768Y044322D01*
X022770Y044323D01*
X022772Y044324D01*
X022778Y044329D01*
X022784Y044334D01*
X022789Y044340D01*
X022793Y044345D01*
X022796Y044350D01*
X022798Y044354D01*
X022800Y044357D01*
X022800Y044358D01*
X022804Y044366D01*
X022806Y044374D01*
X022808Y044382D01*
X022809Y044389D01*
X022810Y044395D01*
X022810Y044400D01*
Y044403D01*
Y044404D01*
X022809Y044418D01*
X022807Y044429D01*
X022803Y044440D01*
X022799Y044448D01*
X022795Y044455D01*
X022792Y044460D01*
X022789Y044463D01*
X022788Y044464D01*
X022779Y044472D01*
X022770Y044478D01*
X022761Y044482D01*
X022753Y044485D01*
X022745Y044486D01*
X022739Y044487D01*
X022737Y044488D01*
D02*
G37*
G36*
X016736Y042799D02*
X016609D01*
Y042678D01*
X016609Y042663D01*
X016611Y042650D01*
X016614Y042639D01*
X016618Y042631D01*
X016621Y042624D01*
X016624Y042619D01*
X016626Y042616D01*
X016626Y042615D01*
X016634Y042609D01*
X016641Y042604D01*
X016649Y042600D01*
X016655Y042597D01*
X016662Y042596D01*
X016667Y042596D01*
X016670Y042595D01*
X016671D01*
X016678Y042596D01*
X016685Y042597D01*
X016690Y042599D01*
X016695Y042600D01*
X016700Y042602D01*
X016703Y042604D01*
X016705Y042605D01*
X016706Y042606D01*
X016711Y042610D01*
X016716Y042615D01*
X016720Y042620D01*
X016724Y042625D01*
X016726Y042629D01*
X016727Y042632D01*
X016729Y042635D01*
X016729Y042636D01*
X016731Y042644D01*
X016733Y042652D01*
X016734Y042661D01*
X016735Y042670D01*
X016735Y042678D01*
X016736Y042685D01*
Y042687D01*
Y042688D01*
Y042690D01*
Y042690D01*
Y042799D01*
D02*
G37*
G36*
X023581Y038287D02*
X023577D01*
X023567Y038286D01*
X023558Y038284D01*
X023551Y038281D01*
X023544Y038278D01*
X023539Y038275D01*
X023536Y038272D01*
X023533Y038270D01*
X023532Y038269D01*
X023526Y038262D01*
X023522Y038255D01*
X023518Y038247D01*
X023516Y038241D01*
X023515Y038235D01*
X023514Y038230D01*
Y038226D01*
Y038226D01*
Y038225D01*
X023514Y038216D01*
X023517Y038208D01*
X023519Y038201D01*
X023523Y038195D01*
X023526Y038190D01*
X023529Y038186D01*
X023531Y038184D01*
X023532Y038183D01*
X023538Y038178D01*
X023546Y038173D01*
X023553Y038170D01*
X023561Y038168D01*
X023567Y038167D01*
X023572Y038166D01*
X023575Y038166D01*
X023577D01*
X023587Y038166D01*
X023595Y038169D01*
X023603Y038171D01*
X023610Y038175D01*
X023615Y038178D01*
X023619Y038180D01*
X023622Y038183D01*
X023622Y038183D01*
X023628Y038190D01*
X023632Y038198D01*
X023635Y038205D01*
X023637Y038212D01*
X023638Y038218D01*
X023639Y038223D01*
X023639Y038226D01*
Y038227D01*
Y038227D01*
X023639Y038236D01*
X023637Y038244D01*
X023634Y038251D01*
X023630Y038257D01*
X023628Y038262D01*
X023625Y038266D01*
X023623Y038269D01*
X023622Y038269D01*
X023615Y038275D01*
X023608Y038280D01*
X023600Y038282D01*
X023593Y038285D01*
X023586Y038286D01*
X023581Y038287D01*
D02*
G37*
G36*
X024019Y038281D02*
X023898D01*
X023883Y038281D01*
X023870Y038279D01*
X023859Y038276D01*
X023851Y038272D01*
X023844Y038269D01*
X023839Y038266D01*
X023836Y038264D01*
X023835Y038264D01*
X023829Y038256D01*
X023824Y038249D01*
X023820Y038241D01*
X023817Y038235D01*
X023816Y038228D01*
X023816Y038223D01*
X023815Y038220D01*
Y038219D01*
Y038219D01*
X023816Y038212D01*
X023817Y038205D01*
X023819Y038200D01*
X023820Y038195D01*
X023822Y038190D01*
X023824Y038187D01*
X023825Y038185D01*
X023826Y038184D01*
X023830Y038179D01*
X023835Y038174D01*
X023840Y038170D01*
X023845Y038166D01*
X023849Y038164D01*
X023852Y038163D01*
X023855Y038161D01*
X023856Y038161D01*
X023864Y038159D01*
X023872Y038157D01*
X023881Y038156D01*
X023890Y038155D01*
X023898Y038155D01*
X023905Y038154D01*
X024019D01*
Y038281D01*
D02*
G37*
G36*
X025226Y043054D02*
X025223Y043041D01*
X025218Y043028D01*
X025214Y043015D01*
X025209Y043002D01*
X025207Y042996D01*
X025205Y042991D01*
X025204Y042986D01*
X025202Y042982D01*
X025201Y042979D01*
X025200Y042976D01*
X025199Y042974D01*
Y042974D01*
X025159Y042868D01*
X025289D01*
X025248Y042980D01*
X025243Y042994D01*
X025239Y043007D01*
X025235Y043020D01*
X025232Y043031D01*
X025230Y043040D01*
X025229Y043044D01*
X025228Y043048D01*
X025227Y043050D01*
Y043052D01*
X025226Y043054D01*
Y043054D01*
D02*
G37*
G36*
X021969Y035831D02*
X021848D01*
X021833Y035831D01*
X021820Y035829D01*
X021809Y035826D01*
X021801Y035822D01*
X021794Y035819D01*
X021789Y035816D01*
X021786Y035814D01*
X021785Y035814D01*
X021779Y035806D01*
X021774Y035799D01*
X021770Y035791D01*
X021767Y035785D01*
X021766Y035778D01*
X021766Y035773D01*
X021765Y035770D01*
Y035769D01*
Y035769D01*
X021766Y035762D01*
X021767Y035755D01*
X021769Y035750D01*
X021770Y035745D01*
X021772Y035740D01*
X021774Y035737D01*
X021775Y035735D01*
X021776Y035734D01*
X021780Y035729D01*
X021785Y035724D01*
X021790Y035720D01*
X021795Y035716D01*
X021799Y035714D01*
X021802Y035713D01*
X021805Y035711D01*
X021806Y035711D01*
X021814Y035709D01*
X021822Y035707D01*
X021831Y035706D01*
X021840Y035705D01*
X021848Y035705D01*
X021855Y035704D01*
X021969D01*
Y035831D01*
D02*
G37*
G36*
X024616Y036649D02*
X024528D01*
X024520Y036648D01*
X024513D01*
X024507Y036647D01*
X024495Y036646D01*
X024487Y036645D01*
X024479Y036643D01*
X024474Y036641D01*
X024472Y036641D01*
X024471Y036640D01*
X024461Y036635D01*
X024451Y036629D01*
X024443Y036622D01*
X024436Y036615D01*
X024430Y036608D01*
X024426Y036602D01*
X024424Y036600D01*
X024423Y036599D01*
X024422Y036597D01*
Y036597D01*
X024419Y036591D01*
X024416Y036584D01*
X024411Y036569D01*
X024407Y036554D01*
X024404Y036539D01*
X024404Y036532D01*
X024403Y036525D01*
X024403Y036520D01*
Y036515D01*
X024402Y036510D01*
Y036508D01*
Y036505D01*
Y036505D01*
X024403Y036489D01*
X024404Y036475D01*
X024406Y036462D01*
X024407Y036451D01*
X024408Y036447D01*
X024409Y036443D01*
X024411Y036439D01*
X024411Y036436D01*
X024412Y036434D01*
X024412Y036432D01*
X024413Y036431D01*
Y036430D01*
X024417Y036420D01*
X024421Y036410D01*
X024426Y036402D01*
X024431Y036395D01*
X024434Y036389D01*
X024438Y036385D01*
X024440Y036383D01*
X024441Y036382D01*
X024446Y036378D01*
X024452Y036374D01*
X024457Y036370D01*
X024463Y036367D01*
X024468Y036365D01*
X024472Y036363D01*
X024474Y036363D01*
X024476Y036362D01*
X024484Y036360D01*
X024494Y036358D01*
X024504Y036357D01*
X024513Y036357D01*
X024522Y036356D01*
X024525Y036356D01*
X024616D01*
Y036649D01*
D02*
G37*
G36*
X026329Y038521D02*
X026208D01*
X026193Y038521D01*
X026180Y038519D01*
X026169Y038516D01*
X026161Y038512D01*
X026154Y038509D01*
X026149Y038506D01*
X026146Y038504D01*
X026145Y038504D01*
X026139Y038496D01*
X026134Y038489D01*
X026130Y038481D01*
X026127Y038475D01*
X026126Y038468D01*
X026126Y038463D01*
X026125Y038460D01*
Y038459D01*
Y038459D01*
X026126Y038452D01*
X026127Y038445D01*
X026129Y038440D01*
X026130Y038435D01*
X026132Y038430D01*
X026134Y038427D01*
X026135Y038425D01*
X026136Y038424D01*
X026140Y038419D01*
X026145Y038414D01*
X026150Y038410D01*
X026155Y038406D01*
X026159Y038404D01*
X026162Y038403D01*
X026165Y038401D01*
X026166Y038401D01*
X026174Y038399D01*
X026182Y038397D01*
X026191Y038396D01*
X026200Y038395D01*
X026208Y038395D01*
X026215Y038394D01*
X026329D01*
Y038521D01*
D02*
G37*
G36*
X023179Y044621D02*
X023058D01*
X023043Y044621D01*
X023030Y044619D01*
X023019Y044616D01*
X023011Y044612D01*
X023004Y044609D01*
X022999Y044606D01*
X022996Y044604D01*
X022995Y044604D01*
X022989Y044596D01*
X022984Y044589D01*
X022980Y044581D01*
X022977Y044575D01*
X022976Y044568D01*
X022976Y044563D01*
X022975Y044560D01*
Y044559D01*
Y044559D01*
X022976Y044552D01*
X022977Y044545D01*
X022979Y044540D01*
X022980Y044535D01*
X022982Y044530D01*
X022984Y044527D01*
X022985Y044525D01*
X022986Y044524D01*
X022990Y044519D01*
X022995Y044514D01*
X023000Y044510D01*
X023005Y044506D01*
X023009Y044504D01*
X023012Y044503D01*
X023015Y044501D01*
X023016Y044501D01*
X023024Y044499D01*
X023032Y044497D01*
X023041Y044496D01*
X023050Y044495D01*
X023058Y044495D01*
X023065Y044494D01*
X023179D01*
Y044621D01*
D02*
G37*
%LPD*%
D36*
X026614Y035954D02*
G03*
X026614Y035954I-000049J000000D01*
G01*
X025514Y042354D02*
G03*
X025514Y042354I-000049J000000D01*
G01*
D37*
X025285Y031881D02*
X025915D01*
X025285Y035819D02*
X025915D01*
X025285Y031881D02*
Y035819D01*
X025915Y031881D02*
Y035819D01*
X024185Y038282D02*
X024815D01*
X024185Y042218D02*
X024815D01*
X024185Y038282D02*
Y042218D01*
X024815Y038282D02*
Y042218D01*
M02*
