%FSAX24Y24*%
%MOIN*%
G70*
G01*
G75*
%ADD10R,0.0512X0.0591*%
%ADD11R,0.0472X0.0551*%
%ADD12R,0.0984X0.0787*%
%ADD13R,0.1063X0.0197*%
%ADD14O,0.0709X0.0236*%
%ADD15R,0.0551X0.0472*%
%ADD16R,0.1024X0.0945*%
%ADD17R,0.0512X0.0709*%
%ADD18O,0.0709X0.0114*%
%ADD19O,0.0114X0.0709*%
%ADD20C,0.0200*%
%ADD21C,0.0100*%
%ADD22C,0.0591*%
%ADD23R,0.0591X0.0591*%
%ADD24C,0.0551*%
%ADD25R,0.0591X0.0591*%
%ADD26C,0.0350*%
%ADD27O,0.0866X0.0236*%
%ADD28R,0.0591X0.0512*%
%ADD29C,0.0050*%
%ADD30C,0.0067*%
D29*
X022523Y034400D02*
X022877D01*
X022700Y034223D02*
Y034577D01*
X021523Y034400D02*
X021877D01*
X021700Y034223D02*
Y034577D01*
X022523Y035400D02*
X022877D01*
X022700Y035223D02*
Y035577D01*
X021523Y035400D02*
X021877D01*
X021700Y035223D02*
Y035577D01*
X022523Y036400D02*
X022877D01*
X022700Y036223D02*
Y036577D01*
X021523Y036400D02*
X021877D01*
X021700Y036223D02*
Y036577D01*
X022523Y037400D02*
X022877D01*
X022700Y037223D02*
Y037577D01*
X021523Y037400D02*
X021877D01*
X021700Y037223D02*
Y037577D01*
X052943Y051261D02*
X053257D01*
X053100Y051103D02*
Y051418D01*
X052943Y049339D02*
X053257D01*
X053100Y049182D02*
Y049497D01*
X023873Y052050D02*
X024227D01*
X024050Y051873D02*
Y052227D01*
X022873Y052050D02*
X023227D01*
X023050Y051873D02*
Y052227D01*
X023873Y053050D02*
X024227D01*
X024050Y052873D02*
Y053227D01*
X022873Y053050D02*
X023227D01*
X023050Y052873D02*
Y053227D01*
X023873Y054050D02*
X024227D01*
X024050Y053873D02*
Y054227D01*
X022873Y054050D02*
X023227D01*
X023050Y053873D02*
Y054227D01*
X056823Y054200D02*
X057177D01*
X057000Y054023D02*
Y054377D01*
X056823Y053200D02*
X057177D01*
X057000Y053023D02*
Y053377D01*
X031823Y058600D02*
X032177D01*
X032000Y058423D02*
Y058777D01*
X031823Y059600D02*
X032177D01*
X032000Y059423D02*
Y059777D01*
X039823Y039000D02*
X040177D01*
X040000Y038823D02*
Y039177D01*
X040823Y039000D02*
X041177D01*
X041000Y038823D02*
Y039177D01*
X039823Y038000D02*
X040177D01*
X040000Y037823D02*
Y038177D01*
X040823Y038000D02*
X041177D01*
X041000Y037823D02*
Y038177D01*
X039823Y037000D02*
X040177D01*
X040000Y036823D02*
Y037177D01*
X040823Y037000D02*
X041177D01*
X041000Y036823D02*
Y037177D01*
X039823Y036000D02*
X040177D01*
X040000Y035823D02*
Y036177D01*
X040823Y036000D02*
X041177D01*
X041000Y035823D02*
Y036177D01*
X039823Y035000D02*
X040177D01*
X040000Y034823D02*
Y035177D01*
X040823Y035000D02*
X041177D01*
X041000Y034823D02*
Y035177D01*
X038523Y031750D02*
X038877D01*
X038700Y031573D02*
Y031927D01*
X038523Y032750D02*
X038877D01*
X038700Y032573D02*
Y032927D01*
X039523Y031750D02*
X039877D01*
X039700Y031573D02*
Y031927D01*
X039523Y032750D02*
X039877D01*
X039700Y032573D02*
Y032927D01*
X040523Y031750D02*
X040877D01*
X040700Y031573D02*
Y031927D01*
X040523Y032750D02*
X040877D01*
X040700Y032573D02*
Y032927D01*
X041523Y031750D02*
X041877D01*
X041700Y031573D02*
Y031927D01*
X041523Y032750D02*
X041877D01*
X041700Y032573D02*
Y032927D01*
X042523Y031750D02*
X042877D01*
X042700Y031573D02*
Y031927D01*
X042523Y032750D02*
X042877D01*
X042700Y032573D02*
Y032927D01*
X049923Y031800D02*
X050277D01*
X050100Y031623D02*
Y031977D01*
X049923Y032800D02*
X050277D01*
X050100Y032623D02*
Y032977D01*
X058273Y031800D02*
X058627D01*
X058450Y031623D02*
Y031977D01*
X058273Y032800D02*
X058627D01*
X058450Y032623D02*
Y032977D01*
X022823Y068000D02*
X023177D01*
X023000Y067823D02*
Y068177D01*
X022823Y067000D02*
X023177D01*
X023000Y066823D02*
Y067177D01*
X031223Y054500D02*
X031577D01*
X031400Y054323D02*
Y054677D01*
X032223Y054500D02*
X032577D01*
X032400Y054323D02*
Y054677D01*
X031223Y053500D02*
X031577D01*
X031400Y053323D02*
Y053677D01*
X032223Y053500D02*
X032577D01*
X032400Y053323D02*
Y053677D01*
X031223Y052500D02*
X031577D01*
X031400Y052323D02*
Y052677D01*
X032223Y052500D02*
X032577D01*
X032400Y052323D02*
Y052677D01*
X031223Y051500D02*
X031577D01*
X031400Y051323D02*
Y051677D01*
X032223Y051500D02*
X032577D01*
X032400Y051323D02*
Y051677D01*
X031223Y050500D02*
X031577D01*
X031400Y050323D02*
Y050677D01*
X032223Y050500D02*
X032577D01*
X032400Y050323D02*
Y050677D01*
X031223Y049500D02*
X031577D01*
X031400Y049323D02*
Y049677D01*
X032223Y049500D02*
X032577D01*
X032400Y049323D02*
Y049677D01*
X031223Y048500D02*
X031577D01*
X031400Y048323D02*
Y048677D01*
X032223Y048500D02*
X032577D01*
X032400Y048323D02*
Y048677D01*
X031223Y047500D02*
X031577D01*
X031400Y047323D02*
Y047677D01*
X032223Y047500D02*
X032577D01*
X032400Y047323D02*
Y047677D01*
X036823Y042500D02*
X037177D01*
X037000Y042323D02*
Y042677D01*
X036823Y043500D02*
X037177D01*
X037000Y043323D02*
Y043677D01*
X037823Y042500D02*
X038177D01*
X038000Y042323D02*
Y042677D01*
X037823Y043500D02*
X038177D01*
X038000Y043323D02*
Y043677D01*
X038823Y042500D02*
X039177D01*
X039000Y042323D02*
Y042677D01*
X038823Y043500D02*
X039177D01*
X039000Y043323D02*
Y043677D01*
X039823Y042500D02*
X040177D01*
X040000Y042323D02*
Y042677D01*
X039823Y043500D02*
X040177D01*
X040000Y043323D02*
Y043677D01*
X040823Y042500D02*
X041177D01*
X041000Y042323D02*
Y042677D01*
X040823Y043500D02*
X041177D01*
X041000Y043323D02*
Y043677D01*
X041823Y042500D02*
X042177D01*
X042000Y042323D02*
Y042677D01*
X041823Y043500D02*
X042177D01*
X042000Y043323D02*
Y043677D01*
X042823Y042500D02*
X043177D01*
X043000Y042323D02*
Y042677D01*
X042823Y043500D02*
X043177D01*
X043000Y043323D02*
Y043677D01*
X043823Y042500D02*
X044177D01*
X044000Y042323D02*
Y042677D01*
X043823Y043500D02*
X044177D01*
X044000Y043323D02*
Y043677D01*
X050073Y047900D02*
X050427D01*
X050250Y047723D02*
Y048077D01*
X049073Y047900D02*
X049427D01*
X049250Y047723D02*
Y048077D01*
X050073Y048900D02*
X050427D01*
X050250Y048723D02*
Y049077D01*
X049073Y048900D02*
X049427D01*
X049250Y048723D02*
Y049077D01*
X050073Y049900D02*
X050427D01*
X050250Y049723D02*
Y050077D01*
X049073Y049900D02*
X049427D01*
X049250Y049723D02*
Y050077D01*
X050073Y050900D02*
X050427D01*
X050250Y050723D02*
Y051077D01*
X049073Y050900D02*
X049427D01*
X049250Y050723D02*
Y051077D01*
X050073Y051900D02*
X050427D01*
X050250Y051723D02*
Y052077D01*
X049073Y051900D02*
X049427D01*
X049250Y051723D02*
Y052077D01*
X050073Y052900D02*
X050427D01*
X050250Y052723D02*
Y053077D01*
X049073Y052900D02*
X049427D01*
X049250Y052723D02*
Y053077D01*
X050073Y053900D02*
X050427D01*
X050250Y053723D02*
Y054077D01*
X049073Y053900D02*
X049427D01*
X049250Y053723D02*
Y054077D01*
X050073Y054900D02*
X050427D01*
X050250Y054723D02*
Y055077D01*
X049073Y054900D02*
X049427D01*
X049250Y054723D02*
Y055077D01*
X043823Y059350D02*
X044177D01*
X044000Y059173D02*
Y059527D01*
X043823Y058350D02*
X044177D01*
X044000Y058173D02*
Y058527D01*
X042823Y059350D02*
X043177D01*
X043000Y059173D02*
Y059527D01*
X042823Y058350D02*
X043177D01*
X043000Y058173D02*
Y058527D01*
X041823Y059350D02*
X042177D01*
X042000Y059173D02*
Y059527D01*
X041823Y058350D02*
X042177D01*
X042000Y058173D02*
Y058527D01*
X040823Y059350D02*
X041177D01*
X041000Y059173D02*
Y059527D01*
X040823Y058350D02*
X041177D01*
X041000Y058173D02*
Y058527D01*
X039823Y059350D02*
X040177D01*
X040000Y059173D02*
Y059527D01*
X039823Y058350D02*
X040177D01*
X040000Y058173D02*
Y058527D01*
X038823Y059350D02*
X039177D01*
X039000Y059173D02*
Y059527D01*
X038823Y058350D02*
X039177D01*
X039000Y058173D02*
Y058527D01*
X037823Y059350D02*
X038177D01*
X038000Y059173D02*
Y059527D01*
X037823Y058350D02*
X038177D01*
X038000Y058173D02*
Y058527D01*
X036823Y059350D02*
X037177D01*
X037000Y059173D02*
Y059527D01*
X036823Y058350D02*
X037177D01*
X037000Y058173D02*
Y058527D01*
X047343Y043394D02*
X047657D01*
X047500Y043236D02*
Y043551D01*
X047343Y042606D02*
X047657D01*
X047500Y042449D02*
Y042764D01*
X021475Y051600D02*
X021725D01*
X021600Y051475D02*
Y051725D01*
X033475Y060300D02*
X033725D01*
X033600Y060175D02*
Y060425D01*
X057075Y031250D02*
X057325D01*
X057200Y031125D02*
Y031375D01*
X034775Y047100D02*
X035025D01*
X034900Y046975D02*
Y047225D01*
X023625Y056400D02*
X023875D01*
X023750Y056275D02*
Y056525D01*
X038175Y036000D02*
X038425D01*
X038300Y035875D02*
Y036125D01*
X028725Y037750D02*
X028975D01*
X028850Y037625D02*
Y037875D01*
X028675Y038450D02*
X028925D01*
X028800Y038325D02*
Y038575D01*
X035325Y044150D02*
X035575D01*
X035450Y044025D02*
Y044275D01*
X038825Y046950D02*
X039075D01*
X038950Y046825D02*
Y047075D01*
X037125Y053950D02*
X037375D01*
X037250Y053825D02*
Y054075D01*
X025625Y053250D02*
X025875D01*
X025750Y053125D02*
Y053375D01*
X051275Y052450D02*
X051525D01*
X051400Y052325D02*
Y052575D01*
X047875Y046500D02*
X048125D01*
X048000Y046375D02*
Y046625D01*
X048925Y045550D02*
X049175D01*
X049050Y045425D02*
Y045675D01*
X047925Y044950D02*
X048175D01*
X048050Y044825D02*
Y045075D01*
X045775Y044300D02*
X046025D01*
X045900Y044175D02*
Y044425D01*
X034275Y032100D02*
X034525D01*
X034400Y031975D02*
Y032225D01*
X034325Y039550D02*
X034575D01*
X034450Y039425D02*
Y039675D01*
X036625Y040200D02*
X036875D01*
X036750Y040075D02*
Y040325D01*
X030025Y043400D02*
X030275D01*
X030150Y043275D02*
Y043525D01*
X030725Y041100D02*
X030975D01*
X030850Y040975D02*
Y041225D01*
X028575Y034750D02*
X028825D01*
X028700Y034625D02*
Y034875D01*
X038475Y035000D02*
X038725D01*
X038600Y034875D02*
Y035125D01*
X034025Y037450D02*
X034275D01*
X034150Y037325D02*
Y037575D01*
X038725Y037000D02*
X038975D01*
X038850Y036875D02*
Y037125D01*
X043675Y039800D02*
X043925D01*
X043800Y039675D02*
Y039925D01*
X047225Y040600D02*
X047475D01*
X047350Y040475D02*
Y040725D01*
X053175Y041650D02*
X053425D01*
X053300Y041525D02*
Y041775D01*
X047225Y038900D02*
X047475D01*
X047350Y038775D02*
Y039025D01*
X041975Y037000D02*
X042225D01*
X042100Y036875D02*
Y037125D01*
X047575Y036200D02*
X047825D01*
X047700Y036075D02*
Y036325D01*
X042625Y036000D02*
X042875D01*
X042750Y035875D02*
Y036125D01*
X043325Y037550D02*
X043575D01*
X043450Y037425D02*
Y037675D01*
X054025Y035200D02*
X054275D01*
X054150Y035075D02*
Y035325D01*
X052075Y033000D02*
X052325D01*
X052200Y032875D02*
Y033125D01*
X048625Y032850D02*
X048875D01*
X048750Y032725D02*
Y032975D01*
X049075Y035350D02*
X049325D01*
X049200Y035225D02*
Y035475D01*
X047575Y032650D02*
X047825D01*
X047700Y032525D02*
Y032775D01*
X046475Y031900D02*
X046725D01*
X046600Y031775D02*
Y032025D01*
X056775Y040600D02*
X057025D01*
X056900Y040475D02*
Y040725D01*
X044675Y055500D02*
X044925D01*
X044800Y055375D02*
Y055625D01*
X057206Y067316D02*
X057560D01*
X057383Y067139D02*
Y067493D01*
X057206Y065584D02*
X057560D01*
X057383Y065407D02*
Y065761D01*
X036425Y053200D02*
X036675D01*
X036550Y053075D02*
Y053325D01*
X024425Y068000D02*
X024675D01*
X024550Y067875D02*
Y068125D01*
X024475Y066950D02*
X024725D01*
X024600Y066825D02*
Y067075D01*
X028575Y052500D02*
X028825D01*
X028700Y052375D02*
Y052625D01*
X053725Y054300D02*
X053975D01*
X053850Y054175D02*
Y054425D01*
X054825Y053300D02*
X055075D01*
X054950Y053175D02*
Y053425D01*
X049225Y038250D02*
X049475D01*
X049350Y038125D02*
Y038375D01*
X049275Y037250D02*
X049525D01*
X049400Y037125D02*
Y037375D01*
X047325Y039700D02*
X047575D01*
X047450Y039575D02*
Y039825D01*
X051025Y034900D02*
X051275D01*
X051150Y034775D02*
Y035025D01*
X030725Y034300D02*
X030975D01*
X030850Y034175D02*
Y034425D01*
X029525Y033300D02*
X029775D01*
X029650Y033175D02*
Y033425D01*
X029575Y037150D02*
X029825D01*
X029700Y037025D02*
Y037275D01*
X021275Y061000D02*
X021525D01*
X021400Y060875D02*
Y061125D01*
X035475Y040900D02*
X035725D01*
X035600Y040775D02*
Y041025D01*
X033325Y062150D02*
X033575D01*
X033450Y062025D02*
Y062275D01*
X033275Y064000D02*
X033525D01*
X033400Y063875D02*
Y064125D01*
X053775Y068650D02*
X054025D01*
X053900Y068525D02*
Y068775D01*
X024575Y035450D02*
X024825D01*
X024700Y035325D02*
Y035575D01*
X025475Y046600D02*
X025725D01*
X025600Y046475D02*
Y046725D01*
X047925Y047850D02*
X048175D01*
X048050Y047725D02*
Y047975D01*
X036725Y049050D02*
X036975D01*
X036850Y048925D02*
Y049175D01*
X021525Y038850D02*
X021775D01*
X021650Y038725D02*
Y038975D01*
X023625Y038850D02*
X023875D01*
X023750Y038725D02*
Y038975D01*
X054075Y037700D02*
X054325D01*
X054200Y037575D02*
Y037825D01*
X041675Y040750D02*
X041925D01*
X041800Y040625D02*
Y040875D01*
X033075Y034400D02*
X033325D01*
X033200Y034275D02*
Y034525D01*
X034475Y035450D02*
X034725D01*
X034600Y035325D02*
Y035575D01*
X034225Y034550D02*
X034475D01*
X034350Y034425D02*
Y034675D01*
X029825Y039450D02*
X030075D01*
X029950Y039325D02*
Y039575D01*
X026075Y033000D02*
X026325D01*
X026200Y032875D02*
Y033125D01*
X038525Y038000D02*
X038775D01*
X038650Y037875D02*
Y038125D01*
X023825Y063450D02*
X024075D01*
X023950Y063325D02*
Y063575D01*
M02*
