%FSAX24Y24*%
%MOIN*%
G70*
G01*
G75*
G04 Layer_Color=2752767*
%ADD10R,0.0177X0.0118*%
%ADD11R,0.0118X0.0177*%
%ADD12O,0.0118X0.0709*%
%ADD13O,0.0709X0.0118*%
%ADD14R,0.0197X0.0925*%
%ADD15R,0.0925X0.0984*%
%ADD16R,0.0591X0.0591*%
%ADD17R,0.0551X0.0433*%
%ADD18R,0.1024X0.0945*%
%ADD19R,0.0433X0.0551*%
%ADD20R,0.0866X0.0787*%
%ADD21R,0.0236X0.0126*%
%ADD22R,0.0126X0.0236*%
%ADD23O,0.0354X0.0118*%
%ADD24O,0.0118X0.0354*%
%ADD25R,0.1024X0.1024*%
%ADD26O,0.0591X0.0236*%
%ADD27C,0.0080*%
%ADD28R,0.0591X0.0591*%
%ADD29C,0.0591*%
%ADD30C,0.0512*%
%ADD31C,0.0240*%
%ADD32C,0.0260*%
%ADD33O,0.0984X0.0276*%
%ADD34C,0.0020*%
%ADD35C,0.0236*%
%ADD36C,0.0098*%
%ADD37C,0.0079*%
%ADD38C,0.0100*%
%ADD39R,0.0257X0.0198*%
%ADD40R,0.0198X0.0257*%
%ADD41O,0.0198X0.0789*%
%ADD42O,0.0789X0.0198*%
%ADD43R,0.0277X0.1005*%
%ADD44R,0.1005X0.1064*%
%ADD45R,0.0671X0.0671*%
%ADD46R,0.0631X0.0513*%
%ADD47R,0.1104X0.1025*%
%ADD48R,0.0513X0.0631*%
%ADD49R,0.0946X0.0867*%
%ADD50R,0.0316X0.0206*%
%ADD51R,0.0206X0.0316*%
%ADD52O,0.0434X0.0198*%
%ADD53O,0.0198X0.0434*%
%ADD54R,0.1104X0.1104*%
%ADD55O,0.0671X0.0316*%
%ADD56R,0.0671X0.0671*%
%ADD57C,0.0671*%
%ADD58C,0.0592*%
%ADD59C,0.0320*%
%ADD60O,0.1064X0.0356*%
%ADD61C,0.0340*%
%ADD62C,0.0039*%
%ADD63C,0.0060*%
%ADD64R,0.0681X0.0685*%
%ADD65R,0.0567X0.0579*%
%ADD66C,0.0050*%
%ADD67C,0.0067*%
D66*
X035950Y037100D02*
Y037500D01*
X036350D01*
Y037100D01*
X035950D01*
Y038100D02*
Y038500D01*
X036350D01*
Y038100D01*
X035950D01*
Y039100D02*
Y039500D01*
X036350D01*
Y039100D01*
X035950D01*
Y040100D02*
Y040500D01*
X036350D01*
Y040100D01*
X035950D01*
Y041100D02*
Y041500D01*
X036350D01*
Y041100D01*
X035950D01*
Y042100D02*
Y042500D01*
X036350D01*
Y042100D01*
X035950D01*
X033250Y043400D02*
Y043800D01*
X033650D01*
Y043400D01*
X033250D01*
X032250D02*
Y043800D01*
X032650D01*
Y043400D01*
X032250D01*
X031250D02*
Y043800D01*
X031650D01*
Y043400D01*
X031250D01*
X030250D02*
Y043800D01*
X030650D01*
Y043400D01*
X030250D01*
X029250D02*
Y043800D01*
X029650D01*
Y043400D01*
X029250D01*
X028250D02*
Y043800D01*
X028650D01*
Y043400D01*
X028250D01*
X027250D02*
Y043800D01*
X027650D01*
Y043400D01*
X027250D01*
X026250D02*
Y043800D01*
X026650D01*
Y043400D01*
X026250D01*
X037950Y036950D02*
Y037350D01*
X038350D01*
Y036950D01*
X037950D01*
Y035950D02*
Y036350D01*
X038350D01*
Y035950D01*
X037950D01*
X026850Y037300D02*
Y037700D01*
X027250D01*
Y037300D01*
X026850D01*
Y038300D02*
Y038700D01*
X027250D01*
Y038300D01*
X026850D01*
Y039300D02*
Y039700D01*
X027250D01*
Y039300D01*
X026850D01*
Y040300D02*
Y040700D01*
X027250D01*
Y040300D01*
X026850D01*
Y041300D02*
Y041700D01*
X027250D01*
Y041300D01*
X026850D01*
X021100Y032350D02*
Y032750D01*
X021500D01*
Y032350D01*
X021100D01*
Y033350D02*
Y033750D01*
X021500D01*
Y033350D01*
X021100D01*
X031800Y033450D02*
Y033850D01*
X032200D01*
Y033450D01*
X031800D01*
X030800D02*
Y033850D01*
X031200D01*
Y033450D01*
X030800D01*
X029800D02*
Y033850D01*
X030200D01*
Y033450D01*
X029800D01*
X028800D02*
Y033850D01*
X029200D01*
Y033450D01*
X028800D01*
X034500Y032850D02*
Y033250D01*
X034900D01*
Y032850D01*
X034500D01*
Y033850D02*
Y034250D01*
X034900D01*
Y033850D01*
X034500D01*
X035500Y032850D02*
Y033250D01*
X035900D01*
Y032850D01*
X035500D01*
Y033850D02*
Y034250D01*
X035900D01*
Y033850D01*
X035500D01*
X036500Y032850D02*
Y033250D01*
X036900D01*
Y032850D01*
X036500D01*
Y033850D02*
Y034250D01*
X036900D01*
Y033850D01*
X036500D01*
X038300Y039700D02*
Y040100D01*
X038700D01*
Y039700D01*
X038300D01*
X037300D02*
Y040100D01*
X037700D01*
Y039700D01*
X037300D01*
X038300Y040700D02*
Y041100D01*
X038700D01*
Y040700D01*
X038300D01*
X037300D02*
Y041100D01*
X037700D01*
Y040700D01*
X037300D01*
X038300Y041700D02*
Y042100D01*
X038700D01*
Y041700D01*
X038300D01*
X037300D02*
Y042100D01*
X037700D01*
Y041700D01*
X037300D01*
X038300Y042700D02*
Y043100D01*
X038700D01*
Y042700D01*
X038300D01*
X037300D02*
Y043100D01*
X037700D01*
Y042700D01*
X037300D01*
X020950Y044600D02*
Y045000D01*
X021350D01*
Y044600D01*
X020950D01*
Y043600D02*
Y044000D01*
X021350D01*
Y043600D01*
X020950D01*
Y041800D02*
Y042200D01*
X021350D01*
Y041800D01*
X020950D01*
X021950D02*
Y042200D01*
X022350D01*
Y041800D01*
X021950D01*
X020950Y040800D02*
Y041200D01*
X021350D01*
Y040800D01*
X020950D01*
X021950D02*
Y041200D01*
X022350D01*
Y040800D01*
X021950D01*
X020950Y039800D02*
Y040200D01*
X021350D01*
Y039800D01*
X020950D01*
X021950D02*
Y040200D01*
X022350D01*
Y039800D01*
X021950D01*
X020950Y038800D02*
Y039200D01*
X021350D01*
Y038800D01*
X020950D01*
X021950D02*
Y039200D01*
X022350D01*
Y038800D01*
X021950D01*
X020950Y037800D02*
Y038200D01*
X021350D01*
Y037800D01*
X020950D01*
X021950D02*
Y038200D01*
X022350D01*
Y037800D01*
X021950D01*
X021000Y047200D02*
Y047600D01*
X021400D01*
Y047200D01*
X021000D01*
Y048200D02*
Y048600D01*
X021400D01*
Y048200D01*
X021000D01*
X028920Y042750D02*
X028720Y043150D01*
X029120D01*
X028920Y042750D01*
Y042270D02*
X028720Y042670D01*
X029120D01*
X028920Y042270D01*
X024612Y041318D02*
X024412Y041718D01*
X024812D01*
X024612Y041318D01*
X024830Y041600D02*
X024630Y042000D01*
X025030D01*
X024830Y041600D01*
X024190Y038220D02*
X023990Y038620D01*
X024390D01*
X024190Y038220D01*
X023990Y034110D02*
X023790Y034510D01*
X024190D01*
X023990Y034110D01*
X026340Y039800D02*
X026140Y040200D01*
X026540D01*
X026340Y039800D01*
X022050Y035510D02*
X021850Y035910D01*
X022250D01*
X022050Y035510D01*
X023990Y034400D02*
X023790Y034800D01*
X024190D01*
X023990Y034400D01*
X022050Y035255D02*
X021850Y035655D01*
X022250D01*
X022050Y035255D01*
X025390Y033700D02*
X025190Y034100D01*
X025590D01*
X025390Y033700D01*
X025140Y044930D02*
X024940Y045330D01*
X025340D01*
X025140Y044930D01*
X030440Y046070D02*
X030240Y046470D01*
X030640D01*
X030440Y046070D01*
X025600Y033930D02*
X025400Y034330D01*
X025800D01*
X025600Y033930D01*
X030470Y044450D02*
X030270Y044850D01*
X030670D01*
X030470Y044450D01*
X033450Y040320D02*
X033250Y040720D01*
X033650D01*
X033450Y040320D01*
X036740Y041490D02*
X036540Y041890D01*
X036940D01*
X036740Y041490D01*
X034050Y041300D02*
X033850Y041700D01*
X034250D01*
X034050Y041300D01*
X031610Y036890D02*
X031410Y037290D01*
X031810D01*
X031610Y036890D01*
X030570Y037020D02*
X030370Y037420D01*
X030770D01*
X030570Y037020D01*
X027970Y038580D02*
X027770Y038980D01*
X028170D01*
X027970Y038580D01*
X032360Y039920D02*
X032160Y040320D01*
X032560D01*
X032360Y039920D01*
X034670Y041650D02*
X034470Y042050D01*
X034870D01*
X034670Y041650D01*
X029610Y041100D02*
X029410Y041500D01*
X029810D01*
X029610Y041100D01*
X027450Y042470D02*
X027250Y042870D01*
X027650D01*
X027450Y042470D01*
X030240Y042870D02*
X030040Y043270D01*
X030440D01*
X030240Y042870D01*
X033590Y041660D02*
X033390Y042060D01*
X033790D01*
X033590Y041660D01*
X033600Y040576D02*
X033400Y040976D01*
X033800D01*
X033600Y040576D01*
X036630Y040280D02*
X036430Y040680D01*
X036830D01*
X036630Y040280D01*
X034050Y040210D02*
X033850Y040610D01*
X034250D01*
X034050Y040210D01*
X033130Y041960D02*
X032930Y042360D01*
X033330D01*
X033130Y041960D01*
X032360Y041190D02*
X032160Y041590D01*
X032560D01*
X032360Y041190D01*
X031586Y040150D02*
X031386Y040550D01*
X031786D01*
X031586Y040150D01*
X033400Y037480D02*
X033200Y037880D01*
X033600D01*
X033400Y037480D01*
X034130Y038640D02*
X033930Y039040D01*
X034330D01*
X034130Y038640D01*
X025920Y033260D02*
X025720Y033660D01*
X026120D01*
X025920Y033260D01*
X026113Y039300D02*
X025913Y039700D01*
X026313D01*
X026113Y039300D01*
X036200Y043510D02*
X036000Y043910D01*
X036400D01*
X036200Y043510D01*
X031570Y041310D02*
X031370Y041710D01*
X031770D01*
X031570Y041310D01*
X030430Y040060D02*
X030230Y040460D01*
X030630D01*
X030430Y040060D01*
X027888Y039720D02*
X027688Y040120D01*
X028088D01*
X027888Y039720D01*
X033130Y034870D02*
X032930Y035270D01*
X033330D01*
X033130Y034870D01*
X029030Y040690D02*
X028830Y041090D01*
X029230D01*
X029030Y040690D01*
X027910Y041770D02*
X027710Y042170D01*
X028110D01*
X027910Y041770D01*
X035420Y044720D02*
X035220Y045120D01*
X035620D01*
X035420Y044720D01*
X031670Y046510D02*
X031470Y046910D01*
X031870D01*
X031670Y046510D01*
X028750Y041560D02*
X028550Y041960D01*
X028950D01*
X028750Y041560D01*
X035430Y040350D02*
X035230Y040750D01*
X035630D01*
X035430Y040350D01*
X026007Y043553D02*
X025807Y043953D01*
X026207D01*
X026007Y043553D01*
X025900Y037900D02*
X025700Y038300D01*
X026100D01*
X025900Y037900D01*
X023640Y043065D02*
X023440Y043465D01*
X023840D01*
X023640Y043065D01*
X032910Y042460D02*
X032710Y042860D01*
X033110D01*
X032910Y042460D01*
X031390Y048153D02*
X031190Y048553D01*
X031590D01*
X031390Y048153D01*
X027880Y047000D02*
X027680Y047400D01*
X028080D01*
X027880Y047000D01*
X025610Y043950D02*
X025410Y044350D01*
X025810D01*
X025610Y043950D01*
X027910Y040789D02*
X027710Y041189D01*
X028110D01*
X027910Y040789D01*
X032620Y041920D02*
X032420Y042320D01*
X032820D01*
X032620Y041920D01*
X030870Y042730D02*
X030670Y043130D01*
X031070D01*
X030870Y042730D01*
X031810Y041530D02*
X031610Y041930D01*
X032010D01*
X031810Y041530D01*
X034655Y042705D02*
X034455Y043105D01*
X034855D01*
X034655Y042705D01*
X028960Y037720D02*
X028760Y038120D01*
X029160D01*
X028960Y037720D01*
X025290Y032860D02*
X025090Y033260D01*
X025490D01*
X025290Y032860D01*
X024400Y039300D02*
X024200Y039700D01*
X024600D01*
X024400Y039300D01*
X025589Y031670D02*
X025389Y032070D01*
X025789D01*
X025589Y031670D01*
X024538Y037820D02*
X024338Y038220D01*
X024738D01*
X024538Y037820D01*
X028400Y045180D02*
X028200Y045580D01*
X028600D01*
X028400Y045180D01*
X031290Y045810D02*
X031090Y046210D01*
X031490D01*
X031290Y045810D01*
X028060Y044030D02*
X027860Y044430D01*
X028260D01*
X028060Y044030D01*
X030210Y039470D02*
X030010Y039870D01*
X030410D01*
X030210Y039470D01*
X027670Y039930D02*
X027470Y040330D01*
X027870D01*
X027670Y039930D01*
X033460Y046860D02*
X033260Y047260D01*
X033660D01*
X033460Y046860D01*
X030740Y044560D02*
X030540Y044960D01*
X030940D01*
X030740Y044560D01*
X031670Y045255D02*
X031470Y045655D01*
X031870D01*
X031670Y045255D01*
X033530Y041050D02*
X033330Y041450D01*
X033730D01*
X033530Y041050D01*
X029600Y042540D02*
X029400Y042940D01*
X029800D01*
X029600Y042540D01*
X030208Y041510D02*
X030008Y041910D01*
X030408D01*
X030208Y041510D01*
X028400Y041560D02*
X028200Y041960D01*
X028600D01*
X028400Y041560D01*
X033630Y039161D02*
X033430Y039561D01*
X033830D01*
X033630Y039161D01*
X032360Y040700D02*
X032160Y041100D01*
X032560D01*
X032360Y040700D01*
X035690Y039920D02*
X035490Y040320D01*
X035890D01*
X035690Y039920D01*
X031180Y038880D02*
X030980Y039280D01*
X031380D01*
X031180Y038880D01*
X031155Y038345D02*
X030955Y038745D01*
X031355D01*
X031155Y038345D01*
X032140Y038540D02*
X031940Y038940D01*
X032340D01*
X032140Y038540D01*
X032380Y039260D02*
X032180Y039660D01*
X032580D01*
X032380Y039260D01*
X030602Y042580D02*
X030402Y042980D01*
X030802D01*
X030602Y042580D01*
X025910Y048470D02*
X025710Y048870D01*
X026110D01*
X025910Y048470D01*
X029940Y046010D02*
X029740Y046410D01*
X030140D01*
X029940Y046010D01*
X025590Y048550D02*
X025390Y048950D01*
X025790D01*
X025590Y048550D01*
X031180Y047740D02*
X030980Y048140D01*
X031380D01*
X031180Y047740D01*
X028000Y038214D02*
X027800Y038614D01*
X028200D01*
X028000Y038214D01*
X027210Y031430D02*
X027010Y031830D01*
X027410D01*
X027210Y031430D01*
X027850Y038870D02*
X027650Y039270D01*
X028050D01*
X027850Y038870D01*
X033130Y033390D02*
X032930Y033790D01*
X033330D01*
X033130Y033390D01*
X022750Y041030D02*
X022550Y041430D01*
X022950D01*
X022750Y041030D01*
X023750Y035680D02*
X023550Y036080D01*
X023950D01*
X023750Y035680D01*
X026070Y035980D02*
X025870Y036380D01*
X026270D01*
X026070Y035980D01*
X025830Y032920D02*
X025630Y033320D01*
X026030D01*
X025830Y032920D01*
X025390Y035430D02*
X025190Y035830D01*
X025590D01*
X025390Y035430D01*
Y043300D02*
X025190Y043700D01*
X025590D01*
X025390Y043300D01*
X023255Y037700D02*
X023055Y038100D01*
X023455D01*
X023255Y037700D01*
X032840Y033160D02*
X032640Y033560D01*
X033040D01*
X032840Y033160D01*
X030602Y038380D02*
X030402Y038780D01*
X030802D01*
X030602Y038380D01*
X022000Y032650D02*
X021800Y033050D01*
X022200D01*
X022000Y032650D01*
X028520Y034900D02*
X028320Y035300D01*
X028720D01*
X028520Y034900D01*
X026664Y047986D02*
X026764Y048086D01*
X026864D01*
X026764Y048186D01*
X026864Y048286D01*
X026764D01*
X026664Y048386D01*
X026564Y048286D01*
X026464D01*
X026564Y048186D01*
X026464Y048086D01*
X026564D01*
X026664Y047986D01*
X027136D02*
X027236Y048086D01*
X027336D01*
X027236Y048186D01*
X027336Y048286D01*
X027236D01*
X027136Y048386D01*
X027036Y048286D01*
X026936D01*
X027036Y048186D01*
X026936Y048086D01*
X027036D01*
X027136Y047986D01*
X026664Y047514D02*
X026764Y047614D01*
X026864D01*
X026764Y047714D01*
X026864Y047814D01*
X026764D01*
X026664Y047914D01*
X026564Y047814D01*
X026464D01*
X026564Y047714D01*
X026464Y047614D01*
X026564D01*
X026664Y047514D01*
X027136D02*
X027236Y047614D01*
X027336D01*
X027236Y047714D01*
X027336Y047814D01*
X027236D01*
X027136Y047914D01*
X027036Y047814D01*
X026936D01*
X027036Y047714D01*
X026936Y047614D01*
X027036D01*
X027136Y047514D01*
D67*
X031440Y036300D02*
G03*
X031440Y036300I-000200J000000D01*
G01*
X032660D02*
G03*
X032660Y036300I-000200J000000D01*
G01*
X034950Y039190D02*
G03*
X034950Y039190I-000200J000000D01*
G01*
Y040410D02*
G03*
X034950Y040410I-000200J000000D01*
G01*
M02*
