%FSAX24Y24*%
%MOIN*%
G70*
G01*
G75*
G04 Layer_Color=32768*
%ADD10R,0.0177X0.0118*%
%ADD11R,0.0118X0.0177*%
%ADD12O,0.0118X0.0709*%
%ADD13O,0.0709X0.0118*%
%ADD14R,0.0197X0.0925*%
%ADD15R,0.0925X0.0984*%
%ADD16R,0.0591X0.0591*%
%ADD17R,0.0551X0.0433*%
%ADD18R,0.1024X0.0945*%
%ADD19R,0.0433X0.0551*%
%ADD20R,0.0866X0.0787*%
%ADD21R,0.0236X0.0126*%
%ADD22R,0.0126X0.0236*%
%ADD23O,0.0354X0.0118*%
%ADD24O,0.0118X0.0354*%
%ADD25R,0.1024X0.1024*%
%ADD26O,0.0591X0.0236*%
%ADD27C,0.0080*%
%ADD28R,0.0591X0.0591*%
%ADD29C,0.0591*%
%ADD30C,0.0512*%
%ADD31C,0.0240*%
%ADD32C,0.0260*%
%ADD33O,0.0984X0.0276*%
%ADD34C,0.0020*%
%ADD35C,0.0236*%
%ADD36C,0.0098*%
%ADD37C,0.0079*%
%ADD38C,0.0100*%
%ADD39R,0.0257X0.0198*%
%ADD40R,0.0198X0.0257*%
%ADD41O,0.0198X0.0789*%
%ADD42O,0.0789X0.0198*%
%ADD43R,0.0277X0.1005*%
%ADD44R,0.1005X0.1064*%
%ADD45R,0.0671X0.0671*%
%ADD46R,0.0631X0.0513*%
%ADD47R,0.1104X0.1025*%
%ADD48R,0.0513X0.0631*%
%ADD49R,0.0946X0.0867*%
%ADD50R,0.0316X0.0206*%
%ADD51R,0.0206X0.0316*%
%ADD52O,0.0434X0.0198*%
%ADD53O,0.0198X0.0434*%
%ADD54R,0.1104X0.1104*%
%ADD55O,0.0671X0.0316*%
%ADD56R,0.0671X0.0671*%
%ADD57C,0.0671*%
%ADD58C,0.0592*%
%ADD59C,0.0320*%
%ADD60O,0.1064X0.0356*%
%ADD61C,0.0340*%
%ADD62C,0.0039*%
%ADD63C,0.0060*%
D62*
X030700Y039853D02*
Y040247D01*
X030503Y040050D02*
X030897D01*
X028062Y037412D02*
X033338D01*
X028062Y042688D02*
X033338D01*
Y037412D02*
Y042688D01*
X028062Y037412D02*
Y042688D01*
X025785Y036799D02*
X026415D01*
X025785Y037901D02*
X026415D01*
Y036799D02*
Y037901D01*
X025785Y036799D02*
Y037901D01*
X026100Y037153D02*
Y037547D01*
X025903Y037350D02*
X026297D01*
X020949Y034585D02*
Y035215D01*
X022051Y034585D02*
Y035215D01*
X020949Y034585D02*
X022051D01*
X020949Y035215D02*
X022051D01*
X021303Y034900D02*
X021697D01*
X021500Y034703D02*
Y035097D01*
X022635Y044001D02*
X023265D01*
X022635Y042899D02*
X023265D01*
X022635D02*
Y044001D01*
X023265Y042899D02*
Y044001D01*
X022950Y043253D02*
Y043647D01*
X022753Y043450D02*
X023147D01*
X023749Y042535D02*
Y043165D01*
X024851Y042535D02*
Y043165D01*
X023749Y042535D02*
X024851D01*
X023749Y043165D02*
X024851D01*
X024103Y042850D02*
X024497D01*
X024300Y042653D02*
Y043047D01*
X023401Y034685D02*
Y035315D01*
X022299Y034685D02*
Y035315D01*
X023401D01*
X022299Y034685D02*
X023401D01*
X022653Y035000D02*
X023047D01*
X022850Y034803D02*
Y035197D01*
X023035Y034601D02*
X023665D01*
X023035Y033499D02*
X023665D01*
X023035D02*
Y034601D01*
X023665Y033499D02*
Y034601D01*
X023350Y033853D02*
Y034247D01*
X023153Y034050D02*
X023547D01*
X022999Y037035D02*
Y037665D01*
X024101Y037035D02*
Y037665D01*
X022999Y037035D02*
X024101D01*
X022999Y037665D02*
X024101D01*
X023353Y037350D02*
X023747D01*
X023550Y037153D02*
Y037547D01*
X025551Y037035D02*
Y037665D01*
X024449Y037035D02*
Y037665D01*
X025551D01*
X024449Y037035D02*
X025551D01*
X024803Y037350D02*
X025197D01*
X025000Y037153D02*
Y037547D01*
X025299Y042635D02*
Y043265D01*
X026401Y042635D02*
Y043265D01*
X025299Y042635D02*
X026401D01*
X025299Y043265D02*
X026401D01*
X025653Y042950D02*
X026047D01*
X025850Y042753D02*
Y043147D01*
X024149Y036235D02*
Y036865D01*
X025251Y036235D02*
Y036865D01*
X024149Y036235D02*
X025251D01*
X024149Y036865D02*
X025251D01*
X024503Y036550D02*
X024897D01*
X024700Y036353D02*
Y036747D01*
X023035Y031899D02*
X023665D01*
X023035Y033001D02*
X023665D01*
Y031899D02*
Y033001D01*
X023035Y031899D02*
Y033001D01*
X023350Y032253D02*
Y032647D01*
X023153Y032450D02*
X023547D01*
X022535Y036551D02*
X023165D01*
X022535Y035449D02*
X023165D01*
X022535D02*
Y036551D01*
X023165Y035449D02*
Y036551D01*
X022850Y035803D02*
Y036197D01*
X022653Y036000D02*
X023047D01*
X025600Y033653D02*
Y034047D01*
X025403Y033850D02*
X025797D01*
X023946Y031685D02*
X027254D01*
X023946Y036015D02*
X027254D01*
X023946Y031685D02*
Y036015D01*
X027254Y031685D02*
Y036015D01*
X024500Y040053D02*
Y040447D01*
X024303Y040250D02*
X024697D01*
X022846Y038085D02*
X026154D01*
X022846Y042415D02*
X026154D01*
X022846Y038085D02*
Y042415D01*
X026154Y038085D02*
Y042415D01*
X021935Y048501D02*
X022565D01*
X021935Y047399D02*
X022565D01*
Y048501D01*
X021935Y047399D02*
Y048501D01*
X022250Y047753D02*
Y048147D01*
X022053Y047950D02*
X022447D01*
X022635Y044299D02*
X023265D01*
X022635Y045401D02*
X023265D01*
X022635Y044299D02*
Y045401D01*
X023265Y044299D02*
Y045401D01*
X022950Y044653D02*
Y045047D01*
X022753Y044850D02*
X023147D01*
X030251Y046635D02*
Y047265D01*
X029149Y046635D02*
Y047265D01*
Y046635D02*
X030251D01*
X029149Y047265D02*
X030251D01*
X029503Y046950D02*
X029897D01*
X029700Y046753D02*
Y047147D01*
X031785Y045199D02*
X032415D01*
X031785Y046301D02*
X032415D01*
X031785Y045199D02*
Y046301D01*
X032415Y045199D02*
Y046301D01*
X032100Y045553D02*
Y045947D01*
X031903Y045750D02*
X032297D01*
X025101Y043285D02*
Y043915D01*
X023999Y043285D02*
Y043915D01*
Y043285D02*
X025101D01*
X023999Y043915D02*
X025101D01*
X024353Y043600D02*
X024747D01*
X024550Y043403D02*
Y043797D01*
X021285Y035449D02*
X021915D01*
X021285Y036551D02*
X021915D01*
X021285Y035449D02*
Y036551D01*
X021915Y035449D02*
Y036551D01*
X021600Y035803D02*
Y036197D01*
X021403Y036000D02*
X021797D01*
X028235Y047901D02*
X028865D01*
X028235Y046799D02*
X028865D01*
Y047901D01*
X028235Y046799D02*
Y047901D01*
X028550Y047153D02*
Y047547D01*
X028353Y047350D02*
X028747D01*
X028235Y047999D02*
X028865D01*
X028235Y049101D02*
X028865D01*
X028235Y047999D02*
Y049101D01*
X028865Y047999D02*
Y049101D01*
X028550Y048353D02*
Y048747D01*
X028353Y048550D02*
X028747D01*
X027135Y046601D02*
X027765D01*
X027135Y045499D02*
X027765D01*
Y046601D01*
X027135Y045499D02*
Y046601D01*
X027450Y045853D02*
Y046247D01*
X027253Y046050D02*
X027647D01*
X027885Y046601D02*
X028515D01*
X027885Y045499D02*
X028515D01*
Y046601D01*
X027885Y045499D02*
Y046601D01*
X028200Y045853D02*
Y046247D01*
X028003Y046050D02*
X028397D01*
X031785Y046699D02*
X032415D01*
X031785Y047801D02*
X032415D01*
X031785Y046699D02*
Y047801D01*
X032415Y046699D02*
Y047801D01*
X032100Y047053D02*
Y047447D01*
X031903Y047250D02*
X032297D01*
X033701Y047235D02*
Y047865D01*
X032599Y047235D02*
Y047865D01*
Y047235D02*
X033701D01*
X032599Y047865D02*
X033701D01*
X032953Y047550D02*
X033347D01*
X033150Y047353D02*
Y047747D01*
X033751Y048035D02*
Y048665D01*
X032649Y048035D02*
Y048665D01*
Y048035D02*
X033751D01*
X032649Y048665D02*
X033751D01*
X033003Y048350D02*
X033397D01*
X033200Y048153D02*
Y048547D01*
X030885Y047801D02*
X031515D01*
X030885Y046699D02*
X031515D01*
Y047801D01*
X030885Y046699D02*
Y047801D01*
X031200Y047053D02*
Y047447D01*
X031003Y047250D02*
X031397D01*
X021835Y044701D02*
X022465D01*
X021835Y043599D02*
X022465D01*
Y044701D01*
X021835Y043599D02*
Y044701D01*
X022150Y043953D02*
Y044347D01*
X021953Y044150D02*
X022347D01*
X035501Y043385D02*
Y044015D01*
X034399Y043385D02*
Y044015D01*
Y043385D02*
X035501D01*
X034399Y044015D02*
X035501D01*
X034753Y043700D02*
X035147D01*
X034950Y043503D02*
Y043897D01*
X037051Y031135D02*
Y031765D01*
X035949Y031135D02*
Y031765D01*
Y031135D02*
X037051D01*
X035949Y031765D02*
X037051D01*
X036303Y031450D02*
X036697D01*
X036500Y031253D02*
Y031647D01*
X033335Y031249D02*
X033965D01*
X033335Y032351D02*
X033965D01*
X033335Y031249D02*
Y032351D01*
X033965Y031249D02*
Y032351D01*
X033650Y031603D02*
Y031997D01*
X033453Y031800D02*
X033847D01*
X032285Y031249D02*
X032915D01*
X032285Y032351D02*
X032915D01*
X032285Y031249D02*
Y032351D01*
X032915Y031249D02*
Y032351D01*
X032600Y031603D02*
Y031997D01*
X032403Y031800D02*
X032797D01*
X037835Y031249D02*
X038465D01*
X037835Y032351D02*
X038465D01*
X037835Y031249D02*
Y032351D01*
X038465Y031249D02*
Y032351D01*
X038150Y031603D02*
Y031997D01*
X037953Y031800D02*
X038347D01*
X034701Y041985D02*
Y042615D01*
X033599Y041985D02*
Y042615D01*
Y041985D02*
X034701D01*
X033599Y042615D02*
X034701D01*
X033953Y042300D02*
X034347D01*
X034150Y042103D02*
Y042497D01*
X033085Y035399D02*
X033715D01*
X033085Y036501D02*
X033715D01*
X033085Y035399D02*
Y036501D01*
X033715Y035399D02*
Y036501D01*
X033400Y035753D02*
Y036147D01*
X033203Y035950D02*
X033597D01*
X032851Y034535D02*
Y035165D01*
X031749Y034535D02*
Y035165D01*
Y034535D02*
X032851D01*
X031749Y035165D02*
X032851D01*
X032103Y034850D02*
X032497D01*
X032300Y034653D02*
Y035047D01*
X035551Y040885D02*
Y041515D01*
X034449Y040885D02*
Y041515D01*
Y040885D02*
X035551D01*
X034449Y041515D02*
X035551D01*
X034803Y041200D02*
X035197D01*
X035000Y041003D02*
Y041397D01*
X035551Y037835D02*
Y038465D01*
X034449Y037835D02*
Y038465D01*
Y037835D02*
X035551D01*
X034449Y038465D02*
X035551D01*
X034803Y038150D02*
X035197D01*
X035000Y037953D02*
Y038347D01*
X033049Y036585D02*
Y037215D01*
X034151Y036585D02*
Y037215D01*
X033049D02*
X034151D01*
X033049Y036585D02*
X034151D01*
X033403Y036900D02*
X033797D01*
X033600Y036703D02*
Y037097D01*
X033535Y038501D02*
X034165D01*
X033535Y037399D02*
X034165D01*
Y038501D01*
X033535Y037399D02*
Y038501D01*
X033850Y037753D02*
Y038147D01*
X033653Y037950D02*
X034047D01*
X028885Y036149D02*
X029515D01*
X028885Y037251D02*
X029515D01*
X028885Y036149D02*
Y037251D01*
X029515Y036149D02*
Y037251D01*
X029200Y036503D02*
Y036897D01*
X029003Y036700D02*
X029397D01*
X028035Y036149D02*
X028665D01*
X028035Y037251D02*
X028665D01*
X028035Y036149D02*
Y037251D01*
X028665Y036149D02*
Y037251D01*
X028350Y036503D02*
Y036897D01*
X028153Y036700D02*
X028547D01*
X029699Y036285D02*
Y036915D01*
X030801Y036285D02*
Y036915D01*
X029699D02*
X030801D01*
X029699Y036285D02*
X030801D01*
X030053Y036600D02*
X030447D01*
X030250Y036403D02*
Y036797D01*
X029699Y035585D02*
Y036215D01*
X030801Y035585D02*
Y036215D01*
X029699D02*
X030801D01*
X029699Y035585D02*
X030801D01*
X030053Y035900D02*
X030447D01*
X030250Y035703D02*
Y036097D01*
X025719Y046769D02*
Y049131D01*
X028081Y046769D02*
Y049131D01*
X025719D02*
X028081D01*
X025719Y046769D02*
X028081D01*
X026703Y047950D02*
X027097D01*
X026900Y047753D02*
Y048147D01*
X022761Y046976D02*
Y049024D01*
X025439Y046976D02*
Y049024D01*
X022761D02*
X025439D01*
X022761Y046976D02*
X025439D01*
X023903Y048000D02*
X024297D01*
X024100Y047803D02*
Y048197D01*
M02*
