%FSAX24Y24*%
%MOIN*%
G70*
G01*
G75*
G04 Layer_Color=16711935*
%ADD10R,0.0177X0.0118*%
%ADD11R,0.0118X0.0177*%
%ADD12O,0.0118X0.0709*%
%ADD13O,0.0709X0.0118*%
%ADD14R,0.0197X0.0925*%
%ADD15R,0.0925X0.0984*%
%ADD16R,0.0591X0.0591*%
%ADD17R,0.0551X0.0433*%
%ADD18R,0.1024X0.0945*%
%ADD19R,0.0433X0.0551*%
%ADD20R,0.0866X0.0787*%
%ADD21R,0.0236X0.0126*%
%ADD22R,0.0126X0.0236*%
%ADD23O,0.0354X0.0118*%
%ADD24O,0.0118X0.0354*%
%ADD25R,0.1024X0.1024*%
%ADD26O,0.0591X0.0236*%
%ADD27C,0.0080*%
%ADD28R,0.0591X0.0591*%
%ADD29C,0.0591*%
%ADD30C,0.0512*%
%ADD31C,0.0240*%
%ADD32C,0.0260*%
%ADD33O,0.0984X0.0276*%
%ADD34C,0.0020*%
%ADD35C,0.0236*%
%ADD36C,0.0098*%
%ADD37C,0.0079*%
%ADD38C,0.0100*%
%ADD39R,0.0257X0.0198*%
%ADD40R,0.0198X0.0257*%
%ADD41O,0.0198X0.0789*%
%ADD42O,0.0789X0.0198*%
%ADD43R,0.0277X0.1005*%
%ADD44R,0.1005X0.1064*%
%ADD45R,0.0671X0.0671*%
%ADD46R,0.0631X0.0513*%
%ADD47R,0.1104X0.1025*%
%ADD48R,0.0513X0.0631*%
%ADD49R,0.0946X0.0867*%
%ADD50R,0.0316X0.0206*%
%ADD51R,0.0206X0.0316*%
%ADD52O,0.0434X0.0198*%
%ADD53O,0.0198X0.0434*%
%ADD54R,0.1104X0.1104*%
%ADD55O,0.0671X0.0316*%
%ADD56R,0.0671X0.0671*%
%ADD57C,0.0671*%
%ADD58C,0.0592*%
%ADD59C,0.0320*%
%ADD60O,0.1064X0.0356*%
%ADD61C,0.0340*%
%ADD62C,0.0039*%
%ADD63C,0.0060*%
D62*
X029283Y041664D02*
G03*
X029283Y041664I-000197J000000D01*
G01*
X026230Y035464D02*
G03*
X026230Y035464I-000197J000000D01*
G01*
X025130Y041864D02*
G03*
X025130Y041864I-000197J000000D01*
G01*
X026634Y048413D02*
G03*
X026634Y048413I-000197J000000D01*
G01*
X023864Y048630D02*
G03*
X023864Y048630I-000197J000000D01*
G01*
X028732Y038082D02*
X032668D01*
X028732Y042018D02*
X032668D01*
Y038082D02*
Y042018D01*
X028732Y038082D02*
Y042018D01*
X025815Y036917D02*
X026385D01*
X025815Y037783D02*
X026385D01*
Y036917D02*
Y037783D01*
X025815Y036917D02*
Y037783D01*
X035084Y045746D02*
Y049132D01*
Y045746D02*
X038116D01*
Y049132D01*
X035084D02*
X038116D01*
X021067Y034615D02*
Y035185D01*
X021933Y034615D02*
Y035185D01*
X021067Y034615D02*
X021933D01*
X021067Y035185D02*
X021933D01*
X022665Y043883D02*
X023235D01*
X022665Y043017D02*
X023235D01*
X022665D02*
Y043883D01*
X023235Y043017D02*
Y043883D01*
X023867Y042565D02*
Y043135D01*
X024733Y042565D02*
Y043135D01*
X023867Y042565D02*
X024733D01*
X023867Y043135D02*
X024733D01*
X023283Y034715D02*
Y035285D01*
X022417Y034715D02*
Y035285D01*
X023283D01*
X022417Y034715D02*
X023283D01*
X023065Y034483D02*
X023635D01*
X023065Y033617D02*
X023635D01*
X023065D02*
Y034483D01*
X023635Y033617D02*
Y034483D01*
X023117Y037065D02*
Y037635D01*
X023983Y037065D02*
Y037635D01*
X023117Y037065D02*
X023983D01*
X023117Y037635D02*
X023983D01*
X025433Y037065D02*
Y037635D01*
X024567Y037065D02*
Y037635D01*
X025433D01*
X024567Y037065D02*
X025433D01*
X025417Y042665D02*
Y043235D01*
X026283Y042665D02*
Y043235D01*
X025417Y042665D02*
X026283D01*
X025417Y043235D02*
X026283D01*
X024267Y036265D02*
Y036835D01*
X025133Y036265D02*
Y036835D01*
X024267Y036265D02*
X025133D01*
X024267Y036835D02*
X025133D01*
X023065Y032017D02*
X023635D01*
X023065Y032883D02*
X023635D01*
Y032017D02*
Y032883D01*
X023065Y032017D02*
Y032883D01*
X022565Y036433D02*
X023135D01*
X022565Y035567D02*
X023135D01*
X022565D02*
Y036433D01*
X023135Y035567D02*
Y036433D01*
X024813Y031881D02*
X026387D01*
X024813Y035819D02*
X026387D01*
X024813Y031881D02*
Y035819D01*
X026387Y031881D02*
Y035819D01*
X023713Y038282D02*
X025287D01*
X023713Y042218D02*
X025287D01*
X023713Y038282D02*
Y042218D01*
X025287Y038282D02*
Y042218D01*
X021965Y048383D02*
X022535D01*
X021965Y047517D02*
X022535D01*
Y048383D01*
X021965Y047517D02*
Y048383D01*
X022665Y044417D02*
X023235D01*
X022665Y045283D02*
X023235D01*
X022665Y044417D02*
Y045283D01*
X023235Y044417D02*
Y045283D01*
X030133Y046665D02*
Y047235D01*
X029267Y046665D02*
Y047235D01*
Y046665D02*
X030133D01*
X029267Y047235D02*
X030133D01*
X031815Y045317D02*
X032385D01*
X031815Y046183D02*
X032385D01*
X031815Y045317D02*
Y046183D01*
X032385Y045317D02*
Y046183D01*
X024983Y043315D02*
Y043885D01*
X024117Y043315D02*
Y043885D01*
Y043315D02*
X024983D01*
X024117Y043885D02*
X024983D01*
X021315Y035567D02*
X021885D01*
X021315Y036433D02*
X021885D01*
X021315Y035567D02*
Y036433D01*
X021885Y035567D02*
Y036433D01*
X028265Y047783D02*
X028835D01*
X028265Y046917D02*
X028835D01*
Y047783D01*
X028265Y046917D02*
Y047783D01*
Y048117D02*
X028835D01*
X028265Y048983D02*
X028835D01*
X028265Y048117D02*
Y048983D01*
X028835Y048117D02*
Y048983D01*
X027165Y046483D02*
X027735D01*
X027165Y045617D02*
X027735D01*
Y046483D01*
X027165Y045617D02*
Y046483D01*
X027915D02*
X028485D01*
X027915Y045617D02*
X028485D01*
Y046483D01*
X027915Y045617D02*
Y046483D01*
X031815Y046817D02*
X032385D01*
X031815Y047683D02*
X032385D01*
X031815Y046817D02*
Y047683D01*
X032385Y046817D02*
Y047683D01*
X033583Y047265D02*
Y047835D01*
X032717Y047265D02*
Y047835D01*
Y047265D02*
X033583D01*
X032717Y047835D02*
X033583D01*
X033633Y048065D02*
Y048635D01*
X032767Y048065D02*
Y048635D01*
Y048065D02*
X033633D01*
X032767Y048635D02*
X033633D01*
X030915Y047683D02*
X031485D01*
X030915Y046817D02*
X031485D01*
Y047683D01*
X030915Y046817D02*
Y047683D01*
X021865Y044583D02*
X022435D01*
X021865Y043717D02*
X022435D01*
Y044583D01*
X021865Y043717D02*
Y044583D01*
X035383Y043415D02*
Y043985D01*
X034517Y043415D02*
Y043985D01*
Y043415D02*
X035383D01*
X034517Y043985D02*
X035383D01*
X036933Y031165D02*
Y031735D01*
X036067Y031165D02*
Y031735D01*
Y031165D02*
X036933D01*
X036067Y031735D02*
X036933D01*
X033365Y031367D02*
X033935D01*
X033365Y032233D02*
X033935D01*
X033365Y031367D02*
Y032233D01*
X033935Y031367D02*
Y032233D01*
X032315Y031367D02*
X032885D01*
X032315Y032233D02*
X032885D01*
X032315Y031367D02*
Y032233D01*
X032885Y031367D02*
Y032233D01*
X037865Y031367D02*
X038435D01*
X037865Y032233D02*
X038435D01*
X037865Y031367D02*
Y032233D01*
X038435Y031367D02*
Y032233D01*
X034583Y042015D02*
Y042585D01*
X033717Y042015D02*
Y042585D01*
Y042015D02*
X034583D01*
X033717Y042585D02*
X034583D01*
X033115Y035517D02*
X033685D01*
X033115Y036383D02*
X033685D01*
X033115Y035517D02*
Y036383D01*
X033685Y035517D02*
Y036383D01*
X032733Y034565D02*
Y035135D01*
X031867Y034565D02*
Y035135D01*
Y034565D02*
X032733D01*
X031867Y035135D02*
X032733D01*
X035433Y040915D02*
Y041485D01*
X034567Y040915D02*
Y041485D01*
Y040915D02*
X035433D01*
X034567Y041485D02*
X035433D01*
Y037865D02*
Y038435D01*
X034567Y037865D02*
Y038435D01*
Y037865D02*
X035433D01*
X034567Y038435D02*
X035433D01*
X033167Y036615D02*
Y037185D01*
X034033Y036615D02*
Y037185D01*
X033167D02*
X034033D01*
X033167Y036615D02*
X034033D01*
X033565Y038383D02*
X034135D01*
X033565Y037517D02*
X034135D01*
Y038383D01*
X033565Y037517D02*
Y038383D01*
X028915Y036267D02*
X029485D01*
X028915Y037133D02*
X029485D01*
X028915Y036267D02*
Y037133D01*
X029485Y036267D02*
Y037133D01*
X028065Y036267D02*
X028635D01*
X028065Y037133D02*
X028635D01*
X028065Y036267D02*
Y037133D01*
X028635Y036267D02*
Y037133D01*
X029817Y036315D02*
Y036885D01*
X030683Y036315D02*
Y036885D01*
X029817D02*
X030683D01*
X029817Y036315D02*
X030683D01*
X029817Y035615D02*
Y036185D01*
X030683Y035615D02*
Y036185D01*
X029817D02*
X030683D01*
X029817Y035615D02*
X030683D01*
X026083Y047133D02*
Y048767D01*
X027717Y047133D02*
Y048767D01*
X026083D02*
X027717D01*
X026083Y047133D02*
X027717D01*
X023313Y047016D02*
Y048984D01*
X024887Y047016D02*
Y048984D01*
X023313D02*
X024887D01*
X023313Y047016D02*
X024887D01*
M02*
