%FSAX24Y24*%
%MOIN*%
G70*
G01*
G75*
G04 Layer_Physical_Order=1*
G04 Layer_Color=255*
%ADD10R,0.0177X0.0118*%
%ADD11R,0.0118X0.0177*%
%ADD12O,0.0118X0.0709*%
%ADD13O,0.0709X0.0118*%
%ADD14R,0.0197X0.0925*%
%ADD15R,0.0925X0.0984*%
%ADD16R,0.0591X0.0591*%
%ADD17R,0.0551X0.0433*%
%ADD18R,0.1024X0.0945*%
%ADD19R,0.0433X0.0551*%
%ADD20R,0.0866X0.0787*%
%ADD21R,0.0236X0.0126*%
%ADD22R,0.0126X0.0236*%
%ADD23O,0.0354X0.0118*%
%ADD24O,0.0118X0.0354*%
%ADD25R,0.1024X0.1024*%
%ADD26O,0.0591X0.0236*%
%ADD27C,0.0080*%
%ADD28R,0.0591X0.0591*%
%ADD29C,0.0591*%
%ADD30C,0.0512*%
%ADD31C,0.0240*%
%ADD32C,0.0260*%
D10*
X029900Y045800D02*
D03*
Y045603D02*
D03*
Y045406D02*
D03*
Y045209D02*
D03*
X030904D02*
D03*
Y045406D02*
D03*
Y045603D02*
D03*
Y045800D02*
D03*
D11*
X030107Y045003D02*
D03*
X030304D02*
D03*
X030500D02*
D03*
X030697D02*
D03*
Y046007D02*
D03*
X030500D02*
D03*
X030304D02*
D03*
X030107D02*
D03*
D12*
X029224Y042235D02*
D03*
X029420D02*
D03*
X029617D02*
D03*
X029814D02*
D03*
X030011D02*
D03*
X030208D02*
D03*
X030405D02*
D03*
X030602D02*
D03*
X030798D02*
D03*
X030995D02*
D03*
X031192D02*
D03*
X031389D02*
D03*
X031586D02*
D03*
X031783D02*
D03*
X031980D02*
D03*
X032176D02*
D03*
Y037865D02*
D03*
X031980D02*
D03*
X031783D02*
D03*
X031586D02*
D03*
X031389D02*
D03*
X031192D02*
D03*
X030995D02*
D03*
X030798D02*
D03*
X030602D02*
D03*
X030405D02*
D03*
X030208D02*
D03*
X030011D02*
D03*
X029814D02*
D03*
X029617D02*
D03*
X029420D02*
D03*
X029224D02*
D03*
D13*
X032885Y041526D02*
D03*
Y041330D02*
D03*
Y041133D02*
D03*
Y040936D02*
D03*
Y040739D02*
D03*
Y040542D02*
D03*
Y040345D02*
D03*
Y040148D02*
D03*
Y039952D02*
D03*
Y039755D02*
D03*
Y039558D02*
D03*
Y039361D02*
D03*
Y039164D02*
D03*
Y038967D02*
D03*
Y038770D02*
D03*
Y038574D02*
D03*
X028515D02*
D03*
Y038770D02*
D03*
Y038967D02*
D03*
Y039164D02*
D03*
Y039361D02*
D03*
Y039558D02*
D03*
Y039755D02*
D03*
Y039952D02*
D03*
Y040148D02*
D03*
Y040345D02*
D03*
Y040542D02*
D03*
Y040739D02*
D03*
Y040936D02*
D03*
Y041133D02*
D03*
Y041330D02*
D03*
Y041526D02*
D03*
D14*
X035970Y044930D02*
D03*
X036285Y044929D02*
D03*
X036600D02*
D03*
X037230D02*
D03*
X036915D02*
D03*
D15*
X034563Y047971D02*
D03*
X038637D02*
D03*
X034563Y046297D02*
D03*
X038637D02*
D03*
D16*
X021261Y046150D02*
D03*
X022639D02*
D03*
X033450Y043600D02*
D03*
X029000Y033650D02*
D03*
X036700Y034050D02*
D03*
D17*
X022250Y048245D02*
D03*
Y047655D02*
D03*
X022950Y044555D02*
D03*
Y045145D02*
D03*
X032100Y045455D02*
D03*
Y046045D02*
D03*
X021600Y035705D02*
D03*
Y036295D02*
D03*
X028550Y047645D02*
D03*
Y047055D02*
D03*
Y048255D02*
D03*
Y048845D02*
D03*
X027450Y046345D02*
D03*
Y045755D02*
D03*
X028200Y046345D02*
D03*
Y045755D02*
D03*
X032100Y046955D02*
D03*
Y047545D02*
D03*
X031200D02*
D03*
Y046955D02*
D03*
X022150Y044445D02*
D03*
Y043855D02*
D03*
X033650Y031505D02*
D03*
Y032095D02*
D03*
X032600Y031505D02*
D03*
Y032095D02*
D03*
X038150Y031505D02*
D03*
Y032095D02*
D03*
X033400Y035655D02*
D03*
Y036245D02*
D03*
X033850Y038245D02*
D03*
Y037655D02*
D03*
X029200Y036405D02*
D03*
Y036995D02*
D03*
X028350Y036405D02*
D03*
Y036995D02*
D03*
D18*
X023890Y045750D02*
D03*
X026410D02*
D03*
D19*
X029995Y046950D02*
D03*
X029405D02*
D03*
X024845Y043600D02*
D03*
X024255D02*
D03*
X033445Y047550D02*
D03*
X032855D02*
D03*
X033495Y048350D02*
D03*
X032905D02*
D03*
X035245Y043700D02*
D03*
X034655D02*
D03*
X036795Y031450D02*
D03*
X036205D02*
D03*
X034445Y042300D02*
D03*
X033855D02*
D03*
X032595Y034850D02*
D03*
X032005D02*
D03*
X035295Y041200D02*
D03*
X034705D02*
D03*
X035295Y038150D02*
D03*
X034705D02*
D03*
X033305Y036900D02*
D03*
X033895D02*
D03*
X029955Y036600D02*
D03*
X030545D02*
D03*
X029955Y035900D02*
D03*
X030545D02*
D03*
D20*
X033250Y045309D02*
D03*
Y046491D02*
D03*
D21*
X029500Y047763D02*
D03*
Y047959D02*
D03*
Y048156D02*
D03*
Y048353D02*
D03*
Y048550D02*
D03*
X030445Y047763D02*
D03*
Y047959D02*
D03*
Y048156D02*
D03*
Y048353D02*
D03*
Y048550D02*
D03*
D22*
X029972Y048629D02*
D03*
Y047684D02*
D03*
D23*
X026093Y048442D02*
D03*
Y048245D02*
D03*
Y048048D02*
D03*
Y047852D02*
D03*
Y047655D02*
D03*
Y047458D02*
D03*
X027707D02*
D03*
Y047655D02*
D03*
Y047852D02*
D03*
Y048048D02*
D03*
Y048245D02*
D03*
Y048442D02*
D03*
D24*
X026408Y047143D02*
D03*
X026605D02*
D03*
X026802D02*
D03*
X026998D02*
D03*
X027195D02*
D03*
X027392D02*
D03*
Y048757D02*
D03*
X027195D02*
D03*
X026998D02*
D03*
X026802D02*
D03*
X026605D02*
D03*
X026408D02*
D03*
D25*
X026900Y047950D02*
D03*
D26*
X023096Y048750D02*
D03*
Y048250D02*
D03*
Y047750D02*
D03*
Y047250D02*
D03*
X025104Y048750D02*
D03*
Y048250D02*
D03*
Y047750D02*
D03*
Y047250D02*
D03*
D27*
X029013Y048156D02*
X029260Y047895D01*
X028920Y047645D02*
Y048255D01*
X029060Y047340D02*
X029440D01*
X032176Y042120D02*
X032620D01*
X028920Y047200D02*
Y047645D01*
Y045279D02*
Y047200D01*
Y042470D02*
Y042950D01*
Y045279D01*
X027195Y046345D02*
Y047143D01*
X028160Y037500D02*
X029224D01*
X028400Y041526D02*
Y041760D01*
X028520Y035100D02*
Y036405D01*
X021100Y035120D02*
Y038000D01*
X025910Y048670D02*
X026408D01*
X030440Y046270D02*
Y047763D01*
X025160Y045110D02*
Y045960D01*
Y034570D02*
Y045110D01*
Y034130D02*
Y034570D01*
X029390Y042298D02*
X029420D01*
X033210Y039150D02*
Y039164D01*
X032005Y035535D02*
Y035840D01*
Y034850D02*
Y035535D01*
X034130Y038245D02*
Y038840D01*
X028170Y038967D02*
Y039000D01*
X026660Y041830D02*
X027030Y042200D01*
X026113Y041283D02*
X026660Y041830D01*
X033130Y033590D02*
Y035070D01*
Y032265D02*
Y033590D01*
X035025Y032630D02*
Y033050D01*
X032040Y045800D02*
Y046045D01*
X035420Y044920D02*
X035970D01*
X030798Y041840D02*
Y041848D01*
X030209Y039670D02*
X030210Y041260D01*
X030208Y037865D02*
X030209Y039670D01*
X028230Y039164D02*
Y039200D01*
X024200Y032130D02*
Y034150D01*
X030660Y048353D02*
X031390D01*
X030697Y046010D02*
X031290D01*
X029405Y046584D02*
Y046950D01*
Y045880D02*
Y046584D01*
X029803Y045603D02*
X029900D01*
X029682D02*
X029803D01*
X028400Y045380D02*
Y045755D01*
X028484Y042100D02*
X029224D01*
X032176Y037890D02*
X033610D01*
X033170Y041526D02*
Y041790D01*
X033610Y037655D02*
Y037890D01*
X029224Y041225D02*
Y042100D01*
X032600Y031505D02*
X033360D01*
X027830Y047250D02*
Y047458D01*
X027650Y043990D02*
X027840D01*
X026245D02*
X027650D01*
X025770D02*
X026245D01*
X025500Y047250D02*
X025880D01*
X025104D02*
X025500D01*
X028060Y043770D02*
Y044230D01*
X028254Y042330D02*
X028484Y042100D01*
X028060Y042524D02*
X028254Y042330D01*
X022540Y036275D02*
Y038615D01*
X021780Y035705D02*
Y035926D01*
X026802Y046880D02*
Y047143D01*
X026422Y046500D02*
X026802Y046880D01*
X025760Y046500D02*
X026422D01*
X025670Y046410D02*
X025760Y046500D01*
X025670Y045080D02*
Y046410D01*
Y045080D02*
X025730Y045020D01*
X028661D01*
X028920Y045279D01*
X033250Y046010D02*
X033440Y045793D01*
X033773D01*
Y044800D02*
Y045793D01*
X033601Y044628D02*
X033773Y044800D01*
X031631Y044628D02*
X033601D01*
X031050Y045209D02*
X031631Y044628D01*
X035295Y040880D02*
Y041200D01*
X035140Y040720D02*
X035295Y040880D01*
X035140Y040420D02*
Y040720D01*
Y040420D02*
X035295Y040265D01*
Y038150D02*
Y040265D01*
X020760Y033090D02*
X021300Y032550D01*
X020760Y033090D02*
Y044410D01*
X021150Y044800D01*
X028920Y047200D02*
X029060Y047340D01*
X029835D02*
X029995Y047180D01*
X030904Y045603D02*
X031065D01*
X031520Y045148D01*
X032470D01*
Y045520D01*
X032960Y046010D01*
X033250D01*
Y046491D01*
X028550Y048255D02*
X028920D01*
X029013Y048156D01*
X029500D01*
X029260Y047520D02*
Y047895D01*
Y047520D02*
X029440Y047340D01*
X029835D01*
X029995Y046950D02*
Y047180D01*
X028550Y047645D02*
X028920D01*
X031050Y043140D02*
Y045209D01*
X030904D02*
X031050D01*
X020770Y047970D02*
X021200Y048400D01*
X020770Y046641D02*
Y047970D01*
Y046641D02*
X021261Y046150D01*
X024612Y041518D02*
Y042018D01*
X024845Y042251D01*
Y043600D01*
X036285Y044312D02*
Y044929D01*
X035673Y043700D02*
X036285Y044312D01*
X035245Y043700D02*
X035673D01*
X024830Y040840D02*
Y041800D01*
X024190Y040200D02*
X024830Y040840D01*
X024190Y038420D02*
Y040200D01*
X021100Y038000D02*
X021150D01*
X021100Y035120D02*
X021910Y034310D01*
X023990D01*
X026408Y048670D02*
Y048757D01*
X025740Y048500D02*
X025910Y048670D01*
X024800Y048500D02*
X025740D01*
X024719Y048419D02*
X024800Y048500D01*
X024719Y047120D02*
Y048419D01*
Y047120D02*
X025350Y046489D01*
Y044000D02*
Y046489D01*
Y044000D02*
X025650Y043700D01*
Y037920D02*
Y043700D01*
Y037920D02*
X025810Y037760D01*
X026020D01*
X026340Y038080D01*
Y040000D01*
X022050Y035710D02*
X022880D01*
X023990Y034600D01*
X021755Y035160D02*
X022050Y035455D01*
X021430Y035160D02*
X021755D01*
X021230Y035360D02*
X021430Y035160D01*
X021230Y035360D02*
Y037305D01*
X021535Y037610D01*
Y040615D01*
X021150Y041000D02*
X021535Y040615D01*
X025160Y034130D02*
X025390Y033900D01*
X025140Y045130D02*
X025160Y045110D01*
X030440Y047763D02*
X030445D01*
X029699Y045800D02*
X029900D01*
X029570Y045929D02*
X029699Y045800D01*
X029570Y045929D02*
Y046320D01*
X029670Y046420D01*
X030290D01*
X030440Y046270D01*
X026605Y048757D02*
Y049030D01*
X024800D02*
X026605D01*
X024589Y048819D02*
X024800Y049030D01*
X024589Y046531D02*
Y048819D01*
Y046531D02*
X025160Y045960D01*
Y034570D02*
X025600Y034130D01*
X021600Y036295D02*
Y036940D01*
X021665Y037005D01*
Y041515D01*
X022150Y042000D01*
X029420Y042235D02*
Y042298D01*
X029390D02*
Y042903D01*
X029520Y043033D01*
X029893D01*
X030060Y043200D01*
Y044240D01*
X030470Y044650D01*
X030450Y042935D02*
Y043600D01*
X030369Y042854D02*
X030450Y042935D01*
X030369Y042624D02*
Y042854D01*
Y042624D02*
X030405Y042588D01*
Y042235D02*
Y042588D01*
X033428Y040542D02*
X033450Y040520D01*
X032885Y040542D02*
X033428D01*
X038110Y041290D02*
X038500Y040900D01*
X037140Y041290D02*
X038110D01*
X036740Y041690D02*
X037140Y041290D01*
X034050Y041500D02*
X034260Y041290D01*
Y040320D02*
Y041290D01*
X033498Y039558D02*
X034260Y040320D01*
X032885Y039558D02*
X033498D01*
X031192Y037508D02*
X031610Y037090D01*
X031192Y037508D02*
Y037865D01*
X030798Y037448D02*
Y037865D01*
X030570Y037220D02*
X030798Y037448D01*
X027980Y038770D02*
X028515D01*
X027970Y038780D02*
X027980Y038770D01*
X032515Y040345D02*
X032885D01*
X032360Y040190D02*
X032515Y040345D01*
X032360Y040120D02*
Y040190D01*
X032885Y040148D02*
X033565D01*
X033812Y040395D01*
Y041572D01*
X034090Y041850D01*
X034670D01*
X029814Y041504D02*
Y042235D01*
X029610Y041300D02*
X029814Y041504D01*
X027450Y042670D02*
Y043600D01*
X030011Y042235D02*
Y042841D01*
X030240Y043070D01*
X032885Y041330D02*
X033300D01*
X033590Y041620D01*
Y041860D01*
X032885Y040936D02*
X033440D01*
X033600Y040776D01*
X036630Y038670D02*
Y040480D01*
Y038670D02*
X038150Y037150D01*
X032885Y039952D02*
X033591D01*
X034050Y040410D01*
X032885Y039164D02*
X033210D01*
Y039150D02*
X033760D01*
X034390Y039780D01*
Y041550D01*
X034480Y041640D01*
X034800D01*
X034880Y041720D01*
X036320D01*
X037140Y040900D01*
X037500D01*
X033130Y041994D02*
Y042160D01*
X033036Y041900D02*
X033130Y041994D01*
X032490Y041900D02*
X033036D01*
X031930Y041340D02*
X032490Y041900D01*
X031930Y038640D02*
Y041340D01*
Y038640D02*
X032040Y038530D01*
X032070D01*
X032180Y038420D01*
X033330D01*
Y038880D01*
X033243Y038967D02*
X033330Y038880D01*
X032885Y038967D02*
X033243D01*
X032127Y041157D02*
X032360Y041390D01*
X032127Y039113D02*
Y041157D01*
Y039113D02*
X032470Y038770D01*
X032885D01*
X031586Y037865D02*
Y040350D01*
X033305Y037585D02*
X033400Y037680D01*
X033305Y036900D02*
Y037585D01*
X033850Y038245D02*
X034130D01*
X028515Y039755D02*
X028880D01*
X029249Y040124D01*
X028400Y041970D02*
X028960D01*
X027030Y042200D02*
X028170D01*
X026660Y034200D02*
Y041830D01*
X025920Y033460D02*
X026660Y034200D01*
X029249Y040124D02*
Y040971D01*
X029089Y041131D02*
X029249Y040971D01*
X029089Y041131D02*
Y041841D01*
X028960Y041970D02*
X029089Y041841D01*
X028170Y042200D02*
X028400Y041970D01*
X026113Y039500D02*
Y041283D01*
X036915Y044425D02*
Y044929D01*
X036200Y043710D02*
X036915Y044425D01*
X031570Y041400D02*
Y041510D01*
X030430Y040260D02*
X031570Y041400D01*
X027888Y039920D02*
X027920Y039952D01*
X028515D01*
X032960Y032095D02*
X033130Y032265D01*
X028984Y040936D02*
X029030Y040890D01*
X028515Y040936D02*
X028984D01*
X028160Y041133D02*
X028515D01*
X027910Y041383D02*
X028160Y041133D01*
X027910Y041383D02*
Y041970D01*
X022639Y045456D02*
Y046150D01*
Y045456D02*
X022950Y045145D01*
X032779Y045309D02*
X033250D01*
X032678Y045208D02*
X032779Y045309D01*
X032678Y045120D02*
Y045208D01*
X032316Y044758D02*
X032678Y045120D01*
X031716Y044758D02*
X032316D01*
X031068Y045406D02*
X031716Y044758D01*
X030904Y045406D02*
X031068D01*
X035970Y044920D02*
Y044930D01*
X030798Y041840D02*
X030879Y041759D01*
X031308D01*
X031389Y041840D01*
Y042235D01*
X030798Y041848D02*
Y042235D01*
X029200Y036995D02*
X029795D01*
X030208Y037408D01*
Y037865D01*
X028515Y041330D02*
X028959D01*
Y041675D01*
X028750Y041760D02*
X028959Y041675D01*
X035430Y040550D02*
X035475Y040505D01*
Y039235D02*
Y040505D01*
Y039235D02*
X035620Y039090D01*
Y035130D02*
Y039090D01*
Y035130D02*
X036700Y034050D01*
X037760Y032990D01*
Y032175D02*
Y032990D01*
Y032175D02*
X038150Y032095D01*
X027558Y039558D02*
X028515D01*
X027460Y039460D02*
X027558Y039558D01*
X027460Y032520D02*
Y039460D01*
X026520Y031580D02*
X027460Y032520D01*
X024750Y031580D02*
X026520D01*
X024200Y032130D02*
X024750Y031580D01*
X024200Y038006D02*
X024400Y038206D01*
X026007Y043753D02*
X026245Y043990D01*
X026335Y042330D02*
X028254D01*
X025900Y041895D02*
X026335Y042330D01*
X025900Y038100D02*
Y041895D01*
X023640Y043265D02*
X024255D01*
Y043600D01*
X032885Y041526D02*
X033170D01*
Y041790D02*
X033340Y041960D01*
Y042331D01*
X033011Y042660D02*
X033340Y042331D01*
X032910Y042660D02*
X033011D01*
X029405Y045880D02*
X029682Y045603D01*
X029500Y047620D02*
Y047763D01*
Y047620D02*
X029666D01*
X029810Y047476D01*
X030194D01*
X030304Y047366D01*
Y046584D02*
Y047366D01*
X029405Y046584D02*
X030304D01*
X028200Y045755D02*
X028400D01*
X028060Y042524D02*
Y043770D01*
X027650Y043990D02*
Y044250D01*
X025920D02*
X027650D01*
X025500Y044670D02*
X025920Y044250D01*
X025500Y044670D02*
Y047250D01*
X027707Y047458D02*
X027830D01*
Y047250D02*
X027880Y047200D01*
X025610Y044150D02*
X025770Y043990D01*
X027840D02*
X028060Y043770D01*
X022150Y044445D02*
X022490D01*
X022540D01*
X022191Y035926D02*
X022540Y036275D01*
X021780Y035926D02*
X022191D01*
X021600Y035705D02*
X021780D01*
X027910Y040989D02*
X028160Y040739D01*
X028515D01*
X032176Y042120D02*
Y042235D01*
X030870Y042930D02*
Y042960D01*
X031050Y043140D01*
X031783Y041757D02*
Y042235D01*
Y041757D02*
X031810Y041730D01*
X034655Y042905D02*
Y043700D01*
X028515Y039361D02*
X028880D01*
X028960Y037920D02*
Y039281D01*
X024200Y034150D02*
X025290Y033060D01*
X024200Y034150D02*
Y038006D01*
X024400Y038206D02*
Y039500D01*
X025589Y031870D02*
Y033281D01*
X024538Y034332D02*
X025589Y033281D01*
X024538Y034332D02*
Y038020D01*
X030445Y048353D02*
X030660D01*
Y048770D01*
X030560Y048870D02*
X030660Y048770D01*
X029440Y048870D02*
X030560D01*
X029290Y048720D02*
X029440Y048870D01*
X029290Y048353D02*
Y048720D01*
Y048353D02*
X029500D01*
X028550Y046680D02*
Y047055D01*
Y046680D02*
X028612Y046618D01*
Y045280D02*
Y046618D01*
X028501Y045170D02*
X028612Y045280D01*
X025830Y045170D02*
X028501D01*
X025800Y045200D02*
X025830Y045170D01*
X025800Y045200D02*
Y046320D01*
X026548D01*
X026998Y046770D01*
Y047143D01*
X030697Y046007D02*
Y046010D01*
X029224Y042100D02*
Y042235D01*
X031980D02*
Y042640D01*
X032080Y042740D01*
X032572D01*
X032704Y042872D01*
X033628D01*
X033855Y042645D01*
Y042300D02*
Y042645D01*
X033495Y048000D02*
Y048350D01*
Y048000D02*
X033575Y047920D01*
X033830D01*
X033910Y047840D01*
Y043200D02*
Y047840D01*
X033712Y043002D02*
X033910Y043200D01*
X032574Y043002D02*
X033712D01*
X032442Y042870D02*
X032574Y043002D01*
X031776Y042870D02*
X032442D01*
X031586Y042679D02*
X031776Y042870D01*
X031586Y042235D02*
Y042679D01*
X031192Y042235D02*
Y042592D01*
X031601Y043000D01*
X032312D01*
X032444Y043132D01*
X032982D01*
X033450Y043600D01*
X027712Y040345D02*
X028515D01*
X027558Y040500D02*
X027712Y040345D01*
X027050Y040500D02*
X027558D01*
X028008Y040542D02*
X028515D01*
X027050Y041500D02*
X028008Y040542D01*
X030210Y041260D02*
X030798Y041848D01*
X030210Y039670D02*
Y041260D01*
X027670Y040130D02*
X027688Y040148D01*
X028515D01*
X031915Y046955D02*
X032100D01*
X031670Y046710D02*
X031915Y046955D01*
X033460Y047060D02*
Y047185D01*
X033445Y047200D02*
X033460Y047185D01*
X033445Y047200D02*
Y047550D01*
X031460Y046491D02*
X033250D01*
X031460D02*
Y046811D01*
X031520Y046871D01*
Y046955D01*
X031200D02*
X031520D01*
X030697Y044803D02*
Y045003D01*
Y044803D02*
X030740Y044760D01*
X031670Y045455D02*
X032100D01*
X033413Y041133D02*
X033530Y041250D01*
X032885Y041133D02*
X033413D01*
X029600Y042740D02*
X029617Y042723D01*
Y042235D02*
Y042723D01*
X030208Y041710D02*
Y042235D01*
X028400Y041526D02*
X028515D01*
X032885Y039361D02*
X033630D01*
X032521Y040739D02*
X032885D01*
X032360Y040900D02*
X032521Y040739D01*
X035690Y040120D02*
X035760Y040050D01*
Y036910D02*
Y040050D01*
Y036910D02*
X037390D01*
X038150Y036150D01*
X031389Y037865D02*
Y038871D01*
X031180Y039080D02*
X031389Y038871D01*
X030995Y037865D02*
Y038385D01*
X031155Y038545D01*
X032140Y038740D02*
X032306Y038574D01*
X032885D01*
X032380Y039460D02*
Y039565D01*
X032570Y039755D01*
X032885D01*
X031980Y043130D02*
X032450Y043600D01*
X031445Y043130D02*
X031980D01*
X030995Y042680D02*
X031445Y043130D01*
X030995Y042235D02*
Y042680D01*
X030602Y042235D02*
Y042780D01*
X029940Y046210D02*
X030000D01*
X030107Y046007D02*
Y046103D01*
X025104Y048750D02*
X025590D01*
X029224Y042235D02*
Y043096D01*
X029290Y043163D01*
X029703D01*
X029900Y043360D01*
Y045209D01*
X030445Y048156D02*
X030964D01*
X031180Y047940D01*
X030000Y046210D02*
X030107Y046103D01*
X030445Y047959D02*
X030600D01*
X030660Y047899D01*
Y047175D02*
Y047899D01*
Y047175D02*
X030880Y046955D01*
X031200D01*
X038500Y039900D02*
X038890Y040290D01*
Y043520D01*
X038420Y043990D02*
X038890Y043520D01*
X037400Y043990D02*
X038420D01*
X037230Y044160D02*
X037400Y043990D01*
X037230Y044160D02*
Y044929D01*
X036600D02*
Y045440D01*
X036520Y045520D02*
X036600Y045440D01*
X034560Y045520D02*
X036520D01*
X034210Y045170D02*
X034560Y045520D01*
X034210Y042595D02*
Y045170D01*
Y042595D02*
X034445Y042360D01*
Y042300D02*
Y042360D01*
X037985Y040415D02*
X038500Y039900D01*
X037095Y040415D02*
X037985D01*
X036740Y040770D02*
X037095Y040415D01*
X035405Y040770D02*
X036740D01*
X035295Y040880D02*
X035405Y040770D01*
X033495Y048350D02*
Y048640D01*
X033385Y048750D02*
X033495Y048640D01*
X032640Y048750D02*
X033385D01*
X032540Y048650D02*
X032640Y048750D01*
X032540Y047680D02*
Y048650D01*
X032405Y047545D02*
X032540Y047680D01*
X032100Y047545D02*
X032405D01*
X027195Y046345D02*
X027450D01*
X038150Y031505D02*
X038520D01*
X038540Y031525D01*
Y038860D01*
X037500Y039900D02*
X038540Y038860D01*
X028160Y038574D02*
X028515D01*
X028000Y038414D02*
X028160Y038574D01*
X028230Y039164D02*
X028515D01*
X028141Y039200D02*
X028230D01*
X028011Y039330D02*
X028141Y039200D01*
X027680Y039330D02*
X028011D01*
X027590Y039240D02*
X027680Y039330D01*
X027590Y032010D02*
Y039240D01*
X027210Y031630D02*
X027590Y032010D01*
X028170Y038967D02*
X028515D01*
X028100Y039070D02*
X028170Y039000D01*
X027850Y039070D02*
X028100D01*
X032600Y032095D02*
X032960D01*
X029420Y037865D02*
Y041028D01*
X029224Y041225D02*
X029420Y041028D01*
X022750Y041230D02*
X023750Y040230D01*
Y035880D02*
Y040230D01*
X028880Y039361D02*
X028960Y039281D01*
X026070Y034030D02*
Y036180D01*
X025710Y033670D02*
X026070Y034030D01*
X025710Y033340D02*
Y033670D01*
Y033340D02*
X025830Y033220D01*
Y033120D02*
Y033220D01*
X025390Y035630D02*
Y043500D01*
X022540Y038615D02*
X023255Y037900D01*
X022540Y038615D02*
Y044445D01*
X030545Y032925D02*
Y035900D01*
Y032925D02*
X031965Y031505D01*
X032600D01*
X032595Y033605D02*
Y034850D01*
Y033605D02*
X032840Y033360D01*
X027980Y036405D02*
X028350D01*
X027980D02*
Y037320D01*
X028160Y037500D01*
X029224D02*
Y037865D01*
X029955Y036600D02*
Y036965D01*
X030405Y037415D01*
Y037865D01*
X032176D02*
Y037890D01*
X033610Y037655D02*
X033850D01*
X030602Y037865D02*
Y038580D01*
X031240Y036300D02*
X032005Y035535D01*
X031783Y037447D02*
Y037865D01*
Y037447D02*
X031820Y037410D01*
Y036025D02*
Y037410D01*
Y036025D02*
X032005Y035840D01*
X021300Y033550D02*
X022000Y032850D01*
X028350Y036405D02*
X028520D01*
X025880Y047250D02*
X026290Y046840D01*
X026510D01*
X026605Y046935D01*
Y047143D01*
X029720Y045520D02*
X029803Y045603D01*
X029720Y045209D02*
Y045520D01*
Y045209D02*
X029900D01*
X024255Y043600D02*
Y044050D01*
X023750Y044555D02*
X024255Y044050D01*
X022950Y044555D02*
X023750D01*
X030208Y037865D02*
Y038310D01*
X029814D02*
X030208D01*
X029814Y037865D02*
Y038310D01*
X027195Y048757D02*
Y048945D01*
X027280Y049030D01*
X027815D01*
X028000Y048845D01*
X028550D01*
X036090Y033660D02*
X036700Y033050D01*
X035520Y033660D02*
X036090D01*
X035295Y033885D02*
X035520Y033660D01*
X035295Y033885D02*
Y038150D01*
X033105Y035655D02*
X033400D01*
X032595Y035145D02*
X033105Y035655D01*
X032595Y034850D02*
Y035145D01*
X034700Y033050D02*
X035025D01*
Y032630D02*
X036205Y031450D01*
X035700Y033050D02*
X036795Y031955D01*
Y031450D02*
Y031955D01*
X034170Y033520D02*
X034700Y034050D01*
X034170Y032320D02*
Y033520D01*
X033945Y032095D02*
X034170Y032320D01*
X033650Y032095D02*
X033945D01*
X024845Y043600D02*
Y044115D01*
X023890Y045070D02*
X024845Y044115D01*
X023890Y045070D02*
Y045750D01*
X031980Y036781D02*
X032460Y036300D01*
X031980Y036781D02*
Y037865D01*
X028200Y046345D02*
Y046610D01*
X028090Y046720D02*
X028200Y046610D01*
X028090Y046720D02*
Y047520D01*
X028215Y047645D01*
X028550D01*
X032040Y046045D02*
X032100D01*
X030904Y045800D02*
X032040D01*
X023820Y045750D02*
X023890D01*
X023030Y046540D02*
X023820Y045750D01*
X021651Y046540D02*
X023030D01*
X021261Y046150D02*
X021651Y046540D01*
X033360Y031505D02*
X033650D01*
X033280Y031585D02*
X033360Y031505D01*
X033280Y031585D02*
Y032590D01*
X033895Y033205D01*
Y036900D01*
X033650Y031190D02*
Y031505D01*
Y031190D02*
X033760Y031080D01*
X036795D01*
Y031450D01*
X030011Y037420D02*
Y037865D01*
X029617Y037420D02*
X030011D01*
X029617D02*
Y037865D01*
X028520Y036405D02*
X029200D01*
X029665Y036600D02*
X029955D01*
X029470Y036405D02*
X029665Y036600D01*
X029200Y036405D02*
X029470D01*
X029955Y035900D02*
Y036600D01*
X027450Y046345D02*
X028200D01*
X032855Y047215D02*
Y047550D01*
Y047215D02*
X033250Y046820D01*
Y046491D02*
Y046820D01*
X032905Y047970D02*
Y048350D01*
X032855Y047920D02*
X032905Y047970D01*
X032855Y047550D02*
Y047920D01*
X028217Y048255D02*
X028550D01*
X028030Y048442D02*
X028217Y048255D01*
X027707Y048442D02*
X028030D01*
X028550Y047645D02*
Y048255D01*
X021261Y045521D02*
Y046150D01*
X021150Y045410D02*
X021261Y045521D01*
X021150Y044800D02*
Y045410D01*
X021795Y048245D02*
X022250D01*
X021640Y048400D02*
X021795Y048245D01*
X021200Y048400D02*
X021640D01*
X022675Y048250D02*
X023096D01*
X022670Y048245D02*
X022675Y048250D01*
X022250Y048245D02*
X022670D01*
X023096Y048250D02*
Y048750D01*
X031200Y047545D02*
X032100D01*
X021675Y043855D02*
X022150D01*
X021620Y043800D02*
X021675Y043855D01*
X021150Y043800D02*
X021620D01*
X034705Y040825D02*
Y041200D01*
Y040825D02*
X034750Y040780D01*
Y040410D02*
Y040780D01*
Y038685D02*
Y039190D01*
X034705Y038640D02*
X034750Y038685D01*
X034705Y038150D02*
Y038640D01*
X032955Y036245D02*
X033400D01*
X032900Y036300D02*
X032955Y036245D01*
X032460Y036300D02*
X032900D01*
X028350Y036995D02*
X029200D01*
X037495Y031505D02*
X038150D01*
X037440Y031450D02*
X037495Y031505D01*
X036795Y031450D02*
X037440D01*
X033850Y037295D02*
Y037655D01*
Y037295D02*
X033895Y037250D01*
Y036900D02*
Y037250D01*
X029420Y037865D02*
X029617D01*
X030545Y035900D02*
Y036600D01*
X022599Y044555D02*
X022950D01*
X022490Y044445D02*
X022599Y044555D01*
X026925Y045755D02*
X027450D01*
X026920Y045750D02*
X026925Y045755D01*
X026410Y045750D02*
X026920D01*
X027450Y045755D02*
X028200D01*
X021200Y047400D02*
X021995D01*
X022250Y047655D01*
X022555D01*
X022650Y047750D01*
X023096D01*
Y047250D02*
Y047750D01*
X025104D02*
Y048250D01*
Y047250D02*
Y047750D01*
D28*
X036150Y037300D02*
D03*
X038150Y037150D02*
D03*
X027050Y041500D02*
D03*
X021300Y032550D02*
D03*
X038500Y039900D02*
D03*
X021150Y043800D02*
D03*
Y042000D02*
D03*
X021200Y048400D02*
D03*
D29*
X036150Y038300D02*
D03*
Y039300D02*
D03*
Y040300D02*
D03*
Y041300D02*
D03*
Y042300D02*
D03*
X032450Y043600D02*
D03*
X031450D02*
D03*
X030450D02*
D03*
X029450D02*
D03*
X028450D02*
D03*
X027450D02*
D03*
X026450D02*
D03*
X038150Y036150D02*
D03*
X027050Y037500D02*
D03*
Y038500D02*
D03*
Y039500D02*
D03*
Y040500D02*
D03*
X021300Y033550D02*
D03*
X032000Y033650D02*
D03*
X031000D02*
D03*
X030000D02*
D03*
X034700Y033050D02*
D03*
Y034050D02*
D03*
X035700Y033050D02*
D03*
Y034050D02*
D03*
X036700Y033050D02*
D03*
X037500Y039900D02*
D03*
X038500Y040900D02*
D03*
X037500D02*
D03*
X038500Y041900D02*
D03*
X037500D02*
D03*
X038500Y042900D02*
D03*
X037500D02*
D03*
X021150Y044800D02*
D03*
X022150Y042000D02*
D03*
X021150Y041000D02*
D03*
X022150D02*
D03*
X021150Y040000D02*
D03*
X022150D02*
D03*
X021150Y039000D02*
D03*
X022150D02*
D03*
X021150Y038000D02*
D03*
X022150D02*
D03*
X021200Y047400D02*
D03*
D30*
X031240Y036300D02*
D03*
X032460D02*
D03*
X034750Y039190D02*
D03*
Y040410D02*
D03*
D31*
X028920Y042950D02*
D03*
Y042470D02*
D03*
X024612Y041518D02*
D03*
X024830Y041800D02*
D03*
X024190Y038420D02*
D03*
X023990Y034310D02*
D03*
X026340Y040000D02*
D03*
X022050Y035710D02*
D03*
X023990Y034600D02*
D03*
X022050Y035455D02*
D03*
X025390Y033900D02*
D03*
X025140Y045130D02*
D03*
X030440Y046270D02*
D03*
X025600Y034130D02*
D03*
X030470Y044650D02*
D03*
X033450Y040520D02*
D03*
X036740Y041690D02*
D03*
X034050Y041500D02*
D03*
X031610Y037090D02*
D03*
X030570Y037220D02*
D03*
X027970Y038780D02*
D03*
X032360Y040120D02*
D03*
X034670Y041850D02*
D03*
X029610Y041300D02*
D03*
X027450Y042670D02*
D03*
X030240Y043070D02*
D03*
X033590Y041860D02*
D03*
X033600Y040776D02*
D03*
X036630Y040480D02*
D03*
X034050Y040410D02*
D03*
X033130Y042160D02*
D03*
X032360Y041390D02*
D03*
X031586Y040350D02*
D03*
X033400Y037680D02*
D03*
X034130Y038840D02*
D03*
X025920Y033460D02*
D03*
X026113Y039500D02*
D03*
X036200Y043710D02*
D03*
X031570Y041510D02*
D03*
X030430Y040260D02*
D03*
X027888Y039920D02*
D03*
X033130Y035070D02*
D03*
X029030Y040890D02*
D03*
X027910Y041970D02*
D03*
X035420Y044920D02*
D03*
X031670Y046710D02*
D03*
X028750Y041760D02*
D03*
X035430Y040550D02*
D03*
X026007Y043753D02*
D03*
X025900Y038100D02*
D03*
X023640Y043265D02*
D03*
X032910Y042660D02*
D03*
X031390Y048353D02*
D03*
X027880Y047200D02*
D03*
X025610Y044150D02*
D03*
X027910Y040989D02*
D03*
X032620Y042120D02*
D03*
X030870Y042930D02*
D03*
X031810Y041730D02*
D03*
X034655Y042905D02*
D03*
X028960Y037920D02*
D03*
X025290Y033060D02*
D03*
X024400Y039500D02*
D03*
X025589Y031870D02*
D03*
X024538Y038020D02*
D03*
X028400Y045380D02*
D03*
X031290Y046010D02*
D03*
X028060Y044230D02*
D03*
X030210Y039670D02*
D03*
X027670Y040130D02*
D03*
X033460Y047060D02*
D03*
X030740Y044760D02*
D03*
X031670Y045455D02*
D03*
X033530Y041250D02*
D03*
X029600Y042740D02*
D03*
X030208Y041710D02*
D03*
X028400Y041760D02*
D03*
X033630Y039361D02*
D03*
X032360Y040900D02*
D03*
X035690Y040120D02*
D03*
X031180Y039080D02*
D03*
X031155Y038545D02*
D03*
X032140Y038740D02*
D03*
X032380Y039460D02*
D03*
X030602Y042780D02*
D03*
X025910Y048670D02*
D03*
X029940Y046210D02*
D03*
X025590Y048750D02*
D03*
X031180Y047940D02*
D03*
X028000Y038414D02*
D03*
X027210Y031630D02*
D03*
X027850Y039070D02*
D03*
X033130Y033590D02*
D03*
X022750Y041230D02*
D03*
X023750Y035880D02*
D03*
X026070Y036180D02*
D03*
X025830Y033120D02*
D03*
X025390Y035630D02*
D03*
Y043500D02*
D03*
X023255Y037900D02*
D03*
X032840Y033360D02*
D03*
X030602Y038580D02*
D03*
X022000Y032850D02*
D03*
X028520Y035100D02*
D03*
D32*
X026664Y048186D02*
D03*
X027136D02*
D03*
X026664Y047714D02*
D03*
X027136D02*
D03*
M02*
