%FSAX24Y24*%
%MOIN*%
G70*
G01*
G75*
G04 Layer_Color=2752767*
%ADD10R,0.0512X0.0591*%
%ADD11R,0.0472X0.0551*%
%ADD12R,0.0984X0.0787*%
%ADD13R,0.1063X0.0197*%
%ADD14O,0.0709X0.0236*%
%ADD15R,0.0551X0.0472*%
%ADD16R,0.1024X0.0945*%
%ADD17R,0.0512X0.0709*%
%ADD18O,0.0709X0.0114*%
%ADD19O,0.0114X0.0709*%
%ADD20C,0.0200*%
%ADD21C,0.0100*%
%ADD22C,0.0591*%
%ADD23R,0.0591X0.0591*%
%ADD24C,0.0551*%
%ADD25R,0.0591X0.0591*%
%ADD26C,0.0350*%
%ADD27O,0.0866X0.0236*%
%ADD28R,0.0591X0.0512*%
%ADD29C,0.0050*%
%ADD30C,0.0067*%
D29*
X022500Y034200D02*
Y034600D01*
X022900D01*
Y034200D01*
X022500D01*
X021500D02*
Y034600D01*
X021900D01*
Y034200D01*
X021500D01*
X022500Y035200D02*
Y035600D01*
X022900D01*
Y035200D01*
X022500D01*
X021500D02*
Y035600D01*
X021900D01*
Y035200D01*
X021500D01*
X022500Y036200D02*
Y036600D01*
X022900D01*
Y036200D01*
X022500D01*
X021500D02*
Y036600D01*
X021900D01*
Y036200D01*
X021500D01*
X022500Y037200D02*
Y037600D01*
X022900D01*
Y037200D01*
X022500D01*
X021500D02*
Y037600D01*
X021900D01*
Y037200D01*
X021500D01*
X023850Y051850D02*
Y052250D01*
X024250D01*
Y051850D01*
X023850D01*
X022850D02*
Y052250D01*
X023250D01*
Y051850D01*
X022850D01*
X023850Y052850D02*
Y053250D01*
X024250D01*
Y052850D01*
X023850D01*
X022850D02*
Y053250D01*
X023250D01*
Y052850D01*
X022850D01*
X023850Y053850D02*
Y054250D01*
X024250D01*
Y053850D01*
X023850D01*
X022850D02*
Y054250D01*
X023250D01*
Y053850D01*
X022850D01*
X056800Y054000D02*
Y054400D01*
X057200D01*
Y054000D01*
X056800D01*
Y053000D02*
Y053400D01*
X057200D01*
Y053000D01*
X056800D01*
X031800Y058400D02*
Y058800D01*
X032200D01*
Y058400D01*
X031800D01*
Y059400D02*
Y059800D01*
X032200D01*
Y059400D01*
X031800D01*
X039800Y038800D02*
Y039200D01*
X040200D01*
Y038800D01*
X039800D01*
X040800D02*
Y039200D01*
X041200D01*
Y038800D01*
X040800D01*
X039800Y037800D02*
Y038200D01*
X040200D01*
Y037800D01*
X039800D01*
X040800D02*
Y038200D01*
X041200D01*
Y037800D01*
X040800D01*
X039800Y036800D02*
Y037200D01*
X040200D01*
Y036800D01*
X039800D01*
X040800D02*
Y037200D01*
X041200D01*
Y036800D01*
X040800D01*
X039800Y035800D02*
Y036200D01*
X040200D01*
Y035800D01*
X039800D01*
X040800D02*
Y036200D01*
X041200D01*
Y035800D01*
X040800D01*
X039800Y034800D02*
Y035200D01*
X040200D01*
Y034800D01*
X039800D01*
X040800D02*
Y035200D01*
X041200D01*
Y034800D01*
X040800D01*
X038500Y031550D02*
Y031950D01*
X038900D01*
Y031550D01*
X038500D01*
Y032550D02*
Y032950D01*
X038900D01*
Y032550D01*
X038500D01*
X039500Y031550D02*
Y031950D01*
X039900D01*
Y031550D01*
X039500D01*
Y032550D02*
Y032950D01*
X039900D01*
Y032550D01*
X039500D01*
X040500Y031550D02*
Y031950D01*
X040900D01*
Y031550D01*
X040500D01*
Y032550D02*
Y032950D01*
X040900D01*
Y032550D01*
X040500D01*
X041500Y031550D02*
Y031950D01*
X041900D01*
Y031550D01*
X041500D01*
Y032550D02*
Y032950D01*
X041900D01*
Y032550D01*
X041500D01*
X042500Y031550D02*
Y031950D01*
X042900D01*
Y031550D01*
X042500D01*
Y032550D02*
Y032950D01*
X042900D01*
Y032550D01*
X042500D01*
X049900Y031600D02*
Y032000D01*
X050300D01*
Y031600D01*
X049900D01*
Y032600D02*
Y033000D01*
X050300D01*
Y032600D01*
X049900D01*
X058250Y031600D02*
Y032000D01*
X058650D01*
Y031600D01*
X058250D01*
Y032600D02*
Y033000D01*
X058650D01*
Y032600D01*
X058250D01*
X022800Y067800D02*
Y068200D01*
X023200D01*
Y067800D01*
X022800D01*
Y066800D02*
Y067200D01*
X023200D01*
Y066800D01*
X022800D01*
X031200Y054300D02*
Y054700D01*
X031600D01*
Y054300D01*
X031200D01*
X032200D02*
Y054700D01*
X032600D01*
Y054300D01*
X032200D01*
X031200Y053300D02*
Y053700D01*
X031600D01*
Y053300D01*
X031200D01*
X032200D02*
Y053700D01*
X032600D01*
Y053300D01*
X032200D01*
X031200Y052300D02*
Y052700D01*
X031600D01*
Y052300D01*
X031200D01*
X032200D02*
Y052700D01*
X032600D01*
Y052300D01*
X032200D01*
X031200Y051300D02*
Y051700D01*
X031600D01*
Y051300D01*
X031200D01*
X032200D02*
Y051700D01*
X032600D01*
Y051300D01*
X032200D01*
X031200Y050300D02*
Y050700D01*
X031600D01*
Y050300D01*
X031200D01*
X032200D02*
Y050700D01*
X032600D01*
Y050300D01*
X032200D01*
X031200Y049300D02*
Y049700D01*
X031600D01*
Y049300D01*
X031200D01*
X032200D02*
Y049700D01*
X032600D01*
Y049300D01*
X032200D01*
X031200Y048300D02*
Y048700D01*
X031600D01*
Y048300D01*
X031200D01*
X032200D02*
Y048700D01*
X032600D01*
Y048300D01*
X032200D01*
X031200Y047300D02*
Y047700D01*
X031600D01*
Y047300D01*
X031200D01*
X032200D02*
Y047700D01*
X032600D01*
Y047300D01*
X032200D01*
X036800Y042300D02*
Y042700D01*
X037200D01*
Y042300D01*
X036800D01*
Y043300D02*
Y043700D01*
X037200D01*
Y043300D01*
X036800D01*
X037800Y042300D02*
Y042700D01*
X038200D01*
Y042300D01*
X037800D01*
Y043300D02*
Y043700D01*
X038200D01*
Y043300D01*
X037800D01*
X038800Y042300D02*
Y042700D01*
X039200D01*
Y042300D01*
X038800D01*
Y043300D02*
Y043700D01*
X039200D01*
Y043300D01*
X038800D01*
X039800Y042300D02*
Y042700D01*
X040200D01*
Y042300D01*
X039800D01*
Y043300D02*
Y043700D01*
X040200D01*
Y043300D01*
X039800D01*
X040800Y042300D02*
Y042700D01*
X041200D01*
Y042300D01*
X040800D01*
Y043300D02*
Y043700D01*
X041200D01*
Y043300D01*
X040800D01*
X041800Y042300D02*
Y042700D01*
X042200D01*
Y042300D01*
X041800D01*
Y043300D02*
Y043700D01*
X042200D01*
Y043300D01*
X041800D01*
X042800Y042300D02*
Y042700D01*
X043200D01*
Y042300D01*
X042800D01*
Y043300D02*
Y043700D01*
X043200D01*
Y043300D01*
X042800D01*
X043800Y042300D02*
Y042700D01*
X044200D01*
Y042300D01*
X043800D01*
Y043300D02*
Y043700D01*
X044200D01*
Y043300D01*
X043800D01*
X050050Y047700D02*
Y048100D01*
X050450D01*
Y047700D01*
X050050D01*
X049050D02*
Y048100D01*
X049450D01*
Y047700D01*
X049050D01*
X050050Y048700D02*
Y049100D01*
X050450D01*
Y048700D01*
X050050D01*
X049050D02*
Y049100D01*
X049450D01*
Y048700D01*
X049050D01*
X050050Y049700D02*
Y050100D01*
X050450D01*
Y049700D01*
X050050D01*
X049050D02*
Y050100D01*
X049450D01*
Y049700D01*
X049050D01*
X050050Y050700D02*
Y051100D01*
X050450D01*
Y050700D01*
X050050D01*
X049050D02*
Y051100D01*
X049450D01*
Y050700D01*
X049050D01*
X050050Y051700D02*
Y052100D01*
X050450D01*
Y051700D01*
X050050D01*
X049050D02*
Y052100D01*
X049450D01*
Y051700D01*
X049050D01*
X050050Y052700D02*
Y053100D01*
X050450D01*
Y052700D01*
X050050D01*
X049050D02*
Y053100D01*
X049450D01*
Y052700D01*
X049050D01*
X050050Y053700D02*
Y054100D01*
X050450D01*
Y053700D01*
X050050D01*
X049050D02*
Y054100D01*
X049450D01*
Y053700D01*
X049050D01*
X050050Y054700D02*
Y055100D01*
X050450D01*
Y054700D01*
X050050D01*
X049050D02*
Y055100D01*
X049450D01*
Y054700D01*
X049050D01*
X043800Y059150D02*
Y059550D01*
X044200D01*
Y059150D01*
X043800D01*
Y058150D02*
Y058550D01*
X044200D01*
Y058150D01*
X043800D01*
X042800Y059150D02*
Y059550D01*
X043200D01*
Y059150D01*
X042800D01*
Y058150D02*
Y058550D01*
X043200D01*
Y058150D01*
X042800D01*
X041800Y059150D02*
Y059550D01*
X042200D01*
Y059150D01*
X041800D01*
Y058150D02*
Y058550D01*
X042200D01*
Y058150D01*
X041800D01*
X040800Y059150D02*
Y059550D01*
X041200D01*
Y059150D01*
X040800D01*
Y058150D02*
Y058550D01*
X041200D01*
Y058150D01*
X040800D01*
X039800Y059150D02*
Y059550D01*
X040200D01*
Y059150D01*
X039800D01*
Y058150D02*
Y058550D01*
X040200D01*
Y058150D01*
X039800D01*
X038800Y059150D02*
Y059550D01*
X039200D01*
Y059150D01*
X038800D01*
Y058150D02*
Y058550D01*
X039200D01*
Y058150D01*
X038800D01*
X037800Y059150D02*
Y059550D01*
X038200D01*
Y059150D01*
X037800D01*
Y058150D02*
Y058550D01*
X038200D01*
Y058150D01*
X037800D01*
X036800Y059150D02*
Y059550D01*
X037200D01*
Y059150D01*
X036800D01*
Y058150D02*
Y058550D01*
X037200D01*
Y058150D01*
X036800D01*
X021600Y051400D02*
X021400Y051800D01*
X021800D01*
X021600Y051400D01*
X033600Y060100D02*
X033400Y060500D01*
X033800D01*
X033600Y060100D01*
X057200Y031050D02*
X057000Y031450D01*
X057400D01*
X057200Y031050D01*
X034900Y046900D02*
X034700Y047300D01*
X035100D01*
X034900Y046900D01*
X023750Y056200D02*
X023550Y056600D01*
X023950D01*
X023750Y056200D01*
X038300Y035800D02*
X038100Y036200D01*
X038500D01*
X038300Y035800D01*
X028850Y037550D02*
X028650Y037950D01*
X029050D01*
X028850Y037550D01*
X028800Y038250D02*
X028600Y038650D01*
X029000D01*
X028800Y038250D01*
X035450Y043950D02*
X035250Y044350D01*
X035650D01*
X035450Y043950D01*
X038950Y046750D02*
X038750Y047150D01*
X039150D01*
X038950Y046750D01*
X037250Y053750D02*
X037050Y054150D01*
X037450D01*
X037250Y053750D01*
X025750Y053050D02*
X025550Y053450D01*
X025950D01*
X025750Y053050D01*
X051400Y052250D02*
X051200Y052650D01*
X051600D01*
X051400Y052250D01*
X048000Y046300D02*
X047800Y046700D01*
X048200D01*
X048000Y046300D01*
X049050Y045350D02*
X048850Y045750D01*
X049250D01*
X049050Y045350D01*
X048050Y044750D02*
X047850Y045150D01*
X048250D01*
X048050Y044750D01*
X045900Y044100D02*
X045700Y044500D01*
X046100D01*
X045900Y044100D01*
X034400Y031900D02*
X034200Y032300D01*
X034600D01*
X034400Y031900D01*
X034450Y039350D02*
X034250Y039750D01*
X034650D01*
X034450Y039350D01*
X036750Y040000D02*
X036550Y040400D01*
X036950D01*
X036750Y040000D01*
X030150Y043200D02*
X029950Y043600D01*
X030350D01*
X030150Y043200D01*
X030850Y040900D02*
X030650Y041300D01*
X031050D01*
X030850Y040900D01*
X028700Y034550D02*
X028500Y034950D01*
X028900D01*
X028700Y034550D01*
X038600Y034800D02*
X038400Y035200D01*
X038800D01*
X038600Y034800D01*
X034150Y037250D02*
X033950Y037650D01*
X034350D01*
X034150Y037250D01*
X038850Y036800D02*
X038650Y037200D01*
X039050D01*
X038850Y036800D01*
X043800Y039600D02*
X043600Y040000D01*
X044000D01*
X043800Y039600D01*
X047350Y040400D02*
X047150Y040800D01*
X047550D01*
X047350Y040400D01*
X053300Y041450D02*
X053100Y041850D01*
X053500D01*
X053300Y041450D01*
X047350Y038700D02*
X047150Y039100D01*
X047550D01*
X047350Y038700D01*
X042100Y036800D02*
X041900Y037200D01*
X042300D01*
X042100Y036800D01*
X047700Y036000D02*
X047500Y036400D01*
X047900D01*
X047700Y036000D01*
X042750Y035800D02*
X042550Y036200D01*
X042950D01*
X042750Y035800D01*
X043450Y037350D02*
X043250Y037750D01*
X043650D01*
X043450Y037350D01*
X054150Y035000D02*
X053950Y035400D01*
X054350D01*
X054150Y035000D01*
X052200Y032800D02*
X052000Y033200D01*
X052400D01*
X052200Y032800D01*
X048750Y032650D02*
X048550Y033050D01*
X048950D01*
X048750Y032650D01*
X049200Y035150D02*
X049000Y035550D01*
X049400D01*
X049200Y035150D01*
X047700Y032450D02*
X047500Y032850D01*
X047900D01*
X047700Y032450D01*
X046600Y031700D02*
X046400Y032100D01*
X046800D01*
X046600Y031700D01*
X056900Y040400D02*
X056700Y040800D01*
X057100D01*
X056900Y040400D01*
X044800Y055300D02*
X044600Y055700D01*
X045000D01*
X044800Y055300D01*
X057183Y067116D02*
Y067516D01*
X057583D01*
Y067116D01*
X057183D01*
Y065384D02*
Y065784D01*
X057583D01*
Y065384D01*
X057183D01*
X036550Y053000D02*
X036350Y053400D01*
X036750D01*
X036550Y053000D01*
X024550Y067800D02*
X024350Y068200D01*
X024750D01*
X024550Y067800D01*
X024600Y066750D02*
X024400Y067150D01*
X024800D01*
X024600Y066750D01*
X028700Y052300D02*
X028500Y052700D01*
X028900D01*
X028700Y052300D01*
X053850Y054100D02*
X053650Y054500D01*
X054050D01*
X053850Y054100D01*
X054950Y053100D02*
X054750Y053500D01*
X055150D01*
X054950Y053100D01*
X049350Y038050D02*
X049150Y038450D01*
X049550D01*
X049350Y038050D01*
X049400Y037050D02*
X049200Y037450D01*
X049600D01*
X049400Y037050D01*
X047450Y039500D02*
X047250Y039900D01*
X047650D01*
X047450Y039500D01*
X051150Y034700D02*
X050950Y035100D01*
X051350D01*
X051150Y034700D01*
X030850Y034100D02*
X030650Y034500D01*
X031050D01*
X030850Y034100D01*
X029650Y033100D02*
X029450Y033500D01*
X029850D01*
X029650Y033100D01*
X029700Y036950D02*
X029500Y037350D01*
X029900D01*
X029700Y036950D01*
X021400Y060800D02*
X021200Y061200D01*
X021600D01*
X021400Y060800D01*
X035600Y040700D02*
X035400Y041100D01*
X035800D01*
X035600Y040700D01*
X033450Y061950D02*
X033250Y062350D01*
X033650D01*
X033450Y061950D01*
X033400Y063800D02*
X033200Y064200D01*
X033600D01*
X033400Y063800D01*
X053900Y068450D02*
X053700Y068850D01*
X054100D01*
X053900Y068450D01*
X024700Y035250D02*
X024500Y035650D01*
X024900D01*
X024700Y035250D01*
X025600Y046400D02*
X025400Y046800D01*
X025800D01*
X025600Y046400D01*
X048050Y047650D02*
X047850Y048050D01*
X048250D01*
X048050Y047650D01*
X036850Y048850D02*
X036650Y049250D01*
X037050D01*
X036850Y048850D01*
X021650Y038650D02*
X021450Y039050D01*
X021850D01*
X021650Y038650D01*
X023750D02*
X023550Y039050D01*
X023950D01*
X023750Y038650D01*
X054200Y037500D02*
X054000Y037900D01*
X054400D01*
X054200Y037500D01*
X041800Y040550D02*
X041600Y040950D01*
X042000D01*
X041800Y040550D01*
X033200Y034200D02*
X033000Y034600D01*
X033400D01*
X033200Y034200D01*
X034600Y035250D02*
X034400Y035650D01*
X034800D01*
X034600Y035250D01*
X034350Y034350D02*
X034150Y034750D01*
X034550D01*
X034350Y034350D01*
X029950Y039250D02*
X029750Y039650D01*
X030150D01*
X029950Y039250D01*
X026200Y032800D02*
X026000Y033200D01*
X026400D01*
X026200Y032800D01*
X038650Y037800D02*
X038450Y038200D01*
X038850D01*
X038650Y037800D01*
X023950Y063250D02*
X023750Y063650D01*
X024150D01*
X023950Y063250D01*
D30*
X053300Y051261D02*
G03*
X053300Y051261I-000200J000000D01*
G01*
Y049339D02*
G03*
X053300Y049339I-000200J000000D01*
G01*
X047700Y043394D02*
G03*
X047700Y043394I-000200J000000D01*
G01*
Y042606D02*
G03*
X047700Y042606I-000200J000000D01*
G01*
M02*
