M48
;Layer_Color=9474304
;FILE_FORMAT=2:4
INCH
;TYPE=PLATED
T1F00S00C0.0250
T2F00S00C0.0315
T3F00S00C0.0354
%
T01
X026200Y033000
X029650Y033300
X030850Y034300
X028700Y034750
X028850Y037750
X028800Y038450
X029950Y039450
X030850Y041100
X030150Y043400
X029700Y037150
X024700Y035450
X023750Y038850
X021650
X025600Y046600
X035450Y044150
X035600Y040900
X036750Y040200
X034450Y039550
X034150Y037450
X034600Y035450
X034350Y034550
X033200Y034400
X034400Y032100
X038600Y035000
X038300Y036000
X038850Y037000
X038650Y038000
X042100Y037000
X042750Y036000
X043450Y037550
X043800Y039800
X041800Y040750
X045900Y044300
X046600Y031900
X047700Y032650
X048750Y032850
X049200Y035350
X049400Y037250
X049350Y038250
X047350Y038900
X047450Y039700
X047350Y040600
X047700Y036200
X051150Y034900
X052200Y033000
X054150Y035200
X054200Y037700
X053300Y041650
X056900Y040600
X057200Y031250
X049050Y045550
X048050Y044950
X048000Y046500
X048050Y047850
X051400Y052450
X053850Y054300
X054950Y053300
X044800Y055500
X037250Y053950
X036550Y053200
X036850Y049050
X034900Y047100
X038950Y046950
X033600Y060300
X033450Y062150
X021400Y061000
X023750Y056400
X025750Y053250
X028700Y052500
X021600Y051600
X023950Y063450
X024600Y066950
X024550Y068000
X033400Y064000
X053900Y068650
T02
X047500Y042606
Y043394
X053100Y049339
Y051261
T03
X021700Y034400
X022700
Y035400
X021700
Y036400
X022700
Y037400
X021700
X040000Y037000
Y038000
Y039000
X041000
Y038000
Y037000
Y036000
X040000
Y035000
X041000
X040700Y032750
X039700
X038700
Y031750
X039700
X040700
X041700
Y032750
X042700
Y031750
X043000Y042500
X042000
X041000
X040000
X039000
X038000
X037000
Y043500
X038000
X039000
X040000
X041000
X042000
X043000
X044000
Y042500
X050100Y032800
Y031800
X058450
Y032800
X057000Y053200
Y054200
X050250Y053900
Y052900
Y051900
Y050900
Y049900
Y048900
Y047900
X049250
Y048900
Y049900
Y050900
Y051900
Y052900
Y053900
Y054900
X050250
X044000Y058350
Y059350
X043000
Y058350
X042000
Y059350
X041000
Y058350
X040000
Y059350
X039000
Y058350
X038000
Y059350
X037000
Y058350
X032000Y058600
Y059600
X032400Y054500
X031400
Y053500
X032400
Y052500
X031400
Y051500
X032400
Y050500
X031400
Y049500
X032400
Y048500
X031400
Y047500
X032400
X024050Y052050
X023050
Y053050
X024050
Y054050
X023050
X023000Y067000
Y068000
X057383Y067316
Y065584
M30
