%FSAX24Y24*%
%MOIN*%
G70*
G01*
G75*
%ADD10R,0.0177X0.0118*%
%ADD11R,0.0118X0.0177*%
%ADD12O,0.0118X0.0709*%
%ADD13O,0.0709X0.0118*%
%ADD14R,0.0197X0.0925*%
%ADD15R,0.0925X0.0984*%
%ADD16R,0.0591X0.0591*%
%ADD17R,0.0551X0.0433*%
%ADD18R,0.1024X0.0945*%
%ADD19R,0.0433X0.0551*%
%ADD20R,0.0866X0.0787*%
%ADD21R,0.0236X0.0126*%
%ADD22R,0.0126X0.0236*%
%ADD23O,0.0354X0.0118*%
%ADD24O,0.0118X0.0354*%
%ADD25R,0.1024X0.1024*%
%ADD26O,0.0591X0.0236*%
%ADD27C,0.0080*%
%ADD28R,0.0591X0.0591*%
%ADD29C,0.0591*%
%ADD30C,0.0512*%
%ADD31C,0.0240*%
%ADD32C,0.0260*%
%ADD33O,0.0984X0.0276*%
D10*
X029900Y045800D02*
D03*
Y045603D02*
D03*
Y045406D02*
D03*
Y045209D02*
D03*
X030904D02*
D03*
Y045406D02*
D03*
Y045603D02*
D03*
Y045800D02*
D03*
D11*
X030107Y045003D02*
D03*
X030304D02*
D03*
X030500D02*
D03*
X030697D02*
D03*
Y046007D02*
D03*
X030500D02*
D03*
X030304D02*
D03*
X030107D02*
D03*
D12*
X029224Y042235D02*
D03*
X029420D02*
D03*
X029617D02*
D03*
X029814D02*
D03*
X030011D02*
D03*
X030208D02*
D03*
X030405D02*
D03*
X030602D02*
D03*
X030798D02*
D03*
X030995D02*
D03*
X031192D02*
D03*
X031389D02*
D03*
X031586D02*
D03*
X031783D02*
D03*
X031980D02*
D03*
X032176D02*
D03*
Y037865D02*
D03*
X031980D02*
D03*
X031783D02*
D03*
X031586D02*
D03*
X031389D02*
D03*
X031192D02*
D03*
X030995D02*
D03*
X030798D02*
D03*
X030602D02*
D03*
X030405D02*
D03*
X030208D02*
D03*
X030011D02*
D03*
X029814D02*
D03*
X029617D02*
D03*
X029420D02*
D03*
X029224D02*
D03*
D13*
X032885Y041526D02*
D03*
Y041330D02*
D03*
Y041133D02*
D03*
Y040936D02*
D03*
Y040739D02*
D03*
Y040542D02*
D03*
Y040345D02*
D03*
Y040148D02*
D03*
Y039952D02*
D03*
Y039755D02*
D03*
Y039558D02*
D03*
Y039361D02*
D03*
Y039164D02*
D03*
Y038967D02*
D03*
Y038770D02*
D03*
Y038574D02*
D03*
X028515D02*
D03*
Y038770D02*
D03*
Y038967D02*
D03*
Y039164D02*
D03*
Y039361D02*
D03*
Y039558D02*
D03*
Y039755D02*
D03*
Y039952D02*
D03*
Y040148D02*
D03*
Y040345D02*
D03*
Y040542D02*
D03*
Y040739D02*
D03*
Y040936D02*
D03*
Y041133D02*
D03*
Y041330D02*
D03*
Y041526D02*
D03*
D14*
X035970Y044930D02*
D03*
X036285Y044929D02*
D03*
X036600D02*
D03*
X037230D02*
D03*
X036915D02*
D03*
D15*
X034563Y047971D02*
D03*
X038637D02*
D03*
X034563Y046297D02*
D03*
X038637D02*
D03*
D16*
X021261Y046150D02*
D03*
X022639D02*
D03*
X033450Y043600D02*
D03*
X029000Y033650D02*
D03*
X036700Y034050D02*
D03*
D17*
X022250Y048245D02*
D03*
Y047655D02*
D03*
X022950Y044555D02*
D03*
Y045145D02*
D03*
X032100Y045455D02*
D03*
Y046045D02*
D03*
X021600Y035705D02*
D03*
Y036295D02*
D03*
X028550Y047645D02*
D03*
Y047055D02*
D03*
Y048255D02*
D03*
Y048845D02*
D03*
X027450Y046345D02*
D03*
Y045755D02*
D03*
X028200Y046345D02*
D03*
Y045755D02*
D03*
X032100Y046955D02*
D03*
Y047545D02*
D03*
X031200D02*
D03*
Y046955D02*
D03*
X022150Y044445D02*
D03*
Y043855D02*
D03*
X033650Y031505D02*
D03*
Y032095D02*
D03*
X032600Y031505D02*
D03*
Y032095D02*
D03*
X038150Y031505D02*
D03*
Y032095D02*
D03*
X033400Y035655D02*
D03*
Y036245D02*
D03*
X033850Y038245D02*
D03*
Y037655D02*
D03*
X029200Y036405D02*
D03*
Y036995D02*
D03*
X028350Y036405D02*
D03*
Y036995D02*
D03*
D18*
X023890Y045750D02*
D03*
X026410D02*
D03*
D19*
X029995Y046950D02*
D03*
X029405D02*
D03*
X024845Y043600D02*
D03*
X024255D02*
D03*
X033445Y047550D02*
D03*
X032855D02*
D03*
X033495Y048350D02*
D03*
X032905D02*
D03*
X035245Y043700D02*
D03*
X034655D02*
D03*
X036795Y031450D02*
D03*
X036205D02*
D03*
X034445Y042300D02*
D03*
X033855D02*
D03*
X032595Y034850D02*
D03*
X032005D02*
D03*
X035295Y041200D02*
D03*
X034705D02*
D03*
X035295Y038150D02*
D03*
X034705D02*
D03*
X033305Y036900D02*
D03*
X033895D02*
D03*
X029955Y036600D02*
D03*
X030545D02*
D03*
X029955Y035900D02*
D03*
X030545D02*
D03*
D20*
X033250Y045309D02*
D03*
Y046491D02*
D03*
D21*
X029500Y047763D02*
D03*
Y047959D02*
D03*
Y048156D02*
D03*
Y048353D02*
D03*
Y048550D02*
D03*
X030445Y047763D02*
D03*
Y047959D02*
D03*
Y048156D02*
D03*
Y048353D02*
D03*
Y048550D02*
D03*
D22*
X029972Y048629D02*
D03*
Y047684D02*
D03*
D23*
X026093Y048442D02*
D03*
Y048245D02*
D03*
Y048048D02*
D03*
Y047852D02*
D03*
Y047655D02*
D03*
Y047458D02*
D03*
X027707D02*
D03*
Y047655D02*
D03*
Y047852D02*
D03*
Y048048D02*
D03*
Y048245D02*
D03*
Y048442D02*
D03*
D24*
X026408Y047143D02*
D03*
X026605D02*
D03*
X026802D02*
D03*
X026998D02*
D03*
X027195D02*
D03*
X027392D02*
D03*
Y048757D02*
D03*
X027195D02*
D03*
X026998D02*
D03*
X026802D02*
D03*
X026605D02*
D03*
X026408D02*
D03*
D25*
X026900Y047950D02*
D03*
D26*
X023096Y048750D02*
D03*
Y048250D02*
D03*
Y047750D02*
D03*
Y047250D02*
D03*
X025104Y048750D02*
D03*
Y048250D02*
D03*
Y047750D02*
D03*
Y047250D02*
D03*
D28*
X036150Y037300D02*
D03*
X038150Y037150D02*
D03*
X027050Y041500D02*
D03*
X021300Y032550D02*
D03*
X038500Y039900D02*
D03*
X021150Y043800D02*
D03*
Y042000D02*
D03*
X021200Y048400D02*
D03*
D29*
X036150Y038300D02*
D03*
Y039300D02*
D03*
Y040300D02*
D03*
Y041300D02*
D03*
Y042300D02*
D03*
X032450Y043600D02*
D03*
X031450D02*
D03*
X030450D02*
D03*
X029450D02*
D03*
X028450D02*
D03*
X027450D02*
D03*
X026450D02*
D03*
X038150Y036150D02*
D03*
X027050Y037500D02*
D03*
Y038500D02*
D03*
Y039500D02*
D03*
Y040500D02*
D03*
X021300Y033550D02*
D03*
X032000Y033650D02*
D03*
X031000D02*
D03*
X030000D02*
D03*
X034700Y033050D02*
D03*
Y034050D02*
D03*
X035700Y033050D02*
D03*
Y034050D02*
D03*
X036700Y033050D02*
D03*
X037500Y039900D02*
D03*
X038500Y040900D02*
D03*
X037500D02*
D03*
X038500Y041900D02*
D03*
X037500D02*
D03*
X038500Y042900D02*
D03*
X037500D02*
D03*
X021150Y044800D02*
D03*
X022150Y042000D02*
D03*
X021150Y041000D02*
D03*
X022150D02*
D03*
X021150Y040000D02*
D03*
X022150D02*
D03*
X021150Y039000D02*
D03*
X022150D02*
D03*
X021150Y038000D02*
D03*
X022150D02*
D03*
X021200Y047400D02*
D03*
D30*
X031240Y036300D02*
D03*
X032460D02*
D03*
X034750Y039190D02*
D03*
Y040410D02*
D03*
M02*
