%FSAX24Y24*%
%MOIN*%
G70*
G01*
G75*
G04 Layer_Color=16711935*
%ADD10R,0.0512X0.0591*%
%ADD11R,0.0591X0.0512*%
%ADD12R,0.0472X0.0551*%
%ADD13R,0.0551X0.0472*%
%ADD14O,0.0116X0.0354*%
%ADD15O,0.0354X0.0116*%
%ADD16R,0.0315X0.0114*%
%ADD17R,0.0126X0.0354*%
%ADD18R,0.0177X0.0114*%
%ADD19R,0.0114X0.0177*%
%ADD20O,0.0984X0.0276*%
%ADD21R,0.0591X0.0591*%
%ADD22R,0.0787X0.0866*%
%ADD23R,0.0197X0.0925*%
%ADD24R,0.0925X0.0984*%
%ADD25O,0.0591X0.0236*%
%ADD26O,0.0709X0.0118*%
%ADD27O,0.0118X0.0709*%
%ADD28R,0.1024X0.0945*%
%ADD29C,0.0080*%
%ADD30C,0.0591*%
%ADD31R,0.0591X0.0591*%
%ADD32C,0.0512*%
%ADD33C,0.0280*%
%ADD34R,0.0551X0.0433*%
%ADD35C,0.0098*%
%ADD36C,0.0100*%
%ADD37C,0.0236*%
%ADD38C,0.0079*%
%ADD39R,0.0672X0.0751*%
%ADD40R,0.0751X0.0672*%
%ADD41R,0.0632X0.0711*%
%ADD42R,0.0711X0.0632*%
%ADD43O,0.0276X0.0514*%
%ADD44O,0.0514X0.0276*%
%ADD45R,0.0475X0.0274*%
%ADD46R,0.0286X0.0514*%
%ADD47R,0.0337X0.0274*%
%ADD48R,0.0274X0.0337*%
%ADD49O,0.1144X0.0436*%
%ADD50R,0.0751X0.0751*%
%ADD51R,0.0947X0.1026*%
%ADD52R,0.0357X0.1085*%
%ADD53R,0.1085X0.1144*%
%ADD54O,0.0751X0.0396*%
%ADD55O,0.0869X0.0278*%
%ADD56O,0.0278X0.0869*%
%ADD57R,0.1184X0.1105*%
%ADD58C,0.0751*%
%ADD59R,0.0751X0.0751*%
%ADD60C,0.0672*%
%ADD61C,0.0440*%
%ADD62R,0.0711X0.0593*%
D39*
X034665Y044600D02*
D03*
X035335D02*
D03*
X034665Y045450D02*
D03*
X035335D02*
D03*
X036415Y044250D02*
D03*
X037085D02*
D03*
X033485Y037600D02*
D03*
X032815D02*
D03*
X033485Y036850D02*
D03*
X032815D02*
D03*
X034535Y041750D02*
D03*
X033865D02*
D03*
X034435Y039000D02*
D03*
X033765D02*
D03*
D41*
X023496Y042200D02*
D03*
X024204D02*
D03*
X035796Y047400D02*
D03*
X036504D02*
D03*
X036996Y046500D02*
D03*
X037704D02*
D03*
D50*
X033600Y044600D02*
D03*
X038100Y043100D02*
D03*
X028600Y035800D02*
D03*
D58*
X032600Y044600D02*
D03*
X031600D02*
D03*
X030600D02*
D03*
X029600D02*
D03*
X028600D02*
D03*
X027600D02*
D03*
X026600D02*
D03*
X035500Y039550D02*
D03*
Y040550D02*
D03*
Y041550D02*
D03*
Y042550D02*
D03*
Y043550D02*
D03*
X024650Y041300D02*
D03*
X023650Y040300D02*
D03*
X024650D02*
D03*
X023650Y039300D02*
D03*
X024650D02*
D03*
X037100Y043100D02*
D03*
X038100Y038150D02*
D03*
X037100D02*
D03*
X038100Y039150D02*
D03*
X037100D02*
D03*
X038100Y040150D02*
D03*
X037100D02*
D03*
X038100Y041150D02*
D03*
X021300Y045250D02*
D03*
X021250Y047800D02*
D03*
X021450Y041300D02*
D03*
X022450D02*
D03*
X021450Y040300D02*
D03*
X022450D02*
D03*
X021450Y039300D02*
D03*
X022450D02*
D03*
X021450Y038300D02*
D03*
X022450D02*
D03*
X021450Y037300D02*
D03*
X025250Y043200D02*
D03*
X025900Y037900D02*
D03*
Y038900D02*
D03*
Y039900D02*
D03*
Y040900D02*
D03*
X031600Y035800D02*
D03*
X030600D02*
D03*
X029600D02*
D03*
D59*
X035500Y038550D02*
D03*
X023650Y041300D02*
D03*
X037100Y041150D02*
D03*
X021300Y046250D02*
D03*
X021250Y048800D02*
D03*
X022450Y037300D02*
D03*
X025250Y044200D02*
D03*
X025900Y041900D02*
D03*
D60*
X034150Y041010D02*
D03*
Y039790D02*
D03*
X032010Y037250D02*
D03*
X030790D02*
D03*
D61*
X024480Y033110D02*
D03*
X035000Y034100D02*
D03*
X027580Y038730D02*
D03*
X037485Y036215D02*
D03*
X030730Y046220D02*
D03*
X031420Y045340D02*
D03*
X028710Y041790D02*
D03*
X031990Y038170D02*
D03*
X027080Y041190D02*
D03*
X026860Y040840D02*
D03*
X022670Y033350D02*
D03*
X031029Y034419D02*
D03*
X031460Y039730D02*
D03*
X034970Y039810D02*
D03*
X034830Y040230D02*
D03*
X031860Y042040D02*
D03*
X036180Y043570D02*
D03*
X030090Y042660D02*
D03*
X027110Y045080D02*
D03*
X024480Y035590D02*
D03*
X024470Y042910D02*
D03*
X030795Y047693D02*
D03*
X029520Y047290D02*
D03*
X026200Y049010D02*
D03*
X024900Y035460D02*
D03*
X021860Y031000D02*
D03*
X036640Y031130D02*
D03*
X035260Y033530D02*
D03*
X032230Y031600D02*
D03*
X025900Y037350D02*
D03*
X027860Y037900D02*
D03*
X035300Y034350D02*
D03*
X020790Y030840D02*
D03*
X029860Y047830D02*
D03*
X026350Y031820D02*
D03*
X022660Y032350D02*
D03*
X026470Y040740D02*
D03*
X025980Y031710D02*
D03*
X030650Y045280D02*
D03*
X030820Y047270D02*
D03*
X031360Y047520D02*
D03*
X028630Y048782D02*
D03*
X031330Y049040D02*
D03*
X027020Y048880D02*
D03*
X029260Y048940D02*
D03*
X032570Y048800D02*
D03*
X036420Y039780D02*
D03*
X030750Y039800D02*
D03*
X027500Y038046D02*
D03*
X029364Y039910D02*
D03*
X024810Y039800D02*
D03*
X027120Y040580D02*
D03*
X037420Y031030D02*
D03*
X037310Y031530D02*
D03*
X028376Y031576D02*
D03*
X034820Y031740D02*
D03*
X035260Y034910D02*
D03*
X038040Y034500D02*
D03*
X032670Y032050D02*
D03*
X038540Y034500D02*
D03*
X031110Y039530D02*
D03*
X033070Y040550D02*
D03*
X036381Y042050D02*
D03*
X033180Y041760D02*
D03*
X035133Y043978D02*
D03*
X030680Y042720D02*
D03*
X031070Y043850D02*
D03*
X034980Y040580D02*
D03*
X034890Y040930D02*
D03*
X030171Y045080D02*
D03*
X025010Y048900D02*
D03*
X036504Y046219D02*
D03*
X032370Y043220D02*
D03*
X025570Y039400D02*
D03*
X030330Y038230D02*
D03*
X028690Y043990D02*
D03*
X024790Y036000D02*
D03*
X029430Y042610D02*
D03*
X029030Y042710D02*
D03*
X027354Y043700D02*
D03*
X037704Y045830D02*
D03*
X035980Y044500D02*
D03*
D62*
X038000Y045345D02*
D03*
Y044755D02*
D03*
M02*
