%FSAX24Y24*%
%MOIN*%
G70*
G01*
G75*
G04 Layer_Color=32768*
%ADD10R,0.0512X0.0591*%
%ADD11R,0.0591X0.0512*%
%ADD12R,0.0472X0.0551*%
%ADD13R,0.0551X0.0472*%
%ADD14O,0.0116X0.0354*%
%ADD15O,0.0354X0.0116*%
%ADD16R,0.0315X0.0114*%
%ADD17R,0.0126X0.0354*%
%ADD18R,0.0177X0.0114*%
%ADD19R,0.0114X0.0177*%
%ADD20O,0.0984X0.0276*%
%ADD21R,0.0591X0.0591*%
%ADD22R,0.0787X0.0866*%
%ADD23R,0.0197X0.0925*%
%ADD24R,0.0925X0.0984*%
%ADD25O,0.0591X0.0236*%
%ADD26O,0.0709X0.0118*%
%ADD27O,0.0118X0.0709*%
%ADD28R,0.1024X0.0945*%
%ADD29C,0.0080*%
%ADD30C,0.0591*%
%ADD31R,0.0591X0.0591*%
%ADD32C,0.0512*%
%ADD33C,0.0280*%
%ADD34R,0.0551X0.0433*%
%ADD35C,0.0098*%
%ADD36C,0.0100*%
%ADD37C,0.0236*%
%ADD38C,0.0079*%
%ADD39R,0.0672X0.0751*%
%ADD40R,0.0751X0.0672*%
%ADD41R,0.0632X0.0711*%
%ADD42R,0.0711X0.0632*%
%ADD43O,0.0276X0.0514*%
%ADD44O,0.0514X0.0276*%
%ADD45R,0.0475X0.0274*%
%ADD46R,0.0286X0.0514*%
%ADD47R,0.0337X0.0274*%
%ADD48R,0.0274X0.0337*%
%ADD49O,0.1144X0.0436*%
%ADD50R,0.0751X0.0751*%
%ADD51R,0.0947X0.1026*%
%ADD52R,0.0357X0.1085*%
%ADD53R,0.1085X0.1144*%
%ADD54O,0.0751X0.0396*%
%ADD55O,0.0869X0.0278*%
%ADD56O,0.0278X0.0869*%
%ADD57R,0.1184X0.1105*%
%ADD58C,0.0751*%
%ADD59R,0.0751X0.0751*%
%ADD60C,0.0672*%
%ADD61C,0.0440*%
%ADD62R,0.0711X0.0593*%
%ADD63C,0.0039*%
%ADD64C,0.0060*%
D63*
X034039Y048406D02*
Y049194D01*
X032661Y048406D02*
Y049194D01*
Y048406D02*
X034039D01*
X032661Y049194D02*
X034039D01*
X033153Y048800D02*
X033547D01*
X033350Y048603D02*
Y048997D01*
X026706Y045211D02*
X027494D01*
X026706Y046589D02*
X027494D01*
X026706Y045211D02*
Y046589D01*
X027494Y045211D02*
Y046589D01*
X027100Y045703D02*
Y046097D01*
X026903Y045900D02*
X027297D01*
X025111Y046006D02*
Y046794D01*
X026489Y046006D02*
Y046794D01*
X025111D02*
X026489D01*
X025111Y046006D02*
X026489D01*
X025603Y046400D02*
X025997D01*
X025800Y046203D02*
Y046597D01*
X029239Y045606D02*
Y046394D01*
X027861Y045606D02*
Y046394D01*
Y045606D02*
X029239D01*
X027861Y046394D02*
X029239D01*
X028353Y046000D02*
X028747D01*
X028550Y045803D02*
Y046197D01*
X031106Y046061D02*
X031894D01*
X031106Y047439D02*
X031894D01*
X031106Y046061D02*
Y047439D01*
X031894Y046061D02*
Y047439D01*
X031500Y046553D02*
Y046947D01*
X031303Y046750D02*
X031697D01*
X031656Y047711D02*
X032444D01*
X031656Y049089D02*
X032444D01*
X031656Y047711D02*
Y049089D01*
X032444Y047711D02*
Y049089D01*
X032050Y048203D02*
Y048597D01*
X031853Y048400D02*
X032247D01*
X034311Y044206D02*
Y044994D01*
X035689Y044206D02*
Y044994D01*
X034311Y044206D02*
X035689D01*
X034311Y044994D02*
X035689D01*
X034803Y044600D02*
X035197D01*
X035000Y044403D02*
Y044797D01*
X034311Y045056D02*
Y045844D01*
X035689Y045056D02*
Y045844D01*
X034311Y045056D02*
X035689D01*
X034311Y045844D02*
X035689D01*
X034803Y045450D02*
X035197D01*
X035000Y045253D02*
Y045647D01*
X036061Y043856D02*
Y044644D01*
X037439Y043856D02*
Y044644D01*
X036061Y043856D02*
X037439D01*
X036061Y044644D02*
X037439D01*
X036553Y044250D02*
X036947D01*
X036750Y044053D02*
Y044447D01*
X033839Y037206D02*
Y037994D01*
X032461Y037206D02*
Y037994D01*
X033839D01*
X032461Y037206D02*
X033839D01*
X032953Y037600D02*
X033347D01*
X033150Y037403D02*
Y037797D01*
X033839Y036456D02*
Y037244D01*
X032461Y036456D02*
Y037244D01*
X033839D01*
X032461Y036456D02*
X033839D01*
X032953Y036850D02*
X033347D01*
X033150Y036653D02*
Y037047D01*
X034889Y041356D02*
Y042144D01*
X033511Y041356D02*
Y042144D01*
X034889D01*
X033511Y041356D02*
X034889D01*
X034003Y041750D02*
X034397D01*
X034200Y041553D02*
Y041947D01*
X034789Y038606D02*
Y039394D01*
X033411Y038606D02*
Y039394D01*
X034789D01*
X033411Y038606D02*
X034789D01*
X033903Y039000D02*
X034297D01*
X034100Y038803D02*
Y039197D01*
X028006Y036411D02*
X028794D01*
X028006Y037789D02*
X028794D01*
X028006Y036411D02*
Y037789D01*
X028794Y036411D02*
Y037789D01*
X028400Y036903D02*
Y037297D01*
X028203Y037100D02*
X028597D01*
X027106Y036411D02*
X027894D01*
X027106Y037789D02*
X027894D01*
X027106Y036411D02*
Y037789D01*
X027894Y036411D02*
Y037789D01*
X027500Y036903D02*
Y037297D01*
X027303Y037100D02*
X027697D01*
X030539Y036356D02*
Y037144D01*
X029161Y036356D02*
Y037144D01*
Y036356D02*
X030539D01*
X029161Y037144D02*
X030539D01*
X029653Y036750D02*
X030047D01*
X029850Y036553D02*
Y036947D01*
X030539Y037256D02*
Y038044D01*
X029161Y037256D02*
Y038044D01*
Y037256D02*
X030539D01*
X029161Y038044D02*
X030539D01*
X029653Y037650D02*
X030047D01*
X029850Y037453D02*
Y037847D01*
X037839Y034806D02*
Y035594D01*
X036461Y034806D02*
Y035594D01*
Y034806D02*
X037839D01*
X036461Y035594D02*
X037839D01*
X036953Y035200D02*
X037347D01*
X037150Y035003D02*
Y035397D01*
X025911Y034856D02*
Y035644D01*
X027289Y034856D02*
Y035644D01*
X025911D02*
X027289D01*
X025911Y034856D02*
X027289D01*
X026403Y035250D02*
X026797D01*
X026600Y035053D02*
Y035447D01*
X023850Y042003D02*
Y042397D01*
X023653Y042200D02*
X024047D01*
X023161Y041826D02*
X024539D01*
X023161Y042574D02*
X024539D01*
X023161Y041826D02*
Y042574D01*
X024539Y041826D02*
Y042574D01*
X023700Y036953D02*
Y037347D01*
X023503Y037150D02*
X023897D01*
X023011Y037524D02*
X024389D01*
X023011Y036776D02*
X024389D01*
X023011D02*
Y037524D01*
X024389Y036776D02*
Y037524D01*
X023700Y037703D02*
Y038097D01*
X023503Y037900D02*
X023897D01*
X023011Y038274D02*
X024389D01*
X023011Y037526D02*
X024389D01*
X023011D02*
Y038274D01*
X024389Y037526D02*
Y038274D01*
X024653Y037750D02*
X025047D01*
X024850Y037553D02*
Y037947D01*
X025224Y037061D02*
Y038439D01*
X024476Y037061D02*
Y038439D01*
X025224D01*
X024476Y037061D02*
X025224D01*
X027000Y043053D02*
Y043447D01*
X026803Y043250D02*
X027197D01*
X026311Y043624D02*
X027689D01*
X026311Y042876D02*
X027689D01*
X026311D02*
Y043624D01*
X027689Y042876D02*
Y043624D01*
X036150Y047203D02*
Y047597D01*
X035953Y047400D02*
X036347D01*
X035461Y047026D02*
X036839D01*
X035461Y047774D02*
X036839D01*
X035461Y047026D02*
Y047774D01*
X036839Y047026D02*
Y047774D01*
X037350Y046303D02*
Y046697D01*
X037153Y046500D02*
X037547D01*
X036661Y046126D02*
X038039D01*
X036661Y046874D02*
X038039D01*
X036661Y046126D02*
Y046874D01*
X038039Y046126D02*
Y046874D01*
X032650Y033603D02*
Y033997D01*
X032453Y033800D02*
X032847D01*
X031961Y034174D02*
X033339D01*
X031961Y033426D02*
X033339D01*
X031961D02*
Y034174D01*
X033339Y033426D02*
Y034174D01*
X022150Y033603D02*
Y033997D01*
X021953Y033800D02*
X022347D01*
X021461Y034174D02*
X022839D01*
X021461Y033426D02*
X022839D01*
X021461D02*
Y034174D01*
X022839Y033426D02*
Y034174D01*
X032700Y032653D02*
Y033047D01*
X032503Y032850D02*
X032897D01*
X032011Y032476D02*
X033389D01*
X032011Y033224D02*
X033389D01*
Y032476D02*
Y033224D01*
X032011Y032476D02*
Y033224D01*
X022150Y032653D02*
Y033047D01*
X021953Y032850D02*
X022347D01*
X021461Y032476D02*
X022839D01*
X021461Y033224D02*
X022839D01*
Y032476D02*
Y033224D01*
X021461Y032476D02*
Y033224D01*
X032650Y034653D02*
Y035047D01*
X032453Y034850D02*
X032847D01*
X031961Y034476D02*
X033339D01*
X031961Y035224D02*
X033339D01*
Y034476D02*
Y035224D01*
X031961Y034476D02*
Y035224D01*
X022150Y034653D02*
Y035047D01*
X021953Y034850D02*
X022347D01*
X021461Y034476D02*
X022839D01*
X021461Y035224D02*
X022839D01*
Y034476D02*
Y035224D01*
X021461Y034476D02*
Y035224D01*
X037150Y032103D02*
Y032497D01*
X036953Y032300D02*
X037347D01*
X036461Y032674D02*
X037839D01*
X036461Y031926D02*
X037839D01*
X036461D02*
Y032674D01*
X037839Y031926D02*
Y032674D01*
X026650Y032253D02*
Y032647D01*
X026453Y032450D02*
X026847D01*
X025961Y032824D02*
X027339D01*
X025961Y032076D02*
X027339D01*
X025961D02*
Y032824D01*
X027339Y032076D02*
Y032824D01*
X037150Y034303D02*
Y034697D01*
X036953Y034500D02*
X037347D01*
X036461Y034874D02*
X037839D01*
X036461Y034126D02*
X037839D01*
X036461D02*
Y034874D01*
X037839Y034126D02*
Y034874D01*
X037150Y033603D02*
Y033997D01*
X036953Y033800D02*
X037347D01*
X036461Y034174D02*
X037839D01*
X036461Y033426D02*
X037839D01*
X036461D02*
Y034174D01*
X037839Y033426D02*
Y034174D01*
X026650Y033653D02*
Y034047D01*
X026453Y033850D02*
X026847D01*
X025961Y034224D02*
X027339D01*
X025961Y033476D02*
X027339D01*
X025961D02*
Y034224D01*
X027339Y033476D02*
Y034224D01*
X037150Y032853D02*
Y033247D01*
X036953Y033050D02*
X037347D01*
X036461Y033424D02*
X037839D01*
X036461Y032676D02*
X037839D01*
X036461D02*
Y033424D01*
X037839Y032676D02*
Y033424D01*
X026650Y032953D02*
Y033347D01*
X026453Y033150D02*
X026847D01*
X025961Y033524D02*
X027339D01*
X025961Y032776D02*
X027339D01*
X025961D02*
Y033524D01*
X027339Y032776D02*
Y033524D01*
X026650Y034353D02*
Y034747D01*
X026453Y034550D02*
X026847D01*
X025961Y034924D02*
X027339D01*
X025961Y034176D02*
X027339D01*
X025961D02*
Y034924D01*
X027339Y034176D02*
Y034924D01*
X023050Y044203D02*
Y044597D01*
X022853Y044400D02*
X023247D01*
X022361Y044774D02*
X023739D01*
X022361Y044026D02*
X023739D01*
X022361D02*
Y044774D01*
X023739Y044026D02*
Y044774D01*
X022189Y043906D02*
Y044694D01*
X020811Y043906D02*
Y044694D01*
Y043906D02*
X022189D01*
X020811Y044694D02*
X022189D01*
X021303Y044300D02*
X021697D01*
X021500Y044103D02*
Y044497D01*
X027850Y047803D02*
Y048197D01*
X027653Y048000D02*
X028047D01*
X026669Y046819D02*
X029031D01*
X026669Y049181D02*
X029031D01*
Y046819D02*
Y049181D01*
X026669Y046819D02*
Y049181D01*
X037803Y045050D02*
X038197D01*
X038000Y044853D02*
Y045247D01*
X037685Y044499D02*
Y045601D01*
X038315Y044499D02*
Y045601D01*
X037685D02*
X038315D01*
X037685Y044499D02*
X038315D01*
X033346Y030935D02*
Y035265D01*
X036654Y030935D02*
Y035265D01*
X033346D02*
X036654D01*
X033346Y030935D02*
X036654D01*
X034803Y033100D02*
X035197D01*
X035000Y032903D02*
Y033297D01*
X022696Y030935D02*
Y035265D01*
X026004Y030935D02*
Y035265D01*
X022696D02*
X026004D01*
X022696Y030935D02*
X026004D01*
X024153Y033100D02*
X024547D01*
X024350Y032903D02*
Y033297D01*
X023350Y045703D02*
Y046097D01*
X023153Y045900D02*
X023547D01*
X022011Y044876D02*
X024689D01*
X022011Y046924D02*
X024689D01*
Y044876D02*
Y046924D01*
X022011Y044876D02*
Y046924D01*
X027612Y038462D02*
Y043738D01*
X032888Y038462D02*
Y043738D01*
X027612D02*
X032888D01*
X027612Y038462D02*
X032888D01*
X030053Y041100D02*
X030447D01*
X030250Y040903D02*
Y041297D01*
M02*
