%FSAX24Y24*%
%MOIN*%
G70*
G01*
G75*
G04 Layer_Color=255*
%ADD10O,0.0118X0.0709*%
%ADD11O,0.0709X0.0118*%
%ADD12R,0.0472X0.0551*%
%ADD13R,0.0512X0.0591*%
%ADD14R,0.1024X0.0945*%
%ADD15O,0.0591X0.0236*%
%ADD16R,0.0197X0.0925*%
%ADD17R,0.0925X0.0984*%
%ADD18R,0.0787X0.0866*%
%ADD19R,0.0591X0.0591*%
%ADD20O,0.0984X0.0276*%
%ADD21R,0.0114X0.0177*%
%ADD22R,0.0177X0.0114*%
%ADD23R,0.0126X0.0354*%
%ADD24R,0.0315X0.0114*%
%ADD25O,0.0354X0.0116*%
%ADD26O,0.0116X0.0354*%
%ADD27R,0.0551X0.0472*%
%ADD28R,0.0591X0.0512*%
%ADD29C,0.0080*%
%ADD30C,0.0200*%
%ADD31C,0.0512*%
%ADD32C,0.0591*%
%ADD33R,0.0591X0.0591*%
%ADD34C,0.0280*%
%ADD35R,0.0551X0.0433*%
%ADD36C,0.0100*%
D12*
X037704Y046500D02*
D03*
X036996D02*
D03*
X036504Y047400D02*
D03*
X035796D02*
D03*
X024204Y042200D02*
D03*
X023496D02*
D03*
D13*
X035335Y045450D02*
D03*
X034665D02*
D03*
X033765Y039000D02*
D03*
X034435D02*
D03*
X033865Y041750D02*
D03*
X034535D02*
D03*
X032815Y036750D02*
D03*
X033485D02*
D03*
X032815Y037600D02*
D03*
X033485D02*
D03*
X037085Y044250D02*
D03*
X036415D02*
D03*
X035335Y044600D02*
D03*
X034665D02*
D03*
D19*
X033600D02*
D03*
X028600Y035800D02*
D03*
X038100Y043100D02*
D03*
D31*
X034150Y039790D02*
D03*
Y041010D02*
D03*
X030790Y037250D02*
D03*
X032010D02*
D03*
D32*
X026600Y044600D02*
D03*
X027600D02*
D03*
X028600D02*
D03*
X029600D02*
D03*
X030600D02*
D03*
X031600D02*
D03*
X032600D02*
D03*
X025900Y040900D02*
D03*
Y039900D02*
D03*
Y038900D02*
D03*
Y037900D02*
D03*
X025250Y043200D02*
D03*
X035500Y043550D02*
D03*
Y042550D02*
D03*
Y041550D02*
D03*
Y040550D02*
D03*
Y039550D02*
D03*
X029600Y035800D02*
D03*
X030600D02*
D03*
X031600D02*
D03*
X021450Y037300D02*
D03*
X022450Y038300D02*
D03*
X021450D02*
D03*
X022450Y039300D02*
D03*
X021450D02*
D03*
X022450Y040300D02*
D03*
X021450D02*
D03*
X022450Y041300D02*
D03*
X021450D02*
D03*
X021250Y047800D02*
D03*
X021300Y045250D02*
D03*
X038100Y041150D02*
D03*
X037100Y040150D02*
D03*
X038100D02*
D03*
X037100Y039150D02*
D03*
X038100D02*
D03*
X037100Y038150D02*
D03*
X038100D02*
D03*
X037100Y043100D02*
D03*
X024650Y039300D02*
D03*
X023650D02*
D03*
X024650Y040300D02*
D03*
X023650D02*
D03*
X024650Y041300D02*
D03*
D33*
X025900Y041900D02*
D03*
X025250Y044200D02*
D03*
X035500Y038550D02*
D03*
X022450Y037300D02*
D03*
X021250Y048800D02*
D03*
X021300Y046250D02*
D03*
X037100Y041150D02*
D03*
X023650Y041300D02*
D03*
D35*
X038000Y044755D02*
D03*
Y045345D02*
D03*
M02*
