%FSAX24Y24*%
%MOIN*%
G70*
G01*
G75*
G04 Layer_Color=2752767*
%ADD10R,0.0512X0.0591*%
%ADD11R,0.0591X0.0512*%
%ADD12R,0.0472X0.0551*%
%ADD13R,0.0551X0.0472*%
%ADD14O,0.0116X0.0354*%
%ADD15O,0.0354X0.0116*%
%ADD16R,0.0315X0.0114*%
%ADD17R,0.0126X0.0354*%
%ADD18R,0.0177X0.0114*%
%ADD19R,0.0114X0.0177*%
%ADD20O,0.0984X0.0276*%
%ADD21R,0.0591X0.0591*%
%ADD22R,0.0787X0.0866*%
%ADD23R,0.0197X0.0925*%
%ADD24R,0.0925X0.0984*%
%ADD25O,0.0591X0.0236*%
%ADD26O,0.0709X0.0118*%
%ADD27O,0.0118X0.0709*%
%ADD28R,0.1024X0.0945*%
%ADD29C,0.0080*%
%ADD30C,0.0591*%
%ADD31R,0.0591X0.0591*%
%ADD32C,0.0512*%
%ADD33C,0.0280*%
%ADD34R,0.0551X0.0433*%
%ADD35C,0.0098*%
%ADD36C,0.0100*%
%ADD37C,0.0236*%
%ADD38C,0.0079*%
%ADD39R,0.0672X0.0751*%
%ADD40R,0.0751X0.0672*%
%ADD41R,0.0632X0.0711*%
%ADD42R,0.0711X0.0632*%
%ADD43O,0.0276X0.0514*%
%ADD44O,0.0514X0.0276*%
%ADD45R,0.0475X0.0274*%
%ADD46R,0.0286X0.0514*%
%ADD47R,0.0337X0.0274*%
%ADD48R,0.0274X0.0337*%
%ADD49O,0.1144X0.0436*%
%ADD50R,0.0751X0.0751*%
%ADD51R,0.0947X0.1026*%
%ADD52R,0.0357X0.1085*%
%ADD53R,0.1085X0.1144*%
%ADD54O,0.0751X0.0396*%
%ADD55O,0.0869X0.0278*%
%ADD56O,0.0278X0.0869*%
%ADD57R,0.1184X0.1105*%
%ADD58C,0.0751*%
%ADD59R,0.0751X0.0751*%
%ADD60C,0.0672*%
%ADD61C,0.0440*%
%ADD62R,0.0711X0.0593*%
%ADD63C,0.0039*%
%ADD64C,0.0060*%
%ADD65R,0.1064X0.1062*%
%ADD66R,0.0449X0.0425*%
%ADD67R,0.0629X0.0621*%
%ADD68C,0.0050*%
%ADD69C,0.0067*%
%ADD70C,0.0160*%
D29*
X035580Y031250D02*
G03*
X035580Y031250I-000240J000000D01*
G01*
D36*
X040139Y032650D02*
X040239Y032750D01*
X040439D01*
X040539Y032650D01*
Y032550D01*
X040439Y032450D01*
X040539Y032350D01*
Y032250D01*
X040439Y032150D01*
X040239D01*
X040139Y032250D01*
Y032350D01*
X040239Y032450D01*
X040139Y032550D01*
Y032650D01*
X040239Y032450D02*
X040439D01*
X041138Y032150D02*
X040739D01*
X041138Y032550D01*
Y032650D01*
X041038Y032750D01*
X040839D01*
X040739Y032650D01*
X047097Y032150D02*
X047297D01*
X047197D01*
Y032750D01*
X047097Y032650D01*
X047997Y032750D02*
X047797Y032650D01*
X047597Y032450D01*
Y032250D01*
X047697Y032150D01*
X047897D01*
X047997Y032250D01*
Y032350D01*
X047897Y032450D01*
X047597D01*
X048197Y032150D02*
Y032550D01*
X048296D01*
X048396Y032450D01*
Y032150D01*
Y032450D01*
X048496Y032550D01*
X048596Y032450D01*
Y032150D01*
X048796D02*
X048996D01*
X048896D01*
Y032550D01*
X048796D01*
X049296Y032150D02*
X049496D01*
X049396D01*
Y032750D01*
X049296D01*
X050596Y032150D02*
X050396Y032350D01*
Y032550D01*
X050596Y032750D01*
X050896Y032650D02*
X050996Y032750D01*
X051196D01*
X051296Y032650D01*
Y032250D01*
X051196Y032150D01*
X050996D01*
X050896Y032250D01*
Y032650D01*
X051495Y032150D02*
Y032250D01*
X051595D01*
Y032150D01*
X051495D01*
X052295D02*
Y032750D01*
X051995Y032450D01*
X052395D01*
X052595Y032650D02*
X052695Y032750D01*
X052895D01*
X052995Y032650D01*
Y032250D01*
X052895Y032150D01*
X052695D01*
X052595Y032250D01*
Y032650D01*
X053595Y032750D02*
X053395Y032650D01*
X053195Y032450D01*
Y032250D01*
X053295Y032150D01*
X053495D01*
X053595Y032250D01*
Y032350D01*
X053495Y032450D01*
X053195D01*
X054095Y032150D02*
Y032750D01*
X053795Y032450D01*
X054195D01*
X054395Y032150D02*
Y032550D01*
X054495D01*
X054594Y032450D01*
Y032150D01*
Y032450D01*
X054694Y032550D01*
X054794Y032450D01*
Y032150D01*
X054994D02*
Y032550D01*
X055094D01*
X055194Y032450D01*
Y032150D01*
Y032450D01*
X055294Y032550D01*
X055394Y032450D01*
Y032150D01*
X055594D02*
X055794Y032350D01*
Y032550D01*
X055594Y032750D01*
X060533Y032150D02*
Y032750D01*
X060833D01*
X060933Y032650D01*
Y032450D01*
X060833Y032350D01*
X060533D01*
X061133Y032750D02*
X061533D01*
X061333D01*
Y032150D01*
X061733Y032750D02*
Y032150D01*
Y032450D01*
X062132D01*
Y032750D01*
Y032150D01*
X065572D02*
Y032750D01*
X065872D01*
X065972Y032650D01*
Y032450D01*
X065872Y032350D01*
X065572D01*
X065772D02*
X065972Y032150D01*
X066271D02*
X066471D01*
X066571Y032250D01*
Y032450D01*
X066471Y032550D01*
X066271D01*
X066171Y032450D01*
Y032250D01*
X066271Y032150D01*
X066771Y032550D02*
Y032250D01*
X066871Y032150D01*
X067171D01*
Y032550D01*
X067371Y032150D02*
Y032550D01*
X067671D01*
X067771Y032450D01*
Y032150D01*
X068371Y032750D02*
Y032150D01*
X068071D01*
X067971Y032250D01*
Y032450D01*
X068071Y032550D01*
X068371D01*
X040439Y030950D02*
Y031550D01*
X040139Y031250D01*
X040539D01*
X047497Y030950D02*
X047097D01*
X047497Y031350D01*
Y031450D01*
X047397Y031550D01*
X047197D01*
X047097Y031450D01*
X047697Y031550D02*
X048097D01*
Y031450D01*
X047697Y031050D01*
Y030950D01*
X048296D02*
Y031050D01*
X048396D01*
Y030950D01*
X048296D01*
X049196Y031550D02*
X048796D01*
Y031250D01*
X048996Y031350D01*
X049096D01*
X049196Y031250D01*
Y031050D01*
X049096Y030950D01*
X048896D01*
X048796Y031050D01*
X049796Y031550D02*
X049396D01*
Y031250D01*
X049596Y031350D01*
X049696D01*
X049796Y031250D01*
Y031050D01*
X049696Y030950D01*
X049496D01*
X049396Y031050D01*
X049996D02*
X050096Y030950D01*
X050296D01*
X050396Y031050D01*
Y031450D01*
X050296Y031550D01*
X050096D01*
X049996Y031450D01*
Y031350D01*
X050096Y031250D01*
X050396D01*
X050596Y030950D02*
Y031350D01*
X050696D01*
X050796Y031250D01*
Y030950D01*
Y031250D01*
X050896Y031350D01*
X050996Y031250D01*
Y030950D01*
X051196D02*
X051396D01*
X051296D01*
Y031350D01*
X051196D01*
X051695Y030950D02*
X051895D01*
X051795D01*
Y031550D01*
X051695D01*
X052995Y030950D02*
X052795Y031150D01*
Y031350D01*
X052995Y031550D01*
X053295Y031450D02*
X053395Y031550D01*
X053595D01*
X053695Y031450D01*
Y031050D01*
X053595Y030950D01*
X053395D01*
X053295Y031050D01*
Y031450D01*
X053895Y030950D02*
Y031050D01*
X053995D01*
Y030950D01*
X053895D01*
X054395Y031550D02*
X054794D01*
Y031450D01*
X054395Y031050D01*
Y030950D01*
X054994D02*
Y031350D01*
X055094D01*
X055194Y031250D01*
Y030950D01*
Y031250D01*
X055294Y031350D01*
X055394Y031250D01*
Y030950D01*
X055594D02*
Y031350D01*
X055694D01*
X055794Y031250D01*
Y030950D01*
Y031250D01*
X055894Y031350D01*
X055994Y031250D01*
Y030950D01*
X056194D02*
X056394Y031150D01*
Y031350D01*
X056194Y031550D01*
X060533Y030950D02*
Y031550D01*
X060833D01*
X060933Y031450D01*
Y031250D01*
X060833Y031150D01*
X060533D01*
X061133Y031550D02*
X061533D01*
X061333D01*
Y030950D01*
X061733Y031550D02*
Y030950D01*
Y031250D01*
X062132D01*
Y031550D01*
Y030950D01*
X065572D02*
Y031550D01*
X065872D01*
X065972Y031450D01*
Y031250D01*
X065872Y031150D01*
X065572D01*
X065772D02*
X065972Y030950D01*
X066271D02*
X066471D01*
X066571Y031050D01*
Y031250D01*
X066471Y031350D01*
X066271D01*
X066171Y031250D01*
Y031050D01*
X066271Y030950D01*
X066771Y031350D02*
Y031050D01*
X066871Y030950D01*
X067171D01*
Y031350D01*
X067371Y030950D02*
Y031350D01*
X067671D01*
X067771Y031250D01*
Y030950D01*
X068371Y031550D02*
Y030950D01*
X068071D01*
X067971Y031050D01*
Y031250D01*
X068071Y031350D01*
X068371D01*
X040539Y030350D02*
X040139D01*
Y030050D01*
X040339Y030150D01*
X040439D01*
X040539Y030050D01*
Y029850D01*
X040439Y029750D01*
X040239D01*
X040139Y029850D01*
X041138Y030350D02*
X040739D01*
Y030050D01*
X040939Y030150D01*
X041038D01*
X041138Y030050D01*
Y029850D01*
X041038Y029750D01*
X040839D01*
X040739Y029850D01*
X047097Y030250D02*
X047197Y030350D01*
X047397D01*
X047497Y030250D01*
Y030150D01*
X047397Y030050D01*
X047297D01*
X047397D01*
X047497Y029950D01*
Y029850D01*
X047397Y029750D01*
X047197D01*
X047097Y029850D01*
X048097Y030350D02*
X047697D01*
Y030050D01*
X047897Y030150D01*
X047997D01*
X048097Y030050D01*
Y029850D01*
X047997Y029750D01*
X047797D01*
X047697Y029850D01*
X048296Y029750D02*
Y029850D01*
X048396D01*
Y029750D01*
X048296D01*
X049096D02*
Y030350D01*
X048796Y030050D01*
X049196D01*
X049396Y030250D02*
X049496Y030350D01*
X049696D01*
X049796Y030250D01*
Y030150D01*
X049696Y030050D01*
X049596D01*
X049696D01*
X049796Y029950D01*
Y029850D01*
X049696Y029750D01*
X049496D01*
X049396Y029850D01*
X049996Y030250D02*
X050096Y030350D01*
X050296D01*
X050396Y030250D01*
Y030150D01*
X050296Y030050D01*
X050196D01*
X050296D01*
X050396Y029950D01*
Y029850D01*
X050296Y029750D01*
X050096D01*
X049996Y029850D01*
X050596Y029750D02*
Y030150D01*
X050696D01*
X050796Y030050D01*
Y029750D01*
Y030050D01*
X050896Y030150D01*
X050996Y030050D01*
Y029750D01*
X051196D02*
X051396D01*
X051296D01*
Y030150D01*
X051196D01*
X051695Y029750D02*
X051895D01*
X051795D01*
Y030350D01*
X051695D01*
X052995Y029750D02*
X052795Y029950D01*
Y030150D01*
X052995Y030350D01*
X053295Y030250D02*
X053395Y030350D01*
X053595D01*
X053695Y030250D01*
Y029850D01*
X053595Y029750D01*
X053395D01*
X053295Y029850D01*
Y030250D01*
X053895Y029750D02*
Y029850D01*
X053995D01*
Y029750D01*
X053895D01*
X054395Y029850D02*
X054495Y029750D01*
X054694D01*
X054794Y029850D01*
Y030250D01*
X054694Y030350D01*
X054495D01*
X054395Y030250D01*
Y030150D01*
X054495Y030050D01*
X054794D01*
X054994Y029750D02*
Y030150D01*
X055094D01*
X055194Y030050D01*
Y029750D01*
Y030050D01*
X055294Y030150D01*
X055394Y030050D01*
Y029750D01*
X055594D02*
Y030150D01*
X055694D01*
X055794Y030050D01*
Y029750D01*
Y030050D01*
X055894Y030150D01*
X055994Y030050D01*
Y029750D01*
X056194D02*
X056394Y029950D01*
Y030150D01*
X056194Y030350D01*
X060533Y029750D02*
Y030350D01*
X060833D01*
X060933Y030250D01*
Y030050D01*
X060833Y029950D01*
X060533D01*
X061133Y030350D02*
X061533D01*
X061333D01*
Y029750D01*
X061733Y030350D02*
Y029750D01*
Y030050D01*
X062132D01*
Y030350D01*
Y029750D01*
X065572D02*
Y030350D01*
X065872D01*
X065972Y030250D01*
Y030050D01*
X065872Y029950D01*
X065572D01*
X065772D02*
X065972Y029750D01*
X066271D02*
X066471D01*
X066571Y029850D01*
Y030050D01*
X066471Y030150D01*
X066271D01*
X066171Y030050D01*
Y029850D01*
X066271Y029750D01*
X066771Y030150D02*
Y029850D01*
X066871Y029750D01*
X067171D01*
Y030150D01*
X067371Y029750D02*
Y030150D01*
X067671D01*
X067771Y030050D01*
Y029750D01*
X068371Y030350D02*
Y029750D01*
X068071D01*
X067971Y029850D01*
Y030050D01*
X068071Y030150D01*
X068371D01*
X040139Y028550D02*
X040339D01*
X040239D01*
Y029150D01*
X040139Y029050D01*
X040939Y028550D02*
Y029150D01*
X040639Y028850D01*
X041038D01*
X041238Y028550D02*
X041438D01*
X041338D01*
Y029150D01*
X041238Y029050D01*
X042518Y029150D02*
X042918D01*
X042718D01*
Y028550D01*
X043218D02*
X043418D01*
X043518Y028650D01*
Y028850D01*
X043418Y028950D01*
X043218D01*
X043118Y028850D01*
Y028650D01*
X043218Y028550D01*
X043818Y029050D02*
Y028950D01*
X043718D01*
X043918D01*
X043818D01*
Y028650D01*
X043918Y028550D01*
X044318Y028950D02*
X044518D01*
X044618Y028850D01*
Y028550D01*
X044318D01*
X044218Y028650D01*
X044318Y028750D01*
X044618D01*
X044818Y028550D02*
X045018D01*
X044918D01*
Y029150D01*
X044818D01*
D68*
X033400Y044400D02*
Y044800D01*
X033800D01*
Y044400D01*
X033400D01*
X032400D02*
Y044800D01*
X032800D01*
Y044400D01*
X032400D01*
X031400D02*
Y044800D01*
X031800D01*
Y044400D01*
X031400D01*
X030400D02*
Y044800D01*
X030800D01*
Y044400D01*
X030400D01*
X029400D02*
Y044800D01*
X029800D01*
Y044400D01*
X029400D01*
X028400D02*
Y044800D01*
X028800D01*
Y044400D01*
X028400D01*
X027400D02*
Y044800D01*
X027800D01*
Y044400D01*
X027400D01*
X026400D02*
Y044800D01*
X026800D01*
Y044400D01*
X026400D01*
X035300Y038350D02*
Y038750D01*
X035700D01*
Y038350D01*
X035300D01*
Y039350D02*
Y039750D01*
X035700D01*
Y039350D01*
X035300D01*
Y040350D02*
Y040750D01*
X035700D01*
Y040350D01*
X035300D01*
Y041350D02*
Y041750D01*
X035700D01*
Y041350D01*
X035300D01*
Y042350D02*
Y042750D01*
X035700D01*
Y042350D01*
X035300D01*
Y043350D02*
Y043750D01*
X035700D01*
Y043350D01*
X035300D01*
X023450Y041100D02*
Y041500D01*
X023850D01*
Y041100D01*
X023450D01*
X024450D02*
Y041500D01*
X024850D01*
Y041100D01*
X024450D01*
X023450Y040100D02*
Y040500D01*
X023850D01*
Y040100D01*
X023450D01*
X024450D02*
Y040500D01*
X024850D01*
Y040100D01*
X024450D01*
X023450Y039100D02*
Y039500D01*
X023850D01*
Y039100D01*
X023450D01*
X024450D02*
Y039500D01*
X024850D01*
Y039100D01*
X024450D01*
X037900Y042900D02*
Y043300D01*
X038300D01*
Y042900D01*
X037900D01*
X036900D02*
Y043300D01*
X037300D01*
Y042900D01*
X036900D01*
X037900Y037950D02*
Y038350D01*
X038300D01*
Y037950D01*
X037900D01*
X036900D02*
Y038350D01*
X037300D01*
Y037950D01*
X036900D01*
X037900Y038950D02*
Y039350D01*
X038300D01*
Y038950D01*
X037900D01*
X036900D02*
Y039350D01*
X037300D01*
Y038950D01*
X036900D01*
X037900Y039950D02*
Y040350D01*
X038300D01*
Y039950D01*
X037900D01*
X036900D02*
Y040350D01*
X037300D01*
Y039950D01*
X036900D01*
X037900Y040950D02*
Y041350D01*
X038300D01*
Y040950D01*
X037900D01*
X036900D02*
Y041350D01*
X037300D01*
Y040950D01*
X036900D01*
X021100Y046050D02*
Y046450D01*
X021500D01*
Y046050D01*
X021100D01*
Y045050D02*
Y045450D01*
X021500D01*
Y045050D01*
X021100D01*
X021050Y048600D02*
Y049000D01*
X021450D01*
Y048600D01*
X021050D01*
Y047600D02*
Y048000D01*
X021450D01*
Y047600D01*
X021050D01*
X021250Y041100D02*
Y041500D01*
X021650D01*
Y041100D01*
X021250D01*
X022250D02*
Y041500D01*
X022650D01*
Y041100D01*
X022250D01*
X021250Y040100D02*
Y040500D01*
X021650D01*
Y040100D01*
X021250D01*
X022250D02*
Y040500D01*
X022650D01*
Y040100D01*
X022250D01*
X021250Y039100D02*
Y039500D01*
X021650D01*
Y039100D01*
X021250D01*
X022250D02*
Y039500D01*
X022650D01*
Y039100D01*
X022250D01*
X021250Y038100D02*
Y038500D01*
X021650D01*
Y038100D01*
X021250D01*
X022250D02*
Y038500D01*
X022650D01*
Y038100D01*
X022250D01*
X021250Y037100D02*
Y037500D01*
X021650D01*
Y037100D01*
X021250D01*
X022250D02*
Y037500D01*
X022650D01*
Y037100D01*
X022250D01*
X025050Y044000D02*
Y044400D01*
X025450D01*
Y044000D01*
X025050D01*
Y043000D02*
Y043400D01*
X025450D01*
Y043000D01*
X025050D01*
X025700Y037700D02*
Y038100D01*
X026100D01*
Y037700D01*
X025700D01*
Y038700D02*
Y039100D01*
X026100D01*
Y038700D01*
X025700D01*
Y039700D02*
Y040100D01*
X026100D01*
Y039700D01*
X025700D01*
Y040700D02*
Y041100D01*
X026100D01*
Y040700D01*
X025700D01*
Y041700D02*
Y042100D01*
X026100D01*
Y041700D01*
X025700D01*
X031400Y035600D02*
Y036000D01*
X031800D01*
Y035600D01*
X031400D01*
X030400D02*
Y036000D01*
X030800D01*
Y035600D01*
X030400D01*
X029400D02*
Y036000D01*
X029800D01*
Y035600D01*
X029400D01*
X028400D02*
Y036000D01*
X028800D01*
Y035600D01*
X028400D01*
X024480Y032910D02*
X024280Y033310D01*
X024680D01*
X024480Y032910D01*
X035000Y033900D02*
X034800Y034300D01*
X035200D01*
X035000Y033900D01*
X027580Y038530D02*
X027380Y038930D01*
X027780D01*
X027580Y038530D01*
X037485Y036015D02*
X037285Y036415D01*
X037685D01*
X037485Y036015D01*
X030730Y046020D02*
X030530Y046420D01*
X030930D01*
X030730Y046020D01*
X031420Y045140D02*
X031220Y045540D01*
X031620D01*
X031420Y045140D01*
X028710Y041590D02*
X028510Y041990D01*
X028910D01*
X028710Y041590D01*
X031990Y037970D02*
X031790Y038370D01*
X032190D01*
X031990Y037970D01*
X027080Y040990D02*
X026880Y041390D01*
X027280D01*
X027080Y040990D01*
X026860Y040640D02*
X026660Y041040D01*
X027060D01*
X026860Y040640D01*
X022670Y033150D02*
X022470Y033550D01*
X022870D01*
X022670Y033150D01*
X031029Y034219D02*
X030829Y034619D01*
X031229D01*
X031029Y034219D01*
X031460Y039530D02*
X031260Y039930D01*
X031660D01*
X031460Y039530D01*
X034970Y039610D02*
X034770Y040010D01*
X035170D01*
X034970Y039610D01*
X034830Y040030D02*
X034630Y040430D01*
X035030D01*
X034830Y040030D01*
X031860Y041840D02*
X031660Y042240D01*
X032060D01*
X031860Y041840D01*
X036180Y043370D02*
X035980Y043770D01*
X036380D01*
X036180Y043370D01*
X030090Y042460D02*
X029890Y042860D01*
X030290D01*
X030090Y042460D01*
X027110Y044880D02*
X026910Y045280D01*
X027310D01*
X027110Y044880D01*
X024480Y035390D02*
X024280Y035790D01*
X024680D01*
X024480Y035390D01*
X024470Y042710D02*
X024270Y043110D01*
X024670D01*
X024470Y042710D01*
X030795Y047493D02*
X030595Y047893D01*
X030995D01*
X030795Y047493D01*
X029520Y047090D02*
X029320Y047490D01*
X029720D01*
X029520Y047090D01*
X026200Y048810D02*
X026000Y049210D01*
X026400D01*
X026200Y048810D01*
X024900Y035260D02*
X024700Y035660D01*
X025100D01*
X024900Y035260D01*
X021860Y030800D02*
X021660Y031200D01*
X022060D01*
X021860Y030800D01*
X036640Y030930D02*
X036440Y031330D01*
X036840D01*
X036640Y030930D01*
X035260Y033330D02*
X035060Y033730D01*
X035460D01*
X035260Y033330D01*
X032230Y031400D02*
X032030Y031800D01*
X032430D01*
X032230Y031400D01*
X025900Y037150D02*
X025700Y037550D01*
X026100D01*
X025900Y037150D01*
X027860Y037700D02*
X027660Y038100D01*
X028060D01*
X027860Y037700D01*
X035300Y034150D02*
X035100Y034550D01*
X035500D01*
X035300Y034150D01*
X020790Y030640D02*
X020590Y031040D01*
X020990D01*
X020790Y030640D01*
X029860Y047630D02*
X029660Y048030D01*
X030060D01*
X029860Y047630D01*
X026350Y031620D02*
X026150Y032020D01*
X026550D01*
X026350Y031620D01*
X022660Y032150D02*
X022460Y032550D01*
X022860D01*
X022660Y032150D01*
X026470Y040540D02*
X026270Y040940D01*
X026670D01*
X026470Y040540D01*
X025980Y031510D02*
X025780Y031910D01*
X026180D01*
X025980Y031510D01*
X030650Y045080D02*
X030450Y045480D01*
X030850D01*
X030650Y045080D01*
X030820Y047070D02*
X030620Y047470D01*
X031020D01*
X030820Y047070D01*
X031360Y047320D02*
X031160Y047720D01*
X031560D01*
X031360Y047320D01*
X028630Y048582D02*
X028430Y048982D01*
X028830D01*
X028630Y048582D01*
X031330Y048840D02*
X031130Y049240D01*
X031530D01*
X031330Y048840D01*
X027020Y048680D02*
X026820Y049080D01*
X027220D01*
X027020Y048680D01*
X029260Y048740D02*
X029060Y049140D01*
X029460D01*
X029260Y048740D01*
X032570Y048600D02*
X032370Y049000D01*
X032770D01*
X032570Y048600D01*
X036420Y039580D02*
X036220Y039980D01*
X036620D01*
X036420Y039580D01*
X030750Y039600D02*
X030550Y040000D01*
X030950D01*
X030750Y039600D01*
X027500Y037846D02*
X027300Y038246D01*
X027700D01*
X027500Y037846D01*
X029364Y039710D02*
X029164Y040110D01*
X029564D01*
X029364Y039710D01*
X024810Y039600D02*
X024610Y040000D01*
X025010D01*
X024810Y039600D01*
X027120Y040380D02*
X026920Y040780D01*
X027320D01*
X027120Y040380D01*
X037420Y030830D02*
X037220Y031230D01*
X037620D01*
X037420Y030830D01*
X037310Y031330D02*
X037110Y031730D01*
X037510D01*
X037310Y031330D01*
X028376Y031376D02*
X028176Y031776D01*
X028576D01*
X028376Y031376D01*
X034820Y031540D02*
X034620Y031940D01*
X035020D01*
X034820Y031540D01*
X035260Y034710D02*
X035060Y035110D01*
X035460D01*
X035260Y034710D01*
X038040Y034300D02*
X037840Y034700D01*
X038240D01*
X038040Y034300D01*
X032670Y031850D02*
X032470Y032250D01*
X032870D01*
X032670Y031850D01*
X038540Y034300D02*
X038340Y034700D01*
X038740D01*
X038540Y034300D01*
X031110Y039330D02*
X030910Y039730D01*
X031310D01*
X031110Y039330D01*
X033070Y040350D02*
X032870Y040750D01*
X033270D01*
X033070Y040350D01*
X036381Y041850D02*
X036181Y042250D01*
X036581D01*
X036381Y041850D01*
X033180Y041560D02*
X032980Y041960D01*
X033380D01*
X033180Y041560D01*
X035133Y043778D02*
X034933Y044178D01*
X035333D01*
X035133Y043778D01*
X030680Y042520D02*
X030480Y042920D01*
X030880D01*
X030680Y042520D01*
X031070Y043650D02*
X030870Y044050D01*
X031270D01*
X031070Y043650D01*
X034980Y040380D02*
X034780Y040780D01*
X035180D01*
X034980Y040380D01*
X034890Y040730D02*
X034690Y041130D01*
X035090D01*
X034890Y040730D01*
X030171Y044880D02*
X029971Y045280D01*
X030371D01*
X030171Y044880D01*
X025010Y048700D02*
X024810Y049100D01*
X025210D01*
X025010Y048700D01*
X036504Y046019D02*
X036304Y046419D01*
X036704D01*
X036504Y046019D01*
X032370Y043020D02*
X032170Y043420D01*
X032570D01*
X032370Y043020D01*
X025570Y039200D02*
X025370Y039600D01*
X025770D01*
X025570Y039200D01*
X030330Y038030D02*
X030130Y038430D01*
X030530D01*
X030330Y038030D01*
X028690Y043790D02*
X028490Y044190D01*
X028890D01*
X028690Y043790D01*
X024790Y035800D02*
X024590Y036200D01*
X024990D01*
X024790Y035800D01*
X029430Y042410D02*
X029230Y042810D01*
X029630D01*
X029430Y042410D01*
X029030Y042510D02*
X028830Y042910D01*
X029230D01*
X029030Y042510D01*
X027354Y043500D02*
X027154Y043900D01*
X027554D01*
X027354Y043500D01*
X037704Y045630D02*
X037504Y046030D01*
X037904D01*
X037704Y045630D01*
X035980Y044300D02*
X035780Y044700D01*
X036180D01*
X035980Y044300D01*
X035340Y032210D02*
X035100Y032690D01*
X035580D01*
X035340Y032210D01*
X035100Y029810D02*
Y030290D01*
X035580D01*
Y029810D01*
X035100D01*
D69*
X034350Y041010D02*
G03*
X034350Y041010I-000200J000000D01*
G01*
Y039790D02*
G03*
X034350Y039790I-000200J000000D01*
G01*
X032210Y037250D02*
G03*
X032210Y037250I-000200J000000D01*
G01*
X030990D02*
G03*
X030990Y037250I-000200J000000D01*
G01*
D70*
X035580Y034190D02*
X035460Y034310D01*
X035220D01*
X035100Y034190D01*
Y034070D01*
X035220Y033950D01*
X035460D01*
X035580Y033830D01*
Y033710D01*
X035460Y033590D01*
X035220D01*
X035100Y033710D01*
X035820Y034070D02*
Y033710D01*
X035940Y033590D01*
X036300D01*
Y033470D01*
X036180Y033350D01*
X036060D01*
X036300Y033590D02*
Y034070D01*
X036540Y033590D02*
Y034070D01*
X036660D01*
X036779Y033950D01*
Y033590D01*
Y033950D01*
X036899Y034070D01*
X037019Y033950D01*
Y033590D01*
X037259Y034310D02*
Y033590D01*
X037619D01*
X037739Y033710D01*
Y033830D01*
Y033950D01*
X037619Y034070D01*
X037259D01*
X038099Y033590D02*
X038339D01*
X038459Y033710D01*
Y033950D01*
X038339Y034070D01*
X038099D01*
X037979Y033950D01*
Y033710D01*
X038099Y033590D01*
X038699D02*
X038939D01*
X038819D01*
Y034310D01*
X038699D01*
X040139D02*
Y033590D01*
Y033950D01*
X040619D01*
Y034310D01*
Y033590D01*
X040859D02*
X041098D01*
X040978D01*
Y034070D01*
X040859D01*
X041578Y034190D02*
Y034070D01*
X041458D01*
X041698D01*
X041578D01*
Y033710D01*
X041698Y033590D01*
X043258Y034190D02*
X043138Y034310D01*
X042898D01*
X042778Y034190D01*
Y033710D01*
X042898Y033590D01*
X043138D01*
X043258Y033710D01*
X043618Y033590D02*
X043858D01*
X043978Y033710D01*
Y033950D01*
X043858Y034070D01*
X043618D01*
X043498Y033950D01*
Y033710D01*
X043618Y033590D01*
X044217Y034070D02*
Y033710D01*
X044337Y033590D01*
X044697D01*
Y034070D01*
X044937Y033590D02*
Y034070D01*
X045297D01*
X045417Y033950D01*
Y033590D01*
X045777Y034190D02*
Y034070D01*
X045657D01*
X045897D01*
X045777D01*
Y033710D01*
X045897Y033590D01*
X047577Y034310D02*
X047097D01*
Y033950D01*
X047337D01*
X047097D01*
Y033590D01*
X047817D02*
X048057D01*
X047937D01*
Y034070D01*
X047817D01*
X048416Y033590D02*
Y034070D01*
X048776D01*
X048896Y033950D01*
Y033590D01*
X049136D02*
X049376D01*
X049256D01*
Y034070D01*
X049136D01*
X049736Y033590D02*
X050096D01*
X050216Y033710D01*
X050096Y033830D01*
X049856D01*
X049736Y033950D01*
X049856Y034070D01*
X050216D01*
X050456Y034310D02*
Y033590D01*
Y033950D01*
X050576Y034070D01*
X050816D01*
X050936Y033950D01*
Y033590D01*
X051535D02*
X051296D01*
X051176Y033710D01*
Y033950D01*
X051296Y034070D01*
X051535D01*
X051655Y033950D01*
Y033830D01*
X051176D01*
X052375Y034310D02*
Y033590D01*
X052015D01*
X051895Y033710D01*
Y033950D01*
X052015Y034070D01*
X052375D01*
X053335Y034310D02*
Y033590D01*
Y033950D01*
X053815D01*
Y034310D01*
Y033590D01*
X054175D02*
X054415D01*
X054534Y033710D01*
Y033950D01*
X054415Y034070D01*
X054175D01*
X054055Y033950D01*
Y033710D01*
X054175Y033590D01*
X054774D02*
X055014D01*
X054894D01*
Y034310D01*
X054774D01*
X055734Y033590D02*
X055494D01*
X055374Y033710D01*
Y033950D01*
X055494Y034070D01*
X055734D01*
X055854Y033950D01*
Y033830D01*
X055374D01*
X057294Y034190D02*
X057174Y034310D01*
X056934D01*
X056814Y034190D01*
Y034070D01*
X056934Y033950D01*
X057174D01*
X057294Y033830D01*
Y033710D01*
X057174Y033590D01*
X056934D01*
X056814Y033710D01*
X057534Y033590D02*
X057773D01*
X057653D01*
Y034070D01*
X057534D01*
X058133D02*
X058613D01*
X058133Y033590D01*
X058613D01*
X059213D02*
X058973D01*
X058853Y033710D01*
Y033950D01*
X058973Y034070D01*
X059213D01*
X059333Y033950D01*
Y033830D01*
X058853D01*
X060533Y033590D02*
Y034310D01*
X060893D01*
X061013Y034190D01*
Y033950D01*
X060893Y033830D01*
X060533D01*
X061253Y033590D02*
X061493D01*
X061373D01*
Y034310D01*
X061253D01*
X061972Y034070D02*
X062212D01*
X062332Y033950D01*
Y033590D01*
X061972D01*
X061853Y033710D01*
X061972Y033830D01*
X062332D01*
X062692Y034190D02*
Y034070D01*
X062572D01*
X062812D01*
X062692D01*
Y033710D01*
X062812Y033590D01*
X063532D02*
X063292D01*
X063172Y033710D01*
Y033950D01*
X063292Y034070D01*
X063532D01*
X063652Y033950D01*
Y033830D01*
X063172D01*
X064372Y034310D02*
Y033590D01*
X064012D01*
X063892Y033710D01*
Y033950D01*
X064012Y034070D01*
X064372D01*
X065572Y034310D02*
Y033590D01*
Y033950D01*
X066052D01*
Y034310D01*
Y033590D01*
X066411D02*
X066651D01*
X066771Y033710D01*
Y033950D01*
X066651Y034070D01*
X066411D01*
X066291Y033950D01*
Y033710D01*
X066411Y033590D01*
X067011D02*
X067251D01*
X067131D01*
Y034310D01*
X067011D01*
X067971Y033590D02*
X067731D01*
X067611Y033710D01*
Y033950D01*
X067731Y034070D01*
X067971D01*
X068091Y033950D01*
Y033830D01*
X067611D01*
X069051Y034310D02*
X069530D01*
X069290D01*
Y033590D01*
X069770Y034070D02*
Y033710D01*
X069890Y033590D01*
X070250D01*
Y033470D01*
X070130Y033350D01*
X070010D01*
X070250Y033590D02*
Y034070D01*
X070490Y033350D02*
Y034070D01*
X070850D01*
X070970Y033950D01*
Y033710D01*
X070850Y033590D01*
X070490D01*
X071570D02*
X071330D01*
X071210Y033710D01*
Y033950D01*
X071330Y034070D01*
X071570D01*
X071690Y033950D01*
Y033830D01*
X071210D01*
X034220Y034670D02*
X072890D01*
X034220Y033050D02*
X072890D01*
X034220Y034670D02*
Y028250D01*
X072890Y034670D02*
Y028250D01*
X039699Y034670D02*
Y028250D01*
X046657Y034670D02*
Y028250D01*
X060093Y034670D02*
Y028250D01*
X065132Y034670D02*
Y028250D01*
X034220Y029450D02*
X072890D01*
X034220Y028250D02*
X072890D01*
M02*
