%FSAX24Y24*%
%MOIN*%
G70*
G01*
G75*
%ADD10O,0.0118X0.0709*%
%ADD11O,0.0709X0.0118*%
%ADD12R,0.0472X0.0551*%
%ADD13R,0.0512X0.0591*%
%ADD14R,0.1024X0.0945*%
%ADD15O,0.0591X0.0236*%
%ADD16R,0.0197X0.0925*%
%ADD17R,0.0925X0.0984*%
%ADD18R,0.0787X0.0866*%
%ADD19R,0.0591X0.0591*%
%ADD20O,0.0984X0.0276*%
%ADD21R,0.0114X0.0177*%
%ADD22R,0.0177X0.0114*%
%ADD23R,0.0126X0.0354*%
%ADD24R,0.0315X0.0114*%
%ADD25O,0.0354X0.0116*%
%ADD26O,0.0116X0.0354*%
%ADD27R,0.0551X0.0472*%
%ADD28R,0.0591X0.0512*%
%ADD29C,0.0080*%
%ADD30C,0.0200*%
%ADD31C,0.0512*%
%ADD32C,0.0591*%
%ADD33R,0.0591X0.0591*%
%ADD34C,0.0280*%
%ADD35R,0.0551X0.0433*%
%ADD36C,0.0100*%
%ADD37C,0.0079*%
%ADD38C,0.0236*%
%ADD39C,0.0098*%
%ADD40O,0.0278X0.0869*%
%ADD41O,0.0869X0.0278*%
%ADD42R,0.0632X0.0711*%
%ADD43R,0.0672X0.0751*%
%ADD44R,0.1184X0.1105*%
%ADD45O,0.0751X0.0396*%
%ADD46R,0.0357X0.1085*%
%ADD47R,0.1085X0.1144*%
%ADD48R,0.0947X0.1026*%
%ADD49R,0.0751X0.0751*%
%ADD50O,0.1144X0.0436*%
%ADD51R,0.0274X0.0337*%
%ADD52R,0.0337X0.0274*%
%ADD53R,0.0286X0.0514*%
%ADD54R,0.0475X0.0274*%
%ADD55O,0.0514X0.0276*%
%ADD56O,0.0276X0.0514*%
%ADD57R,0.0711X0.0632*%
%ADD58R,0.0751X0.0672*%
%ADD59C,0.0672*%
%ADD60C,0.0751*%
%ADD61R,0.0751X0.0751*%
%ADD62C,0.0440*%
%ADD63R,0.0711X0.0593*%
%ADD64C,0.0039*%
%ADD65C,0.0060*%
%ADD66R,0.0629X0.0621*%
%ADD67R,0.0449X0.0425*%
%ADD68R,0.1064X0.1062*%
%ADD69C,0.0050*%
%ADD70C,0.0067*%
%ADD71C,0.0160*%
D69*
X034012Y039790D02*
X034288D01*
X034150Y039652D02*
Y039928D01*
X034012Y041010D02*
X034288D01*
X034150Y040872D02*
Y041148D01*
X026423Y044600D02*
X026777D01*
X026600Y044423D02*
Y044777D01*
X027423Y044600D02*
X027777D01*
X027600Y044423D02*
Y044777D01*
X028423Y044600D02*
X028777D01*
X028600Y044423D02*
Y044777D01*
X029423Y044600D02*
X029777D01*
X029600Y044423D02*
Y044777D01*
X030423Y044600D02*
X030777D01*
X030600Y044423D02*
Y044777D01*
X031423Y044600D02*
X031777D01*
X031600Y044423D02*
Y044777D01*
X032423Y044600D02*
X032777D01*
X032600Y044423D02*
Y044777D01*
X033423Y044600D02*
X033777D01*
X033600Y044423D02*
Y044777D01*
X025723Y041900D02*
X026077D01*
X025900Y041723D02*
Y042077D01*
X025723Y040900D02*
X026077D01*
X025900Y040723D02*
Y041077D01*
X025723Y039900D02*
X026077D01*
X025900Y039723D02*
Y040077D01*
X025723Y038900D02*
X026077D01*
X025900Y038723D02*
Y039077D01*
X025723Y037900D02*
X026077D01*
X025900Y037723D02*
Y038077D01*
X025073Y043200D02*
X025427D01*
X025250Y043023D02*
Y043377D01*
X025073Y044200D02*
X025427D01*
X025250Y044023D02*
Y044377D01*
X035323Y043550D02*
X035677D01*
X035500Y043373D02*
Y043727D01*
X035323Y042550D02*
X035677D01*
X035500Y042373D02*
Y042727D01*
X035323Y041550D02*
X035677D01*
X035500Y041373D02*
Y041727D01*
X035323Y040550D02*
X035677D01*
X035500Y040373D02*
Y040727D01*
X035323Y039550D02*
X035677D01*
X035500Y039373D02*
Y039727D01*
X035323Y038550D02*
X035677D01*
X035500Y038373D02*
Y038727D01*
X028423Y035800D02*
X028777D01*
X028600Y035623D02*
Y035977D01*
X029423Y035800D02*
X029777D01*
X029600Y035623D02*
Y035977D01*
X030423Y035800D02*
X030777D01*
X030600Y035623D02*
Y035977D01*
X031423Y035800D02*
X031777D01*
X031600Y035623D02*
Y035977D01*
X030652Y037250D02*
X030928D01*
X030790Y037112D02*
Y037388D01*
X031872Y037250D02*
X032148D01*
X032010Y037112D02*
Y037388D01*
X022273Y037300D02*
X022627D01*
X022450Y037123D02*
Y037477D01*
X021273Y037300D02*
X021627D01*
X021450Y037123D02*
Y037477D01*
X022273Y038300D02*
X022627D01*
X022450Y038123D02*
Y038477D01*
X021273Y038300D02*
X021627D01*
X021450Y038123D02*
Y038477D01*
X022273Y039300D02*
X022627D01*
X022450Y039123D02*
Y039477D01*
X021273Y039300D02*
X021627D01*
X021450Y039123D02*
Y039477D01*
X022273Y040300D02*
X022627D01*
X022450Y040123D02*
Y040477D01*
X021273Y040300D02*
X021627D01*
X021450Y040123D02*
Y040477D01*
X022273Y041300D02*
X022627D01*
X022450Y041123D02*
Y041477D01*
X021273Y041300D02*
X021627D01*
X021450Y041123D02*
Y041477D01*
X021073Y047800D02*
X021427D01*
X021250Y047623D02*
Y047977D01*
X021073Y048800D02*
X021427D01*
X021250Y048623D02*
Y048977D01*
X021123Y045250D02*
X021477D01*
X021300Y045073D02*
Y045427D01*
X021123Y046250D02*
X021477D01*
X021300Y046073D02*
Y046427D01*
X036923Y041150D02*
X037277D01*
X037100Y040973D02*
Y041327D01*
X037923Y041150D02*
X038277D01*
X038100Y040973D02*
Y041327D01*
X036923Y040150D02*
X037277D01*
X037100Y039973D02*
Y040327D01*
X037923Y040150D02*
X038277D01*
X038100Y039973D02*
Y040327D01*
X036923Y039150D02*
X037277D01*
X037100Y038973D02*
Y039327D01*
X037923Y039150D02*
X038277D01*
X038100Y038973D02*
Y039327D01*
X036923Y038150D02*
X037277D01*
X037100Y037973D02*
Y038327D01*
X037923Y038150D02*
X038277D01*
X038100Y037973D02*
Y038327D01*
X036923Y043100D02*
X037277D01*
X037100Y042923D02*
Y043277D01*
X037923Y043100D02*
X038277D01*
X038100Y042923D02*
Y043277D01*
X024473Y039300D02*
X024827D01*
X024650Y039123D02*
Y039477D01*
X023473Y039300D02*
X023827D01*
X023650Y039123D02*
Y039477D01*
X024473Y040300D02*
X024827D01*
X024650Y040123D02*
Y040477D01*
X023473Y040300D02*
X023827D01*
X023650Y040123D02*
Y040477D01*
X024473Y041300D02*
X024827D01*
X024650Y041123D02*
Y041477D01*
X023473Y041300D02*
X023827D01*
X023650Y041123D02*
Y041477D01*
X035870Y045950D02*
X036030D01*
X035950Y045870D02*
Y046030D01*
X037624Y045780D02*
X037784D01*
X037704Y045700D02*
Y045860D01*
X032830Y035430D02*
X032990D01*
X032910Y035350D02*
Y035510D01*
X024020Y034700D02*
X024180D01*
X024100Y034620D02*
Y034780D01*
X036530Y034550D02*
X036690D01*
X036610Y034470D02*
Y034630D01*
X024720Y035210D02*
X024880D01*
X024800Y035130D02*
Y035290D01*
X035160Y035710D02*
X035320D01*
X035240Y035630D02*
Y035790D01*
X031350Y048506D02*
X031510D01*
X031430Y048426D02*
Y048586D01*
X026130Y031900D02*
X026290D01*
X026210Y031820D02*
Y031980D01*
X021351Y042456D02*
X021511D01*
X021431Y042376D02*
Y042536D01*
X025590Y047320D02*
X025750D01*
X025670Y047240D02*
Y047400D01*
X028950Y047080D02*
X029110D01*
X029030Y047000D02*
Y047160D01*
X035180Y033660D02*
X035340D01*
X035260Y033580D02*
Y033740D01*
X030150Y039490D02*
X030310D01*
X030230Y039410D02*
Y039570D01*
X034649Y040056D02*
X034809D01*
X034729Y039976D02*
Y040136D01*
X028350Y044090D02*
X028510D01*
X028430Y044010D02*
Y044170D01*
X036540Y037340D02*
X036700D01*
X036620Y037260D02*
Y037420D01*
X035480Y037680D02*
X035640D01*
X035560Y037600D02*
Y037760D01*
X031790Y040017D02*
X031950D01*
X031870Y039937D02*
Y040097D01*
X032650Y039160D02*
X032810D01*
X032730Y039080D02*
Y039240D01*
X031852Y038146D02*
X032012D01*
X031932Y038066D02*
Y038226D01*
X030980Y040010D02*
X031140D01*
X031060Y039930D02*
Y040090D01*
X020870Y036340D02*
X021030D01*
X020950Y036260D02*
Y036420D01*
X035000Y049210D02*
X035160D01*
X035080Y049130D02*
Y049290D01*
X028065Y049210D02*
X028225D01*
X028145Y049130D02*
Y049290D01*
X032350Y043640D02*
X032510D01*
X032430Y043560D02*
Y043720D01*
X030900Y046910D02*
X031060D01*
X030980Y046830D02*
Y046990D01*
X029400Y048450D02*
X029560D01*
X029480Y048370D02*
Y048530D01*
X035180Y031350D02*
X035340D01*
X035260Y031270D02*
Y031430D01*
X027160Y031190D02*
X027320D01*
X027240Y031110D02*
Y031270D01*
X029820Y041040D02*
X029980D01*
X029900Y040960D02*
Y041120D01*
X035000Y042020D02*
X035160D01*
X035080Y041940D02*
Y042100D01*
X035030Y033190D02*
X035190D01*
X035110Y033110D02*
Y033270D01*
X027110Y031910D02*
X027270D01*
X027190Y031830D02*
Y031990D01*
X028840Y036910D02*
X029000D01*
X028920Y036830D02*
Y036990D01*
X027630Y034400D02*
X027790D01*
X027710Y034320D02*
Y034480D01*
X032216Y034400D02*
X032376D01*
X032296Y034320D02*
Y034480D01*
X028450Y046790D02*
X028610D01*
X028530Y046710D02*
Y046870D01*
X030367Y045980D02*
X030527D01*
X030447Y045900D02*
Y046060D01*
X031270Y045980D02*
X031430D01*
X031350Y045900D02*
Y046060D01*
X029800Y047537D02*
X029960D01*
X029880Y047457D02*
Y047617D01*
X026660Y047090D02*
X026820D01*
X026740Y047010D02*
Y047170D01*
X036720Y031910D02*
X036880D01*
X036800Y031830D02*
Y031990D01*
X036640Y033850D02*
X036800D01*
X036720Y033770D02*
Y033930D01*
X024020Y033730D02*
X024180D01*
X024100Y033650D02*
Y033810D01*
X025500Y035210D02*
X025660D01*
X025580Y035130D02*
Y035290D01*
X021660Y042190D02*
X021820D01*
X021740Y042110D02*
Y042270D01*
X030520Y038120D02*
X030680D01*
X030600Y038040D02*
Y038200D01*
X026850Y038320D02*
X027010D01*
X026930Y038240D02*
Y038400D01*
X025140Y038960D02*
X025300D01*
X025220Y038880D02*
Y039040D01*
X028560Y042130D02*
X028720D01*
X028640Y042050D02*
Y042210D01*
X034110Y044400D02*
X034270D01*
X034190Y044320D02*
Y044480D01*
X027420Y041060D02*
X027580D01*
X027500Y040980D02*
Y041140D01*
X031220Y038070D02*
X031380D01*
X031300Y037990D02*
Y038150D01*
X031630Y041500D02*
X031790D01*
X031710Y041420D02*
Y041580D01*
X034890Y038360D02*
X035050D01*
X034970Y038280D02*
Y038440D01*
X030631Y044090D02*
X030791D01*
X030711Y044010D02*
Y044170D01*
X024740Y031010D02*
X024900D01*
X024820Y030930D02*
Y031090D01*
X036910Y031330D02*
X037070D01*
X036990Y031250D02*
Y031410D01*
X028680Y040411D02*
X028840D01*
X028760Y040331D02*
Y040491D01*
X036670Y043570D02*
X036830D01*
X036750Y043490D02*
Y043650D01*
X030720Y039680D02*
X030880D01*
X030800Y039600D02*
Y039760D01*
X032680Y045440D02*
X032840D01*
X032760Y045360D02*
Y045520D01*
X031933Y045450D02*
X032093D01*
X032013Y045370D02*
Y045530D01*
X037590Y036960D02*
X037750D01*
X037670Y036880D02*
Y037040D01*
X028970Y048020D02*
X029130D01*
X029050Y047940D02*
Y048100D01*
X032940Y047400D02*
X033100D01*
X033020Y047320D02*
Y047480D01*
X034620Y036550D02*
X034780D01*
X034700Y036470D02*
Y036630D01*
X026360Y041789D02*
X026520D01*
X026440Y041709D02*
Y041869D01*
X024390Y043630D02*
X024550D01*
X024470Y043550D02*
Y043710D01*
X029910Y043990D02*
X030070D01*
X029990Y043910D02*
Y044070D01*
X032920Y040480D02*
X033080D01*
X033000Y040400D02*
Y040560D01*
X034920Y042430D02*
X035080D01*
X035000Y042350D02*
Y042510D01*
X030600Y042720D02*
X030760D01*
X030680Y042640D02*
Y042800D01*
X028840Y042550D02*
X029000D01*
X028920Y042470D02*
Y042630D01*
X029540Y047821D02*
X029700D01*
X029620Y047741D02*
Y047901D01*
X030710Y047821D02*
X030870D01*
X030790Y047741D02*
Y047901D01*
X026055Y047800D02*
X026215D01*
X026135Y047720D02*
Y047880D01*
X028723Y043929D02*
X028883D01*
X028803Y043849D02*
Y044009D01*
X036355Y046875D02*
X036515D01*
X036435Y046795D02*
Y046955D01*
X026100Y043050D02*
X026260D01*
X026180Y042970D02*
Y043130D01*
M02*
