M48
;Layer_Color=9474304
;FILE_FORMAT=2:4
INCH
;TYPE=PLATED
T1F00S00C0.0160
T2F00S00C0.0276
T3F00S00C0.0354
%
T01
X036640Y031130
X037420Y031030
X021860Y031000
X020790Y030840
X022660Y032350
X022670Y033350
X024480Y033110
Y035590
X024900Y035460
X024790Y036000
X025900Y037350
X027500Y038046
X027860Y037900
X027580Y038730
X027120Y040580
X026860Y040840
X026470Y040740
X027080Y041190
X028710Y041790
X029030Y042710
X029430Y042610
X030090Y042660
X030680Y042720
X031070Y043850
X030650Y045280
X030171Y045080
X030730Y046220
X028690Y043990
X027354Y043700
X027110Y045080
X024470Y042910
X024810Y039800
X025570Y039400
X029364Y039910
X030750Y039800
X031110Y039530
X030330Y038230
X031029Y034419
X028376Y031576
X026350Y031820
X025980Y031710
X032230Y031600
X032670Y032050
X034820Y031740
X035260Y033530
X035000Y034100
X035300Y034350
X035260Y034910
X038040Y034500
X038540
X037485Y036215
X036420Y039780
X034970Y039810
X034830Y040230
X034980Y040580
X034890Y040930
X033070Y040550
X033180Y041760
X031860Y042040
X032370Y043220
X031420Y045340
X035133Y043978
X035980Y044500
X036180Y043570
X036381Y042050
X036504Y046219
X037704Y045830
X031460Y039730
X031990Y038170
X037310Y031530
X031360Y047520
X031330Y049040
X032570Y048800
X030795Y047693
X030820Y047270
X029520Y047290
X029860Y047830
X029260Y048940
X028630Y048782
X027020Y048880
X026200Y049010
X025010Y048900
T02
X030790Y037250
X032010
X034150Y039790
Y041010
T03
X021450Y037300
Y038300
Y039300
Y040300
Y041300
X022450
Y040300
Y039300
Y038300
Y037300
X023650Y039300
Y040300
Y041300
X024650
Y040300
Y039300
X025900Y038900
Y037900
Y039900
Y040900
Y041900
X025250Y043200
Y044200
X026600Y044600
X027600
X028600
X029600
X030600
Y035800
X029600
X028600
X021300Y045250
Y046250
X031600Y044600
X032600
X033600
X035500Y043550
Y042550
Y041550
Y040550
Y039550
Y038550
X037100Y038150
X038100
Y039150
X037100
Y040150
X038100
Y041150
X037100
Y043100
X038100
X031600Y035800
X021250Y047800
Y048800
M30
