%FSAX24Y24*%
%MOIN*%
G70*
G01*
G75*
G04 Layer_Color=2752767*
%ADD10O,0.0118X0.0709*%
%ADD11O,0.0709X0.0118*%
%ADD12R,0.0472X0.0551*%
%ADD13R,0.0512X0.0591*%
%ADD14R,0.1024X0.0945*%
%ADD15O,0.0591X0.0236*%
%ADD16R,0.0197X0.0925*%
%ADD17R,0.0925X0.0984*%
%ADD18R,0.0787X0.0866*%
%ADD19R,0.0591X0.0591*%
%ADD20O,0.0984X0.0276*%
%ADD21R,0.0114X0.0177*%
%ADD22R,0.0177X0.0114*%
%ADD23R,0.0126X0.0354*%
%ADD24R,0.0315X0.0114*%
%ADD25O,0.0354X0.0116*%
%ADD26O,0.0116X0.0354*%
%ADD27R,0.0551X0.0472*%
%ADD28R,0.0591X0.0512*%
%ADD29C,0.0080*%
%ADD30C,0.0200*%
%ADD31C,0.0512*%
%ADD32C,0.0591*%
%ADD33R,0.0591X0.0591*%
%ADD34C,0.0280*%
%ADD35R,0.0551X0.0433*%
%ADD36C,0.0100*%
%ADD37C,0.0079*%
%ADD38C,0.0236*%
%ADD39C,0.0098*%
%ADD40O,0.0278X0.0869*%
%ADD41O,0.0869X0.0278*%
%ADD42R,0.0632X0.0711*%
%ADD43R,0.0672X0.0751*%
%ADD44R,0.1184X0.1105*%
%ADD45O,0.0751X0.0396*%
%ADD46R,0.0357X0.1085*%
%ADD47R,0.1085X0.1144*%
%ADD48R,0.0947X0.1026*%
%ADD49R,0.0751X0.0751*%
%ADD50O,0.1144X0.0436*%
%ADD51R,0.0274X0.0337*%
%ADD52R,0.0337X0.0274*%
%ADD53R,0.0286X0.0514*%
%ADD54R,0.0475X0.0274*%
%ADD55O,0.0514X0.0276*%
%ADD56O,0.0276X0.0514*%
%ADD57R,0.0711X0.0632*%
%ADD58R,0.0751X0.0672*%
%ADD59C,0.0672*%
%ADD60C,0.0751*%
%ADD61R,0.0751X0.0751*%
%ADD62C,0.0440*%
%ADD63R,0.0711X0.0593*%
%ADD64C,0.0039*%
%ADD65C,0.0060*%
%ADD66R,0.0629X0.0621*%
%ADD67R,0.0449X0.0425*%
%ADD68R,0.1064X0.1062*%
%ADD69C,0.0050*%
%ADD70C,0.0067*%
%ADD71C,0.0160*%
D29*
X035580Y030050D02*
G03*
X035580Y030050I-000240J000000D01*
G01*
D36*
X040139Y032650D02*
X040239Y032750D01*
X040439D01*
X040539Y032650D01*
Y032550D01*
X040439Y032450D01*
X040539Y032350D01*
Y032250D01*
X040439Y032150D01*
X040239D01*
X040139Y032250D01*
Y032350D01*
X040239Y032450D01*
X040139Y032550D01*
Y032650D01*
X040239Y032450D02*
X040439D01*
X040739Y032150D02*
X040939D01*
X040839D01*
Y032750D01*
X040739Y032650D01*
X047097Y032150D02*
X047297D01*
X047197D01*
Y032750D01*
X047097Y032650D01*
X047997Y032750D02*
X047797Y032650D01*
X047597Y032450D01*
Y032250D01*
X047697Y032150D01*
X047897D01*
X047997Y032250D01*
Y032350D01*
X047897Y032450D01*
X047597D01*
X048197Y032150D02*
Y032550D01*
X048296D01*
X048396Y032450D01*
Y032150D01*
Y032450D01*
X048496Y032550D01*
X048596Y032450D01*
Y032150D01*
X048796D02*
X048996D01*
X048896D01*
Y032550D01*
X048796D01*
X049296Y032150D02*
X049496D01*
X049396D01*
Y032750D01*
X049296D01*
X050596Y032150D02*
X050396Y032350D01*
Y032550D01*
X050596Y032750D01*
X050896Y032650D02*
X050996Y032750D01*
X051196D01*
X051296Y032650D01*
Y032250D01*
X051196Y032150D01*
X050996D01*
X050896Y032250D01*
Y032650D01*
X051495Y032150D02*
Y032250D01*
X051595D01*
Y032150D01*
X051495D01*
X052295D02*
Y032750D01*
X051995Y032450D01*
X052395D01*
X052595Y032650D02*
X052695Y032750D01*
X052895D01*
X052995Y032650D01*
Y032250D01*
X052895Y032150D01*
X052695D01*
X052595Y032250D01*
Y032650D01*
X053595Y032750D02*
X053395Y032650D01*
X053195Y032450D01*
Y032250D01*
X053295Y032150D01*
X053495D01*
X053595Y032250D01*
Y032350D01*
X053495Y032450D01*
X053195D01*
X054095Y032150D02*
Y032750D01*
X053795Y032450D01*
X054195D01*
X054395Y032150D02*
Y032550D01*
X054495D01*
X054594Y032450D01*
Y032150D01*
Y032450D01*
X054694Y032550D01*
X054794Y032450D01*
Y032150D01*
X054994D02*
Y032550D01*
X055094D01*
X055194Y032450D01*
Y032150D01*
Y032450D01*
X055294Y032550D01*
X055394Y032450D01*
Y032150D01*
X055594D02*
X055794Y032350D01*
Y032550D01*
X055594Y032750D01*
X060533Y032150D02*
Y032750D01*
X060833D01*
X060933Y032650D01*
Y032450D01*
X060833Y032350D01*
X060533D01*
X061133Y032750D02*
X061533D01*
X061333D01*
Y032150D01*
X061733Y032750D02*
Y032150D01*
Y032450D01*
X062132D01*
Y032750D01*
Y032150D01*
X065572D02*
Y032750D01*
X065872D01*
X065972Y032650D01*
Y032450D01*
X065872Y032350D01*
X065572D01*
X065772D02*
X065972Y032150D01*
X066271D02*
X066471D01*
X066571Y032250D01*
Y032450D01*
X066471Y032550D01*
X066271D01*
X066171Y032450D01*
Y032250D01*
X066271Y032150D01*
X066771Y032550D02*
Y032250D01*
X066871Y032150D01*
X067171D01*
Y032550D01*
X067371Y032150D02*
Y032550D01*
X067671D01*
X067771Y032450D01*
Y032150D01*
X068371Y032750D02*
Y032150D01*
X068071D01*
X067971Y032250D01*
Y032450D01*
X068071Y032550D01*
X068371D01*
X040439Y030950D02*
Y031550D01*
X040139Y031250D01*
X040539D01*
X047497Y030950D02*
X047097D01*
X047497Y031350D01*
Y031450D01*
X047397Y031550D01*
X047197D01*
X047097Y031450D01*
X047697Y031550D02*
X048097D01*
Y031450D01*
X047697Y031050D01*
Y030950D01*
X048296D02*
Y031050D01*
X048396D01*
Y030950D01*
X048296D01*
X049196Y031550D02*
X048796D01*
Y031250D01*
X048996Y031350D01*
X049096D01*
X049196Y031250D01*
Y031050D01*
X049096Y030950D01*
X048896D01*
X048796Y031050D01*
X049796Y031550D02*
X049396D01*
Y031250D01*
X049596Y031350D01*
X049696D01*
X049796Y031250D01*
Y031050D01*
X049696Y030950D01*
X049496D01*
X049396Y031050D01*
X049996D02*
X050096Y030950D01*
X050296D01*
X050396Y031050D01*
Y031450D01*
X050296Y031550D01*
X050096D01*
X049996Y031450D01*
Y031350D01*
X050096Y031250D01*
X050396D01*
X050596Y030950D02*
Y031350D01*
X050696D01*
X050796Y031250D01*
Y030950D01*
Y031250D01*
X050896Y031350D01*
X050996Y031250D01*
Y030950D01*
X051196D02*
X051396D01*
X051296D01*
Y031350D01*
X051196D01*
X051695Y030950D02*
X051895D01*
X051795D01*
Y031550D01*
X051695D01*
X052995Y030950D02*
X052795Y031150D01*
Y031350D01*
X052995Y031550D01*
X053295Y031450D02*
X053395Y031550D01*
X053595D01*
X053695Y031450D01*
Y031050D01*
X053595Y030950D01*
X053395D01*
X053295Y031050D01*
Y031450D01*
X053895Y030950D02*
Y031050D01*
X053995D01*
Y030950D01*
X053895D01*
X054395Y031550D02*
X054794D01*
Y031450D01*
X054395Y031050D01*
Y030950D01*
X054994D02*
Y031350D01*
X055094D01*
X055194Y031250D01*
Y030950D01*
Y031250D01*
X055294Y031350D01*
X055394Y031250D01*
Y030950D01*
X055594D02*
Y031350D01*
X055694D01*
X055794Y031250D01*
Y030950D01*
Y031250D01*
X055894Y031350D01*
X055994Y031250D01*
Y030950D01*
X056194D02*
X056394Y031150D01*
Y031350D01*
X056194Y031550D01*
X060533Y030950D02*
Y031550D01*
X060833D01*
X060933Y031450D01*
Y031250D01*
X060833Y031150D01*
X060533D01*
X061133Y031550D02*
X061533D01*
X061333D01*
Y030950D01*
X061733Y031550D02*
Y030950D01*
Y031250D01*
X062132D01*
Y031550D01*
Y030950D01*
X065572D02*
Y031550D01*
X065872D01*
X065972Y031450D01*
Y031250D01*
X065872Y031150D01*
X065572D01*
X065772D02*
X065972Y030950D01*
X066271D02*
X066471D01*
X066571Y031050D01*
Y031250D01*
X066471Y031350D01*
X066271D01*
X066171Y031250D01*
Y031050D01*
X066271Y030950D01*
X066771Y031350D02*
Y031050D01*
X066871Y030950D01*
X067171D01*
Y031350D01*
X067371Y030950D02*
Y031350D01*
X067671D01*
X067771Y031250D01*
Y030950D01*
X068371Y031550D02*
Y030950D01*
X068071D01*
X067971Y031050D01*
Y031250D01*
X068071Y031350D01*
X068371D01*
X040539Y030350D02*
X040139D01*
Y030050D01*
X040339Y030150D01*
X040439D01*
X040539Y030050D01*
Y029850D01*
X040439Y029750D01*
X040239D01*
X040139Y029850D01*
X041138Y030350D02*
X040739D01*
Y030050D01*
X040939Y030150D01*
X041038D01*
X041138Y030050D01*
Y029850D01*
X041038Y029750D01*
X040839D01*
X040739Y029850D01*
X047097Y030250D02*
X047197Y030350D01*
X047397D01*
X047497Y030250D01*
Y030150D01*
X047397Y030050D01*
X047297D01*
X047397D01*
X047497Y029950D01*
Y029850D01*
X047397Y029750D01*
X047197D01*
X047097Y029850D01*
X048097Y030350D02*
X047697D01*
Y030050D01*
X047897Y030150D01*
X047997D01*
X048097Y030050D01*
Y029850D01*
X047997Y029750D01*
X047797D01*
X047697Y029850D01*
X048296Y029750D02*
Y029850D01*
X048396D01*
Y029750D01*
X048296D01*
X049096D02*
Y030350D01*
X048796Y030050D01*
X049196D01*
X049396Y030250D02*
X049496Y030350D01*
X049696D01*
X049796Y030250D01*
Y030150D01*
X049696Y030050D01*
X049596D01*
X049696D01*
X049796Y029950D01*
Y029850D01*
X049696Y029750D01*
X049496D01*
X049396Y029850D01*
X049996Y030250D02*
X050096Y030350D01*
X050296D01*
X050396Y030250D01*
Y030150D01*
X050296Y030050D01*
X050196D01*
X050296D01*
X050396Y029950D01*
Y029850D01*
X050296Y029750D01*
X050096D01*
X049996Y029850D01*
X050596Y029750D02*
Y030150D01*
X050696D01*
X050796Y030050D01*
Y029750D01*
Y030050D01*
X050896Y030150D01*
X050996Y030050D01*
Y029750D01*
X051196D02*
X051396D01*
X051296D01*
Y030150D01*
X051196D01*
X051695Y029750D02*
X051895D01*
X051795D01*
Y030350D01*
X051695D01*
X052995Y029750D02*
X052795Y029950D01*
Y030150D01*
X052995Y030350D01*
X053295Y030250D02*
X053395Y030350D01*
X053595D01*
X053695Y030250D01*
Y029850D01*
X053595Y029750D01*
X053395D01*
X053295Y029850D01*
Y030250D01*
X053895Y029750D02*
Y029850D01*
X053995D01*
Y029750D01*
X053895D01*
X054395Y029850D02*
X054495Y029750D01*
X054694D01*
X054794Y029850D01*
Y030250D01*
X054694Y030350D01*
X054495D01*
X054395Y030250D01*
Y030150D01*
X054495Y030050D01*
X054794D01*
X054994Y029750D02*
Y030150D01*
X055094D01*
X055194Y030050D01*
Y029750D01*
Y030050D01*
X055294Y030150D01*
X055394Y030050D01*
Y029750D01*
X055594D02*
Y030150D01*
X055694D01*
X055794Y030050D01*
Y029750D01*
Y030050D01*
X055894Y030150D01*
X055994Y030050D01*
Y029750D01*
X056194D02*
X056394Y029950D01*
Y030150D01*
X056194Y030350D01*
X060533Y029750D02*
Y030350D01*
X060833D01*
X060933Y030250D01*
Y030050D01*
X060833Y029950D01*
X060533D01*
X061133Y030350D02*
X061533D01*
X061333D01*
Y029750D01*
X061733Y030350D02*
Y029750D01*
Y030050D01*
X062132D01*
Y030350D01*
Y029750D01*
X065572D02*
Y030350D01*
X065872D01*
X065972Y030250D01*
Y030050D01*
X065872Y029950D01*
X065572D01*
X065772D02*
X065972Y029750D01*
X066271D02*
X066471D01*
X066571Y029850D01*
Y030050D01*
X066471Y030150D01*
X066271D01*
X066171Y030050D01*
Y029850D01*
X066271Y029750D01*
X066771Y030150D02*
Y029850D01*
X066871Y029750D01*
X067171D01*
Y030150D01*
X067371Y029750D02*
Y030150D01*
X067671D01*
X067771Y030050D01*
Y029750D01*
X068371Y030350D02*
Y029750D01*
X068071D01*
X067971Y029850D01*
Y030050D01*
X068071Y030150D01*
X068371D01*
X040139Y028550D02*
X040339D01*
X040239D01*
Y029150D01*
X040139Y029050D01*
X040939Y028550D02*
Y029150D01*
X040639Y028850D01*
X041038D01*
X041238Y029050D02*
X041338Y029150D01*
X041538D01*
X041638Y029050D01*
Y028650D01*
X041538Y028550D01*
X041338D01*
X041238Y028650D01*
Y029050D01*
X042718Y029150D02*
X043118D01*
X042918D01*
Y028550D01*
X043418D02*
X043618D01*
X043718Y028650D01*
Y028850D01*
X043618Y028950D01*
X043418D01*
X043318Y028850D01*
Y028650D01*
X043418Y028550D01*
X044018Y029050D02*
Y028950D01*
X043918D01*
X044118D01*
X044018D01*
Y028650D01*
X044118Y028550D01*
X044518Y028950D02*
X044718D01*
X044818Y028850D01*
Y028550D01*
X044518D01*
X044418Y028650D01*
X044518Y028750D01*
X044818D01*
X045018Y028550D02*
X045217D01*
X045118D01*
Y029150D01*
X045018D01*
D69*
X033950Y039590D02*
Y039990D01*
X034350D01*
Y039590D01*
X033950D01*
Y040810D02*
Y041210D01*
X034350D01*
Y040810D01*
X033950D01*
X030590Y037050D02*
Y037450D01*
X030990D01*
Y037050D01*
X030590D01*
X031810D02*
Y037450D01*
X032210D01*
Y037050D01*
X031810D01*
X035950Y045750D02*
X035750Y046150D01*
X036150D01*
X035950Y045750D01*
X037704Y045580D02*
X037504Y045980D01*
X037904D01*
X037704Y045580D01*
X032910Y035230D02*
X032710Y035630D01*
X033110D01*
X032910Y035230D01*
X024100Y034500D02*
X023900Y034900D01*
X024300D01*
X024100Y034500D01*
X036610Y034350D02*
X036410Y034750D01*
X036810D01*
X036610Y034350D01*
X024800Y035010D02*
X024600Y035410D01*
X025000D01*
X024800Y035010D01*
X035240Y035510D02*
X035040Y035910D01*
X035440D01*
X035240Y035510D01*
X031430Y048306D02*
X031230Y048706D01*
X031630D01*
X031430Y048306D01*
X026210Y031700D02*
X026010Y032100D01*
X026410D01*
X026210Y031700D01*
X021431Y042256D02*
X021231Y042656D01*
X021631D01*
X021431Y042256D01*
X025670Y047120D02*
X025470Y047520D01*
X025870D01*
X025670Y047120D01*
X029030Y046880D02*
X028830Y047280D01*
X029230D01*
X029030Y046880D01*
X035260Y033460D02*
X035060Y033860D01*
X035460D01*
X035260Y033460D01*
X030230Y039290D02*
X030030Y039690D01*
X030430D01*
X030230Y039290D01*
X034729Y039856D02*
X034529Y040256D01*
X034929D01*
X034729Y039856D01*
X028430Y043890D02*
X028230Y044290D01*
X028630D01*
X028430Y043890D01*
X036620Y037140D02*
X036420Y037540D01*
X036820D01*
X036620Y037140D01*
X035560Y037480D02*
X035360Y037880D01*
X035760D01*
X035560Y037480D01*
X031870Y039817D02*
X031670Y040217D01*
X032070D01*
X031870Y039817D01*
X032730Y038960D02*
X032530Y039360D01*
X032930D01*
X032730Y038960D01*
X031932Y037946D02*
X031732Y038346D01*
X032132D01*
X031932Y037946D01*
X031060Y039810D02*
X030860Y040210D01*
X031260D01*
X031060Y039810D01*
X020950Y036140D02*
X020750Y036540D01*
X021150D01*
X020950Y036140D01*
X035080Y049010D02*
X034880Y049410D01*
X035280D01*
X035080Y049010D01*
X028145D02*
X027945Y049410D01*
X028345D01*
X028145Y049010D01*
X032430Y043440D02*
X032230Y043840D01*
X032630D01*
X032430Y043440D01*
X030980Y046710D02*
X030780Y047110D01*
X031180D01*
X030980Y046710D01*
X029480Y048250D02*
X029280Y048650D01*
X029680D01*
X029480Y048250D01*
X035260Y031150D02*
X035060Y031550D01*
X035460D01*
X035260Y031150D01*
X027240Y030990D02*
X027040Y031390D01*
X027440D01*
X027240Y030990D01*
X029900Y040840D02*
X029700Y041240D01*
X030100D01*
X029900Y040840D01*
X035080Y041820D02*
X034880Y042220D01*
X035280D01*
X035080Y041820D01*
X035110Y032990D02*
X034910Y033390D01*
X035310D01*
X035110Y032990D01*
X027190Y031710D02*
X026990Y032110D01*
X027390D01*
X027190Y031710D01*
X028920Y036710D02*
X028720Y037110D01*
X029120D01*
X028920Y036710D01*
X027710Y034200D02*
X027510Y034600D01*
X027910D01*
X027710Y034200D01*
X032296D02*
X032096Y034600D01*
X032496D01*
X032296Y034200D01*
X028530Y046590D02*
X028330Y046990D01*
X028730D01*
X028530Y046590D01*
X030447Y045780D02*
X030247Y046180D01*
X030647D01*
X030447Y045780D01*
X031350D02*
X031150Y046180D01*
X031550D01*
X031350Y045780D01*
X029880Y047337D02*
X029680Y047737D01*
X030080D01*
X029880Y047337D01*
X026740Y046890D02*
X026540Y047290D01*
X026940D01*
X026740Y046890D01*
X036800Y031710D02*
X036600Y032110D01*
X037000D01*
X036800Y031710D01*
X036720Y033650D02*
X036520Y034050D01*
X036920D01*
X036720Y033650D01*
X024100Y033530D02*
X023900Y033930D01*
X024300D01*
X024100Y033530D01*
X025580Y035010D02*
X025380Y035410D01*
X025780D01*
X025580Y035010D01*
X021740Y041990D02*
X021540Y042390D01*
X021940D01*
X021740Y041990D01*
X030600Y037920D02*
X030400Y038320D01*
X030800D01*
X030600Y037920D01*
X026930Y038120D02*
X026730Y038520D01*
X027130D01*
X026930Y038120D01*
X025220Y038760D02*
X025020Y039160D01*
X025420D01*
X025220Y038760D01*
X028640Y041930D02*
X028440Y042330D01*
X028840D01*
X028640Y041930D01*
X034190Y044200D02*
X033990Y044600D01*
X034390D01*
X034190Y044200D01*
X027500Y040860D02*
X027300Y041260D01*
X027700D01*
X027500Y040860D01*
X031300Y037870D02*
X031100Y038270D01*
X031500D01*
X031300Y037870D01*
X031710Y041300D02*
X031510Y041700D01*
X031910D01*
X031710Y041300D01*
X034970Y038160D02*
X034770Y038560D01*
X035170D01*
X034970Y038160D01*
X030711Y043890D02*
X030511Y044290D01*
X030911D01*
X030711Y043890D01*
X024820Y030810D02*
X024620Y031210D01*
X025020D01*
X024820Y030810D01*
X036990Y031130D02*
X036790Y031530D01*
X037190D01*
X036990Y031130D01*
X028760Y040211D02*
X028560Y040611D01*
X028960D01*
X028760Y040211D01*
X036750Y043370D02*
X036550Y043770D01*
X036950D01*
X036750Y043370D01*
X030800Y039480D02*
X030600Y039880D01*
X031000D01*
X030800Y039480D01*
X032760Y045240D02*
X032560Y045640D01*
X032960D01*
X032760Y045240D01*
X032013Y045250D02*
X031813Y045650D01*
X032213D01*
X032013Y045250D01*
X037670Y036760D02*
X037470Y037160D01*
X037870D01*
X037670Y036760D01*
X029050Y047820D02*
X028850Y048220D01*
X029250D01*
X029050Y047820D01*
X033020Y047200D02*
X032820Y047600D01*
X033220D01*
X033020Y047200D01*
X034700Y036350D02*
X034500Y036750D01*
X034900D01*
X034700Y036350D01*
X026440Y041589D02*
X026240Y041989D01*
X026640D01*
X026440Y041589D01*
X024470Y043430D02*
X024270Y043830D01*
X024670D01*
X024470Y043430D01*
X029990Y043790D02*
X029790Y044190D01*
X030190D01*
X029990Y043790D01*
X033000Y040280D02*
X032800Y040680D01*
X033200D01*
X033000Y040280D01*
X035000Y042230D02*
X034800Y042630D01*
X035200D01*
X035000Y042230D01*
X030680Y042520D02*
X030480Y042920D01*
X030880D01*
X030680Y042520D01*
X028920Y042350D02*
X028720Y042750D01*
X029120D01*
X028920Y042350D01*
X029620Y047621D02*
X029420Y048021D01*
X029820D01*
X029620Y047621D01*
X030790D02*
X030590Y048021D01*
X030990D01*
X030790Y047621D01*
X026135Y047600D02*
X025935Y048000D01*
X026335D01*
X026135Y047600D01*
X028803Y043729D02*
X028603Y044129D01*
X029003D01*
X028803Y043729D01*
X036435Y046675D02*
X036235Y047075D01*
X036635D01*
X036435Y046675D01*
X026180Y042850D02*
X025980Y043250D01*
X026380D01*
X026180Y042850D01*
X035340Y032210D02*
X035100Y032690D01*
X035580D01*
X035340Y032210D01*
X035100Y031010D02*
Y031490D01*
X035580D01*
Y031010D01*
X035100D01*
D70*
X026800Y044600D02*
G03*
X026800Y044600I-000200J000000D01*
G01*
X027800D02*
G03*
X027800Y044600I-000200J000000D01*
G01*
X028800D02*
G03*
X028800Y044600I-000200J000000D01*
G01*
X029800D02*
G03*
X029800Y044600I-000200J000000D01*
G01*
X030800D02*
G03*
X030800Y044600I-000200J000000D01*
G01*
X031800D02*
G03*
X031800Y044600I-000200J000000D01*
G01*
X032800D02*
G03*
X032800Y044600I-000200J000000D01*
G01*
X033800D02*
G03*
X033800Y044600I-000200J000000D01*
G01*
X026100Y041900D02*
G03*
X026100Y041900I-000200J000000D01*
G01*
Y040900D02*
G03*
X026100Y040900I-000200J000000D01*
G01*
Y039900D02*
G03*
X026100Y039900I-000200J000000D01*
G01*
Y038900D02*
G03*
X026100Y038900I-000200J000000D01*
G01*
Y037900D02*
G03*
X026100Y037900I-000200J000000D01*
G01*
X025450Y043200D02*
G03*
X025450Y043200I-000200J000000D01*
G01*
Y044200D02*
G03*
X025450Y044200I-000200J000000D01*
G01*
X035700Y043550D02*
G03*
X035700Y043550I-000200J000000D01*
G01*
Y042550D02*
G03*
X035700Y042550I-000200J000000D01*
G01*
Y041550D02*
G03*
X035700Y041550I-000200J000000D01*
G01*
Y040550D02*
G03*
X035700Y040550I-000200J000000D01*
G01*
Y039550D02*
G03*
X035700Y039550I-000200J000000D01*
G01*
Y038550D02*
G03*
X035700Y038550I-000200J000000D01*
G01*
X028800Y035800D02*
G03*
X028800Y035800I-000200J000000D01*
G01*
X029800D02*
G03*
X029800Y035800I-000200J000000D01*
G01*
X030800D02*
G03*
X030800Y035800I-000200J000000D01*
G01*
X031800D02*
G03*
X031800Y035800I-000200J000000D01*
G01*
X022650Y037300D02*
G03*
X022650Y037300I-000200J000000D01*
G01*
X021650D02*
G03*
X021650Y037300I-000200J000000D01*
G01*
X022650Y038300D02*
G03*
X022650Y038300I-000200J000000D01*
G01*
X021650D02*
G03*
X021650Y038300I-000200J000000D01*
G01*
X022650Y039300D02*
G03*
X022650Y039300I-000200J000000D01*
G01*
X021650D02*
G03*
X021650Y039300I-000200J000000D01*
G01*
X022650Y040300D02*
G03*
X022650Y040300I-000200J000000D01*
G01*
X021650D02*
G03*
X021650Y040300I-000200J000000D01*
G01*
X022650Y041300D02*
G03*
X022650Y041300I-000200J000000D01*
G01*
X021650D02*
G03*
X021650Y041300I-000200J000000D01*
G01*
X021450Y047800D02*
G03*
X021450Y047800I-000200J000000D01*
G01*
Y048800D02*
G03*
X021450Y048800I-000200J000000D01*
G01*
X021500Y045250D02*
G03*
X021500Y045250I-000200J000000D01*
G01*
Y046250D02*
G03*
X021500Y046250I-000200J000000D01*
G01*
X037300Y041150D02*
G03*
X037300Y041150I-000200J000000D01*
G01*
X038300D02*
G03*
X038300Y041150I-000200J000000D01*
G01*
X037300Y040150D02*
G03*
X037300Y040150I-000200J000000D01*
G01*
X038300D02*
G03*
X038300Y040150I-000200J000000D01*
G01*
X037300Y039150D02*
G03*
X037300Y039150I-000200J000000D01*
G01*
X038300D02*
G03*
X038300Y039150I-000200J000000D01*
G01*
X037300Y038150D02*
G03*
X037300Y038150I-000200J000000D01*
G01*
X038300D02*
G03*
X038300Y038150I-000200J000000D01*
G01*
X037300Y043100D02*
G03*
X037300Y043100I-000200J000000D01*
G01*
X038300D02*
G03*
X038300Y043100I-000200J000000D01*
G01*
X024850Y039300D02*
G03*
X024850Y039300I-000200J000000D01*
G01*
X023850D02*
G03*
X023850Y039300I-000200J000000D01*
G01*
X024850Y040300D02*
G03*
X024850Y040300I-000200J000000D01*
G01*
X023850D02*
G03*
X023850Y040300I-000200J000000D01*
G01*
X024850Y041300D02*
G03*
X024850Y041300I-000200J000000D01*
G01*
X023850D02*
G03*
X023850Y041300I-000200J000000D01*
G01*
D71*
X035580Y034190D02*
X035460Y034310D01*
X035220D01*
X035100Y034190D01*
Y034070D01*
X035220Y033950D01*
X035460D01*
X035580Y033830D01*
Y033710D01*
X035460Y033590D01*
X035220D01*
X035100Y033710D01*
X035820Y034070D02*
Y033710D01*
X035940Y033590D01*
X036300D01*
Y033470D01*
X036180Y033350D01*
X036060D01*
X036300Y033590D02*
Y034070D01*
X036540Y033590D02*
Y034070D01*
X036660D01*
X036779Y033950D01*
Y033590D01*
Y033950D01*
X036899Y034070D01*
X037019Y033950D01*
Y033590D01*
X037259Y034310D02*
Y033590D01*
X037619D01*
X037739Y033710D01*
Y033830D01*
Y033950D01*
X037619Y034070D01*
X037259D01*
X038099Y033590D02*
X038339D01*
X038459Y033710D01*
Y033950D01*
X038339Y034070D01*
X038099D01*
X037979Y033950D01*
Y033710D01*
X038099Y033590D01*
X038699D02*
X038939D01*
X038819D01*
Y034310D01*
X038699D01*
X040139D02*
Y033590D01*
Y033950D01*
X040619D01*
Y034310D01*
Y033590D01*
X040859D02*
X041098D01*
X040978D01*
Y034070D01*
X040859D01*
X041578Y034190D02*
Y034070D01*
X041458D01*
X041698D01*
X041578D01*
Y033710D01*
X041698Y033590D01*
X043258Y034190D02*
X043138Y034310D01*
X042898D01*
X042778Y034190D01*
Y033710D01*
X042898Y033590D01*
X043138D01*
X043258Y033710D01*
X043618Y033590D02*
X043858D01*
X043978Y033710D01*
Y033950D01*
X043858Y034070D01*
X043618D01*
X043498Y033950D01*
Y033710D01*
X043618Y033590D01*
X044217Y034070D02*
Y033710D01*
X044337Y033590D01*
X044697D01*
Y034070D01*
X044937Y033590D02*
Y034070D01*
X045297D01*
X045417Y033950D01*
Y033590D01*
X045777Y034190D02*
Y034070D01*
X045657D01*
X045897D01*
X045777D01*
Y033710D01*
X045897Y033590D01*
X047577Y034310D02*
X047097D01*
Y033950D01*
X047337D01*
X047097D01*
Y033590D01*
X047817D02*
X048057D01*
X047937D01*
Y034070D01*
X047817D01*
X048416Y033590D02*
Y034070D01*
X048776D01*
X048896Y033950D01*
Y033590D01*
X049136D02*
X049376D01*
X049256D01*
Y034070D01*
X049136D01*
X049736Y033590D02*
X050096D01*
X050216Y033710D01*
X050096Y033830D01*
X049856D01*
X049736Y033950D01*
X049856Y034070D01*
X050216D01*
X050456Y034310D02*
Y033590D01*
Y033950D01*
X050576Y034070D01*
X050816D01*
X050936Y033950D01*
Y033590D01*
X051535D02*
X051296D01*
X051176Y033710D01*
Y033950D01*
X051296Y034070D01*
X051535D01*
X051655Y033950D01*
Y033830D01*
X051176D01*
X052375Y034310D02*
Y033590D01*
X052015D01*
X051895Y033710D01*
Y033950D01*
X052015Y034070D01*
X052375D01*
X053335Y034310D02*
Y033590D01*
Y033950D01*
X053815D01*
Y034310D01*
Y033590D01*
X054175D02*
X054415D01*
X054534Y033710D01*
Y033950D01*
X054415Y034070D01*
X054175D01*
X054055Y033950D01*
Y033710D01*
X054175Y033590D01*
X054774D02*
X055014D01*
X054894D01*
Y034310D01*
X054774D01*
X055734Y033590D02*
X055494D01*
X055374Y033710D01*
Y033950D01*
X055494Y034070D01*
X055734D01*
X055854Y033950D01*
Y033830D01*
X055374D01*
X057294Y034190D02*
X057174Y034310D01*
X056934D01*
X056814Y034190D01*
Y034070D01*
X056934Y033950D01*
X057174D01*
X057294Y033830D01*
Y033710D01*
X057174Y033590D01*
X056934D01*
X056814Y033710D01*
X057534Y033590D02*
X057773D01*
X057653D01*
Y034070D01*
X057534D01*
X058133D02*
X058613D01*
X058133Y033590D01*
X058613D01*
X059213D02*
X058973D01*
X058853Y033710D01*
Y033950D01*
X058973Y034070D01*
X059213D01*
X059333Y033950D01*
Y033830D01*
X058853D01*
X060533Y033590D02*
Y034310D01*
X060893D01*
X061013Y034190D01*
Y033950D01*
X060893Y033830D01*
X060533D01*
X061253Y033590D02*
X061493D01*
X061373D01*
Y034310D01*
X061253D01*
X061972Y034070D02*
X062212D01*
X062332Y033950D01*
Y033590D01*
X061972D01*
X061853Y033710D01*
X061972Y033830D01*
X062332D01*
X062692Y034190D02*
Y034070D01*
X062572D01*
X062812D01*
X062692D01*
Y033710D01*
X062812Y033590D01*
X063532D02*
X063292D01*
X063172Y033710D01*
Y033950D01*
X063292Y034070D01*
X063532D01*
X063652Y033950D01*
Y033830D01*
X063172D01*
X064372Y034310D02*
Y033590D01*
X064012D01*
X063892Y033710D01*
Y033950D01*
X064012Y034070D01*
X064372D01*
X065572Y034310D02*
Y033590D01*
Y033950D01*
X066052D01*
Y034310D01*
Y033590D01*
X066411D02*
X066651D01*
X066771Y033710D01*
Y033950D01*
X066651Y034070D01*
X066411D01*
X066291Y033950D01*
Y033710D01*
X066411Y033590D01*
X067011D02*
X067251D01*
X067131D01*
Y034310D01*
X067011D01*
X067971Y033590D02*
X067731D01*
X067611Y033710D01*
Y033950D01*
X067731Y034070D01*
X067971D01*
X068091Y033950D01*
Y033830D01*
X067611D01*
X069051Y034310D02*
X069530D01*
X069290D01*
Y033590D01*
X069770Y034070D02*
Y033710D01*
X069890Y033590D01*
X070250D01*
Y033470D01*
X070130Y033350D01*
X070010D01*
X070250Y033590D02*
Y034070D01*
X070490Y033350D02*
Y034070D01*
X070850D01*
X070970Y033950D01*
Y033710D01*
X070850Y033590D01*
X070490D01*
X071570D02*
X071330D01*
X071210Y033710D01*
Y033950D01*
X071330Y034070D01*
X071570D01*
X071690Y033950D01*
Y033830D01*
X071210D01*
X034220Y034670D02*
X072890D01*
X034220Y033050D02*
X072890D01*
X034220Y034670D02*
Y028250D01*
X072890Y034670D02*
Y028250D01*
X039699Y034670D02*
Y028250D01*
X046657Y034670D02*
Y028250D01*
X060093Y034670D02*
Y028250D01*
X065132Y034670D02*
Y028250D01*
X034220Y029450D02*
X072890D01*
X034220Y028250D02*
X072890D01*
M02*
