M48
;Layer_Color=9474304
;FILE_FORMAT=2:4
INCH
;TYPE=PLATED
T1F00S00C0.0130
T2F00S00C0.0160
T3F00S00C0.0276
T4F00S00C0.0354
%
T01
X027864Y047914
Y048386
X028336
Y047914
T02
X021900Y031800
X024200Y031500
X024300Y032650
X024350Y033350
Y033850
X024400Y034350
X024700Y035550
X025200Y035250
X025700Y035350
X024850Y036650
X025100Y037000
X027350Y036700
X027650Y037150
X028100Y038050
X029800Y038300
X030050Y038000
X030450Y038050
X030850Y037900
X031100Y038250
X030200Y039700
X029000Y039650
X028900Y040750
X027050Y040650
X027250Y040300
X026850Y041000
X026650Y041350
X026750Y042150
X027350Y042200
X027400Y042700
X027650Y043400
X028400Y045650
X029450Y045900
X030300Y045850
X031100Y045950
X025100Y046150
X021550Y035450
X022500Y034350
X026200Y031850
X026900Y031700
X026600Y031350
X027500Y031450
X028450Y032350
X031750
X031250Y033300
X033300Y033350
X033150Y031550
X035200Y031600
Y032150
Y032650
X034900Y036150
X036000Y035700
X032700Y035800
X032050Y036600
X031400Y039850
X031300Y040450
X033500Y040550
X033800Y040250
X033350Y041300
X034150Y042600
X034500Y044050
X035500Y044200
X037750
X033950Y045800
X033400Y046000
X032100Y045950
X032950Y043300
X035600Y047450
X036450Y047350
X036950Y047850
X037600Y047950
X037450Y047300
X031350Y048550
X031100Y048050
X029300Y047950
X029350Y047350
X028850Y046900
X026800Y046950
X026500Y048750
X025750Y049150
X024750Y047200
X029000Y049150
X029550Y049000
T03
X030790Y037250
X032010
X034150Y039790
Y041010
T04
X021450Y037300
X022450
Y038300
X021450
Y039300
X022450
Y040300
X021450
Y041300
X022450
X023650
Y040300
Y039300
X024650
Y040300
Y041300
X025900Y040900
Y041900
X025250Y043200
Y044200
X026650Y045150
X027650
X028650
X029650
X030650
X030600Y035800
X029600
X028600
X025900Y037900
Y038900
Y039900
X021300Y045250
Y046250
X031650Y045150
X032650
X033650
X035500Y043550
Y042550
Y041550
Y040550
Y039550
Y038550
X037100Y038150
Y039150
Y040150
Y041150
X038100
Y040150
Y039150
Y038150
Y043100
X037100
X031600Y035800
X021250Y047800
Y048800
M30
