%FSAX24Y24*%
%MOIN*%
G70*
G01*
G75*
G04 Layer_Color=8388736*
%ADD10R,0.0551X0.0433*%
%ADD11R,0.0433X0.0551*%
%ADD12R,0.1024X0.0945*%
%ADD13O,0.0118X0.0709*%
%ADD14O,0.0709X0.0118*%
%ADD15O,0.0591X0.0236*%
%ADD16O,0.0354X0.0118*%
%ADD17O,0.0118X0.0354*%
%ADD18R,0.1024X0.1024*%
%ADD19R,0.0197X0.0925*%
%ADD20R,0.0925X0.0984*%
%ADD21R,0.0787X0.0866*%
%ADD22R,0.0118X0.0177*%
%ADD23R,0.0177X0.0118*%
%ADD24R,0.0236X0.0126*%
%ADD25R,0.0126X0.0236*%
%ADD26R,0.0591X0.0591*%
%ADD27O,0.0984X0.0276*%
%ADD28C,0.0080*%
%ADD29C,0.0591*%
%ADD30R,0.0591X0.0591*%
%ADD31C,0.0512*%
%ADD32C,0.0240*%
%ADD33C,0.0260*%
%ADD34C,0.0098*%
%ADD35C,0.0079*%
%ADD36C,0.0236*%
%ADD37C,0.0020*%
%ADD38C,0.0100*%
%ADD39R,0.0631X0.0513*%
%ADD40R,0.0513X0.0631*%
%ADD41R,0.1104X0.1025*%
%ADD42O,0.0198X0.0789*%
%ADD43O,0.0789X0.0198*%
%ADD44O,0.0671X0.0316*%
%ADD45O,0.0434X0.0198*%
%ADD46O,0.0198X0.0434*%
%ADD47R,0.1104X0.1104*%
%ADD48R,0.0277X0.1005*%
%ADD49R,0.1005X0.1064*%
%ADD50R,0.0867X0.0946*%
%ADD51R,0.0198X0.0257*%
%ADD52R,0.0257X0.0198*%
%ADD53R,0.0316X0.0206*%
%ADD54R,0.0206X0.0316*%
%ADD55R,0.0671X0.0671*%
%ADD56O,0.1064X0.0356*%
%ADD57C,0.0671*%
%ADD58R,0.0671X0.0671*%
%ADD59C,0.0592*%
%ADD60C,0.0320*%
D39*
X031500Y046455D02*
D03*
Y047045D02*
D03*
X026850Y043405D02*
D03*
Y043995D02*
D03*
X027700Y045955D02*
D03*
Y046545D02*
D03*
X032250Y047905D02*
D03*
Y048495D02*
D03*
X028200Y036805D02*
D03*
Y037395D02*
D03*
X028900Y036805D02*
D03*
Y037395D02*
D03*
X024850Y037455D02*
D03*
Y038045D02*
D03*
D40*
X021795Y044300D02*
D03*
X021205D02*
D03*
X033645Y048800D02*
D03*
X033055D02*
D03*
X023345Y044400D02*
D03*
X022755D02*
D03*
X026305Y046350D02*
D03*
X026895D02*
D03*
X028945Y046300D02*
D03*
X028355D02*
D03*
X026305Y035250D02*
D03*
X026895D02*
D03*
X026945Y033150D02*
D03*
X026355D02*
D03*
X021855Y034850D02*
D03*
X022445D02*
D03*
X026945Y033850D02*
D03*
X026355D02*
D03*
X026945Y034550D02*
D03*
X026355D02*
D03*
X021855Y032850D02*
D03*
X022445D02*
D03*
Y033800D02*
D03*
X021855D02*
D03*
X032355Y034850D02*
D03*
X032945D02*
D03*
Y033800D02*
D03*
X032355D02*
D03*
X032405Y032850D02*
D03*
X032995D02*
D03*
X037445Y033050D02*
D03*
X036855D02*
D03*
X037445Y033800D02*
D03*
X036855D02*
D03*
X037445Y034500D02*
D03*
X036855D02*
D03*
X037445Y032300D02*
D03*
X036855D02*
D03*
X037445Y035200D02*
D03*
X036855D02*
D03*
X030145Y037450D02*
D03*
X029555D02*
D03*
X030145Y036750D02*
D03*
X029555D02*
D03*
X026945Y032450D02*
D03*
X026355D02*
D03*
X023995Y037900D02*
D03*
X023405D02*
D03*
X023995Y037150D02*
D03*
X023405D02*
D03*
D41*
X025010Y048250D02*
D03*
X022490D02*
D03*
D42*
X028774Y043285D02*
D03*
X028970D02*
D03*
X029167D02*
D03*
X029364D02*
D03*
X029561D02*
D03*
X029758D02*
D03*
X029955D02*
D03*
X030152D02*
D03*
X030348D02*
D03*
X030545D02*
D03*
X030742D02*
D03*
X030939D02*
D03*
X031136D02*
D03*
X031333D02*
D03*
X031530D02*
D03*
X031726D02*
D03*
Y038915D02*
D03*
X031530D02*
D03*
X031333D02*
D03*
X031136D02*
D03*
X030939D02*
D03*
X030742D02*
D03*
X030545D02*
D03*
X030348D02*
D03*
X030152D02*
D03*
X029955D02*
D03*
X029758D02*
D03*
X029561D02*
D03*
X029364D02*
D03*
X029167D02*
D03*
X028970D02*
D03*
X028774D02*
D03*
D43*
X032435Y042576D02*
D03*
Y042380D02*
D03*
Y042183D02*
D03*
Y041986D02*
D03*
Y041789D02*
D03*
Y041592D02*
D03*
Y041395D02*
D03*
Y041198D02*
D03*
Y041002D02*
D03*
Y040805D02*
D03*
Y040608D02*
D03*
Y040411D02*
D03*
Y040214D02*
D03*
Y040017D02*
D03*
Y039820D02*
D03*
Y039624D02*
D03*
X028065D02*
D03*
Y039820D02*
D03*
Y040017D02*
D03*
Y040214D02*
D03*
Y040411D02*
D03*
Y040608D02*
D03*
Y040805D02*
D03*
Y041002D02*
D03*
Y041198D02*
D03*
Y041395D02*
D03*
Y041592D02*
D03*
Y041789D02*
D03*
Y041986D02*
D03*
Y042183D02*
D03*
Y042380D02*
D03*
Y042576D02*
D03*
D44*
X022346Y046650D02*
D03*
Y046150D02*
D03*
Y045650D02*
D03*
Y045150D02*
D03*
X024354Y046650D02*
D03*
Y046150D02*
D03*
Y045650D02*
D03*
Y045150D02*
D03*
D45*
X027293Y048642D02*
D03*
Y048445D02*
D03*
Y048248D02*
D03*
Y048052D02*
D03*
Y047855D02*
D03*
Y047658D02*
D03*
X028907D02*
D03*
Y047855D02*
D03*
Y048052D02*
D03*
Y048248D02*
D03*
Y048445D02*
D03*
Y048642D02*
D03*
D46*
X027608Y047343D02*
D03*
X027805D02*
D03*
X028002D02*
D03*
X028198D02*
D03*
X028395D02*
D03*
X028592D02*
D03*
Y048957D02*
D03*
X028395D02*
D03*
X028198D02*
D03*
X028002D02*
D03*
X027805D02*
D03*
X027608D02*
D03*
D47*
X028100Y048150D02*
D03*
D48*
X037065Y045129D02*
D03*
X037380D02*
D03*
X036750D02*
D03*
X036435D02*
D03*
X036120Y045130D02*
D03*
D49*
X038787Y046497D02*
D03*
X034713D02*
D03*
X038787Y048171D02*
D03*
X034713D02*
D03*
D50*
X032459Y046850D02*
D03*
X033641D02*
D03*
D51*
X029857Y047257D02*
D03*
X030054D02*
D03*
X030250D02*
D03*
X030447D02*
D03*
Y046253D02*
D03*
X030250D02*
D03*
X030054D02*
D03*
X029857D02*
D03*
D52*
X030654Y047050D02*
D03*
Y046853D02*
D03*
Y046656D02*
D03*
Y046459D02*
D03*
X029650D02*
D03*
Y046656D02*
D03*
Y046853D02*
D03*
Y047050D02*
D03*
D53*
Y047863D02*
D03*
Y048059D02*
D03*
Y048256D02*
D03*
Y048453D02*
D03*
Y048650D02*
D03*
X030595Y047863D02*
D03*
Y048059D02*
D03*
Y048256D02*
D03*
Y048453D02*
D03*
Y048650D02*
D03*
D54*
X030122Y048729D02*
D03*
Y047784D02*
D03*
D55*
X021361Y043400D02*
D03*
X022739D02*
D03*
X028600Y035800D02*
D03*
X038100Y043100D02*
D03*
X033650Y045150D02*
D03*
D56*
X025315Y031350D02*
D03*
Y031850D02*
D03*
Y032350D02*
D03*
Y032850D02*
D03*
Y033350D02*
D03*
Y033850D02*
D03*
Y034350D02*
D03*
Y034850D02*
D03*
X023385Y031350D02*
D03*
Y031850D02*
D03*
Y032350D02*
D03*
Y032850D02*
D03*
Y033350D02*
D03*
Y033850D02*
D03*
Y034350D02*
D03*
Y034850D02*
D03*
X035965Y031350D02*
D03*
Y031850D02*
D03*
Y032350D02*
D03*
Y032850D02*
D03*
Y033350D02*
D03*
Y033850D02*
D03*
Y034350D02*
D03*
Y034850D02*
D03*
X034035Y031350D02*
D03*
Y031850D02*
D03*
Y032350D02*
D03*
Y032850D02*
D03*
Y033350D02*
D03*
Y033850D02*
D03*
Y034350D02*
D03*
Y034850D02*
D03*
D57*
X029600Y035800D02*
D03*
X030600D02*
D03*
X031600D02*
D03*
X025900Y040900D02*
D03*
Y039900D02*
D03*
Y038900D02*
D03*
Y037900D02*
D03*
X025250Y043200D02*
D03*
X021450Y037300D02*
D03*
X022450Y038300D02*
D03*
X021450D02*
D03*
X022450Y039300D02*
D03*
X021450D02*
D03*
X022450Y040300D02*
D03*
X021450D02*
D03*
X022450Y041300D02*
D03*
X021450D02*
D03*
X021250Y047800D02*
D03*
X021300Y045250D02*
D03*
X038100Y041150D02*
D03*
X037100Y040150D02*
D03*
X038100D02*
D03*
X037100Y039150D02*
D03*
X038100D02*
D03*
X037100Y038150D02*
D03*
X038100D02*
D03*
X037100Y043100D02*
D03*
X024650Y039300D02*
D03*
X023650D02*
D03*
X024650Y040300D02*
D03*
X023650D02*
D03*
X024650Y041300D02*
D03*
X035500Y043550D02*
D03*
Y042550D02*
D03*
Y041550D02*
D03*
Y040550D02*
D03*
Y039550D02*
D03*
X026650Y045150D02*
D03*
X027650D02*
D03*
X028650D02*
D03*
X029650D02*
D03*
X030650D02*
D03*
X031650D02*
D03*
X032650D02*
D03*
D58*
X025900Y041900D02*
D03*
X025250Y044200D02*
D03*
X022450Y037300D02*
D03*
X021250Y048800D02*
D03*
X021300Y046250D02*
D03*
X037100Y041150D02*
D03*
X023650Y041300D02*
D03*
X035500Y038550D02*
D03*
D59*
X030790Y037250D02*
D03*
X032010D02*
D03*
X034150Y039790D02*
D03*
Y041010D02*
D03*
D60*
X027650Y037150D02*
D03*
X025700Y035350D02*
D03*
X022500Y034350D02*
D03*
X029800Y038300D02*
D03*
X030050Y038000D02*
D03*
X028100Y038050D02*
D03*
X029550Y049000D02*
D03*
X029000Y049150D02*
D03*
X037750Y044200D02*
D03*
X037600Y047950D02*
D03*
X030450Y038050D02*
D03*
X030850Y037900D02*
D03*
X031100Y038250D02*
D03*
X021550Y035450D02*
D03*
X024400Y034350D02*
D03*
X024350Y033350D02*
D03*
Y033850D02*
D03*
X024300Y032650D02*
D03*
X024200Y031500D02*
D03*
X028450Y032350D02*
D03*
X026900Y031700D02*
D03*
X026200Y031850D02*
D03*
X027500Y031450D02*
D03*
X026600Y031350D02*
D03*
X035200Y031600D02*
D03*
Y032150D02*
D03*
Y032650D02*
D03*
X033800Y040250D02*
D03*
X033350Y041300D02*
D03*
X034150Y042600D02*
D03*
X030200Y039700D02*
D03*
X031400Y039850D02*
D03*
X031300Y040450D02*
D03*
X025100Y046150D02*
D03*
X026800Y046950D02*
D03*
X029450Y045900D02*
D03*
X037450Y047300D02*
D03*
X036950Y047850D02*
D03*
X036450Y047350D02*
D03*
X035600Y047450D02*
D03*
X033950Y045800D02*
D03*
X032100Y045950D02*
D03*
X031100D02*
D03*
X026500Y048750D02*
D03*
X025750Y049150D02*
D03*
X031350Y048550D02*
D03*
X031100Y048050D02*
D03*
X029350Y047350D02*
D03*
X027400Y042700D02*
D03*
X027350Y042200D02*
D03*
X026750Y042150D02*
D03*
X027250Y040300D02*
D03*
X027050Y040650D02*
D03*
X026850Y041000D02*
D03*
X026650Y041350D02*
D03*
X033150Y031550D02*
D03*
X033500Y040550D02*
D03*
X025100Y037000D02*
D03*
X025200Y035250D02*
D03*
X033400Y046000D02*
D03*
X030300Y045850D02*
D03*
X035500Y044200D02*
D03*
X028900Y040750D02*
D03*
X034500Y044050D02*
D03*
X021900Y031800D02*
D03*
X031750Y032350D02*
D03*
X028400Y045650D02*
D03*
X029300Y047950D02*
D03*
X024750Y047200D02*
D03*
X032950Y043300D02*
D03*
X027650Y043400D02*
D03*
X029000Y039650D02*
D03*
X032700Y035800D02*
D03*
X036000Y035700D02*
D03*
X027350Y036700D02*
D03*
X024850Y036650D02*
D03*
X024700Y035550D02*
D03*
X034900Y036150D02*
D03*
X028850Y046900D02*
D03*
X032050Y036600D02*
D03*
X033300Y033350D02*
D03*
X031250Y033300D02*
D03*
M02*
