M48
;Layer_Color=9474304
;FILE_FORMAT=2:4
INCH
;TYPE=PLATED
T1F00S00C0.0160
T2F00S00C0.0276
T3F00S00C0.0354
%
T01
X024820Y031010
X027240Y031190
X027190Y031910
X026210Y031900
X025580Y035210
X024800
X024100Y034700
Y033730
X027710Y034400
X028920Y036910
X030600Y038120
X030230Y039490
X030800Y039680
X031060Y040010
X029900Y041040
X028760Y040411
X028640Y042130
X028920Y042550
X028803Y043929
X028430Y044090
X029990Y043990
X030711Y044090
X030680Y042720
X030447Y045980
X028530Y046790
X026180Y043050
X026440Y041789
X027500Y041060
X026930Y038320
X025220Y038960
X024470Y043630
X021740Y042190
X021431Y042456
X020950Y036340
X031300Y038070
X031932Y038146
X032730Y039160
X033000Y040480
X031870Y040017
X031710Y041500
X032430Y043640
X032760Y045440
X032013Y045450
X031350Y045980
X034190Y044400
X035000Y042430
X035080Y042020
X034729Y040056
X034970Y038360
X035560Y037680
X036620Y037340
X037670Y036960
X034700Y036550
X035240Y035710
X035260Y033660
X035110Y033190
X035260Y031350
X036990Y031330
X036800Y031910
X036720Y033850
X036610Y034550
X032296Y034400
X032910Y035430
X036750Y043570
X037704Y045780
X035950Y045950
X036435Y046875
X035080Y049210
X033020Y047400
X031430Y048506
X030790Y047821
X030980Y046910
X029880Y047537
X029620Y047821
X029050Y048020
X029480Y048450
X029030Y047080
X026740Y047090
X025670Y047320
X026135Y047800
X028145Y049210
T02
X030790Y037250
X032010
X034150Y039790
Y041010
T03
X021450Y037300
Y038300
Y039300
Y040300
Y041300
X022450
Y040300
Y039300
Y038300
Y037300
X023650Y039300
Y040300
Y041300
X024650
Y040300
Y039300
X025900Y038900
Y037900
Y039900
Y040900
Y041900
X025250Y043200
Y044200
X026600Y044600
X027600
X028600
X029600
X030600
Y035800
X029600
X028600
X021300Y045250
Y046250
X031600Y044600
X032600
X033600
X035500Y043550
Y042550
Y041550
Y040550
Y039550
Y038550
X037100Y038150
X038100
Y039150
X037100
Y040150
X038100
Y041150
X037100
Y043100
X038100
X031600Y035800
X021250Y047800
Y048800
M30
