%FSAX24Y24*%
%MOIN*%
G70*
G01*
G75*
G04 Layer_Physical_Order=1*
G04 Layer_Color=255*
%ADD10R,0.0551X0.0433*%
%ADD11R,0.0433X0.0551*%
%ADD12R,0.1024X0.0945*%
%ADD13O,0.0118X0.0709*%
%ADD14O,0.0709X0.0118*%
%ADD15O,0.0591X0.0236*%
%ADD16O,0.0354X0.0118*%
%ADD17O,0.0118X0.0354*%
%ADD18R,0.1024X0.1024*%
%ADD19R,0.0197X0.0925*%
%ADD20R,0.0925X0.0984*%
%ADD21R,0.0787X0.0866*%
%ADD22R,0.0118X0.0177*%
%ADD23R,0.0177X0.0118*%
%ADD24R,0.0236X0.0126*%
%ADD25R,0.0126X0.0236*%
%ADD26R,0.0591X0.0591*%
%ADD27O,0.0984X0.0276*%
%ADD28C,0.0080*%
%ADD29C,0.0591*%
%ADD30R,0.0591X0.0591*%
%ADD31C,0.0512*%
%ADD32C,0.0240*%
%ADD33C,0.0260*%
G36*
X039804Y049704D02*
X039800Y049700D01*
Y030250D01*
X020150D01*
X020100Y049715D01*
X020135Y049750D01*
X039785D01*
X039804Y049704D01*
D02*
G37*
%LPC*%
G36*
X039500Y049602D02*
X020500D01*
X020461Y049594D01*
X020428Y049572D01*
X020406Y049539D01*
X020398Y049500D01*
Y030500D01*
X020406Y030461D01*
X020428Y030428D01*
X020461Y030406D01*
X020500Y030398D01*
X039500D01*
X039539Y030406D01*
X039572Y030428D01*
X039594Y030461D01*
X039602Y030500D01*
X039602Y030500D01*
X039602Y030500D01*
Y030500D01*
Y049500D01*
X039594Y049539D01*
X039572Y049572D01*
X039539Y049594D01*
X039500Y049602D01*
D02*
G37*
%LPD*%
G36*
X033942Y040599D02*
X033972Y040580D01*
X033977Y040578D01*
X034007Y040573D01*
X034448D01*
X034608Y040412D01*
Y040072D01*
X034467Y039932D01*
X034418Y039941D01*
X034417Y039944D01*
X034368Y040008D01*
X034304Y040057D01*
X034230Y040088D01*
X034150Y040098D01*
X034070Y040088D01*
X033996Y040057D01*
X033932Y040008D01*
X033883Y039944D01*
X033852Y039870D01*
X033843Y039801D01*
X033796Y039785D01*
X033576Y040004D01*
X033595Y040050D01*
X033692D01*
X033727Y040057D01*
X033757Y040077D01*
X033764Y040084D01*
X033800Y040077D01*
X033866Y040090D01*
X033923Y040127D01*
X033960Y040184D01*
X033973Y040250D01*
X033960Y040316D01*
X033923Y040373D01*
X033866Y040410D01*
X033800Y040423D01*
X033734Y040410D01*
X033677Y040373D01*
X033640Y040316D01*
X033627Y040250D01*
X033614Y040234D01*
X033530D01*
X033421Y040344D01*
X033444Y040388D01*
X033500Y040377D01*
X033566Y040390D01*
X033623Y040427D01*
X033660Y040484D01*
X033673Y040550D01*
X033660Y040616D01*
X033625Y040669D01*
X033645Y040706D01*
X033650Y040713D01*
X033828D01*
X033942Y040599D01*
D02*
G37*
G36*
X034908Y041512D02*
Y040950D01*
X034908Y040950D01*
X034908D01*
X034915Y040915D01*
X034935Y040885D01*
X035168Y040652D01*
X035164Y040640D01*
X035152Y040550D01*
X035164Y040460D01*
X035198Y040376D01*
X035254Y040304D01*
X035238Y040256D01*
X035014D01*
X034979Y040250D01*
X034949Y040230D01*
X034838Y040118D01*
X034792Y040137D01*
Y040450D01*
X034786Y040479D01*
X034785Y040485D01*
X034765Y040515D01*
X034551Y040729D01*
X034521Y040749D01*
X034486Y040756D01*
X034397D01*
X034375Y040801D01*
X034417Y040856D01*
X034448Y040930D01*
X034459Y041010D01*
X034448Y041090D01*
X034417Y041165D01*
X034368Y041228D01*
X034304Y041277D01*
X034230Y041308D01*
X034150Y041319D01*
X034070Y041308D01*
X033996Y041277D01*
X033932Y041228D01*
X033883Y041165D01*
X033853Y041093D01*
X033433D01*
X033418Y041141D01*
X033473Y041177D01*
X033510Y041234D01*
X033523Y041300D01*
X033510Y041366D01*
X033473Y041423D01*
X033416Y041460D01*
X033350Y041473D01*
X033284Y041460D01*
X033227Y041423D01*
X033190Y041366D01*
X033177Y041300D01*
X033169Y041290D01*
X033087D01*
X033082Y041297D01*
X033066Y041336D01*
X033588Y041858D01*
X034562D01*
X034908Y041512D01*
D02*
G37*
G36*
X035461Y039893D02*
X035410Y039886D01*
X035326Y039852D01*
X035254Y039796D01*
X035198Y039724D01*
X035164Y039640D01*
X035152Y039550D01*
X035164Y039460D01*
X035198Y039376D01*
X035254Y039304D01*
X035238Y039256D01*
X034517D01*
X034498Y039303D01*
X035138Y039943D01*
X035457D01*
X035461Y039893D01*
D02*
G37*
G36*
X034585Y037385D02*
X034585D01*
X034585Y037385D01*
X036060Y035910D01*
X036036Y035866D01*
X036000Y035873D01*
X035934Y035860D01*
X035877Y035823D01*
X035840Y035766D01*
X035827Y035700D01*
X035840Y035634D01*
X035877Y035577D01*
X035934Y035540D01*
X036000Y035527D01*
X036066Y035540D01*
X036123Y035577D01*
X036143Y035608D01*
X036362D01*
X036588Y035382D01*
Y035292D01*
X036315D01*
X036279Y035285D01*
X036250Y035265D01*
X036026Y035041D01*
X035610D01*
X035537Y035027D01*
X035475Y034985D01*
X035433Y034923D01*
X035419Y034850D01*
X035433Y034777D01*
X035475Y034715D01*
X035537Y034673D01*
X035610Y034659D01*
X036319D01*
X036392Y034673D01*
X036454Y034715D01*
X036496Y034777D01*
X036510Y034850D01*
X036496Y034923D01*
X036454Y034985D01*
X036392Y035027D01*
X036343Y035037D01*
X036334Y035068D01*
X036364Y035108D01*
X036588D01*
Y034874D01*
X036588Y034874D01*
X036588Y034826D01*
X036588D01*
Y034592D01*
X036115D01*
X036079Y034585D01*
X036050Y034565D01*
X036026Y034541D01*
X035610D01*
X035537Y034527D01*
X035475Y034485D01*
X035446Y034442D01*
X035100D01*
X035065Y034435D01*
X035036Y034415D01*
X035033Y034417D01*
X034992Y034458D01*
Y036007D01*
X035023Y036027D01*
X035060Y036084D01*
X035073Y036150D01*
X035060Y036216D01*
X035023Y036273D01*
X034966Y036310D01*
X034900Y036323D01*
X034834Y036310D01*
X034777Y036273D01*
X034740Y036216D01*
X034727Y036150D01*
X034740Y036084D01*
X034777Y036027D01*
X034808Y036007D01*
Y034438D01*
X034585Y034215D01*
X034547Y034247D01*
X034567Y034277D01*
X034571Y034300D01*
X034085D01*
Y034159D01*
X034390D01*
X034463Y034173D01*
X034493Y034193D01*
X034525Y034154D01*
X034408Y034038D01*
X034390Y034041D01*
X033681D01*
X033608Y034027D01*
X033546Y033985D01*
X033504Y033923D01*
X033498Y033892D01*
X033212D01*
Y034126D01*
X032679D01*
Y033474D01*
X033126D01*
X033149Y033430D01*
X033140Y033416D01*
X033137Y033400D01*
X033300D01*
Y033300D01*
X033137D01*
X033140Y033284D01*
X033177Y033227D01*
X033183Y033223D01*
X033169Y033176D01*
X032729D01*
Y032713D01*
X032687Y032686D01*
X032671Y032692D01*
Y033176D01*
X032446D01*
Y033474D01*
X032621D01*
Y034126D01*
X032446D01*
Y034524D01*
X032621D01*
Y035176D01*
X032446D01*
Y035417D01*
X032664Y035634D01*
X032700Y035627D01*
X032766Y035640D01*
X032823Y035677D01*
X032860Y035734D01*
X032873Y035800D01*
X032860Y035866D01*
X032823Y035923D01*
X032766Y035960D01*
X032700Y035973D01*
X032634Y035960D01*
X032577Y035923D01*
X032540Y035866D01*
X032527Y035800D01*
X032534Y035764D01*
X032290Y035520D01*
X032270Y035490D01*
X032263Y035455D01*
Y035176D01*
X032088D01*
Y034713D01*
X032017Y034642D01*
X027212D01*
Y034876D01*
X027162D01*
Y034924D01*
X027162D01*
Y035576D01*
X026987D01*
Y035655D01*
X026980Y035690D01*
X026960Y035720D01*
X026765Y035915D01*
X026735Y035935D01*
X026700Y035942D01*
X021310D01*
X021281Y035936D01*
X021275Y035935D01*
X021245Y035915D01*
X021218Y035888D01*
X021172Y035907D01*
Y036612D01*
X021253Y036693D01*
X021663D01*
X021699Y036700D01*
X021728Y036720D01*
X022030Y037022D01*
X022050Y037051D01*
X022051Y037057D01*
X022055Y037076D01*
X022105Y037071D01*
Y036955D01*
X022795D01*
Y036955D01*
X022852Y036955D01*
X022855Y036950D01*
X023520Y036285D01*
X023550Y036265D01*
X023585Y036258D01*
X033812D01*
X033908Y036162D01*
Y035041D01*
X033681D01*
X033608Y035027D01*
X033546Y034985D01*
X033517Y034942D01*
X033212D01*
Y035176D01*
X032679D01*
Y034524D01*
X033212D01*
Y034758D01*
X033517D01*
X033546Y034715D01*
X033608Y034673D01*
X033681Y034659D01*
X034390D01*
X034463Y034673D01*
X034525Y034715D01*
X034567Y034777D01*
X034581Y034850D01*
X034567Y034923D01*
X034525Y034985D01*
X034463Y035027D01*
X034390Y035041D01*
X034092D01*
Y036200D01*
X034085Y036235D01*
X034065Y036265D01*
X033915Y036415D01*
X033885Y036435D01*
X033850Y036442D01*
X032202D01*
X032178Y036486D01*
X032210Y036534D01*
X032213Y036550D01*
X031887D01*
X031890Y036534D01*
X031922Y036486D01*
X031898Y036442D01*
X030412D01*
Y036658D01*
X031849D01*
X031856Y036650D01*
X032000D01*
Y036780D01*
X031965Y036815D01*
X031935Y036835D01*
X031900Y036842D01*
X030412D01*
Y037076D01*
D01*
Y037076D01*
X030412Y037076D01*
Y037124D01*
X030412D01*
Y037400D01*
X029879D01*
Y037124D01*
X029879Y037124D01*
X029879Y037076D01*
X029879D01*
Y036800D01*
X030145D01*
Y036700D01*
X029879D01*
Y036442D01*
X029821D01*
Y037076D01*
D01*
Y037076D01*
X029821Y037076D01*
Y037124D01*
X029821D01*
Y037776D01*
X029646D01*
Y038145D01*
X029691Y038169D01*
X029734Y038140D01*
X029750Y038137D01*
Y038300D01*
X029850D01*
Y038137D01*
X029866Y038140D01*
X029891Y038156D01*
X029926Y038121D01*
X029890Y038066D01*
X029877Y038000D01*
X029890Y037934D01*
X029927Y037877D01*
X029984Y037840D01*
X030050Y037827D01*
X030116Y037840D01*
X030173Y037877D01*
X030210Y037934D01*
X030223Y038000D01*
X030221Y038014D01*
X030256Y038049D01*
X030278Y038045D01*
X030290Y037984D01*
X030327Y037927D01*
X030384Y037890D01*
X030450Y037877D01*
X030516Y037890D01*
X030573Y037927D01*
X030610Y037984D01*
X030623Y038050D01*
X030610Y038116D01*
X030602Y038128D01*
X030641Y038160D01*
X030732Y038069D01*
X030727Y038023D01*
X030690Y037966D01*
X030677Y037900D01*
X030690Y037834D01*
X030727Y037777D01*
X030784Y037740D01*
X030850Y037727D01*
X030916Y037740D01*
X030973Y037777D01*
X031010Y037834D01*
X031023Y037900D01*
X031010Y037966D01*
X030973Y038023D01*
X030942Y038043D01*
Y038081D01*
X030938Y038098D01*
X030980Y038126D01*
X031034Y038090D01*
X031100Y038077D01*
X031166Y038090D01*
X031214Y038122D01*
X031258Y038098D01*
Y037292D01*
X031093D01*
X031088Y037330D01*
X031057Y037404D01*
X031008Y037468D01*
X030944Y037517D01*
X030870Y037548D01*
X030790Y037559D01*
X030710Y037548D01*
X030635Y037517D01*
X030572Y037468D01*
X030523Y037404D01*
X030492Y037330D01*
X030481Y037250D01*
X030492Y037170D01*
X030523Y037096D01*
X030572Y037032D01*
X030635Y036983D01*
X030710Y036952D01*
X030790Y036941D01*
X030870Y036952D01*
X030944Y036983D01*
X031008Y037032D01*
X031057Y037096D01*
X031062Y037108D01*
X031300D01*
X031335Y037115D01*
X031365Y037135D01*
X031365Y037135D01*
X031365Y037135D01*
X031415Y037185D01*
X031421Y037194D01*
X031471Y037199D01*
X031535Y037135D01*
X031535D01*
X031535Y037135D01*
X031535Y037135D01*
Y037135D01*
X031565Y037115D01*
X031600Y037108D01*
X031738D01*
X031743Y037096D01*
X031792Y037032D01*
X031856Y036983D01*
X031930Y036952D01*
X032010Y036941D01*
X032090Y036952D01*
X032165Y036983D01*
X032228Y037032D01*
X032277Y037096D01*
X032308Y037170D01*
X032319Y037250D01*
X032308Y037330D01*
X032277Y037404D01*
X032228Y037468D01*
X032165Y037517D01*
X032090Y037548D01*
X032010Y037559D01*
X031930Y037548D01*
X031856Y037517D01*
X031792Y037468D01*
X031743Y037404D01*
X031712Y037330D01*
X031707Y037292D01*
X031638D01*
X031621Y037308D01*
Y038506D01*
X031665Y038529D01*
X031684Y038517D01*
X031726Y038508D01*
X031769Y038517D01*
X031805Y038541D01*
X031829Y038577D01*
X031838Y038620D01*
Y038823D01*
X033147D01*
X034585Y037385D01*
D02*
G37*
G36*
X037008Y039562D02*
Y039486D01*
X036926Y039452D01*
X036854Y039396D01*
X036798Y039324D01*
X036764Y039240D01*
X036752Y039150D01*
X036707Y039128D01*
X036605Y039230D01*
X036576Y039249D01*
X036540Y039256D01*
X035762D01*
X035746Y039304D01*
X035802Y039376D01*
X035836Y039460D01*
X035848Y039550D01*
X035836Y039640D01*
X035802Y039724D01*
X035746Y039796D01*
X035674Y039852D01*
X035590Y039886D01*
X035539Y039893D01*
X035543Y039943D01*
X036627D01*
X037008Y039562D01*
D02*
G37*
G36*
X029272Y040998D02*
Y039364D01*
X029272Y039364D01*
X029272D01*
Y039324D01*
X029228Y039301D01*
X029210Y039313D01*
X029167Y039321D01*
X029125Y039313D01*
X029106Y039301D01*
X029062Y039324D01*
Y039489D01*
X029066Y039490D01*
X029123Y039527D01*
X029160Y039584D01*
X029173Y039650D01*
X029160Y039716D01*
X029123Y039773D01*
X029066Y039810D01*
X029000Y039823D01*
X028934Y039810D01*
X028877Y039773D01*
X028840Y039716D01*
X028827Y039650D01*
X028840Y039584D01*
X028877Y039527D01*
X028879Y039527D01*
Y039324D01*
X028835Y039301D01*
X028824Y039308D01*
Y038915D01*
X028774D01*
Y038865D01*
X028662D01*
Y038742D01*
X028150Y038230D01*
Y038050D01*
X028100D01*
Y038000D01*
X027937D01*
X027940Y037984D01*
X027972Y037936D01*
X027948Y037892D01*
X027537D01*
X027518Y037938D01*
X027595Y038015D01*
X027615Y038045D01*
X027616Y038051D01*
X027622Y038080D01*
Y039532D01*
X027711D01*
X027727Y039521D01*
X027770Y039512D01*
X028360D01*
X028403Y039521D01*
X028439Y039545D01*
X028463Y039581D01*
X028471Y039624D01*
X028463Y039666D01*
X028439Y039702D01*
Y039742D01*
X028463Y039778D01*
X028471Y039820D01*
X028463Y039863D01*
X028439Y039899D01*
Y039939D01*
X028463Y039975D01*
X028471Y040017D01*
X028463Y040060D01*
X028439Y040096D01*
Y040136D01*
X028463Y040172D01*
X028471Y040214D01*
X028463Y040257D01*
X028439Y040293D01*
Y040332D01*
X028463Y040368D01*
X028471Y040411D01*
X028463Y040454D01*
X028439Y040490D01*
Y040529D01*
X028463Y040565D01*
X028471Y040608D01*
X028463Y040650D01*
X028439Y040686D01*
Y040726D01*
X028463Y040762D01*
X028471Y040805D01*
X028463Y040847D01*
X028451Y040866D01*
X028474Y040910D01*
X028610D01*
X028734Y040786D01*
X028727Y040750D01*
X028740Y040684D01*
X028777Y040627D01*
X028834Y040590D01*
X028900Y040577D01*
X028966Y040590D01*
X029023Y040627D01*
X029060Y040684D01*
X029073Y040750D01*
X029060Y040816D01*
X029023Y040873D01*
X028966Y040910D01*
X028900Y040923D01*
X028864Y040916D01*
X028719Y041060D01*
X028736Y041100D01*
X028740Y041107D01*
X029048D01*
X029056Y041108D01*
X029162D01*
X029272Y040998D01*
D02*
G37*
G36*
X030885Y045485D02*
X030915Y045465D01*
X030921Y045464D01*
X030950Y045458D01*
X031407D01*
X031423Y045411D01*
X031404Y045396D01*
X031348Y045324D01*
X031314Y045240D01*
X031302Y045150D01*
X031314Y045060D01*
X031348Y044976D01*
X031404Y044904D01*
X031470Y044853D01*
X031472Y044828D01*
X031437Y044792D01*
X030816D01*
X030806Y044841D01*
X030824Y044848D01*
X030896Y044904D01*
X030952Y044976D01*
X030986Y045060D01*
X030998Y045150D01*
X030986Y045240D01*
X030952Y045324D01*
X030896Y045396D01*
X030824Y045452D01*
X030740Y045486D01*
X030735Y045515D01*
X030735D01*
X030735Y045515D01*
X030742Y045550D01*
Y045556D01*
X030769Y045575D01*
X030788Y045582D01*
X030885Y045485D01*
D02*
G37*
G36*
X028710Y047579D02*
X028746Y047555D01*
X028789Y047547D01*
X028815D01*
Y047343D01*
X028822Y047308D01*
X028842Y047278D01*
X029335Y046785D01*
X029335D01*
X029335D01*
Y046785D01*
X029335Y046785D01*
X029358Y046762D01*
Y046259D01*
Y046043D01*
X029327Y046023D01*
X029290Y045966D01*
X029277Y045900D01*
X029290Y045834D01*
X029327Y045777D01*
X029384Y045740D01*
X029450Y045727D01*
X029516Y045740D01*
X029573Y045777D01*
X029610Y045834D01*
X029623Y045900D01*
X029610Y045966D01*
X029573Y046023D01*
X029542Y046043D01*
Y046221D01*
X029671Y046350D01*
X029748D01*
Y046114D01*
X030355D01*
Y046052D01*
X030317Y046020D01*
X030300Y046023D01*
X030234Y046010D01*
X030177Y045973D01*
X030140Y045916D01*
X030127Y045850D01*
X030140Y045784D01*
X030177Y045727D01*
X030234Y045690D01*
X030224Y045642D01*
X029288D01*
X029037Y045893D01*
Y045974D01*
X029212D01*
Y046250D01*
X028679D01*
Y045974D01*
X028854D01*
Y045855D01*
X028854Y045855D01*
X028854D01*
X028860Y045820D01*
X028880Y045790D01*
X029185Y045485D01*
X029215Y045465D01*
X029250Y045458D01*
X029407D01*
X029423Y045411D01*
X029404Y045396D01*
X029348Y045324D01*
X029314Y045240D01*
X029302Y045150D01*
X029314Y045060D01*
X029348Y044976D01*
X029404Y044904D01*
X029476Y044848D01*
X029560Y044814D01*
X029650Y044802D01*
X029666Y044788D01*
Y043831D01*
X029659Y043826D01*
X029620Y043810D01*
X028742Y044688D01*
Y044814D01*
X028824Y044848D01*
X028896Y044904D01*
X028952Y044976D01*
X028986Y045060D01*
X028998Y045150D01*
X028986Y045240D01*
X028952Y045324D01*
X028896Y045396D01*
X028824Y045452D01*
X028740Y045486D01*
X028650Y045498D01*
X028560Y045486D01*
X028536Y045476D01*
X028512Y045520D01*
X028523Y045527D01*
X028560Y045584D01*
X028573Y045650D01*
X028560Y045716D01*
X028523Y045773D01*
X028466Y045810D01*
X028446Y045814D01*
Y045974D01*
X028621D01*
Y046626D01*
X028221D01*
X028202Y046672D01*
X028263Y046734D01*
X028283Y046763D01*
X028290Y046798D01*
Y046963D01*
X028297Y046968D01*
X028336Y046984D01*
X028385Y046935D01*
X028415Y046915D01*
X028450Y046908D01*
X028670D01*
X028677Y046900D01*
X028690Y046834D01*
X028727Y046777D01*
X028758Y046757D01*
Y046626D01*
X028679D01*
Y046350D01*
X029212D01*
Y046626D01*
X028942D01*
Y046757D01*
X028973Y046777D01*
X029010Y046834D01*
X029013Y046850D01*
X028850D01*
Y046900D01*
X028800D01*
Y047075D01*
X028785Y047085D01*
X028750Y047092D01*
X028675D01*
X028661Y047140D01*
X028671Y047146D01*
X028695Y047182D01*
X028703Y047225D01*
Y047461D01*
X028695Y047504D01*
X028671Y047540D01*
X028670Y047540D01*
X028679Y047571D01*
X028710Y047580D01*
X028710Y047579D01*
D02*
G37*
G36*
X028697Y043660D02*
X028695Y043659D01*
X028671Y043623D01*
X028662Y043580D01*
Y043503D01*
X028654Y043496D01*
X027790D01*
X027773Y043523D01*
X027716Y043560D01*
X027650Y043573D01*
X027584Y043560D01*
X027527Y043523D01*
X027510Y043496D01*
X027176D01*
Y043671D01*
X027176D01*
Y043673D01*
X027211Y043708D01*
X028683D01*
X028697Y043660D01*
D02*
G37*
G36*
X026710Y042360D02*
X026695Y042312D01*
X026684Y042310D01*
X026627Y042273D01*
X026590Y042216D01*
X026577Y042150D01*
X026590Y042084D01*
X026627Y042027D01*
X026671Y041999D01*
Y041949D01*
X026631Y041922D01*
X026245D01*
Y042245D01*
X025555D01*
Y041555D01*
X026130D01*
X026149Y041509D01*
X025887Y041247D01*
X025810Y041236D01*
X025726Y041202D01*
X025654Y041146D01*
X025598Y041074D01*
X025564Y040990D01*
X025552Y040900D01*
X025564Y040810D01*
X025598Y040726D01*
X025654Y040654D01*
X025726Y040598D01*
X025810Y040564D01*
X025900Y040552D01*
X025990Y040564D01*
X026074Y040598D01*
X026146Y040654D01*
X026202Y040726D01*
X026236Y040810D01*
X026248Y040900D01*
X026236Y040990D01*
X026202Y041074D01*
X026146Y041146D01*
X026120Y041166D01*
X026117Y041216D01*
X026350Y041450D01*
X026370Y041480D01*
X026377Y041515D01*
X026377Y041515D01*
X026377Y041515D01*
Y041515D01*
Y041597D01*
X026388Y041608D01*
X026662D01*
X026710Y041560D01*
X026686Y041516D01*
X026650Y041523D01*
X026584Y041510D01*
X026527Y041473D01*
X026490Y041416D01*
X026477Y041350D01*
X026490Y041284D01*
X026527Y041227D01*
X026584Y041190D01*
X026650Y041177D01*
X026681Y041183D01*
X026722Y041154D01*
X026727Y041123D01*
X026690Y041066D01*
X026677Y041000D01*
X026690Y040934D01*
X026727Y040877D01*
X026784Y040840D01*
X026850Y040827D01*
X026916Y040840D01*
X026973Y040877D01*
X026993Y040908D01*
X027262D01*
X027308Y040862D01*
Y040750D01*
X027300Y040742D01*
X027193D01*
X027173Y040773D01*
X027116Y040810D01*
X027050Y040823D01*
X026984Y040810D01*
X026927Y040773D01*
X026890Y040716D01*
X026877Y040650D01*
X026890Y040584D01*
X026927Y040527D01*
X026984Y040490D01*
X027050Y040477D01*
X027116Y040490D01*
X027173Y040527D01*
X027193Y040558D01*
X027262D01*
X027310Y040510D01*
X027286Y040466D01*
X027250Y040473D01*
X027184Y040460D01*
X027127Y040423D01*
X027090Y040366D01*
X027077Y040300D01*
X027090Y040234D01*
X027127Y040177D01*
X027184Y040140D01*
X027250Y040127D01*
X027292Y040135D01*
X027301Y040129D01*
X027331Y040123D01*
X027336Y040108D01*
X027336Y040066D01*
X027262Y039992D01*
X026236D01*
X026202Y040074D01*
X026146Y040146D01*
X026074Y040202D01*
X025990Y040236D01*
X025900Y040248D01*
X025810Y040236D01*
X025726Y040202D01*
X025654Y040146D01*
X025598Y040074D01*
X025564Y039990D01*
X025552Y039900D01*
X025564Y039810D01*
X025598Y039726D01*
X025654Y039654D01*
X025726Y039598D01*
X025810Y039564D01*
X025900Y039552D01*
X025990Y039564D01*
X026074Y039598D01*
X026146Y039654D01*
X026202Y039726D01*
X026236Y039808D01*
X027280D01*
X027312Y039770D01*
X027308Y039750D01*
Y039038D01*
X027262Y038992D01*
X026236D01*
X026202Y039074D01*
X026146Y039146D01*
X026074Y039202D01*
X025990Y039236D01*
X025900Y039248D01*
X025810Y039236D01*
X025726Y039202D01*
X025654Y039146D01*
X025598Y039074D01*
X025564Y038990D01*
X025552Y038900D01*
X025564Y038810D01*
X025598Y038726D01*
X025654Y038654D01*
X025726Y038598D01*
X025810Y038564D01*
X025900Y038552D01*
X025990Y038564D01*
X026074Y038598D01*
X026146Y038654D01*
X026202Y038726D01*
X026236Y038808D01*
X027300D01*
X027335Y038815D01*
X027365Y038835D01*
X027392Y038862D01*
X027438Y038843D01*
Y038118D01*
X027312Y037992D01*
X026236D01*
X026202Y038074D01*
X026146Y038146D01*
X026074Y038202D01*
X025990Y038236D01*
X025900Y038248D01*
X025810Y038236D01*
X025726Y038202D01*
X025654Y038146D01*
X025598Y038074D01*
X025564Y037990D01*
X025552Y037900D01*
X025564Y037810D01*
X025598Y037726D01*
X025654Y037654D01*
X025726Y037598D01*
X025810Y037564D01*
X025900Y037552D01*
X025990Y037564D01*
X026074Y037598D01*
X026146Y037654D01*
X026202Y037726D01*
X026236Y037808D01*
X027313D01*
X027332Y037762D01*
X027285Y037715D01*
X027265Y037685D01*
X027258Y037650D01*
Y037035D01*
X027265Y037000D01*
X027285Y036970D01*
X027339Y036916D01*
X027325Y036868D01*
X027284Y036860D01*
X027227Y036823D01*
X027190Y036766D01*
X027185Y036742D01*
X024993D01*
X024973Y036773D01*
X024916Y036810D01*
X024850Y036823D01*
X024784Y036810D01*
X024727Y036773D01*
X024690Y036716D01*
X024677Y036650D01*
X024690Y036584D01*
X024727Y036527D01*
X024784Y036490D01*
X024774Y036442D01*
X023623D01*
X023287Y036778D01*
X023306Y036824D01*
X023671D01*
Y037476D01*
X023209D01*
X023156Y037528D01*
X023175Y037574D01*
X023671D01*
Y038226D01*
X023496D01*
Y038917D01*
X023548Y038968D01*
X023560Y038964D01*
X023650Y038952D01*
X023740Y038964D01*
X023824Y038998D01*
X023896Y039054D01*
X023952Y039126D01*
X023986Y039210D01*
X023998Y039300D01*
X023986Y039390D01*
X023952Y039474D01*
X023896Y039546D01*
X023824Y039602D01*
X023740Y039636D01*
X023650Y039648D01*
X023560Y039636D01*
X023476Y039602D01*
X023404Y039546D01*
X023348Y039474D01*
X023314Y039390D01*
X023302Y039300D01*
X023314Y039210D01*
X023348Y039126D01*
X023391Y039071D01*
X023335Y039015D01*
X023315Y038985D01*
X023308Y038950D01*
X023313Y038926D01*
Y038226D01*
X023142D01*
Y040112D01*
X023238Y040208D01*
X023314D01*
X023348Y040126D01*
X023404Y040054D01*
X023476Y039998D01*
X023560Y039964D01*
X023650Y039952D01*
X023740Y039964D01*
X023824Y039998D01*
X023896Y040054D01*
X023952Y040126D01*
X023986Y040210D01*
X023998Y040300D01*
X023986Y040390D01*
X023952Y040474D01*
X023896Y040546D01*
X023824Y040602D01*
X023740Y040636D01*
X023650Y040648D01*
X023560Y040636D01*
X023476Y040602D01*
X023404Y040546D01*
X023348Y040474D01*
X023324Y040415D01*
X023275Y040405D01*
X023242Y040438D01*
Y041591D01*
X023283Y041618D01*
X023305Y041610D01*
Y040955D01*
X023995D01*
Y041623D01*
X023995Y041623D01*
D01*
D01*
X023995Y041645D01*
D01*
X024008Y041658D01*
X024484D01*
X024494Y041609D01*
X024476Y041602D01*
X024404Y041546D01*
X024348Y041474D01*
X024314Y041390D01*
X024308Y041350D01*
X024600D01*
Y041642D01*
X024594Y041641D01*
X024565Y041685D01*
X024665Y041785D01*
X024685Y041815D01*
X024686Y041821D01*
X024692Y041850D01*
Y042462D01*
X024838Y042608D01*
X026462D01*
X026710Y042360D01*
D02*
G37*
G36*
X034908Y042712D02*
Y042237D01*
X034862Y042218D01*
X034724Y042356D01*
X034694Y042376D01*
X034659Y042383D01*
X034185D01*
X034180Y042433D01*
X034216Y042440D01*
X034273Y042477D01*
X034310Y042534D01*
X034323Y042600D01*
X034310Y042666D01*
X034273Y042723D01*
X034216Y042760D01*
X034226Y042808D01*
X034812D01*
X034908Y042712D01*
D02*
G37*
G36*
X029272Y038506D02*
Y038302D01*
X028835Y037865D01*
X028815Y037835D01*
X028808Y037800D01*
Y037662D01*
X028574D01*
D01*
D01*
X028574Y037662D01*
X028526D01*
Y037662D01*
X028272D01*
X028267Y037712D01*
X028285Y037715D01*
X028315Y037735D01*
X029035Y038456D01*
X029055Y038485D01*
X029060Y038510D01*
X029085Y038520D01*
X029120Y038520D01*
X029125Y038517D01*
X029167Y038508D01*
X029210Y038517D01*
X029228Y038529D01*
X029272Y038506D01*
D02*
G37*
G36*
X035475Y033715D02*
X035537Y033673D01*
X035610Y033659D01*
X036319D01*
X036392Y033673D01*
X036445Y033708D01*
X036588D01*
Y033474D01*
X036588Y033474D01*
X036588D01*
X036586Y033463D01*
X036555Y033442D01*
X036483D01*
X036454Y033485D01*
X036392Y033527D01*
X036319Y033541D01*
X035610D01*
X035537Y033527D01*
X035484Y033492D01*
X035100D01*
X035065Y033485D01*
X035035Y033465D01*
X034948Y033378D01*
X034902Y033397D01*
Y033472D01*
X035188Y033758D01*
X035446D01*
X035475Y033715D01*
D02*
G37*
G36*
X026088Y034224D02*
X026088Y034224D01*
X026088Y034176D01*
X026088D01*
Y033942D01*
X025833D01*
X025804Y033985D01*
X025742Y034027D01*
X025669Y034041D01*
X024960D01*
X024887Y034027D01*
X024825Y033985D01*
X024796Y033942D01*
X024493D01*
X024473Y033973D01*
X024416Y034010D01*
X024350Y034023D01*
X024284Y034010D01*
X024281Y034008D01*
X024239Y034036D01*
X024242Y034050D01*
Y034198D01*
X024286Y034222D01*
X024334Y034190D01*
X024400Y034177D01*
X024466Y034190D01*
X024523Y034227D01*
X024543Y034258D01*
X024796D01*
X024825Y034215D01*
X024887Y034173D01*
X024960Y034159D01*
X025669D01*
X025742Y034173D01*
X025804Y034215D01*
X025833Y034258D01*
X026088D01*
Y034224D01*
D02*
G37*
G36*
X035433Y033277D02*
X035475Y033215D01*
X035537Y033173D01*
X035610Y033159D01*
X036319D01*
X036392Y033173D01*
X036454Y033215D01*
X036475Y033245D01*
X036525Y033250D01*
X036588Y033187D01*
Y032762D01*
X036542Y032743D01*
X036498Y032787D01*
X036510Y032850D01*
X036496Y032923D01*
X036454Y032985D01*
X036392Y033027D01*
X036319Y033041D01*
X035610D01*
X035537Y033027D01*
X035475Y032985D01*
X035433Y032923D01*
X035419Y032850D01*
X035433Y032777D01*
X035446Y032758D01*
X035422Y032714D01*
X035361D01*
X035360Y032716D01*
X035323Y032773D01*
X035266Y032810D01*
X035200Y032823D01*
X035134Y032810D01*
X035077Y032773D01*
X035032Y032803D01*
Y033202D01*
X035138Y033308D01*
X035427D01*
X035433Y033277D01*
D02*
G37*
G36*
X036588Y032437D02*
Y031974D01*
X036808D01*
Y030838D01*
X036702Y030732D01*
X034921D01*
X034907Y030780D01*
X034915Y030785D01*
X035005Y030875D01*
X035025Y030905D01*
X035032Y030940D01*
Y031447D01*
X035077Y031477D01*
X035134Y031440D01*
X035200Y031427D01*
X035236Y031434D01*
X035385Y031285D01*
X035415Y031265D01*
X035421Y031264D01*
X035445Y031259D01*
X035475Y031215D01*
X035537Y031173D01*
X035610Y031159D01*
X036319D01*
X036392Y031173D01*
X036454Y031215D01*
X036496Y031277D01*
X036510Y031350D01*
X036496Y031423D01*
X036454Y031485D01*
X036392Y031527D01*
X036319Y031541D01*
X035610D01*
X035537Y031527D01*
X035475Y031485D01*
X035447Y031483D01*
X035366Y031564D01*
X035373Y031600D01*
X035360Y031666D01*
X035323Y031723D01*
X035266Y031760D01*
X035200Y031773D01*
X035134Y031760D01*
X035077Y031723D01*
X035032Y031753D01*
Y031997D01*
X035077Y032027D01*
X035134Y031990D01*
X035200Y031977D01*
X035236Y031984D01*
X035431Y031789D01*
X035433Y031777D01*
X035475Y031715D01*
X035537Y031673D01*
X035610Y031659D01*
X036319D01*
X036392Y031673D01*
X036454Y031715D01*
X036496Y031777D01*
X036510Y031850D01*
X036496Y031923D01*
X036454Y031985D01*
X036392Y032027D01*
X036319Y032041D01*
X035866D01*
X035865Y032042D01*
X035863Y032041D01*
X035610D01*
X035537Y032027D01*
X035487Y031993D01*
X035366Y032114D01*
X035373Y032150D01*
X035360Y032216D01*
X035323Y032273D01*
X035266Y032310D01*
X035200Y032323D01*
X035134Y032310D01*
X035077Y032273D01*
X035032Y032303D01*
Y032497D01*
X035077Y032527D01*
X035134Y032490D01*
X035200Y032477D01*
X035266Y032490D01*
X035323Y032527D01*
X035325Y032530D01*
X035445D01*
X035475Y032485D01*
X035433Y032423D01*
X035419Y032350D01*
X035433Y032277D01*
X035475Y032215D01*
X035537Y032173D01*
X035610Y032159D01*
X036319D01*
X036392Y032173D01*
X036454Y032215D01*
X036496Y032277D01*
X036510Y032350D01*
X036496Y032423D01*
X036454Y032485D01*
X036392Y032527D01*
X036319Y032541D01*
X035903D01*
X035832Y032612D01*
X035851Y032659D01*
X036319D01*
X036359Y032666D01*
X036588Y032437D01*
D02*
G37*
G36*
X024634Y035710D02*
X024577Y035673D01*
X024540Y035616D01*
X024527Y035550D01*
X024534Y035514D01*
X024085Y035065D01*
X024065Y035035D01*
X024058Y035000D01*
Y034088D01*
X023935Y033965D01*
X023886Y033970D01*
X023875Y033985D01*
X023813Y034027D01*
X023740Y034041D01*
X023031D01*
X022958Y034027D01*
X022896Y033985D01*
X022854Y033923D01*
X022848Y033892D01*
X022712D01*
Y034126D01*
X022179D01*
Y033474D01*
X022712D01*
Y033708D01*
X022905D01*
X022958Y033673D01*
X023031Y033659D01*
X023740D01*
X023813Y033673D01*
X023875Y033715D01*
X023904Y033758D01*
X023950D01*
X023985Y033765D01*
X024015Y033785D01*
X024140Y033910D01*
X024184Y033886D01*
X024177Y033850D01*
X024190Y033784D01*
X024227Y033727D01*
X024284Y033690D01*
X024350Y033677D01*
X024416Y033690D01*
X024473Y033727D01*
X024493Y033758D01*
X024796D01*
X024825Y033715D01*
X024887Y033673D01*
X024960Y033659D01*
X025669D01*
X025742Y033673D01*
X025804Y033715D01*
X025833Y033758D01*
X026088D01*
Y033524D01*
X026088Y033524D01*
X026088Y033476D01*
D01*
X026088Y033442D01*
X025833D01*
X025804Y033485D01*
X025742Y033527D01*
X025669Y033541D01*
X024960D01*
X024887Y033527D01*
X024825Y033485D01*
X024796Y033442D01*
X024493D01*
X024473Y033473D01*
X024416Y033510D01*
X024350Y033523D01*
X024284Y033510D01*
X024227Y033473D01*
X024190Y033416D01*
X024177Y033350D01*
X024190Y033284D01*
X024227Y033227D01*
X024284Y033190D01*
X024350Y033177D01*
X024416Y033190D01*
X024473Y033227D01*
X024493Y033258D01*
X024796D01*
X024825Y033215D01*
X024887Y033173D01*
X024960Y033159D01*
X025669D01*
X025742Y033173D01*
X025804Y033215D01*
X025833Y033258D01*
X026088D01*
Y032912D01*
X026042Y032892D01*
X026020Y032915D01*
X025990Y032935D01*
X025955Y032942D01*
X025833D01*
X025804Y032985D01*
X025742Y033027D01*
X025669Y033041D01*
X024960D01*
X024887Y033027D01*
X024825Y032985D01*
X024796Y032942D01*
X024500D01*
X024465Y032935D01*
X024435Y032915D01*
X024336Y032816D01*
X024300Y032823D01*
X024234Y032810D01*
X024177Y032773D01*
X024140Y032716D01*
X024127Y032650D01*
X024140Y032584D01*
X024177Y032527D01*
X024234Y032490D01*
X024300Y032477D01*
X024366Y032490D01*
X024423Y032527D01*
X024460Y032584D01*
X024473Y032650D01*
X024466Y032686D01*
X024538Y032758D01*
X024796D01*
X024825Y032715D01*
X024887Y032673D01*
X024960Y032659D01*
X025669D01*
X025742Y032673D01*
X025804Y032715D01*
X025833Y032758D01*
X025917D01*
X026088Y032587D01*
Y032124D01*
X026279D01*
X026298Y032078D01*
X026236Y032016D01*
X026200Y032023D01*
X026134Y032010D01*
X026077Y031973D01*
X026059Y031971D01*
X025809Y032221D01*
X025846Y032277D01*
X025860Y032350D01*
X025846Y032423D01*
X025804Y032485D01*
X025742Y032527D01*
X025669Y032541D01*
X024960D01*
X024887Y032527D01*
X024825Y032485D01*
X024783Y032423D01*
X024769Y032350D01*
X024783Y032277D01*
X024825Y032215D01*
X024887Y032173D01*
X024960Y032159D01*
X025612D01*
X025679Y032091D01*
X025674Y032067D01*
X025663Y032041D01*
X024960D01*
X024887Y032027D01*
X024825Y031985D01*
X024783Y031923D01*
X024769Y031850D01*
X024783Y031777D01*
X024825Y031715D01*
X024887Y031673D01*
X024960Y031659D01*
X025669D01*
X025742Y031673D01*
X025775Y031695D01*
X025935Y031535D01*
X025965Y031515D01*
X025971Y031514D01*
X026000Y031508D01*
X026448D01*
X026461Y031485D01*
X026435Y031442D01*
X025833D01*
X025804Y031485D01*
X025742Y031527D01*
X025669Y031541D01*
X024960D01*
X024887Y031527D01*
X024825Y031485D01*
X024783Y031423D01*
X024769Y031350D01*
X024783Y031277D01*
X024804Y031246D01*
X024780Y031202D01*
X023920D01*
X023896Y031246D01*
X023917Y031277D01*
X023921Y031300D01*
X022850D01*
X022854Y031277D01*
X022875Y031246D01*
X022851Y031202D01*
X021238D01*
X021172Y031268D01*
Y034783D01*
X021218Y034802D01*
X021235Y034785D01*
X021235D01*
X021235Y034785D01*
X021235Y034785D01*
Y034785D01*
X021265Y034765D01*
X021300Y034758D01*
X021588D01*
Y034524D01*
X021763D01*
Y034126D01*
X021588D01*
Y033474D01*
X021763D01*
Y033176D01*
X021588D01*
Y032524D01*
X022121D01*
Y033176D01*
X021946D01*
Y033474D01*
X022121D01*
Y034126D01*
X021946D01*
Y034524D01*
X022121D01*
Y035176D01*
X021588D01*
Y034942D01*
X021338D01*
X021302Y034978D01*
Y035712D01*
X021348Y035758D01*
X024624D01*
X024634Y035710D01*
D02*
G37*
G36*
X036588Y034174D02*
X036588Y034174D01*
X036588Y034126D01*
X036588D01*
Y033892D01*
X036502D01*
X036496Y033923D01*
X036454Y033985D01*
X036392Y034027D01*
X036319Y034041D01*
X035610D01*
X035537Y034027D01*
X035475Y033985D01*
X035446Y033942D01*
X035150D01*
X035115Y033935D01*
X035085Y033915D01*
X034818Y033648D01*
X034772Y033667D01*
Y033892D01*
X035138Y034258D01*
X035446D01*
X035475Y034215D01*
X035537Y034173D01*
X035610Y034159D01*
X036319D01*
X036392Y034173D01*
X036454Y034215D01*
X036496Y034277D01*
X036510Y034350D01*
X036506Y034370D01*
X036538Y034408D01*
X036588D01*
Y034174D01*
D02*
G37*
G36*
X029463Y038168D02*
Y037776D01*
X029288D01*
Y037124D01*
X029288Y037124D01*
X029288Y037076D01*
X029288D01*
Y036725D01*
X029247Y036697D01*
X029226Y036706D01*
Y036755D01*
X028900D01*
Y036805D01*
X028850D01*
Y037071D01*
X028574D01*
D01*
D01*
X028574Y037071D01*
X028526D01*
Y037071D01*
X028250D01*
Y036805D01*
X028150D01*
Y037071D01*
X027874D01*
X027874Y037071D01*
Y037071D01*
X027863Y037067D01*
X027830Y037100D01*
X027650D01*
Y037150D01*
X027600D01*
Y037313D01*
X027584Y037310D01*
X027527Y037273D01*
X027490Y037216D01*
X027442Y037226D01*
Y037612D01*
X027538Y037708D01*
X027874D01*
Y037662D01*
X027874D01*
Y037129D01*
X028526D01*
Y037129D01*
X028526D01*
X028526Y037129D01*
X028574D01*
Y037129D01*
X029226D01*
Y037662D01*
X028992D01*
Y037762D01*
X029417Y038187D01*
X029463Y038168D01*
D02*
G37*
G36*
X022114Y038210D02*
X022148Y038126D01*
X022204Y038054D01*
X022276Y037998D01*
X022360Y037964D01*
X022450Y037952D01*
X022540Y037964D01*
X022624Y037998D01*
X022696Y038054D01*
X022752Y038126D01*
X022779Y038193D01*
X022828Y038183D01*
Y037645D01*
X022828D01*
X022795D01*
X022793Y037645D01*
X022793Y037645D01*
Y037645D01*
X022105D01*
Y037645D01*
X022092D01*
X022057Y037681D01*
Y038257D01*
X022107Y038261D01*
X022114Y038210D01*
D02*
G37*
G36*
X027768Y036488D02*
X027748Y036442D01*
X024926D01*
X024916Y036490D01*
X024973Y036527D01*
X024993Y036558D01*
X027256D01*
X027284Y036540D01*
X027350Y036527D01*
X027416Y036540D01*
X027473Y036577D01*
X027510Y036634D01*
X027518Y036675D01*
X027566Y036689D01*
X027768Y036488D01*
D02*
G37*
G36*
X032263Y034126D02*
X032088D01*
Y033474D01*
X032263D01*
Y033176D01*
X032138D01*
Y032524D01*
X032503D01*
X032523Y032478D01*
X032486Y032442D01*
X031893D01*
X031873Y032473D01*
X031816Y032510D01*
X031750Y032523D01*
X031684Y032510D01*
X031627Y032473D01*
X031590Y032416D01*
X031577Y032350D01*
X031590Y032284D01*
X031627Y032227D01*
X031684Y032190D01*
X031750Y032177D01*
X031816Y032190D01*
X031873Y032227D01*
X031893Y032258D01*
X032524D01*
X032559Y032265D01*
X032589Y032285D01*
X032589Y032285D01*
X032589Y032285D01*
X032828Y032524D01*
X033262D01*
Y032758D01*
X033517D01*
X033546Y032715D01*
X033608Y032673D01*
X033681Y032659D01*
X034390D01*
X034463Y032673D01*
X034525Y032715D01*
X034540Y032737D01*
X034588Y032723D01*
Y032477D01*
X034540Y032463D01*
X034525Y032485D01*
X034463Y032527D01*
X034390Y032541D01*
X033681D01*
X033608Y032527D01*
X033546Y032485D01*
X033517Y032442D01*
X033450D01*
X033415Y032435D01*
X033385Y032415D01*
X033335Y032365D01*
X033315Y032335D01*
X033308Y032300D01*
Y031838D01*
X033186Y031716D01*
X033150Y031723D01*
X033084Y031710D01*
X033027Y031673D01*
X032990Y031616D01*
X032977Y031550D01*
X032990Y031484D01*
X032995Y031476D01*
X032972Y031432D01*
X031198D01*
X031092Y031538D01*
Y033012D01*
X031200Y033120D01*
Y033250D01*
X031070D01*
X030935Y033115D01*
X030915Y033085D01*
X030908Y033050D01*
Y031500D01*
X030908Y031500D01*
X030908D01*
X030915Y031465D01*
X030935Y031435D01*
X031095Y031275D01*
X031125Y031255D01*
X031143Y031252D01*
X031139Y031202D01*
X026758D01*
X026735Y031246D01*
X026760Y031284D01*
X026773Y031350D01*
X026760Y031416D01*
X026728Y031464D01*
X026752Y031508D01*
X027299D01*
X027331Y031470D01*
X027327Y031450D01*
X027340Y031384D01*
X027377Y031327D01*
X027434Y031290D01*
X027500Y031277D01*
X027566Y031290D01*
X027623Y031327D01*
X027660Y031384D01*
X027673Y031450D01*
X027660Y031516D01*
X027623Y031573D01*
X027566Y031610D01*
X027500Y031623D01*
X027464Y031616D01*
X027415Y031665D01*
X027385Y031685D01*
X027350Y031692D01*
X027080D01*
X027073Y031700D01*
X027060Y031766D01*
X027023Y031823D01*
X026966Y031860D01*
X026900Y031873D01*
X026834Y031860D01*
X026777Y031823D01*
X026740Y031766D01*
X026727Y031700D01*
X026720Y031692D01*
X026352D01*
X026328Y031736D01*
X026360Y031784D01*
X026373Y031850D01*
X026366Y031886D01*
X026438Y031958D01*
X027350D01*
X027385Y031965D01*
X027415Y031985D01*
X027415Y031985D01*
X027415Y031985D01*
X027688Y032258D01*
X028307D01*
X028327Y032227D01*
X028384Y032190D01*
X028450Y032177D01*
X028516Y032190D01*
X028573Y032227D01*
X028610Y032284D01*
X028623Y032350D01*
X028610Y032416D01*
X028573Y032473D01*
X028516Y032510D01*
X028450Y032523D01*
X028384Y032510D01*
X028327Y032473D01*
X028307Y032442D01*
X027650D01*
X027615Y032435D01*
X027585Y032415D01*
X027312Y032142D01*
X027212D01*
Y032776D01*
D01*
Y032776D01*
X027212Y032776D01*
Y032824D01*
X027212D01*
Y033476D01*
D01*
Y033476D01*
X027212Y033476D01*
Y033524D01*
X027212D01*
Y034176D01*
D01*
Y034176D01*
X027212Y034176D01*
Y034224D01*
X027212D01*
Y034458D01*
X032055D01*
X032090Y034465D01*
X032120Y034485D01*
X032120Y034485D01*
X032120Y034485D01*
X032159Y034524D01*
X032263D01*
Y034126D01*
D02*
G37*
G36*
X026798Y035622D02*
X026779Y035576D01*
X026629D01*
Y034924D01*
X026679D01*
Y034876D01*
X026679D01*
Y034224D01*
X026679Y034224D01*
X026679Y034176D01*
X026679D01*
Y033524D01*
X026679Y033524D01*
X026679Y033476D01*
X026679D01*
Y032824D01*
X026679Y032824D01*
X026679Y032776D01*
X026679D01*
Y032142D01*
X026621D01*
Y032776D01*
D01*
Y032776D01*
X026621Y032776D01*
Y032824D01*
X026621D01*
Y033476D01*
D01*
Y033476D01*
X026621Y033476D01*
Y033524D01*
X026621D01*
Y034176D01*
D01*
Y034176D01*
X026621Y034176D01*
Y034224D01*
X026621D01*
Y034876D01*
X026571D01*
Y034924D01*
X026571D01*
Y035200D01*
X026305D01*
Y035250D01*
X026255D01*
Y035576D01*
X026038D01*
Y035342D01*
X025880D01*
X025873Y035350D01*
X025860Y035416D01*
X025823Y035473D01*
X025766Y035510D01*
X025750Y035513D01*
Y035350D01*
Y035175D01*
X025765Y035165D01*
X025771Y035164D01*
X025800Y035158D01*
X026038D01*
Y034924D01*
X026088D01*
Y034876D01*
X026088D01*
Y034442D01*
X025833D01*
X025804Y034485D01*
X025742Y034527D01*
X025669Y034541D01*
X024960D01*
X024887Y034527D01*
X024825Y034485D01*
X024796Y034442D01*
X024543D01*
X024523Y034473D01*
X024466Y034510D01*
X024400Y034523D01*
X024334Y034510D01*
X024286Y034478D01*
X024242Y034502D01*
Y034962D01*
X024664Y035384D01*
X024700Y035377D01*
X024766Y035390D01*
X024823Y035427D01*
X024860Y035484D01*
X024873Y035550D01*
X024860Y035616D01*
X024823Y035673D01*
X024766Y035710D01*
X024776Y035758D01*
X025513D01*
X025532Y035712D01*
X025236Y035416D01*
X025200Y035423D01*
X025134Y035410D01*
X025077Y035373D01*
X025040Y035316D01*
X025027Y035250D01*
X025040Y035184D01*
X025077Y035127D01*
X025134Y035090D01*
X025124Y035041D01*
X024960D01*
X024887Y035027D01*
X024825Y034985D01*
X024783Y034923D01*
X024769Y034850D01*
X024783Y034777D01*
X024825Y034715D01*
X024887Y034673D01*
X024960Y034659D01*
X025669D01*
X025742Y034673D01*
X025804Y034715D01*
X025846Y034777D01*
X025860Y034850D01*
X025846Y034923D01*
X025804Y034985D01*
X025742Y035027D01*
X025669Y035041D01*
X025406D01*
Y035135D01*
X025401Y035165D01*
X025399Y035171D01*
X025379Y035200D01*
X025366Y035214D01*
X025373Y035250D01*
X025366Y035286D01*
X025490Y035410D01*
X025509Y035400D01*
X025650D01*
Y035541D01*
X025640Y035560D01*
X025838Y035758D01*
X026662D01*
X026798Y035622D01*
D02*
G37*
G36*
X031678Y048938D02*
X031658Y048892D01*
X031053D01*
X031018Y048885D01*
X030988Y048865D01*
X030809Y048686D01*
X030763Y048705D01*
Y048763D01*
X030427D01*
Y048612D01*
X030406Y048598D01*
X030235D01*
Y048897D01*
X030009D01*
Y048598D01*
X029839D01*
X029818Y048612D01*
Y048763D01*
X029547D01*
X029530Y048810D01*
X029550Y048827D01*
X029616Y048840D01*
X029673Y048877D01*
X029710Y048934D01*
X029723Y049000D01*
X029716Y049036D01*
X029818Y049138D01*
X031477D01*
X031678Y048938D01*
D02*
G37*
G36*
X027137Y047084D02*
X027117Y047038D01*
X026946D01*
X026923Y047073D01*
X026866Y047110D01*
X026850Y047113D01*
Y046950D01*
Y046787D01*
X026866Y046790D01*
X026923Y046827D01*
X026940Y046854D01*
X027012D01*
X027144Y046722D01*
X027125Y046676D01*
X026728D01*
X026204Y047200D01*
X026262Y047258D01*
X026962D01*
X027137Y047084D01*
D02*
G37*
G36*
X031227Y048427D02*
X031284Y048390D01*
X031350Y048377D01*
X031370Y048381D01*
X031408Y048349D01*
Y047792D01*
X031050D01*
X031021Y047786D01*
X031015Y047785D01*
X030985Y047765D01*
X030747Y047527D01*
X030369D01*
X030350Y047573D01*
X030526Y047750D01*
X030763D01*
Y047946D01*
Y047968D01*
X030951D01*
X030977Y047927D01*
X031034Y047890D01*
X031050Y047887D01*
Y048050D01*
Y048213D01*
X031034Y048210D01*
X030977Y048173D01*
X030963Y048151D01*
X030898D01*
X030894Y048158D01*
X030877Y048197D01*
X031138Y048458D01*
X031207D01*
X031227Y048427D01*
D02*
G37*
G36*
X025862Y049352D02*
X025819Y049309D01*
X025816Y049310D01*
X025750Y049323D01*
X025684Y049310D01*
X025627Y049273D01*
X025590Y049216D01*
X025577Y049150D01*
X025590Y049084D01*
X025627Y049027D01*
X025684Y048990D01*
X025750Y048977D01*
X025816Y048990D01*
X025873Y049027D01*
X025910Y049084D01*
X025923Y049150D01*
X025923Y049153D01*
X026038Y049268D01*
X027652D01*
X027691Y049229D01*
X027684Y049179D01*
X027664Y049169D01*
X027650Y049178D01*
X027608Y049186D01*
X027565Y049178D01*
X027529Y049154D01*
X027505Y049118D01*
X027497Y049075D01*
Y049049D01*
X026707D01*
X026678Y049043D01*
X026672Y049042D01*
X026642Y049022D01*
X026536Y048916D01*
X026500Y048923D01*
X026434Y048910D01*
X026377Y048873D01*
X026340Y048816D01*
X026327Y048750D01*
X026340Y048684D01*
X026377Y048627D01*
X026434Y048590D01*
X026500Y048577D01*
X026566Y048590D01*
X026623Y048627D01*
X026660Y048684D01*
X026673Y048750D01*
X026666Y048786D01*
X026745Y048865D01*
X027497D01*
Y048839D01*
X027505Y048796D01*
X027529Y048760D01*
X027530Y048760D01*
X027521Y048729D01*
X027490Y048720D01*
X027490Y048721D01*
X027454Y048745D01*
X027411Y048753D01*
X027175D01*
X027132Y048745D01*
X027096Y048721D01*
X027072Y048685D01*
X027064Y048642D01*
X027072Y048600D01*
X027096Y048563D01*
Y048524D01*
X027072Y048488D01*
X027064Y048445D01*
X027072Y048403D01*
X027096Y048367D01*
Y048327D01*
X027072Y048291D01*
X027064Y048248D01*
X027072Y048206D01*
X027096Y048170D01*
Y048130D01*
X027072Y048094D01*
X027064Y048052D01*
X027072Y048009D01*
X027096Y047973D01*
Y047933D01*
X027072Y047897D01*
X027064Y047855D01*
X027072Y047812D01*
X027096Y047776D01*
Y047737D01*
X027072Y047700D01*
X027064Y047658D01*
X027072Y047615D01*
X027096Y047579D01*
X027132Y047555D01*
X027175Y047547D01*
X027411D01*
X027454Y047555D01*
X027490Y047579D01*
X027490Y047580D01*
X027521Y047571D01*
X027530Y047540D01*
X027529Y047540D01*
X027505Y047504D01*
X027497Y047461D01*
Y047225D01*
X027500Y047206D01*
X027469Y047168D01*
X027312D01*
X027065Y047415D01*
X027035Y047435D01*
X027000Y047442D01*
X026224D01*
X026189Y047435D01*
X026159Y047415D01*
X026036Y047292D01*
X024893D01*
X024873Y047323D01*
X024816Y047360D01*
X024758Y047372D01*
X024448Y047681D01*
X024456Y047701D01*
D01*
X024468Y047728D01*
X024960D01*
Y048200D01*
X024448D01*
Y047747D01*
X024421Y047736D01*
D01*
X024402Y047728D01*
X023815Y048315D01*
X023785Y048335D01*
X023750Y048342D01*
X023052D01*
Y048772D01*
X021928D01*
Y047892D01*
X021586D01*
X021552Y047974D01*
X021496Y048046D01*
X021424Y048102D01*
X021340Y048136D01*
X021250Y048148D01*
X021160Y048136D01*
X021076Y048102D01*
X021004Y048046D01*
X020948Y047974D01*
X020914Y047890D01*
X020902Y047800D01*
X020914Y047710D01*
X020948Y047626D01*
X021004Y047554D01*
X021076Y047498D01*
X021160Y047464D01*
X021250Y047452D01*
X021340Y047464D01*
X021424Y047498D01*
X021496Y047554D01*
X021552Y047626D01*
X021586Y047708D01*
X022040D01*
X022075Y047715D01*
X022094Y047728D01*
X023052D01*
Y048158D01*
X023712D01*
X024595Y047275D01*
X024590Y047266D01*
X024577Y047200D01*
X024590Y047134D01*
X024627Y047077D01*
X024684Y047040D01*
X024750Y047027D01*
X024816Y047040D01*
X024873Y047077D01*
X024893Y047108D01*
X026036D01*
X026423Y046722D01*
X026403Y046676D01*
X026355D01*
Y046400D01*
X026571D01*
Y046508D01*
X026587Y046514D01*
X026629Y046487D01*
Y046024D01*
X026804D01*
Y045805D01*
X026804Y045805D01*
X026804D01*
X026811Y045770D01*
X026830Y045740D01*
X026987Y045583D01*
X027017Y045563D01*
X027023Y045562D01*
X027052Y045556D01*
X028258D01*
X028277Y045527D01*
X028334Y045490D01*
X028400Y045477D01*
X028439Y045484D01*
X028459Y045439D01*
X028404Y045396D01*
X028348Y045324D01*
X028314Y045240D01*
X028302Y045150D01*
X028314Y045060D01*
X028348Y044976D01*
X028404Y044904D01*
X028476Y044848D01*
X028558Y044814D01*
Y044650D01*
X028558Y044650D01*
X028558D01*
X028565Y044615D01*
X028585Y044585D01*
X028972Y044198D01*
X028953Y044152D01*
X028778D01*
X027952Y044977D01*
X027986Y045060D01*
X027998Y045150D01*
X027986Y045240D01*
X027952Y045324D01*
X027896Y045396D01*
X027824Y045452D01*
X027740Y045486D01*
X027650Y045498D01*
X027560Y045486D01*
X027476Y045452D01*
X027404Y045396D01*
X027348Y045324D01*
X027314Y045240D01*
X027302Y045150D01*
X027314Y045060D01*
X027348Y044976D01*
X027404Y044904D01*
X027476Y044848D01*
X027560Y044814D01*
X027650Y044802D01*
X027740Y044814D01*
X027822Y044848D01*
X028602Y044068D01*
X028583Y044022D01*
X027408D01*
X027342Y044088D01*
Y044250D01*
X027335Y044285D01*
X027315Y044315D01*
X027115Y044515D01*
X027085Y044535D01*
X027050Y044542D01*
X026792D01*
Y044835D01*
X026824Y044848D01*
X026896Y044904D01*
X026952Y044976D01*
X026986Y045060D01*
X026998Y045150D01*
X026986Y045240D01*
X026952Y045324D01*
X026896Y045396D01*
X026824Y045452D01*
X026740Y045486D01*
X026650Y045498D01*
X026560Y045486D01*
X026476Y045452D01*
X026404Y045396D01*
X026348Y045324D01*
X026314Y045240D01*
X026302Y045150D01*
X026314Y045060D01*
X026348Y044976D01*
X026404Y044904D01*
X026476Y044848D01*
X026560Y044814D01*
X026608Y044807D01*
Y044450D01*
X026608Y044450D01*
X026608D01*
X026615Y044415D01*
X026635Y044385D01*
X026665Y044365D01*
X026700Y044358D01*
X027012D01*
X027062Y044308D01*
X027043Y044262D01*
X026524D01*
Y043992D01*
X025638D01*
X025595Y044035D01*
Y044122D01*
X025615Y044135D01*
X025815Y044335D01*
X025835Y044365D01*
X025842Y044400D01*
X025842Y044400D01*
X025842Y044400D01*
Y044400D01*
Y046450D01*
X025835Y046485D01*
X025815Y046515D01*
X025615Y046715D01*
X025585Y046735D01*
X025550Y046742D01*
X024672D01*
X024652Y046771D01*
X024597Y046808D01*
X024531Y046821D01*
X024177D01*
X024111Y046808D01*
X024056Y046771D01*
X024018Y046716D01*
X024005Y046650D01*
X024018Y046584D01*
X024056Y046529D01*
X024111Y046492D01*
X024177Y046479D01*
X024531D01*
X024597Y046492D01*
X024652Y046529D01*
X024672Y046558D01*
X025512D01*
X025658Y046412D01*
Y044459D01*
X025617Y044432D01*
X025595Y044440D01*
Y044545D01*
X024905D01*
Y043855D01*
X025515D01*
X025535Y043835D01*
X025535D01*
X025535Y043835D01*
X025535Y043835D01*
Y043835D01*
X025565Y043815D01*
X025600Y043808D01*
X026524D01*
Y043729D01*
X026524D01*
Y043727D01*
X026489Y043692D01*
X024538D01*
X024442Y043788D01*
Y044550D01*
Y044979D01*
X024531D01*
X024597Y044992D01*
X024652Y045029D01*
X024689Y045084D01*
X024703Y045150D01*
X024689Y045216D01*
X024652Y045271D01*
X024597Y045308D01*
X024531Y045321D01*
X024446D01*
Y045479D01*
X024531D01*
X024597Y045492D01*
X024652Y045529D01*
X024689Y045584D01*
X024703Y045650D01*
X024689Y045716D01*
X024652Y045771D01*
X024597Y045808D01*
X024531Y045821D01*
X024446D01*
Y045979D01*
X024531D01*
X024597Y045992D01*
X024652Y046029D01*
X024672Y046058D01*
X024957D01*
X024977Y046027D01*
X025034Y045990D01*
X025100Y045977D01*
X025166Y045990D01*
X025223Y046027D01*
X025260Y046084D01*
X025273Y046150D01*
X025260Y046216D01*
X025223Y046273D01*
X025166Y046310D01*
X025100Y046323D01*
X025034Y046310D01*
X024977Y046273D01*
X024957Y046242D01*
X024672D01*
X024652Y046271D01*
X024597Y046308D01*
X024531Y046321D01*
X024177D01*
X024111Y046308D01*
X024056Y046271D01*
X024018Y046216D01*
X024005Y046150D01*
X024018Y046084D01*
X024056Y046029D01*
X024111Y045992D01*
X024177Y045979D01*
X024262D01*
Y045821D01*
X024177D01*
X024111Y045808D01*
X024056Y045771D01*
X024018Y045716D01*
X024005Y045650D01*
X024018Y045584D01*
X024056Y045529D01*
X024111Y045492D01*
X024177Y045479D01*
X024262D01*
Y045321D01*
X024177D01*
X024111Y045308D01*
X024056Y045271D01*
X024018Y045216D01*
X024005Y045150D01*
X024018Y045084D01*
X024056Y045029D01*
X024111Y044992D01*
X024177Y044979D01*
X024258D01*
Y044588D01*
X024162Y044492D01*
X023612D01*
Y044726D01*
X023079D01*
Y044074D01*
X023612D01*
Y044308D01*
X024200D01*
X024220Y044312D01*
X024258Y044280D01*
Y043750D01*
X024258Y043750D01*
X024258D01*
X024265Y043715D01*
X024285Y043685D01*
X024435Y043535D01*
X024465Y043515D01*
X024500Y043508D01*
X025007D01*
X025023Y043461D01*
X025004Y043446D01*
X024948Y043374D01*
X024914Y043290D01*
X024908Y043250D01*
X025592D01*
X025586Y043290D01*
X025552Y043374D01*
X025496Y043446D01*
X025477Y043461D01*
X025493Y043508D01*
X026524D01*
Y043138D01*
X027176D01*
Y043313D01*
X027504D01*
X027527Y043277D01*
X027584Y043240D01*
X027650Y043227D01*
X027716Y043240D01*
X027773Y043277D01*
X027796Y043313D01*
X028616D01*
X028662Y043266D01*
Y042990D01*
X028671Y042947D01*
X028695Y042911D01*
X028731Y042887D01*
X028774Y042879D01*
X028816Y042887D01*
X028852Y042911D01*
X028892D01*
X028928Y042887D01*
X028970Y042879D01*
X029013Y042887D01*
X029049Y042911D01*
X029089D01*
X029125Y042887D01*
X029167Y042879D01*
X029210Y042887D01*
X029246Y042911D01*
X029286D01*
X029322Y042887D01*
X029364Y042879D01*
X029407Y042887D01*
X029443Y042911D01*
X029482D01*
X029518Y042887D01*
X029561Y042879D01*
X029604Y042887D01*
X029640Y042911D01*
X029679D01*
X029715Y042887D01*
X029758Y042879D01*
X029800Y042887D01*
X029836Y042911D01*
X029876D01*
X029912Y042887D01*
X029955Y042879D01*
X029997Y042887D01*
X030033Y042911D01*
X030073D01*
X030109Y042887D01*
X030152Y042879D01*
X030194Y042887D01*
X030213Y042899D01*
X030257Y042876D01*
Y041386D01*
X030162Y041292D01*
X029050D01*
X029042Y041290D01*
X028474D01*
X028451Y041334D01*
X028463Y041353D01*
X028471Y041395D01*
X028463Y041438D01*
X028439Y041474D01*
Y041514D01*
X028463Y041550D01*
X028471Y041592D01*
X028463Y041635D01*
X028439Y041671D01*
Y041710D01*
X028463Y041746D01*
X028471Y041789D01*
X028463Y041832D01*
X028439Y041868D01*
Y041907D01*
X028463Y041943D01*
X028471Y041986D01*
X028463Y042028D01*
X028439Y042064D01*
Y042104D01*
X028463Y042140D01*
X028471Y042183D01*
X028463Y042225D01*
X028439Y042261D01*
Y042301D01*
X028463Y042337D01*
X028471Y042380D01*
X028463Y042422D01*
X028439Y042458D01*
Y042498D01*
X028458Y042526D01*
X027672D01*
X027679Y042515D01*
X027656Y042471D01*
X027608D01*
X027521Y042559D01*
X027523Y042577D01*
X027560Y042634D01*
X027573Y042700D01*
X027560Y042766D01*
X027523Y042823D01*
X027466Y042860D01*
X027400Y042873D01*
X027334Y042860D01*
X027277Y042823D01*
X027240Y042766D01*
X027227Y042700D01*
X027240Y042634D01*
X027277Y042577D01*
X027288Y042571D01*
X027308Y042550D01*
X027308Y042550D01*
D01*
X027315Y042515D01*
X027335Y042485D01*
X027410Y042410D01*
X027386Y042366D01*
X027350Y042373D01*
X027284Y042360D01*
X027227Y042323D01*
X027190Y042266D01*
X027177Y042200D01*
X027190Y042134D01*
X027227Y042077D01*
X027284Y042040D01*
X027350Y042027D01*
X027416Y042040D01*
X027473Y042077D01*
X027482Y042091D01*
X027626D01*
X027631Y042084D01*
X027647Y042045D01*
X027504Y041902D01*
X027192D01*
X027052Y042042D01*
Y042240D01*
X027046Y042269D01*
X027045Y042275D01*
X027025Y042305D01*
X026565Y042765D01*
X026535Y042785D01*
X026500Y042792D01*
X024800D01*
X024765Y042785D01*
X024735Y042765D01*
X024535Y042565D01*
X024515Y042535D01*
X024508Y042500D01*
Y041888D01*
X024462Y041842D01*
X023250D01*
X023221Y041836D01*
X023215Y041835D01*
X023185Y041815D01*
X023085Y041715D01*
X023065Y041685D01*
X023058Y041650D01*
Y040400D01*
X023065Y040365D01*
X023085Y040335D01*
Y040315D01*
X023058Y040288D01*
X023012Y040307D01*
Y040375D01*
X023005Y040410D01*
X022985Y040440D01*
X022674Y040750D01*
X022645Y040770D01*
X022610Y040777D01*
X022103D01*
X021752Y041128D01*
X021786Y041210D01*
X021798Y041300D01*
X021786Y041390D01*
X021752Y041474D01*
X021696Y041546D01*
X021624Y041602D01*
X021540Y041636D01*
X021450Y041648D01*
X021360Y041636D01*
X021276Y041602D01*
X021204Y041546D01*
X021148Y041474D01*
X021114Y041390D01*
X021102Y041300D01*
X021114Y041210D01*
X021148Y041126D01*
X021204Y041054D01*
X021276Y040998D01*
X021360Y040964D01*
X021450Y040952D01*
X021540Y040964D01*
X021623Y040998D01*
X022000Y040620D01*
X022000Y040620D01*
X022000Y040620D01*
Y040620D01*
X022000Y040620D01*
Y040620D01*
X022030Y040601D01*
X022065Y040594D01*
X022188D01*
X022204Y040546D01*
X022148Y040474D01*
X022114Y040390D01*
X022102Y040300D01*
X022114Y040210D01*
X022148Y040126D01*
X022204Y040054D01*
X022276Y039998D01*
X022360Y039964D01*
X022450Y039952D01*
X022540Y039964D01*
X022624Y039998D01*
X022696Y040054D01*
X022752Y040126D01*
X022779Y040193D01*
X022828Y040183D01*
Y039417D01*
X022779Y039407D01*
X022752Y039474D01*
X022696Y039546D01*
X022624Y039602D01*
X022540Y039636D01*
X022450Y039648D01*
X022360Y039636D01*
X022276Y039602D01*
X022204Y039546D01*
X022148Y039474D01*
X022114Y039390D01*
X022102Y039300D01*
X022114Y039210D01*
X022148Y039126D01*
X022204Y039054D01*
X022276Y038998D01*
X022360Y038964D01*
X022450Y038952D01*
X022540Y038964D01*
X022624Y038998D01*
X022696Y039054D01*
X022752Y039126D01*
X022779Y039193D01*
X022828Y039183D01*
Y038417D01*
X022779Y038407D01*
X022752Y038474D01*
X022696Y038546D01*
X022624Y038602D01*
X022540Y038636D01*
X022450Y038648D01*
X022360Y038636D01*
X022276Y038602D01*
X022204Y038546D01*
X022148Y038474D01*
X022114Y038390D01*
X022106Y038335D01*
X022056Y038333D01*
X022051Y038359D01*
X022050Y038365D01*
X022030Y038394D01*
X021542Y038883D01*
Y038964D01*
X021624Y038998D01*
X021696Y039054D01*
X021752Y039126D01*
X021786Y039210D01*
X021798Y039300D01*
X021786Y039390D01*
X021752Y039474D01*
X021696Y039546D01*
X021624Y039602D01*
X021540Y039636D01*
X021450Y039648D01*
X021360Y039636D01*
X021276Y039602D01*
X021204Y039546D01*
X021148Y039474D01*
X021114Y039390D01*
X021102Y039300D01*
X021114Y039210D01*
X021148Y039126D01*
X021204Y039054D01*
X021276Y038998D01*
X021358Y038964D01*
Y038845D01*
X021358Y038845D01*
X021358D01*
X021365Y038810D01*
X021385Y038780D01*
X021472Y038693D01*
X021450Y038648D01*
X021360Y038636D01*
X021276Y038602D01*
X021204Y038546D01*
X021148Y038474D01*
X021114Y038390D01*
X021102Y038300D01*
X021114Y038210D01*
X021148Y038126D01*
X021204Y038054D01*
X021276Y037998D01*
X021358Y037964D01*
Y037845D01*
X021365Y037810D01*
X021385Y037780D01*
X021472Y037693D01*
X021450Y037648D01*
X021360Y037636D01*
X021276Y037602D01*
X021204Y037546D01*
X021148Y037474D01*
X021114Y037392D01*
X021100D01*
X021065Y037385D01*
X021035Y037365D01*
X020778Y037108D01*
X020732Y037127D01*
Y040112D01*
X020828Y040208D01*
X021114D01*
X021148Y040126D01*
X021204Y040054D01*
X021276Y039998D01*
X021360Y039964D01*
X021450Y039952D01*
X021540Y039964D01*
X021624Y039998D01*
X021696Y040054D01*
X021752Y040126D01*
X021786Y040210D01*
X021798Y040300D01*
X021786Y040390D01*
X021752Y040474D01*
X021696Y040546D01*
X021624Y040602D01*
X021540Y040636D01*
X021450Y040648D01*
X021360Y040636D01*
X021276Y040602D01*
X021204Y040546D01*
X021148Y040474D01*
X021114Y040392D01*
X020790D01*
X020755Y040385D01*
X020725Y040365D01*
X020648Y040288D01*
X020602Y040307D01*
Y049398D01*
X025843D01*
X025862Y049352D01*
D02*
G37*
G36*
X039398Y030602D02*
X036897D01*
X036878Y030648D01*
X036965Y030735D01*
X036985Y030765D01*
X036992Y030800D01*
X036992Y030800D01*
X036992Y030800D01*
Y030800D01*
Y031974D01*
X037121D01*
Y032626D01*
X036659D01*
X036606Y032678D01*
X036625Y032724D01*
X037121D01*
Y033376D01*
X036659D01*
X036620Y033415D01*
X036602Y033427D01*
X036617Y033474D01*
X037121D01*
Y034126D01*
D01*
Y034126D01*
X037121Y034126D01*
Y034174D01*
X037121D01*
Y034658D01*
X037137Y034664D01*
X037179Y034637D01*
Y034174D01*
X037179Y034174D01*
X037179Y034126D01*
X037179D01*
Y033474D01*
X037354D01*
Y033376D01*
X037179D01*
Y032724D01*
X037354D01*
Y032626D01*
X037179D01*
Y031974D01*
X037712D01*
Y032626D01*
X037537D01*
Y032724D01*
X037712D01*
Y033376D01*
X037537D01*
Y033474D01*
X037712D01*
Y034126D01*
D01*
Y034126D01*
X037712Y034126D01*
Y034174D01*
X037712D01*
Y034826D01*
D01*
Y034826D01*
X037712Y034826D01*
Y034874D01*
X037712D01*
Y035150D01*
X037179D01*
Y034990D01*
X037163Y034984D01*
X037121Y035012D01*
Y035526D01*
X036704D01*
X036465Y035765D01*
X034918Y037312D01*
X034937Y037358D01*
X038450D01*
X038485Y037365D01*
X038515Y037385D01*
X038915Y037785D01*
X038935Y037815D01*
X038936Y037821D01*
X038942Y037850D01*
Y040400D01*
X038935Y040435D01*
X038915Y040465D01*
X038402Y040978D01*
X038436Y041060D01*
X038448Y041150D01*
X038436Y041240D01*
X038402Y041324D01*
X038346Y041396D01*
X038274Y041452D01*
X038190Y041486D01*
X038100Y041498D01*
X038010Y041486D01*
X037926Y041452D01*
X037854Y041396D01*
X037798Y041324D01*
X037764Y041240D01*
X037752Y041150D01*
X037764Y041060D01*
X037798Y040976D01*
X037854Y040904D01*
X037926Y040848D01*
X038010Y040814D01*
X038100Y040802D01*
X038190Y040814D01*
X038273Y040848D01*
X038758Y040362D01*
Y037888D01*
X038412Y037542D01*
X034688D01*
X033250Y038980D01*
X033220Y039000D01*
X033185Y039007D01*
X031838D01*
Y039210D01*
X031829Y039253D01*
X031818Y039269D01*
Y039324D01*
X031811Y039359D01*
X031791Y039389D01*
X031508Y039671D01*
X031513Y039721D01*
X031523Y039727D01*
X031560Y039784D01*
X031573Y039850D01*
X031566Y039886D01*
X031765Y040085D01*
X031785Y040115D01*
X031792Y040150D01*
X031792Y040150D01*
X031792Y040150D01*
Y040150D01*
Y042312D01*
X031964Y042485D01*
X032026D01*
X032049Y042441D01*
X032037Y042422D01*
X032029Y042380D01*
X032037Y042337D01*
X032061Y042301D01*
Y042261D01*
X032037Y042225D01*
X032029Y042183D01*
X032037Y042140D01*
X032061Y042104D01*
Y042064D01*
X032037Y042028D01*
X032029Y041986D01*
X032037Y041943D01*
X032061Y041907D01*
Y041868D01*
X032037Y041832D01*
X032029Y041789D01*
X032037Y041746D01*
X032061Y041710D01*
Y041671D01*
X032037Y041635D01*
X032029Y041592D01*
X032037Y041550D01*
X032061Y041514D01*
Y041474D01*
X032037Y041438D01*
X032029Y041395D01*
X032037Y041353D01*
X032061Y041317D01*
Y041277D01*
X032037Y041241D01*
X032029Y041198D01*
X032037Y041156D01*
X032061Y041120D01*
Y041080D01*
X032037Y041044D01*
X032029Y041002D01*
X032037Y040959D01*
X032061Y040923D01*
Y040883D01*
X032037Y040847D01*
X032029Y040805D01*
X032037Y040762D01*
X032061Y040726D01*
Y040686D01*
X032037Y040650D01*
X032029Y040608D01*
X032037Y040565D01*
X032061Y040529D01*
Y040490D01*
X032037Y040454D01*
X032029Y040411D01*
X032037Y040368D01*
X032061Y040332D01*
Y040293D01*
X032037Y040257D01*
X032029Y040214D01*
X032037Y040172D01*
X032061Y040136D01*
Y040096D01*
X032037Y040060D01*
X032029Y040017D01*
X032037Y039975D01*
X032061Y039939D01*
Y039899D01*
X032037Y039863D01*
X032029Y039820D01*
X032037Y039778D01*
X032061Y039742D01*
Y039702D01*
X032037Y039666D01*
X032029Y039624D01*
X032037Y039581D01*
X032061Y039545D01*
X032097Y039521D01*
X032140Y039512D01*
X032730D01*
X032773Y039521D01*
X032789Y039532D01*
X033237D01*
X033799Y038970D01*
X033829Y038950D01*
X033864Y038943D01*
X034977D01*
X035155Y038765D01*
Y038205D01*
X035845D01*
Y038895D01*
X035285D01*
X035153Y039027D01*
X035172Y039073D01*
X036502D01*
X036876Y038700D01*
X036905Y038680D01*
X036911Y038679D01*
X036940Y038673D01*
X037260D01*
X037295Y038680D01*
X037324Y038700D01*
X037324Y038700D01*
X037324Y038700D01*
X037683Y039058D01*
X037764D01*
X037798Y038976D01*
X037854Y038904D01*
X037926Y038848D01*
X038010Y038814D01*
X038100Y038802D01*
X038190Y038814D01*
X038274Y038848D01*
X038346Y038904D01*
X038402Y038976D01*
X038436Y039060D01*
X038448Y039150D01*
X038436Y039240D01*
X038402Y039324D01*
X038346Y039396D01*
X038274Y039452D01*
X038190Y039486D01*
X038100Y039498D01*
X038010Y039486D01*
X037926Y039452D01*
X037854Y039396D01*
X037798Y039324D01*
X037764Y039242D01*
X037645D01*
X037610Y039235D01*
X037580Y039215D01*
X037493Y039128D01*
X037448Y039150D01*
X037436Y039240D01*
X037402Y039324D01*
X037346Y039396D01*
X037274Y039452D01*
X037192Y039486D01*
Y039600D01*
X037185Y039635D01*
X037165Y039665D01*
X037072Y039758D01*
X037094Y039803D01*
X037100Y039802D01*
X037190Y039814D01*
X037274Y039848D01*
X037346Y039904D01*
X037402Y039976D01*
X037436Y040060D01*
X037448Y040150D01*
X037436Y040240D01*
X037402Y040324D01*
X037346Y040396D01*
X037362Y040444D01*
X037677D01*
X037798Y040322D01*
X037764Y040240D01*
X037752Y040150D01*
X037764Y040060D01*
X037798Y039976D01*
X037854Y039904D01*
X037926Y039848D01*
X038010Y039814D01*
X038100Y039802D01*
X038190Y039814D01*
X038274Y039848D01*
X038346Y039904D01*
X038402Y039976D01*
X038436Y040060D01*
X038448Y040150D01*
X038436Y040240D01*
X038402Y040324D01*
X038346Y040396D01*
X038274Y040452D01*
X038190Y040486D01*
X038100Y040498D01*
X038010Y040486D01*
X037927Y040452D01*
X037780Y040600D01*
X037750Y040620D01*
X037715Y040627D01*
X036940D01*
X036905Y040620D01*
X036876Y040600D01*
X036532Y040256D01*
X035762D01*
X035746Y040304D01*
X035802Y040376D01*
X035836Y040460D01*
X035848Y040550D01*
X035836Y040640D01*
X035802Y040724D01*
X035746Y040796D01*
X035674Y040852D01*
X035590Y040886D01*
X035500Y040898D01*
X035410Y040886D01*
X035326Y040852D01*
X035271Y040809D01*
X035092Y040988D01*
Y041550D01*
X035086Y041579D01*
X035085Y041585D01*
X035065Y041615D01*
X034665Y042015D01*
X034635Y042035D01*
X034600Y042042D01*
X033555D01*
X033546Y042063D01*
X033540Y042092D01*
X033647Y042199D01*
X034621D01*
X035168Y041652D01*
X035164Y041640D01*
X035152Y041550D01*
X035164Y041460D01*
X035198Y041376D01*
X035254Y041304D01*
X035326Y041248D01*
X035410Y041214D01*
X035500Y041202D01*
X035590Y041214D01*
X035674Y041248D01*
X035746Y041304D01*
X035802Y041376D01*
X035836Y041460D01*
X035848Y041550D01*
X035836Y041640D01*
X035802Y041724D01*
X035746Y041796D01*
X035674Y041852D01*
X035590Y041886D01*
X035500Y041898D01*
X035410Y041886D01*
X035326Y041852D01*
X035271Y041809D01*
X035168Y041912D01*
X035187Y041958D01*
X038100D01*
X038135Y041965D01*
X038165Y041985D01*
X038165Y041985D01*
X038165Y041985D01*
X038215Y042035D01*
X038235Y042065D01*
X038242Y042100D01*
X038242Y042100D01*
X038242Y042100D01*
Y042100D01*
Y042755D01*
X038445D01*
Y043445D01*
X037755D01*
Y042755D01*
X038058D01*
Y042142D01*
X035188D01*
X035092Y042238D01*
Y042750D01*
X035089Y042763D01*
X035133Y042787D01*
X035198Y042723D01*
X035164Y042640D01*
X035152Y042550D01*
X035164Y042460D01*
X035198Y042376D01*
X035254Y042304D01*
X035326Y042248D01*
X035410Y042214D01*
X035500Y042202D01*
X035590Y042214D01*
X035674Y042248D01*
X035746Y042304D01*
X035802Y042376D01*
X035836Y042460D01*
X035848Y042550D01*
X035836Y042640D01*
X035802Y042724D01*
X035746Y042796D01*
X035674Y042852D01*
X035590Y042886D01*
X035500Y042898D01*
X035410Y042886D01*
X035327Y042852D01*
X035082Y043098D01*
X035052Y043118D01*
X035017Y043125D01*
X033620D01*
X033601Y043171D01*
X033888Y043458D01*
X035164D01*
X035198Y043376D01*
X035254Y043304D01*
X035326Y043248D01*
X035410Y043214D01*
X035500Y043202D01*
X035590Y043214D01*
X035674Y043248D01*
X035746Y043304D01*
X035802Y043376D01*
X035836Y043460D01*
X035848Y043550D01*
X035836Y043640D01*
X035802Y043724D01*
X035746Y043796D01*
X035674Y043852D01*
X035590Y043886D01*
X035500Y043898D01*
X035410Y043886D01*
X035326Y043852D01*
X035254Y043796D01*
X035198Y043724D01*
X035164Y043642D01*
X033850D01*
X033815Y043635D01*
X033785Y043615D01*
X033135Y042965D01*
X033115Y042935D01*
X033108Y042900D01*
Y042688D01*
X032892Y042471D01*
X032844D01*
X032821Y042515D01*
X032833Y042534D01*
X032842Y042576D01*
X032833Y042619D01*
X032809Y042655D01*
X032773Y042679D01*
X032730Y042688D01*
X032527D01*
Y042747D01*
X032914Y043134D01*
X032950Y043127D01*
X033016Y043140D01*
X033073Y043177D01*
X033110Y043234D01*
X033123Y043300D01*
X033110Y043366D01*
X033073Y043423D01*
X033016Y043460D01*
X032950Y043473D01*
X032884Y043460D01*
X032827Y043423D01*
X032790Y043366D01*
X032777Y043300D01*
X032784Y043264D01*
X032370Y042850D01*
X032350Y042820D01*
X032343Y042785D01*
Y042688D01*
X032140D01*
X032097Y042679D01*
X032081Y042668D01*
X031926D01*
X031891Y042661D01*
X031861Y042641D01*
X031635Y042415D01*
X031615Y042385D01*
X031608Y042350D01*
Y040188D01*
X031436Y040016D01*
X031400Y040023D01*
X031334Y040010D01*
X031277Y039973D01*
X031240Y039916D01*
X031229Y039863D01*
X031181Y039848D01*
X030992Y040038D01*
Y040458D01*
X031120D01*
X031127Y040450D01*
X031140Y040384D01*
X031177Y040327D01*
X031234Y040290D01*
X031300Y040277D01*
X031366Y040290D01*
X031423Y040327D01*
X031460Y040384D01*
X031473Y040450D01*
X031460Y040516D01*
X031423Y040573D01*
X031366Y040610D01*
X031300Y040623D01*
X031263Y040616D01*
X031235Y040635D01*
X031200Y040642D01*
X030950D01*
X030915Y040635D01*
X030885Y040615D01*
X030835Y040565D01*
X030815Y040535D01*
X030808Y040500D01*
Y040000D01*
X030808Y040000D01*
X030808D01*
X030815Y039965D01*
X030835Y039935D01*
X031044Y039726D01*
Y039483D01*
X031037Y039478D01*
X030998Y039462D01*
X030695Y039765D01*
X030665Y039785D01*
X030630Y039792D01*
X030343D01*
X030323Y039823D01*
X030266Y039860D01*
X030200Y039873D01*
X030134Y039860D01*
X030077Y039823D01*
X030040Y039766D01*
X030027Y039700D01*
X030040Y039634D01*
X030077Y039577D01*
X030134Y039540D01*
X030200Y039527D01*
X030266Y039540D01*
X030323Y039577D01*
X030343Y039608D01*
X030592D01*
X030836Y039364D01*
X030829Y039314D01*
X030803Y039301D01*
X030785Y039313D01*
X030742Y039321D01*
X030700Y039313D01*
X030663Y039289D01*
X030624D01*
X030588Y039313D01*
X030545Y039321D01*
X030503Y039313D01*
X030467Y039289D01*
X030427D01*
X030391Y039313D01*
X030348Y039321D01*
X030306Y039313D01*
X030270Y039289D01*
X030230D01*
X030194Y039313D01*
X030152Y039321D01*
X030109Y039313D01*
X030073Y039289D01*
X030033D01*
X030005Y039308D01*
Y038915D01*
X029905D01*
Y039308D01*
X029894Y039301D01*
X029850Y039324D01*
Y039392D01*
X029843Y039427D01*
X029823Y039457D01*
X029765Y039515D01*
X029735Y039535D01*
X029700Y039542D01*
X029456D01*
Y041036D01*
X029449Y041070D01*
X029452Y041073D01*
X029505Y041108D01*
X030200D01*
X030235Y041115D01*
X030265Y041135D01*
X030265Y041135D01*
X030265Y041135D01*
X030413Y041284D01*
X030433Y041313D01*
X030440Y041348D01*
X030440Y041348D01*
X030440Y041348D01*
Y041348D01*
Y042630D01*
X030479Y042662D01*
X030498Y042658D01*
X030900D01*
X030935Y042665D01*
X030965Y042685D01*
X031004Y042724D01*
X031024Y042754D01*
X031031Y042789D01*
Y042876D01*
X031075Y042899D01*
X031093Y042887D01*
X031136Y042879D01*
X031178Y042887D01*
X031214Y042911D01*
X031254D01*
X031290Y042887D01*
X031333Y042879D01*
X031375Y042887D01*
X031411Y042911D01*
X031451D01*
X031487Y042887D01*
X031530Y042879D01*
X031572Y042887D01*
X031608Y042911D01*
X031648D01*
X031676Y042892D01*
Y043285D01*
Y043678D01*
X031665Y043671D01*
X031621Y043694D01*
Y043872D01*
X031688Y043938D01*
X033616D01*
X033651Y043945D01*
X033680Y043965D01*
X033680Y043965D01*
X033680Y043965D01*
X035238Y045523D01*
X035814D01*
X035850Y045530D01*
X035879Y045550D01*
X035925Y045596D01*
X035972Y045577D01*
Y044617D01*
X035972D01*
Y044610D01*
X035936Y044574D01*
X034932D01*
X034897Y044567D01*
X034868Y044547D01*
X034536Y044216D01*
X034500Y044223D01*
X034434Y044210D01*
X034377Y044173D01*
X034340Y044116D01*
X034327Y044050D01*
X034340Y043984D01*
X034377Y043927D01*
X034434Y043890D01*
X034500Y043877D01*
X034566Y043890D01*
X034623Y043927D01*
X034660Y043984D01*
X034673Y044050D01*
X034666Y044086D01*
X034970Y044391D01*
X035393D01*
X035408Y044343D01*
X035377Y044323D01*
X035340Y044266D01*
X035337Y044250D01*
X035500D01*
Y044200D01*
X035550D01*
Y044037D01*
X035566Y044040D01*
X035623Y044077D01*
X035643Y044108D01*
X037607D01*
X037627Y044077D01*
X037684Y044040D01*
X037700Y044037D01*
Y044200D01*
X037750D01*
Y044250D01*
X037913D01*
X037910Y044266D01*
X037873Y044323D01*
X037816Y044360D01*
X037792Y044365D01*
Y044809D01*
X037786Y044839D01*
X037785Y044844D01*
X037765Y044874D01*
X037560Y045079D01*
X037430D01*
Y044617D01*
X037528D01*
Y044786D01*
X037575Y044805D01*
X037608Y044771D01*
Y044294D01*
X037607Y044292D01*
X035643D01*
X035623Y044323D01*
X035592Y044343D01*
X035607Y044391D01*
X036982D01*
X037018Y044398D01*
X037047Y044418D01*
X037047Y044418D01*
X037047Y044418D01*
X037130Y044500D01*
X037150Y044530D01*
X037151Y044536D01*
X037157Y044565D01*
Y044617D01*
X037196D01*
X037196Y044617D01*
Y044617D01*
X037213Y044617D01*
X037222D01*
X037231D01*
X037249Y044617D01*
X037249Y044617D01*
Y044617D01*
X037330D01*
Y045129D01*
Y045642D01*
X037249D01*
X037249Y045642D01*
Y045642D01*
X037231Y045642D01*
X037222D01*
X037213D01*
X037196Y045642D01*
X037196Y045642D01*
Y045642D01*
X036934D01*
X036934Y045642D01*
Y045642D01*
X036917Y045642D01*
X036907D01*
X036898D01*
X036881Y045642D01*
X036881Y045642D01*
Y045642D01*
X036842D01*
Y046962D01*
X037088Y047208D01*
X037307D01*
X037327Y047177D01*
X037384Y047140D01*
X037450Y047127D01*
X037516Y047140D01*
X037573Y047177D01*
X037610Y047234D01*
X037623Y047300D01*
X037610Y047366D01*
X037573Y047423D01*
X037516Y047460D01*
X037450Y047473D01*
X037384Y047460D01*
X037327Y047423D01*
X037307Y047392D01*
X037050D01*
X037015Y047385D01*
X036985Y047365D01*
X036685Y047065D01*
X036665Y047035D01*
X036658Y047000D01*
Y045642D01*
X036619D01*
X036619Y045642D01*
Y045642D01*
X036602Y045642D01*
X036593D01*
X036583D01*
X036577D01*
X036542Y045677D01*
Y047207D01*
X036573Y047227D01*
X036610Y047284D01*
X036623Y047350D01*
X036610Y047416D01*
X036573Y047473D01*
X036516Y047510D01*
X036526Y047558D01*
X036662D01*
X036735Y047485D01*
X036765Y047465D01*
X036771Y047464D01*
X036800Y047458D01*
X037200D01*
X037235Y047465D01*
X037265Y047485D01*
X037265Y047485D01*
X037265Y047485D01*
X037564Y047784D01*
X037600Y047777D01*
X037666Y047790D01*
X037723Y047827D01*
X037760Y047884D01*
X037773Y047950D01*
X037760Y048016D01*
X037723Y048073D01*
X037666Y048110D01*
X037600Y048123D01*
X037534Y048110D01*
X037477Y048073D01*
X037440Y048016D01*
X037427Y047950D01*
X037434Y047914D01*
X037162Y047642D01*
X037026D01*
X037016Y047690D01*
X037073Y047727D01*
X037110Y047784D01*
X037123Y047850D01*
X037110Y047916D01*
X037073Y047973D01*
X037016Y048010D01*
X036950Y048023D01*
X036913Y048016D01*
X036885Y048035D01*
X036850Y048042D01*
X036250D01*
X036215Y048035D01*
X036185Y048015D01*
X035985Y047815D01*
X035965Y047785D01*
X035958Y047750D01*
Y046800D01*
X035958Y046800D01*
X035958D01*
Y045888D01*
X035776Y045706D01*
X035303D01*
X035284Y045752D01*
X035465Y045933D01*
X035485Y045963D01*
X035492Y045998D01*
X035492Y045998D01*
X035492Y045998D01*
Y045998D01*
Y047262D01*
X035525Y047295D01*
X035534Y047290D01*
X035600Y047277D01*
X035666Y047290D01*
X035723Y047327D01*
X035760Y047384D01*
X035773Y047450D01*
X035760Y047516D01*
X035723Y047573D01*
X035666Y047610D01*
X035600Y047623D01*
X035534Y047610D01*
X035477Y047573D01*
X035440Y047516D01*
X035428Y047458D01*
X035335Y047365D01*
X035315Y047335D01*
X035308Y047300D01*
Y046036D01*
X035271Y045999D01*
X035225Y046019D01*
Y047040D01*
X034200D01*
Y045955D01*
X035162D01*
X035181Y045909D01*
X034173Y044901D01*
X034127Y044920D01*
Y045715D01*
X034121Y045744D01*
X034120Y045750D01*
X034115Y045758D01*
X034123Y045800D01*
X034110Y045866D01*
X034073Y045923D01*
X034016Y045960D01*
X033950Y045973D01*
X033884Y045960D01*
X033827Y045923D01*
X033790Y045866D01*
X033777Y045800D01*
X033790Y045734D01*
X033827Y045677D01*
X033884Y045640D01*
X033944Y045628D01*
Y045495D01*
X033305D01*
Y044805D01*
X033510D01*
X033529Y044759D01*
X033282Y044512D01*
X032557D01*
X032538Y044558D01*
X032715Y044735D01*
X032735Y044765D01*
X032736Y044771D01*
X032742Y044800D01*
Y044814D01*
X032824Y044848D01*
X032896Y044904D01*
X032952Y044976D01*
X032986Y045060D01*
X032998Y045150D01*
X032986Y045240D01*
X032952Y045324D01*
X032896Y045396D01*
X032824Y045452D01*
X032740Y045486D01*
X032650Y045498D01*
X032560Y045486D01*
X032476Y045452D01*
X032404Y045396D01*
X032348Y045324D01*
X032314Y045240D01*
X032302Y045150D01*
X032314Y045060D01*
X032348Y044976D01*
X032404Y044904D01*
X032476Y044848D01*
X032500Y044838D01*
X032510Y044789D01*
X032362Y044642D01*
X031637D01*
X031618Y044688D01*
X031715Y044785D01*
X031733Y044813D01*
X031740Y044814D01*
X031824Y044848D01*
X031896Y044904D01*
X031952Y044976D01*
X031986Y045060D01*
X031998Y045150D01*
X031986Y045240D01*
X031952Y045324D01*
X031896Y045396D01*
X031877Y045411D01*
X031893Y045458D01*
X032350D01*
X032385Y045465D01*
X032415Y045485D01*
X032415Y045485D01*
X032415Y045485D01*
X032515Y045585D01*
X032535Y045615D01*
X032536Y045621D01*
X032542Y045650D01*
Y046367D01*
X032903D01*
Y047333D01*
X032016D01*
Y046367D01*
X032358D01*
Y045688D01*
X032312Y045642D01*
X030988D01*
X030942Y045688D01*
Y045798D01*
X030986Y045822D01*
X031034Y045790D01*
X031050Y045787D01*
Y045950D01*
X031100D01*
Y046000D01*
X031263D01*
X031260Y046016D01*
X031223Y046073D01*
X031166Y046110D01*
X031142Y046115D01*
Y046188D01*
X031142D01*
X031174D01*
X031177Y046188D01*
X031177Y046188D01*
Y046188D01*
X031487D01*
X031590Y046085D01*
X031620Y046065D01*
X031655Y046058D01*
X031862D01*
X031934Y045986D01*
X031927Y045950D01*
X031940Y045884D01*
X031977Y045827D01*
X032034Y045790D01*
X032100Y045777D01*
X032166Y045790D01*
X032223Y045827D01*
X032260Y045884D01*
X032273Y045950D01*
X032260Y046016D01*
X032223Y046073D01*
X032166Y046110D01*
X032100Y046123D01*
X032064Y046116D01*
X031965Y046215D01*
X031935Y046235D01*
X031900Y046242D01*
X031826D01*
Y046721D01*
X031177D01*
X031177Y046721D01*
Y046721D01*
X031174Y046721D01*
X031174D01*
X031138D01*
X031135Y046735D01*
X031115Y046765D01*
X030972Y046907D01*
X030992Y046954D01*
X031174D01*
Y046779D01*
X031826D01*
Y047312D01*
X031572D01*
X031567Y047362D01*
X031585Y047365D01*
X031615Y047385D01*
X031765Y047535D01*
X031785Y047565D01*
X031792Y047600D01*
Y048262D01*
X031878Y048348D01*
X031924Y048329D01*
Y048229D01*
X032576D01*
Y048762D01*
X032113D01*
X032010Y048865D01*
X031653Y049222D01*
X031672Y049268D01*
X032457D01*
X032788Y048937D01*
Y048474D01*
X033321D01*
Y049126D01*
X032859D01*
X032633Y049352D01*
X032652Y049398D01*
X039398D01*
Y030602D01*
D02*
G37*
%LPC*%
G36*
X031600Y036148D02*
X031510Y036136D01*
X031426Y036102D01*
X031354Y036046D01*
X031298Y035974D01*
X031264Y035890D01*
X031252Y035800D01*
X031264Y035710D01*
X031298Y035626D01*
X031354Y035554D01*
X031426Y035498D01*
X031510Y035464D01*
X031600Y035452D01*
X031690Y035464D01*
X031774Y035498D01*
X031846Y035554D01*
X031902Y035626D01*
X031936Y035710D01*
X031948Y035800D01*
X031936Y035890D01*
X031902Y035974D01*
X031846Y036046D01*
X031774Y036102D01*
X031690Y036136D01*
X031600Y036148D01*
D02*
G37*
G36*
X028945Y036145D02*
X028255D01*
Y035455D01*
X028945D01*
Y036145D01*
D02*
G37*
G36*
X032100Y036763D02*
Y036650D01*
X032213D01*
X032210Y036666D01*
X032173Y036723D01*
X032116Y036760D01*
X032100Y036763D01*
D02*
G37*
G36*
X021200Y048750D02*
X020905D01*
Y048455D01*
X021200D01*
Y048750D01*
D02*
G37*
G36*
X030600Y036148D02*
X030510Y036136D01*
X030426Y036102D01*
X030354Y036046D01*
X030298Y035974D01*
X030264Y035890D01*
X030252Y035800D01*
X030264Y035710D01*
X030298Y035626D01*
X030354Y035554D01*
X030426Y035498D01*
X030510Y035464D01*
X030600Y035452D01*
X030690Y035464D01*
X030774Y035498D01*
X030846Y035554D01*
X030902Y035626D01*
X030936Y035710D01*
X030948Y035800D01*
X030936Y035890D01*
X030902Y035974D01*
X030846Y036046D01*
X030774Y036102D01*
X030690Y036136D01*
X030600Y036148D01*
D02*
G37*
G36*
X037712Y035526D02*
X037495D01*
Y035250D01*
X037712D01*
Y035526D01*
D02*
G37*
G36*
X037395D02*
X037179D01*
Y035250D01*
X037395D01*
Y035526D01*
D02*
G37*
G36*
X025650Y035300D02*
X025537D01*
X025540Y035284D01*
X025577Y035227D01*
X025634Y035190D01*
X025650Y035187D01*
Y035300D01*
D02*
G37*
G36*
X029600Y036148D02*
X029510Y036136D01*
X029426Y036102D01*
X029354Y036046D01*
X029298Y035974D01*
X029264Y035890D01*
X029252Y035800D01*
X029264Y035710D01*
X029298Y035626D01*
X029354Y035554D01*
X029426Y035498D01*
X029510Y035464D01*
X029600Y035452D01*
X029690Y035464D01*
X029774Y035498D01*
X029846Y035554D01*
X029902Y035626D01*
X029936Y035710D01*
X029948Y035800D01*
X029936Y035890D01*
X029902Y035974D01*
X029846Y036046D01*
X029774Y036102D01*
X029690Y036136D01*
X029600Y036148D01*
D02*
G37*
G36*
X021595Y048750D02*
X021300D01*
Y048455D01*
X021595D01*
Y048750D01*
D02*
G37*
G36*
X026571Y035576D02*
X026355D01*
Y035300D01*
X026571D01*
Y035576D01*
D02*
G37*
G36*
X029226Y037071D02*
X028950D01*
Y036855D01*
X029226D01*
Y037071D01*
D02*
G37*
G36*
X032200Y048171D02*
X031924D01*
Y047955D01*
X032200D01*
Y048171D01*
D02*
G37*
G36*
X031150Y048213D02*
Y048100D01*
X031263D01*
X031260Y048116D01*
X031223Y048173D01*
X031166Y048210D01*
X031150Y048213D01*
D02*
G37*
G36*
X028050Y038213D02*
X028034Y038210D01*
X027977Y038173D01*
X027940Y038116D01*
X027937Y038100D01*
X028050D01*
Y038213D01*
D02*
G37*
G36*
X025572Y048200D02*
X025060D01*
Y047728D01*
X025572D01*
Y048200D01*
D02*
G37*
G36*
X031263Y048000D02*
X031150D01*
Y047887D01*
X031166Y047890D01*
X031223Y047927D01*
X031260Y047984D01*
X031263Y048000D01*
D02*
G37*
G36*
X028724Y039308D02*
X028695Y039289D01*
X028671Y039253D01*
X028662Y039210D01*
Y038965D01*
X028724D01*
Y039308D01*
D02*
G37*
G36*
X038100Y038498D02*
X038010Y038486D01*
X037926Y038452D01*
X037854Y038396D01*
X037798Y038324D01*
X037764Y038240D01*
X037752Y038150D01*
X037764Y038060D01*
X037798Y037976D01*
X037854Y037904D01*
X037926Y037848D01*
X038010Y037814D01*
X038100Y037802D01*
X038190Y037814D01*
X038274Y037848D01*
X038346Y037904D01*
X038402Y037976D01*
X038436Y038060D01*
X038448Y038150D01*
X038436Y038240D01*
X038402Y038324D01*
X038346Y038396D01*
X038274Y038452D01*
X038190Y038486D01*
X038100Y038498D01*
D02*
G37*
G36*
X030095Y037776D02*
X029879D01*
Y037500D01*
X030095D01*
Y037776D01*
D02*
G37*
G36*
X027700Y037313D02*
Y037200D01*
X027813D01*
X027810Y037216D01*
X027773Y037273D01*
X027716Y037310D01*
X027700Y037313D01*
D02*
G37*
G36*
X025572Y048772D02*
X025060D01*
Y048300D01*
X025572D01*
Y048772D01*
D02*
G37*
G36*
X037100Y038498D02*
X037010Y038486D01*
X036926Y038452D01*
X036854Y038396D01*
X036798Y038324D01*
X036764Y038240D01*
X036752Y038150D01*
X036764Y038060D01*
X036798Y037976D01*
X036854Y037904D01*
X036926Y037848D01*
X037010Y037814D01*
X037100Y037802D01*
X037190Y037814D01*
X037274Y037848D01*
X037346Y037904D01*
X037402Y037976D01*
X037436Y038060D01*
X037448Y038150D01*
X037436Y038240D01*
X037402Y038324D01*
X037346Y038396D01*
X037274Y038452D01*
X037190Y038486D01*
X037100Y038498D01*
D02*
G37*
G36*
X024960Y048772D02*
X024448D01*
Y048300D01*
X024960D01*
Y048772D01*
D02*
G37*
G36*
X030412Y037776D02*
X030195D01*
Y037500D01*
X030412D01*
Y037776D01*
D02*
G37*
G36*
X021550Y035623D02*
X021484Y035610D01*
X021427Y035573D01*
X021390Y035516D01*
X021377Y035450D01*
X021390Y035384D01*
X021427Y035327D01*
X021484Y035290D01*
X021550Y035277D01*
X021616Y035290D01*
X021644Y035308D01*
X022312D01*
X022354Y035267D01*
Y035176D01*
X022179D01*
Y034524D01*
X022369D01*
X022383Y034477D01*
X022377Y034473D01*
X022340Y034416D01*
X022337Y034400D01*
X022500D01*
Y034350D01*
X022550D01*
Y034187D01*
X022566Y034190D01*
X022623Y034227D01*
X022643Y034258D01*
X022867D01*
X022896Y034215D01*
X022958Y034173D01*
X023031Y034159D01*
X023335D01*
Y034350D01*
Y034541D01*
X023031D01*
X022958Y034527D01*
X022896Y034485D01*
X022867Y034442D01*
X022648D01*
X022618Y034482D01*
X022631Y034524D01*
X022712D01*
Y034758D01*
X022867D01*
X022896Y034715D01*
X022958Y034673D01*
X023031Y034659D01*
X023740D01*
X023813Y034673D01*
X023875Y034715D01*
X023917Y034777D01*
X023931Y034850D01*
X023917Y034923D01*
X023875Y034985D01*
X023813Y035027D01*
X023740Y035041D01*
X023031D01*
X022958Y035027D01*
X022896Y034985D01*
X022867Y034942D01*
X022712D01*
Y035176D01*
X022537D01*
Y035305D01*
X022531Y035334D01*
X022530Y035340D01*
X022510Y035370D01*
X022415Y035465D01*
X022385Y035485D01*
X022350Y035492D01*
X021715D01*
X021710Y035516D01*
X021673Y035573D01*
X021616Y035610D01*
X021550Y035623D01*
D02*
G37*
G36*
X021595Y049145D02*
X021300D01*
Y048850D01*
X021595D01*
Y049145D01*
D02*
G37*
G36*
X033595Y049126D02*
X033379D01*
Y048850D01*
X033595D01*
Y049126D01*
D02*
G37*
G36*
X023740Y032041D02*
X023435D01*
Y031900D01*
X023921D01*
X023917Y031923D01*
X023875Y031985D01*
X023813Y032027D01*
X023740Y032041D01*
D02*
G37*
G36*
X031413Y033250D02*
X031300D01*
Y033137D01*
X031316Y033140D01*
X031373Y033177D01*
X031410Y033234D01*
X031413Y033250D01*
D02*
G37*
G36*
X021200Y049145D02*
X020905D01*
Y048850D01*
X021200D01*
Y049145D01*
D02*
G37*
G36*
X022712Y033176D02*
X022179D01*
Y032524D01*
X022354D01*
Y032383D01*
X021936Y031966D01*
X021900Y031973D01*
X021834Y031960D01*
X021777Y031923D01*
X021740Y031866D01*
X021727Y031800D01*
X021740Y031734D01*
X021777Y031677D01*
X021834Y031640D01*
X021900Y031627D01*
X021966Y031640D01*
X022023Y031677D01*
X022060Y031734D01*
X022073Y031800D01*
X022066Y031836D01*
X022510Y032280D01*
X022530Y032310D01*
X022531Y032316D01*
X022537Y032345D01*
Y032524D01*
X022712D01*
Y032758D01*
X022867D01*
X022896Y032715D01*
X022958Y032673D01*
X023031Y032659D01*
X023740D01*
X023813Y032673D01*
X023875Y032715D01*
X023917Y032777D01*
X023931Y032850D01*
X023917Y032923D01*
X023875Y032985D01*
X023813Y033027D01*
X023740Y033041D01*
X023031D01*
X022958Y033027D01*
X022896Y032985D01*
X022867Y032942D01*
X022712D01*
Y033176D01*
D02*
G37*
G36*
X023335Y032041D02*
X023031D01*
X022958Y032027D01*
X022896Y031985D01*
X022854Y031923D01*
X022850Y031900D01*
X023335D01*
Y032041D01*
D02*
G37*
G36*
Y031541D02*
X023031D01*
X022958Y031527D01*
X022896Y031485D01*
X022854Y031423D01*
X022850Y031400D01*
X023335D01*
Y031541D01*
D02*
G37*
G36*
X023740Y032541D02*
X023031D01*
X022958Y032527D01*
X022896Y032485D01*
X022854Y032423D01*
X022840Y032350D01*
X022854Y032277D01*
X022896Y032215D01*
X022958Y032173D01*
X023031Y032159D01*
X023740D01*
X023813Y032173D01*
X023875Y032215D01*
X023904Y032258D01*
X024012D01*
X024108Y032162D01*
Y031643D01*
X024077Y031623D01*
X024040Y031566D01*
X024027Y031500D01*
X024040Y031434D01*
X024077Y031377D01*
X024134Y031340D01*
X024200Y031327D01*
X024266Y031340D01*
X024323Y031377D01*
X024360Y031434D01*
X024373Y031500D01*
X024360Y031566D01*
X024323Y031623D01*
X024292Y031643D01*
Y032200D01*
X024285Y032235D01*
X024265Y032265D01*
X024115Y032415D01*
X024085Y032435D01*
X024050Y032442D01*
X023904D01*
X023875Y032485D01*
X023813Y032527D01*
X023740Y032541D01*
D02*
G37*
G36*
X033912Y049126D02*
X033695D01*
Y048850D01*
X033912D01*
Y049126D01*
D02*
G37*
G36*
X023921Y031800D02*
X023435D01*
Y031659D01*
X023740D01*
X023813Y031673D01*
X023875Y031715D01*
X023917Y031777D01*
X023921Y031800D01*
D02*
G37*
G36*
X023335D02*
X022850D01*
X022854Y031777D01*
X022896Y031715D01*
X022958Y031673D01*
X023031Y031659D01*
X023335D01*
Y031800D01*
D02*
G37*
G36*
X023740Y031541D02*
X023435D01*
Y031400D01*
X023921D01*
X023917Y031423D01*
X023875Y031485D01*
X023813Y031527D01*
X023740Y031541D01*
D02*
G37*
G36*
X023335Y033300D02*
X022850D01*
X022854Y033277D01*
X022896Y033215D01*
X022958Y033173D01*
X023031Y033159D01*
X023335D01*
Y033300D01*
D02*
G37*
G36*
X022450Y034300D02*
X022337D01*
X022340Y034284D01*
X022377Y034227D01*
X022434Y034190D01*
X022450Y034187D01*
Y034300D01*
D02*
G37*
G36*
X033595Y048750D02*
X033379D01*
Y048474D01*
X033595D01*
Y048750D01*
D02*
G37*
G36*
X033985Y034300D02*
X033500D01*
X033504Y034277D01*
X033546Y034215D01*
X033608Y034173D01*
X033681Y034159D01*
X033985D01*
Y034300D01*
D02*
G37*
G36*
X034390Y034541D02*
X034085D01*
Y034400D01*
X034571D01*
X034567Y034423D01*
X034525Y034485D01*
X034463Y034527D01*
X034390Y034541D01*
D02*
G37*
G36*
X033985D02*
X033681D01*
X033608Y034527D01*
X033546Y034485D01*
X033504Y034423D01*
X033500Y034400D01*
X033985D01*
Y034541D01*
D02*
G37*
G36*
X023740D02*
X023435D01*
Y034400D01*
X023921D01*
X023917Y034423D01*
X023875Y034485D01*
X023813Y034527D01*
X023740Y034541D01*
D02*
G37*
G36*
X033912Y048750D02*
X033695D01*
Y048474D01*
X033912D01*
Y048750D01*
D02*
G37*
G36*
X031300Y033463D02*
Y033350D01*
X031413D01*
X031410Y033366D01*
X031373Y033423D01*
X031316Y033460D01*
X031300Y033463D01*
D02*
G37*
G36*
X031200D02*
X031184Y033460D01*
X031127Y033423D01*
X031090Y033366D01*
X031087Y033350D01*
X031200D01*
Y033463D01*
D02*
G37*
G36*
X023921Y033300D02*
X023435D01*
Y033159D01*
X023740D01*
X023813Y033173D01*
X023875Y033215D01*
X023917Y033277D01*
X023921Y033300D01*
D02*
G37*
G36*
Y034300D02*
X023435D01*
Y034159D01*
X023740D01*
X023813Y034173D01*
X023875Y034215D01*
X023917Y034277D01*
X023921Y034300D01*
D02*
G37*
G36*
X023740Y033541D02*
X023435D01*
Y033400D01*
X023921D01*
X023917Y033423D01*
X023875Y033485D01*
X023813Y033527D01*
X023740Y033541D01*
D02*
G37*
G36*
X023335D02*
X023031D01*
X022958Y033527D01*
X022896Y033485D01*
X022854Y033423D01*
X022850Y033400D01*
X023335D01*
Y033541D01*
D02*
G37*
G36*
X021250Y046200D02*
X020955D01*
Y045905D01*
X021250D01*
Y046200D01*
D02*
G37*
G36*
X033563Y045950D02*
X033450D01*
Y045837D01*
X033466Y045840D01*
X033523Y045877D01*
X033560Y045934D01*
X033563Y045950D01*
D02*
G37*
G36*
X033350D02*
X033237D01*
X033240Y045934D01*
X033277Y045877D01*
X033334Y045840D01*
X033350Y045837D01*
Y045950D01*
D02*
G37*
G36*
X021645Y046200D02*
X021350D01*
Y045905D01*
X021645D01*
Y046200D01*
D02*
G37*
G36*
X022685Y046100D02*
X022396D01*
Y045979D01*
X022523D01*
X022589Y045992D01*
X022644Y046029D01*
X022682Y046084D01*
X022685Y046100D01*
D02*
G37*
G36*
X022296D02*
X022007D01*
X022011Y046084D01*
X022048Y046029D01*
X022103Y045992D01*
X022169Y045979D01*
X022296D01*
Y046100D01*
D02*
G37*
G36*
X039300Y047040D02*
X038275D01*
Y045955D01*
X039300D01*
Y047040D01*
D02*
G37*
G36*
X022062Y044626D02*
X021845D01*
Y044350D01*
X022062D01*
Y044626D01*
D02*
G37*
G36*
X021745D02*
X021529D01*
Y044350D01*
X021745D01*
Y044626D01*
D02*
G37*
G36*
X037913Y044150D02*
X037800D01*
Y044037D01*
X037816Y044040D01*
X037873Y044077D01*
X037910Y044134D01*
X037913Y044150D01*
D02*
G37*
G36*
X028900Y047063D02*
Y046950D01*
X029013D01*
X029010Y046966D01*
X028973Y047023D01*
X028916Y047060D01*
X028900Y047063D01*
D02*
G37*
G36*
X031263Y045900D02*
X031150D01*
Y045787D01*
X031166Y045790D01*
X031223Y045827D01*
X031260Y045884D01*
X031263Y045900D01*
D02*
G37*
G36*
X022523Y045821D02*
X022169D01*
X022103Y045808D01*
X022048Y045771D01*
X022011Y045716D01*
X021997Y045650D01*
X022011Y045584D01*
X022048Y045529D01*
X022103Y045492D01*
X022169Y045479D01*
X022254D01*
Y045349D01*
X022246Y045342D01*
X021636D01*
X021602Y045424D01*
X021546Y045496D01*
X021474Y045552D01*
X021390Y045586D01*
X021300Y045598D01*
X021210Y045586D01*
X021126Y045552D01*
X021054Y045496D01*
X020998Y045424D01*
X020964Y045340D01*
X020952Y045250D01*
X020964Y045160D01*
X020998Y045076D01*
X021054Y045004D01*
X021126Y044948D01*
X021208Y044914D01*
Y044626D01*
X020938D01*
Y043974D01*
X021471D01*
Y044626D01*
X021392D01*
Y044914D01*
X021474Y044948D01*
X021546Y045004D01*
X021602Y045076D01*
X021636Y045158D01*
X021991D01*
X021997Y045150D01*
X022011Y045084D01*
X022048Y045029D01*
X022103Y044992D01*
X022169Y044979D01*
X022523D01*
X022589Y044992D01*
X022644Y045029D01*
X022682Y045084D01*
X022695Y045150D01*
X022682Y045216D01*
X022644Y045271D01*
X022589Y045308D01*
X022523Y045321D01*
X022438D01*
Y045479D01*
X022523D01*
X022589Y045492D01*
X022644Y045529D01*
X022682Y045584D01*
X022695Y045650D01*
X022682Y045716D01*
X022644Y045771D01*
X022589Y045808D01*
X022523Y045821D01*
D02*
G37*
G36*
X037528Y045642D02*
X037430D01*
Y045179D01*
X037528D01*
Y045642D01*
D02*
G37*
G36*
X026255Y046300D02*
X026038D01*
Y046024D01*
X026255D01*
Y046300D01*
D02*
G37*
G36*
X022296Y046600D02*
X022007D01*
X022011Y046584D01*
X022048Y046529D01*
X022103Y046492D01*
X022169Y046479D01*
X022296D01*
Y046600D01*
D02*
G37*
G36*
X026255Y046676D02*
X026038D01*
Y046400D01*
X026255D01*
Y046676D01*
D02*
G37*
G36*
X034084Y046800D02*
X033691D01*
Y046367D01*
X034084D01*
Y046800D01*
D02*
G37*
G36*
X022685Y046600D02*
X022396D01*
Y046479D01*
X022523D01*
X022589Y046492D01*
X022644Y046529D01*
X022682Y046584D01*
X022685Y046600D01*
D02*
G37*
G36*
X026750Y046900D02*
X026637D01*
X026640Y046884D01*
X026677Y046827D01*
X026734Y046790D01*
X026750Y046787D01*
Y046900D01*
D02*
G37*
G36*
X022523Y046821D02*
X022396D01*
Y046700D01*
X022685D01*
X022682Y046716D01*
X022644Y046771D01*
X022589Y046808D01*
X022523Y046821D01*
D02*
G37*
G36*
X022296D02*
X022169D01*
X022103Y046808D01*
X022048Y046771D01*
X022011Y046716D01*
X022007Y046700D01*
X022296D01*
Y046821D01*
D02*
G37*
G36*
Y046321D02*
X022169D01*
X022103Y046308D01*
X022048Y046271D01*
X022011Y046216D01*
X022007Y046200D01*
X022296D01*
Y046321D01*
D02*
G37*
G36*
X033591Y046800D02*
X033197D01*
Y046367D01*
X033308D01*
Y046143D01*
X033277Y046123D01*
X033240Y046066D01*
X033237Y046050D01*
X033563D01*
X033560Y046066D01*
X033523Y046123D01*
X033492Y046143D01*
Y046367D01*
X033591D01*
Y046800D01*
D02*
G37*
G36*
X026571Y046300D02*
X026355D01*
Y046024D01*
X026571D01*
Y046300D01*
D02*
G37*
G36*
X022523Y046321D02*
X022396D01*
Y046200D01*
X022685D01*
X022682Y046216D01*
X022644Y046271D01*
X022589Y046308D01*
X022523Y046321D01*
D02*
G37*
G36*
X032576Y048171D02*
X032300D01*
Y047905D01*
Y047638D01*
X032576D01*
Y047813D01*
X033407D01*
X033458Y047762D01*
Y047333D01*
X033197D01*
Y046900D01*
X034084D01*
Y047333D01*
X033642D01*
Y047800D01*
X033636Y047829D01*
X033635Y047835D01*
X033615Y047865D01*
X033510Y047970D01*
X033480Y047990D01*
X033445Y047996D01*
X032576D01*
Y048171D01*
D02*
G37*
G36*
X021645Y046595D02*
X021350D01*
Y046300D01*
X021645D01*
Y046595D01*
D02*
G37*
G36*
X021250D02*
X020955D01*
Y046300D01*
X021250D01*
Y046595D01*
D02*
G37*
G36*
X037445Y041495D02*
X037150D01*
Y041200D01*
X037445D01*
Y041495D01*
D02*
G37*
G36*
X037050D02*
X036755D01*
Y041200D01*
X037050D01*
Y041495D01*
D02*
G37*
G36*
X024992Y041250D02*
X024700D01*
Y040958D01*
X024740Y040964D01*
X024824Y040998D01*
X024896Y041054D01*
X024952Y041126D01*
X024986Y041210D01*
X024992Y041250D01*
D02*
G37*
G36*
X024700Y041642D02*
Y041350D01*
X024992D01*
X024986Y041390D01*
X024952Y041474D01*
X024896Y041546D01*
X024824Y041602D01*
X024740Y041636D01*
X024700Y041642D01*
D02*
G37*
G36*
X028360Y042688D02*
X028115D01*
Y042626D01*
X028458D01*
X028439Y042655D01*
X028403Y042679D01*
X028360Y042688D01*
D02*
G37*
G36*
X028015D02*
X027770D01*
X027727Y042679D01*
X027691Y042655D01*
X027672Y042626D01*
X028015D01*
Y042688D01*
D02*
G37*
G36*
X035225Y048713D02*
X034200D01*
Y047629D01*
X035225D01*
Y048713D01*
D02*
G37*
G36*
X039300D02*
X038275D01*
Y047629D01*
X039300D01*
Y048713D01*
D02*
G37*
G36*
X032200Y047855D02*
X031924D01*
Y047638D01*
X032200D01*
Y047855D01*
D02*
G37*
G36*
X024650Y040648D02*
X024560Y040636D01*
X024476Y040602D01*
X024404Y040546D01*
X024348Y040474D01*
X024314Y040390D01*
X024313Y040383D01*
X024285Y040365D01*
X024135Y040215D01*
X024115Y040185D01*
X024108Y040150D01*
Y038226D01*
X023729D01*
Y037574D01*
X023904D01*
Y037476D01*
X023729D01*
Y036824D01*
X024262D01*
Y037058D01*
X024545D01*
X024580Y037065D01*
X024610Y037085D01*
X024610Y037085D01*
X024610Y037085D01*
X024713Y037188D01*
X024958D01*
X024992Y037151D01*
X024990Y037131D01*
X024977Y037123D01*
X024940Y037066D01*
X024927Y037000D01*
X024940Y036934D01*
X024977Y036877D01*
X025034Y036840D01*
X025100Y036827D01*
X025166Y036840D01*
X025223Y036877D01*
X025260Y036934D01*
X025273Y037000D01*
X025260Y037066D01*
X025223Y037123D01*
X025192Y037143D01*
Y037205D01*
X025186Y037234D01*
X025185Y037240D01*
X025176Y037254D01*
Y037721D01*
X024661D01*
X024633Y037763D01*
X024640Y037779D01*
X025176D01*
Y038312D01*
X024942D01*
Y039100D01*
X024942Y039100D01*
Y039100D01*
X024952Y039126D01*
X024952Y039126D01*
D01*
X024986Y039210D01*
X024998Y039300D01*
X024986Y039390D01*
X024952Y039474D01*
X024896Y039546D01*
X024824Y039602D01*
X024740Y039636D01*
X024650Y039648D01*
X024560Y039636D01*
X024476Y039602D01*
X024404Y039546D01*
X024348Y039474D01*
X024341Y039456D01*
X024292Y039466D01*
Y040087D01*
X024328Y040122D01*
X024353Y040120D01*
X024404Y040054D01*
X024476Y039998D01*
X024560Y039964D01*
X024650Y039952D01*
X024740Y039964D01*
X024824Y039998D01*
X024896Y040054D01*
X024952Y040126D01*
X024986Y040210D01*
X024998Y040300D01*
X024986Y040390D01*
X024952Y040474D01*
X024896Y040546D01*
X024824Y040602D01*
X024740Y040636D01*
X024650Y040648D01*
D02*
G37*
G36*
X037050Y041100D02*
X036755D01*
Y040805D01*
X037050D01*
Y041100D01*
D02*
G37*
G36*
X024600Y041250D02*
X024308D01*
X024314Y041210D01*
X024348Y041126D01*
X024404Y041054D01*
X024476Y040998D01*
X024560Y040964D01*
X024600Y040958D01*
Y041250D01*
D02*
G37*
G36*
X022450Y041648D02*
X022360Y041636D01*
X022276Y041602D01*
X022204Y041546D01*
X022148Y041474D01*
X022114Y041390D01*
X022102Y041300D01*
X022114Y041210D01*
X022148Y041126D01*
X022204Y041054D01*
X022276Y040998D01*
X022360Y040964D01*
X022450Y040952D01*
X022540Y040964D01*
X022624Y040998D01*
X022696Y041054D01*
X022752Y041126D01*
X022786Y041210D01*
X022798Y041300D01*
X022786Y041390D01*
X022752Y041474D01*
X022696Y041546D01*
X022624Y041602D01*
X022540Y041636D01*
X022450Y041648D01*
D02*
G37*
G36*
X037445Y041100D02*
X037150D01*
Y040805D01*
X037445D01*
Y041100D01*
D02*
G37*
G36*
X021311Y043745D02*
X021016D01*
Y043450D01*
X021311D01*
Y043745D01*
D02*
G37*
G36*
X031776Y043678D02*
Y043335D01*
X031838D01*
Y043580D01*
X031829Y043623D01*
X031805Y043659D01*
X031776Y043678D01*
D02*
G37*
G36*
X035450Y044150D02*
X035337D01*
X035340Y044134D01*
X035377Y044077D01*
X035434Y044040D01*
X035450Y044037D01*
Y044150D01*
D02*
G37*
G36*
X021706Y043745D02*
X021411D01*
Y043450D01*
X021706D01*
Y043745D01*
D02*
G37*
G36*
X022062Y044250D02*
X021845D01*
Y043974D01*
X022062D01*
Y044250D01*
D02*
G37*
G36*
X021745D02*
X021529D01*
Y043974D01*
X021745D01*
Y044250D01*
D02*
G37*
G36*
X026750Y047113D02*
X026734Y047110D01*
X026677Y047073D01*
X026640Y047016D01*
X026637Y047000D01*
X026750D01*
Y047113D01*
D02*
G37*
G36*
X025592Y043150D02*
X025300D01*
Y042858D01*
X025340Y042864D01*
X025424Y042898D01*
X025496Y042954D01*
X025552Y043026D01*
X025586Y043110D01*
X025592Y043150D01*
D02*
G37*
G36*
X025200D02*
X024908D01*
X024914Y043110D01*
X024948Y043026D01*
X025004Y042954D01*
X025076Y042898D01*
X025160Y042864D01*
X025200Y042858D01*
Y043150D01*
D02*
G37*
G36*
X037100Y043448D02*
X037010Y043436D01*
X036926Y043402D01*
X036854Y043346D01*
X036798Y043274D01*
X036764Y043190D01*
X036752Y043100D01*
X036764Y043010D01*
X036798Y042926D01*
X036854Y042854D01*
X036926Y042798D01*
X037010Y042764D01*
X037100Y042752D01*
X037190Y042764D01*
X037274Y042798D01*
X037346Y042854D01*
X037402Y042926D01*
X037436Y043010D01*
X037448Y043100D01*
X037436Y043190D01*
X037402Y043274D01*
X037346Y043346D01*
X037274Y043402D01*
X037190Y043436D01*
X037100Y043448D01*
D02*
G37*
G36*
X031838Y043235D02*
X031776D01*
Y042892D01*
X031805Y042911D01*
X031829Y042947D01*
X031838Y042990D01*
Y043235D01*
D02*
G37*
G36*
X023021Y044726D02*
X022488D01*
Y044074D01*
X022663D01*
Y043745D01*
X022394D01*
Y043055D01*
X023084D01*
Y043745D01*
X022846D01*
Y044074D01*
X023021D01*
Y044726D01*
D02*
G37*
G36*
X021706Y043350D02*
X021411D01*
Y043055D01*
X021706D01*
Y043350D01*
D02*
G37*
G36*
X021311D02*
X021016D01*
Y043055D01*
X021311D01*
Y043350D01*
D02*
G37*
%LPD*%
G36*
X024348Y039126D02*
X024404Y039054D01*
X024476Y038998D01*
X024560Y038964D01*
X024650Y038952D01*
X024721Y038961D01*
X024758Y038928D01*
Y038312D01*
X024524D01*
Y037894D01*
X024478Y037875D01*
X024388Y037965D01*
X024358Y037985D01*
X024323Y037992D01*
X024320D01*
X024288Y038030D01*
X024292Y038050D01*
Y039134D01*
X024341Y039144D01*
X024348Y039126D01*
D02*
G37*
D10*
X031500Y046455D02*
D03*
Y047045D02*
D03*
X026850Y043405D02*
D03*
Y043995D02*
D03*
X027700Y045955D02*
D03*
Y046545D02*
D03*
X032250Y047905D02*
D03*
Y048495D02*
D03*
X028200Y036805D02*
D03*
Y037395D02*
D03*
X028900Y036805D02*
D03*
Y037395D02*
D03*
X024850Y037455D02*
D03*
Y038045D02*
D03*
D11*
X021795Y044300D02*
D03*
X021205D02*
D03*
X033645Y048800D02*
D03*
X033055D02*
D03*
X023345Y044400D02*
D03*
X022755D02*
D03*
X026305Y046350D02*
D03*
X026895D02*
D03*
X028945Y046300D02*
D03*
X028355D02*
D03*
X026305Y035250D02*
D03*
X026895D02*
D03*
X026945Y033150D02*
D03*
X026355D02*
D03*
X021855Y034850D02*
D03*
X022445D02*
D03*
X026945Y033850D02*
D03*
X026355D02*
D03*
X026945Y034550D02*
D03*
X026355D02*
D03*
X021855Y032850D02*
D03*
X022445D02*
D03*
Y033800D02*
D03*
X021855D02*
D03*
X032355Y034850D02*
D03*
X032945D02*
D03*
Y033800D02*
D03*
X032355D02*
D03*
X032405Y032850D02*
D03*
X032995D02*
D03*
X037445Y033050D02*
D03*
X036855D02*
D03*
X037445Y033800D02*
D03*
X036855D02*
D03*
X037445Y034500D02*
D03*
X036855D02*
D03*
X037445Y032300D02*
D03*
X036855D02*
D03*
X037445Y035200D02*
D03*
X036855D02*
D03*
X030145Y037450D02*
D03*
X029555D02*
D03*
X030145Y036750D02*
D03*
X029555D02*
D03*
X026945Y032450D02*
D03*
X026355D02*
D03*
X023995Y037900D02*
D03*
X023405D02*
D03*
X023995Y037150D02*
D03*
X023405D02*
D03*
D12*
X025010Y048250D02*
D03*
X022490D02*
D03*
D13*
X028774Y043285D02*
D03*
X028970D02*
D03*
X029167D02*
D03*
X029364D02*
D03*
X029561D02*
D03*
X029758D02*
D03*
X029955D02*
D03*
X030152D02*
D03*
X030348D02*
D03*
X030545D02*
D03*
X030742D02*
D03*
X030939D02*
D03*
X031136D02*
D03*
X031333D02*
D03*
X031530D02*
D03*
X031726D02*
D03*
Y038915D02*
D03*
X031530D02*
D03*
X031333D02*
D03*
X031136D02*
D03*
X030939D02*
D03*
X030742D02*
D03*
X030545D02*
D03*
X030348D02*
D03*
X030152D02*
D03*
X029955D02*
D03*
X029758D02*
D03*
X029561D02*
D03*
X029364D02*
D03*
X029167D02*
D03*
X028970D02*
D03*
X028774D02*
D03*
D14*
X032435Y042576D02*
D03*
Y042380D02*
D03*
Y042183D02*
D03*
Y041986D02*
D03*
Y041789D02*
D03*
Y041592D02*
D03*
Y041395D02*
D03*
Y041198D02*
D03*
Y041002D02*
D03*
Y040805D02*
D03*
Y040608D02*
D03*
Y040411D02*
D03*
Y040214D02*
D03*
Y040017D02*
D03*
Y039820D02*
D03*
Y039624D02*
D03*
X028065D02*
D03*
Y039820D02*
D03*
Y040017D02*
D03*
Y040214D02*
D03*
Y040411D02*
D03*
Y040608D02*
D03*
Y040805D02*
D03*
Y041002D02*
D03*
Y041198D02*
D03*
Y041395D02*
D03*
Y041592D02*
D03*
Y041789D02*
D03*
Y041986D02*
D03*
Y042183D02*
D03*
Y042380D02*
D03*
Y042576D02*
D03*
D15*
X022346Y046650D02*
D03*
Y046150D02*
D03*
Y045650D02*
D03*
Y045150D02*
D03*
X024354Y046650D02*
D03*
Y046150D02*
D03*
Y045650D02*
D03*
Y045150D02*
D03*
D16*
X027293Y048642D02*
D03*
Y048445D02*
D03*
Y048248D02*
D03*
Y048052D02*
D03*
Y047855D02*
D03*
Y047658D02*
D03*
X028907D02*
D03*
Y047855D02*
D03*
Y048052D02*
D03*
Y048248D02*
D03*
Y048445D02*
D03*
Y048642D02*
D03*
D17*
X027608Y047343D02*
D03*
X027805D02*
D03*
X028002D02*
D03*
X028198D02*
D03*
X028395D02*
D03*
X028592D02*
D03*
Y048957D02*
D03*
X028395D02*
D03*
X028198D02*
D03*
X028002D02*
D03*
X027805D02*
D03*
X027608D02*
D03*
D18*
X028100Y048150D02*
D03*
D19*
X037065Y045129D02*
D03*
X037380D02*
D03*
X036750D02*
D03*
X036435D02*
D03*
X036120Y045130D02*
D03*
D20*
X038787Y046497D02*
D03*
X034713D02*
D03*
X038787Y048171D02*
D03*
X034713D02*
D03*
D21*
X032459Y046850D02*
D03*
X033641D02*
D03*
D22*
X029857Y047257D02*
D03*
X030054D02*
D03*
X030250D02*
D03*
X030447D02*
D03*
Y046253D02*
D03*
X030250D02*
D03*
X030054D02*
D03*
X029857D02*
D03*
D23*
X030654Y047050D02*
D03*
Y046853D02*
D03*
Y046656D02*
D03*
Y046459D02*
D03*
X029650D02*
D03*
Y046656D02*
D03*
Y046853D02*
D03*
Y047050D02*
D03*
D24*
Y047863D02*
D03*
Y048059D02*
D03*
Y048256D02*
D03*
Y048453D02*
D03*
Y048650D02*
D03*
X030595Y047863D02*
D03*
Y048059D02*
D03*
Y048256D02*
D03*
Y048453D02*
D03*
Y048650D02*
D03*
D25*
X030122Y048729D02*
D03*
Y047784D02*
D03*
D26*
X021361Y043400D02*
D03*
X022739D02*
D03*
X028600Y035800D02*
D03*
X038100Y043100D02*
D03*
X033650Y045150D02*
D03*
D27*
X025315Y031350D02*
D03*
Y031850D02*
D03*
Y032350D02*
D03*
Y032850D02*
D03*
Y033350D02*
D03*
Y033850D02*
D03*
Y034350D02*
D03*
Y034850D02*
D03*
X023385Y031350D02*
D03*
Y031850D02*
D03*
Y032350D02*
D03*
Y032850D02*
D03*
Y033350D02*
D03*
Y033850D02*
D03*
Y034350D02*
D03*
Y034850D02*
D03*
X035965Y031350D02*
D03*
Y031850D02*
D03*
Y032350D02*
D03*
Y032850D02*
D03*
Y033350D02*
D03*
Y033850D02*
D03*
Y034350D02*
D03*
Y034850D02*
D03*
X034035Y031350D02*
D03*
Y031850D02*
D03*
Y032350D02*
D03*
Y032850D02*
D03*
Y033350D02*
D03*
Y033850D02*
D03*
Y034350D02*
D03*
Y034850D02*
D03*
D28*
X028970Y038520D02*
Y038915D01*
X028250Y037800D02*
X028970Y038520D01*
X027500Y037800D02*
X028250D01*
X027350Y037650D02*
X027500Y037800D01*
X027350Y037035D02*
Y037650D01*
Y037035D02*
X027887Y036498D01*
X029213D01*
X029465Y036750D01*
X029555D01*
X027995Y036805D02*
X028200D01*
X027650Y037150D02*
X027995Y036805D01*
X022500Y034350D02*
X023385D01*
X025700Y035350D02*
X025800Y035250D01*
X026305D01*
X029800Y038300D02*
X029955Y038455D01*
Y038915D01*
X030050Y038000D02*
X030152Y038102D01*
Y038915D01*
X028100Y038050D02*
X028774Y038724D01*
Y038915D01*
X029780Y049230D02*
X031515D01*
X029550Y049000D02*
X029780Y049230D01*
X029430Y048880D02*
X029550Y049000D01*
X029430Y048500D02*
Y048880D01*
X028900Y049100D02*
X028907Y049093D01*
Y048642D02*
Y049093D01*
X037700Y044250D02*
X037750Y044200D01*
X037700Y044250D02*
Y044809D01*
X035500Y044200D02*
X037750D01*
X037200Y047550D02*
X037600Y047950D01*
X036800Y047550D02*
X037200D01*
X036700Y047650D02*
X036800Y047550D01*
X036300Y047650D02*
X036700D01*
X036180Y047530D02*
X036300Y047650D01*
X036180Y045189D02*
Y047530D01*
X036120Y045130D02*
X036180Y045189D01*
X028900Y037395D02*
Y037800D01*
X029364Y038264D01*
X030348Y038152D02*
X030450Y038050D01*
X030850Y037900D02*
Y038081D01*
X030545Y038385D02*
X030850Y038081D01*
X030545Y038385D02*
Y038915D01*
X030892Y038458D02*
X031100Y038250D01*
X030742Y038458D02*
X030892D01*
X031350Y037250D02*
Y038898D01*
X031300Y037200D02*
X031350Y037250D01*
X031333Y038915D02*
X031350Y038898D01*
X031530Y037270D02*
Y038915D01*
X030742Y038458D02*
Y038915D01*
X021550Y035450D02*
X021600Y035400D01*
X022350D01*
X022445Y035305D01*
Y034850D02*
Y035305D01*
X021210Y034940D02*
Y035750D01*
X021300Y034850D02*
X021855D01*
X021210Y034940D02*
X021300Y034850D01*
X021210Y035750D02*
X021310Y035850D01*
X024350Y033350D02*
X025315D01*
X024350Y033850D02*
X025315D01*
X024500Y032850D02*
X025315D01*
X024300Y032650D02*
X024500Y032850D01*
X024150Y034050D02*
Y035000D01*
X024200Y031500D02*
Y032200D01*
X024050Y032350D02*
X024200Y032200D01*
X023385Y032350D02*
X024050D01*
X027350Y032050D02*
X027650Y032350D01*
X026400Y032050D02*
X027350D01*
X026200Y031850D02*
X026400Y032050D01*
X027650Y032350D02*
X028450D01*
X026800Y031600D02*
X027350D01*
X026800D02*
X026900Y031700D01*
X026000Y031600D02*
X026800D01*
X026050Y031850D02*
X026200D01*
X025550Y032350D02*
X026050Y031850D01*
X025315Y032350D02*
X025550D01*
X027350Y031600D02*
X027500Y031450D01*
X025750Y031850D02*
X026000Y031600D01*
X025315Y031850D02*
X025750D01*
X025315Y031350D02*
X026600D01*
X021200Y031110D02*
X034600D01*
X035450Y031350D02*
X035965D01*
X035200Y031600D02*
X035450Y031350D01*
X034940Y030940D02*
Y033240D01*
X035200Y032150D02*
X035500Y031850D01*
X035965D01*
X034810Y031040D02*
Y033510D01*
X035692Y032622D02*
X035965Y032350D01*
X035228Y032622D02*
X035692D01*
X035200Y032650D02*
X035228Y032622D01*
X033692Y040142D02*
X033800Y040250D01*
X033492Y040142D02*
X033692D01*
X033290Y040344D02*
X033492Y040142D01*
X032900Y040344D02*
X033290D01*
X032833Y040411D02*
X032900Y040344D01*
X032435Y040411D02*
X032833D01*
X034150Y039790D02*
X034455D01*
X034700Y040034D01*
Y040450D01*
X034486Y040664D02*
X034700Y040450D01*
X034007Y040664D02*
X034486D01*
X033866Y040805D02*
X034007Y040664D01*
X032435Y040805D02*
X033866D01*
X033248Y041198D02*
X033350Y041300D01*
X032435Y041198D02*
X033248D01*
X035400Y040550D02*
X035500D01*
X035000Y040950D02*
X035400Y040550D01*
X035000Y040950D02*
Y041550D01*
X034600Y041950D02*
X035000Y041550D01*
X033550Y041950D02*
X034600D01*
X032995Y041395D02*
X033550Y041950D01*
X032435Y041395D02*
X032995D01*
X035400Y041550D02*
X035500D01*
X034659Y042291D02*
X035400Y041550D01*
X033609Y042291D02*
X034659D01*
X032910Y041592D02*
X033609Y042291D01*
X032435Y041592D02*
X032910D01*
X033650Y042600D02*
X034150D01*
X033630Y042580D02*
X033650Y042600D01*
X033630Y042496D02*
Y042580D01*
X032923Y041789D02*
X033630Y042496D01*
X032435Y041789D02*
X032923D01*
X032435Y042183D02*
X032917D01*
X033330Y042596D01*
X038100Y042050D02*
X038150Y042100D01*
X035150Y042050D02*
X038100D01*
X035000Y042200D02*
X035150Y042050D01*
X035000Y042200D02*
Y042750D01*
X034850Y042900D02*
X035000Y042750D01*
X033600Y042900D02*
X034850D01*
X033500Y042800D02*
X033600Y042900D01*
X033500Y042550D02*
Y042800D01*
X032936Y041986D02*
X033500Y042550D01*
X032435Y041986D02*
X032936D01*
X035017Y043033D02*
X035500Y042550D01*
X033517Y043033D02*
X035017D01*
X033330Y042846D02*
X033517Y043033D01*
X033330Y042596D02*
Y042846D01*
X033850Y043550D02*
X035500D01*
X033200Y042900D02*
X033850Y043550D01*
X033200Y042650D02*
Y042900D01*
X032930Y042380D02*
X033200Y042650D01*
X032435Y042380D02*
X032930D01*
X031700Y040150D02*
Y042350D01*
X031400Y039850D02*
X031700Y040150D01*
X031726Y038915D02*
Y039324D01*
X034650Y037450D02*
X036400Y035700D01*
X036855Y035245D01*
X036000Y035700D02*
X036400D01*
X036855Y035200D02*
Y035245D01*
X033185Y038915D02*
X034650Y037450D01*
X031726Y038915D02*
X033185D01*
X030630Y039700D02*
X030939Y039391D01*
X030200Y039700D02*
X030630D01*
X031400Y039650D02*
X031726Y039324D01*
X031400Y039650D02*
Y039850D01*
X031200Y040550D02*
X031300Y040450D01*
X030950Y040550D02*
X031200D01*
X030900Y040500D02*
X030950Y040550D01*
X030900Y040000D02*
Y040500D01*
Y040000D02*
X031136Y039764D01*
Y038915D02*
Y039764D01*
X025300Y044200D02*
X025550D01*
X025750Y044400D01*
Y046450D01*
X025550Y046650D02*
X025750Y046450D01*
X024354Y046650D02*
X025550D01*
X024354Y046150D02*
X025100D01*
X030706Y048453D02*
X031053Y048800D01*
X031945D01*
X032250Y048495D01*
X031515Y049230D02*
X031945Y048800D01*
X027945Y046545D02*
X028198Y046798D01*
Y047343D01*
X028945Y045855D02*
X029250Y045550D01*
X028945Y045855D02*
Y046300D01*
X027052Y045648D02*
X028398D01*
X028400Y045650D01*
X028355Y045695D02*
X028400Y045650D01*
X028355Y045695D02*
Y046300D01*
X028850Y046395D02*
X028945Y046300D01*
X028850Y046395D02*
Y046900D01*
X028750Y047000D02*
X028850Y046900D01*
X028450Y047000D02*
X028750D01*
X028395Y047055D02*
X028450Y047000D01*
X028395Y047055D02*
Y047343D01*
X029450Y046259D02*
Y046800D01*
X029400Y046850D02*
X029450Y046800D01*
X029403Y046853D02*
X029650D01*
X029400Y046850D02*
X029403Y046853D01*
X028907Y047343D02*
X029400Y046850D01*
X028907Y047343D02*
Y047658D01*
X029576Y047576D02*
X029901D01*
X029350Y047350D02*
X029576Y047576D01*
X029901D02*
X030223D01*
X027616Y045900D02*
X027671Y045955D01*
X027300Y045900D02*
X027616D01*
X027250Y045950D02*
X027300Y045900D01*
X026895Y045805D02*
X027052Y045648D01*
X026895Y045805D02*
Y046350D01*
X027050Y046946D02*
X027250Y046746D01*
Y045950D02*
Y046746D01*
X027050Y046946D02*
X027896D01*
X026804D02*
X027050D01*
X026800Y046950D02*
X026804Y046946D01*
X027896D02*
X028002Y047052D01*
X026224Y047350D02*
X027000D01*
X026074Y047200D02*
X026224Y047350D01*
X027000D02*
X027274Y047076D01*
X027726D01*
X027805Y047155D01*
Y047343D01*
X029450Y046259D02*
X029650Y046459D01*
X029450Y045900D02*
Y046259D01*
X034932Y044482D02*
X036982D01*
X034500Y044050D02*
X034932Y044482D01*
X036982D02*
X037065Y044565D01*
Y045129D01*
X037050Y047300D02*
X037450D01*
X036750Y047000D02*
X037050Y047300D01*
X036750Y045129D02*
Y047000D01*
X036050Y046800D02*
Y047750D01*
X036850Y047950D02*
X036950Y047850D01*
X036250Y047950D02*
X036850D01*
X036050Y047750D02*
X036250Y047950D01*
X036050Y045850D02*
Y046800D01*
X036450Y045144D02*
Y047350D01*
X035550Y047450D02*
X035600D01*
X035400Y047300D02*
X035550Y047450D01*
X035400Y045998D02*
Y047300D01*
X033562Y044160D02*
X035400Y045998D01*
X035814Y045614D02*
X036050Y045850D01*
X035200Y045614D02*
X035814D01*
X033616Y044030D02*
X035200Y045614D01*
X033950Y045800D02*
X034035Y045715D01*
Y044817D02*
Y045715D01*
X031350Y046455D02*
X031655Y046150D01*
X031900D02*
X032100Y045950D01*
X031655Y046150D02*
X031900D01*
X030659Y047045D02*
X031500D01*
X031050Y046000D02*
X031100Y045950D01*
X031050Y046000D02*
Y046700D01*
X030900Y046850D02*
X031050Y046700D01*
X030657Y046850D02*
X030900D01*
X030654Y046853D02*
X030657Y046850D01*
X032300Y046741D02*
X032459Y046850D01*
X032400Y046759D02*
X032450Y046709D01*
Y045650D02*
Y046709D01*
X032350Y045550D02*
X032450Y045650D01*
X030950Y045550D02*
X032350D01*
X030850Y045650D02*
X030950Y045550D01*
X032359Y046800D02*
X032400Y046759D01*
X030651Y046850D02*
X030654Y046853D01*
X030640Y046446D02*
X030650Y046436D01*
Y045550D02*
Y046436D01*
X030850Y045650D02*
Y046538D01*
X027800Y048962D02*
Y049250D01*
X027690Y049360D02*
X027800Y049250D01*
X026000Y049360D02*
X027690D01*
X025790Y049150D02*
X026000Y049360D01*
X025750Y049150D02*
X025790D01*
X026500Y048750D02*
X026707Y048957D01*
X027608D01*
X027800Y048962D02*
X027805Y048957D01*
X028500Y049360D02*
X032495D01*
X028395Y049255D02*
X028500Y049360D01*
X028395Y048957D02*
Y049255D01*
X029477Y048453D02*
X029650D01*
X029430Y048500D02*
X029477Y048453D01*
X029356Y048256D02*
X029650D01*
X029350Y048250D02*
X029356Y048256D01*
X029300Y048300D02*
X029350Y048250D01*
X029300Y048300D02*
Y048550D01*
X029208Y048642D02*
X029300Y048550D01*
X028907Y048642D02*
X029208D01*
X031100Y048550D02*
X031350D01*
X030806Y048256D02*
X031100Y048550D01*
X030595Y048256D02*
X030806D01*
X031350Y048550D02*
X031500Y048400D01*
Y047750D02*
Y048400D01*
X031450Y047700D02*
X031500Y047750D01*
X031050Y047700D02*
X031450D01*
X030785Y047435D02*
X031050Y047700D01*
X029957Y047435D02*
X030785D01*
X031000Y048050D02*
X031100D01*
X030991Y048059D02*
X031000Y048050D01*
X032495Y049360D02*
X033055Y048800D01*
X031700Y047600D02*
Y048300D01*
X031550Y047450D02*
X031700Y047600D01*
Y048300D02*
X031853Y048453D01*
X032008D01*
X030447Y047257D02*
X030857D01*
X031050Y047450D02*
X031550D01*
X030857Y047257D02*
X031050Y047450D01*
X030595Y048059D02*
X030991D01*
X033400Y046659D02*
X033550Y046809D01*
Y047800D01*
X033445Y047905D02*
X033550Y047800D01*
X032050Y047905D02*
X033445D01*
X032008Y048453D02*
X032055Y048500D01*
X027400Y042550D02*
Y042700D01*
Y042550D02*
X027570Y042380D01*
X028065D01*
X027350Y042200D02*
X027367Y042183D01*
X028065D01*
X026500Y042700D02*
X026960Y042240D01*
Y042004D02*
Y042240D01*
Y042004D02*
X027154Y041810D01*
X024800Y042700D02*
X026500D01*
X027154Y041810D02*
X027542D01*
X027718Y041986D01*
X028065D01*
X026750Y042150D02*
X026780Y042120D01*
Y042000D02*
Y042120D01*
Y042000D02*
X027100Y041680D01*
X027596D01*
X027705Y041789D01*
X028065D01*
X025900Y041900D02*
X025970Y041830D01*
X026754D01*
X027034Y041550D01*
X027650D01*
X027692Y041592D01*
X028065D01*
X027250Y040300D02*
X027336Y040214D01*
X028065D01*
X027300Y040650D02*
X027539Y040411D01*
X027050Y040650D02*
X027300D01*
X026850Y041000D02*
X027300D01*
X027400Y040900D01*
Y040750D02*
Y040900D01*
Y040750D02*
X027542Y040608D01*
X026650Y041350D02*
X026750Y041250D01*
X027400D01*
X027550Y041100D01*
Y040850D02*
Y041100D01*
Y040850D02*
X027595Y040805D01*
X027539Y040411D02*
X028065D01*
X027542Y040608D02*
X028065D01*
X027595Y040805D02*
X028065D01*
X026895Y032500D02*
X026945Y032450D01*
X021855Y032850D02*
Y033800D01*
Y034850D01*
X022445Y032850D02*
X023385D01*
X022445Y033800D02*
X023335D01*
X023385Y033850D01*
X022445Y034850D02*
X023385D01*
X025315Y034350D02*
X026155D01*
X026355Y034550D01*
X025315Y033850D02*
X026355D01*
X025315Y033350D02*
X026155D01*
X026355Y033150D01*
X025315Y032850D02*
X025955D01*
X026355Y032450D01*
X035865Y031950D02*
X035965Y031850D01*
X033150Y031550D02*
X033400Y031800D01*
Y032300D01*
X033450Y032350D01*
X034035D01*
X032945Y034850D02*
X034035D01*
X032945Y033800D02*
X033985D01*
X034035Y033850D01*
X032995Y032850D02*
X034035D01*
X036315Y035200D02*
X036855D01*
X035965Y034850D02*
X036315Y035200D01*
X036115Y034500D02*
X036855D01*
X035965Y034350D02*
X036115Y034500D01*
X036015Y033800D02*
X036855D01*
X035965Y033850D02*
X036015Y033800D01*
X035965Y033350D02*
X036555D01*
X036855Y033050D01*
X035965Y032850D02*
X036305D01*
X036855Y032300D01*
X037445D02*
Y033050D01*
Y033800D01*
Y034500D01*
X036855Y035119D02*
Y035200D01*
Y035119D02*
X037445Y034529D01*
Y034500D02*
Y034529D01*
X030790Y037250D02*
X030940Y037400D01*
X031530Y037270D02*
X031600Y037200D01*
X031960D01*
X032010Y037250D01*
X030840Y037200D02*
X031300D01*
X030790Y037250D02*
X030840Y037200D01*
X038150Y042100D02*
Y043050D01*
X038100Y043100D02*
X038150Y043050D01*
X032435Y041395D02*
X032450Y041410D01*
X032435Y041002D02*
X034141D01*
X034150Y041010D01*
X032435Y040608D02*
X032443Y040600D01*
X033450D01*
X033500Y040550D01*
X032435Y040214D02*
X033236D01*
X034007Y039444D01*
X034293D01*
X035014Y040165D01*
X036570D01*
X036940Y040535D01*
X037715D01*
X038100Y040150D01*
X032435Y040017D02*
X033249D01*
X033953Y039314D01*
X034379D01*
X035100Y040035D01*
X036665D01*
X037100Y039600D01*
Y039150D02*
Y039600D01*
X032435Y039820D02*
X033262D01*
X033918Y039165D01*
X036540D01*
X036940Y038765D01*
X037260D01*
X037645Y039150D01*
X038100D01*
X032435Y039624D02*
X033275D01*
X033864Y039035D01*
X035015D01*
X035500Y038550D01*
X029555Y038909D02*
X029561Y038915D01*
X029555Y036750D02*
Y037450D01*
X029364Y038264D02*
Y038915D01*
X028200Y037395D02*
X028900D01*
X028970Y038915D02*
X029167D01*
X029364Y039364D02*
X029450Y039450D01*
X029700D01*
X029758Y039392D01*
Y038915D02*
Y039392D01*
X030348Y038152D02*
Y038915D01*
X028061Y041990D02*
X028065Y041986D01*
X024500Y041750D02*
X024600Y041850D01*
X023250Y041750D02*
X024500D01*
X023150Y041650D02*
X023250Y041750D01*
X023150Y040400D02*
Y041650D01*
Y040400D02*
X023250Y040300D01*
X023650D01*
X024600Y041850D02*
Y042500D01*
X024800Y042700D01*
X025900Y041900D02*
X026000Y042000D01*
X027005Y041395D02*
X028065D01*
X026700Y041700D02*
X027005Y041395D01*
X026350Y041700D02*
X026700D01*
X026285Y041635D02*
X026350Y041700D01*
X026285Y041515D02*
Y041635D01*
X025900Y041129D02*
X026285Y041515D01*
X025900Y040900D02*
Y041129D01*
X028065Y041198D02*
X029048D01*
X029050Y041200D01*
X029200D02*
X029364Y041036D01*
Y039200D02*
Y039364D01*
Y041036D01*
X023650Y039200D02*
Y039300D01*
X023400Y038950D02*
X023650Y039200D01*
X023400Y038950D02*
X023405Y038945D01*
Y037900D02*
Y038945D01*
X023200Y040300D02*
X023250D01*
X023050Y040150D02*
X023200Y040300D01*
X023050Y037505D02*
Y040150D01*
Y037505D02*
X023405Y037150D01*
X023995D02*
Y037900D01*
Y037150D02*
X024545D01*
X024850Y037455D01*
X024323Y037900D02*
X024768Y037455D01*
X024850D01*
Y038045D02*
Y039100D01*
X024650Y039300D02*
X024850Y039100D01*
X024350Y040300D02*
X024650D01*
X024200Y040150D02*
X024350Y040300D01*
X024200Y038050D02*
Y040150D01*
X024050Y037900D02*
X024200Y038050D01*
X024050Y037900D02*
X024323D01*
X025900Y039900D02*
X027300D01*
X027450Y040050D01*
X028032D01*
X028065Y040017D01*
X025900Y038900D02*
X027300D01*
X027400Y039000D01*
Y039750D01*
X027470Y039820D01*
X028065D01*
X025900Y037900D02*
X027350D01*
X027530Y038080D01*
Y039580D01*
X027574Y039624D01*
X028065D01*
X024400Y034350D02*
X025315D01*
X024850Y037455D02*
X025100Y037205D01*
Y037000D02*
Y037205D01*
X025200Y035250D02*
X025315Y035135D01*
Y034850D02*
Y035135D01*
X020790Y040300D02*
X021450D01*
X020640Y040150D02*
X020790Y040300D01*
X020640Y030750D02*
Y040150D01*
Y030750D02*
X020750Y030640D01*
X036740D02*
X036900Y030800D01*
Y032255D01*
X036855Y032300D02*
X036900Y032255D01*
X020750Y030640D02*
X036740D01*
X021100Y037300D02*
X021450D01*
X020800Y037000D02*
X021100Y037300D01*
X020800Y031000D02*
Y037000D01*
Y031000D02*
X020950Y030850D01*
X034940Y033240D02*
X035100Y033400D01*
X035915D01*
X035965Y033350D01*
X021450Y037845D02*
Y038300D01*
Y037845D02*
X021835Y037460D01*
Y037140D02*
Y037460D01*
X021610Y036915D02*
X021835Y037140D01*
X021065Y036915D02*
X021610D01*
X020950Y036800D02*
X021065Y036915D01*
X020950Y031130D02*
Y036800D01*
Y031130D02*
X021100Y030980D01*
X034810Y033510D02*
X035150Y033850D01*
X035965D01*
X020950Y030850D02*
X034850D01*
X034940Y030940D01*
X021100Y030980D02*
X034550D01*
X034750D02*
X034810Y031040D01*
X034550Y030980D02*
X034750D01*
X021450Y041300D02*
X022065Y040685D01*
X022610D01*
X022920Y040375D01*
Y037015D02*
Y040375D01*
Y037015D02*
X023585Y036350D01*
X033850D01*
X034000Y036200D01*
Y034885D02*
Y036200D01*
Y034885D02*
X034035Y034850D01*
X021450Y038845D02*
Y039300D01*
Y038845D02*
X021965Y038330D01*
Y037087D02*
Y038330D01*
X021663Y036785D02*
X021965Y037087D01*
X021215Y036785D02*
X021663D01*
X021080Y036650D02*
X021215Y036785D01*
X021080Y031230D02*
Y036650D01*
Y031230D02*
X021200Y031110D01*
X034600D02*
X034680Y031190D01*
Y033930D01*
X035100Y034350D01*
X035965D01*
X025250Y044200D02*
X025300D01*
X025600Y043900D01*
X026755D01*
X026850Y043995D01*
X026650Y045150D02*
X026700Y045100D01*
Y044450D02*
Y045100D01*
X028970Y043285D02*
Y043730D01*
X028900Y043800D02*
X028970Y043730D01*
X027045Y043800D02*
X028900D01*
X026850Y043995D02*
X027045Y043800D01*
X029120Y043333D02*
X029167Y043285D01*
X029120Y043333D02*
Y043764D01*
X028954Y043930D02*
X029120Y043764D01*
X027370Y043930D02*
X028954D01*
X027250Y044050D02*
X027370Y043930D01*
X027250Y044050D02*
Y044250D01*
X027050Y044450D02*
X027250Y044250D01*
X026700Y044450D02*
X027050D01*
X027650Y045150D02*
X028740Y044060D01*
X029008D01*
X029250Y043818D01*
Y043800D02*
Y043818D01*
Y043800D02*
X029364Y043686D01*
Y043285D02*
Y043686D01*
X028650Y044650D02*
Y045150D01*
Y044650D02*
X029561Y043739D01*
Y043285D02*
Y043739D01*
X029758Y043285D02*
Y045042D01*
X029650Y045150D02*
X029758Y045042D01*
X029955Y043285D02*
Y044805D01*
X030300Y045150D01*
X030650D01*
X030152Y043285D02*
Y044502D01*
X030350Y044700D01*
X031500D01*
X031650Y044850D02*
Y045150D01*
X031500Y044700D02*
X031650Y044850D01*
X030200Y041200D02*
X030348Y041348D01*
X029050Y041200D02*
X029200D01*
X030200D01*
X030348Y041348D02*
Y042900D01*
Y043285D01*
X030939Y042789D02*
Y043285D01*
X030900Y042750D02*
X030939Y042789D01*
X030498Y042750D02*
X030900D01*
X030348Y042900D02*
X030498Y042750D01*
X030545Y043285D02*
Y044445D01*
X030650Y044550D01*
X032400D01*
X032650Y044800D01*
Y045150D01*
X030742Y043285D02*
X030750Y043293D01*
Y044270D01*
X030900Y044420D01*
X033320D01*
X033650Y044750D01*
Y045150D01*
X031136Y043285D02*
Y044186D01*
X031240Y044290D01*
X033508D01*
X034035Y044817D01*
X031333Y043285D02*
Y043983D01*
X031510Y044160D01*
X033562D01*
X031530Y043285D02*
Y043910D01*
X031650Y044030D01*
X033616D01*
X036435Y045129D02*
X036450Y045144D01*
X021300Y045250D02*
X022246D01*
X022346Y045150D01*
X021300Y044395D02*
Y045250D01*
X021205Y044300D02*
X021300Y044395D01*
X024354Y045150D02*
Y045650D01*
Y046150D01*
X023345Y044400D02*
X024200D01*
X024350Y044550D01*
Y045146D02*
X024354Y045150D01*
X022755Y043416D02*
Y044400D01*
X022739Y043400D02*
X022755Y043416D01*
X022346Y045150D02*
Y045650D01*
X025250Y044200D02*
X025300Y044250D01*
X029045Y046450D02*
Y046479D01*
X027700Y046545D02*
X027945D01*
X028002Y047052D02*
Y047343D01*
X027671Y045955D02*
X027700D01*
X027608Y048957D02*
Y048992D01*
X029445Y047658D02*
X029650Y047863D01*
X028907Y047658D02*
X029445D01*
X029857Y047257D02*
Y047335D01*
X029957Y047435D01*
X030654Y047050D02*
X030659Y047045D01*
X030654Y046656D02*
X030732D01*
X032315Y046800D02*
X032359D01*
X030732Y046656D02*
X030850Y046538D01*
X032300Y046741D02*
X032359Y046800D01*
X029650Y047050D02*
X029708Y047108D01*
Y047383D01*
X029901Y047576D01*
X030223D02*
X030510Y047863D01*
X030595D01*
X033400Y046000D02*
Y046659D01*
X029250Y045550D02*
X030650D01*
X030640Y046446D02*
X030654Y046459D01*
X030447Y045997D02*
Y046253D01*
X030300Y045850D02*
X030447Y045997D01*
X030595Y048453D02*
X030706D01*
X037380Y045129D02*
X037700Y044809D01*
X036120Y045020D02*
Y045130D01*
X028065Y041002D02*
X028648D01*
X028900Y040750D01*
X021250Y047800D02*
X022040D01*
X022490Y048250D01*
X022445Y032345D02*
Y032850D01*
X021900Y031800D02*
X022445Y032345D01*
X032995Y032821D02*
Y032850D01*
X032524Y032350D02*
X032995Y032821D01*
X031750Y032350D02*
X032524D01*
X029387Y047863D02*
X029650D01*
X029300Y047950D02*
X029387Y047863D01*
X022490Y048250D02*
X023750D01*
X024750Y047250D01*
Y047200D02*
Y047250D01*
Y047200D02*
X026074D01*
X026895Y046379D01*
X024350Y044550D02*
Y045146D01*
Y043750D02*
X024500Y043600D01*
X026655D01*
X026850Y043405D01*
X024350Y043750D02*
Y044550D01*
X028654Y043405D02*
X028774Y043285D01*
X032435Y042576D02*
Y042785D01*
X032950Y043300D01*
X026850Y043405D02*
X028654D01*
X031926Y042576D02*
X032435D01*
X031700Y042350D02*
X031926Y042576D01*
X028970Y038915D02*
Y039620D01*
X029000Y039650D01*
X029555Y037450D02*
Y038909D01*
X034650Y037450D02*
X038450D01*
X038850Y037850D01*
X038100Y041150D02*
X038850Y040400D01*
Y037850D02*
Y040400D01*
X032355Y032900D02*
X032405Y032850D01*
X032355Y032900D02*
Y033800D01*
Y034850D01*
Y035455D01*
X032700Y035800D01*
X026945Y034550D02*
X032055D01*
X032355Y034850D01*
X025200Y035250D02*
X025800Y035850D01*
X026700D01*
X026895Y035250D02*
Y035655D01*
Y032500D02*
Y035250D01*
X026700Y035850D02*
X026895Y035655D01*
X021310Y035850D02*
X025800D01*
X021855Y034850D02*
Y034879D01*
X030939Y038915D02*
Y039391D01*
X027300Y036650D02*
X027350Y036700D01*
X024850Y036650D02*
X027300D01*
X023385Y033850D02*
X023950D01*
X024150Y034050D01*
Y035000D02*
X024700Y035550D01*
X034900Y034400D02*
Y036150D01*
X034350Y033850D02*
X034900Y034400D01*
X034035Y033850D02*
X034350D01*
X026895Y046350D02*
Y046379D01*
X030145Y036750D02*
X031900D01*
X032050Y036600D01*
X033300Y033350D02*
X034035D01*
X031000Y031500D02*
X031160Y031340D01*
X034025D01*
X034035Y031350D01*
X031000Y031500D02*
Y033050D01*
X031250Y033300D01*
X034035Y031350D02*
Y031850D01*
D29*
X029600Y035800D02*
D03*
X030600D02*
D03*
X031600D02*
D03*
X025900Y040900D02*
D03*
Y039900D02*
D03*
Y038900D02*
D03*
Y037900D02*
D03*
X025250Y043200D02*
D03*
X021450Y037300D02*
D03*
X022450Y038300D02*
D03*
X021450D02*
D03*
X022450Y039300D02*
D03*
X021450D02*
D03*
X022450Y040300D02*
D03*
X021450D02*
D03*
X022450Y041300D02*
D03*
X021450D02*
D03*
X021250Y047800D02*
D03*
X021300Y045250D02*
D03*
X038100Y041150D02*
D03*
X037100Y040150D02*
D03*
X038100D02*
D03*
X037100Y039150D02*
D03*
X038100D02*
D03*
X037100Y038150D02*
D03*
X038100D02*
D03*
X037100Y043100D02*
D03*
X024650Y039300D02*
D03*
X023650D02*
D03*
X024650Y040300D02*
D03*
X023650D02*
D03*
X024650Y041300D02*
D03*
X035500Y043550D02*
D03*
Y042550D02*
D03*
Y041550D02*
D03*
Y040550D02*
D03*
Y039550D02*
D03*
X026650Y045150D02*
D03*
X027650D02*
D03*
X028650D02*
D03*
X029650D02*
D03*
X030650D02*
D03*
X031650D02*
D03*
X032650D02*
D03*
D30*
X025900Y041900D02*
D03*
X025250Y044200D02*
D03*
X022450Y037300D02*
D03*
X021250Y048800D02*
D03*
X021300Y046250D02*
D03*
X037100Y041150D02*
D03*
X023650Y041300D02*
D03*
X035500Y038550D02*
D03*
D31*
X030790Y037250D02*
D03*
X032010D02*
D03*
X034150Y039790D02*
D03*
Y041010D02*
D03*
D32*
X027650Y037150D02*
D03*
X025700Y035350D02*
D03*
X022500Y034350D02*
D03*
X029800Y038300D02*
D03*
X030050Y038000D02*
D03*
X028100Y038050D02*
D03*
X029550Y049000D02*
D03*
X029000Y049150D02*
D03*
X037750Y044200D02*
D03*
X037600Y047950D02*
D03*
X030450Y038050D02*
D03*
X030850Y037900D02*
D03*
X031100Y038250D02*
D03*
X021550Y035450D02*
D03*
X024400Y034350D02*
D03*
X024350Y033350D02*
D03*
Y033850D02*
D03*
X024300Y032650D02*
D03*
X024200Y031500D02*
D03*
X028450Y032350D02*
D03*
X026900Y031700D02*
D03*
X026200Y031850D02*
D03*
X027500Y031450D02*
D03*
X026600Y031350D02*
D03*
X035200Y031600D02*
D03*
Y032150D02*
D03*
Y032650D02*
D03*
X033800Y040250D02*
D03*
X033350Y041300D02*
D03*
X034150Y042600D02*
D03*
X030200Y039700D02*
D03*
X031400Y039850D02*
D03*
X031300Y040450D02*
D03*
X025100Y046150D02*
D03*
X026800Y046950D02*
D03*
X029450Y045900D02*
D03*
X037450Y047300D02*
D03*
X036950Y047850D02*
D03*
X036450Y047350D02*
D03*
X035600Y047450D02*
D03*
X033950Y045800D02*
D03*
X032100Y045950D02*
D03*
X031100D02*
D03*
X026500Y048750D02*
D03*
X025750Y049150D02*
D03*
X031350Y048550D02*
D03*
X031100Y048050D02*
D03*
X029350Y047350D02*
D03*
X027400Y042700D02*
D03*
X027350Y042200D02*
D03*
X026750Y042150D02*
D03*
X027250Y040300D02*
D03*
X027050Y040650D02*
D03*
X026850Y041000D02*
D03*
X026650Y041350D02*
D03*
X033150Y031550D02*
D03*
X033500Y040550D02*
D03*
X025100Y037000D02*
D03*
X025200Y035250D02*
D03*
X033400Y046000D02*
D03*
X030300Y045850D02*
D03*
X035500Y044200D02*
D03*
X028900Y040750D02*
D03*
X034500Y044050D02*
D03*
X021900Y031800D02*
D03*
X031750Y032350D02*
D03*
X028400Y045650D02*
D03*
X029300Y047950D02*
D03*
X024750Y047200D02*
D03*
X032950Y043300D02*
D03*
X027650Y043400D02*
D03*
X029000Y039650D02*
D03*
X032700Y035800D02*
D03*
X036000Y035700D02*
D03*
X027350Y036700D02*
D03*
X024850Y036650D02*
D03*
X024700Y035550D02*
D03*
X034900Y036150D02*
D03*
X028850Y046900D02*
D03*
X032050Y036600D02*
D03*
X033300Y033350D02*
D03*
X031250Y033300D02*
D03*
D33*
X027864Y048386D02*
D03*
X028336D02*
D03*
X027864Y047914D02*
D03*
X028336D02*
D03*
M02*
