%FSAX24Y24*%
%MOIN*%
G70*
G01*
G75*
G04 Layer_Color=128*
%ADD10R,0.0512X0.0591*%
%ADD11R,0.0591X0.0512*%
%ADD12R,0.0472X0.0551*%
%ADD13R,0.0551X0.0472*%
%ADD14O,0.0116X0.0354*%
%ADD15O,0.0354X0.0116*%
%ADD16R,0.0315X0.0114*%
%ADD17R,0.0126X0.0354*%
%ADD18R,0.0177X0.0114*%
%ADD19R,0.0114X0.0177*%
%ADD20O,0.0984X0.0276*%
%ADD21R,0.0591X0.0591*%
%ADD22R,0.0787X0.0866*%
%ADD23R,0.0197X0.0925*%
%ADD24R,0.0925X0.0984*%
%ADD25O,0.0591X0.0236*%
%ADD26O,0.0709X0.0118*%
%ADD27O,0.0118X0.0709*%
%ADD28R,0.1024X0.0945*%
%ADD29C,0.0080*%
%ADD30C,0.0591*%
%ADD31R,0.0591X0.0591*%
%ADD32C,0.0512*%
%ADD33C,0.0280*%
%ADD34R,0.0551X0.0433*%
%ADD35C,0.0098*%
%ADD36C,0.0100*%
%ADD37C,0.0236*%
%ADD38C,0.0079*%
%ADD39R,0.0672X0.0751*%
%ADD40R,0.0751X0.0672*%
%ADD41R,0.0632X0.0711*%
%ADD42R,0.0711X0.0632*%
%ADD43O,0.0276X0.0514*%
%ADD44O,0.0514X0.0276*%
%ADD45R,0.0475X0.0274*%
%ADD46R,0.0286X0.0514*%
%ADD47R,0.0337X0.0274*%
%ADD48R,0.0274X0.0337*%
%ADD49O,0.1144X0.0436*%
%ADD50R,0.0751X0.0751*%
%ADD51R,0.0947X0.1026*%
%ADD52R,0.0357X0.1085*%
%ADD53R,0.1085X0.1144*%
%ADD54O,0.0751X0.0396*%
%ADD55O,0.0869X0.0278*%
%ADD56O,0.0278X0.0869*%
%ADD57R,0.1184X0.1105*%
%ADD58C,0.0751*%
%ADD59R,0.0751X0.0751*%
%ADD60C,0.0672*%
%ADD61C,0.0440*%
%ADD62R,0.0711X0.0593*%
D10*
X034665Y044600D02*
D03*
X035335D02*
D03*
X034665Y045450D02*
D03*
X035335D02*
D03*
X036415Y044250D02*
D03*
X037085D02*
D03*
X033485Y037600D02*
D03*
X032815D02*
D03*
X033485Y036850D02*
D03*
X032815D02*
D03*
X034535Y041750D02*
D03*
X033865D02*
D03*
X034435Y039000D02*
D03*
X033765D02*
D03*
D12*
X023496Y042200D02*
D03*
X024204D02*
D03*
X035796Y047400D02*
D03*
X036504D02*
D03*
X036996Y046500D02*
D03*
X037704D02*
D03*
D34*
X038000Y045345D02*
D03*
Y044755D02*
D03*
M02*
