%FSAX24Y24*%
%MOIN*%
G70*
G01*
G75*
G04 Layer_Physical_Order=2*
G04 Layer_Color=16711680*
%ADD10R,0.0512X0.0591*%
%ADD11R,0.0591X0.0512*%
%ADD12R,0.0472X0.0551*%
%ADD13R,0.0551X0.0472*%
%ADD14O,0.0116X0.0354*%
%ADD15O,0.0354X0.0116*%
%ADD16R,0.0315X0.0114*%
%ADD17R,0.0126X0.0354*%
%ADD18R,0.0177X0.0114*%
%ADD19R,0.0114X0.0177*%
%ADD20O,0.0984X0.0276*%
%ADD21R,0.0591X0.0591*%
%ADD22R,0.0787X0.0866*%
%ADD23R,0.0197X0.0925*%
%ADD24R,0.0925X0.0984*%
%ADD25O,0.0591X0.0236*%
%ADD26R,0.1024X0.0945*%
%ADD27O,0.0709X0.0118*%
%ADD28O,0.0118X0.0709*%
%ADD29C,0.0200*%
%ADD30C,0.0080*%
%ADD31R,0.0591X0.0591*%
%ADD32C,0.0591*%
%ADD33C,0.0512*%
%ADD34C,0.0280*%
%ADD35R,0.0551X0.0433*%
%ADD36C,0.0100*%
G36*
X027622Y039808D02*
Y039808D01*
D01*
Y039808D01*
X027622Y039808D01*
D01*
D01*
X027622D01*
X027622Y039808D01*
Y039808D01*
X027622Y039808D01*
Y039808D01*
X027693Y039753D01*
X027776Y039719D01*
X027864Y039707D01*
X029028D01*
X029058Y039633D01*
X028948Y039522D01*
X028893Y039451D01*
X028859Y039369D01*
X028847Y039280D01*
Y037658D01*
X028773Y037627D01*
X026715Y039685D01*
X026632Y039749D01*
X026534Y039790D01*
X026488Y039796D01*
X026498Y039900D01*
X026487Y040017D01*
X026453Y040129D01*
X026397Y040232D01*
X026323Y040323D01*
X026278Y040360D01*
Y040440D01*
X026323Y040477D01*
X026397Y040568D01*
X026453Y040671D01*
X026487Y040783D01*
X026492Y040835D01*
X026567Y040862D01*
X027622Y039808D01*
D02*
G37*
G36*
X033535Y036155D02*
X034041D01*
Y036407D01*
X034283D01*
X034316Y036328D01*
X034335Y036303D01*
X033425Y035394D01*
X033354Y035429D01*
X033354Y035430D01*
X033339Y035545D01*
X033294Y035652D01*
X033224Y035744D01*
X033132Y035814D01*
X033025Y035859D01*
X032910Y035874D01*
X032795Y035859D01*
X032688Y035814D01*
X032596Y035744D01*
X032526Y035652D01*
X032481Y035545D01*
X032475Y035495D01*
X032405Y035455D01*
X032363Y035472D01*
Y036155D01*
X033435D01*
Y036750D01*
X033535D01*
Y036155D01*
D02*
G37*
G36*
X028005Y035205D02*
X029195D01*
Y035269D01*
X029268Y035303D01*
X029268Y035303D01*
X029371Y035247D01*
X029483Y035213D01*
X029600Y035202D01*
X029677Y035209D01*
X029725Y035145D01*
X029708Y035103D01*
X027202D01*
X026182Y036123D01*
X026212Y036197D01*
X028005D01*
Y035205D01*
D02*
G37*
G36*
X024906Y038646D02*
X024998Y038576D01*
X025105Y038531D01*
X025173Y038522D01*
X025430Y038265D01*
X025403Y038232D01*
X025347Y038129D01*
X025313Y038017D01*
X025302Y037900D01*
X025313Y037783D01*
X025347Y037671D01*
X025395Y037582D01*
X025331Y037534D01*
X024573Y038292D01*
Y038650D01*
X024632Y038704D01*
X024650Y038702D01*
X024767Y038713D01*
X024838Y038735D01*
X024906Y038646D01*
D02*
G37*
G36*
X031249Y039417D02*
Y038507D01*
X031185Y038499D01*
X031078Y038454D01*
X031010Y038402D01*
X030930Y038412D01*
X030914Y038434D01*
X030822Y038504D01*
X030715Y038549D01*
X030600Y038564D01*
X030583Y038562D01*
X030523Y038614D01*
Y038918D01*
X030847Y039242D01*
X030915Y039251D01*
X031022Y039296D01*
X031114Y039366D01*
X031173Y039443D01*
X031249Y039417D01*
D02*
G37*
G36*
X028303Y036957D02*
X028272Y036883D01*
X025982D01*
X025534Y037331D01*
X025582Y037395D01*
X025671Y037347D01*
X025783Y037313D01*
X025900Y037302D01*
X026017Y037313D01*
X026129Y037347D01*
X026232Y037403D01*
X026323Y037477D01*
X026397Y037568D01*
X026453Y037671D01*
X026487Y037783D01*
X026498Y037900D01*
X026496Y037918D01*
X026550Y037977D01*
X026654D01*
X026708Y037936D01*
X026815Y037891D01*
X026930Y037876D01*
X027045Y037891D01*
X027152Y037936D01*
X027244Y038006D01*
X027253Y038007D01*
X028303Y036957D01*
D02*
G37*
G36*
X034826Y035559D02*
X034856Y035488D01*
X034926Y035396D01*
X035018Y035326D01*
X035125Y035281D01*
X035240Y035266D01*
X035355Y035281D01*
X035462Y035326D01*
X035516Y035367D01*
X035998D01*
X036028Y035293D01*
X035158Y034423D01*
X033700D01*
X033669Y034497D01*
X034748Y035575D01*
X034826Y035559D01*
D02*
G37*
G36*
X021988Y032938D02*
X022059Y032883D01*
X022141Y032849D01*
X022230Y032837D01*
X024278D01*
X024708Y032407D01*
X024678Y032333D01*
X023216D01*
X023140Y032343D01*
X021892D01*
X021793Y032442D01*
Y033028D01*
X021867Y033058D01*
X021988Y032938D01*
D02*
G37*
G36*
X025867Y034781D02*
Y032322D01*
X025793Y032292D01*
X024662Y033422D01*
X024591Y033477D01*
X024541Y033498D01*
X024511Y033572D01*
X024529Y033615D01*
X024538Y033683D01*
X025627Y034772D01*
X025695Y034781D01*
X025801Y034825D01*
X025867Y034781D01*
D02*
G37*
G36*
X020971Y031131D02*
X021053Y031097D01*
X021142Y031085D01*
X024325D01*
X024378Y031025D01*
X024376Y031010D01*
X024389Y030913D01*
X024336Y030853D01*
X020853D01*
Y031131D01*
X020925Y031166D01*
X020971Y031131D01*
D02*
G37*
G36*
X023757Y036448D02*
Y034976D01*
X023716Y034922D01*
X023671Y034815D01*
X023656Y034700D01*
X023671Y034585D01*
X023716Y034478D01*
X023786Y034386D01*
X023878Y034316D01*
X023985Y034271D01*
X024047Y034263D01*
X024058Y034231D01*
X024016Y034163D01*
X023985Y034159D01*
X023878Y034114D01*
X023786Y034044D01*
X023716Y033952D01*
X023671Y033845D01*
X023663Y033780D01*
X024100D01*
Y033680D01*
X023663D01*
X023671Y033615D01*
X023682Y033589D01*
X023638Y033523D01*
X022372D01*
X022213Y033682D01*
Y036705D01*
X023045D01*
Y037055D01*
X023119Y037086D01*
X023757Y036448D01*
D02*
G37*
G36*
X035657Y033330D02*
Y032492D01*
X035608Y032443D01*
X035300D01*
X035211Y032431D01*
X035129Y032397D01*
X035058Y032342D01*
X034597Y031882D01*
X027751D01*
X027721Y031956D01*
X028612Y032847D01*
X034834D01*
X034888Y032806D01*
X034995Y032761D01*
X035110Y032746D01*
X035225Y032761D01*
X035332Y032806D01*
X035424Y032876D01*
X035494Y032968D01*
X035539Y033075D01*
X035554Y033190D01*
X035540Y033298D01*
X035556Y033312D01*
X035626Y033341D01*
X035657Y033330D01*
D02*
G37*
G36*
X028085Y033663D02*
X026867Y032445D01*
X026793Y032476D01*
Y033737D01*
X028054D01*
X028085Y033663D01*
D02*
G37*
G36*
X032684Y039931D02*
Y039598D01*
X032615Y039589D01*
X032508Y039544D01*
X032416Y039474D01*
X032346Y039382D01*
X032301Y039275D01*
X032293Y039210D01*
X032213Y039215D01*
Y039741D01*
X032254Y039795D01*
X032299Y039902D01*
X032314Y040017D01*
X032309Y040057D01*
X032361Y040117D01*
X032498D01*
X032684Y039931D01*
D02*
G37*
G36*
X032671Y047131D02*
X032706Y047086D01*
X032798Y047016D01*
X032905Y046971D01*
X033020Y046956D01*
X033135Y046971D01*
X033242Y047016D01*
X033296Y047057D01*
X035259D01*
Y046843D01*
X033820D01*
X033731Y046831D01*
X033649Y046797D01*
X033578Y046742D01*
X032713Y045878D01*
X032645Y045869D01*
X032538Y045824D01*
X032446Y045754D01*
X032430Y045733D01*
X032350D01*
X032327Y045764D01*
X032235Y045834D01*
X032128Y045879D01*
X032013Y045894D01*
X031898Y045879D01*
X031848Y045858D01*
X031784Y045906D01*
X031794Y045980D01*
X031779Y046095D01*
X031734Y046202D01*
X031701Y046246D01*
X032592Y047137D01*
X032671Y047131D01*
D02*
G37*
G36*
X029534Y046941D02*
Y046447D01*
X029544Y046368D01*
X029574Y046295D01*
X029622Y046233D01*
X029685Y046185D01*
X029758Y046154D01*
X029836Y046144D01*
X029964D01*
X030017Y046084D01*
X030003Y045980D01*
X030019Y045865D01*
X030063Y045758D01*
X030133Y045666D01*
X030225Y045596D01*
X030332Y045551D01*
X030447Y045536D01*
X030562Y045551D01*
X030669Y045596D01*
X030723Y045637D01*
X031074D01*
X031128Y045596D01*
X031235Y045551D01*
X031350Y045536D01*
X031465Y045551D01*
X031516Y045572D01*
X031579Y045524D01*
X031569Y045450D01*
X031573Y045423D01*
X031520Y045363D01*
X030400D01*
X030311Y045351D01*
X030229Y045317D01*
X030158Y045262D01*
X029965Y045070D01*
X029932Y045097D01*
X029829Y045153D01*
X029717Y045187D01*
X029600Y045198D01*
X029483Y045187D01*
X029371Y045153D01*
X029339Y045136D01*
X029212Y045262D01*
X029141Y045317D01*
X029059Y045351D01*
X028970Y045363D01*
X027020D01*
X026931Y045351D01*
X026849Y045317D01*
X026778Y045262D01*
X026703Y045188D01*
X026600Y045198D01*
X026483Y045187D01*
X026371Y045153D01*
X026268Y045097D01*
X026177Y045023D01*
X026103Y044932D01*
X026047Y044829D01*
X026013Y044717D01*
X026002Y044600D01*
X026013Y044483D01*
X026047Y044371D01*
X026103Y044268D01*
X026119Y044247D01*
X026085Y044175D01*
X025845D01*
Y044795D01*
X024655D01*
Y044102D01*
X024588Y044057D01*
X024585Y044059D01*
X024470Y044074D01*
X024355Y044059D01*
X024248Y044014D01*
X024156Y043944D01*
X024086Y043852D01*
X024041Y043745D01*
X024026Y043630D01*
X024041Y043515D01*
X024086Y043408D01*
X024156Y043316D01*
X024248Y043246D01*
X024355Y043201D01*
X024470Y043186D01*
X024585Y043201D01*
X024587Y043202D01*
X024656Y043161D01*
X024663Y043083D01*
X024697Y042971D01*
X024753Y042868D01*
X024769Y042848D01*
X024735Y042776D01*
X024563D01*
X024554Y042797D01*
X024526Y042834D01*
X024490Y042881D01*
X024490Y042881D01*
X024285Y043085D01*
X024202Y043149D01*
X024104Y043190D01*
X024000Y043203D01*
X024000Y043203D01*
X022768D01*
X022738Y043277D01*
X025591Y046131D01*
X028640D01*
X028729Y046143D01*
X028811Y046177D01*
X028882Y046232D01*
X029272Y046622D01*
X029327Y046693D01*
X029361Y046775D01*
X029363Y046786D01*
X029363Y046792D01*
X029414Y046858D01*
X029455Y046957D01*
X029534Y046941D01*
D02*
G37*
G36*
X025228Y047336D02*
X025226Y047320D01*
X025241Y047205D01*
X025286Y047098D01*
X025327Y047044D01*
Y046837D01*
X025207Y046716D01*
X021384Y042893D01*
X021316Y042885D01*
X021297Y042876D01*
X021230Y042921D01*
Y044599D01*
X021289Y044653D01*
X021300Y044652D01*
X021417Y044663D01*
X021529Y044697D01*
X021632Y044753D01*
X021723Y044827D01*
X021797Y044918D01*
X021853Y045021D01*
X021887Y045133D01*
X021898Y045250D01*
X021887Y045367D01*
X021853Y045479D01*
X021797Y045582D01*
X021797Y045582D01*
X021831Y045655D01*
X021895D01*
Y046200D01*
X021300D01*
Y046250D01*
X021250D01*
Y046845D01*
X021230D01*
Y047184D01*
X021250Y047202D01*
X021367Y047213D01*
X021479Y047247D01*
X021582Y047303D01*
X021673Y047377D01*
X021689Y047397D01*
X025176D01*
X025228Y047336D01*
D02*
G37*
G36*
X039147Y030853D02*
X037193D01*
X037178Y030931D01*
X037212Y030946D01*
X037304Y031016D01*
X037374Y031108D01*
X037419Y031215D01*
X037434Y031330D01*
X037419Y031445D01*
X037374Y031552D01*
X037304Y031644D01*
X037212Y031714D01*
X037204Y031734D01*
X037229Y031795D01*
X037244Y031910D01*
X037229Y032025D01*
X037184Y032132D01*
X037114Y032224D01*
X037022Y032294D01*
X036915Y032339D01*
X036800Y032354D01*
X036685Y032339D01*
X036578Y032294D01*
X036486Y032224D01*
X036416Y032132D01*
X036371Y032025D01*
X036362Y031957D01*
X035774Y031369D01*
X035698Y031394D01*
X035689Y031465D01*
X035644Y031572D01*
X035574Y031664D01*
X035551Y031681D01*
X035577Y031757D01*
X035750D01*
X035839Y031769D01*
X035921Y031803D01*
X035992Y031858D01*
X036242Y032108D01*
X036297Y032179D01*
X036331Y032261D01*
X036343Y032350D01*
Y033494D01*
X036415Y033530D01*
X036498Y033466D01*
X036605Y033421D01*
X036720Y033406D01*
X036835Y033421D01*
X036942Y033466D01*
X036996Y033507D01*
X037050D01*
X037139Y033519D01*
X037221Y033553D01*
X037292Y033608D01*
X037292Y033608D01*
X037292Y033608D01*
X037642Y033958D01*
X037697Y034029D01*
X037731Y034111D01*
X037743Y034200D01*
X037743Y034200D01*
X037743Y034200D01*
Y034200D01*
Y034950D01*
X037731Y035039D01*
X037697Y035121D01*
X037642Y035192D01*
X037542Y035293D01*
X037572Y035367D01*
X037590D01*
X037679Y035379D01*
X037761Y035413D01*
X037832Y035468D01*
X038922Y036558D01*
X038977Y036629D01*
X039011Y036711D01*
X039023Y036800D01*
Y047360D01*
X039011Y047449D01*
X038977Y047531D01*
X038922Y047602D01*
X038342Y048182D01*
X038271Y048237D01*
X038189Y048271D01*
X038100Y048283D01*
X032910D01*
X032821Y048271D01*
X032739Y048237D01*
X032668Y048182D01*
X032527Y048042D01*
X032453Y048073D01*
Y048550D01*
X032440Y048654D01*
X032399Y048752D01*
X032366Y048795D01*
X032401Y048867D01*
X034804D01*
X034858Y048826D01*
X034965Y048781D01*
X035080Y048766D01*
X035195Y048781D01*
X035302Y048826D01*
X035394Y048896D01*
X035464Y048988D01*
X035509Y049095D01*
X035515Y049147D01*
X039147D01*
Y030853D01*
D02*
G37*
G36*
X027016Y047545D02*
X026983Y047502D01*
X026949Y047480D01*
X026855Y047519D01*
X026740Y047534D01*
X026625Y047519D01*
X026605Y047510D01*
X026538Y047555D01*
Y047624D01*
X026563Y047685D01*
X026578Y047800D01*
X026563Y047915D01*
X026519Y048022D01*
X026448Y048114D01*
X026357Y048184D01*
X026249Y048229D01*
X026135Y048244D01*
X026020Y048229D01*
X025959Y048203D01*
X021845D01*
Y048205D01*
X021845D01*
Y048397D01*
X027016D01*
Y047545D01*
D02*
G37*
G36*
X038337Y047218D02*
Y045862D01*
X038241D01*
Y045924D01*
X038241D01*
Y047076D01*
X037041D01*
Y047597D01*
X037958D01*
X038337Y047218D01*
D02*
G37*
G36*
X036768Y042603D02*
X036871Y042547D01*
X036983Y042513D01*
X037100Y042502D01*
X037198Y042511D01*
X037257Y042458D01*
Y041792D01*
X037210Y041745D01*
X037150D01*
Y041150D01*
X037050D01*
Y041745D01*
X036505D01*
Y041493D01*
X036150D01*
X036098Y041550D01*
X036087Y041667D01*
X036053Y041779D01*
X035997Y041882D01*
X035923Y041973D01*
X035878Y042010D01*
Y042090D01*
X035923Y042127D01*
X035997Y042218D01*
X036053Y042321D01*
X036087Y042433D01*
X036098Y042550D01*
X036097Y042561D01*
X036151Y042620D01*
X036543D01*
X036632Y042632D01*
X036698Y042660D01*
X036768Y042603D01*
D02*
G37*
G36*
X031281Y041385D02*
X031326Y041278D01*
X031396Y041186D01*
X031488Y041116D01*
X031595Y041071D01*
X031710Y041056D01*
X031825Y041071D01*
X031932Y041116D01*
X031986Y041157D01*
X032392D01*
X032652Y040897D01*
X032640Y040803D01*
X030642D01*
X030612Y040877D01*
X031150Y041415D01*
X031277D01*
X031281Y041385D01*
D02*
G37*
G36*
X030446Y043738D02*
X030489Y043706D01*
X030596Y043661D01*
X030711Y043646D01*
X030825Y043661D01*
X030932Y043706D01*
X030986Y043747D01*
X031118D01*
X031148Y043673D01*
X030633Y043158D01*
X030565Y043149D01*
X030458Y043104D01*
X030366Y043034D01*
X030296Y042942D01*
X030251Y042835D01*
X030236Y042720D01*
X030251Y042605D01*
X030296Y042498D01*
X030325Y042461D01*
X028713Y040849D01*
X028645Y040840D01*
X028538Y040795D01*
X028446Y040725D01*
X028376Y040633D01*
X028331Y040526D01*
X028316Y040411D01*
X028300Y040393D01*
X028006D01*
X027766Y040634D01*
X027768Y040673D01*
X027787Y040717D01*
X028113D01*
X028202Y040729D01*
X028285Y040763D01*
X028356Y040818D01*
X029972Y042434D01*
X030027Y042505D01*
X030051Y042564D01*
X030061Y042588D01*
X030073Y042677D01*
Y043557D01*
X030105Y043561D01*
X030212Y043606D01*
X030304Y043676D01*
X030374Y043768D01*
X030446Y043738D01*
D02*
G37*
G36*
X034657Y042763D02*
Y042706D01*
X034616Y042652D01*
X034571Y042545D01*
X034567Y042513D01*
X031451D01*
X031421Y042587D01*
X031612Y042778D01*
X034644D01*
X034657Y042763D01*
D02*
G37*
G36*
X038337Y043695D02*
X037804D01*
X037641Y043855D01*
Y044238D01*
X038337D01*
Y043695D01*
D02*
G37*
G36*
X028765Y043043D02*
Y042962D01*
X028698Y042934D01*
X028606Y042864D01*
X028536Y042772D01*
X028491Y042665D01*
X028476Y042550D01*
X028478Y042539D01*
X028418Y042514D01*
X028326Y042444D01*
X028256Y042352D01*
X028211Y042245D01*
X028202Y042177D01*
X027848Y041823D01*
X026879D01*
X026869Y041904D01*
X026824Y042011D01*
X026783Y042065D01*
Y043200D01*
X026771Y043289D01*
X026737Y043371D01*
X026702Y043417D01*
X026737Y043489D01*
X028706D01*
X028765Y043043D01*
D02*
G37*
%LPC*%
G36*
X021895Y046845D02*
X021350D01*
Y046300D01*
X021895D01*
Y046845D01*
D02*
G37*
%LPD*%
D10*
X034665Y044600D02*
D03*
X035335D02*
D03*
X036415Y044250D02*
D03*
X037085D02*
D03*
X033485Y037600D02*
D03*
X032815D02*
D03*
X033485Y036750D02*
D03*
X032815D02*
D03*
X034535Y041750D02*
D03*
X033865D02*
D03*
X034435Y039000D02*
D03*
X033765D02*
D03*
X034665Y045450D02*
D03*
X035335D02*
D03*
D12*
X023496Y042200D02*
D03*
X024204D02*
D03*
X035796Y047400D02*
D03*
X036504D02*
D03*
X036996Y046500D02*
D03*
X037704D02*
D03*
D21*
X038100Y043100D02*
D03*
X028600Y035800D02*
D03*
X033600Y044600D02*
D03*
D29*
X025330Y042200D02*
X026180Y043050D01*
X024204Y042200D02*
X025330D01*
X020827Y047377D02*
X021250Y047800D01*
X029050Y048020D02*
X029480Y048450D01*
X027710Y034400D02*
X032296D01*
X024650Y040300D02*
X025550Y039400D01*
X026430D01*
X028920Y036910D01*
X033002Y034400D02*
X035132Y036530D01*
X032296Y034400D02*
X033002D01*
X029130Y048800D02*
X029480Y048450D01*
X021250Y047800D02*
X026135D01*
Y047164D02*
Y047800D01*
Y047164D02*
X026554Y046744D01*
X028484D01*
X020827Y042323D02*
Y047377D01*
Y042323D02*
X021050Y042100D01*
X021088Y042138D01*
X021688D01*
X021740Y042190D01*
X024000Y042800D02*
X024204Y042596D01*
Y042200D02*
Y042596D01*
X031704Y048896D02*
X032050Y048550D01*
Y047700D02*
Y048550D01*
X031260Y046910D02*
X032050Y047700D01*
X030980Y046910D02*
X031260D01*
X030025Y048896D02*
X031704D01*
X029929Y048800D02*
X030025Y048896D01*
X021250Y048800D02*
X029130D01*
X029929D01*
X021790Y042190D02*
X022400Y042800D01*
X024000D01*
D30*
X035335Y044600D02*
Y045450D01*
X023650Y041300D02*
Y041670D01*
X023496Y041824D02*
X023650Y041670D01*
X023496Y041824D02*
Y042200D01*
X034665Y044600D02*
Y045450D01*
X035910Y041150D02*
X037100D01*
X035890Y041130D02*
X035910Y041150D01*
X034720Y041130D02*
X035890D01*
X034535Y041315D02*
X034720Y041130D01*
X036995Y043830D02*
X037085Y043920D01*
X036504Y046944D02*
Y047400D01*
X036435Y046875D02*
X036504Y046944D01*
X028706Y043832D02*
X028803Y043929D01*
X025618Y043832D02*
X028706D01*
X025250Y044200D02*
X025618Y043832D01*
X029620Y047821D02*
X030790D01*
X028920Y042550D02*
X029108Y042738D01*
Y044882D01*
X028970Y045020D02*
X029108Y044882D01*
X027020Y045020D02*
X028970D01*
X026600Y044600D02*
X027020Y045020D01*
X033008Y044008D02*
X033600Y044600D01*
X031968Y044008D02*
X033008D01*
X030680Y042720D02*
X031968Y044008D01*
X036680Y043100D02*
X037100D01*
X036543Y042963D02*
X036680Y043100D01*
X035200Y042963D02*
X036543D01*
X035000Y042763D02*
X035200Y042963D01*
X035000Y042430D02*
Y042763D01*
X033000Y040480D02*
X033260Y040220D01*
X034500D01*
X034650Y040370D01*
X035090D01*
X035500Y039960D01*
Y039550D02*
Y039960D01*
X030790Y037250D02*
X031322Y036718D01*
X029990Y043990D02*
X030600Y044600D01*
X024470Y043630D02*
X026010D01*
X026440Y043200D01*
Y041789D02*
Y043200D01*
X034500Y036750D02*
X034700Y036550D01*
X033485Y036750D02*
X034500D01*
X033020Y047400D02*
X035796D01*
X034665Y045450D02*
Y045760D01*
X037460Y036750D02*
X037670Y036960D01*
X032013Y045450D02*
X032281Y045182D01*
X033018D01*
X033286Y045450D01*
X034665D01*
X032760Y045440D02*
X033820Y046500D01*
X036996D01*
X030180Y039060D02*
X030800Y039680D01*
X030180Y035480D02*
Y039060D01*
Y035480D02*
X030400Y035260D01*
X031060D01*
X031600Y035800D01*
X036301Y043121D02*
X036750Y043570D01*
X031470Y043121D02*
X036301D01*
X028760Y040411D02*
X031470Y043121D01*
X036386Y030726D02*
X036990Y031330D01*
X025104Y030726D02*
X036386D01*
X024820Y031010D02*
X025104Y030726D01*
X032240Y044600D02*
X032600D01*
X031730Y044090D02*
X032240Y044600D01*
X030711Y044090D02*
X031730D01*
X036012Y039062D02*
X037100Y040150D01*
X035152Y039062D02*
X036012D01*
X034970Y038880D02*
X035152Y039062D01*
X034970Y038360D02*
Y038880D01*
X035012Y040970D02*
X035877D01*
X034520Y040478D02*
X035012Y040970D01*
X033556Y040478D02*
X034520D01*
X032534Y041500D02*
X033556Y040478D01*
X031710Y041500D02*
X032534D01*
X033765Y039405D02*
X034150Y039790D01*
X033765Y039000D02*
Y039405D01*
X031300Y037760D02*
Y038070D01*
X030790Y037250D02*
X031300Y037760D01*
X027500Y041060D02*
X028113D01*
X029730Y042677D01*
Y044146D01*
X030180Y044596D01*
Y044800D01*
X030400Y045020D01*
X033970D01*
X034190Y044800D01*
Y044400D02*
Y044800D01*
X027990Y041480D02*
X028640Y042130D01*
X025270Y041480D02*
X027990D01*
X025030Y041720D02*
X025270Y041480D01*
X024480Y041720D02*
X025030D01*
X024230Y041470D02*
X024480Y041720D01*
X024230Y040740D02*
Y041470D01*
X024000Y040510D02*
X024230Y040740D01*
X023860Y040510D02*
X024000D01*
X023650Y040300D02*
X023860Y040510D01*
X025220Y038960D02*
X025860Y038320D01*
X026930D01*
X029600Y035800D02*
X030440Y034960D01*
X031680D01*
X032020Y035300D01*
Y036200D01*
X031680Y036540D02*
X032020Y036200D01*
X030670Y036540D02*
X031680D01*
X030410Y036800D02*
X030670Y036540D01*
X030410Y036800D02*
Y037930D01*
X030600Y038120D01*
X024100Y033730D02*
X025580Y035210D01*
X026350Y031640D02*
X026470Y031760D01*
X025960Y031640D02*
X026350D01*
X024420Y033180D02*
X025960Y031640D01*
X021450Y037970D02*
X021870Y037550D01*
X021450Y037970D02*
Y038300D01*
X035822Y030932D02*
X036800Y031910D01*
X025474Y030932D02*
X035822D01*
X024978Y031428D02*
X025474Y030932D01*
X021142Y031428D02*
X024978D01*
X020691Y031879D02*
X021142Y031428D01*
X020691Y031879D02*
Y039541D01*
X021450Y040300D01*
X026740Y047090D02*
X028670D01*
X029117Y047537D01*
X029880D01*
X030447Y045980D02*
X031350D01*
X027190Y031910D02*
X028470Y033190D01*
X035110D01*
X034930Y042170D02*
X035080Y042020D01*
X031030Y042170D02*
X034930D01*
X029900Y041040D02*
X031030Y042170D01*
X027240Y031190D02*
X035100D01*
X035260Y031350D01*
X037100Y041150D02*
X037600Y041650D01*
Y043415D01*
X037085Y043920D02*
X037600Y043415D01*
X036040Y043830D02*
X036995D01*
X037085Y043920D02*
Y044250D01*
X024650Y041300D02*
X024670Y041320D01*
X029710Y040460D02*
X032640D01*
X033027Y040073D01*
Y039003D02*
Y040073D01*
Y039003D02*
X033510Y038520D01*
X034320D01*
X034435Y038635D01*
Y039000D01*
X024670Y041320D02*
X026594D01*
X027864Y040050D01*
X029280D02*
X029550Y040320D01*
X031280D02*
X031592Y040008D01*
Y037125D02*
Y040008D01*
Y037125D02*
X031840Y036876D01*
X032196D01*
X032500Y037180D01*
X033385D01*
X033485Y037280D01*
Y037600D01*
X031008Y041758D02*
X032682D01*
X033804Y040636D01*
X034371D01*
X034535Y040800D01*
X028145Y049210D02*
X035080D01*
X020872Y036418D02*
X020950Y036340D01*
X022720Y041810D02*
X023070Y041460D01*
Y039840D02*
Y041460D01*
Y039840D02*
X023190Y039720D01*
X023870D01*
X024230Y039360D01*
Y038150D02*
Y039360D01*
Y038150D02*
X025840Y036540D01*
X029050D01*
X029190Y036680D01*
Y039280D01*
X029920Y040010D01*
X031060D01*
X032010Y037250D02*
X032360Y037600D01*
X032815D01*
X031932Y038146D02*
X032010Y038067D01*
Y037250D02*
Y038067D01*
X032730Y038860D02*
Y039160D01*
Y038860D02*
X033410Y038180D01*
X034482D01*
X034720Y037942D01*
X036648D01*
X036853Y037737D01*
X037330D01*
X037513Y037920D01*
Y038400D01*
X037333Y038580D02*
X037513Y038400D01*
X036960Y038580D02*
X037333D01*
X036680Y038860D02*
X036960Y038580D01*
X036680Y038860D02*
Y039360D01*
X036890Y039570D01*
X037680D01*
X038100Y039150D01*
X037100D02*
X037671Y038579D01*
Y037421D02*
Y038579D01*
X037333Y037082D02*
X037671Y037421D01*
X035096Y037082D02*
X037333D01*
X034158Y038020D02*
X035096Y037082D01*
X032814Y038020D02*
X034158D01*
X031870Y038964D02*
X032814Y038020D01*
X031870Y038964D02*
Y040017D01*
X035560Y037680D02*
X036280D01*
X036620Y037340D01*
X033865Y041295D02*
X034150Y041010D01*
X033865Y041295D02*
Y041750D01*
X027920Y044600D02*
X028430Y044090D01*
X027600Y044600D02*
X027920D01*
X034729Y040056D02*
X034810Y039974D01*
Y038580D02*
Y039974D01*
X034710Y038480D02*
X034810Y038580D01*
X034710Y038190D02*
Y038480D01*
Y038190D02*
X034800Y038100D01*
X036670D01*
X036720Y038150D01*
X037100D01*
X028600Y035800D02*
X029470Y036670D01*
Y038730D01*
X030230Y039490D01*
X021450Y032300D02*
Y037300D01*
X023150Y031990D02*
X025360D01*
X025896Y031454D01*
X026430D01*
X026656Y031680D01*
Y031749D01*
X028567Y033660D01*
X035260D01*
X028640Y046474D02*
X029030Y046864D01*
X025449Y046474D02*
X028640D01*
X029030Y046864D02*
Y047080D01*
X026210Y031900D02*
Y035146D01*
X023056Y038300D02*
X026210Y035146D01*
X022450Y038300D02*
X023056D01*
X031430Y047930D02*
Y048506D01*
X031040Y047540D02*
X031430Y047930D01*
X029883Y047540D02*
X031040D01*
X035240Y035710D02*
X037590D01*
X038680Y036800D01*
Y047360D01*
X038100Y047940D02*
X038680Y047360D01*
X032910Y047940D02*
X038100D01*
X031370Y046400D02*
X032910Y047940D01*
X024800Y035210D02*
Y036117D01*
X023030Y037887D02*
X024800Y036117D01*
X022165Y037887D02*
X023030D01*
X022037Y038015D02*
Y038887D01*
X022450Y039300D01*
X026847Y031539D02*
X034739D01*
X026590Y031282D02*
X026847Y031539D01*
X025468Y031282D02*
X026590D01*
X024918Y031832D02*
X025468Y031282D01*
X021376Y031832D02*
X024918D01*
X021208Y032000D02*
X021376Y031832D01*
X021208Y032000D02*
Y036480D01*
X021030Y036658D02*
X021208Y036480D01*
X021030Y036658D02*
Y038880D01*
X021450Y039300D01*
X024100Y034700D02*
Y036590D01*
X022961Y037729D02*
X024100Y036590D01*
X021879Y039729D02*
X022450Y040300D01*
X032240Y034760D02*
X032910Y035430D01*
X027060Y034760D02*
X032240D01*
X022870Y038950D02*
X027060Y034760D01*
X022870Y038950D02*
Y040640D01*
X022630Y040880D02*
X022870Y040640D01*
X021870Y040880D02*
X022630D01*
X021450Y041300D02*
X021870Y040880D01*
X037704Y045780D02*
Y046500D01*
X027864Y040050D02*
X029280D01*
X029300D01*
X029570Y040320D01*
X029710Y040460D01*
X031008Y041758D01*
X029550Y040320D02*
X029570D01*
X031280D01*
X033485Y036750D02*
Y037280D01*
X034500Y036750D02*
X037460D01*
X034535Y040800D02*
Y041315D01*
Y041750D01*
X028484Y046744D02*
X028530Y046790D01*
X023237Y040016D02*
X023350Y039902D01*
Y039878D02*
Y039902D01*
X038110Y036530D02*
X038520Y036940D01*
Y040730D01*
X038100Y041150D02*
X038520Y040730D01*
X025670Y046695D02*
Y047320D01*
X021431Y042456D02*
X025449Y046474D01*
X025670Y046695D01*
X021250Y048800D02*
X021286Y048836D01*
X024228Y039878D02*
X024650Y040300D01*
X023350Y039878D02*
X024228D01*
X022760Y042190D02*
X023237Y041713D01*
X021740Y042190D02*
X021790D01*
X022760D01*
X023237Y040016D02*
Y041713D01*
X021060Y041810D02*
X022720D01*
X020750Y041500D02*
X021060Y041810D01*
X020750Y040900D02*
Y041500D01*
Y040900D02*
X020900Y040750D01*
X021700D01*
X021950Y040500D01*
Y040070D02*
Y040500D01*
X021700Y039820D02*
X021950Y040070D01*
X021220Y039820D02*
X021700D01*
X020872Y039472D02*
X021220Y039820D01*
X020872Y036418D02*
Y039472D01*
X021879Y037950D02*
Y039729D01*
X022100Y037729D02*
X022961D01*
X021879Y037950D02*
X022100Y037729D01*
X022037Y038015D02*
X022165Y037887D01*
X026630Y034080D02*
X035300D01*
X036320Y035100D01*
X037250D01*
X037400Y034950D01*
Y034200D02*
Y034950D01*
X037050Y033850D02*
X037400Y034200D01*
X036720Y033850D02*
X037050D01*
X034739Y031539D02*
X035300Y032100D01*
X035750D01*
X036000Y032350D01*
Y034350D01*
X036200Y034550D01*
X036610D01*
X026470Y031760D02*
Y032050D01*
X026450Y033900D02*
X026630Y034080D01*
X026450Y032070D02*
Y033900D01*
Y032070D02*
X026470Y032050D01*
X021450Y032300D02*
X021750Y032000D01*
X023140D01*
X023150Y031990D01*
X022230Y033180D02*
X024420D01*
X021870Y033540D02*
Y037550D01*
Y033540D02*
X022230Y033180D01*
X031322Y036718D02*
X032783D01*
X032815Y036750D01*
X032430Y043640D02*
X034390D01*
X034850Y044100D01*
X035770D01*
X036040Y043830D01*
X035335Y044535D02*
Y044600D01*
Y044535D02*
X035770Y044100D01*
X035247Y046342D02*
X036208D01*
X037150Y045400D01*
X037945D01*
X038000Y045345D01*
X034665Y045760D02*
X035247Y046342D01*
X035950Y044715D02*
Y045950D01*
X036300Y044365D02*
Y044500D01*
X035950Y044715D02*
X036300Y044365D01*
X036415Y044250D01*
X036555Y044755D02*
X038000D01*
X036450Y044650D02*
X036555Y044755D01*
X036450Y044285D02*
Y044650D01*
X036415Y044250D02*
X036450Y044285D01*
X036300Y044180D02*
Y044365D01*
X038100Y041880D02*
Y043100D01*
X037500Y040600D02*
X037612Y040712D01*
Y041392D02*
X038100Y041880D01*
X037612Y040712D02*
Y041392D01*
X035877Y040970D02*
X036247Y040600D01*
X037500D01*
X029880Y047537D02*
X030167Y047250D01*
X030550D01*
X030722Y047078D01*
X030900Y046400D02*
X031370D01*
X030722Y046578D02*
Y047078D01*
Y046578D02*
X030900Y046400D01*
D31*
X023650Y041300D02*
D03*
X037100Y041150D02*
D03*
X021300Y046250D02*
D03*
X021250Y048800D02*
D03*
X022450Y037300D02*
D03*
X035500Y038550D02*
D03*
X025250Y044200D02*
D03*
X025900Y041900D02*
D03*
D32*
X024650Y041300D02*
D03*
X023650Y040300D02*
D03*
X024650D02*
D03*
X023650Y039300D02*
D03*
X024650D02*
D03*
X037100Y043100D02*
D03*
X038100Y038150D02*
D03*
X037100D02*
D03*
X038100Y039150D02*
D03*
X037100D02*
D03*
X038100Y040150D02*
D03*
X037100D02*
D03*
X038100Y041150D02*
D03*
X021300Y045250D02*
D03*
X021250Y047800D02*
D03*
X021450Y041300D02*
D03*
X022450D02*
D03*
X021450Y040300D02*
D03*
X022450D02*
D03*
X021450Y039300D02*
D03*
X022450D02*
D03*
X021450Y038300D02*
D03*
X022450D02*
D03*
X021450Y037300D02*
D03*
X031600Y035800D02*
D03*
X030600D02*
D03*
X029600D02*
D03*
X035500Y039550D02*
D03*
Y040550D02*
D03*
Y041550D02*
D03*
Y042550D02*
D03*
Y043550D02*
D03*
X025250Y043200D02*
D03*
X025900Y037900D02*
D03*
Y038900D02*
D03*
Y039900D02*
D03*
Y040900D02*
D03*
X032600Y044600D02*
D03*
X031600D02*
D03*
X030600D02*
D03*
X029600D02*
D03*
X028600D02*
D03*
X027600D02*
D03*
X026600D02*
D03*
D33*
X032010Y037250D02*
D03*
X030790D02*
D03*
X034150Y041010D02*
D03*
Y039790D02*
D03*
D34*
X026180Y043050D02*
D03*
X036435Y046875D02*
D03*
X028803Y043929D02*
D03*
X026135Y047800D02*
D03*
X030790Y047821D02*
D03*
X029620D02*
D03*
X028920Y042550D02*
D03*
X030680Y042720D02*
D03*
X035000Y042430D02*
D03*
X033000Y040480D02*
D03*
X029990Y043990D02*
D03*
X024470Y043630D02*
D03*
X026440Y041789D02*
D03*
X034700Y036550D02*
D03*
X033020Y047400D02*
D03*
X029050Y048020D02*
D03*
X037670Y036960D02*
D03*
X032013Y045450D02*
D03*
X032760Y045440D02*
D03*
X030800Y039680D02*
D03*
X036750Y043570D02*
D03*
X028760Y040411D02*
D03*
X036990Y031330D02*
D03*
X024820Y031010D02*
D03*
X030711Y044090D02*
D03*
X034970Y038360D02*
D03*
X031710Y041500D02*
D03*
X031300Y038070D02*
D03*
X027500Y041060D02*
D03*
X034190Y044400D02*
D03*
X028640Y042130D02*
D03*
X025220Y038960D02*
D03*
X026930Y038320D02*
D03*
X030600Y038120D02*
D03*
X021740Y042190D02*
D03*
X025580Y035210D02*
D03*
X024100Y033730D02*
D03*
X036720Y033850D02*
D03*
X036800Y031910D02*
D03*
X026740Y047090D02*
D03*
X029880Y047537D02*
D03*
X031350Y045980D02*
D03*
X030447D02*
D03*
X028530Y046790D02*
D03*
X032296Y034400D02*
D03*
X027710D02*
D03*
X028920Y036910D02*
D03*
X027190Y031910D02*
D03*
X035110Y033190D02*
D03*
X035080Y042020D02*
D03*
X029900Y041040D02*
D03*
X027240Y031190D02*
D03*
X035260Y031350D02*
D03*
X029480Y048450D02*
D03*
X030980Y046910D02*
D03*
X032430Y043640D02*
D03*
X028145Y049210D02*
D03*
X035080D02*
D03*
X020950Y036340D02*
D03*
X031060Y040010D02*
D03*
X031932Y038146D02*
D03*
X032730Y039160D02*
D03*
X031870Y040017D02*
D03*
X035560Y037680D02*
D03*
X036620Y037340D02*
D03*
X028430Y044090D02*
D03*
X034729Y040056D02*
D03*
X030230Y039490D02*
D03*
X035260Y033660D02*
D03*
X029030Y047080D02*
D03*
X025670Y047320D02*
D03*
X021431Y042456D02*
D03*
X026210Y031900D02*
D03*
X031430Y048506D02*
D03*
X035240Y035710D02*
D03*
X024800Y035210D02*
D03*
X036610Y034550D02*
D03*
X024100Y034700D02*
D03*
X032910Y035430D02*
D03*
X037704Y045780D02*
D03*
X035950Y045950D02*
D03*
D35*
X038000Y045345D02*
D03*
Y044755D02*
D03*
D36*
X035132Y036530D02*
X038110D01*
M02*
