%FSAX24Y24*%
%MOIN*%
G70*
G01*
G75*
G04 Layer_Color=8421504*
%ADD10R,0.0512X0.0591*%
%ADD11R,0.0591X0.0512*%
%ADD12R,0.0472X0.0551*%
%ADD13R,0.0551X0.0472*%
%ADD14O,0.0116X0.0354*%
%ADD15O,0.0354X0.0116*%
%ADD16R,0.0315X0.0114*%
%ADD17R,0.0126X0.0354*%
%ADD18R,0.0177X0.0114*%
%ADD19R,0.0114X0.0177*%
%ADD20O,0.0984X0.0276*%
%ADD21R,0.0591X0.0591*%
%ADD22R,0.0787X0.0866*%
%ADD23R,0.0197X0.0925*%
%ADD24R,0.0925X0.0984*%
%ADD25O,0.0591X0.0236*%
%ADD26R,0.1024X0.0945*%
%ADD27O,0.0709X0.0118*%
%ADD28O,0.0118X0.0709*%
%ADD29C,0.0200*%
%ADD30C,0.0080*%
%ADD31R,0.0591X0.0591*%
%ADD32C,0.0591*%
%ADD33C,0.0512*%
%ADD34C,0.0280*%
%ADD35R,0.0551X0.0433*%
%ADD36C,0.0100*%
%ADD37C,0.0098*%
%ADD38C,0.0079*%
%ADD39C,0.0236*%
D10*
X033685Y048800D02*
D03*
X033015D02*
D03*
X025465Y046400D02*
D03*
X026135D02*
D03*
X028885Y046000D02*
D03*
X028215D02*
D03*
X030185Y036750D02*
D03*
X029515D02*
D03*
X030185Y037650D02*
D03*
X029515D02*
D03*
X037885Y035250D02*
D03*
X037215D02*
D03*
X026315Y035400D02*
D03*
X026985D02*
D03*
X021835Y044300D02*
D03*
X021165D02*
D03*
D11*
X027100Y045565D02*
D03*
Y046235D02*
D03*
X031500Y046415D02*
D03*
Y047085D02*
D03*
X032050Y048065D02*
D03*
Y048735D02*
D03*
X028250Y036865D02*
D03*
Y037535D02*
D03*
X027350Y036865D02*
D03*
Y037535D02*
D03*
D12*
X023346Y037150D02*
D03*
X024054D02*
D03*
X021796Y033800D02*
D03*
X022504D02*
D03*
Y032850D02*
D03*
X021796D02*
D03*
X022504Y034850D02*
D03*
X021796D02*
D03*
X037196Y032350D02*
D03*
X037904D02*
D03*
X026296Y032450D02*
D03*
X027004D02*
D03*
X037196Y034550D02*
D03*
X037904D02*
D03*
X037196Y033850D02*
D03*
X037904D02*
D03*
X026296D02*
D03*
X027004D02*
D03*
X037196Y033100D02*
D03*
X037904D02*
D03*
X026296Y033150D02*
D03*
X027004D02*
D03*
X026296Y034550D02*
D03*
X027004D02*
D03*
X022696Y044400D02*
D03*
X023404D02*
D03*
X033004Y034850D02*
D03*
X032296D02*
D03*
X032296Y033800D02*
D03*
X033004D02*
D03*
X033054Y032850D02*
D03*
X032346D02*
D03*
X023346Y037900D02*
D03*
X024054D02*
D03*
X026646Y043250D02*
D03*
X027354D02*
D03*
D13*
X024850Y038104D02*
D03*
Y037396D02*
D03*
D14*
X027358Y048807D02*
D03*
X027555D02*
D03*
X027752D02*
D03*
X027948D02*
D03*
X028145D02*
D03*
X028342D02*
D03*
Y047193D02*
D03*
X028145D02*
D03*
X027948D02*
D03*
X027752D02*
D03*
X027555D02*
D03*
X027358D02*
D03*
D15*
X028657Y048492D02*
D03*
Y048295D02*
D03*
Y048098D02*
D03*
Y047902D02*
D03*
Y047705D02*
D03*
Y047508D02*
D03*
X027043D02*
D03*
Y047705D02*
D03*
Y047902D02*
D03*
Y048098D02*
D03*
Y048295D02*
D03*
Y048492D02*
D03*
D16*
X029850Y048113D02*
D03*
Y048309D02*
D03*
Y048506D02*
D03*
Y048703D02*
D03*
Y048900D02*
D03*
X030795Y048113D02*
D03*
Y048309D02*
D03*
Y048506D02*
D03*
Y048703D02*
D03*
Y048900D02*
D03*
D17*
X030322Y048979D02*
D03*
Y048034D02*
D03*
D18*
X029650Y047050D02*
D03*
Y046853D02*
D03*
Y046656D02*
D03*
Y046459D02*
D03*
X030654D02*
D03*
Y046656D02*
D03*
Y046853D02*
D03*
Y047050D02*
D03*
D19*
X029857Y046253D02*
D03*
X030054D02*
D03*
X030250D02*
D03*
X030447D02*
D03*
Y047257D02*
D03*
X030250D02*
D03*
X030054D02*
D03*
X029857D02*
D03*
D20*
X034035Y034850D02*
D03*
Y034350D02*
D03*
Y033850D02*
D03*
Y033350D02*
D03*
Y032850D02*
D03*
Y032350D02*
D03*
Y031850D02*
D03*
Y031350D02*
D03*
X035965Y034850D02*
D03*
Y034350D02*
D03*
Y033850D02*
D03*
Y033350D02*
D03*
Y032850D02*
D03*
Y032350D02*
D03*
Y031850D02*
D03*
Y031350D02*
D03*
X023385Y034850D02*
D03*
Y034350D02*
D03*
Y033850D02*
D03*
Y033350D02*
D03*
Y032850D02*
D03*
Y032350D02*
D03*
Y031850D02*
D03*
Y031350D02*
D03*
X025315Y034850D02*
D03*
Y034350D02*
D03*
Y033850D02*
D03*
Y033350D02*
D03*
Y032850D02*
D03*
Y032350D02*
D03*
Y031850D02*
D03*
Y031350D02*
D03*
D21*
X022739Y043400D02*
D03*
X021361D02*
D03*
D22*
X033641Y046100D02*
D03*
X032459D02*
D03*
D23*
X036120Y045130D02*
D03*
X036435Y045129D02*
D03*
X036750D02*
D03*
X037380D02*
D03*
X037065D02*
D03*
D24*
X034713Y048171D02*
D03*
X038787D02*
D03*
X034713Y046497D02*
D03*
X038787D02*
D03*
D25*
X024354Y045150D02*
D03*
Y045650D02*
D03*
Y046150D02*
D03*
Y046650D02*
D03*
X022346Y045150D02*
D03*
Y045650D02*
D03*
Y046150D02*
D03*
Y046650D02*
D03*
D26*
X022490Y048250D02*
D03*
X025010D02*
D03*
D27*
X028065Y042576D02*
D03*
Y042380D02*
D03*
Y042183D02*
D03*
Y041986D02*
D03*
Y041789D02*
D03*
Y041592D02*
D03*
Y041395D02*
D03*
Y041198D02*
D03*
Y041002D02*
D03*
Y040805D02*
D03*
Y040608D02*
D03*
Y040411D02*
D03*
Y040214D02*
D03*
Y040017D02*
D03*
Y039820D02*
D03*
Y039624D02*
D03*
X032435D02*
D03*
Y039820D02*
D03*
Y040017D02*
D03*
Y040214D02*
D03*
Y040411D02*
D03*
Y040608D02*
D03*
Y040805D02*
D03*
Y041002D02*
D03*
Y041198D02*
D03*
Y041395D02*
D03*
Y041592D02*
D03*
Y041789D02*
D03*
Y041986D02*
D03*
Y042183D02*
D03*
Y042380D02*
D03*
Y042576D02*
D03*
D28*
X028774Y038915D02*
D03*
X028970D02*
D03*
X029167D02*
D03*
X029364D02*
D03*
X029561D02*
D03*
X029758D02*
D03*
X029955D02*
D03*
X030152D02*
D03*
X030348D02*
D03*
X030545D02*
D03*
X030742D02*
D03*
X030939D02*
D03*
X031136D02*
D03*
X031333D02*
D03*
X031530D02*
D03*
X031726D02*
D03*
Y043285D02*
D03*
X031530D02*
D03*
X031333D02*
D03*
X031136D02*
D03*
X030939D02*
D03*
X030742D02*
D03*
X030545D02*
D03*
X030348D02*
D03*
X030152D02*
D03*
X029955D02*
D03*
X029758D02*
D03*
X029561D02*
D03*
X029364D02*
D03*
X029167D02*
D03*
X028970D02*
D03*
X028774D02*
D03*
M02*
