%FSAX24Y24*%
%MOIN*%
G70*
G01*
G75*
G04 Layer_Color=2752767*
%ADD10R,0.0551X0.0433*%
%ADD11R,0.0433X0.0551*%
%ADD12R,0.1024X0.0945*%
%ADD13O,0.0118X0.0709*%
%ADD14O,0.0709X0.0118*%
%ADD15O,0.0591X0.0236*%
%ADD16O,0.0354X0.0118*%
%ADD17O,0.0118X0.0354*%
%ADD18R,0.1024X0.1024*%
%ADD19R,0.0197X0.0925*%
%ADD20R,0.0925X0.0984*%
%ADD21R,0.0787X0.0866*%
%ADD22R,0.0118X0.0177*%
%ADD23R,0.0177X0.0118*%
%ADD24R,0.0236X0.0126*%
%ADD25R,0.0126X0.0236*%
%ADD26R,0.0591X0.0591*%
%ADD27O,0.0984X0.0276*%
%ADD28C,0.0080*%
%ADD29C,0.0591*%
%ADD30R,0.0591X0.0591*%
%ADD31C,0.0512*%
%ADD32C,0.0240*%
%ADD33C,0.0260*%
%ADD34C,0.0098*%
%ADD35C,0.0079*%
%ADD36C,0.0236*%
%ADD37C,0.0020*%
%ADD38C,0.0100*%
%ADD39R,0.0631X0.0513*%
%ADD40R,0.0513X0.0631*%
%ADD41R,0.1104X0.1025*%
%ADD42O,0.0198X0.0789*%
%ADD43O,0.0789X0.0198*%
%ADD44O,0.0671X0.0316*%
%ADD45O,0.0434X0.0198*%
%ADD46O,0.0198X0.0434*%
%ADD47R,0.1104X0.1104*%
%ADD48R,0.0277X0.1005*%
%ADD49R,0.1005X0.1064*%
%ADD50R,0.0867X0.0946*%
%ADD51R,0.0198X0.0257*%
%ADD52R,0.0257X0.0198*%
%ADD53R,0.0316X0.0206*%
%ADD54R,0.0206X0.0316*%
%ADD55R,0.0671X0.0671*%
%ADD56O,0.1064X0.0356*%
%ADD57C,0.0671*%
%ADD58R,0.0671X0.0671*%
%ADD59C,0.0592*%
%ADD60C,0.0320*%
%ADD61C,0.0340*%
%ADD62C,0.0039*%
%ADD63C,0.0060*%
%ADD64R,0.0681X0.0685*%
%ADD65R,0.0567X0.0579*%
%ADD66C,0.0050*%
%ADD67C,0.0067*%
%ADD68C,0.0160*%
D28*
X035580Y031250D02*
G03*
X035580Y031250I-000240J000000D01*
G01*
D38*
X040439Y033350D02*
Y033950D01*
X040139Y033650D01*
X040539D01*
X047097Y033350D02*
X047297D01*
X047197D01*
Y033950D01*
X047097Y033850D01*
X047997Y033350D02*
X047597D01*
X047997Y033750D01*
Y033850D01*
X047897Y033950D01*
X047697D01*
X047597Y033850D01*
X048197Y033350D02*
Y033450D01*
X048296D01*
Y033350D01*
X048197D01*
X048696Y033450D02*
X048796Y033350D01*
X048996D01*
X049096Y033450D01*
Y033850D01*
X048996Y033950D01*
X048796D01*
X048696Y033850D01*
Y033750D01*
X048796Y033650D01*
X049096D01*
X049296Y033450D02*
X049396Y033350D01*
X049596D01*
X049696Y033450D01*
Y033850D01*
X049596Y033950D01*
X049396D01*
X049296Y033850D01*
Y033750D01*
X049396Y033650D01*
X049696D01*
X050296Y033350D02*
X049896D01*
X050296Y033750D01*
Y033850D01*
X050196Y033950D01*
X049996D01*
X049896Y033850D01*
X050496Y033350D02*
Y033750D01*
X050596D01*
X050696Y033650D01*
Y033350D01*
Y033650D01*
X050796Y033750D01*
X050896Y033650D01*
Y033350D01*
X051096D02*
X051296D01*
X051196D01*
Y033750D01*
X051096D01*
X051595Y033350D02*
X051795D01*
X051695D01*
Y033950D01*
X051595D01*
X052895Y033350D02*
X052695Y033550D01*
Y033750D01*
X052895Y033950D01*
X053195Y033850D02*
X053295Y033950D01*
X053495D01*
X053595Y033850D01*
Y033450D01*
X053495Y033350D01*
X053295D01*
X053195Y033450D01*
Y033850D01*
X053795Y033350D02*
Y033450D01*
X053895D01*
Y033350D01*
X053795D01*
X054295Y033850D02*
X054395Y033950D01*
X054594D01*
X054694Y033850D01*
Y033750D01*
X054594Y033650D01*
X054495D01*
X054594D01*
X054694Y033550D01*
Y033450D01*
X054594Y033350D01*
X054395D01*
X054295Y033450D01*
X054894Y033850D02*
X054994Y033950D01*
X055194D01*
X055294Y033850D01*
Y033750D01*
X055194Y033650D01*
X055094D01*
X055194D01*
X055294Y033550D01*
Y033450D01*
X055194Y033350D01*
X054994D01*
X054894Y033450D01*
X055494Y033350D02*
Y033750D01*
X055594D01*
X055694Y033650D01*
Y033350D01*
Y033650D01*
X055794Y033750D01*
X055894Y033650D01*
Y033350D01*
X056094D02*
Y033750D01*
X056194D01*
X056294Y033650D01*
Y033350D01*
Y033650D01*
X056394Y033750D01*
X056494Y033650D01*
Y033350D01*
X056694D02*
X056894Y033550D01*
Y033750D01*
X056694Y033950D01*
X060533Y033350D02*
Y033950D01*
X060833D01*
X060933Y033850D01*
Y033650D01*
X060833Y033550D01*
X060533D01*
X061133Y033950D02*
X061533D01*
X061333D01*
Y033350D01*
X061733Y033950D02*
Y033350D01*
Y033650D01*
X062132D01*
Y033950D01*
Y033350D01*
X065572D02*
Y033950D01*
X065872D01*
X065972Y033850D01*
Y033650D01*
X065872Y033550D01*
X065572D01*
X065772D02*
X065972Y033350D01*
X066271D02*
X066471D01*
X066571Y033450D01*
Y033650D01*
X066471Y033750D01*
X066271D01*
X066171Y033650D01*
Y033450D01*
X066271Y033350D01*
X066771Y033750D02*
Y033450D01*
X066871Y033350D01*
X067171D01*
Y033750D01*
X067371Y033350D02*
Y033750D01*
X067671D01*
X067771Y033650D01*
Y033350D01*
X068371Y033950D02*
Y033350D01*
X068071D01*
X067971Y033450D01*
Y033650D01*
X068071Y033750D01*
X068371D01*
X040139Y032650D02*
X040239Y032750D01*
X040439D01*
X040539Y032650D01*
Y032550D01*
X040439Y032450D01*
X040539Y032350D01*
Y032250D01*
X040439Y032150D01*
X040239D01*
X040139Y032250D01*
Y032350D01*
X040239Y032450D01*
X040139Y032550D01*
Y032650D01*
X040239Y032450D02*
X040439D01*
X041138Y032150D02*
X040739D01*
X041138Y032550D01*
Y032650D01*
X041038Y032750D01*
X040839D01*
X040739Y032650D01*
X047097Y032150D02*
X047297D01*
X047197D01*
Y032750D01*
X047097Y032650D01*
X047997Y032750D02*
X047797Y032650D01*
X047597Y032450D01*
Y032250D01*
X047697Y032150D01*
X047897D01*
X047997Y032250D01*
Y032350D01*
X047897Y032450D01*
X047597D01*
X048197Y032150D02*
Y032550D01*
X048296D01*
X048396Y032450D01*
Y032150D01*
Y032450D01*
X048496Y032550D01*
X048596Y032450D01*
Y032150D01*
X048796D02*
X048996D01*
X048896D01*
Y032550D01*
X048796D01*
X049296Y032150D02*
X049496D01*
X049396D01*
Y032750D01*
X049296D01*
X050596Y032150D02*
X050396Y032350D01*
Y032550D01*
X050596Y032750D01*
X050896Y032650D02*
X050996Y032750D01*
X051196D01*
X051296Y032650D01*
Y032250D01*
X051196Y032150D01*
X050996D01*
X050896Y032250D01*
Y032650D01*
X051495Y032150D02*
Y032250D01*
X051595D01*
Y032150D01*
X051495D01*
X052295D02*
Y032750D01*
X051995Y032450D01*
X052395D01*
X052595Y032650D02*
X052695Y032750D01*
X052895D01*
X052995Y032650D01*
Y032250D01*
X052895Y032150D01*
X052695D01*
X052595Y032250D01*
Y032650D01*
X053595Y032750D02*
X053395Y032650D01*
X053195Y032450D01*
Y032250D01*
X053295Y032150D01*
X053495D01*
X053595Y032250D01*
Y032350D01*
X053495Y032450D01*
X053195D01*
X054095Y032150D02*
Y032750D01*
X053795Y032450D01*
X054195D01*
X054395Y032150D02*
Y032550D01*
X054495D01*
X054594Y032450D01*
Y032150D01*
Y032450D01*
X054694Y032550D01*
X054794Y032450D01*
Y032150D01*
X054994D02*
Y032550D01*
X055094D01*
X055194Y032450D01*
Y032150D01*
Y032450D01*
X055294Y032550D01*
X055394Y032450D01*
Y032150D01*
X055594D02*
X055794Y032350D01*
Y032550D01*
X055594Y032750D01*
X060533Y032150D02*
Y032750D01*
X060833D01*
X060933Y032650D01*
Y032450D01*
X060833Y032350D01*
X060533D01*
X061133Y032750D02*
X061533D01*
X061333D01*
Y032150D01*
X061733Y032750D02*
Y032150D01*
Y032450D01*
X062132D01*
Y032750D01*
Y032150D01*
X065572D02*
Y032750D01*
X065872D01*
X065972Y032650D01*
Y032450D01*
X065872Y032350D01*
X065572D01*
X065772D02*
X065972Y032150D01*
X066271D02*
X066471D01*
X066571Y032250D01*
Y032450D01*
X066471Y032550D01*
X066271D01*
X066171Y032450D01*
Y032250D01*
X066271Y032150D01*
X066771Y032550D02*
Y032250D01*
X066871Y032150D01*
X067171D01*
Y032550D01*
X067371Y032150D02*
Y032550D01*
X067671D01*
X067771Y032450D01*
Y032150D01*
X068371Y032750D02*
Y032150D01*
X068071D01*
X067971Y032250D01*
Y032450D01*
X068071Y032550D01*
X068371D01*
X040439Y030950D02*
Y031550D01*
X040139Y031250D01*
X040539D01*
X047497Y030950D02*
X047097D01*
X047497Y031350D01*
Y031450D01*
X047397Y031550D01*
X047197D01*
X047097Y031450D01*
X047697Y031550D02*
X048097D01*
Y031450D01*
X047697Y031050D01*
Y030950D01*
X048296D02*
Y031050D01*
X048396D01*
Y030950D01*
X048296D01*
X049196Y031550D02*
X048796D01*
Y031250D01*
X048996Y031350D01*
X049096D01*
X049196Y031250D01*
Y031050D01*
X049096Y030950D01*
X048896D01*
X048796Y031050D01*
X049796Y031550D02*
X049396D01*
Y031250D01*
X049596Y031350D01*
X049696D01*
X049796Y031250D01*
Y031050D01*
X049696Y030950D01*
X049496D01*
X049396Y031050D01*
X049996D02*
X050096Y030950D01*
X050296D01*
X050396Y031050D01*
Y031450D01*
X050296Y031550D01*
X050096D01*
X049996Y031450D01*
Y031350D01*
X050096Y031250D01*
X050396D01*
X050596Y030950D02*
Y031350D01*
X050696D01*
X050796Y031250D01*
Y030950D01*
Y031250D01*
X050896Y031350D01*
X050996Y031250D01*
Y030950D01*
X051196D02*
X051396D01*
X051296D01*
Y031350D01*
X051196D01*
X051695Y030950D02*
X051895D01*
X051795D01*
Y031550D01*
X051695D01*
X052995Y030950D02*
X052795Y031150D01*
Y031350D01*
X052995Y031550D01*
X053295Y031450D02*
X053395Y031550D01*
X053595D01*
X053695Y031450D01*
Y031050D01*
X053595Y030950D01*
X053395D01*
X053295Y031050D01*
Y031450D01*
X053895Y030950D02*
Y031050D01*
X053995D01*
Y030950D01*
X053895D01*
X054395Y031550D02*
X054794D01*
Y031450D01*
X054395Y031050D01*
Y030950D01*
X054994D02*
Y031350D01*
X055094D01*
X055194Y031250D01*
Y030950D01*
Y031250D01*
X055294Y031350D01*
X055394Y031250D01*
Y030950D01*
X055594D02*
Y031350D01*
X055694D01*
X055794Y031250D01*
Y030950D01*
Y031250D01*
X055894Y031350D01*
X055994Y031250D01*
Y030950D01*
X056194D02*
X056394Y031150D01*
Y031350D01*
X056194Y031550D01*
X060533Y030950D02*
Y031550D01*
X060833D01*
X060933Y031450D01*
Y031250D01*
X060833Y031150D01*
X060533D01*
X061133Y031550D02*
X061533D01*
X061333D01*
Y030950D01*
X061733Y031550D02*
Y030950D01*
Y031250D01*
X062132D01*
Y031550D01*
Y030950D01*
X065572D02*
Y031550D01*
X065872D01*
X065972Y031450D01*
Y031250D01*
X065872Y031150D01*
X065572D01*
X065772D02*
X065972Y030950D01*
X066271D02*
X066471D01*
X066571Y031050D01*
Y031250D01*
X066471Y031350D01*
X066271D01*
X066171Y031250D01*
Y031050D01*
X066271Y030950D01*
X066771Y031350D02*
Y031050D01*
X066871Y030950D01*
X067171D01*
Y031350D01*
X067371Y030950D02*
Y031350D01*
X067671D01*
X067771Y031250D01*
Y030950D01*
X068371Y031550D02*
Y030950D01*
X068071D01*
X067971Y031050D01*
Y031250D01*
X068071Y031350D01*
X068371D01*
X040539Y030350D02*
X040139D01*
Y030050D01*
X040339Y030150D01*
X040439D01*
X040539Y030050D01*
Y029850D01*
X040439Y029750D01*
X040239D01*
X040139Y029850D01*
X041138Y030350D02*
X040739D01*
Y030050D01*
X040939Y030150D01*
X041038D01*
X041138Y030050D01*
Y029850D01*
X041038Y029750D01*
X040839D01*
X040739Y029850D01*
X047097Y030250D02*
X047197Y030350D01*
X047397D01*
X047497Y030250D01*
Y030150D01*
X047397Y030050D01*
X047297D01*
X047397D01*
X047497Y029950D01*
Y029850D01*
X047397Y029750D01*
X047197D01*
X047097Y029850D01*
X048097Y030350D02*
X047697D01*
Y030050D01*
X047897Y030150D01*
X047997D01*
X048097Y030050D01*
Y029850D01*
X047997Y029750D01*
X047797D01*
X047697Y029850D01*
X048296Y029750D02*
Y029850D01*
X048396D01*
Y029750D01*
X048296D01*
X049096D02*
Y030350D01*
X048796Y030050D01*
X049196D01*
X049396Y030250D02*
X049496Y030350D01*
X049696D01*
X049796Y030250D01*
Y030150D01*
X049696Y030050D01*
X049596D01*
X049696D01*
X049796Y029950D01*
Y029850D01*
X049696Y029750D01*
X049496D01*
X049396Y029850D01*
X049996Y030250D02*
X050096Y030350D01*
X050296D01*
X050396Y030250D01*
Y030150D01*
X050296Y030050D01*
X050196D01*
X050296D01*
X050396Y029950D01*
Y029850D01*
X050296Y029750D01*
X050096D01*
X049996Y029850D01*
X050596Y029750D02*
Y030150D01*
X050696D01*
X050796Y030050D01*
Y029750D01*
Y030050D01*
X050896Y030150D01*
X050996Y030050D01*
Y029750D01*
X051196D02*
X051396D01*
X051296D01*
Y030150D01*
X051196D01*
X051695Y029750D02*
X051895D01*
X051795D01*
Y030350D01*
X051695D01*
X052995Y029750D02*
X052795Y029950D01*
Y030150D01*
X052995Y030350D01*
X053295Y030250D02*
X053395Y030350D01*
X053595D01*
X053695Y030250D01*
Y029850D01*
X053595Y029750D01*
X053395D01*
X053295Y029850D01*
Y030250D01*
X053895Y029750D02*
Y029850D01*
X053995D01*
Y029750D01*
X053895D01*
X054395Y029850D02*
X054495Y029750D01*
X054694D01*
X054794Y029850D01*
Y030250D01*
X054694Y030350D01*
X054495D01*
X054395Y030250D01*
Y030150D01*
X054495Y030050D01*
X054794D01*
X054994Y029750D02*
Y030150D01*
X055094D01*
X055194Y030050D01*
Y029750D01*
Y030050D01*
X055294Y030150D01*
X055394Y030050D01*
Y029750D01*
X055594D02*
Y030150D01*
X055694D01*
X055794Y030050D01*
Y029750D01*
Y030050D01*
X055894Y030150D01*
X055994Y030050D01*
Y029750D01*
X056194D02*
X056394Y029950D01*
Y030150D01*
X056194Y030350D01*
X060533Y029750D02*
Y030350D01*
X060833D01*
X060933Y030250D01*
Y030050D01*
X060833Y029950D01*
X060533D01*
X061133Y030350D02*
X061533D01*
X061333D01*
Y029750D01*
X061733Y030350D02*
Y029750D01*
Y030050D01*
X062132D01*
Y030350D01*
Y029750D01*
X065572D02*
Y030350D01*
X065872D01*
X065972Y030250D01*
Y030050D01*
X065872Y029950D01*
X065572D01*
X065772D02*
X065972Y029750D01*
X066271D02*
X066471D01*
X066571Y029850D01*
Y030050D01*
X066471Y030150D01*
X066271D01*
X066171Y030050D01*
Y029850D01*
X066271Y029750D01*
X066771Y030150D02*
Y029850D01*
X066871Y029750D01*
X067171D01*
Y030150D01*
X067371Y029750D02*
Y030150D01*
X067671D01*
X067771Y030050D01*
Y029750D01*
X068371Y030350D02*
Y029750D01*
X068071D01*
X067971Y029850D01*
Y030050D01*
X068071Y030150D01*
X068371D01*
X040139Y028550D02*
X040339D01*
X040239D01*
Y029150D01*
X040139Y029050D01*
X040939Y028550D02*
Y029150D01*
X040639Y028850D01*
X041038D01*
X041638Y029150D02*
X041238D01*
Y028850D01*
X041438Y028950D01*
X041538D01*
X041638Y028850D01*
Y028650D01*
X041538Y028550D01*
X041338D01*
X041238Y028650D01*
X042718Y029150D02*
X043118D01*
X042918D01*
Y028550D01*
X043418D02*
X043618D01*
X043718Y028650D01*
Y028850D01*
X043618Y028950D01*
X043418D01*
X043318Y028850D01*
Y028650D01*
X043418Y028550D01*
X044018Y029050D02*
Y028950D01*
X043918D01*
X044118D01*
X044018D01*
Y028650D01*
X044118Y028550D01*
X044518Y028950D02*
X044718D01*
X044818Y028850D01*
Y028550D01*
X044518D01*
X044418Y028650D01*
X044518Y028750D01*
X044818D01*
X045018Y028550D02*
X045217D01*
X045118D01*
Y029150D01*
X045018D01*
D66*
X028400Y035600D02*
Y036000D01*
X028800D01*
Y035600D01*
X028400D01*
X029400D02*
Y036000D01*
X029800D01*
Y035600D01*
X029400D01*
X030400D02*
Y036000D01*
X030800D01*
Y035600D01*
X030400D01*
X031400D02*
Y036000D01*
X031800D01*
Y035600D01*
X031400D01*
X025700Y041700D02*
Y042100D01*
X026100D01*
Y041700D01*
X025700D01*
Y040700D02*
Y041100D01*
X026100D01*
Y040700D01*
X025700D01*
Y039700D02*
Y040100D01*
X026100D01*
Y039700D01*
X025700D01*
Y038700D02*
Y039100D01*
X026100D01*
Y038700D01*
X025700D01*
Y037700D02*
Y038100D01*
X026100D01*
Y037700D01*
X025700D01*
X025050Y043000D02*
Y043400D01*
X025450D01*
Y043000D01*
X025050D01*
Y044000D02*
Y044400D01*
X025450D01*
Y044000D01*
X025050D01*
X022250Y037100D02*
Y037500D01*
X022650D01*
Y037100D01*
X022250D01*
X021250D02*
Y037500D01*
X021650D01*
Y037100D01*
X021250D01*
X022250Y038100D02*
Y038500D01*
X022650D01*
Y038100D01*
X022250D01*
X021250D02*
Y038500D01*
X021650D01*
Y038100D01*
X021250D01*
X022250Y039100D02*
Y039500D01*
X022650D01*
Y039100D01*
X022250D01*
X021250D02*
Y039500D01*
X021650D01*
Y039100D01*
X021250D01*
X022250Y040100D02*
Y040500D01*
X022650D01*
Y040100D01*
X022250D01*
X021250D02*
Y040500D01*
X021650D01*
Y040100D01*
X021250D01*
X022250Y041100D02*
Y041500D01*
X022650D01*
Y041100D01*
X022250D01*
X021250D02*
Y041500D01*
X021650D01*
Y041100D01*
X021250D01*
X021050Y047600D02*
Y048000D01*
X021450D01*
Y047600D01*
X021050D01*
Y048600D02*
Y049000D01*
X021450D01*
Y048600D01*
X021050D01*
X021100Y045050D02*
Y045450D01*
X021500D01*
Y045050D01*
X021100D01*
Y046050D02*
Y046450D01*
X021500D01*
Y046050D01*
X021100D01*
X036900Y040950D02*
Y041350D01*
X037300D01*
Y040950D01*
X036900D01*
X037900D02*
Y041350D01*
X038300D01*
Y040950D01*
X037900D01*
X036900Y039950D02*
Y040350D01*
X037300D01*
Y039950D01*
X036900D01*
X037900D02*
Y040350D01*
X038300D01*
Y039950D01*
X037900D01*
X036900Y038950D02*
Y039350D01*
X037300D01*
Y038950D01*
X036900D01*
X037900D02*
Y039350D01*
X038300D01*
Y038950D01*
X037900D01*
X036900Y037950D02*
Y038350D01*
X037300D01*
Y037950D01*
X036900D01*
X037900D02*
Y038350D01*
X038300D01*
Y037950D01*
X037900D01*
X036900Y042900D02*
Y043300D01*
X037300D01*
Y042900D01*
X036900D01*
X037900D02*
Y043300D01*
X038300D01*
Y042900D01*
X037900D01*
X024450Y039100D02*
Y039500D01*
X024850D01*
Y039100D01*
X024450D01*
X023450D02*
Y039500D01*
X023850D01*
Y039100D01*
X023450D01*
X024450Y040100D02*
Y040500D01*
X024850D01*
Y040100D01*
X024450D01*
X023450D02*
Y040500D01*
X023850D01*
Y040100D01*
X023450D01*
X024450Y041100D02*
Y041500D01*
X024850D01*
Y041100D01*
X024450D01*
X023450D02*
Y041500D01*
X023850D01*
Y041100D01*
X023450D01*
X035300Y043350D02*
Y043750D01*
X035700D01*
Y043350D01*
X035300D01*
Y042350D02*
Y042750D01*
X035700D01*
Y042350D01*
X035300D01*
Y041350D02*
Y041750D01*
X035700D01*
Y041350D01*
X035300D01*
Y040350D02*
Y040750D01*
X035700D01*
Y040350D01*
X035300D01*
Y039350D02*
Y039750D01*
X035700D01*
Y039350D01*
X035300D01*
Y038350D02*
Y038750D01*
X035700D01*
Y038350D01*
X035300D01*
X026450Y044950D02*
Y045350D01*
X026850D01*
Y044950D01*
X026450D01*
X027450D02*
Y045350D01*
X027850D01*
Y044950D01*
X027450D01*
X028450D02*
Y045350D01*
X028850D01*
Y044950D01*
X028450D01*
X029450D02*
Y045350D01*
X029850D01*
Y044950D01*
X029450D01*
X030450D02*
Y045350D01*
X030850D01*
Y044950D01*
X030450D01*
X031450D02*
Y045350D01*
X031850D01*
Y044950D01*
X031450D01*
X032450D02*
Y045350D01*
X032850D01*
Y044950D01*
X032450D01*
X033450D02*
Y045350D01*
X033850D01*
Y044950D01*
X033450D01*
X027650Y036950D02*
X027450Y037350D01*
X027850D01*
X027650Y036950D01*
X025700Y035150D02*
X025500Y035550D01*
X025900D01*
X025700Y035150D01*
X022500Y034150D02*
X022300Y034550D01*
X022700D01*
X022500Y034150D01*
X029800Y038100D02*
X029600Y038500D01*
X030000D01*
X029800Y038100D01*
X030050Y037800D02*
X029850Y038200D01*
X030250D01*
X030050Y037800D01*
X028100Y037850D02*
X027900Y038250D01*
X028300D01*
X028100Y037850D01*
X029550Y048800D02*
X029350Y049200D01*
X029750D01*
X029550Y048800D01*
X029000Y048950D02*
X028800Y049350D01*
X029200D01*
X029000Y048950D01*
X037750Y044000D02*
X037550Y044400D01*
X037950D01*
X037750Y044000D01*
X037600Y047750D02*
X037400Y048150D01*
X037800D01*
X037600Y047750D01*
X030450Y037850D02*
X030250Y038250D01*
X030650D01*
X030450Y037850D01*
X030850Y037700D02*
X030650Y038100D01*
X031050D01*
X030850Y037700D01*
X031100Y038050D02*
X030900Y038450D01*
X031300D01*
X031100Y038050D01*
X021550Y035250D02*
X021350Y035650D01*
X021750D01*
X021550Y035250D01*
X024400Y034150D02*
X024200Y034550D01*
X024600D01*
X024400Y034150D01*
X024350Y033150D02*
X024150Y033550D01*
X024550D01*
X024350Y033150D01*
Y033650D02*
X024150Y034050D01*
X024550D01*
X024350Y033650D01*
X024300Y032450D02*
X024100Y032850D01*
X024500D01*
X024300Y032450D01*
X024200Y031300D02*
X024000Y031700D01*
X024400D01*
X024200Y031300D01*
X028450Y032150D02*
X028250Y032550D01*
X028650D01*
X028450Y032150D01*
X026900Y031500D02*
X026700Y031900D01*
X027100D01*
X026900Y031500D01*
X026200Y031650D02*
X026000Y032050D01*
X026400D01*
X026200Y031650D01*
X027500Y031250D02*
X027300Y031650D01*
X027700D01*
X027500Y031250D01*
X026600Y031150D02*
X026400Y031550D01*
X026800D01*
X026600Y031150D01*
X035200Y031400D02*
X035000Y031800D01*
X035400D01*
X035200Y031400D01*
Y031950D02*
X035000Y032350D01*
X035400D01*
X035200Y031950D01*
Y032450D02*
X035000Y032850D01*
X035400D01*
X035200Y032450D01*
X033800Y040050D02*
X033600Y040450D01*
X034000D01*
X033800Y040050D01*
X033350Y041100D02*
X033150Y041500D01*
X033550D01*
X033350Y041100D01*
X034150Y042400D02*
X033950Y042800D01*
X034350D01*
X034150Y042400D01*
X030200Y039500D02*
X030000Y039900D01*
X030400D01*
X030200Y039500D01*
X031400Y039650D02*
X031200Y040050D01*
X031600D01*
X031400Y039650D01*
X031300Y040250D02*
X031100Y040650D01*
X031500D01*
X031300Y040250D01*
X025100Y045950D02*
X024900Y046350D01*
X025300D01*
X025100Y045950D01*
X026800Y046750D02*
X026600Y047150D01*
X027000D01*
X026800Y046750D01*
X029450Y045700D02*
X029250Y046100D01*
X029650D01*
X029450Y045700D01*
X037450Y047100D02*
X037250Y047500D01*
X037650D01*
X037450Y047100D01*
X036950Y047650D02*
X036750Y048050D01*
X037150D01*
X036950Y047650D01*
X036450Y047150D02*
X036250Y047550D01*
X036650D01*
X036450Y047150D01*
X035600Y047250D02*
X035400Y047650D01*
X035800D01*
X035600Y047250D01*
X033950Y045600D02*
X033750Y046000D01*
X034150D01*
X033950Y045600D01*
X032100Y045750D02*
X031900Y046150D01*
X032300D01*
X032100Y045750D01*
X031100D02*
X030900Y046150D01*
X031300D01*
X031100Y045750D01*
X026500Y048550D02*
X026300Y048950D01*
X026700D01*
X026500Y048550D01*
X025750Y048950D02*
X025550Y049350D01*
X025950D01*
X025750Y048950D01*
X031350Y048350D02*
X031150Y048750D01*
X031550D01*
X031350Y048350D01*
X031100Y047850D02*
X030900Y048250D01*
X031300D01*
X031100Y047850D01*
X029350Y047150D02*
X029150Y047550D01*
X029550D01*
X029350Y047150D01*
X027400Y042500D02*
X027200Y042900D01*
X027600D01*
X027400Y042500D01*
X027350Y042000D02*
X027150Y042400D01*
X027550D01*
X027350Y042000D01*
X026750Y041950D02*
X026550Y042350D01*
X026950D01*
X026750Y041950D01*
X027250Y040100D02*
X027050Y040500D01*
X027450D01*
X027250Y040100D01*
X027050Y040450D02*
X026850Y040850D01*
X027250D01*
X027050Y040450D01*
X026850Y040800D02*
X026650Y041200D01*
X027050D01*
X026850Y040800D01*
X026650Y041150D02*
X026450Y041550D01*
X026850D01*
X026650Y041150D01*
X027864Y048186D02*
X027964Y048286D01*
X028064D01*
X027964Y048386D01*
X028064Y048486D01*
X027964D01*
X027864Y048586D01*
X027764Y048486D01*
X027664D01*
X027764Y048386D01*
X027664Y048286D01*
X027764D01*
X027864Y048186D01*
X028336D02*
X028436Y048286D01*
X028536D01*
X028436Y048386D01*
X028536Y048486D01*
X028436D01*
X028336Y048586D01*
X028236Y048486D01*
X028136D01*
X028236Y048386D01*
X028136Y048286D01*
X028236D01*
X028336Y048186D01*
X027864Y047714D02*
X027964Y047814D01*
X028064D01*
X027964Y047914D01*
X028064Y048014D01*
X027964D01*
X027864Y048114D01*
X027764Y048014D01*
X027664D01*
X027764Y047914D01*
X027664Y047814D01*
X027764D01*
X027864Y047714D01*
X028336D02*
X028436Y047814D01*
X028536D01*
X028436Y047914D01*
X028536Y048014D01*
X028436D01*
X028336Y048114D01*
X028236Y048014D01*
X028136D01*
X028236Y047914D01*
X028136Y047814D01*
X028236D01*
X028336Y047714D01*
X033150Y031350D02*
X032950Y031750D01*
X033350D01*
X033150Y031350D01*
X033500Y040350D02*
X033300Y040750D01*
X033700D01*
X033500Y040350D01*
X025100Y036800D02*
X024900Y037200D01*
X025300D01*
X025100Y036800D01*
X025200Y035050D02*
X025000Y035450D01*
X025400D01*
X025200Y035050D01*
X033400Y045800D02*
X033200Y046200D01*
X033600D01*
X033400Y045800D01*
X030300Y045650D02*
X030100Y046050D01*
X030500D01*
X030300Y045650D01*
X035500Y044000D02*
X035300Y044400D01*
X035700D01*
X035500Y044000D01*
X028900Y040550D02*
X028700Y040950D01*
X029100D01*
X028900Y040550D01*
X034500Y043850D02*
X034300Y044250D01*
X034700D01*
X034500Y043850D01*
X021900Y031600D02*
X021700Y032000D01*
X022100D01*
X021900Y031600D01*
X031750Y032150D02*
X031550Y032550D01*
X031950D01*
X031750Y032150D01*
X028400Y045450D02*
X028200Y045850D01*
X028600D01*
X028400Y045450D01*
X029300Y047750D02*
X029100Y048150D01*
X029500D01*
X029300Y047750D01*
X024750Y047000D02*
X024550Y047400D01*
X024950D01*
X024750Y047000D01*
X032950Y043100D02*
X032750Y043500D01*
X033150D01*
X032950Y043100D01*
X027650Y043200D02*
X027450Y043600D01*
X027850D01*
X027650Y043200D01*
X029000Y039450D02*
X028800Y039850D01*
X029200D01*
X029000Y039450D01*
X032700Y035600D02*
X032500Y036000D01*
X032900D01*
X032700Y035600D01*
X036000Y035500D02*
X035800Y035900D01*
X036200D01*
X036000Y035500D01*
X027350Y036500D02*
X027150Y036900D01*
X027550D01*
X027350Y036500D01*
X024850Y036450D02*
X024650Y036850D01*
X025050D01*
X024850Y036450D01*
X024700Y035350D02*
X024500Y035750D01*
X024900D01*
X024700Y035350D01*
X034900Y035950D02*
X034700Y036350D01*
X035100D01*
X034900Y035950D01*
X028850Y046700D02*
X028650Y047100D01*
X029050D01*
X028850Y046700D01*
X032050Y036400D02*
X031850Y036800D01*
X032250D01*
X032050Y036400D01*
X033300Y033150D02*
X033100Y033550D01*
X033500D01*
X033300Y033150D01*
X031250Y033100D02*
X031050Y033500D01*
X031450D01*
X031250Y033100D01*
X035340Y033410D02*
X035460Y033530D01*
X035580D01*
X035460Y033650D01*
X035580Y033770D01*
X035460D01*
X035340Y033890D01*
X035220Y033770D01*
X035100D01*
X035220Y033650D01*
X035100Y033530D01*
X035220D01*
X035340Y033410D01*
Y032210D02*
X035100Y032690D01*
X035580D01*
X035340Y032210D01*
X035100Y029810D02*
Y030290D01*
X035580D01*
Y029810D01*
X035100D01*
D67*
X030990Y037250D02*
G03*
X030990Y037250I-000200J000000D01*
G01*
X032210D02*
G03*
X032210Y037250I-000200J000000D01*
G01*
X034350Y039790D02*
G03*
X034350Y039790I-000200J000000D01*
G01*
Y041010D02*
G03*
X034350Y041010I-000200J000000D01*
G01*
D68*
X035580Y035390D02*
X035460Y035510D01*
X035220D01*
X035100Y035390D01*
Y035270D01*
X035220Y035150D01*
X035460D01*
X035580Y035030D01*
Y034910D01*
X035460Y034790D01*
X035220D01*
X035100Y034910D01*
X035820Y035270D02*
Y034910D01*
X035940Y034790D01*
X036300D01*
Y034670D01*
X036180Y034550D01*
X036060D01*
X036300Y034790D02*
Y035270D01*
X036540Y034790D02*
Y035270D01*
X036660D01*
X036779Y035150D01*
Y034790D01*
Y035150D01*
X036899Y035270D01*
X037019Y035150D01*
Y034790D01*
X037259Y035510D02*
Y034790D01*
X037619D01*
X037739Y034910D01*
Y035030D01*
Y035150D01*
X037619Y035270D01*
X037259D01*
X038099Y034790D02*
X038339D01*
X038459Y034910D01*
Y035150D01*
X038339Y035270D01*
X038099D01*
X037979Y035150D01*
Y034910D01*
X038099Y034790D01*
X038699D02*
X038939D01*
X038819D01*
Y035510D01*
X038699D01*
X040139D02*
Y034790D01*
Y035150D01*
X040619D01*
Y035510D01*
Y034790D01*
X040859D02*
X041098D01*
X040978D01*
Y035270D01*
X040859D01*
X041578Y035390D02*
Y035270D01*
X041458D01*
X041698D01*
X041578D01*
Y034910D01*
X041698Y034790D01*
X043258Y035390D02*
X043138Y035510D01*
X042898D01*
X042778Y035390D01*
Y034910D01*
X042898Y034790D01*
X043138D01*
X043258Y034910D01*
X043618Y034790D02*
X043858D01*
X043978Y034910D01*
Y035150D01*
X043858Y035270D01*
X043618D01*
X043498Y035150D01*
Y034910D01*
X043618Y034790D01*
X044217Y035270D02*
Y034910D01*
X044337Y034790D01*
X044697D01*
Y035270D01*
X044937Y034790D02*
Y035270D01*
X045297D01*
X045417Y035150D01*
Y034790D01*
X045777Y035390D02*
Y035270D01*
X045657D01*
X045897D01*
X045777D01*
Y034910D01*
X045897Y034790D01*
X047577Y035510D02*
X047097D01*
Y035150D01*
X047337D01*
X047097D01*
Y034790D01*
X047817D02*
X048057D01*
X047937D01*
Y035270D01*
X047817D01*
X048416Y034790D02*
Y035270D01*
X048776D01*
X048896Y035150D01*
Y034790D01*
X049136D02*
X049376D01*
X049256D01*
Y035270D01*
X049136D01*
X049736Y034790D02*
X050096D01*
X050216Y034910D01*
X050096Y035030D01*
X049856D01*
X049736Y035150D01*
X049856Y035270D01*
X050216D01*
X050456Y035510D02*
Y034790D01*
Y035150D01*
X050576Y035270D01*
X050816D01*
X050936Y035150D01*
Y034790D01*
X051535D02*
X051296D01*
X051176Y034910D01*
Y035150D01*
X051296Y035270D01*
X051535D01*
X051655Y035150D01*
Y035030D01*
X051176D01*
X052375Y035510D02*
Y034790D01*
X052015D01*
X051895Y034910D01*
Y035150D01*
X052015Y035270D01*
X052375D01*
X053335Y035510D02*
Y034790D01*
Y035150D01*
X053815D01*
Y035510D01*
Y034790D01*
X054175D02*
X054415D01*
X054534Y034910D01*
Y035150D01*
X054415Y035270D01*
X054175D01*
X054055Y035150D01*
Y034910D01*
X054175Y034790D01*
X054774D02*
X055014D01*
X054894D01*
Y035510D01*
X054774D01*
X055734Y034790D02*
X055494D01*
X055374Y034910D01*
Y035150D01*
X055494Y035270D01*
X055734D01*
X055854Y035150D01*
Y035030D01*
X055374D01*
X057294Y035390D02*
X057174Y035510D01*
X056934D01*
X056814Y035390D01*
Y035270D01*
X056934Y035150D01*
X057174D01*
X057294Y035030D01*
Y034910D01*
X057174Y034790D01*
X056934D01*
X056814Y034910D01*
X057534Y034790D02*
X057773D01*
X057653D01*
Y035270D01*
X057534D01*
X058133D02*
X058613D01*
X058133Y034790D01*
X058613D01*
X059213D02*
X058973D01*
X058853Y034910D01*
Y035150D01*
X058973Y035270D01*
X059213D01*
X059333Y035150D01*
Y035030D01*
X058853D01*
X060533Y034790D02*
Y035510D01*
X060893D01*
X061013Y035390D01*
Y035150D01*
X060893Y035030D01*
X060533D01*
X061253Y034790D02*
X061493D01*
X061373D01*
Y035510D01*
X061253D01*
X061972Y035270D02*
X062212D01*
X062332Y035150D01*
Y034790D01*
X061972D01*
X061853Y034910D01*
X061972Y035030D01*
X062332D01*
X062692Y035390D02*
Y035270D01*
X062572D01*
X062812D01*
X062692D01*
Y034910D01*
X062812Y034790D01*
X063532D02*
X063292D01*
X063172Y034910D01*
Y035150D01*
X063292Y035270D01*
X063532D01*
X063652Y035150D01*
Y035030D01*
X063172D01*
X064372Y035510D02*
Y034790D01*
X064012D01*
X063892Y034910D01*
Y035150D01*
X064012Y035270D01*
X064372D01*
X065572Y035510D02*
Y034790D01*
Y035150D01*
X066052D01*
Y035510D01*
Y034790D01*
X066411D02*
X066651D01*
X066771Y034910D01*
Y035150D01*
X066651Y035270D01*
X066411D01*
X066291Y035150D01*
Y034910D01*
X066411Y034790D01*
X067011D02*
X067251D01*
X067131D01*
Y035510D01*
X067011D01*
X067971Y034790D02*
X067731D01*
X067611Y034910D01*
Y035150D01*
X067731Y035270D01*
X067971D01*
X068091Y035150D01*
Y035030D01*
X067611D01*
X069051Y035510D02*
X069530D01*
X069290D01*
Y034790D01*
X069770Y035270D02*
Y034910D01*
X069890Y034790D01*
X070250D01*
Y034670D01*
X070130Y034550D01*
X070010D01*
X070250Y034790D02*
Y035270D01*
X070490Y034550D02*
Y035270D01*
X070850D01*
X070970Y035150D01*
Y034910D01*
X070850Y034790D01*
X070490D01*
X071570D02*
X071330D01*
X071210Y034910D01*
Y035150D01*
X071330Y035270D01*
X071570D01*
X071690Y035150D01*
Y035030D01*
X071210D01*
X034220Y035870D02*
X072890D01*
X034220Y034250D02*
X072890D01*
X034220Y035870D02*
Y028250D01*
X072890Y035870D02*
Y028250D01*
X039699Y035870D02*
Y028250D01*
X046657Y035870D02*
Y028250D01*
X060093Y035870D02*
Y028250D01*
X065132Y035870D02*
Y028250D01*
X034220Y029450D02*
X072890D01*
X034220Y028250D02*
X072890D01*
M02*
