%FSAX24Y24*%
%MOIN*%
G70*
G01*
G75*
G04 Layer_Color=128*
%ADD10R,0.0551X0.0433*%
%ADD11R,0.0433X0.0551*%
%ADD12R,0.1024X0.0945*%
%ADD13O,0.0118X0.0709*%
%ADD14O,0.0709X0.0118*%
%ADD15O,0.0591X0.0236*%
%ADD16O,0.0354X0.0118*%
%ADD17O,0.0118X0.0354*%
%ADD18R,0.1024X0.1024*%
%ADD19R,0.0197X0.0925*%
%ADD20R,0.0925X0.0984*%
%ADD21R,0.0787X0.0866*%
%ADD22R,0.0118X0.0177*%
%ADD23R,0.0177X0.0118*%
%ADD24R,0.0236X0.0126*%
%ADD25R,0.0126X0.0236*%
%ADD26R,0.0591X0.0591*%
%ADD27O,0.0984X0.0276*%
%ADD28C,0.0080*%
%ADD29C,0.0591*%
%ADD30R,0.0591X0.0591*%
%ADD31C,0.0512*%
%ADD32C,0.0240*%
%ADD33C,0.0260*%
%ADD34C,0.0098*%
%ADD35C,0.0079*%
%ADD36C,0.0236*%
%ADD37C,0.0020*%
%ADD38C,0.0100*%
%ADD39R,0.0631X0.0513*%
%ADD40R,0.0513X0.0631*%
%ADD41R,0.1104X0.1025*%
%ADD42O,0.0198X0.0789*%
%ADD43O,0.0789X0.0198*%
%ADD44O,0.0671X0.0316*%
%ADD45O,0.0434X0.0198*%
%ADD46O,0.0198X0.0434*%
%ADD47R,0.1104X0.1104*%
%ADD48R,0.0277X0.1005*%
%ADD49R,0.1005X0.1064*%
%ADD50R,0.0867X0.0946*%
%ADD51R,0.0198X0.0257*%
%ADD52R,0.0257X0.0198*%
%ADD53R,0.0316X0.0206*%
%ADD54R,0.0206X0.0316*%
%ADD55R,0.0671X0.0671*%
%ADD56O,0.1064X0.0356*%
%ADD57C,0.0671*%
%ADD58R,0.0671X0.0671*%
%ADD59C,0.0592*%
%ADD60C,0.0320*%
%ADD61C,0.0340*%
D10*
X038000Y044755D02*
D03*
Y045345D02*
D03*
D11*
X024145Y042200D02*
D03*
X023555D02*
D03*
X033445Y036850D02*
D03*
X032855D02*
D03*
X034495Y041750D02*
D03*
X033905D02*
D03*
X034395Y039000D02*
D03*
X033805D02*
D03*
X033445Y037600D02*
D03*
X032855D02*
D03*
X037545Y046400D02*
D03*
X036955D02*
D03*
X036345D02*
D03*
X035755D02*
D03*
X034705Y045350D02*
D03*
X035295D02*
D03*
X034705Y044650D02*
D03*
X035295D02*
D03*
X036455Y044250D02*
D03*
X037045D02*
D03*
M02*
