%FSAX24Y24*%
%MOIN*%
G70*
G01*
G75*
G04 Layer_Color=128*
%ADD10O,0.0118X0.0709*%
%ADD11O,0.0709X0.0118*%
%ADD12R,0.0472X0.0551*%
%ADD13R,0.0512X0.0591*%
%ADD14R,0.1024X0.0945*%
%ADD15O,0.0591X0.0236*%
%ADD16R,0.0197X0.0925*%
%ADD17R,0.0925X0.0984*%
%ADD18R,0.0787X0.0866*%
%ADD19R,0.0591X0.0591*%
%ADD20O,0.0984X0.0276*%
%ADD21R,0.0114X0.0177*%
%ADD22R,0.0177X0.0114*%
%ADD23R,0.0126X0.0354*%
%ADD24R,0.0315X0.0114*%
%ADD25O,0.0354X0.0116*%
%ADD26O,0.0116X0.0354*%
%ADD27R,0.0551X0.0472*%
%ADD28R,0.0591X0.0512*%
%ADD29C,0.0080*%
%ADD30C,0.0200*%
%ADD31C,0.0512*%
%ADD32C,0.0591*%
%ADD33R,0.0591X0.0591*%
%ADD34C,0.0280*%
%ADD35R,0.0551X0.0433*%
%ADD36C,0.0100*%
%ADD37C,0.0079*%
%ADD38C,0.0236*%
%ADD39C,0.0098*%
%ADD40O,0.0278X0.0869*%
%ADD41O,0.0869X0.0278*%
%ADD42R,0.0632X0.0711*%
%ADD43R,0.0672X0.0751*%
%ADD44R,0.1184X0.1105*%
%ADD45O,0.0751X0.0396*%
%ADD46R,0.0357X0.1085*%
%ADD47R,0.1085X0.1144*%
%ADD48R,0.0947X0.1026*%
%ADD49R,0.0751X0.0751*%
%ADD50O,0.1144X0.0436*%
%ADD51R,0.0274X0.0337*%
%ADD52R,0.0337X0.0274*%
%ADD53R,0.0286X0.0514*%
%ADD54R,0.0475X0.0274*%
%ADD55O,0.0514X0.0276*%
%ADD56O,0.0276X0.0514*%
%ADD57R,0.0711X0.0632*%
%ADD58R,0.0751X0.0672*%
%ADD59C,0.0672*%
%ADD60C,0.0751*%
%ADD61R,0.0751X0.0751*%
%ADD62C,0.0440*%
%ADD63R,0.0711X0.0593*%
D12*
X037704Y046500D02*
D03*
X036996D02*
D03*
X036504Y047400D02*
D03*
X035796D02*
D03*
X024204Y042200D02*
D03*
X023496D02*
D03*
D13*
X035335Y045450D02*
D03*
X034665D02*
D03*
X033765Y039000D02*
D03*
X034435D02*
D03*
X033865Y041750D02*
D03*
X034535D02*
D03*
X032815Y036750D02*
D03*
X033485D02*
D03*
X032815Y037600D02*
D03*
X033485D02*
D03*
X037085Y044250D02*
D03*
X036415D02*
D03*
X035335Y044600D02*
D03*
X034665D02*
D03*
D35*
X038000Y044755D02*
D03*
Y045345D02*
D03*
M02*
