%FSAX24Y24*%
%MOIN*%
G70*
G01*
G75*
G04 Layer_Color=8388736*
%ADD10O,0.0118X0.0709*%
%ADD11O,0.0709X0.0118*%
%ADD12R,0.0472X0.0551*%
%ADD13R,0.0512X0.0591*%
%ADD14R,0.1024X0.0945*%
%ADD15O,0.0591X0.0236*%
%ADD16R,0.0197X0.0925*%
%ADD17R,0.0925X0.0984*%
%ADD18R,0.0787X0.0866*%
%ADD19R,0.0591X0.0591*%
%ADD20O,0.0984X0.0276*%
%ADD21R,0.0114X0.0177*%
%ADD22R,0.0177X0.0114*%
%ADD23R,0.0126X0.0354*%
%ADD24R,0.0315X0.0114*%
%ADD25O,0.0354X0.0116*%
%ADD26O,0.0116X0.0354*%
%ADD27R,0.0551X0.0472*%
%ADD28R,0.0591X0.0512*%
%ADD29C,0.0080*%
%ADD30C,0.0200*%
%ADD31C,0.0512*%
%ADD32C,0.0591*%
%ADD33R,0.0591X0.0591*%
%ADD34C,0.0280*%
%ADD35R,0.0551X0.0433*%
%ADD36C,0.0100*%
%ADD37C,0.0079*%
%ADD38C,0.0236*%
%ADD39C,0.0098*%
%ADD40O,0.0278X0.0869*%
%ADD41O,0.0869X0.0278*%
%ADD42R,0.0632X0.0711*%
%ADD43R,0.0672X0.0751*%
%ADD44R,0.1184X0.1105*%
%ADD45O,0.0751X0.0396*%
%ADD46R,0.0357X0.1085*%
%ADD47R,0.1085X0.1144*%
%ADD48R,0.0947X0.1026*%
%ADD49R,0.0751X0.0751*%
%ADD50O,0.1144X0.0436*%
%ADD51R,0.0274X0.0337*%
%ADD52R,0.0337X0.0274*%
%ADD53R,0.0286X0.0514*%
%ADD54R,0.0475X0.0274*%
%ADD55O,0.0514X0.0276*%
%ADD56O,0.0276X0.0514*%
%ADD57R,0.0711X0.0632*%
%ADD58R,0.0751X0.0672*%
%ADD59C,0.0672*%
%ADD60C,0.0751*%
%ADD61R,0.0751X0.0751*%
%ADD62C,0.0440*%
D40*
X028774Y043285D02*
D03*
X028970D02*
D03*
X029167D02*
D03*
X029364D02*
D03*
X029561D02*
D03*
X029758D02*
D03*
X029955D02*
D03*
X030152D02*
D03*
X030348D02*
D03*
X030545D02*
D03*
X030742D02*
D03*
X030939D02*
D03*
X031136D02*
D03*
X031333D02*
D03*
X031530D02*
D03*
X031726D02*
D03*
Y038915D02*
D03*
X031530D02*
D03*
X031333D02*
D03*
X031136D02*
D03*
X030939D02*
D03*
X030742D02*
D03*
X030545D02*
D03*
X030348D02*
D03*
X030152D02*
D03*
X029955D02*
D03*
X029758D02*
D03*
X029561D02*
D03*
X029364D02*
D03*
X029167D02*
D03*
X028970D02*
D03*
X028774D02*
D03*
D41*
X032435Y042576D02*
D03*
Y042380D02*
D03*
Y042183D02*
D03*
Y041986D02*
D03*
Y041789D02*
D03*
Y041592D02*
D03*
Y041395D02*
D03*
Y041198D02*
D03*
Y041002D02*
D03*
Y040805D02*
D03*
Y040608D02*
D03*
Y040411D02*
D03*
Y040214D02*
D03*
Y040017D02*
D03*
Y039820D02*
D03*
Y039624D02*
D03*
X028065D02*
D03*
Y039820D02*
D03*
Y040017D02*
D03*
Y040214D02*
D03*
Y040411D02*
D03*
Y040608D02*
D03*
Y040805D02*
D03*
Y041002D02*
D03*
Y041198D02*
D03*
Y041395D02*
D03*
Y041592D02*
D03*
Y041789D02*
D03*
Y041986D02*
D03*
Y042183D02*
D03*
Y042380D02*
D03*
Y042576D02*
D03*
D42*
X027354Y043250D02*
D03*
X026646D02*
D03*
X024054Y037900D02*
D03*
X023346D02*
D03*
X032346Y032850D02*
D03*
X033054D02*
D03*
X033004Y033800D02*
D03*
X032296D02*
D03*
X032296Y034850D02*
D03*
X033004D02*
D03*
X023404Y044400D02*
D03*
X022696D02*
D03*
X027004Y034550D02*
D03*
X026296D02*
D03*
X027004Y033150D02*
D03*
X026296D02*
D03*
X037904Y033100D02*
D03*
X037196D02*
D03*
X027004Y033850D02*
D03*
X026296D02*
D03*
X037904D02*
D03*
X037196D02*
D03*
X037904Y034550D02*
D03*
X037196D02*
D03*
X027004Y032450D02*
D03*
X026296D02*
D03*
X037904Y032350D02*
D03*
X037196D02*
D03*
X021796Y034850D02*
D03*
X022504D02*
D03*
X021796Y032850D02*
D03*
X022504D02*
D03*
Y033800D02*
D03*
X021796D02*
D03*
X024054Y037150D02*
D03*
X023346D02*
D03*
D43*
X021165Y044300D02*
D03*
X021835D02*
D03*
X026985Y035400D02*
D03*
X026315D02*
D03*
X037215Y035250D02*
D03*
X037885D02*
D03*
X029515Y037650D02*
D03*
X030185D02*
D03*
X029515Y036750D02*
D03*
X030185D02*
D03*
X028215Y046000D02*
D03*
X028885D02*
D03*
X026135Y046400D02*
D03*
X025465D02*
D03*
X033015Y048800D02*
D03*
X033685D02*
D03*
D44*
X025010Y048250D02*
D03*
X022490D02*
D03*
D45*
X022346Y046650D02*
D03*
Y046150D02*
D03*
Y045650D02*
D03*
Y045150D02*
D03*
X024354Y046650D02*
D03*
Y046150D02*
D03*
Y045650D02*
D03*
Y045150D02*
D03*
D46*
X037065Y045129D02*
D03*
X037380D02*
D03*
X036750D02*
D03*
X036435D02*
D03*
X036120Y045130D02*
D03*
D47*
X038787Y046497D02*
D03*
X034713D02*
D03*
X038787Y048171D02*
D03*
X034713D02*
D03*
D48*
X032459Y046100D02*
D03*
X033641D02*
D03*
D49*
X021361Y043400D02*
D03*
X022739D02*
D03*
X033600Y044600D02*
D03*
X028600Y035800D02*
D03*
X038100Y043100D02*
D03*
D50*
X025315Y031350D02*
D03*
Y031850D02*
D03*
Y032350D02*
D03*
Y032850D02*
D03*
Y033350D02*
D03*
Y033850D02*
D03*
Y034350D02*
D03*
Y034850D02*
D03*
X023385Y031350D02*
D03*
Y031850D02*
D03*
Y032350D02*
D03*
Y032850D02*
D03*
Y033350D02*
D03*
Y033850D02*
D03*
Y034350D02*
D03*
Y034850D02*
D03*
X035965Y031350D02*
D03*
Y031850D02*
D03*
Y032350D02*
D03*
Y032850D02*
D03*
Y033350D02*
D03*
Y033850D02*
D03*
Y034350D02*
D03*
Y034850D02*
D03*
X034035Y031350D02*
D03*
Y031850D02*
D03*
Y032350D02*
D03*
Y032850D02*
D03*
Y033350D02*
D03*
Y033850D02*
D03*
Y034350D02*
D03*
Y034850D02*
D03*
D51*
X029857Y047257D02*
D03*
X030054D02*
D03*
X030250D02*
D03*
X030447D02*
D03*
Y046253D02*
D03*
X030250D02*
D03*
X030054D02*
D03*
X029857D02*
D03*
D52*
X030654Y047050D02*
D03*
Y046853D02*
D03*
Y046656D02*
D03*
Y046459D02*
D03*
X029650D02*
D03*
Y046656D02*
D03*
Y046853D02*
D03*
Y047050D02*
D03*
D53*
X030322Y048034D02*
D03*
Y048979D02*
D03*
D54*
X030795Y048900D02*
D03*
Y048703D02*
D03*
Y048506D02*
D03*
Y048309D02*
D03*
Y048113D02*
D03*
X029850Y048900D02*
D03*
Y048703D02*
D03*
Y048506D02*
D03*
Y048309D02*
D03*
Y048113D02*
D03*
D55*
X027043Y048492D02*
D03*
Y048295D02*
D03*
Y048098D02*
D03*
Y047902D02*
D03*
Y047705D02*
D03*
Y047508D02*
D03*
X028657D02*
D03*
Y047705D02*
D03*
Y047902D02*
D03*
Y048098D02*
D03*
Y048295D02*
D03*
Y048492D02*
D03*
D56*
X027358Y047193D02*
D03*
X027555D02*
D03*
X027752D02*
D03*
X027948D02*
D03*
X028145D02*
D03*
X028342D02*
D03*
Y048807D02*
D03*
X028145D02*
D03*
X027948D02*
D03*
X027752D02*
D03*
X027555D02*
D03*
X027358D02*
D03*
D57*
X024850Y037396D02*
D03*
Y038104D02*
D03*
D58*
X027350Y037535D02*
D03*
Y036865D02*
D03*
X028250Y037535D02*
D03*
Y036865D02*
D03*
X032050Y048735D02*
D03*
Y048065D02*
D03*
X031500Y047085D02*
D03*
Y046415D02*
D03*
X027100Y046235D02*
D03*
Y045565D02*
D03*
D59*
X034150Y039790D02*
D03*
Y041010D02*
D03*
X030790Y037250D02*
D03*
X032010D02*
D03*
D60*
X026600Y044600D02*
D03*
X027600D02*
D03*
X028600D02*
D03*
X029600D02*
D03*
X030600D02*
D03*
X031600D02*
D03*
X032600D02*
D03*
X025900Y040900D02*
D03*
Y039900D02*
D03*
Y038900D02*
D03*
Y037900D02*
D03*
X025250Y043200D02*
D03*
X035500Y043550D02*
D03*
Y042550D02*
D03*
Y041550D02*
D03*
Y040550D02*
D03*
Y039550D02*
D03*
X029600Y035800D02*
D03*
X030600D02*
D03*
X031600D02*
D03*
X021450Y037300D02*
D03*
X022450Y038300D02*
D03*
X021450D02*
D03*
X022450Y039300D02*
D03*
X021450D02*
D03*
X022450Y040300D02*
D03*
X021450D02*
D03*
X022450Y041300D02*
D03*
X021450D02*
D03*
X021250Y047800D02*
D03*
X021300Y045250D02*
D03*
X038100Y041150D02*
D03*
X037100Y040150D02*
D03*
X038100D02*
D03*
X037100Y039150D02*
D03*
X038100D02*
D03*
X037100Y038150D02*
D03*
X038100D02*
D03*
X037100Y043100D02*
D03*
X024650Y039300D02*
D03*
X023650D02*
D03*
X024650Y040300D02*
D03*
X023650D02*
D03*
X024650Y041300D02*
D03*
D61*
X025900Y041900D02*
D03*
X025250Y044200D02*
D03*
X035500Y038550D02*
D03*
X022450Y037300D02*
D03*
X021250Y048800D02*
D03*
X021300Y046250D02*
D03*
X037100Y041150D02*
D03*
X023650Y041300D02*
D03*
D62*
X035950Y045950D02*
D03*
X037704Y045780D02*
D03*
X032910Y035430D02*
D03*
X024100Y034700D02*
D03*
X036610Y034550D02*
D03*
X024800Y035210D02*
D03*
X035240Y035710D02*
D03*
X031430Y048506D02*
D03*
X026210Y031900D02*
D03*
X021431Y042456D02*
D03*
X025670Y047320D02*
D03*
X029030Y047080D02*
D03*
X035260Y033660D02*
D03*
X030230Y039490D02*
D03*
X034729Y040056D02*
D03*
X028430Y044090D02*
D03*
X036620Y037340D02*
D03*
X035560Y037680D02*
D03*
X031870Y040017D02*
D03*
X032730Y039160D02*
D03*
X031932Y038146D02*
D03*
X031060Y040010D02*
D03*
X020950Y036340D02*
D03*
X035080Y049210D02*
D03*
X028145D02*
D03*
X032430Y043640D02*
D03*
X030980Y046910D02*
D03*
X029480Y048450D02*
D03*
X035260Y031350D02*
D03*
X027240Y031190D02*
D03*
X029900Y041040D02*
D03*
X035080Y042020D02*
D03*
X035110Y033190D02*
D03*
X027190Y031910D02*
D03*
X028920Y036910D02*
D03*
X027710Y034400D02*
D03*
X032296D02*
D03*
X028530Y046790D02*
D03*
X030447Y045980D02*
D03*
X031350D02*
D03*
X029880Y047537D02*
D03*
X026740Y047090D02*
D03*
X036800Y031910D02*
D03*
X036720Y033850D02*
D03*
X024100Y033730D02*
D03*
X025580Y035210D02*
D03*
X021740Y042190D02*
D03*
X030600Y038120D02*
D03*
X026930Y038320D02*
D03*
X025220Y038960D02*
D03*
X028640Y042130D02*
D03*
X034190Y044400D02*
D03*
X027500Y041060D02*
D03*
X031300Y038070D02*
D03*
X031710Y041500D02*
D03*
X034970Y038360D02*
D03*
X030711Y044090D02*
D03*
X024820Y031010D02*
D03*
X036990Y031330D02*
D03*
X028760Y040411D02*
D03*
X036750Y043570D02*
D03*
X030800Y039680D02*
D03*
X032760Y045440D02*
D03*
X032013Y045450D02*
D03*
X037670Y036960D02*
D03*
X029050Y048020D02*
D03*
X033020Y047400D02*
D03*
X034700Y036550D02*
D03*
X026440Y041789D02*
D03*
X024470Y043630D02*
D03*
X029990Y043990D02*
D03*
X033000Y040480D02*
D03*
X035000Y042430D02*
D03*
X030680Y042720D02*
D03*
X028920Y042550D02*
D03*
X029620Y047821D02*
D03*
X030790D02*
D03*
X026135Y047800D02*
D03*
X028803Y043929D02*
D03*
X036435Y046875D02*
D03*
X026180Y043050D02*
D03*
M02*
