%FSAX24Y24*%
%MOIN*%
G70*
G01*
G75*
G04 Layer_Physical_Order=2*
G04 Layer_Color=16711680*
%ADD10R,0.0512X0.0591*%
%ADD11R,0.0591X0.0512*%
%ADD12R,0.0472X0.0551*%
%ADD13R,0.0551X0.0472*%
%ADD14O,0.0116X0.0354*%
%ADD15O,0.0354X0.0116*%
%ADD16R,0.0315X0.0114*%
%ADD17R,0.0126X0.0354*%
%ADD18R,0.0177X0.0114*%
%ADD19R,0.0114X0.0177*%
%ADD20O,0.0984X0.0276*%
%ADD21R,0.0591X0.0591*%
%ADD22R,0.0787X0.0866*%
%ADD23R,0.0197X0.0925*%
%ADD24R,0.0925X0.0984*%
%ADD25O,0.0591X0.0236*%
%ADD26O,0.0709X0.0118*%
%ADD27O,0.0118X0.0709*%
%ADD28R,0.1024X0.0945*%
%ADD29C,0.0080*%
%ADD30C,0.0591*%
%ADD31R,0.0591X0.0591*%
%ADD32C,0.0512*%
%ADD33C,0.0280*%
%ADD34R,0.0551X0.0433*%
D10*
X034665Y044600D02*
D03*
X035335D02*
D03*
X034665Y045450D02*
D03*
X035335D02*
D03*
X036415Y044250D02*
D03*
X037085D02*
D03*
X033485Y037600D02*
D03*
X032815D02*
D03*
X033485Y036850D02*
D03*
X032815D02*
D03*
X034535Y041750D02*
D03*
X033865D02*
D03*
X034435Y039000D02*
D03*
X033765D02*
D03*
D12*
X023496Y042200D02*
D03*
X024204D02*
D03*
X035796Y047400D02*
D03*
X036504D02*
D03*
X036996Y046500D02*
D03*
X037704D02*
D03*
D21*
X033600Y044600D02*
D03*
X038100Y043100D02*
D03*
X028600Y035800D02*
D03*
D29*
X024204Y042846D02*
Y043264D01*
X027940Y034960D02*
X034140D01*
X026330D02*
X027940D01*
X034535Y040800D02*
Y041315D01*
Y039000D02*
Y040800D01*
Y041315D02*
Y041750D01*
X028630Y047040D02*
X029140Y047550D01*
X028310Y046720D02*
X028630Y047040D01*
X021770Y046720D02*
X023950Y048900D01*
X027203Y041516D02*
X028878D01*
X036415Y044500D02*
Y044640D01*
Y044250D02*
Y044500D01*
X035980D02*
X036415D01*
X030820Y047210D02*
X031050D01*
X031190Y036850D02*
X031780D01*
X029520Y045837D02*
Y047290D01*
Y045300D02*
Y045837D01*
X027190Y049050D02*
X027360Y049220D01*
X024480Y033110D02*
X026330Y034960D01*
X034140D02*
X035000Y034100D01*
X024650Y041300D02*
X024670Y041320D01*
X026720D01*
X026916Y041516D01*
X027203D01*
X027580Y041139D01*
Y038730D02*
Y041139D01*
X034435Y038080D02*
Y039000D01*
Y038080D02*
X036235Y036215D01*
X037485D01*
X034023Y040289D02*
X034535Y040800D01*
X030105Y040289D02*
X034023D01*
X028878Y041516D02*
X030105Y040289D01*
X021770Y046720D02*
X028310D01*
X029140Y047550D02*
X030042D01*
X030490Y047998D01*
X031572D01*
X031680Y047170D01*
X030730Y046220D02*
X031680Y047170D01*
X031420Y045340D02*
X032350Y046270D01*
X036060D01*
X036370Y045960D01*
X036800D01*
X036996Y046156D01*
Y046500D01*
X024650Y039300D02*
X025550Y038400D01*
X025993D01*
X026313Y038720D01*
Y040310D01*
X026193Y040430D02*
X026313Y040310D01*
X025320Y040430D02*
X026193D01*
X024863Y040887D02*
X025320Y040430D01*
X024470Y040887D02*
X024863D01*
X024237Y041120D02*
X024470Y040887D01*
X024237Y041120D02*
Y041507D01*
X024450Y041720D01*
X025220D01*
X025460Y041480D01*
X026473D01*
X026783Y041790D01*
X028710D01*
X031990Y038170D02*
Y039680D01*
X031590Y040080D02*
X031990Y039680D01*
X029670Y040080D02*
X031590D01*
X029582Y040168D02*
X029670Y040080D01*
X028160Y040168D02*
X029582D01*
X027838Y039846D02*
X028160Y040168D01*
X027838Y038560D02*
Y039846D01*
X027748Y038470D02*
X027838Y038560D01*
X027410Y038470D02*
X027748D01*
X027320Y038560D02*
X027410Y038470D01*
X027320Y038560D02*
Y040140D01*
X027380Y040200D01*
Y040730D01*
X027080Y041030D02*
X027380Y040730D01*
X027080Y041030D02*
Y041190D01*
X026860Y036550D02*
Y040840D01*
X022660Y032350D02*
X026860Y036550D01*
X022240Y032920D02*
X022670Y033350D01*
X022240Y031870D02*
Y032920D01*
Y031870D02*
X022880Y031230D01*
X027408D01*
X030597Y034419D01*
X031029D01*
X031780Y036850D02*
X032815D01*
X031460Y037170D02*
X031780Y036850D01*
X031460Y037170D02*
Y039730D01*
X034970Y039810D02*
X035130Y039970D01*
X035731D01*
X036240Y039461D01*
X036571D01*
X036680Y039570D01*
X037680D01*
X038100Y039150D01*
X034693Y040093D02*
X034830Y040230D01*
X034693Y039587D02*
Y040093D01*
Y039587D02*
X035230Y039050D01*
X036710D01*
X037100Y039150D01*
X031860Y042040D02*
X032957Y043137D01*
X035747D01*
X036180Y043570D01*
X030090Y042660D02*
X030600Y043170D01*
Y044600D01*
X025250Y044200D02*
X026130Y045080D01*
X027110D01*
X024160Y035590D02*
X024480D01*
X022450Y037300D02*
X024160Y035590D01*
X024470Y042910D02*
X024480D01*
X024760Y042630D01*
X028260D01*
X028540Y042350D01*
X029600D01*
X029688Y042438D01*
Y043848D01*
X030020Y044180D01*
Y044800D01*
X029520Y045300D02*
X030020Y044800D01*
X030483Y047693D02*
X030795D01*
X030080Y047290D02*
X030483Y047693D01*
X029520Y047290D02*
X030080D01*
X026050Y049160D02*
X026200Y049010D01*
X023327Y049160D02*
X026050D01*
X020887Y046720D02*
X023327Y049160D01*
X020887Y045837D02*
Y046720D01*
Y045837D02*
X029520D01*
X024900Y035460D02*
X025060Y035620D01*
Y037480D01*
X024240Y038300D02*
X025060Y037480D01*
X022450Y038300D02*
X024240D01*
X021037Y037887D02*
X021450Y038300D01*
X021037Y037103D02*
Y037887D01*
Y037103D02*
X021250Y036890D01*
Y031610D02*
Y036890D01*
Y031610D02*
X021860Y031000D01*
X032200Y031130D02*
X036640D01*
X031970Y031360D02*
X032200Y031130D01*
X031970Y031360D02*
Y032500D01*
X033000Y033530D01*
X035260D01*
X032230Y031600D02*
X032370Y031460D01*
X036230D01*
X038960Y034190D01*
Y047680D01*
X038484Y048156D02*
X038960Y047680D01*
X029860Y048156D02*
X038484D01*
X029860Y047830D02*
Y048156D01*
X021450Y039300D02*
Y039610D01*
X021870Y040030D01*
Y040320D01*
X022270Y040720D01*
X022630D01*
X022870Y040480D01*
Y039290D02*
Y040480D01*
Y039290D02*
X023360Y038800D01*
X023990D01*
X025440Y037350D01*
X025900D01*
X027860Y035520D02*
Y037900D01*
Y035520D02*
X028160Y035220D01*
X034430D01*
X035300Y034350D01*
X020790Y030840D02*
Y031310D01*
X020720Y031380D02*
X020790Y031310D01*
X020720Y031380D02*
Y040570D01*
X021450Y041300D01*
X027020Y048880D02*
X027190Y049050D01*
X028800D01*
X028960Y048890D01*
Y048730D02*
Y048890D01*
Y048730D02*
X029860Y047830D01*
X033865Y041295D02*
Y041750D01*
Y041295D02*
X034150Y041010D01*
X033765Y039000D02*
Y039405D01*
X034150Y039790D01*
X032360Y037600D02*
X032815D01*
X032010Y037250D02*
X032360Y037600D01*
X030790Y037250D02*
X031190Y036850D01*
X025820Y032350D02*
X026350Y031820D01*
X022660Y032350D02*
X025820D01*
X026470Y040740D02*
X026471Y040739D01*
Y036631D02*
Y040739D01*
X022400Y032560D02*
X026471Y036631D01*
X022400Y032030D02*
Y032560D01*
Y032030D02*
X022720Y031710D01*
X025980D01*
X032770Y047400D02*
X035796D01*
X030650Y045280D02*
X032770Y047400D01*
X030820Y047210D02*
Y047270D01*
X031050Y047210D02*
X031360Y047520D01*
X028630Y047040D02*
Y048782D01*
X021300Y046250D02*
X021770Y046720D01*
X031170Y049040D02*
X031330D01*
X030990Y049220D02*
X031170Y049040D01*
X027360Y049220D02*
X030990D01*
X029260Y048940D02*
X030852D01*
X031012Y048780D01*
X032550D01*
X032570Y048800D01*
X036420Y039780D02*
X036790Y040150D01*
X037100D01*
X028600Y035800D02*
Y037650D01*
X030750Y039800D01*
X027500Y038046D02*
X027650Y038196D01*
X027792D01*
X029364Y039768D01*
Y039910D01*
X024150Y039800D02*
X024810D01*
X023650Y039300D02*
X024150Y039800D01*
X027120Y035780D02*
X027940Y034960D01*
X027120Y035780D02*
Y040580D01*
X037080Y030690D02*
X037420Y031030D01*
X021084Y030690D02*
X037080D01*
X021050Y030724D02*
X021084Y030690D01*
X021050Y030724D02*
Y036557D01*
X020879Y036729D02*
X021050Y036557D01*
X020879Y036729D02*
Y039729D01*
X021450Y040300D01*
X037310Y031370D02*
Y031530D01*
X036810Y030870D02*
X037310Y031370D01*
X022431Y030870D02*
X036810D01*
X021450Y031851D02*
X022431Y030870D01*
X021450Y031851D02*
Y037300D01*
X021870Y039720D02*
X022450Y040300D01*
X021870Y031680D02*
Y039720D01*
Y031680D02*
X022510Y031040D01*
X027840D01*
X028376Y031576D01*
X032490Y031740D02*
X034820D01*
X032410Y031820D02*
X032490Y031740D01*
X032410Y031820D02*
Y032160D01*
X032570Y032320D01*
X034970D01*
X035520Y032870D01*
Y033682D01*
X035360Y033842D02*
X035520Y033682D01*
X032978Y033842D02*
X035360D01*
X032130Y034690D02*
X032978Y033842D01*
X030070Y034690D02*
X032130D01*
X026870Y031490D02*
X030070Y034690D01*
X026200Y031490D02*
X026870D01*
X025980Y031710D02*
X026200Y031490D01*
X020729Y047279D02*
X021250Y047800D01*
X020729Y044561D02*
Y047279D01*
Y044561D02*
X021440Y043850D01*
X023200D01*
X024204Y042846D01*
Y042200D02*
Y042846D01*
X035260Y034910D02*
X037630D01*
X038040Y034500D01*
X032670Y032050D02*
X036090D01*
X038540Y034500D01*
X029180Y037600D02*
X031110Y039530D01*
X029180Y035480D02*
Y037600D01*
Y035480D02*
X029280Y035380D01*
X031180D01*
X031600Y035800D01*
X033070Y040550D02*
X033438Y040918D01*
Y042073D01*
X033540Y042175D01*
X034875D01*
X035000Y042050D01*
X036381D01*
X037085Y044250D02*
X037401D01*
X037524Y044127D01*
Y041574D02*
Y044127D01*
X037100Y041150D02*
X037524Y041574D01*
X033180Y041760D02*
Y042120D01*
X034039Y042979D01*
X035950D01*
X036071Y043100D01*
X037100D01*
X037085Y043920D02*
Y044250D01*
X036995Y043830D02*
X037085Y043920D01*
X036050Y043830D02*
X036995D01*
X035686Y044194D02*
X036050Y043830D01*
X035686Y044194D02*
Y044514D01*
X035600Y044600D02*
X035686Y044514D01*
X035335Y044600D02*
X035600D01*
X036285Y045345D02*
X038000D01*
X035710Y045920D02*
X036285Y045345D01*
X034910Y045920D02*
X035710D01*
X034665Y045675D02*
X034910Y045920D01*
X034665Y045450D02*
Y045675D01*
X035335Y044180D02*
Y044600D01*
X035133Y043978D02*
X035335Y044180D01*
X032500Y043500D02*
X033600Y044600D01*
X031460Y043500D02*
X032500D01*
X030680Y042720D02*
X031460Y043500D01*
X033190Y045450D02*
X034665D01*
X033100Y045360D02*
X033190Y045450D01*
X033100Y044440D02*
Y045360D01*
X032510Y043850D02*
X033100Y044440D01*
X031070Y043850D02*
X032510D01*
X034980Y040580D02*
X035090Y040470D01*
Y040320D02*
Y040470D01*
Y040320D02*
X035280Y040130D01*
X035920D01*
X036369Y040579D01*
X037671D01*
X038100Y040150D01*
X034890Y040930D02*
X034930Y040970D01*
X036447D01*
X036680Y040737D01*
X038103D01*
X038520Y040320D01*
Y038850D02*
Y040320D01*
X038400Y038730D02*
X038520Y038850D01*
X037680Y038730D02*
X038400D01*
X037100Y038150D02*
X037680Y038730D01*
X034535Y041315D02*
X034654Y041196D01*
X035177D01*
X035243Y041130D01*
X035890D01*
X035910Y041150D01*
X037100D01*
X034435Y039000D02*
X034535D01*
X024079Y040871D02*
X024650Y040300D01*
X024079Y040871D02*
Y041746D01*
X024204Y041871D01*
Y042200D01*
X032178Y045022D02*
X032600Y044600D01*
X030229Y045022D02*
X032178D01*
X030171Y045080D02*
X030229Y045022D01*
X023950Y048900D02*
X025010D01*
X036504Y046219D02*
Y047400D01*
X024204Y042200D02*
X025360D01*
X025480Y042320D01*
X026910D01*
X027040Y042190D01*
X031340D01*
X032370Y043220D01*
X024650Y040300D02*
X024960D01*
X025120Y040140D01*
Y039850D02*
Y040140D01*
Y039850D02*
X025570Y039400D01*
X030330Y036530D02*
Y038230D01*
X029600Y035800D02*
X030330Y036530D01*
X028500Y044180D02*
X028690Y043990D01*
X027020Y044180D02*
X028500D01*
X026600Y044600D02*
X027020Y044180D01*
X024790Y036000D02*
Y036440D01*
X023510Y037720D02*
X024790Y036440D01*
X022390Y037720D02*
X023510D01*
X022030Y038080D02*
X022390Y037720D01*
X022030Y038080D02*
Y038880D01*
X022450Y039300D01*
X029290Y042750D02*
X029430Y042610D01*
X029290Y042750D02*
Y043419D01*
X029020Y043689D02*
X029290Y043419D01*
X029020Y043689D02*
Y044800D01*
X028800Y045020D02*
X029020Y044800D01*
X028020Y045020D02*
X028800D01*
X027600Y044600D02*
X028020Y045020D01*
X025250Y044200D02*
X026280D01*
X026520Y043960D01*
X027780D01*
X029030Y042710D01*
X024640Y043700D02*
X027354D01*
X024204Y043264D02*
X024640Y043700D01*
X037704Y045830D02*
Y046500D01*
X036530Y044755D02*
X038000D01*
X036415Y044640D02*
X036530Y044755D01*
X033955Y037600D02*
X034435Y038080D01*
X033485Y037600D02*
X033955D01*
X033485Y036850D02*
Y037600D01*
X035335Y044600D02*
Y045450D01*
X023496Y041824D02*
Y042200D01*
Y041824D02*
X023650Y041670D01*
Y041300D02*
Y041670D01*
X034665Y044600D02*
Y045450D01*
D30*
X032600Y044600D02*
D03*
X031600D02*
D03*
X030600D02*
D03*
X029600D02*
D03*
X028600D02*
D03*
X027600D02*
D03*
X026600D02*
D03*
X035500Y039550D02*
D03*
Y040550D02*
D03*
Y041550D02*
D03*
Y042550D02*
D03*
Y043550D02*
D03*
X024650Y041300D02*
D03*
X023650Y040300D02*
D03*
X024650D02*
D03*
X023650Y039300D02*
D03*
X024650D02*
D03*
X037100Y043100D02*
D03*
X038100Y038150D02*
D03*
X037100D02*
D03*
X038100Y039150D02*
D03*
X037100D02*
D03*
X038100Y040150D02*
D03*
X037100D02*
D03*
X038100Y041150D02*
D03*
X021300Y045250D02*
D03*
X021250Y047800D02*
D03*
X021450Y041300D02*
D03*
X022450D02*
D03*
X021450Y040300D02*
D03*
X022450D02*
D03*
X021450Y039300D02*
D03*
X022450D02*
D03*
X021450Y038300D02*
D03*
X022450D02*
D03*
X021450Y037300D02*
D03*
X025250Y043200D02*
D03*
X025900Y037900D02*
D03*
Y038900D02*
D03*
Y039900D02*
D03*
Y040900D02*
D03*
X031600Y035800D02*
D03*
X030600D02*
D03*
X029600D02*
D03*
D31*
X035500Y038550D02*
D03*
X023650Y041300D02*
D03*
X037100Y041150D02*
D03*
X021300Y046250D02*
D03*
X021250Y048800D02*
D03*
X022450Y037300D02*
D03*
X025250Y044200D02*
D03*
X025900Y041900D02*
D03*
D32*
X034150Y041010D02*
D03*
Y039790D02*
D03*
X032010Y037250D02*
D03*
X030790D02*
D03*
D33*
X024480Y033110D02*
D03*
X035000Y034100D02*
D03*
X027580Y038730D02*
D03*
X037485Y036215D02*
D03*
X030730Y046220D02*
D03*
X031420Y045340D02*
D03*
X028710Y041790D02*
D03*
X031990Y038170D02*
D03*
X027080Y041190D02*
D03*
X026860Y040840D02*
D03*
X022670Y033350D02*
D03*
X031029Y034419D02*
D03*
X031460Y039730D02*
D03*
X034970Y039810D02*
D03*
X034830Y040230D02*
D03*
X031860Y042040D02*
D03*
X036180Y043570D02*
D03*
X030090Y042660D02*
D03*
X027110Y045080D02*
D03*
X024480Y035590D02*
D03*
X024470Y042910D02*
D03*
X030795Y047693D02*
D03*
X029520Y047290D02*
D03*
X026200Y049010D02*
D03*
X024900Y035460D02*
D03*
X021860Y031000D02*
D03*
X036640Y031130D02*
D03*
X035260Y033530D02*
D03*
X032230Y031600D02*
D03*
X025900Y037350D02*
D03*
X027860Y037900D02*
D03*
X035300Y034350D02*
D03*
X020790Y030840D02*
D03*
X029860Y047830D02*
D03*
X026350Y031820D02*
D03*
X022660Y032350D02*
D03*
X026470Y040740D02*
D03*
X025980Y031710D02*
D03*
X030650Y045280D02*
D03*
X030820Y047270D02*
D03*
X031360Y047520D02*
D03*
X028630Y048782D02*
D03*
X031330Y049040D02*
D03*
X027020Y048880D02*
D03*
X029260Y048940D02*
D03*
X032570Y048800D02*
D03*
X036420Y039780D02*
D03*
X030750Y039800D02*
D03*
X027500Y038046D02*
D03*
X029364Y039910D02*
D03*
X024810Y039800D02*
D03*
X027120Y040580D02*
D03*
X037420Y031030D02*
D03*
X037310Y031530D02*
D03*
X028376Y031576D02*
D03*
X034820Y031740D02*
D03*
X035260Y034910D02*
D03*
X038040Y034500D02*
D03*
X032670Y032050D02*
D03*
X038540Y034500D02*
D03*
X031110Y039530D02*
D03*
X033070Y040550D02*
D03*
X036381Y042050D02*
D03*
X033180Y041760D02*
D03*
X035133Y043978D02*
D03*
X030680Y042720D02*
D03*
X031070Y043850D02*
D03*
X034980Y040580D02*
D03*
X034890Y040930D02*
D03*
X030171Y045080D02*
D03*
X025010Y048900D02*
D03*
X036504Y046219D02*
D03*
X032370Y043220D02*
D03*
X025570Y039400D02*
D03*
X030330Y038230D02*
D03*
X028690Y043990D02*
D03*
X024790Y036000D02*
D03*
X029430Y042610D02*
D03*
X029030Y042710D02*
D03*
X027354Y043700D02*
D03*
X037704Y045830D02*
D03*
X035980Y044500D02*
D03*
D34*
X038000Y045345D02*
D03*
Y044755D02*
D03*
M02*
