%FSAX24Y24*%
%MOIN*%
G70*
G01*
G75*
G04 Layer_Color=2752767*
%ADD10R,0.0276X0.0354*%
%ADD11R,0.0354X0.0276*%
%ADD12R,0.0433X0.0551*%
%ADD13R,0.0551X0.0433*%
%ADD14O,0.0114X0.0374*%
%ADD15O,0.0374X0.0114*%
%ADD16C,0.0100*%
%ADD17C,0.0080*%
%ADD18C,0.0200*%
%ADD19C,0.0300*%
%ADD20C,0.0500*%
%ADD21C,0.0512*%
%ADD22C,0.0591*%
%ADD23R,0.0591X0.0591*%
%ADD24C,0.0551*%
%ADD25C,0.0350*%
%ADD26C,0.0500*%
%ADD27C,0.0050*%
%ADD28C,0.0067*%
%ADD29C,0.0160*%
D16*
X042000Y031600D02*
Y031000D01*
X042300D01*
X042400Y031100D01*
Y031500D01*
X042300Y031600D01*
X042000D01*
X042600Y031400D02*
Y031000D01*
Y031200D01*
X042700Y031300D01*
X042800Y031400D01*
X042900D01*
X043200Y031000D02*
X043400D01*
X043300D01*
Y031400D01*
X043200D01*
X043699Y031000D02*
X043899D01*
X043799D01*
Y031600D01*
X043699D01*
X044199Y031000D02*
X044399D01*
X044299D01*
Y031600D01*
X044199D01*
X045299D02*
Y031000D01*
X045599D01*
X045699Y031100D01*
Y031500D01*
X045599Y031600D01*
X045299D01*
X045899Y031400D02*
Y031000D01*
Y031200D01*
X045999Y031300D01*
X046099Y031400D01*
X046199D01*
X046599D02*
X046798D01*
X046898Y031300D01*
Y031000D01*
X046599D01*
X046499Y031100D01*
X046599Y031200D01*
X046898D01*
X047098Y031400D02*
Y031100D01*
X047198Y031000D01*
X047298Y031100D01*
X047398Y031000D01*
X047498Y031100D01*
Y031400D01*
X047698Y031000D02*
X047898D01*
X047798D01*
Y031400D01*
X047698D01*
X048198Y031000D02*
Y031400D01*
X048498D01*
X048598Y031300D01*
Y031000D01*
X048998Y030800D02*
X049098D01*
X049198Y030900D01*
Y031400D01*
X048898D01*
X048798Y031300D01*
Y031100D01*
X048898Y031000D01*
X049198D01*
X049398D02*
Y031100D01*
X049498D01*
Y031000D01*
X049398D01*
X047439Y038000D02*
X047039D01*
X047439Y038400D01*
Y038500D01*
X047339Y038600D01*
X047139D01*
X047039Y038500D01*
X054397Y038000D02*
X053997D01*
X054397Y038400D01*
Y038500D01*
X054297Y038600D01*
X054097D01*
X053997Y038500D01*
X054997Y038600D02*
X054597D01*
Y038300D01*
X054797Y038400D01*
X054897D01*
X054997Y038300D01*
Y038100D01*
X054897Y038000D01*
X054697D01*
X054597Y038100D01*
X055196Y038000D02*
Y038400D01*
X055296D01*
X055396Y038300D01*
Y038000D01*
Y038300D01*
X055496Y038400D01*
X055596Y038300D01*
Y038000D01*
X055796D02*
X055996D01*
X055896D01*
Y038400D01*
X055796D01*
X056296Y038000D02*
X056496D01*
X056396D01*
Y038600D01*
X056296D01*
X057596Y038000D02*
X057396Y038200D01*
Y038400D01*
X057596Y038600D01*
X057896Y038500D02*
X057996Y038600D01*
X058196D01*
X058295Y038500D01*
Y038100D01*
X058196Y038000D01*
X057996D01*
X057896Y038100D01*
Y038500D01*
X058495Y038000D02*
Y038100D01*
X058595D01*
Y038000D01*
X058495D01*
X059395Y038600D02*
X059195Y038500D01*
X058995Y038300D01*
Y038100D01*
X059095Y038000D01*
X059295D01*
X059395Y038100D01*
Y038200D01*
X059295Y038300D01*
X058995D01*
X059595Y038500D02*
X059695Y038600D01*
X059895D01*
X059995Y038500D01*
Y038400D01*
X059895Y038300D01*
X059795D01*
X059895D01*
X059995Y038200D01*
Y038100D01*
X059895Y038000D01*
X059695D01*
X059595Y038100D01*
X060595Y038600D02*
X060195D01*
Y038300D01*
X060395Y038400D01*
X060495D01*
X060595Y038300D01*
Y038100D01*
X060495Y038000D01*
X060295D01*
X060195Y038100D01*
X060795Y038000D02*
Y038400D01*
X060895D01*
X060995Y038300D01*
Y038000D01*
Y038300D01*
X061095Y038400D01*
X061195Y038300D01*
Y038000D01*
X061395D02*
Y038400D01*
X061494D01*
X061594Y038300D01*
Y038000D01*
Y038300D01*
X061694Y038400D01*
X061794Y038300D01*
Y038000D01*
X061994D02*
X062194Y038200D01*
Y038400D01*
X061994Y038600D01*
X067433Y038000D02*
Y038600D01*
X067733D01*
X067833Y038500D01*
Y038300D01*
X067733Y038200D01*
X067433D01*
X068033Y038600D02*
X068433D01*
X068233D01*
Y038000D01*
X068633Y038600D02*
Y038000D01*
Y038300D01*
X069032D01*
Y038600D01*
Y038000D01*
X072472D02*
Y038600D01*
X072772D01*
X072872Y038500D01*
Y038300D01*
X072772Y038200D01*
X072472D01*
X072672D02*
X072872Y038000D01*
X073171D02*
X073371D01*
X073471Y038100D01*
Y038300D01*
X073371Y038400D01*
X073171D01*
X073071Y038300D01*
Y038100D01*
X073171Y038000D01*
X073671Y038400D02*
Y038100D01*
X073771Y038000D01*
X074071D01*
Y038400D01*
X074271Y038000D02*
Y038400D01*
X074571D01*
X074671Y038300D01*
Y038000D01*
X075271Y038600D02*
Y038000D01*
X074971D01*
X074871Y038100D01*
Y038300D01*
X074971Y038400D01*
X075271D01*
X047439Y036800D02*
X047039D01*
X047439Y037200D01*
Y037300D01*
X047339Y037400D01*
X047139D01*
X047039Y037300D01*
X054397Y036800D02*
X053997D01*
X054397Y037200D01*
Y037300D01*
X054297Y037400D01*
X054097D01*
X053997Y037300D01*
X054597Y037400D02*
X054997D01*
Y037300D01*
X054597Y036900D01*
Y036800D01*
X055196D02*
Y036900D01*
X055296D01*
Y036800D01*
X055196D01*
X056096Y037400D02*
X055696D01*
Y037100D01*
X055896Y037200D01*
X055996D01*
X056096Y037100D01*
Y036900D01*
X055996Y036800D01*
X055796D01*
X055696Y036900D01*
X056696Y037400D02*
X056296D01*
Y037100D01*
X056496Y037200D01*
X056596D01*
X056696Y037100D01*
Y036900D01*
X056596Y036800D01*
X056396D01*
X056296Y036900D01*
X056896D02*
X056996Y036800D01*
X057196D01*
X057296Y036900D01*
Y037300D01*
X057196Y037400D01*
X056996D01*
X056896Y037300D01*
Y037200D01*
X056996Y037100D01*
X057296D01*
X057496Y036800D02*
Y037200D01*
X057596D01*
X057696Y037100D01*
Y036800D01*
Y037100D01*
X057796Y037200D01*
X057896Y037100D01*
Y036800D01*
X058096D02*
X058295D01*
X058196D01*
Y037200D01*
X058096D01*
X058595Y036800D02*
X058795D01*
X058695D01*
Y037400D01*
X058595D01*
X059895Y036800D02*
X059695Y037000D01*
Y037200D01*
X059895Y037400D01*
X060195Y037300D02*
X060295Y037400D01*
X060495D01*
X060595Y037300D01*
Y036900D01*
X060495Y036800D01*
X060295D01*
X060195Y036900D01*
Y037300D01*
X060795Y036800D02*
Y036900D01*
X060895D01*
Y036800D01*
X060795D01*
X061295Y037400D02*
X061694D01*
Y037300D01*
X061295Y036900D01*
Y036800D01*
X061894D02*
Y037200D01*
X061994D01*
X062094Y037100D01*
Y036800D01*
Y037100D01*
X062194Y037200D01*
X062294Y037100D01*
Y036800D01*
X062494D02*
Y037200D01*
X062594D01*
X062694Y037100D01*
Y036800D01*
Y037100D01*
X062794Y037200D01*
X062894Y037100D01*
Y036800D01*
X063094D02*
X063294Y037000D01*
Y037200D01*
X063094Y037400D01*
X067433Y036800D02*
Y037400D01*
X067733D01*
X067833Y037300D01*
Y037100D01*
X067733Y037000D01*
X067433D01*
X068033Y037400D02*
X068433D01*
X068233D01*
Y036800D01*
X068633Y037400D02*
Y036800D01*
Y037100D01*
X069032D01*
Y037400D01*
Y036800D01*
X072472D02*
Y037400D01*
X072772D01*
X072872Y037300D01*
Y037100D01*
X072772Y037000D01*
X072472D01*
X072672D02*
X072872Y036800D01*
X073171D02*
X073371D01*
X073471Y036900D01*
Y037100D01*
X073371Y037200D01*
X073171D01*
X073071Y037100D01*
Y036900D01*
X073171Y036800D01*
X073671Y037200D02*
Y036900D01*
X073771Y036800D01*
X074071D01*
Y037200D01*
X074271Y036800D02*
Y037200D01*
X074571D01*
X074671Y037100D01*
Y036800D01*
X075271Y037400D02*
Y036800D01*
X074971D01*
X074871Y036900D01*
Y037100D01*
X074971Y037200D01*
X075271D01*
X047339Y035600D02*
Y036200D01*
X047039Y035900D01*
X047439D01*
X054397Y035600D02*
X053997D01*
X054397Y036000D01*
Y036100D01*
X054297Y036200D01*
X054097D01*
X053997Y036100D01*
X054597D02*
X054697Y036200D01*
X054897D01*
X054997Y036100D01*
Y036000D01*
X054897Y035900D01*
X054997Y035800D01*
Y035700D01*
X054897Y035600D01*
X054697D01*
X054597Y035700D01*
Y035800D01*
X054697Y035900D01*
X054597Y036000D01*
Y036100D01*
X054697Y035900D02*
X054897D01*
X055196Y035600D02*
Y036000D01*
X055296D01*
X055396Y035900D01*
Y035600D01*
Y035900D01*
X055496Y036000D01*
X055596Y035900D01*
Y035600D01*
X055796D02*
X055996D01*
X055896D01*
Y036000D01*
X055796D01*
X056296Y035600D02*
X056496D01*
X056396D01*
Y036200D01*
X056296D01*
X057596Y035600D02*
X057396Y035800D01*
Y036000D01*
X057596Y036200D01*
X057896Y036100D02*
X057996Y036200D01*
X058196D01*
X058295Y036100D01*
Y035700D01*
X058196Y035600D01*
X057996D01*
X057896Y035700D01*
Y036100D01*
X058495Y035600D02*
Y035700D01*
X058595D01*
Y035600D01*
X058495D01*
X058995Y036200D02*
X059395D01*
Y036100D01*
X058995Y035700D01*
Y035600D01*
X059595D02*
X059795D01*
X059695D01*
Y036200D01*
X059595Y036100D01*
X060095Y035600D02*
X060295D01*
X060195D01*
Y036200D01*
X060095Y036100D01*
X060995Y035600D02*
X060595D01*
X060995Y036000D01*
Y036100D01*
X060895Y036200D01*
X060695D01*
X060595Y036100D01*
X061195Y035600D02*
Y036000D01*
X061295D01*
X061395Y035900D01*
Y035600D01*
Y035900D01*
X061494Y036000D01*
X061594Y035900D01*
Y035600D01*
X061794D02*
Y036000D01*
X061894D01*
X061994Y035900D01*
Y035600D01*
Y035900D01*
X062094Y036000D01*
X062194Y035900D01*
Y035600D01*
X062394D02*
X062594Y035800D01*
Y036000D01*
X062394Y036200D01*
X067433Y035600D02*
Y036200D01*
X067733D01*
X067833Y036100D01*
Y035900D01*
X067733Y035800D01*
X067433D01*
X068033Y036200D02*
X068433D01*
X068233D01*
Y035600D01*
X068633Y036200D02*
Y035600D01*
Y035900D01*
X069032D01*
Y036200D01*
Y035600D01*
X072472D02*
Y036200D01*
X072772D01*
X072872Y036100D01*
Y035900D01*
X072772Y035800D01*
X072472D01*
X072672D02*
X072872Y035600D01*
X073171D02*
X073371D01*
X073471Y035700D01*
Y035900D01*
X073371Y036000D01*
X073171D01*
X073071Y035900D01*
Y035700D01*
X073171Y035600D01*
X073671Y036000D02*
Y035700D01*
X073771Y035600D01*
X074071D01*
Y036000D01*
X074271Y035600D02*
Y036000D01*
X074571D01*
X074671Y035900D01*
Y035600D01*
X075271Y036200D02*
Y035600D01*
X074971D01*
X074871Y035700D01*
Y035900D01*
X074971Y036000D01*
X075271D01*
X047439Y034400D02*
X047039D01*
X047439Y034800D01*
Y034900D01*
X047339Y035000D01*
X047139D01*
X047039Y034900D01*
X053997D02*
X054097Y035000D01*
X054297D01*
X054397Y034900D01*
Y034800D01*
X054297Y034700D01*
X054197D01*
X054297D01*
X054397Y034600D01*
Y034500D01*
X054297Y034400D01*
X054097D01*
X053997Y034500D01*
X054597Y034900D02*
X054697Y035000D01*
X054897D01*
X054997Y034900D01*
Y034800D01*
X054897Y034700D01*
X054797D01*
X054897D01*
X054997Y034600D01*
Y034500D01*
X054897Y034400D01*
X054697D01*
X054597Y034500D01*
X055196Y034400D02*
Y034500D01*
X055296D01*
Y034400D01*
X055196D01*
X055996D02*
Y035000D01*
X055696Y034700D01*
X056096D01*
X056696Y035000D02*
X056496Y034900D01*
X056296Y034700D01*
Y034500D01*
X056396Y034400D01*
X056596D01*
X056696Y034500D01*
Y034600D01*
X056596Y034700D01*
X056296D01*
X057296Y035000D02*
X056896D01*
Y034700D01*
X057096Y034800D01*
X057196D01*
X057296Y034700D01*
Y034500D01*
X057196Y034400D01*
X056996D01*
X056896Y034500D01*
X057496Y034400D02*
Y034800D01*
X057596D01*
X057696Y034700D01*
Y034400D01*
Y034700D01*
X057796Y034800D01*
X057896Y034700D01*
Y034400D01*
X058096D02*
X058295D01*
X058196D01*
Y034800D01*
X058096D01*
X058595Y034400D02*
X058795D01*
X058695D01*
Y035000D01*
X058595D01*
X059895Y034400D02*
X059695Y034600D01*
Y034800D01*
X059895Y035000D01*
X060195Y034900D02*
X060295Y035000D01*
X060495D01*
X060595Y034900D01*
Y034500D01*
X060495Y034400D01*
X060295D01*
X060195Y034500D01*
Y034900D01*
X060795Y034400D02*
Y034500D01*
X060895D01*
Y034400D01*
X060795D01*
X061295Y034900D02*
X061395Y035000D01*
X061594D01*
X061694Y034900D01*
Y034800D01*
X061594Y034700D01*
X061694Y034600D01*
Y034500D01*
X061594Y034400D01*
X061395D01*
X061295Y034500D01*
Y034600D01*
X061395Y034700D01*
X061295Y034800D01*
Y034900D01*
X061395Y034700D02*
X061594D01*
X062294Y035000D02*
X061894D01*
Y034700D01*
X062094Y034800D01*
X062194D01*
X062294Y034700D01*
Y034500D01*
X062194Y034400D01*
X061994D01*
X061894Y034500D01*
X062494Y034400D02*
Y034800D01*
X062594D01*
X062694Y034700D01*
Y034400D01*
Y034700D01*
X062794Y034800D01*
X062894Y034700D01*
Y034400D01*
X063094D02*
Y034800D01*
X063194D01*
X063294Y034700D01*
Y034400D01*
Y034700D01*
X063394Y034800D01*
X063494Y034700D01*
Y034400D01*
X063694D02*
X063894Y034600D01*
Y034800D01*
X063694Y035000D01*
X067433Y034400D02*
Y035000D01*
X067733D01*
X067833Y034900D01*
Y034700D01*
X067733Y034600D01*
X067433D01*
X068033Y035000D02*
X068433D01*
X068233D01*
Y034400D01*
X068633Y035000D02*
Y034400D01*
Y034700D01*
X069032D01*
Y035000D01*
Y034400D01*
X072472D02*
Y035000D01*
X072772D01*
X072872Y034900D01*
Y034700D01*
X072772Y034600D01*
X072472D01*
X072672D02*
X072872Y034400D01*
X073171D02*
X073371D01*
X073471Y034500D01*
Y034700D01*
X073371Y034800D01*
X073171D01*
X073071Y034700D01*
Y034500D01*
X073171Y034400D01*
X073671Y034800D02*
Y034500D01*
X073771Y034400D01*
X074071D01*
Y034800D01*
X074271Y034400D02*
Y034800D01*
X074571D01*
X074671Y034700D01*
Y034400D01*
X075271Y035000D02*
Y034400D01*
X074971D01*
X074871Y034500D01*
Y034700D01*
X074971Y034800D01*
X075271D01*
X047039Y033700D02*
X047139Y033800D01*
X047339D01*
X047439Y033700D01*
Y033600D01*
X047339Y033500D01*
X047439Y033400D01*
Y033300D01*
X047339Y033200D01*
X047139D01*
X047039Y033300D01*
Y033400D01*
X047139Y033500D01*
X047039Y033600D01*
Y033700D01*
X047139Y033500D02*
X047339D01*
X053997Y033700D02*
X054097Y033800D01*
X054297D01*
X054397Y033700D01*
Y033600D01*
X054297Y033500D01*
X054197D01*
X054297D01*
X054397Y033400D01*
Y033300D01*
X054297Y033200D01*
X054097D01*
X053997Y033300D01*
X054997Y033800D02*
X054597D01*
Y033500D01*
X054797Y033600D01*
X054897D01*
X054997Y033500D01*
Y033300D01*
X054897Y033200D01*
X054697D01*
X054597Y033300D01*
X055196Y033200D02*
Y033300D01*
X055296D01*
Y033200D01*
X055196D01*
X055996D02*
Y033800D01*
X055696Y033500D01*
X056096D01*
X056296Y033700D02*
X056396Y033800D01*
X056596D01*
X056696Y033700D01*
Y033600D01*
X056596Y033500D01*
X056496D01*
X056596D01*
X056696Y033400D01*
Y033300D01*
X056596Y033200D01*
X056396D01*
X056296Y033300D01*
X056896Y033700D02*
X056996Y033800D01*
X057196D01*
X057296Y033700D01*
Y033600D01*
X057196Y033500D01*
X057096D01*
X057196D01*
X057296Y033400D01*
Y033300D01*
X057196Y033200D01*
X056996D01*
X056896Y033300D01*
X057496Y033200D02*
Y033600D01*
X057596D01*
X057696Y033500D01*
Y033200D01*
Y033500D01*
X057796Y033600D01*
X057896Y033500D01*
Y033200D01*
X058096D02*
X058295D01*
X058196D01*
Y033600D01*
X058096D01*
X058595Y033200D02*
X058795D01*
X058695D01*
Y033800D01*
X058595D01*
X059895Y033200D02*
X059695Y033400D01*
Y033600D01*
X059895Y033800D01*
X060195Y033700D02*
X060295Y033800D01*
X060495D01*
X060595Y033700D01*
Y033300D01*
X060495Y033200D01*
X060295D01*
X060195Y033300D01*
Y033700D01*
X060795Y033200D02*
Y033300D01*
X060895D01*
Y033200D01*
X060795D01*
X061295Y033300D02*
X061395Y033200D01*
X061594D01*
X061694Y033300D01*
Y033700D01*
X061594Y033800D01*
X061395D01*
X061295Y033700D01*
Y033600D01*
X061395Y033500D01*
X061694D01*
X061894Y033200D02*
Y033600D01*
X061994D01*
X062094Y033500D01*
Y033200D01*
Y033500D01*
X062194Y033600D01*
X062294Y033500D01*
Y033200D01*
X062494D02*
Y033600D01*
X062594D01*
X062694Y033500D01*
Y033200D01*
Y033500D01*
X062794Y033600D01*
X062894Y033500D01*
Y033200D01*
X063094D02*
X063294Y033400D01*
Y033600D01*
X063094Y033800D01*
X067433Y033200D02*
Y033800D01*
X067733D01*
X067833Y033700D01*
Y033500D01*
X067733Y033400D01*
X067433D01*
X068033Y033800D02*
X068433D01*
X068233D01*
Y033200D01*
X068633Y033800D02*
Y033200D01*
Y033500D01*
X069032D01*
Y033800D01*
Y033200D01*
X072472D02*
Y033800D01*
X072772D01*
X072872Y033700D01*
Y033500D01*
X072772Y033400D01*
X072472D01*
X072672D02*
X072872Y033200D01*
X073171D02*
X073371D01*
X073471Y033300D01*
Y033500D01*
X073371Y033600D01*
X073171D01*
X073071Y033500D01*
Y033300D01*
X073171Y033200D01*
X073671Y033600D02*
Y033300D01*
X073771Y033200D01*
X074071D01*
Y033600D01*
X074271Y033200D02*
Y033600D01*
X074571D01*
X074671Y033500D01*
Y033200D01*
X075271Y033800D02*
Y033200D01*
X074971D01*
X074871Y033300D01*
Y033500D01*
X074971Y033600D01*
X075271D01*
X047039Y032000D02*
X047239D01*
X047139D01*
Y032600D01*
X047039Y032500D01*
X047539D02*
X047639Y032600D01*
X047839D01*
X047938Y032500D01*
Y032400D01*
X047839Y032300D01*
X047938Y032200D01*
Y032100D01*
X047839Y032000D01*
X047639D01*
X047539Y032100D01*
Y032200D01*
X047639Y032300D01*
X047539Y032400D01*
Y032500D01*
X047639Y032300D02*
X047839D01*
X049018Y032600D02*
X049418D01*
X049218D01*
Y032000D01*
X049718D02*
X049918D01*
X050018Y032100D01*
Y032300D01*
X049918Y032400D01*
X049718D01*
X049618Y032300D01*
Y032100D01*
X049718Y032000D01*
X050318Y032500D02*
Y032400D01*
X050218D01*
X050418D01*
X050318D01*
Y032100D01*
X050418Y032000D01*
X050818Y032400D02*
X051018D01*
X051118Y032300D01*
Y032000D01*
X050818D01*
X050718Y032100D01*
X050818Y032200D01*
X051118D01*
X051318Y032000D02*
X051518D01*
X051418D01*
Y032600D01*
X051318D01*
D17*
X042480Y033500D02*
G03*
X042480Y033500I-000240J000000D01*
G01*
D27*
X026190Y032850D02*
Y033250D01*
X026590D01*
Y032850D01*
X026190D01*
X027410D02*
Y033250D01*
X027810D01*
Y032850D01*
X027410D01*
X024900Y031300D02*
X024700Y031700D01*
X025100D01*
X024900Y031300D01*
X028900D02*
X028700Y031700D01*
X029100D01*
X028900Y031300D01*
X026350Y037550D02*
X026450Y037650D01*
X026550D01*
X026450Y037750D01*
X026550Y037850D01*
X026450D01*
X026350Y037950D01*
X026250Y037850D01*
X026150D01*
X026250Y037750D01*
X026150Y037650D01*
X026250D01*
X026350Y037550D01*
X030300Y037950D02*
X030400Y038050D01*
X030500D01*
X030400Y038150D01*
X030500Y038250D01*
X030400D01*
X030300Y038350D01*
X030200Y038250D01*
X030100D01*
X030200Y038150D01*
X030100Y038050D01*
X030200D01*
X030300Y037950D01*
X023000Y032250D02*
X023100Y032450D01*
X023000Y032650D01*
X023200Y032550D01*
X023400Y032650D01*
X023300Y032450D01*
X023400Y032250D01*
X023200Y032350D01*
X023000Y032250D01*
X027550Y031900D02*
X027650Y032100D01*
X027550Y032300D01*
X027750Y032200D01*
X027950Y032300D01*
X027850Y032100D01*
X027950Y031900D01*
X027750Y032000D01*
X027550Y031900D01*
X026400Y038700D02*
X026500Y038900D01*
X026400Y039100D01*
X026600Y039000D01*
X026800Y039100D01*
X026700Y038900D01*
X026800Y038700D01*
X026600Y038800D01*
X026400Y038700D01*
X023300Y036600D02*
X023400Y036800D01*
X023300Y037000D01*
X023500Y036900D01*
X023700Y037000D01*
X023600Y036800D01*
X023700Y036600D01*
X023500Y036700D01*
X023300Y036600D01*
X042240Y038060D02*
X042360Y038180D01*
X042480D01*
X042360Y038300D01*
X042480Y038420D01*
X042360D01*
X042240Y038540D01*
X042120Y038420D01*
X042000D01*
X042120Y038300D01*
X042000Y038180D01*
X042120D01*
X042240Y038060D01*
X042000Y036860D02*
Y037340D01*
X042480D01*
Y036860D01*
X042000D01*
Y035660D02*
X042120Y035900D01*
X042000Y036140D01*
X042240Y036020D01*
X042480Y036140D01*
X042360Y035900D01*
X042480Y035660D01*
X042240Y035780D01*
X042000Y035660D01*
X042240Y034460D02*
X042000Y034940D01*
X042480D01*
X042240Y034460D01*
D28*
X022600Y033600D02*
G03*
X022600Y033600I-000200J000000D01*
G01*
X021600D02*
G03*
X021600Y033600I-000200J000000D01*
G01*
X022600Y034600D02*
G03*
X022600Y034600I-000200J000000D01*
G01*
X021600D02*
G03*
X021600Y034600I-000200J000000D01*
G01*
X022600Y035600D02*
G03*
X022600Y035600I-000200J000000D01*
G01*
X021600D02*
G03*
X021600Y035600I-000200J000000D01*
G01*
X022600Y036600D02*
G03*
X022600Y036600I-000200J000000D01*
G01*
X021600D02*
G03*
X021600Y036600I-000200J000000D01*
G01*
D29*
X042480Y040040D02*
X042360Y040160D01*
X042120D01*
X042000Y040040D01*
Y039920D01*
X042120Y039800D01*
X042360D01*
X042480Y039680D01*
Y039560D01*
X042360Y039440D01*
X042120D01*
X042000Y039560D01*
X042720Y039920D02*
Y039560D01*
X042840Y039440D01*
X043200D01*
Y039320D01*
X043080Y039200D01*
X042960D01*
X043200Y039440D02*
Y039920D01*
X043440Y039440D02*
Y039920D01*
X043559D01*
X043679Y039800D01*
Y039440D01*
Y039800D01*
X043799Y039920D01*
X043919Y039800D01*
Y039440D01*
X044159Y040160D02*
Y039440D01*
X044519D01*
X044639Y039560D01*
Y039680D01*
Y039800D01*
X044519Y039920D01*
X044159D01*
X044999Y039440D02*
X045239D01*
X045359Y039560D01*
Y039800D01*
X045239Y039920D01*
X044999D01*
X044879Y039800D01*
Y039560D01*
X044999Y039440D01*
X045599D02*
X045839D01*
X045719D01*
Y040160D01*
X045599D01*
X047039D02*
Y039440D01*
Y039800D01*
X047519D01*
Y040160D01*
Y039440D01*
X047759D02*
X047998D01*
X047878D01*
Y039920D01*
X047759D01*
X048478Y040040D02*
Y039920D01*
X048358D01*
X048598D01*
X048478D01*
Y039560D01*
X048598Y039440D01*
X050158Y040040D02*
X050038Y040160D01*
X049798D01*
X049678Y040040D01*
Y039560D01*
X049798Y039440D01*
X050038D01*
X050158Y039560D01*
X050518Y039440D02*
X050758D01*
X050878Y039560D01*
Y039800D01*
X050758Y039920D01*
X050518D01*
X050398Y039800D01*
Y039560D01*
X050518Y039440D01*
X051117Y039920D02*
Y039560D01*
X051237Y039440D01*
X051597D01*
Y039920D01*
X051837Y039440D02*
Y039920D01*
X052197D01*
X052317Y039800D01*
Y039440D01*
X052677Y040040D02*
Y039920D01*
X052557D01*
X052797D01*
X052677D01*
Y039560D01*
X052797Y039440D01*
X054477Y040160D02*
X053997D01*
Y039800D01*
X054237D01*
X053997D01*
Y039440D01*
X054717D02*
X054957D01*
X054837D01*
Y039920D01*
X054717D01*
X055316Y039440D02*
Y039920D01*
X055676D01*
X055796Y039800D01*
Y039440D01*
X056036D02*
X056276D01*
X056156D01*
Y039920D01*
X056036D01*
X056636Y039440D02*
X056996D01*
X057116Y039560D01*
X056996Y039680D01*
X056756D01*
X056636Y039800D01*
X056756Y039920D01*
X057116D01*
X057356Y040160D02*
Y039440D01*
Y039800D01*
X057476Y039920D01*
X057716D01*
X057836Y039800D01*
Y039440D01*
X058435D02*
X058196D01*
X058076Y039560D01*
Y039800D01*
X058196Y039920D01*
X058435D01*
X058555Y039800D01*
Y039680D01*
X058076D01*
X059275Y040160D02*
Y039440D01*
X058915D01*
X058795Y039560D01*
Y039800D01*
X058915Y039920D01*
X059275D01*
X060235Y040160D02*
Y039440D01*
Y039800D01*
X060715D01*
Y040160D01*
Y039440D01*
X061075D02*
X061315D01*
X061434Y039560D01*
Y039800D01*
X061315Y039920D01*
X061075D01*
X060955Y039800D01*
Y039560D01*
X061075Y039440D01*
X061674D02*
X061914D01*
X061794D01*
Y040160D01*
X061674D01*
X062634Y039440D02*
X062394D01*
X062274Y039560D01*
Y039800D01*
X062394Y039920D01*
X062634D01*
X062754Y039800D01*
Y039680D01*
X062274D01*
X064194Y040040D02*
X064074Y040160D01*
X063834D01*
X063714Y040040D01*
Y039920D01*
X063834Y039800D01*
X064074D01*
X064194Y039680D01*
Y039560D01*
X064074Y039440D01*
X063834D01*
X063714Y039560D01*
X064434Y039440D02*
X064673D01*
X064553D01*
Y039920D01*
X064434D01*
X065033D02*
X065513D01*
X065033Y039440D01*
X065513D01*
X066113D02*
X065873D01*
X065753Y039560D01*
Y039800D01*
X065873Y039920D01*
X066113D01*
X066233Y039800D01*
Y039680D01*
X065753D01*
X067433Y039440D02*
Y040160D01*
X067793D01*
X067913Y040040D01*
Y039800D01*
X067793Y039680D01*
X067433D01*
X068153Y039440D02*
X068393D01*
X068273D01*
Y040160D01*
X068153D01*
X068872Y039920D02*
X069112D01*
X069232Y039800D01*
Y039440D01*
X068872D01*
X068753Y039560D01*
X068872Y039680D01*
X069232D01*
X069592Y040040D02*
Y039920D01*
X069472D01*
X069712D01*
X069592D01*
Y039560D01*
X069712Y039440D01*
X070432D02*
X070192D01*
X070072Y039560D01*
Y039800D01*
X070192Y039920D01*
X070432D01*
X070552Y039800D01*
Y039680D01*
X070072D01*
X071272Y040160D02*
Y039440D01*
X070912D01*
X070792Y039560D01*
Y039800D01*
X070912Y039920D01*
X071272D01*
X072472Y040160D02*
Y039440D01*
Y039800D01*
X072952D01*
Y040160D01*
Y039440D01*
X073311D02*
X073551D01*
X073671Y039560D01*
Y039800D01*
X073551Y039920D01*
X073311D01*
X073191Y039800D01*
Y039560D01*
X073311Y039440D01*
X073911D02*
X074151D01*
X074031D01*
Y040160D01*
X073911D01*
X074871Y039440D02*
X074631D01*
X074511Y039560D01*
Y039800D01*
X074631Y039920D01*
X074871D01*
X074991Y039800D01*
Y039680D01*
X074511D01*
X075951Y040160D02*
X076430D01*
X076190D01*
Y039440D01*
X076670Y039920D02*
Y039560D01*
X076790Y039440D01*
X077150D01*
Y039320D01*
X077030Y039200D01*
X076910D01*
X077150Y039440D02*
Y039920D01*
X077390Y039200D02*
Y039920D01*
X077750D01*
X077870Y039800D01*
Y039560D01*
X077750Y039440D01*
X077390D01*
X078470D02*
X078230D01*
X078110Y039560D01*
Y039800D01*
X078230Y039920D01*
X078470D01*
X078590Y039800D01*
Y039680D01*
X078110D01*
X041120Y040520D02*
X079790D01*
X041120Y038900D02*
X079790D01*
X041120Y040520D02*
Y031700D01*
X079790Y040520D02*
Y031700D01*
X046599Y040520D02*
Y031700D01*
X053557Y040520D02*
Y031700D01*
X066993Y040520D02*
Y031700D01*
X072032Y040520D02*
Y031700D01*
X041120Y032900D02*
X079790D01*
X041120Y031700D02*
X079790D01*
M02*
