%FSAX24Y24*%
%MOIN*%
G70*
G01*
G75*
%ADD10R,0.0512X0.0591*%
%ADD11R,0.0591X0.0512*%
%ADD12R,0.0394X0.0394*%
%ADD13R,0.0394X0.0394*%
%ADD14R,0.0394X0.0114*%
%ADD15R,0.0114X0.0394*%
%ADD16R,0.0472X0.0551*%
%ADD17C,0.0200*%
%ADD18C,0.0100*%
%ADD19C,0.0080*%
%ADD20C,0.0300*%
%ADD21C,0.0500*%
%ADD22C,0.0591*%
%ADD23R,0.0591X0.0591*%
%ADD24C,0.0551*%
%ADD25C,0.0350*%
%ADD26R,0.1065X0.1060*%
%ADD27C,0.0050*%
%ADD28C,0.0067*%
%ADD29C,0.0160*%
D27*
X022223Y033600D02*
X022577D01*
X022400Y033423D02*
Y033777D01*
X021223Y033600D02*
X021577D01*
X021400Y033423D02*
Y033777D01*
X022223Y034600D02*
X022577D01*
X022400Y034423D02*
Y034777D01*
X021223Y034600D02*
X021577D01*
X021400Y034423D02*
Y034777D01*
X022223Y035600D02*
X022577D01*
X022400Y035423D02*
Y035777D01*
X021223Y035600D02*
X021577D01*
X021400Y035423D02*
Y035777D01*
X022223Y036600D02*
X022577D01*
X022400Y036423D02*
Y036777D01*
X021223Y036600D02*
X021577D01*
X021400Y036423D02*
Y036777D01*
X027389Y032885D02*
X027704D01*
X027547Y032728D02*
Y033043D01*
X025468Y032885D02*
X025783D01*
X025626Y032728D02*
Y033043D01*
X029407Y035817D02*
X029657D01*
X029532Y035692D02*
Y035942D01*
X021265Y038235D02*
X021515D01*
X021390Y038110D02*
Y038360D01*
X023479Y036875D02*
X023729D01*
X023604Y036750D02*
Y037000D01*
X026225Y037750D02*
X026475D01*
X026350Y037625D02*
Y037875D01*
X023075Y032450D02*
X023325D01*
X023200Y032325D02*
Y032575D01*
X026475Y038900D02*
X026725D01*
X026600Y038775D02*
Y039025D01*
X028455Y031440D02*
X028705D01*
X028580Y031315D02*
Y031565D01*
X030094Y038869D02*
X030344D01*
X030219Y038744D02*
Y038994D01*
X024775Y031500D02*
X025025D01*
X024900Y031375D02*
Y031625D01*
X025144Y034138D02*
X025394D01*
X025269Y034013D02*
Y034263D01*
X027296Y037021D02*
X027546D01*
X027421Y036896D02*
Y037146D01*
X030371Y032451D02*
X030621D01*
X030496Y032326D02*
Y032576D01*
M02*
