%FSAX24Y24*%
%MOIN*%
G70*
G01*
G75*
G04 Layer_Physical_Order=2*
G04 Layer_Color=16711680*
%ADD10O,0.0114X0.0374*%
%ADD11O,0.0374X0.0114*%
%ADD12R,0.0394X0.0394*%
%ADD13R,0.0394X0.0394*%
%ADD14R,0.0512X0.0591*%
%ADD15R,0.0591X0.0512*%
%ADD16R,0.0433X0.0551*%
%ADD17C,0.0200*%
%ADD18C,0.0080*%
%ADD19C,0.0100*%
%ADD20C,0.0500*%
%ADD21C,0.0300*%
%ADD22R,0.0591X0.0591*%
%ADD23C,0.0591*%
%ADD24C,0.0512*%
%ADD25C,0.0350*%
%ADD26R,0.0472X0.0551*%
G36*
X031250Y030944D02*
X031000D01*
Y032166D01*
X031056Y032301D01*
X031069Y032401D01*
X029923D01*
X029936Y032301D01*
X029992Y032166D01*
Y031225D01*
X029183D01*
X029140Y031290D01*
X029160Y031440D01*
X029140Y031590D01*
X029082Y031730D01*
X028990Y031850D01*
X028870Y031942D01*
X028730Y032000D01*
X028580Y032020D01*
X028430Y032000D01*
X028370Y031975D01*
X028303Y032020D01*
Y032126D01*
X026844D01*
Y032574D01*
X026856Y032584D01*
X026938Y032684D01*
X026960Y032725D01*
X027040D01*
X027062Y032684D01*
X027144Y032584D01*
X027244Y032502D01*
X027358Y032441D01*
X027482Y032404D01*
X027610Y032391D01*
X027739Y032404D01*
X027862Y032441D01*
X027976Y032502D01*
X028076Y032584D01*
X028158Y032684D01*
X028219Y032798D01*
X028257Y032921D01*
X028269Y033050D01*
X028257Y033179D01*
X028219Y033302D01*
X028158Y033416D01*
X028076Y033516D01*
X027976Y033598D01*
X027862Y033659D01*
X027739Y033696D01*
X027610Y033709D01*
X027482Y033696D01*
X027358Y033659D01*
X027244Y033598D01*
X027144Y033516D01*
X027062Y033416D01*
X027040Y033375D01*
X026960D01*
X026938Y033416D01*
X026856Y033516D01*
X026756Y033598D01*
X026642Y033659D01*
X026518Y033696D01*
X026390Y033709D01*
X026261Y033696D01*
X026138Y033659D01*
X026024Y033598D01*
X025924Y033516D01*
X025842Y033416D01*
X025781Y033302D01*
X025743Y033179D01*
X025731Y033050D01*
X025743Y032921D01*
X025781Y032798D01*
X025842Y032684D01*
X025924Y032584D01*
X025936Y032574D01*
Y031954D01*
X025253D01*
X025190Y032002D01*
X025050Y032060D01*
X024900Y032080D01*
X024750Y032060D01*
X024610Y032002D01*
X024490Y031910D01*
X024398Y031790D01*
X024340Y031650D01*
X024320Y031500D01*
X024340Y031350D01*
X024364Y031292D01*
X024319Y031225D01*
X023704D01*
Y032165D01*
X023760Y032300D01*
X023773Y032400D01*
X023200D01*
Y032450D01*
X023150D01*
Y033023D01*
X023050Y033010D01*
X022915Y032954D01*
X022828D01*
X022801Y033030D01*
X022894Y033106D01*
X022981Y033212D01*
X023045Y033333D01*
X023085Y033464D01*
X023099Y033600D01*
X023085Y033736D01*
X023045Y033867D01*
X022981Y033988D01*
X022894Y034094D01*
Y034106D01*
X022981Y034212D01*
X023036Y034316D01*
X023115Y034301D01*
X023117Y034288D01*
X023167Y034167D01*
X023247Y034062D01*
X023513Y033797D01*
X023618Y033716D01*
X023739Y033666D01*
X023870Y033649D01*
X023870Y033649D01*
X024962D01*
X024979Y033636D01*
X025119Y033578D01*
X025269Y033558D01*
X025419Y033578D01*
X025559Y033636D01*
X025679Y033728D01*
X025771Y033848D01*
X025829Y033988D01*
X025849Y034138D01*
X025829Y034288D01*
X025771Y034428D01*
X025679Y034548D01*
X025559Y034640D01*
X025419Y034698D01*
X025269Y034718D01*
X025119Y034698D01*
X025021Y034657D01*
X024108D01*
Y036590D01*
X024162Y036720D01*
X024688Y037246D01*
X026065D01*
X026200Y037190D01*
X026350Y037170D01*
X026500Y037190D01*
X026528Y037201D01*
X026863Y036866D01*
X026919Y036731D01*
X026970Y036665D01*
X026934Y036593D01*
X026265D01*
X026160Y036579D01*
X026063Y036539D01*
X025979Y036475D01*
X025915Y036391D01*
X025875Y036294D01*
X025861Y036189D01*
Y035311D01*
X025875Y035207D01*
X025915Y035110D01*
X025979Y035026D01*
X026063Y034962D01*
X026160Y034922D01*
X026265Y034908D01*
X027134D01*
X027239Y034922D01*
X027336Y034962D01*
X027420Y035026D01*
X027484Y035110D01*
X027524Y035207D01*
X027538Y035311D01*
Y036189D01*
X027524Y036294D01*
X027486Y036386D01*
X027526Y036455D01*
X027571Y036461D01*
X027711Y036519D01*
X027831Y036611D01*
X027923Y036731D01*
X027981Y036871D01*
X028001Y037021D01*
X027981Y037172D01*
X027978Y037179D01*
X028022Y037246D01*
X029100D01*
X029230Y037263D01*
X029352Y037313D01*
X029456Y037393D01*
X029456Y037393D01*
X029456Y037393D01*
X030374Y038311D01*
X030509Y038367D01*
X030629Y038459D01*
X030721Y038579D01*
X030779Y038719D01*
X030799Y038869D01*
X030782Y038996D01*
X030835Y039056D01*
X031250D01*
Y030944D01*
D02*
G37*
G36*
X021119Y031946D02*
X022696D01*
Y030978D01*
X022666Y030944D01*
X020944D01*
Y031855D01*
X020978Y031939D01*
X021004Y031961D01*
X021119Y031946D01*
D02*
G37*
G36*
X029619Y038982D02*
X028891Y038254D01*
X026712D01*
X026707Y038334D01*
X026750Y038340D01*
X026890Y038398D01*
X027010Y038490D01*
X027102Y038610D01*
X027160Y038750D01*
X027173Y038850D01*
X026027D01*
X026040Y038750D01*
X026098Y038610D01*
X026190Y038490D01*
X026308Y038399D01*
X026304Y038384D01*
X026278Y038320D01*
X026200Y038310D01*
X026065Y038254D01*
X024479D01*
X024348Y038237D01*
X024227Y038187D01*
X024122Y038107D01*
X023449Y037433D01*
X023314Y037378D01*
X023194Y037285D01*
X023102Y037165D01*
X023044Y037025D01*
X022939Y037039D01*
X022894Y037094D01*
X022788Y037181D01*
X022667Y037245D01*
X022536Y037285D01*
X022400Y037299D01*
X022264Y037285D01*
X022133Y037245D01*
X022095Y037295D01*
Y037295D01*
X021450D01*
Y036600D01*
X021350D01*
Y037295D01*
X020944D01*
Y037762D01*
X021016Y037797D01*
X021100Y037732D01*
X021240Y037674D01*
X021340Y037661D01*
Y038235D01*
Y038808D01*
X021240Y038795D01*
X021100Y038737D01*
X021016Y038672D01*
X020944Y038707D01*
Y039056D01*
X025980D01*
X026033Y038996D01*
X026027Y038950D01*
X027173D01*
X027167Y038996D01*
X027220Y039056D01*
X029588D01*
X029619Y038982D01*
D02*
G37*
%LPC*%
G36*
X029605Y036100D02*
Y035527D01*
X029555D01*
Y035477D01*
X028982D01*
X028995Y035376D01*
X029053Y035237D01*
X029145Y035117D01*
X029265Y035024D01*
X029400Y034968D01*
X029992Y034377D01*
Y032736D01*
X029936Y032602D01*
X029923Y032501D01*
X031069D01*
X031056Y032602D01*
X031000Y032736D01*
Y034586D01*
X031000Y034586D01*
X030983Y034716D01*
X030933Y034838D01*
X030853Y034942D01*
X030113Y035682D01*
X030057Y035817D01*
X029965Y035937D01*
X029845Y036029D01*
X029705Y036087D01*
X029605Y036100D01*
D02*
G37*
G36*
X023250Y033023D02*
Y032500D01*
X023773D01*
X023760Y032600D01*
X023702Y032740D01*
X023610Y032860D01*
X023490Y032952D01*
X023350Y033010D01*
X023250Y033023D01*
D02*
G37*
G36*
X021963Y038185D02*
X021440D01*
Y037661D01*
X021540Y037674D01*
X021680Y037732D01*
X021800Y037824D01*
X021892Y037945D01*
X021950Y038084D01*
X021963Y038185D01*
D02*
G37*
G36*
X021440Y038808D02*
Y038285D01*
X021963D01*
X021950Y038385D01*
X021892Y038525D01*
X021800Y038645D01*
X021680Y038737D01*
X021540Y038795D01*
X021440Y038808D01*
D02*
G37*
G36*
X029505Y036100D02*
X029405Y036087D01*
X029265Y036029D01*
X029145Y035937D01*
X029053Y035817D01*
X028995Y035677D01*
X028982Y035577D01*
X029505D01*
Y036100D01*
D02*
G37*
%LPD*%
D17*
X020721Y036341D02*
X020980Y036600D01*
X021400D01*
X020721Y032848D02*
Y036341D01*
Y032848D02*
X021119Y032450D01*
X023200D01*
Y030978D02*
Y032450D01*
Y030978D02*
X023457Y030721D01*
X030308D01*
X030496Y030909D01*
Y032451D01*
Y034586D01*
X029555Y035527D02*
X030496Y034586D01*
X026692Y037750D02*
X029100D01*
X026350D02*
X026692D01*
X027421Y037021D01*
X025254Y034153D02*
X025269Y034138D01*
X023870Y034153D02*
X025254D01*
X023604Y034419D02*
X023870Y034153D01*
X023604Y034419D02*
Y036875D01*
X023619Y036890D02*
X024479Y037750D01*
X029100D02*
X030219Y038869D01*
X022400Y036600D02*
X022450Y036650D01*
X024479Y037750D02*
X026350D01*
D18*
X023604Y036875D02*
X023619Y036890D01*
D19*
X028578Y031442D02*
X028580Y031440D01*
X027656Y031442D02*
X028578D01*
X026889Y031500D02*
X026947Y031442D01*
X026200Y031500D02*
X026889D01*
X024900D02*
X026200D01*
X026390Y031690D01*
Y033050D01*
D22*
X021400Y036600D02*
D03*
D23*
X022400D02*
D03*
X021400Y035600D02*
D03*
X022400D02*
D03*
X021400Y034600D02*
D03*
X022400D02*
D03*
X021400Y033600D02*
D03*
X022400D02*
D03*
D24*
X027610Y033050D02*
D03*
X026390D02*
D03*
D25*
X030496Y032451D02*
D03*
X027421Y037021D02*
D03*
X029555Y035527D02*
D03*
X025269Y034138D02*
D03*
X024900Y031500D02*
D03*
X030219Y038869D02*
D03*
X028580Y031440D02*
D03*
X026600Y038900D02*
D03*
X023200Y032450D02*
D03*
X026350Y037750D02*
D03*
X023604Y036875D02*
D03*
X021390Y038235D02*
D03*
D26*
X027667Y031451D02*
D03*
X026958D02*
D03*
M02*
