%FSAX24Y24*%
%MOIN*%
G70*
G01*
G75*
G04 Layer_Physical_Order=1*
G04 Layer_Color=255*
%ADD10R,0.0512X0.0591*%
%ADD11R,0.0591X0.0512*%
%ADD12R,0.0394X0.0394*%
%ADD13R,0.0394X0.0394*%
%ADD14R,0.0394X0.0114*%
%ADD15R,0.0114X0.0394*%
%ADD16R,0.0472X0.0551*%
%ADD17C,0.0200*%
%ADD18C,0.0100*%
%ADD19C,0.0080*%
%ADD20C,0.0300*%
%ADD21C,0.0500*%
%ADD22C,0.0591*%
%ADD23R,0.0591X0.0591*%
%ADD24C,0.0551*%
%ADD25C,0.0350*%
G36*
X031250Y030944D02*
X030160D01*
X030154Y030950D01*
Y031899D01*
X030221Y031943D01*
X030346Y031891D01*
X030446Y031878D01*
Y032451D01*
Y033025D01*
X030346Y033012D01*
X030206Y032954D01*
X030100Y032873D01*
X030021Y032883D01*
X030007Y032902D01*
X029824Y033084D01*
Y033341D01*
X029879D01*
Y033997D01*
X029979D01*
Y033341D01*
X030624D01*
Y033412D01*
X030631Y033413D01*
X030752Y033463D01*
X030857Y033543D01*
X031007Y033693D01*
X031087Y033798D01*
X031137Y033919D01*
X031154Y034050D01*
Y034159D01*
X031250D01*
Y030944D01*
D02*
G37*
G36*
X023250Y031877D02*
X023350Y031890D01*
X023413Y031916D01*
X023479Y031871D01*
Y031133D01*
X023496Y031004D01*
X023443Y030944D01*
X020944D01*
Y031929D01*
X020963Y031946D01*
X022915D01*
X023050Y031890D01*
X023150Y031877D01*
Y032450D01*
X023250D01*
Y031877D01*
D02*
G37*
G36*
X026906Y032670D02*
X026920Y032625D01*
X026982Y032508D01*
X027067Y032405D01*
X027170Y032321D01*
X027287Y032258D01*
X027414Y032219D01*
X027547Y032206D01*
X027679Y032219D01*
X027807Y032258D01*
X027924Y032321D01*
X027962Y032352D01*
X028126D01*
Y031793D01*
X028078Y031730D01*
X028020Y031590D01*
X028000Y031440D01*
X028016Y031314D01*
X027964Y031254D01*
X025493D01*
X025448Y031321D01*
X025460Y031350D01*
X025471Y031429D01*
X025947Y031905D01*
X025947Y031905D01*
X026019Y031999D01*
X026064Y032108D01*
X026080Y032226D01*
Y032384D01*
X026106Y032405D01*
X026127Y032431D01*
X026383D01*
X026500Y032447D01*
X026564Y032473D01*
X026610Y032492D01*
X026704Y032564D01*
X026829Y032689D01*
X026906Y032670D01*
D02*
G37*
G36*
X026033Y038996D02*
X026020Y038900D01*
X025980Y038854D01*
X025100D01*
X024969Y038837D01*
X024848Y038787D01*
X024743Y038707D01*
X024298Y038261D01*
X024247Y038195D01*
X023959D01*
Y038004D01*
X022300D01*
X022169Y037987D01*
X022048Y037937D01*
X021966Y037874D01*
X021894Y037909D01*
Y037950D01*
X021950Y038084D01*
X021963Y038185D01*
X021390D01*
Y038235D01*
X021340D01*
Y038808D01*
X021240Y038795D01*
X021100Y038737D01*
X021016Y038672D01*
X020944Y038707D01*
Y039056D01*
X025980D01*
X026033Y038996D01*
D02*
G37*
G36*
X031250Y036705D02*
X031200D01*
X031056Y036686D01*
X030992Y036729D01*
Y037534D01*
X030459D01*
Y037707D01*
X030574Y037822D01*
X030654Y037927D01*
X030705Y038048D01*
X030722Y038179D01*
X030722Y038179D01*
X030722Y038179D01*
Y038179D01*
Y038581D01*
X030779Y038719D01*
X030799Y038869D01*
X030782Y038996D01*
X030835Y039056D01*
X031250D01*
Y036705D01*
D02*
G37*
%LPC*%
G36*
X021440Y038808D02*
Y038285D01*
X021963D01*
X021950Y038385D01*
X021892Y038525D01*
X021800Y038645D01*
X021680Y038737D01*
X021540Y038795D01*
X021440Y038808D01*
D02*
G37*
G36*
X030546Y033025D02*
Y032501D01*
X031069D01*
X031056Y032602D01*
X030998Y032741D01*
X030906Y032861D01*
X030786Y032954D01*
X030646Y033012D01*
X030546Y033025D01*
D02*
G37*
G36*
X031069Y032401D02*
X030546D01*
Y031878D01*
X030646Y031891D01*
X030786Y031949D01*
X030906Y032041D01*
X030998Y032161D01*
X031056Y032301D01*
X031069Y032401D01*
D02*
G37*
%LPD*%
D10*
X024653Y033180D02*
D03*
X023983D02*
D03*
X028499Y033047D02*
D03*
X029168D02*
D03*
X029667Y036839D02*
D03*
X030336D02*
D03*
X025285Y037500D02*
D03*
X024615D02*
D03*
X029803Y037765D02*
D03*
X029134D02*
D03*
X029325Y038870D02*
D03*
X028656D02*
D03*
D11*
X028996Y034594D02*
D03*
Y033924D02*
D03*
X029929Y034666D02*
D03*
Y033997D02*
D03*
X030806Y035484D02*
D03*
Y034815D02*
D03*
D12*
X028856Y035626D02*
D03*
X028226D02*
D03*
X028773Y036859D02*
D03*
X028143D02*
D03*
D13*
X028116Y034615D02*
D03*
Y033985D02*
D03*
D14*
X025643Y036301D02*
D03*
Y036104D02*
D03*
Y035907D02*
D03*
Y035711D02*
D03*
Y035514D02*
D03*
X027297D02*
D03*
Y035711D02*
D03*
Y035907D02*
D03*
Y036104D02*
D03*
Y036301D02*
D03*
D15*
X026077Y035081D02*
D03*
X026273D02*
D03*
X026470D02*
D03*
X026667D02*
D03*
X026864D02*
D03*
Y036734D02*
D03*
X026667D02*
D03*
X026470D02*
D03*
X026273D02*
D03*
X026077D02*
D03*
D16*
X027641Y037750D02*
D03*
X028350D02*
D03*
D17*
X030650Y034050D02*
Y034855D01*
X026667Y038350D02*
X026700D01*
X025100D02*
X026667D01*
Y038383D02*
X026700Y038350D01*
X022400Y036600D02*
X022675Y036875D01*
X023604D01*
X029150Y033055D02*
Y034005D01*
X029900D01*
X030500Y033900D02*
X030650Y034050D01*
X030005Y033900D02*
X030500D01*
X029450Y030750D02*
X029650Y030950D01*
Y032545D01*
X024655Y037500D02*
Y037905D01*
X025100Y038350D01*
X026700D02*
X028100D01*
X028291Y038159D01*
X030550Y036150D02*
X031200D01*
X031200Y036150D01*
X029325Y038870D02*
X030218D01*
X029803Y037765D02*
X030218Y038179D01*
X028291Y038505D02*
X028656Y038870D01*
X028291Y037750D02*
Y038159D01*
Y038505D01*
Y037750D02*
X029119D01*
X030218Y038179D02*
Y038870D01*
X025269Y034138D02*
X025850D01*
X026600Y038450D02*
Y038900D01*
X024366Y030750D02*
X029450D01*
X023983Y031133D02*
X024366Y030750D01*
X021390Y036610D02*
Y038235D01*
Y036610D02*
X021400Y036600D01*
X029145Y033050D02*
X029650Y032545D01*
X024061Y033759D02*
X026003D01*
X023946Y033644D02*
X024061Y033759D01*
X023946Y033218D02*
Y033644D01*
Y033218D02*
X023983Y033180D01*
Y031133D02*
Y032443D01*
Y033180D01*
X023200Y032450D02*
X023976D01*
X023983Y032443D01*
X020963Y032450D02*
X023200D01*
X020721Y032692D02*
X020963Y032450D01*
X020721Y032692D02*
Y036417D01*
X020937Y036633D01*
X021367D01*
X021390Y036610D01*
X021317Y036537D02*
X021400Y036600D01*
X021317Y036537D02*
X021390Y036610D01*
X021400Y036600D02*
X022300Y037500D01*
X024655D01*
D18*
X029161Y036188D02*
X029532Y035817D01*
X028573Y036188D02*
X029161D01*
X028423Y036337D02*
X028573Y036188D01*
X027952Y036337D02*
X028423D01*
X027719Y036104D02*
X027952Y036337D01*
X026350Y037528D02*
Y037750D01*
Y037528D02*
X026462Y037417D01*
Y036704D02*
Y037417D01*
Y036704D02*
X026470Y036695D01*
X026059Y037163D02*
X026077Y037145D01*
X025800Y037163D02*
X026059D01*
X025537Y036900D02*
X025800Y037163D01*
X024655Y036983D02*
Y037500D01*
Y036983D02*
X024738Y036900D01*
X025537D01*
X026077Y036695D02*
Y037145D01*
X027163Y037750D02*
X027700D01*
X026864Y037451D02*
X027163Y037750D01*
X026864Y036695D02*
Y037451D01*
X026667Y038350D02*
Y038383D01*
Y036695D02*
Y038350D01*
X026600Y038450D02*
X026667Y038383D01*
X025245Y037500D02*
X026011D01*
X026273Y037238D01*
Y036695D02*
Y037238D01*
X022852Y036093D02*
X023051Y036292D01*
X021893Y036093D02*
X022852D01*
X023051Y036292D02*
X025674D01*
X022943Y035600D02*
X023448Y036104D01*
X022400Y035600D02*
X022943D01*
X023448Y036104D02*
X025683D01*
X025674Y036292D02*
X025683Y036301D01*
X021400Y035600D02*
X021893Y036093D01*
X024007Y035907D02*
X025683D01*
X023250Y035150D02*
X024007Y035907D01*
X024311Y035711D02*
X025683D01*
X023150Y034550D02*
X024311Y035711D01*
X024614Y035514D02*
X025683D01*
X023150Y034050D02*
X024614Y035514D01*
X027258Y036104D02*
X027719D01*
X027584Y036301D02*
X027747Y036464D01*
X027258Y036301D02*
X027584D01*
X027747Y036464D02*
Y036923D01*
X028463Y036019D02*
X028856Y035626D01*
X027919Y036019D02*
X028463D01*
X027807Y035907D02*
X027919Y036019D01*
X027258Y035907D02*
X027807D01*
X027686Y034415D02*
X028116Y033985D01*
X027686Y034415D02*
Y035346D01*
X027518Y035514D02*
X027686Y035346D01*
X027258Y035514D02*
X027518D01*
X026003Y033759D02*
X026470Y034227D01*
Y035120D01*
X026000Y034550D02*
X026077Y034627D01*
Y035120D01*
X029624Y036648D02*
X029772Y036796D01*
X021950Y035150D02*
X023250D01*
X021400Y034600D02*
X021950Y035150D01*
X022450Y034550D02*
X023150D01*
X022400Y034600D02*
X022450Y034550D01*
X021850Y034050D02*
X023150D01*
X021400Y033600D02*
X021850Y034050D01*
X022400Y033600D02*
X023250D01*
X024200Y034550D01*
X026000D01*
X029145Y033050D02*
X029150Y033055D01*
Y034595D02*
X029900D01*
X029950Y034545D01*
X029900Y034005D02*
X030005Y033900D01*
X030650Y035445D02*
X030700Y035495D01*
X028555Y033050D02*
X028580Y033025D01*
Y031440D02*
Y033025D01*
X030218Y038870D02*
X030219Y038869D01*
X029119Y037750D02*
X029134Y037765D01*
X028929Y034594D02*
X028996D01*
X028321Y033985D02*
X028929Y034594D01*
X028116Y033985D02*
X028321D01*
X030336Y036364D02*
Y036839D01*
Y036364D02*
X030550Y036150D01*
X030806Y035894D01*
Y035484D02*
Y035894D01*
X028805Y035626D02*
X028856D01*
X027668Y037002D02*
X027747Y036923D01*
X027440Y037002D02*
X027668D01*
X026864Y034586D02*
X027516Y033934D01*
Y032916D02*
Y033934D01*
Y032916D02*
X027547Y032885D01*
X026864Y034586D02*
Y035081D01*
Y035120D01*
X027547Y032885D02*
X028337D01*
X028499Y033047D01*
X026667Y033170D02*
Y035081D01*
Y035120D01*
X025626Y032885D02*
X026383D01*
X026667Y033170D01*
X025626Y032226D02*
Y032885D01*
X024900Y031500D02*
X025626Y032226D01*
X024948Y032885D02*
X025626D01*
X024653Y033180D02*
X024948Y032885D01*
D19*
X028188Y035589D02*
X028226Y035626D01*
X028152Y035553D02*
X028188Y035589D01*
X027718D02*
X028188D01*
X027596Y035711D02*
X027718Y035589D01*
X027258Y035711D02*
X027596D01*
X026079Y034130D02*
X026273Y034324D01*
Y035120D01*
X029646Y036859D02*
X029667Y036839D01*
X028773Y036859D02*
X029646D01*
X028856Y035626D02*
X028867Y035615D01*
Y035319D02*
Y035615D01*
Y035319D02*
X028988Y035198D01*
X030194D01*
X030276Y035281D01*
Y035848D01*
X029717Y036407D02*
X030276Y035848D01*
X028595Y036407D02*
X029717D01*
X028226Y034725D02*
Y035626D01*
X028116Y034615D02*
X028226Y034725D01*
X028143Y036859D02*
X028595Y036407D01*
X025858Y034130D02*
X026079D01*
X025850Y034138D02*
X025858Y034130D01*
X028790Y035626D02*
X028805D01*
X028856D01*
X027421Y037021D02*
X027440Y037002D01*
D20*
X031200Y036150D02*
X031700D01*
D21*
X034679Y039129D01*
X039129D01*
Y030871D02*
Y039129D01*
X038200Y030871D02*
X039129D01*
D22*
X022400Y033600D02*
D03*
X021400D02*
D03*
X022400Y034600D02*
D03*
X021400D02*
D03*
X022400Y035600D02*
D03*
X021400D02*
D03*
X022400Y036600D02*
D03*
D23*
X021400D02*
D03*
D24*
X027547Y032885D02*
D03*
X025626D02*
D03*
D25*
X029532Y035817D02*
D03*
X021390Y038235D02*
D03*
X023604Y036875D02*
D03*
X026350Y037750D02*
D03*
X023200Y032450D02*
D03*
X026600Y038900D02*
D03*
X028580Y031440D02*
D03*
X030219Y038869D02*
D03*
X024900Y031500D02*
D03*
X025269Y034138D02*
D03*
X027421Y037021D02*
D03*
X030496Y032451D02*
D03*
M02*
