%FSAX24Y24*%
%MOIN*%
G70*
G01*
G75*
G04 Layer_Physical_Order=1*
G04 Layer_Color=255*
%ADD10R,0.0276X0.0354*%
%ADD11R,0.0354X0.0276*%
%ADD12R,0.0433X0.0551*%
%ADD13R,0.0551X0.0433*%
%ADD14O,0.0114X0.0374*%
%ADD15O,0.0374X0.0114*%
%ADD16C,0.0100*%
%ADD17C,0.0080*%
%ADD18C,0.0200*%
%ADD19C,0.0300*%
%ADD20C,0.0500*%
%ADD21C,0.0512*%
%ADD22C,0.0591*%
%ADD23R,0.0591X0.0591*%
%ADD24C,0.0551*%
%ADD25C,0.0350*%
%ADD26C,0.0500*%
G36*
X031102Y035914D02*
X031200Y035895D01*
X031250D01*
Y030643D01*
X029664D01*
X029633Y030717D01*
X029758Y030842D01*
X029791Y030891D01*
X029803Y030950D01*
Y032545D01*
X029791Y032604D01*
X029758Y032653D01*
X029462Y032950D01*
Y033000D01*
X029195D01*
Y032674D01*
X029305D01*
X029497Y032482D01*
Y031013D01*
X029387Y030903D01*
X026363D01*
X026156Y031110D01*
Y032690D01*
X026222Y032734D01*
X026297Y032703D01*
X026390Y032691D01*
X026483Y032703D01*
X026569Y032739D01*
X026644Y032796D01*
X026701Y032871D01*
X026737Y032957D01*
X026749Y033050D01*
X026737Y033143D01*
X026701Y033229D01*
X026644Y033304D01*
X026569Y033361D01*
X026503Y033388D01*
Y033787D01*
X026966Y034250D01*
X026986Y034248D01*
X027497Y033737D01*
Y033388D01*
X027431Y033361D01*
X027356Y033304D01*
X027299Y033229D01*
X027263Y033143D01*
X027251Y033050D01*
X027263Y032957D01*
X027299Y032871D01*
X027356Y032796D01*
X027431Y032739D01*
X027517Y032703D01*
X027610Y032691D01*
X027703Y032703D01*
X027790Y032739D01*
X027864Y032796D01*
X027921Y032871D01*
X027932Y032897D01*
X028238D01*
Y032674D01*
X028402D01*
Y031845D01*
X028402Y031845D01*
X028402D01*
X028413Y031787D01*
X028447Y031737D01*
X028549Y031635D01*
X028534Y031598D01*
X028521Y031500D01*
X028534Y031402D01*
X028572Y031311D01*
X028632Y031232D01*
X028711Y031172D01*
X028802Y031134D01*
X028900Y031121D01*
X028998Y031134D01*
X029089Y031172D01*
X029168Y031232D01*
X029228Y031311D01*
X029266Y031402D01*
X029279Y031500D01*
X029266Y031598D01*
X029228Y031689D01*
X029168Y031768D01*
X029089Y031828D01*
X028998Y031866D01*
X028900Y031879D01*
X028802Y031866D01*
X028765Y031851D01*
X028708Y031909D01*
Y032674D01*
X029095D01*
Y033050D01*
X029145D01*
Y033100D01*
X029462D01*
Y033426D01*
X029303D01*
Y033688D01*
X029526D01*
D01*
X029526D01*
X029574Y033639D01*
Y033638D01*
X029900D01*
Y033955D01*
X030000D01*
Y033638D01*
X030326D01*
Y033747D01*
X030500D01*
X030559Y033759D01*
X030608Y033792D01*
X030608Y033792D01*
X030608Y033792D01*
X030758Y033942D01*
X030791Y033991D01*
X030803Y034050D01*
X030803Y034050D01*
X030803Y034050D01*
Y034050D01*
Y034538D01*
X031026D01*
Y034805D01*
X030650D01*
Y034905D01*
X031026D01*
Y035129D01*
Y035762D01*
X030853D01*
Y035946D01*
X031055D01*
X031102Y035914D01*
D02*
G37*
G36*
X029051Y035872D02*
X029059D01*
X029116Y035816D01*
Y035767D01*
X030274D01*
Y035762D01*
X030274D01*
Y035129D01*
Y034862D01*
X029574D01*
D01*
X029574D01*
X029526Y034911D01*
Y034912D01*
X028774D01*
Y034764D01*
X028706Y034722D01*
X028651Y034751D01*
Y035080D01*
X028651D01*
Y035096D01*
X028708Y035153D01*
X029025D01*
Y035707D01*
X028712D01*
X028621Y035798D01*
X028651Y035872D01*
X029051D01*
Y035872D01*
D02*
G37*
G36*
X023604Y035720D02*
X023187Y035303D01*
X022761D01*
X022725Y035375D01*
X022745Y035401D01*
X022785Y035497D01*
X022799Y035600D01*
X022785Y035703D01*
X022775Y035727D01*
X022820Y035794D01*
X023573D01*
X023604Y035720D01*
D02*
G37*
G36*
X031250Y039643D02*
X020500D01*
X020445Y039632D01*
X020399Y039601D01*
X020368Y039555D01*
X020357Y039500D01*
Y030500D01*
X020368Y030445D01*
X020399Y030399D01*
X020445Y030368D01*
X020500Y030357D01*
X031250D01*
Y030250D01*
X020250D01*
Y039750D01*
X031250D01*
Y039643D01*
D02*
G37*
G36*
X027744Y035131D02*
Y034338D01*
X027755Y034279D01*
X027789Y034230D01*
X027875Y034144D01*
X027875Y034144D01*
X027875D01*
X027875Y034144D01*
X027875D01*
X027875Y034144D01*
Y034144D01*
Y034144D01*
D01*
D01*
X027875D01*
Y034144D01*
X027924Y034111D01*
X027983Y034099D01*
X028097D01*
Y034014D01*
X028651D01*
Y034055D01*
X028728Y034078D01*
X028744Y034055D01*
X029150D01*
Y033955D01*
X028774D01*
Y033688D01*
X028997D01*
Y033426D01*
X028238D01*
Y033203D01*
X027932D01*
X027921Y033229D01*
X027864Y033304D01*
X027803Y033351D01*
Y033800D01*
X027791Y033859D01*
X027758Y033908D01*
X027247Y034420D01*
Y034865D01*
X027254Y034902D01*
Y035161D01*
X027289Y035196D01*
X027548D01*
X027585Y035203D01*
X027672D01*
X027744Y035131D01*
D02*
G37*
G36*
X025852Y035196D02*
X026111D01*
X026146Y035161D01*
Y034912D01*
X025937Y034703D01*
X024200D01*
X024141Y034691D01*
X024092Y034658D01*
X023187Y033753D01*
X022764D01*
X022745Y033799D01*
X022725Y033825D01*
X022761Y033897D01*
X023150D01*
X023209Y033909D01*
X023258Y033942D01*
X024520Y035203D01*
X025815D01*
X025852Y035196D01*
D02*
G37*
G36*
X031250Y036405D02*
X031200D01*
X031102Y036386D01*
X031055Y036354D01*
X030550D01*
X030472Y036338D01*
X030410Y036297D01*
X030340Y036335D01*
Y036518D01*
X029116D01*
Y036427D01*
X029051D01*
Y036427D01*
X028575D01*
Y035971D01*
X028534Y035930D01*
X028523Y035935D01*
X028461Y036052D01*
Y036427D01*
X028043D01*
Y036591D01*
X028109Y036657D01*
X029000D01*
X029000Y036657D01*
X029055Y036668D01*
X029101Y036699D01*
X029641Y037240D01*
X029641Y037240D01*
X029672Y037286D01*
X029672Y037286D01*
X029672Y037286D01*
X029683Y037341D01*
X029683Y037341D01*
Y037424D01*
X029857D01*
Y038176D01*
X029683D01*
Y038274D01*
X029857D01*
Y038497D01*
X030137D01*
X030147Y038487D01*
Y038379D01*
X030104Y038346D01*
X030060Y038289D01*
X030032Y038222D01*
X030023Y038150D01*
X030032Y038078D01*
X030060Y038011D01*
X030104Y037954D01*
X030161Y037910D01*
X030228Y037882D01*
X030300Y037873D01*
X030372Y037882D01*
X030439Y037910D01*
X030496Y037954D01*
X030540Y038011D01*
X030568Y038078D01*
X030577Y038150D01*
X030568Y038222D01*
X030540Y038289D01*
X030496Y038346D01*
X030453Y038379D01*
Y038550D01*
X030441Y038609D01*
X030408Y038658D01*
X030308Y038758D01*
X030259Y038791D01*
X030200Y038803D01*
X029857D01*
Y039026D01*
X029000D01*
Y038650D01*
X028950D01*
Y038600D01*
X028633D01*
Y038274D01*
X028797D01*
Y038176D01*
X028633D01*
Y038126D01*
X028607D01*
Y038126D01*
X028443D01*
Y038159D01*
X028432Y038218D01*
X028399Y038268D01*
X028208Y038458D01*
X028159Y038491D01*
X028100Y038503D01*
X026761D01*
X026745Y038581D01*
X026777Y038594D01*
X026850Y038650D01*
X026906Y038723D01*
X026941Y038809D01*
X026946Y038850D01*
X026254D01*
X026259Y038809D01*
X026294Y038723D01*
X026350Y038650D01*
X026423Y038594D01*
X026455Y038581D01*
X026439Y038503D01*
X025100D01*
X025041Y038491D01*
X024992Y038458D01*
X024547Y038013D01*
X024513Y037963D01*
X024502Y037905D01*
Y037876D01*
X024338D01*
Y037653D01*
X022300D01*
X022241Y037641D01*
X022192Y037608D01*
X021579Y036995D01*
X021450D01*
Y036650D01*
X021795D01*
Y036779D01*
X022363Y037347D01*
X024338D01*
Y037124D01*
X024506D01*
X024513Y037087D01*
X024547Y037037D01*
X024792Y036792D01*
X024841Y036759D01*
X024900Y036747D01*
X026137D01*
X026153Y036730D01*
Y036635D01*
X026146Y036598D01*
Y036518D01*
X026306D01*
Y036418D01*
X026146D01*
Y036339D01*
X026111Y036304D01*
X025852D01*
X025815Y036297D01*
X022756D01*
X022721Y036368D01*
X022745Y036401D01*
X022785Y036497D01*
X022799Y036600D01*
X022785Y036703D01*
X022745Y036799D01*
X022682Y036882D01*
X022599Y036945D01*
X022503Y036985D01*
X022400Y036999D01*
X022297Y036985D01*
X022201Y036945D01*
X022118Y036882D01*
X022055Y036799D01*
X022015Y036703D01*
X022001Y036600D01*
X022015Y036497D01*
X022055Y036401D01*
X022079Y036368D01*
X022044Y036297D01*
X021944D01*
X021885Y036285D01*
X021866Y036272D01*
X021795Y036310D01*
Y036550D01*
X021450D01*
Y036205D01*
X021684D01*
X021715Y036131D01*
X021550Y035966D01*
X021503Y035985D01*
X021400Y035999D01*
X021297Y035985D01*
X021201Y035945D01*
X021118Y035882D01*
X021055Y035799D01*
X021015Y035703D01*
X021001Y035600D01*
X021015Y035497D01*
X021055Y035401D01*
X021118Y035318D01*
X021201Y035255D01*
X021297Y035215D01*
X021400Y035201D01*
X021503Y035215D01*
X021599Y035255D01*
X021682Y035318D01*
X021745Y035401D01*
X021785Y035497D01*
X021799Y035600D01*
X021785Y035703D01*
X021766Y035750D01*
X022007Y035991D01*
X022136D01*
X022161Y035915D01*
X022118Y035882D01*
X022055Y035799D01*
X022015Y035703D01*
X022001Y035600D01*
X022015Y035497D01*
X022055Y035401D01*
X022075Y035375D01*
X022039Y035303D01*
X021950D01*
X021901Y035293D01*
X021891Y035291D01*
X021842Y035258D01*
X021550Y034966D01*
X021503Y034985D01*
X021400Y034999D01*
X021297Y034985D01*
X021201Y034945D01*
X021118Y034882D01*
X021055Y034799D01*
X021015Y034703D01*
X021001Y034600D01*
X021015Y034497D01*
X021055Y034401D01*
X021118Y034318D01*
X021201Y034255D01*
X021297Y034215D01*
X021400Y034201D01*
X021503Y034215D01*
X021599Y034255D01*
X021682Y034318D01*
X021745Y034401D01*
X021785Y034497D01*
X021799Y034600D01*
X021785Y034703D01*
X021766Y034750D01*
X022013Y034997D01*
X022144D01*
X022169Y034921D01*
X022118Y034882D01*
X022055Y034799D01*
X022015Y034703D01*
X022001Y034600D01*
X022015Y034497D01*
X022055Y034401D01*
X022118Y034318D01*
X022169Y034279D01*
X022144Y034203D01*
X021850D01*
X021791Y034191D01*
X021742Y034158D01*
X021550Y033966D01*
X021503Y033985D01*
X021400Y033999D01*
X021297Y033985D01*
X021201Y033945D01*
X021118Y033882D01*
X021055Y033799D01*
X021015Y033703D01*
X021001Y033600D01*
X021015Y033497D01*
X021055Y033401D01*
X021118Y033318D01*
X021201Y033255D01*
X021297Y033215D01*
X021400Y033201D01*
X021503Y033215D01*
X021599Y033255D01*
X021682Y033318D01*
X021745Y033401D01*
X021785Y033497D01*
X021799Y033600D01*
X021785Y033703D01*
X021766Y033750D01*
X021913Y033897D01*
X022039D01*
X022075Y033825D01*
X022055Y033799D01*
X022015Y033703D01*
X022001Y033600D01*
X022015Y033497D01*
X022055Y033401D01*
X022118Y033318D01*
X022201Y033255D01*
X022297Y033215D01*
X022400Y033201D01*
X022503Y033215D01*
X022599Y033255D01*
X022682Y033318D01*
X022745Y033401D01*
X022764Y033447D01*
X023250D01*
X023309Y033459D01*
X023358Y033492D01*
X023358Y033492D01*
X023358Y033492D01*
X024263Y034397D01*
X025944D01*
X025955Y034369D01*
X025911Y034303D01*
X025050D01*
X024991Y034291D01*
X024942Y034258D01*
X024647Y033963D01*
X024613Y033913D01*
X024602Y033855D01*
Y033476D01*
X024438D01*
Y033150D01*
X024755D01*
Y033100D01*
X024805D01*
Y032724D01*
X025192D01*
Y032009D01*
X025035Y031851D01*
X024998Y031866D01*
X024900Y031879D01*
X024802Y031866D01*
X024711Y031828D01*
X024632Y031768D01*
X024572Y031689D01*
X024534Y031598D01*
X024521Y031500D01*
X024534Y031402D01*
X024572Y031311D01*
X024632Y031232D01*
X024711Y031172D01*
X024802Y031134D01*
X024900Y031121D01*
X024998Y031134D01*
X025089Y031172D01*
X025168Y031232D01*
X025228Y031311D01*
X025266Y031402D01*
X025279Y031500D01*
X025266Y031598D01*
X025251Y031635D01*
X025453Y031837D01*
X025487Y031887D01*
X025498Y031945D01*
Y032724D01*
X025662D01*
Y033476D01*
X024908D01*
Y033791D01*
X025113Y033997D01*
X025850D01*
Y031047D01*
X025850Y031047D01*
X025850D01*
X025862Y030989D01*
X025895Y030939D01*
X026117Y030717D01*
X026086Y030643D01*
X020643D01*
Y039357D01*
X031250D01*
Y036405D01*
D02*
G37*
G36*
X026744Y038090D02*
Y037677D01*
X026684Y037652D01*
X026621Y037701D01*
X026627Y037750D01*
X026618Y037822D01*
X026590Y037889D01*
X026546Y037946D01*
X026489Y037990D01*
X026422Y038018D01*
X026350Y038027D01*
X026278Y038018D01*
X026211Y037990D01*
X026154Y037946D01*
X026110Y037889D01*
X026082Y037822D01*
X026073Y037750D01*
X026082Y037678D01*
X026110Y037611D01*
X026154Y037554D01*
X026211Y037510D01*
X026278Y037482D01*
X026350Y037473D01*
X026404Y037480D01*
X026547Y037337D01*
Y037130D01*
X026473Y037099D01*
X025964Y037608D01*
X025914Y037641D01*
X025856Y037653D01*
X025562D01*
Y037876D01*
X024946D01*
X024916Y037950D01*
X025163Y038197D01*
X026637D01*
X026744Y038090D01*
D02*
G37*
G36*
X029000Y037424D02*
X029318D01*
X029349Y037350D01*
X028941Y036943D01*
X028050D01*
X028050Y036943D01*
X027995Y036932D01*
X027949Y036901D01*
X027799Y036751D01*
X027768Y036705D01*
X027757Y036650D01*
X027757Y036650D01*
Y036286D01*
X027618D01*
X027610Y036292D01*
X027548Y036304D01*
X027289D01*
X027254Y036339D01*
Y036598D01*
X027247Y036635D01*
Y037080D01*
X027541Y037374D01*
X027635D01*
X027641Y037370D01*
X027700Y037359D01*
X027759Y037370D01*
X027765Y037374D01*
X028241D01*
Y037750D01*
X028341D01*
Y037374D01*
X028607D01*
Y037424D01*
X028633D01*
Y037424D01*
X028900D01*
Y037800D01*
X029000D01*
Y037424D01*
D02*
G37*
%LPC*%
G36*
X023250Y032796D02*
Y032500D01*
X023546D01*
X023541Y032541D01*
X023506Y032627D01*
X023450Y032700D01*
X023377Y032756D01*
X023291Y032791D01*
X023250Y032796D01*
D02*
G37*
G36*
X023150D02*
X023109Y032791D01*
X023023Y032756D01*
X022950Y032700D01*
X022894Y032627D01*
X022859Y032541D01*
X022854Y032500D01*
X023150D01*
Y032796D01*
D02*
G37*
G36*
X027800Y032446D02*
Y032150D01*
X028096D01*
X028091Y032191D01*
X028056Y032277D01*
X028000Y032350D01*
X027927Y032406D01*
X027841Y032441D01*
X027800Y032446D01*
D02*
G37*
G36*
X028096Y032050D02*
X027800D01*
Y031754D01*
X027841Y031759D01*
X027927Y031794D01*
X028000Y031850D01*
X028056Y031923D01*
X028091Y032009D01*
X028096Y032050D01*
D02*
G37*
G36*
X027700D02*
X027404D01*
X027409Y032009D01*
X027444Y031923D01*
X027500Y031850D01*
X027573Y031794D01*
X027659Y031759D01*
X027700Y031754D01*
Y032050D01*
D02*
G37*
G36*
X026650Y039246D02*
Y038950D01*
X026946D01*
X026941Y038991D01*
X026906Y039077D01*
X026850Y039150D01*
X026777Y039206D01*
X026691Y039241D01*
X026650Y039246D01*
D02*
G37*
G36*
X027700Y032446D02*
X027659Y032441D01*
X027573Y032406D01*
X027500Y032350D01*
X027444Y032277D01*
X027409Y032191D01*
X027404Y032150D01*
X027700D01*
Y032446D01*
D02*
G37*
G36*
X023546Y032400D02*
X023250D01*
Y032104D01*
X023291Y032109D01*
X023377Y032144D01*
X023450Y032200D01*
X023506Y032273D01*
X023541Y032359D01*
X023546Y032400D01*
D02*
G37*
G36*
X023150D02*
X022854D01*
X022859Y032359D01*
X022894Y032273D01*
X022950Y032200D01*
X023023Y032144D01*
X023109Y032109D01*
X023150Y032104D01*
Y032400D01*
D02*
G37*
G36*
X021350Y036995D02*
X021005D01*
Y036650D01*
X021350D01*
Y036995D01*
D02*
G37*
G36*
X023846Y036750D02*
X023550D01*
Y036454D01*
X023591Y036459D01*
X023677Y036494D01*
X023750Y036550D01*
X023806Y036623D01*
X023841Y036709D01*
X023846Y036750D01*
D02*
G37*
G36*
X023550Y037146D02*
Y036850D01*
X023846D01*
X023841Y036891D01*
X023806Y036977D01*
X023750Y037050D01*
X023677Y037106D01*
X023591Y037141D01*
X023550Y037146D01*
D02*
G37*
G36*
X023450D02*
X023409Y037141D01*
X023323Y037106D01*
X023250Y037050D01*
X023194Y036977D01*
X023159Y036891D01*
X023154Y036850D01*
X023450D01*
Y037146D01*
D02*
G37*
G36*
Y036750D02*
X023154D01*
X023159Y036709D01*
X023194Y036623D01*
X023250Y036550D01*
X023323Y036494D01*
X023409Y036459D01*
X023450Y036454D01*
Y036750D01*
D02*
G37*
G36*
X026550Y039246D02*
X026509Y039241D01*
X026423Y039206D01*
X026350Y039150D01*
X026294Y039077D01*
X026259Y038991D01*
X026254Y038950D01*
X026550D01*
Y039246D01*
D02*
G37*
G36*
X024705Y033050D02*
X024438D01*
Y032724D01*
X024705D01*
Y033050D01*
D02*
G37*
G36*
X021350Y036550D02*
X021005D01*
Y036205D01*
X021350D01*
Y036550D01*
D02*
G37*
G36*
X028900Y039026D02*
X028633D01*
Y038700D01*
X028900D01*
Y039026D01*
D02*
G37*
%LPD*%
D10*
X028223Y036149D02*
D03*
X028813D02*
D03*
X028197Y035430D02*
D03*
X028787D02*
D03*
D11*
X028374Y034252D02*
D03*
Y034843D02*
D03*
D12*
X028291Y037750D02*
D03*
X027700D02*
D03*
X025245Y037500D02*
D03*
X024655D02*
D03*
X029541Y037800D02*
D03*
X028950D02*
D03*
X029541Y038650D02*
D03*
X028950D02*
D03*
X029433Y036143D02*
D03*
X030023D02*
D03*
X028555Y033050D02*
D03*
X029145D02*
D03*
X025345Y033100D02*
D03*
X024755D02*
D03*
D13*
X030650Y035445D02*
D03*
Y034855D02*
D03*
X029950Y034545D02*
D03*
Y033955D02*
D03*
X029150Y034595D02*
D03*
Y034005D02*
D03*
D14*
X026306Y036469D02*
D03*
X026503D02*
D03*
X026700D02*
D03*
X026897D02*
D03*
X027094D02*
D03*
Y035031D02*
D03*
X026897D02*
D03*
X026700D02*
D03*
X026503D02*
D03*
X026306D02*
D03*
D15*
X027418Y036144D02*
D03*
Y035947D02*
D03*
Y035750D02*
D03*
Y035553D02*
D03*
Y035356D02*
D03*
X025982D02*
D03*
Y035553D02*
D03*
Y035750D02*
D03*
Y035947D02*
D03*
Y036144D02*
D03*
D16*
X030543Y036143D02*
X030550Y036150D01*
X030023Y036143D02*
X030543D01*
X028813Y036149D02*
X029426D01*
X029255Y036150D02*
X029433Y036143D01*
X029426Y036149D02*
X029433Y036143D01*
X028815Y034595D02*
X029150D01*
X028734Y034515D02*
X028815Y034595D01*
X028734Y034338D02*
Y034515D01*
X028648Y034252D02*
X028734Y034338D01*
X028374Y034252D02*
X028648D01*
X027983D02*
X028374D01*
X027897Y034338D02*
X027983Y034252D01*
X027897Y034338D02*
Y035195D01*
X027735Y035356D02*
X027897Y035195D01*
X027418Y035356D02*
X027735D01*
X021944Y036144D02*
X025982D01*
X021400Y035600D02*
X021944Y036144D01*
X022747Y035947D02*
X025982D01*
X022400Y035600D02*
X022747Y035947D01*
X023850Y035750D02*
X025982D01*
X023250Y035150D02*
X023850Y035750D01*
X021950Y035150D02*
X023250D01*
X021400Y034600D02*
X021950Y035150D01*
X024153Y035553D02*
X025982D01*
X023150Y034550D02*
X024153Y035553D01*
X022450Y034550D02*
X023150D01*
X022400Y034600D02*
X022450Y034550D01*
X024456Y035356D02*
X025982D01*
X023150Y034050D02*
X024456Y035356D01*
X021850Y034050D02*
X023150D01*
X021400Y033600D02*
X021850Y034050D01*
X022400Y033600D02*
X023250D01*
X024200Y034550D01*
X026000D01*
X026306Y034856D01*
Y035031D01*
X026503D02*
Y035553D01*
X026700Y035750D01*
X026691Y035023D02*
X026700Y035031D01*
X026691Y034824D02*
Y035023D01*
X026018Y034150D02*
X026691Y034824D01*
X025050Y034150D02*
X026018D01*
X024755Y033855D02*
X025050Y034150D01*
X024755Y033100D02*
Y033855D01*
X026897Y034397D02*
Y035031D01*
X026350Y033850D02*
X026897Y034397D01*
X026350Y033090D02*
Y033850D01*
X027094Y034356D02*
Y035031D01*
Y034356D02*
X027650Y033800D01*
Y033090D02*
Y033800D01*
X027610Y033050D02*
X027650Y033090D01*
X027610Y033050D02*
X028555D01*
X028555Y033050D01*
Y031845D02*
Y033050D01*
Y031845D02*
X028900Y031500D01*
X025345Y031945D02*
Y033100D01*
X024900Y031500D02*
X025345Y031945D01*
X029150Y033055D02*
Y034005D01*
X029145Y033050D02*
X029150Y033055D01*
Y034005D02*
X029900D01*
X029950Y033955D01*
X029150Y034595D02*
X029900D01*
X029950Y034545D01*
X030650Y034050D02*
Y034855D01*
X030500Y033900D02*
X030650Y034050D01*
X030005Y033900D02*
X030500D01*
X029950Y033955D02*
X030005Y033900D01*
X030550Y036150D02*
X030700Y036000D01*
Y035495D02*
Y036000D01*
X030650Y035445D02*
X030700Y035495D01*
X029255Y036150D02*
X029255Y036150D01*
X027418Y035750D02*
X027427Y035741D01*
X026003Y034135D02*
X026018Y034150D01*
X026003Y031047D02*
Y034135D01*
Y031047D02*
X026300Y030750D01*
X029450D01*
X029650Y030950D01*
Y032545D01*
X029145Y033050D02*
X029650Y032545D01*
X026494Y036477D02*
X026503Y036469D01*
X026700Y035750D02*
Y036469D01*
X027085Y036477D02*
X027094Y036469D01*
X028291Y037750D02*
X028900D01*
X028950Y037800D01*
Y038650D01*
X026897Y036469D02*
X026904Y036461D01*
Y036262D02*
Y036461D01*
Y036262D02*
X027211Y035956D01*
X027410D01*
X027418Y035947D01*
X026897Y035427D02*
Y036469D01*
X026709Y035239D02*
X026897Y035427D01*
X026709Y035040D02*
Y035239D01*
X026700Y035031D02*
X026709Y035040D01*
X024655Y037500D02*
Y037905D01*
X025100Y038350D01*
X026306Y036469D02*
Y036794D01*
X026200Y036900D02*
X026306Y036794D01*
X024900Y036900D02*
X026200D01*
X024655Y037145D02*
X024900Y036900D01*
X024655Y037145D02*
Y037500D01*
X025245D02*
X025856D01*
X026503Y036853D01*
Y036469D02*
Y036853D01*
X027700Y037512D02*
Y037750D01*
X027094Y036469D02*
X027100Y036475D01*
X025100Y038350D02*
X026700D01*
X026897Y038153D01*
Y036469D02*
Y038153D01*
X026700Y038350D02*
X028100D01*
X028291Y038159D01*
Y037750D02*
Y038159D01*
X027094Y036469D02*
Y037144D01*
X027700Y037750D01*
X026700Y036469D02*
Y037400D01*
X026350Y037750D02*
X026700Y037400D01*
X030300Y038150D02*
Y038550D01*
X030200Y038650D02*
X030300Y038550D01*
X029541Y038650D02*
X030200D01*
X021400Y036600D02*
X022300Y037500D01*
X024655D01*
D17*
X028411Y035807D02*
X028787Y035430D01*
X027880Y035807D02*
X028411D01*
X027880D02*
X028223Y036149D01*
X027823Y035750D02*
X027880Y035807D01*
X027418Y035750D02*
X027823D01*
X028197Y035020D02*
X028374Y034843D01*
X028197Y035020D02*
Y035430D01*
X028074Y035553D02*
X028197Y035430D01*
X027418Y035553D02*
X028074D01*
X026700Y036469D02*
X026719Y036450D01*
Y036265D02*
Y036450D01*
X027402Y036161D02*
X027418Y036144D01*
X029541Y037800D02*
Y038650D01*
X027418Y036144D02*
X027844D01*
X029541Y037341D02*
Y037800D01*
X029000Y036800D02*
X029541Y037341D01*
X028050Y036800D02*
X029000D01*
X027900Y036650D02*
X028050Y036800D01*
X027900Y036200D02*
Y036650D01*
X027844Y036144D02*
X027900Y036200D01*
D18*
X030550Y036150D02*
X031200D01*
X031200Y036150D01*
D19*
X031700D01*
D20*
X034679Y039129D01*
X039129D01*
Y030871D02*
Y039129D01*
X038200Y030871D02*
X039129D01*
D21*
X026390Y033050D02*
D03*
X027610D02*
D03*
D22*
X022400Y033600D02*
D03*
X021400D02*
D03*
X022400Y034600D02*
D03*
X021400D02*
D03*
X022400Y035600D02*
D03*
X021400D02*
D03*
X022400Y036600D02*
D03*
D23*
X021400D02*
D03*
D24*
X024900Y031500D02*
D03*
X028900D02*
D03*
D25*
X026350Y037750D02*
D03*
X030300Y038150D02*
D03*
D26*
X023200Y032450D02*
D03*
X027750Y032100D02*
D03*
X026600Y038900D02*
D03*
X023500Y036800D02*
D03*
M02*
