M48
;Layer_Color=9474304
;FILE_FORMAT=2:4
INCH
;TYPE=PLATED
T1F00S00C0.0250
T2F00S00C0.0276
T3F00S00C0.0354
%
T01
X023200Y032450
X024900Y031500
X025269Y034138
X023604Y036875
X021390Y038235
X026350Y037750
X026600Y038900
X027421Y037021
X029555Y035527
X030219Y038869
X030496Y032451
X028580Y031440
T02
X026390Y033050
X027610
T03
X021400Y033600
Y034600
Y035600
Y036600
X022400
Y035600
Y034600
Y033600
M30
