M48
;Layer_Color=9474304
;FILE_FORMAT=2:4
INCH
;TYPE=PLATED
T1F00S00C0.0250
T2F00S00C0.0354
%
T01
X031450Y031050
X025500Y031200
X023350
X022950Y032250
X023250Y035100
X024000Y035850
X024600Y037350
X024450Y038300
X023550Y038900
X020850Y037500
X027900Y036500
X027750Y035650
X027050Y034850
X026150Y032600
X031150Y032150
X028600Y036800
X029000Y037400
X029350Y037850
X028550Y038700
X034200Y039000
X036250Y038400
X036800Y038850
X037800Y038150
X035550Y035800
X033850Y035000
X034300Y034300
X033050Y034550
X033450Y033000
X032000Y031750
X036400Y031600
X039150Y033100
T02
X021400Y033600
X022400
Y034600
X021400
Y035600
X022400
Y036600
X021400
X024050Y035050
Y034050
Y033050
X025050
Y034050
Y035050
X037783Y034884
Y036616
M30
