%FSAX24Y24*%
%MOIN*%
G70*
G01*
G75*
G04 Layer_Physical_Order=1*
G04 Layer_Color=255*
%ADD10R,0.0354X0.0394*%
%ADD11R,0.0512X0.0709*%
%ADD12R,0.0472X0.0551*%
%ADD13R,0.0551X0.0472*%
%ADD14R,0.0709X0.0512*%
%ADD15R,0.0551X0.0433*%
%ADD16O,0.0650X0.0217*%
%ADD17O,0.0217X0.0650*%
%ADD18R,0.0433X0.0551*%
%ADD19R,0.1063X0.0197*%
%ADD20R,0.0984X0.0787*%
%ADD21C,0.0080*%
%ADD22C,0.0200*%
%ADD23C,0.0100*%
%ADD24C,0.0591*%
%ADD25R,0.0591X0.0591*%
%ADD26C,0.0350*%
G36*
X022012Y033019D02*
X022133Y032955D01*
X022264Y032915D01*
X022400Y032901D01*
X022452Y032848D01*
X022446Y032800D01*
Y032535D01*
X022390Y032400D01*
X022370Y032250D01*
X022390Y032100D01*
X022446Y031965D01*
Y030954D01*
X020954D01*
Y032972D01*
X021023Y033013D01*
X021133Y032955D01*
X021264Y032915D01*
X021400Y032901D01*
X021536Y032915D01*
X021667Y032955D01*
X021788Y033019D01*
X021894Y033106D01*
X021906D01*
X022012Y033019D01*
D02*
G37*
G36*
X026640Y034440D02*
X026760Y034348D01*
X026895Y034292D01*
X027337Y033850D01*
X027193Y033707D01*
X027113Y033602D01*
X027063Y033481D01*
X027046Y033350D01*
Y033104D01*
X026435D01*
X026300Y033160D01*
X026204Y033173D01*
Y034488D01*
X026603D01*
X026640Y034440D01*
D02*
G37*
G36*
X023783Y032405D02*
X023914Y032365D01*
X024050Y032351D01*
X024186Y032365D01*
X024317Y032405D01*
X024317Y032405D01*
Y032405D01*
X024355Y032355D01*
Y032355D01*
X025196D01*
Y032200D01*
X025208Y032104D01*
X025156Y032044D01*
X023834D01*
X023694Y032184D01*
Y032374D01*
X023762Y032415D01*
X023783Y032405D01*
D02*
G37*
G36*
X032648Y031663D02*
X032769Y031613D01*
X032900Y031596D01*
X034459D01*
Y031474D01*
Y031185D01*
X032333D01*
X032307Y031261D01*
X032410Y031340D01*
X032502Y031460D01*
X032560Y031600D01*
X032565Y031639D01*
X032639Y031670D01*
X032648Y031663D01*
D02*
G37*
G36*
X028480Y033085D02*
X028735D01*
Y032830D01*
X028752Y032697D01*
X028804Y032574D01*
X028885Y032467D01*
X028991Y032386D01*
X029115Y032335D01*
X029248Y032317D01*
X029380Y032335D01*
X029405Y032345D01*
X029430Y032335D01*
X029563Y032317D01*
X029695Y032335D01*
X029720Y032345D01*
X029745Y032335D01*
X029878Y032317D01*
X030010Y032335D01*
X030035Y032345D01*
X030060Y032335D01*
X030193Y032317D01*
X030325Y032335D01*
X030340Y032341D01*
X030406Y032296D01*
Y031444D01*
X028112D01*
Y032326D01*
X028054D01*
Y032400D01*
Y033093D01*
X028417D01*
X028480Y033085D01*
D02*
G37*
G36*
X031283Y033978D02*
X031274Y033913D01*
X031287Y033820D01*
X031230Y033763D01*
X031137Y033776D01*
X031005Y033758D01*
X030980Y033748D01*
X030955Y033758D01*
X030822Y033776D01*
X030690Y033758D01*
X030665Y033748D01*
X030640Y033758D01*
X030507Y033776D01*
X030375Y033758D01*
X030350Y033748D01*
X030325Y033758D01*
X030193Y033776D01*
X030060Y033758D01*
X030035Y033748D01*
X030010Y033758D01*
X029878Y033776D01*
X029802Y033766D01*
X029754Y033829D01*
X029765Y033856D01*
X029784Y033871D01*
X029857Y033943D01*
X029951Y034038D01*
X031230D01*
X031283Y033978D01*
D02*
G37*
G36*
X032706Y038416D02*
Y036284D01*
X032669Y036246D01*
X032477D01*
X032476Y036246D01*
X032353Y036298D01*
X032220Y036315D01*
X031965D01*
Y036570D01*
X031948Y036703D01*
X031896Y036826D01*
X031815Y036933D01*
X031709Y037014D01*
X031585Y037065D01*
X031491Y037078D01*
Y038176D01*
X031412D01*
Y038506D01*
X032616D01*
X032706Y038416D01*
D02*
G37*
G36*
X027396Y038641D02*
Y038250D01*
X027396Y038250D01*
X027396D01*
Y036785D01*
X027342Y036655D01*
X027341Y036654D01*
X025111D01*
X025067Y036721D01*
X025087Y036769D01*
X025104Y036900D01*
Y037065D01*
X025160Y037200D01*
X025180Y037350D01*
X025160Y037500D01*
X025102Y037640D01*
X025010Y037760D01*
X024890Y037852D01*
X024890Y037852D01*
X024890D01*
X024860Y037890D01*
Y037890D01*
X024952Y038010D01*
X025010Y038150D01*
X025030Y038300D01*
X025010Y038450D01*
X024952Y038590D01*
X024873Y038693D01*
X024909Y038765D01*
X027272D01*
X027396Y038641D01*
D02*
G37*
G36*
X033677Y038761D02*
X033698Y038710D01*
X033756Y038634D01*
Y035826D01*
X033682Y035795D01*
X033676Y035801D01*
X033584Y035872D01*
X033553Y035885D01*
X033539Y035890D01*
X033579Y035985D01*
X033594Y036100D01*
Y038600D01*
X033579Y038715D01*
X033577Y038719D01*
X033585Y038738D01*
X033658Y038768D01*
X033677Y038761D01*
D02*
G37*
G36*
X038072Y034178D02*
Y033204D01*
X038523D01*
X038576Y033144D01*
X038570Y033100D01*
X038590Y032950D01*
X038646Y032813D01*
X038602Y032747D01*
X036938D01*
Y032594D01*
X036441D01*
Y032826D01*
X034459D01*
Y032604D01*
X033962D01*
X033926Y032676D01*
X033952Y032710D01*
X034010Y032850D01*
X034030Y033000D01*
X034010Y033150D01*
X033952Y033290D01*
X033894Y033366D01*
Y033482D01*
X033970Y033508D01*
X033986Y033486D01*
X034186Y033286D01*
X034278Y033216D01*
X034354Y033184D01*
X034385Y033171D01*
X034424Y033166D01*
Y033088D01*
X035776D01*
Y033322D01*
X035844Y033365D01*
X035907Y033333D01*
Y033204D01*
X037691D01*
Y034135D01*
X037750Y034188D01*
X037783Y034185D01*
X037919Y034199D01*
X038008Y034225D01*
X038072Y034178D01*
D02*
G37*
G36*
X039046Y034792D02*
X038532D01*
X038478Y034851D01*
X038482Y034884D01*
X038468Y035020D01*
X038429Y035151D01*
X038364Y035272D01*
X038277Y035378D01*
X038171Y035465D01*
X038050Y035529D01*
X037961Y035556D01*
X037973Y035636D01*
X037980D01*
X038111Y035653D01*
X038233Y035703D01*
X038337Y035783D01*
X038616Y036062D01*
X038696Y036167D01*
X038746Y036288D01*
X038764Y036419D01*
Y036708D01*
X039046D01*
Y034792D01*
D02*
G37*
D10*
X038185Y032150D02*
D03*
X037515D02*
D03*
D11*
X037279Y031050D02*
D03*
X038421D02*
D03*
X022571Y038350D02*
D03*
X021429D02*
D03*
D12*
X035804Y032150D02*
D03*
X035096D02*
D03*
X035804Y031050D02*
D03*
X035096D02*
D03*
X030854Y037500D02*
D03*
X030146D02*
D03*
D13*
X035250Y037954D02*
D03*
Y037246D02*
D03*
D14*
X023900Y037871D02*
D03*
Y036729D02*
D03*
D15*
X035100Y034295D02*
D03*
Y033705D02*
D03*
X026300Y035105D02*
D03*
Y035695D02*
D03*
D16*
X028696Y035802D02*
D03*
Y035487D02*
D03*
Y035172D02*
D03*
Y034857D02*
D03*
Y034543D02*
D03*
Y034228D02*
D03*
Y033913D02*
D03*
Y033598D02*
D03*
X032004D02*
D03*
Y033913D02*
D03*
Y034228D02*
D03*
Y034543D02*
D03*
Y034857D02*
D03*
Y035172D02*
D03*
Y035487D02*
D03*
Y035802D02*
D03*
D17*
X029248Y033046D02*
D03*
X029563D02*
D03*
X029878D02*
D03*
X030193D02*
D03*
X030507D02*
D03*
X030822D02*
D03*
X031137D02*
D03*
X031452D02*
D03*
Y036354D02*
D03*
X031137D02*
D03*
X030822D02*
D03*
X030507D02*
D03*
X030193D02*
D03*
X029878D02*
D03*
X029563D02*
D03*
X029248D02*
D03*
D18*
X027495Y031650D02*
D03*
X026905D02*
D03*
X030795Y038300D02*
D03*
X030205D02*
D03*
D19*
X036681Y035750D02*
D03*
Y035435D02*
D03*
Y035120D02*
D03*
Y036065D02*
D03*
Y036380D02*
D03*
D20*
X036799Y033998D02*
D03*
Y037502D02*
D03*
X038964Y033998D02*
D03*
Y037502D02*
D03*
D21*
X027750Y035650D02*
Y035700D01*
X028350Y036300D01*
X029878Y036354D02*
Y036922D01*
X029800Y037000D02*
X029878Y036922D01*
X028850Y037000D02*
X029800D01*
X028250Y037250D02*
X028600D01*
X028150Y037150D02*
X028250Y037250D01*
X028150Y036750D02*
Y037150D01*
X028350Y036300D02*
Y036550D01*
X028150Y036750D02*
X028350Y036550D01*
X028600Y037250D02*
X028850Y037000D01*
X035850Y035900D02*
Y037950D01*
X036004Y038104D01*
X037754D01*
X037800Y038150D01*
X034300Y033800D02*
X034500Y033600D01*
X034300Y033800D02*
Y034300D01*
X034500Y033600D02*
X034995D01*
X035750Y034950D02*
X035920Y035120D01*
X036681D01*
X035750Y033905D02*
Y034950D01*
X035550Y033705D02*
X035750Y033905D01*
X035100Y033705D02*
X035550D01*
X034995Y033600D02*
X035100Y033705D01*
X036400Y031600D02*
X036450Y031650D01*
X038800D01*
X038900Y031750D01*
Y032100D01*
X038800Y032200D02*
X038900Y032100D01*
X038235Y032200D02*
X038800D01*
X032852Y035802D02*
X033150Y036100D01*
X032004Y035802D02*
X032852D01*
X032800Y038950D02*
X033150Y038600D01*
Y036100D02*
Y038600D01*
X029150Y038950D02*
X032800D01*
X023900Y037851D02*
X024001D01*
X038185Y032150D02*
X038235Y032200D01*
X035804Y032150D02*
X037515D01*
X037515Y032150D01*
X030822Y033046D02*
X030850Y033019D01*
Y031200D02*
Y033019D01*
X030650Y031000D02*
X030850Y031200D01*
X026450Y031000D02*
X030650D01*
X025850Y031600D02*
X026450Y031000D01*
X023650Y031600D02*
X025850D01*
X028900Y038700D02*
X029150Y038950D01*
X028550Y038700D02*
X028900D01*
X021300Y038350D02*
X021449D01*
X023350Y031200D02*
X025500D01*
X033450Y033000D02*
Y035400D01*
X033363Y035487D02*
X033450Y035400D01*
X032004Y035487D02*
X033363D01*
X029000Y037400D02*
Y038150D01*
X029700Y037500D02*
X030205D01*
X029350Y037850D02*
X029700Y037500D01*
X029000Y038150D02*
X029150Y038300D01*
X030205D01*
X023250Y032000D02*
X023650Y031600D01*
X023250Y032000D02*
Y035100D01*
X032000Y033594D02*
X032004Y033598D01*
X032000Y031750D02*
Y033594D01*
X031450Y031050D02*
X031452Y031052D01*
Y033046D01*
X032550Y033900D02*
X032700Y033750D01*
Y032300D02*
Y033750D01*
X032016Y033900D02*
X032550D01*
X032700Y033750D02*
Y034450D01*
X035105Y032100D02*
X035155Y032150D01*
X028600Y036800D02*
X029450D01*
X029550Y036700D01*
Y036366D02*
Y036700D01*
Y036366D02*
X029563Y036354D01*
X039000Y031000D02*
X039150Y031150D01*
Y033100D01*
X038589Y031000D02*
X039000D01*
X038539Y031050D02*
X038589Y031000D01*
X037161Y031050D02*
X037161Y031050D01*
X035745Y031050D02*
X037161D01*
X031137Y032163D02*
X031150Y032150D01*
X031137Y032163D02*
Y033046D01*
X030205Y037500D02*
X030205Y037500D01*
X032004Y033913D02*
X032016Y033900D01*
X032607Y034543D02*
X032700Y034450D01*
X032004Y034543D02*
X032607D01*
X030193Y036354D02*
X030205Y036366D01*
Y037500D01*
X034200Y035700D02*
Y039000D01*
X036000Y035750D02*
X036681D01*
X035850Y035900D02*
X036000Y035750D01*
X034200Y035700D02*
X034500Y035400D01*
X036646D01*
X036681Y035435D01*
X035250Y036150D02*
Y037305D01*
Y036150D02*
X035550Y035850D01*
Y035800D02*
Y035850D01*
D22*
X025700Y035600D02*
X026205D01*
X024000Y035850D02*
X026145D01*
X026855Y035695D02*
X027900Y034650D01*
X026300Y035695D02*
X026855D01*
X036681Y036380D02*
X037346D01*
X037586Y036140D01*
X037980D01*
X038259Y036419D01*
Y038741D01*
X035100Y034295D02*
X035100Y034295D01*
Y034800D01*
X034900Y035000D02*
X035100Y034800D01*
X033850Y035000D02*
X034900D01*
X023150Y036950D02*
Y037350D01*
X023000Y037500D02*
X023150Y037350D01*
X020850Y037500D02*
X023000D01*
X023900Y036749D02*
X024449D01*
X023899Y036750D02*
X023900Y036749D01*
X023350Y036750D02*
X023899D01*
X023150Y036950D02*
X023350Y036750D01*
X024449Y036749D02*
X024600Y036900D01*
Y037350D01*
X023550Y038900D02*
X023919Y039269D01*
X022571Y038350D02*
X023121Y038900D01*
X023550D01*
X023919Y039269D02*
X027481D01*
X022950Y032250D02*
Y032800D01*
Y030881D02*
Y032250D01*
X027050Y034850D02*
X027987Y033913D01*
X028696D01*
X026795Y035105D02*
X027050Y034850D01*
X026300Y035105D02*
X026795D01*
X026145Y035850D02*
X026300Y035695D01*
X026205Y035600D02*
X026300Y035695D01*
X027495Y031650D02*
X027550Y031705D01*
Y032400D02*
Y033350D01*
X027798Y033598D01*
X028696D01*
X027550Y031705D02*
Y032400D01*
X027350Y032600D02*
X027550Y032400D01*
X026150Y032600D02*
X027350D01*
X026855Y031600D02*
X026905Y031650D01*
X026300Y031600D02*
X026855D01*
X025700Y032200D02*
X026300Y031600D01*
X025700Y032200D02*
Y035600D01*
X027900Y034650D02*
Y035050D01*
X028689Y034550D02*
X028696Y034543D01*
X028000Y034550D02*
X028689D01*
X027900Y034650D02*
X028000Y034550D01*
X027900Y035050D02*
X027944Y035094D01*
X027947D01*
X028026Y035172D01*
X029743Y034543D02*
X032004D01*
X029500Y034300D02*
X029743Y034543D01*
X029428Y034228D02*
X029500Y034300D01*
X028696Y034228D02*
X029428D01*
X029500Y034300D02*
Y034750D01*
X029393Y034857D02*
X029500Y034750D01*
X028696Y034857D02*
X029393D01*
X028026Y035172D02*
X028696D01*
X031996Y034850D02*
X032004Y034857D01*
X030350Y034850D02*
X031996D01*
X030028Y035172D02*
X030350Y034850D01*
X028696Y035172D02*
X030028D01*
X032743Y034857D02*
X033050Y034550D01*
X032004Y034857D02*
X032743D01*
X023100Y030731D02*
X030300D01*
X022950Y030881D02*
X023100Y030731D01*
X024600Y036150D02*
X027550D01*
X027900Y036500D01*
X027481Y039269D02*
X033450D01*
X027481D02*
X027900Y038850D01*
X020850Y037500D02*
Y037900D01*
X021300Y038350D01*
X027900Y038250D02*
Y038850D01*
Y036500D02*
Y038250D01*
X032700Y032300D02*
X032900Y032100D01*
X035105D01*
X035155Y031050D02*
Y032150D01*
X024001Y037851D02*
X024450Y038300D01*
X030795Y037500D02*
Y038300D01*
X036800Y038850D02*
X038150D01*
X038259Y038741D01*
D23*
X033450Y039269D02*
X033500Y039319D01*
X024575Y036175D02*
X024600Y036150D01*
X023175Y036175D02*
X024575D01*
X022950Y035950D02*
X023175Y036175D01*
X022944Y032256D02*
X022950Y032250D01*
X022944Y032806D02*
Y035227D01*
X034836Y030731D02*
X035155Y031050D01*
X030300Y030731D02*
X034836D01*
X022944Y032806D02*
X022950Y032800D01*
X022944Y035227D02*
X022950Y035233D01*
Y035950D01*
X033500Y039319D02*
X036031D01*
X030795Y038300D02*
X030800Y038305D01*
Y038650D01*
X030700Y038750D02*
X030800Y038650D01*
X029350Y038750D02*
X030700D01*
X028850Y038250D02*
X029350Y038750D01*
X027900Y038250D02*
X028850D01*
X036031Y039319D02*
X036250Y039100D01*
Y038400D02*
Y039100D01*
X035755Y038400D02*
X036250D01*
X035250Y037895D02*
X035755Y038400D01*
D24*
X022400Y033600D02*
D03*
X021400D02*
D03*
X022400Y034600D02*
D03*
X021400D02*
D03*
X022400Y035600D02*
D03*
X021400D02*
D03*
X022400Y036600D02*
D03*
X024050Y033050D02*
D03*
X025050Y034050D02*
D03*
X024050D02*
D03*
X025050Y035050D02*
D03*
X024050D02*
D03*
X037783Y034884D02*
D03*
Y036616D02*
D03*
D25*
X021400Y036600D02*
D03*
X025050Y033050D02*
D03*
D26*
X027750Y035650D02*
D03*
X034300Y034300D02*
D03*
X024600Y037350D02*
D03*
X023550Y038900D02*
D03*
X022950Y032250D02*
D03*
X027050Y034850D02*
D03*
X026150Y032600D02*
D03*
X028550Y038700D02*
D03*
X020850Y037500D02*
D03*
X036800Y038850D02*
D03*
X023350Y031200D02*
D03*
X025500D02*
D03*
X033450Y033000D02*
D03*
X033050Y034550D02*
D03*
X033850Y035000D02*
D03*
X029000Y037400D02*
D03*
X029350Y037850D02*
D03*
X024000Y035850D02*
D03*
X032000Y031750D02*
D03*
X031450Y031050D02*
D03*
X027900Y036500D02*
D03*
X028600Y036800D02*
D03*
X034200Y039000D02*
D03*
X039150Y033100D02*
D03*
X036400Y031600D02*
D03*
X031150Y032150D02*
D03*
X023250Y035100D02*
D03*
X024450Y038300D02*
D03*
X036250Y038400D02*
D03*
X037800Y038150D02*
D03*
X035550Y035800D02*
D03*
M02*
