%FSAX24Y24*%
%MOIN*%
G70*
G01*
G75*
G04 Layer_Color=2752767*
%ADD10C,0.0080*%
%ADD11R,0.0551X0.0472*%
%ADD12R,0.0354X0.0394*%
%ADD13R,0.0512X0.0709*%
%ADD14R,0.0472X0.0551*%
%ADD15R,0.0709X0.0512*%
%ADD16R,0.0551X0.0433*%
%ADD17O,0.0650X0.0217*%
%ADD18O,0.0217X0.0650*%
%ADD19R,0.0433X0.0551*%
%ADD20R,0.1063X0.0197*%
%ADD21R,0.0984X0.0787*%
%ADD22C,0.0200*%
%ADD23C,0.0100*%
%ADD24C,0.0591*%
%ADD25R,0.0591X0.0591*%
%ADD26C,0.0350*%
%ADD27R,0.2244X0.0551*%
%ADD28O,0.0827X0.0138*%
%ADD29R,0.0945X0.0394*%
%ADD30R,0.0945X0.1299*%
%ADD31C,0.0050*%
%ADD32C,0.0067*%
D31*
X022200Y033400D02*
Y033800D01*
X022600D01*
Y033400D01*
X022200D01*
X021200D02*
Y033800D01*
X021600D01*
Y033400D01*
X021200D01*
X022200Y034400D02*
Y034800D01*
X022600D01*
Y034400D01*
X022200D01*
X021200D02*
Y034800D01*
X021600D01*
Y034400D01*
X021200D01*
X022200Y035400D02*
Y035800D01*
X022600D01*
Y035400D01*
X022200D01*
X021200D02*
Y035800D01*
X021600D01*
Y035400D01*
X021200D01*
X022200Y036400D02*
Y036800D01*
X022600D01*
Y036400D01*
X022200D01*
X021200D02*
Y036800D01*
X021600D01*
Y036400D01*
X021200D01*
X024850Y032850D02*
Y033250D01*
X025250D01*
Y032850D01*
X024850D01*
X023850D02*
Y033250D01*
X024250D01*
Y032850D01*
X023850D01*
X024850Y033850D02*
Y034250D01*
X025250D01*
Y033850D01*
X024850D01*
X023850D02*
Y034250D01*
X024250D01*
Y033850D01*
X023850D01*
X024850Y034850D02*
Y035250D01*
X025250D01*
Y034850D01*
X024850D01*
X023850D02*
Y035250D01*
X024250D01*
Y034850D01*
X023850D01*
X037583Y034684D02*
Y035084D01*
X037983D01*
Y034684D01*
X037583D01*
Y036416D02*
Y036816D01*
X037983D01*
Y036416D01*
X037583D01*
D32*
X038150Y038850D02*
G03*
X038150Y038850I-000200J000000D01*
G01*
X037550Y038750D02*
G03*
X037550Y038750I-000200J000000D01*
G01*
X035250Y038550D02*
G03*
X035250Y038550I-000200J000000D01*
G01*
X027750Y032400D02*
G03*
X027750Y032400I-000200J000000D01*
G01*
X031000Y031600D02*
G03*
X031000Y031600I-000200J000000D01*
G01*
X034300Y031250D02*
G03*
X034300Y031250I-000200J000000D01*
G01*
X032700Y031850D02*
G03*
X032700Y031850I-000200J000000D01*
G01*
X027350Y034600D02*
G03*
X027350Y034600I-000200J000000D01*
G01*
X028850Y038850D02*
G03*
X028850Y038850I-000200J000000D01*
G01*
X028950Y037100D02*
G03*
X028950Y037100I-000200J000000D01*
G01*
X028850Y037950D02*
G03*
X028850Y037950I-000200J000000D01*
G01*
X038850Y032850D02*
G03*
X038850Y032850I-000200J000000D01*
G01*
X039350Y031900D02*
G03*
X039350Y031900I-000200J000000D01*
G01*
X033650Y034300D02*
G03*
X033650Y034300I-000200J000000D01*
G01*
X038950Y038800D02*
G03*
X038950Y038800I-000200J000000D01*
G01*
X027950Y035650D02*
G03*
X027950Y035650I-000200J000000D01*
G01*
X024800Y037350D02*
G03*
X024800Y037350I-000200J000000D01*
G01*
X023750Y038900D02*
G03*
X023750Y038900I-000200J000000D01*
G01*
X023150Y032250D02*
G03*
X023150Y032250I-000200J000000D01*
G01*
X021050Y037500D02*
G03*
X021050Y037500I-000200J000000D01*
G01*
X023550Y031200D02*
G03*
X023550Y031200I-000200J000000D01*
G01*
X025700D02*
G03*
X025700Y031200I-000200J000000D01*
G01*
X033650Y033000D02*
G03*
X033650Y033000I-000200J000000D01*
G01*
X029550Y037850D02*
G03*
X029550Y037850I-000200J000000D01*
G01*
X024200Y035850D02*
G03*
X024200Y035850I-000200J000000D01*
G01*
X028100Y036500D02*
G03*
X028100Y036500I-000200J000000D01*
G01*
X023450Y035100D02*
G03*
X023450Y035100I-000200J000000D01*
G01*
X024650Y038300D02*
G03*
X024650Y038300I-000200J000000D01*
G01*
M02*
