%FSAX24Y24*%
%MOIN*%
G70*
G01*
G75*
G04 Layer_Physical_Order=1*
G04 Layer_Color=255*
%ADD10R,0.0433X0.0551*%
%ADD11R,0.0472X0.0787*%
%ADD12R,0.0787X0.0472*%
%ADD13R,0.0925X0.0197*%
%ADD14R,0.0984X0.0925*%
%ADD15R,0.0551X0.0433*%
%ADD16O,0.0650X0.0217*%
%ADD17O,0.0217X0.0650*%
%ADD18R,0.0591X0.0591*%
%ADD19C,0.0200*%
%ADD20C,0.0100*%
%ADD21C,0.0080*%
%ADD22C,0.0591*%
%ADD23R,0.0591X0.0591*%
%ADD24C,0.0512*%
%ADD25C,0.0350*%
G36*
X034042Y033917D02*
X034109Y033866D01*
X034190Y033832D01*
X034188Y033826D01*
X034188D01*
X034188Y033826D01*
Y032604D01*
X033962D01*
X033926Y032676D01*
X033952Y032710D01*
X034010Y032850D01*
X034030Y033000D01*
X034010Y033150D01*
X033952Y033290D01*
X033894Y033366D01*
Y033876D01*
X033954Y033929D01*
X034042Y033917D01*
D02*
G37*
G36*
X022012Y033019D02*
X022133Y032955D01*
X022264Y032915D01*
X022326Y032909D01*
X022376Y032846D01*
X022370Y032800D01*
X022390Y032650D01*
X022446Y032515D01*
Y030954D01*
X020954D01*
Y032972D01*
X021023Y033013D01*
X021133Y032955D01*
X021264Y032915D01*
X021400Y032901D01*
X021536Y032915D01*
X021667Y032955D01*
X021788Y033019D01*
X021894Y033106D01*
X021906D01*
X022012Y033019D01*
D02*
G37*
G36*
X025838Y035060D02*
Y034524D01*
X025950D01*
Y032876D01*
X025838D01*
Y032044D01*
X023834D01*
X023694Y032184D01*
Y032374D01*
X023762Y032415D01*
X023783Y032405D01*
X023914Y032365D01*
X024050Y032351D01*
X024186Y032365D01*
X024317Y032405D01*
X024317Y032405D01*
Y032405D01*
X024355Y032355D01*
Y032355D01*
X025745D01*
Y033745D01*
X025745D01*
X025695Y033783D01*
X025695Y033783D01*
X025735Y033914D01*
X025749Y034050D01*
X025735Y034186D01*
X025695Y034317D01*
X025631Y034438D01*
X025544Y034544D01*
Y034556D01*
X025631Y034662D01*
X025695Y034783D01*
X025735Y034914D01*
X025749Y035050D01*
X025745Y035090D01*
X025771Y035103D01*
X025838Y035060D01*
D02*
G37*
G36*
X032648Y031663D02*
X032769Y031613D01*
X032900Y031596D01*
X034538D01*
Y031474D01*
Y031185D01*
X032333D01*
X032307Y031261D01*
X032410Y031340D01*
X032502Y031460D01*
X032560Y031600D01*
X032565Y031639D01*
X032639Y031670D01*
X032648Y031663D01*
D02*
G37*
G36*
X028480Y033085D02*
X028735D01*
Y032830D01*
X028752Y032697D01*
X028804Y032574D01*
X028885Y032467D01*
X028991Y032386D01*
X029115Y032335D01*
X029248Y032317D01*
X029380Y032335D01*
X029405Y032345D01*
X029430Y032335D01*
X029563Y032317D01*
X029695Y032335D01*
X029720Y032345D01*
X029745Y032335D01*
X029878Y032317D01*
X030010Y032335D01*
X030035Y032345D01*
X030060Y032335D01*
X030193Y032317D01*
X030325Y032335D01*
X030340Y032341D01*
X030406Y032296D01*
Y032044D01*
X027662D01*
Y032646D01*
X027940D01*
X028055Y032661D01*
X028162Y032705D01*
X028254Y032776D01*
X028364Y032886D01*
X028434Y032978D01*
X028466Y033054D01*
X028479Y033085D01*
X028479Y033085D01*
X028480Y033085D01*
D02*
G37*
G36*
X031283Y033978D02*
X031274Y033913D01*
X031287Y033820D01*
X031230Y033763D01*
X031137Y033776D01*
X031005Y033758D01*
X030980Y033748D01*
X030955Y033758D01*
X030822Y033776D01*
X030690Y033758D01*
X030665Y033748D01*
X030640Y033758D01*
X030507Y033776D01*
X030375Y033758D01*
X030350Y033748D01*
X030325Y033758D01*
X030193Y033776D01*
X030060Y033758D01*
X030035Y033748D01*
X030010Y033758D01*
X029878Y033776D01*
X029802Y033766D01*
X029754Y033829D01*
X029765Y033856D01*
X029784Y033871D01*
X029784Y033871D01*
X029784Y033871D01*
X029857Y033943D01*
X029951Y034038D01*
X031230D01*
X031283Y033978D01*
D02*
G37*
G36*
X027396Y038641D02*
Y038250D01*
X027396Y038250D01*
X027396D01*
Y036785D01*
X027342Y036655D01*
X027341Y036654D01*
X025128D01*
X025088Y036700D01*
X024500D01*
Y036800D01*
X025073D01*
X025060Y036900D01*
X025002Y037040D01*
X024910Y037160D01*
X024790Y037252D01*
X024650Y037310D01*
X024536Y037325D01*
Y037673D01*
X024605Y037742D01*
X024740Y037798D01*
X024860Y037890D01*
X024952Y038010D01*
X025010Y038150D01*
X025030Y038300D01*
X025010Y038450D01*
X024952Y038590D01*
X024873Y038693D01*
X024909Y038765D01*
X027272D01*
X027396Y038641D01*
D02*
G37*
G36*
X035846Y038862D02*
Y038652D01*
X035798Y038590D01*
X035765Y038512D01*
X034644D01*
Y038634D01*
X034702Y038710D01*
X034760Y038850D01*
X034762Y038865D01*
X035843D01*
X035846Y038862D01*
D02*
G37*
G36*
X037106Y035694D02*
X036092D01*
Y036378D01*
D01*
Y036378D01*
X036139Y036425D01*
X037106D01*
Y035694D01*
D02*
G37*
G36*
X038765Y035148D02*
X038741Y035124D01*
X038005D01*
X037960Y035191D01*
X037979Y035235D01*
X037994Y035350D01*
Y036425D01*
X038765D01*
Y035148D01*
D02*
G37*
G36*
X033677Y038761D02*
X033698Y038710D01*
X033756Y038634D01*
Y035826D01*
X033682Y035795D01*
X033676Y035801D01*
X033584Y035872D01*
X033553Y035885D01*
X033477Y035916D01*
X033363Y035931D01*
X032716D01*
X032715Y035935D01*
X032664Y036059D01*
X032583Y036165D01*
X032476Y036246D01*
X032447Y036258D01*
Y038700D01*
X032447Y038705D01*
X032499Y038765D01*
X033450D01*
X033581Y038782D01*
X033603Y038791D01*
X033677Y038761D01*
D02*
G37*
D10*
X035745Y032150D02*
D03*
X035155D02*
D03*
X035745Y031050D02*
D03*
X035155D02*
D03*
X035395Y033150D02*
D03*
X034805D02*
D03*
X027045Y035200D02*
D03*
X026455D02*
D03*
X027045Y032200D02*
D03*
X026455D02*
D03*
X030795Y037500D02*
D03*
X030205D02*
D03*
X030795Y038300D02*
D03*
X030205D02*
D03*
D11*
X023900Y036749D02*
D03*
Y037851D02*
D03*
D12*
X021449Y038350D02*
D03*
X022551D02*
D03*
D13*
X035230Y035880D02*
D03*
X035229Y035565D02*
D03*
Y035250D02*
D03*
Y034620D02*
D03*
Y034935D02*
D03*
D14*
X038271Y037287D02*
D03*
Y033213D02*
D03*
X036597Y037287D02*
D03*
Y033213D02*
D03*
D15*
X035250Y037895D02*
D03*
Y037305D02*
D03*
D16*
X028696Y035802D02*
D03*
Y035487D02*
D03*
Y035172D02*
D03*
Y034857D02*
D03*
Y034543D02*
D03*
Y034228D02*
D03*
Y033913D02*
D03*
Y033598D02*
D03*
X032004D02*
D03*
Y033913D02*
D03*
Y034228D02*
D03*
Y034543D02*
D03*
Y034857D02*
D03*
Y035172D02*
D03*
Y035487D02*
D03*
Y035802D02*
D03*
D17*
X029248Y033046D02*
D03*
X029563D02*
D03*
X029878D02*
D03*
X030193D02*
D03*
X030507D02*
D03*
X030822D02*
D03*
X031137D02*
D03*
X031452D02*
D03*
Y036354D02*
D03*
X031137D02*
D03*
X030822D02*
D03*
X030507D02*
D03*
X030193D02*
D03*
X029878D02*
D03*
X029563D02*
D03*
X029248D02*
D03*
D18*
X037161Y031050D02*
D03*
X038539D02*
D03*
X037161Y032150D02*
D03*
X038539D02*
D03*
D19*
X027338Y035850D02*
X027444Y035744D01*
X026500Y035850D02*
X027338D01*
X026455Y035805D02*
X026500Y035850D01*
X026455Y035200D02*
Y035805D01*
X027444Y035106D02*
Y035744D01*
Y035106D02*
X027900Y034650D01*
Y035050D01*
X028689Y034550D02*
X028696Y034543D01*
X028000Y034550D02*
X028689D01*
X027900Y034650D02*
X028000Y034550D01*
X027900Y035050D02*
X027944Y035094D01*
X027947D01*
X028026Y035172D01*
X029743Y034543D02*
X032004D01*
X029500Y034300D02*
X029743Y034543D01*
X029428Y034228D02*
X029500Y034300D01*
X028696Y034228D02*
X029428D01*
X029500Y034300D02*
Y034750D01*
X029393Y034857D02*
X029500Y034750D01*
X028696Y034857D02*
X029393D01*
X028026Y035172D02*
X028696D01*
X031996Y034850D02*
X032004Y034857D01*
X030350Y034850D02*
X031996D01*
X030028Y035172D02*
X030350Y034850D01*
X028696Y035172D02*
X030028D01*
X032743Y034857D02*
X033050Y034550D01*
X032004Y034857D02*
X032743D01*
X035395Y033150D02*
Y034454D01*
X035229Y034620D02*
X035395Y034454D01*
X034140Y035000D02*
X034520Y034620D01*
X033850Y035000D02*
X034140D01*
X034520Y034620D02*
X035229D01*
X038950D02*
X039269Y034939D01*
Y038550D01*
X038969Y038850D02*
X039269Y038550D01*
X036800Y038850D02*
X038969D01*
X035229Y034620D02*
X038950D01*
X023149Y037500D02*
X023900Y036749D01*
X020850Y037500D02*
X023149D01*
X023100Y030731D02*
X030300D01*
X022950Y030881D02*
X023100Y030731D01*
X022950Y030881D02*
Y032800D01*
X024600Y036150D02*
X027550D01*
X027900Y036500D01*
X036350Y038350D02*
Y039000D01*
X027481Y039269D02*
X033450D01*
X027481D02*
X027900Y038850D01*
X023869Y039269D02*
X027481D01*
X023300Y038700D02*
X023869Y039269D01*
X020850Y037500D02*
Y037900D01*
X021300Y038350D01*
X027900Y038250D02*
Y038850D01*
Y036500D02*
Y038250D01*
X025805Y035850D02*
X026455Y035200D01*
X024000Y035850D02*
X025805D01*
X026455Y032200D02*
Y035200D01*
X023900Y036749D02*
X024499D01*
X032700Y032300D02*
X032900Y032100D01*
X035105D01*
X035155Y031050D02*
Y032150D01*
X024001Y037851D02*
X024450Y038300D01*
X022551Y038350D02*
X022901Y038700D01*
X023300D01*
X030795Y037500D02*
Y038300D01*
D20*
X034836Y030731D02*
X035155Y031050D01*
X030300Y030731D02*
X034836D01*
X022944Y032806D02*
X022950Y032800D01*
X022944Y032806D02*
Y035227D01*
X022950Y035233D01*
Y035950D01*
X023150Y036150D01*
X023867D01*
X023873Y036156D01*
X024594D01*
X024600Y036150D01*
X036031Y039319D02*
X036350Y039000D01*
X033850Y039319D02*
X036031D01*
X033800Y039269D02*
X033850Y039319D01*
X033450Y039269D02*
X033800D01*
X030795Y038300D02*
X030800Y038305D01*
Y038650D01*
X030700Y038750D02*
X030800Y038650D01*
X029350Y038750D02*
X030700D01*
X028850Y038250D02*
X029350Y038750D01*
X027900Y038250D02*
X028850D01*
D21*
X031754Y038950D02*
X032004Y038700D01*
X029150Y038950D02*
X031754D01*
X028900Y038700D02*
X029150Y038950D01*
X028550Y038700D02*
X028900D01*
X032004Y035802D02*
Y038700D01*
X021300Y038350D02*
X021449D01*
X023350Y031200D02*
X025500D01*
X034335Y035565D02*
X035229D01*
X034200Y035700D02*
X034335Y035565D01*
X034200Y035700D02*
Y039000D01*
X033450Y033000D02*
Y035400D01*
X033363Y035487D02*
X033450Y035400D01*
X032004Y035487D02*
X033363D01*
X034750Y033205D02*
X034805Y033150D01*
X034750Y033205D02*
Y034100D01*
X034600Y034250D02*
X034750Y034100D01*
X034331Y034250D02*
X034600D01*
X034091Y034491D02*
X034331Y034250D01*
X029000Y037400D02*
Y038150D01*
X029700Y037500D02*
X030205D01*
X029350Y037850D02*
X029700Y037500D01*
X029000Y038150D02*
X029150Y038300D01*
X030205D01*
X024499Y036749D02*
X024500Y036750D01*
X030600Y031600D02*
X030850Y031850D01*
X023650Y031600D02*
X030600D01*
X023250Y032000D02*
X023650Y031600D01*
X030850Y031850D02*
Y033019D01*
X023250Y032000D02*
Y035100D01*
X032000Y033594D02*
X032004Y033598D01*
X032000Y031750D02*
Y033594D01*
X031450Y031050D02*
X031452Y031052D01*
Y033046D01*
X032550Y033900D02*
X032700Y033750D01*
Y032300D02*
Y033750D01*
X032016Y033900D02*
X032550D01*
X032700Y033750D02*
Y034450D01*
X035105Y032100D02*
X035155Y032150D01*
X036300Y038300D02*
X036350Y038350D01*
X035250Y037895D02*
X035895D01*
X036300Y038300D01*
X027800Y035450D02*
Y035750D01*
X028250Y036200D01*
X028860D01*
X029210Y035850D01*
X029750D01*
X029878Y035978D01*
Y036354D01*
X028600Y036800D02*
X029450D01*
X029550Y036700D01*
Y036366D02*
Y036700D01*
Y036366D02*
X029563Y036354D01*
X034500Y035950D02*
X034570Y035880D01*
X035230D01*
X035229Y035250D02*
X035229Y035250D01*
X037450D01*
X037550Y035350D01*
Y038150D01*
X035230Y035880D02*
X035250Y035900D01*
Y037305D01*
X039000Y031000D02*
X039150Y031150D01*
Y033100D01*
X038589Y031000D02*
X039000D01*
X038539Y031050D02*
X038589Y031000D01*
X037989Y031600D02*
X038539Y032150D01*
X036400Y031600D02*
X037989D01*
X038539Y032150D02*
X038650D01*
X037161Y031050D02*
X037161Y031050D01*
X035745Y031050D02*
X037161D01*
Y032150D02*
X037161Y032150D01*
X035745Y032150D02*
X037161D01*
X031137Y032163D02*
X031150Y032150D01*
X031137Y032163D02*
Y033046D01*
X030822D02*
X030850Y033019D01*
X030205Y037500D02*
X030205Y037500D01*
X023900Y037851D02*
X024001D01*
X032004Y033913D02*
X032016Y033900D01*
X032607Y034543D02*
X032700Y034450D01*
X032004Y034543D02*
X032607D01*
X030193Y036354D02*
X030205Y036366D01*
Y037500D01*
X027045Y032200D02*
X027050Y032205D01*
Y033090D01*
X027045Y034315D02*
X027050Y034310D01*
X027045Y034315D02*
Y035200D01*
X028040Y034310D02*
X028100Y034250D01*
X027050Y034310D02*
X028040D01*
X028100Y034000D02*
Y034250D01*
Y034000D02*
X028187Y033913D01*
X028696D01*
X027050Y033090D02*
X027940D01*
X028050Y033200D01*
Y033500D01*
X028148Y033598D01*
X028696D01*
D22*
X022400Y033600D02*
D03*
X021400D02*
D03*
X022400Y034600D02*
D03*
X021400D02*
D03*
X022400Y035600D02*
D03*
X021400D02*
D03*
X022400Y036600D02*
D03*
X024050Y033050D02*
D03*
X025050Y034050D02*
D03*
X024050D02*
D03*
X025050Y035050D02*
D03*
X024050D02*
D03*
D23*
X021400Y036600D02*
D03*
X025050Y033050D02*
D03*
D24*
X027050Y034310D02*
D03*
Y033090D02*
D03*
D25*
X028550Y038700D02*
D03*
X020850Y037500D02*
D03*
X036800Y038850D02*
D03*
X023350Y031200D02*
D03*
X025500D02*
D03*
X033450Y033000D02*
D03*
X033050Y034550D02*
D03*
X033850Y035000D02*
D03*
X034091Y034491D02*
D03*
X029000Y037400D02*
D03*
X029350Y037850D02*
D03*
X024000Y035850D02*
D03*
X024500Y036750D02*
D03*
X022950Y032800D02*
D03*
X032000Y031750D02*
D03*
X031450Y031050D02*
D03*
X036300Y038300D02*
D03*
X027900Y036500D02*
D03*
X027800Y035450D02*
D03*
X028600Y036800D02*
D03*
X034500Y035950D02*
D03*
X034200Y039000D02*
D03*
X037550Y038150D02*
D03*
X039150Y033100D02*
D03*
X036400Y031600D02*
D03*
X031150Y032150D02*
D03*
X023250Y035100D02*
D03*
X024450Y038300D02*
D03*
X023300Y038700D02*
D03*
M02*
