%FSAX24Y24*%
%MOIN*%
G70*
G01*
G75*
G04 Layer_Physical_Order=1*
G04 Layer_Color=255*
%ADD10C,0.0080*%
%ADD11R,0.0551X0.0472*%
%ADD12R,0.0354X0.0394*%
%ADD13R,0.0512X0.0709*%
%ADD14R,0.0472X0.0551*%
%ADD15R,0.0709X0.0512*%
%ADD16R,0.0551X0.0433*%
%ADD17O,0.0650X0.0217*%
%ADD18O,0.0217X0.0650*%
%ADD19R,0.0433X0.0551*%
%ADD20R,0.1063X0.0197*%
%ADD21R,0.0984X0.0787*%
%ADD22C,0.0200*%
%ADD23C,0.0100*%
%ADD24C,0.0591*%
%ADD25R,0.0591X0.0591*%
%ADD26C,0.0350*%
G36*
X032395Y033047D02*
Y032603D01*
X032397Y032590D01*
X032380Y032458D01*
X032360Y032412D01*
X032350Y032410D01*
X032210Y032352D01*
X032090Y032260D01*
X031998Y032140D01*
X031975Y032084D01*
X031896Y032100D01*
Y032573D01*
X031896Y032574D01*
X031948Y032697D01*
X031965Y032830D01*
Y033085D01*
X032220D01*
X032335Y033100D01*
X032395Y033047D01*
D02*
G37*
G36*
X026357Y033425D02*
X026487Y033408D01*
X026995D01*
X027046Y033350D01*
Y032685D01*
X026990Y032550D01*
X026970Y032400D01*
X026972Y032386D01*
X026919Y032326D01*
X026288D01*
X026288Y032326D01*
Y032326D01*
X026288Y032325D01*
X026204Y032409D01*
Y033417D01*
X026271Y033461D01*
X026357Y033425D01*
D02*
G37*
G36*
X028480Y033085D02*
X028735D01*
Y032830D01*
X028752Y032697D01*
X028804Y032574D01*
X028885Y032467D01*
X028991Y032386D01*
X029115Y032335D01*
X029248Y032317D01*
X029380Y032335D01*
X029405Y032345D01*
X029430Y032335D01*
X029563Y032317D01*
X029695Y032335D01*
X029720Y032345D01*
X029745Y032335D01*
X029878Y032317D01*
X030010Y032335D01*
X030034Y032344D01*
X030106Y032311D01*
X030126Y032254D01*
X029316Y031444D01*
X028112D01*
Y032262D01*
X028130Y032400D01*
X028110Y032550D01*
X028054Y032685D01*
Y033093D01*
X028417D01*
X028480Y033085D01*
D02*
G37*
G36*
X023783Y032405D02*
X023914Y032365D01*
X024050Y032351D01*
X024186Y032365D01*
X024317Y032405D01*
X024317Y032405D01*
Y032405D01*
X024355Y032355D01*
Y032355D01*
X025196D01*
Y032200D01*
X025208Y032104D01*
X025156Y032044D01*
X023834D01*
X023694Y032184D01*
Y032374D01*
X023762Y032415D01*
X023783Y032405D01*
D02*
G37*
G36*
X032706Y038416D02*
Y036284D01*
X032669Y036246D01*
X032477D01*
X032476Y036246D01*
X032353Y036298D01*
X032220Y036315D01*
X031965D01*
Y036570D01*
X031948Y036703D01*
X031896Y036826D01*
X031815Y036933D01*
X031709Y037014D01*
X031585Y037065D01*
X031491Y037078D01*
Y038176D01*
X031412D01*
Y038506D01*
X032616D01*
X032706Y038416D01*
D02*
G37*
G36*
X027396Y038641D02*
Y038400D01*
X027396Y038400D01*
X027396D01*
Y036785D01*
X027342Y036655D01*
X027341Y036654D01*
X025111D01*
X025067Y036721D01*
X025087Y036769D01*
X025104Y036900D01*
Y037065D01*
X025160Y037200D01*
X025180Y037350D01*
X025160Y037500D01*
X025102Y037640D01*
X025010Y037760D01*
X024890Y037852D01*
X024890Y037852D01*
X024890D01*
X024860Y037890D01*
Y037890D01*
X024952Y038010D01*
X025010Y038150D01*
X025030Y038300D01*
X025010Y038450D01*
X024952Y038590D01*
X024873Y038693D01*
X024909Y038765D01*
X027272D01*
X027396Y038641D01*
D02*
G37*
G36*
X022012Y033019D02*
X022133Y032955D01*
X022264Y032915D01*
X022400Y032901D01*
X022452Y032848D01*
X022446Y032800D01*
Y032535D01*
X022390Y032400D01*
X022370Y032250D01*
X022390Y032100D01*
X022446Y031965D01*
Y030954D01*
X020954D01*
Y032972D01*
X021023Y033013D01*
X021133Y032955D01*
X021264Y032915D01*
X021400Y032901D01*
X021536Y032915D01*
X021667Y032955D01*
X021788Y033019D01*
X021894Y033106D01*
X021906D01*
X022012Y033019D01*
D02*
G37*
G36*
X039046Y034792D02*
X038764D01*
Y035466D01*
X038764Y035466D01*
X038764Y035466D01*
Y035466D01*
Y036708D01*
X039046D01*
Y034792D01*
D02*
G37*
D10*
X032546Y031896D02*
G03*
X032839Y032603I-000707J000707D01*
G01*
Y033500D02*
G03*
X032603Y033598I-000236J-000236D01*
G01*
X028230Y037005D02*
G03*
X028371Y036667I000479J000000D01*
G01*
X028450Y036475D02*
G03*
X028371Y036667I-000271J000000D01*
G01*
X028397Y036347D02*
G03*
X028450Y036475I-000128J000128D01*
G01*
X028230Y037008D02*
G03*
X028230Y037005I000152J000000D01*
G01*
X029468Y037300D02*
G03*
X028865Y037550I-000604J-000604D01*
G01*
X029878Y036800D02*
G03*
X029813Y036955I-000219J000000D01*
G01*
X028541Y037550D02*
G03*
X028300Y037450I000000J-000341D01*
G01*
D02*
G03*
X028230Y037282I000168J-000168D01*
G01*
X035700Y038200D02*
X038150D01*
X038750Y038800D01*
X035400Y037900D02*
X035700Y038200D01*
X035400Y035950D02*
Y037900D01*
Y035950D02*
X035600Y035750D01*
X036681D01*
X035150Y035400D02*
X036646D01*
X035050Y035500D02*
X035150Y035400D01*
X035050Y035500D02*
Y038550D01*
X034050Y031300D02*
X034100Y031250D01*
X031750Y031300D02*
X034050D01*
X031452Y031598D02*
X031750Y031300D01*
X031452Y031598D02*
Y033046D01*
X029500Y031000D02*
X030822Y032322D01*
Y033046D01*
X026450Y031000D02*
X029500D01*
X030800Y031600D02*
X031137Y031937D01*
Y033046D01*
X032839Y032603D02*
Y033500D01*
X032500Y031850D02*
X032546Y031896D01*
X032004Y033598D02*
X032603D01*
X027750Y035700D02*
X028397Y036347D01*
X028230Y037008D02*
Y037282D01*
Y037005D02*
Y037008D01*
X028541Y037550D02*
X028865D01*
X029468Y037300D02*
X029813Y036955D01*
X029468Y037300D02*
X029468Y037300D01*
X029468Y037300D02*
X029468Y037300D01*
X029468Y037300D02*
X029468Y037300D01*
X029878Y036354D02*
Y036800D01*
X028650Y038850D02*
X028750Y038950D01*
X032800D01*
X028750Y037100D02*
X029250D01*
X029563Y036787D01*
Y036354D02*
Y036787D01*
X028650Y037950D02*
X029100Y038300D01*
X030205D01*
X032850Y033900D02*
X033000Y033750D01*
X032016Y033900D02*
X032850D01*
X033000Y033750D02*
Y034450D01*
Y032250D02*
Y033750D01*
X032004Y034543D02*
X032907D01*
X033000Y034450D01*
X035105Y032100D02*
X035155Y032150D01*
X033000Y032250D02*
X033150Y032100D01*
X038650Y032333D02*
Y032850D01*
X039150Y031150D02*
Y031900D01*
X038517Y032200D02*
X038650Y032333D01*
X038235Y032200D02*
X038517D01*
X033450Y033000D02*
X034000D01*
X034179Y033179D01*
Y035271D01*
X033963Y035487D02*
X034179Y035271D01*
X032004Y035487D02*
X033963D01*
X027750Y035650D02*
Y035700D01*
X035750Y034950D02*
X035920Y035120D01*
X035750Y033905D02*
Y034950D01*
X035550Y033705D02*
X035750Y033905D01*
X035100Y033705D02*
X035550D01*
X034995Y033600D02*
X035100Y033705D01*
X032852Y035802D02*
X033150Y036100D01*
X032004Y035802D02*
X032852D01*
X032800Y038950D02*
X033150Y038600D01*
Y036100D02*
Y038600D01*
X023900Y037851D02*
X024001D01*
X038185Y032150D02*
X038235Y032200D01*
X035804Y032150D02*
X037515D01*
X037515Y032150D01*
X025850Y031600D02*
X026450Y031000D01*
X023650Y031600D02*
X025850D01*
X021300Y038350D02*
X021449D01*
X023350Y031200D02*
X025500D01*
X029700Y037500D02*
X030205D01*
X029350Y037850D02*
X029700Y037500D01*
X023250Y032000D02*
X023650Y031600D01*
X023250Y032000D02*
Y035100D01*
X039000Y031000D02*
X039150Y031150D01*
X038589Y031000D02*
X039000D01*
X038539Y031050D02*
X038589Y031000D01*
X037161Y031050D02*
X037161Y031050D01*
X035745Y031050D02*
X037161D01*
X030205Y037500D02*
X030205Y037500D01*
X032004Y033913D02*
X032016Y033900D01*
X030193Y036354D02*
X030205Y036366D01*
Y037500D01*
X036646Y035400D02*
X036681Y035435D01*
D11*
X034300Y036904D02*
D03*
Y036196D02*
D03*
D12*
X038185Y032150D02*
D03*
X037515D02*
D03*
D13*
X037279Y031050D02*
D03*
X038421D02*
D03*
X022571Y038350D02*
D03*
X021429D02*
D03*
D14*
X035804Y032150D02*
D03*
X035096D02*
D03*
X035804Y031050D02*
D03*
X035096D02*
D03*
X030854Y037500D02*
D03*
X030146D02*
D03*
D15*
X023900Y037871D02*
D03*
Y036729D02*
D03*
D16*
X035100Y034295D02*
D03*
Y033705D02*
D03*
X026300Y035105D02*
D03*
Y035695D02*
D03*
D17*
X028696Y035802D02*
D03*
Y035487D02*
D03*
Y035172D02*
D03*
Y034857D02*
D03*
Y034543D02*
D03*
Y034228D02*
D03*
Y033913D02*
D03*
Y033598D02*
D03*
X032004D02*
D03*
Y033913D02*
D03*
Y034228D02*
D03*
Y034543D02*
D03*
Y034857D02*
D03*
Y035172D02*
D03*
Y035487D02*
D03*
Y035802D02*
D03*
D18*
X029248Y033046D02*
D03*
X029563D02*
D03*
X029878D02*
D03*
X030193D02*
D03*
X030507D02*
D03*
X030822D02*
D03*
X031137D02*
D03*
X031452D02*
D03*
Y036354D02*
D03*
X031137D02*
D03*
X030822D02*
D03*
X030507D02*
D03*
X030193D02*
D03*
X029878D02*
D03*
X029563D02*
D03*
X029248D02*
D03*
D19*
X027495Y031650D02*
D03*
X026905D02*
D03*
X030795Y038300D02*
D03*
X030205D02*
D03*
D20*
X036681Y035750D02*
D03*
Y035435D02*
D03*
Y035120D02*
D03*
Y036065D02*
D03*
Y036380D02*
D03*
D21*
X036799Y033998D02*
D03*
Y037502D02*
D03*
X038964Y033998D02*
D03*
Y037502D02*
D03*
D22*
X037950Y038850D02*
X038369Y039269D01*
X036831D02*
X037350Y038750D01*
X034181Y039269D02*
X036831D01*
X033450D02*
X034181D01*
X034300Y038750D02*
X034300Y038750D01*
Y039150D01*
X034181Y039269D02*
X034300Y039150D01*
X034300Y036904D02*
Y038750D01*
X034730Y035120D02*
X035920D01*
X034300Y035550D02*
X034730Y035120D01*
X034300Y035550D02*
Y036196D01*
X039100Y039269D02*
X039269Y039100D01*
X038369Y039269D02*
X039100D01*
X039269Y038519D02*
Y039100D01*
X037346Y036380D02*
X038259Y035466D01*
Y033750D02*
Y035466D01*
X037459Y032950D02*
X038259Y033750D01*
X026805Y034600D02*
X027150D01*
X026555Y034850D02*
X026805Y034600D01*
X026300Y035105D02*
X026555Y034850D01*
X026300Y035105D02*
X026300Y035105D01*
Y035105D01*
Y034350D02*
Y035105D01*
X026300Y034350D02*
X026300Y034350D01*
X026300Y034100D02*
Y034350D01*
X026487Y033913D02*
X028696D01*
X026300Y035105D02*
X026300Y035105D01*
X026300Y034100D02*
X026487Y033913D01*
X027900Y038400D02*
Y038850D01*
Y036500D02*
Y038400D01*
X035155Y031050D02*
Y032150D01*
X033150Y032100D02*
X035105D01*
X034600Y032950D02*
X037459D01*
X026855Y035695D02*
X027378Y035172D01*
X028026D01*
X028696Y034228D02*
X030885D01*
X031200Y034543D01*
X029393Y034857D02*
X030000Y034250D01*
X031200Y034543D02*
X032004D01*
Y034857D02*
X033443D01*
X033450Y034300D02*
X033500Y034350D01*
Y034800D01*
X033443Y034857D02*
X033500Y034800D01*
X034400Y033150D02*
X034600Y032950D01*
X034400Y033150D02*
Y034150D01*
X034545Y034295D01*
X035100D01*
X038469Y038200D02*
X038950D01*
X039269Y038519D01*
X038259Y037990D02*
X038469Y038200D01*
X038259Y035466D02*
Y037990D01*
X025700Y035600D02*
X026205D01*
X024000Y035850D02*
X026145D01*
X026300Y035695D02*
X026855D01*
X036681Y036380D02*
X037346D01*
X035920Y035120D02*
X036681D01*
X035100Y034295D02*
X035100Y034295D01*
X023150Y036950D02*
Y037350D01*
X023000Y037500D02*
X023150Y037350D01*
X020850Y037500D02*
X023000D01*
X023900Y036749D02*
X024449D01*
X023899Y036750D02*
X023900Y036749D01*
X023350Y036750D02*
X023899D01*
X023150Y036950D02*
X023350Y036750D01*
X024449Y036749D02*
X024600Y036900D01*
Y037350D01*
X023550Y038900D02*
X023919Y039269D01*
X022571Y038350D02*
X023121Y038900D01*
X023550D01*
X023919Y039269D02*
X027481D01*
X022950Y032250D02*
Y032800D01*
Y030881D02*
Y032250D01*
X026145Y035850D02*
X026300Y035695D01*
X026205Y035600D02*
X026300Y035695D01*
X027495Y031650D02*
X027550Y031705D01*
Y032400D02*
Y033350D01*
X027798Y033598D01*
X028696D01*
X027550Y031705D02*
Y032400D01*
X026855Y031600D02*
X026905Y031650D01*
X026300Y031600D02*
X026855D01*
X025700Y032200D02*
X026300Y031600D01*
X025700Y032200D02*
Y035600D01*
X027900Y034650D02*
Y035050D01*
X028689Y034550D02*
X028696Y034543D01*
X028000Y034550D02*
X028689D01*
X027900Y034650D02*
X028000Y034550D01*
X027900Y035050D02*
X027944Y035094D01*
X027947D01*
X028026Y035172D01*
X028696Y034857D02*
X029393D01*
X028026Y035172D02*
X028696D01*
X031996Y034850D02*
X032004Y034857D01*
X030350Y034850D02*
X031996D01*
X030028Y035172D02*
X030350Y034850D01*
X028696Y035172D02*
X030028D01*
X023100Y030731D02*
X030300D01*
X022950Y030881D02*
X023100Y030731D01*
X024600Y036150D02*
X027550D01*
X027900Y036500D01*
X027481Y039269D02*
X033450D01*
X027481D02*
X027900Y038850D01*
X020850Y037500D02*
Y037900D01*
X021300Y038350D01*
X024001Y037851D02*
X024450Y038300D01*
X030795Y037500D02*
Y038300D01*
D23*
X027900Y038400D02*
X028750D01*
X028961Y038487D01*
X029224Y038750D01*
X033450Y039269D02*
X033500Y039319D01*
X024575Y036175D02*
X024600Y036150D01*
X023175Y036175D02*
X024575D01*
X022950Y035950D02*
X023175Y036175D01*
X022944Y032256D02*
X022950Y032250D01*
X022944Y032806D02*
Y035227D01*
X034836Y030731D02*
X035155Y031050D01*
X030300Y030731D02*
X034836D01*
X022944Y032806D02*
X022950Y032800D01*
X022944Y035227D02*
X022950Y035233D01*
Y035950D01*
X030795Y038300D02*
X030800Y038305D01*
Y038650D01*
X030700Y038750D02*
X030800Y038650D01*
X029224Y038750D02*
X030700D01*
D24*
X022400Y033600D02*
D03*
X021400D02*
D03*
X022400Y034600D02*
D03*
X021400D02*
D03*
X022400Y035600D02*
D03*
X021400D02*
D03*
X022400Y036600D02*
D03*
X024050Y033050D02*
D03*
X025050Y034050D02*
D03*
X024050D02*
D03*
X025050Y035050D02*
D03*
X024050D02*
D03*
X037783Y034884D02*
D03*
Y036616D02*
D03*
D25*
X021400Y036600D02*
D03*
X025050Y033050D02*
D03*
D26*
X037950Y038850D02*
D03*
X037350Y038750D02*
D03*
X035050Y038550D02*
D03*
X027550Y032400D02*
D03*
X030800Y031600D02*
D03*
X034100Y031250D02*
D03*
X032500Y031850D02*
D03*
X027150Y034600D02*
D03*
X028650Y038850D02*
D03*
X028750Y037100D02*
D03*
X028650Y037950D02*
D03*
X038650Y032850D02*
D03*
X039150Y031900D02*
D03*
X033450Y034300D02*
D03*
X038750Y038800D02*
D03*
X027750Y035650D02*
D03*
X024600Y037350D02*
D03*
X023550Y038900D02*
D03*
X022950Y032250D02*
D03*
X020850Y037500D02*
D03*
X023350Y031200D02*
D03*
X025500D02*
D03*
X033450Y033000D02*
D03*
X029350Y037850D02*
D03*
X024000Y035850D02*
D03*
X027900Y036500D02*
D03*
X023250Y035100D02*
D03*
X024450Y038300D02*
D03*
M02*
