M48
;Layer_Color=9474304
;FILE_FORMAT=2:4
INCH
;TYPE=PLATED
T1F00S00C0.0250
T2F00S00C0.0354
%
T01
X023350Y031200
X025500
X027550Y032400
X027150Y034600
X027750Y035650
X027900Y036500
X028750Y037100
X028650Y037950
X029350Y037850
X028650Y038850
X024450Y038300
X024600Y037350
X024000Y035850
X023250Y035100
X022950Y032250
X023550Y038900
X020850Y037500
X030800Y031600
X032500Y031850
X033450Y033000
Y034300
X034100Y031250
X039150Y031900
X038650Y032850
X038750Y038800
X037950Y038850
X037350Y038750
X035050Y038550
T02
X021400Y033600
X022400
Y034600
X021400
Y035600
X022400
Y036600
X021400
X024050Y035050
Y034050
Y033050
X025050
Y034050
Y035050
X037783Y034884
Y036616
M30
