%FSAX24Y24*%
%MOIN*%
G70*
G01*
G75*
G04 Layer_Physical_Order=2*
G04 Layer_Color=16711680*
%ADD10R,0.0433X0.0551*%
%ADD11R,0.0472X0.0787*%
%ADD12R,0.0787X0.0472*%
%ADD13R,0.0925X0.0197*%
%ADD14R,0.0984X0.0925*%
%ADD15R,0.0551X0.0433*%
%ADD16O,0.0650X0.0217*%
%ADD17O,0.0217X0.0650*%
%ADD18R,0.0591X0.0591*%
%ADD19C,0.0200*%
%ADD20C,0.0100*%
%ADD21C,0.0080*%
%ADD22C,0.0591*%
%ADD23R,0.0591X0.0591*%
%ADD24C,0.0512*%
%ADD25C,0.0350*%
%ADD26O,0.0827X0.0138*%
%ADD27R,0.0945X0.0394*%
%ADD28R,0.0945X0.1299*%
G36*
X027301Y035846D02*
X027313Y035760D01*
X027298Y035740D01*
X027240Y035600D01*
X027220Y035450D01*
X027240Y035300D01*
X027298Y035160D01*
X027390Y035040D01*
X027510Y034948D01*
X027650Y034890D01*
X027800Y034870D01*
X027950Y034890D01*
X028090Y034948D01*
X028166Y035006D01*
X030361D01*
X030406Y034987D01*
Y034200D01*
X030421Y034085D01*
X030453Y034009D01*
X030466Y033978D01*
X030536Y033886D01*
X030736Y033686D01*
X030828Y033616D01*
X030904Y033584D01*
X030935Y033571D01*
X031050Y033556D01*
X033106D01*
X033132Y033480D01*
X033040Y033410D01*
X032948Y033290D01*
X032890Y033150D01*
X032870Y033000D01*
X032890Y032850D01*
X032948Y032710D01*
X033006Y032634D01*
Y031984D01*
X032816Y031794D01*
X032574D01*
X032560Y031900D01*
X032502Y032040D01*
X032410Y032160D01*
X032290Y032252D01*
X032150Y032310D01*
X032000Y032330D01*
X031850Y032310D01*
X031779Y032281D01*
X031705Y032312D01*
X031652Y032440D01*
X031560Y032560D01*
X031440Y032652D01*
X031300Y032710D01*
X031150Y032730D01*
X031000Y032710D01*
X030860Y032652D01*
X030784Y032594D01*
X027585D01*
X027551Y032666D01*
X027598Y032724D01*
X027659Y032838D01*
X027696Y032961D01*
X027709Y033090D01*
X027696Y033218D01*
X027659Y033342D01*
X027598Y033456D01*
X027516Y033556D01*
X027416Y033638D01*
X027375Y033660D01*
Y033740D01*
X027416Y033762D01*
X027516Y033844D01*
X027598Y033944D01*
X027659Y034058D01*
X027696Y034182D01*
X027709Y034310D01*
X027696Y034439D01*
X027659Y034562D01*
X027598Y034676D01*
X027516Y034776D01*
X027416Y034858D01*
X027302Y034919D01*
X027179Y034957D01*
X027050Y034969D01*
X026921Y034957D01*
X026798Y034919D01*
X026684Y034858D01*
X026584Y034776D01*
X026502Y034676D01*
X026441Y034562D01*
X026404Y034439D01*
X026391Y034310D01*
X026404Y034182D01*
X026441Y034058D01*
X026502Y033944D01*
X026584Y033844D01*
X026684Y033762D01*
X026725Y033740D01*
Y033660D01*
X026684Y033638D01*
X026584Y033556D01*
X026502Y033456D01*
X026441Y033342D01*
X026404Y033218D01*
X026391Y033090D01*
X026404Y032961D01*
X026441Y032838D01*
X026502Y032724D01*
X026549Y032666D01*
X026515Y032594D01*
X026094D01*
Y034350D01*
X026079Y034465D01*
X026047Y034541D01*
X026034Y034572D01*
X025964Y034664D01*
X025814Y034814D01*
X025725Y034882D01*
X025735Y034914D01*
X025749Y035050D01*
X025735Y035186D01*
X025695Y035317D01*
X025631Y035438D01*
X025544Y035544D01*
X025494Y035585D01*
Y035856D01*
X027296D01*
X027301Y035846D01*
D02*
G37*
G36*
X039046Y034645D02*
X038986Y034592D01*
X038889Y034605D01*
X034656D01*
X034651Y034641D01*
X034644Y034658D01*
Y035389D01*
X034650Y035390D01*
X034790Y035448D01*
X034910Y035540D01*
X035002Y035660D01*
X035060Y035800D01*
X035070Y035874D01*
X036012D01*
Y036624D01*
Y036796D01*
X036900D01*
X037031Y036813D01*
X037152Y036863D01*
X037162Y036871D01*
X037165Y036871D01*
X037241Y036903D01*
X037272Y036916D01*
X037364Y036986D01*
X037464Y037086D01*
X037534Y037178D01*
X037579Y037285D01*
X037594Y037400D01*
X037592Y037410D01*
X037604Y037500D01*
X037604Y037500D01*
X037604Y037500D01*
Y037500D01*
Y037577D01*
X037700Y037590D01*
X037840Y037648D01*
X037960Y037740D01*
X038052Y037860D01*
X038110Y038000D01*
X038130Y038150D01*
X038110Y038300D01*
X038052Y038440D01*
X037994Y038516D01*
Y039046D01*
X039046D01*
Y034645D01*
D02*
G37*
G36*
X024168Y037220D02*
X024090Y037160D01*
X023998Y037040D01*
X023940Y036900D01*
X023927Y036800D01*
X024500D01*
Y036700D01*
X023927D01*
X023940Y036600D01*
X023985Y036492D01*
X023945Y036423D01*
X023850Y036410D01*
X023710Y036352D01*
X023590Y036260D01*
X023498Y036140D01*
X023446Y036015D01*
X023372Y035984D01*
D01*
X023341Y035997D01*
X023265Y036029D01*
X023150Y036044D01*
X022937D01*
X022902Y036116D01*
X022981Y036212D01*
X023045Y036333D01*
X023085Y036464D01*
X023099Y036600D01*
X023085Y036736D01*
X023045Y036867D01*
X022981Y036988D01*
X022904Y037081D01*
Y037296D01*
X024142D01*
X024168Y037220D01*
D02*
G37*
G36*
X021278Y032116D02*
X021385Y032071D01*
X021500Y032056D01*
X024606D01*
Y030954D01*
X023942D01*
X023898Y031020D01*
X023910Y031050D01*
X023930Y031200D01*
X023910Y031350D01*
X023852Y031490D01*
X023760Y031610D01*
X023640Y031702D01*
X023500Y031760D01*
X023350Y031780D01*
X023200Y031760D01*
X023060Y031702D01*
X022984Y031644D01*
X021115D01*
Y032151D01*
X021187Y032186D01*
X021278Y032116D01*
D02*
G37*
G36*
X035956Y031966D02*
X035898Y031890D01*
X035840Y031750D01*
X035820Y031600D01*
X035840Y031450D01*
X035898Y031310D01*
X035990Y031190D01*
X036110Y031098D01*
X036250Y031040D01*
X036296Y031034D01*
X036291Y030954D01*
X033331D01*
X033305Y031030D01*
X033314Y031036D01*
X033764Y031486D01*
X033834Y031578D01*
X033847Y031609D01*
X033879Y031685D01*
X033894Y031800D01*
Y032634D01*
X033952Y032710D01*
X034010Y032850D01*
X034030Y033000D01*
X034010Y033150D01*
X033952Y033290D01*
X033860Y033410D01*
X033768Y033480D01*
X033794Y033556D01*
X035956D01*
Y031966D01*
D02*
G37*
G36*
X038706Y033716D02*
Y033466D01*
X038648Y033390D01*
X038590Y033250D01*
X038570Y033100D01*
X038590Y032950D01*
X038648Y032810D01*
X038740Y032690D01*
X038860Y032598D01*
X039000Y032540D01*
X039046Y032534D01*
Y030954D01*
X036509D01*
X036504Y031034D01*
X036550Y031040D01*
X036690Y031098D01*
X036810Y031190D01*
X036902Y031310D01*
X036960Y031450D01*
X036980Y031600D01*
X036960Y031750D01*
X036902Y031890D01*
X036844Y031966D01*
Y033717D01*
X038705D01*
X038706Y033716D01*
D02*
G37*
G36*
X030129Y038980D02*
X030090Y038886D01*
X030074Y038763D01*
X030090Y038641D01*
X030093Y038635D01*
X030090Y038630D01*
X030074Y038507D01*
X030090Y038385D01*
X030093Y038380D01*
X030090Y038374D01*
X030074Y038252D01*
X030090Y038129D01*
X030093Y038124D01*
X030090Y038118D01*
X030074Y037996D01*
X030090Y037873D01*
X030093Y037868D01*
X030090Y037862D01*
X030074Y037740D01*
X030090Y037617D01*
X030093Y037612D01*
X030090Y037606D01*
X030074Y037484D01*
X030039Y037444D01*
X029854D01*
X029818Y037516D01*
X029852Y037560D01*
X029910Y037700D01*
X029930Y037850D01*
X029910Y038000D01*
X029852Y038140D01*
X029760Y038260D01*
X029640Y038352D01*
X029500Y038410D01*
X029350Y038430D01*
X029200Y038410D01*
X029160Y038394D01*
X029118D01*
X029073Y038460D01*
X029110Y038550D01*
X029130Y038700D01*
X029110Y038850D01*
X029057Y038980D01*
X029101Y039046D01*
X030085D01*
X030129Y038980D01*
D02*
G37*
G36*
X021506Y037532D02*
X021426Y037527D01*
X021410Y037650D01*
X021352Y037790D01*
X021260Y037910D01*
X021140Y038002D01*
X021000Y038060D01*
X020954Y038066D01*
Y039046D01*
X021506D01*
Y037532D01*
D02*
G37*
G36*
X026719Y038850D02*
X026719D01*
Y038304D01*
X026181D01*
Y038885D01*
X026719D01*
Y038850D01*
D02*
G37*
G36*
X032368Y036228D02*
Y035328D01*
X032384Y035210D01*
X032429Y035101D01*
X032501Y035007D01*
X032600Y034908D01*
X032548Y034840D01*
X032490Y034700D01*
X032477Y034605D01*
X032044D01*
Y036350D01*
X032029Y036465D01*
X032071Y036528D01*
X032123D01*
X032200Y036518D01*
X032277Y036528D01*
X032368D01*
Y036228D01*
D02*
G37*
G36*
X026719Y036750D02*
X026719Y036750D01*
D01*
X026713Y036744D01*
X026181D01*
Y036844D01*
X025308D01*
Y036944D01*
X026181D01*
Y037203D01*
Y037296D01*
X026719D01*
Y036750D01*
D02*
G37*
G36*
X032846Y038980D02*
X032807Y038886D01*
X032791Y038763D01*
X032807Y038641D01*
X032809Y038635D01*
X032807Y038630D01*
X032791Y038507D01*
X032740Y038450D01*
X032496D01*
X032378Y038434D01*
X032269Y038389D01*
X032175Y038317D01*
X032029Y038171D01*
X031957Y038077D01*
X031912Y037967D01*
X031896Y037850D01*
Y037416D01*
X031761D01*
X031708Y037476D01*
X031709Y037484D01*
X031693Y037606D01*
X031691Y037612D01*
X031693Y037617D01*
X031709Y037740D01*
X031693Y037862D01*
X031691Y037868D01*
X031693Y037873D01*
X031709Y037996D01*
X031693Y038118D01*
X031691Y038124D01*
X031693Y038129D01*
X031709Y038252D01*
X031693Y038374D01*
X031691Y038380D01*
X031693Y038385D01*
X031709Y038507D01*
X031693Y038630D01*
X031691Y038635D01*
X031693Y038641D01*
X031709Y038763D01*
X031693Y038886D01*
X031654Y038980D01*
X031699Y039046D01*
X032801D01*
X032846Y038980D01*
D02*
G37*
D10*
X034805Y037300D02*
D03*
X035395D02*
D03*
X035395Y038850D02*
D03*
X034805D02*
D03*
X034805Y036550D02*
D03*
X035395D02*
D03*
X034805Y038100D02*
D03*
X035395D02*
D03*
D19*
X034805Y036550D02*
Y037300D01*
X035395Y036550D02*
Y037300D01*
X035395Y038850D02*
X036800D01*
X035395Y037300D02*
X036900D01*
X037100Y037500D01*
Y038550D01*
X036800Y038850D02*
X037100Y038550D01*
X020850Y036800D02*
X021050Y036600D01*
X020850Y036800D02*
Y037500D01*
X033400Y034550D02*
X033850Y035000D01*
X033050Y034550D02*
X033400D01*
X024000Y035850D02*
X024350D01*
X024500Y036000D01*
Y036750D01*
X024644Y036894D02*
X025308D01*
X024500Y036750D02*
X024644Y036894D01*
X022950Y032800D02*
X023800D01*
X024050Y033050D01*
X027900Y036500D02*
X028196Y036204D01*
X023950Y037800D02*
X025308D01*
X022600D02*
X023950D01*
X023306Y038706D02*
X025308D01*
Y037800D02*
X027592D01*
X022400Y036600D02*
Y037600D01*
X022600Y037800D01*
D20*
X034805Y037300D02*
Y037387D01*
X035395Y037977D01*
Y038100D01*
X033150Y035000D02*
X033850D01*
X032822Y035328D02*
X033150Y035000D01*
X032822Y036228D02*
Y036972D01*
Y035328D02*
Y036228D01*
X033608Y035948D02*
Y036204D01*
X032854D02*
X033608D01*
X032850Y036200D02*
X032854Y036204D01*
X032822Y036228D02*
X032850Y036200D01*
X032900Y037050D02*
Y037996D01*
X032996D01*
X032496D02*
X032900D01*
X033078Y037228D02*
X033608D01*
X032900Y037050D02*
X033078Y037228D01*
X032200Y036972D02*
X032350Y037122D01*
Y037850D01*
X032496Y037996D01*
D21*
X032200Y036972D02*
X032822D01*
X030892D02*
X032200D01*
X032822D02*
X032900Y037050D01*
X028550Y038700D02*
Y038800D01*
X028021Y039329D02*
X028550Y038800D01*
X021050Y036600D02*
X021400D01*
X022150Y033600D02*
X022400D01*
X021700Y034050D02*
X022150Y033600D01*
X021050Y034050D02*
X021700D01*
X020900Y034200D02*
X021050Y034050D01*
X020900Y034200D02*
Y035050D01*
X021000Y035150D01*
X021850D01*
X021950Y035250D01*
Y039100D01*
X022179Y039329D01*
X028021D01*
X036800Y038850D02*
X036800Y038850D01*
X033450Y031800D02*
Y033000D01*
X020850Y035600D02*
X021400D01*
X020671Y035421D02*
X020850Y035600D01*
X020671Y031400D02*
Y035421D01*
Y031400D02*
X020871Y031200D01*
X023350D01*
X025500D02*
X025650Y031350D01*
X033000D01*
X033450Y031800D01*
X034200Y034600D02*
Y035650D01*
X034091Y034491D02*
Y034491D01*
X034200Y034600D01*
Y035650D02*
X034500Y035950D01*
X038889Y034161D02*
X039150Y033900D01*
X031800Y034161D02*
X038889D01*
X031600Y034361D02*
X031800Y034161D01*
X039150Y033100D02*
Y033900D01*
X031600Y034361D02*
Y036350D01*
X036150Y034000D02*
X036400Y033750D01*
X031050Y034000D02*
X036150D01*
X030850Y034200D02*
X031050Y034000D01*
X036400Y031600D02*
Y033750D01*
X030850Y034200D02*
Y035395D01*
X030864Y037000D02*
X030892Y036972D01*
X029400Y037000D02*
X030864D01*
X029000Y037400D02*
X029400Y037000D01*
X030882Y036450D02*
X030892Y036460D01*
X030150Y036450D02*
X030882D01*
X029800Y036800D02*
X030150Y036450D01*
X028600Y036800D02*
X029800D01*
X029250Y037950D02*
X029350Y037850D01*
X028550Y037950D02*
X029250D01*
X028450Y037850D02*
X028550Y037950D01*
X028450Y037100D02*
Y037850D01*
X024000Y035100D02*
X024050Y035050D01*
X024000Y035100D02*
Y035850D01*
X031850Y031600D02*
X032000Y031750D01*
X025600Y031600D02*
X031850D01*
X025466Y031734D02*
X025600Y031600D01*
X025466Y031734D02*
Y033634D01*
X031271Y030671D02*
X031450Y030850D01*
Y031050D01*
X025050Y030871D02*
Y032650D01*
X025250Y030671D02*
X031271D01*
X025050Y030871D02*
X025250Y030671D01*
X025050Y034050D02*
X025466Y033634D01*
X036100Y038100D02*
X036300Y038300D01*
X035395Y038100D02*
X036100D01*
X035395Y037300D02*
X035395Y037300D01*
X037050D01*
X037150Y037400D01*
X028196Y036204D02*
X030892D01*
X027800Y035450D02*
X030878D01*
X030892Y035437D01*
X034200Y038600D02*
Y039000D01*
X034107Y038507D02*
X034200Y038600D01*
X033608Y038507D02*
X034107D01*
X037550Y038150D02*
Y039200D01*
X037421Y039329D02*
X037550Y039200D01*
X033750Y039329D02*
X037421D01*
X033608Y039187D02*
X033750Y039329D01*
X033608Y038763D02*
Y039187D01*
X034206Y038252D02*
X034805Y038850D01*
X033608Y038252D02*
X034206D01*
X032996Y037996D02*
X033608D01*
X033604Y036200D02*
X033608Y036204D01*
X034621Y037484D02*
X034805Y037300D01*
X033608Y037484D02*
X034621D01*
X034650Y038100D02*
X034805D01*
X034290Y037740D02*
X034650Y038100D01*
X033608Y037740D02*
X034290D01*
X031490Y036460D02*
X031600Y036350D01*
X030892Y036460D02*
X031490D01*
X030850Y035395D02*
X030892Y035437D01*
X024050Y034050D02*
Y034350D01*
X024200Y034500D01*
X025500D01*
X025650Y034350D01*
Y032300D02*
Y034350D01*
Y032300D02*
X025800Y032150D01*
X031150D01*
X025050Y032650D02*
Y033050D01*
X023250Y035100D02*
Y035500D01*
X023150Y035600D02*
X023250Y035500D01*
X022400Y035600D02*
X023150D01*
X028250Y036900D02*
X028450Y037100D01*
X027650Y036900D02*
X028250D01*
X027500Y036750D02*
X027650Y036900D01*
X027500Y036500D02*
Y036750D01*
X027300Y036300D02*
X027500Y036500D01*
X025200Y036300D02*
X027300D01*
X025050Y036150D02*
X025200Y036300D01*
X025050Y035050D02*
Y036150D01*
X023950Y037800D02*
X024450Y038300D01*
X023300Y038700D02*
X023306Y038706D01*
X024900Y032500D02*
X025050Y032650D01*
X021500Y032500D02*
X024900D01*
X021400Y032600D02*
X021500Y032500D01*
X021400Y032600D02*
Y033600D01*
X023700Y034050D02*
X024050D01*
X023600Y034150D02*
X023700Y034050D01*
X023600Y034150D02*
Y034500D01*
X023500Y034600D02*
X023600Y034500D01*
X022400Y034600D02*
X023500D01*
X025050Y033700D02*
Y034050D01*
X024950Y033600D02*
X025050Y033700D01*
X023450Y033600D02*
X024950D01*
X023350Y033700D02*
X023450Y033600D01*
X023350Y033700D02*
Y034050D01*
X023250Y034150D02*
X023350Y034050D01*
X021850Y034150D02*
X023250D01*
X021400Y034600D02*
X021850Y034150D01*
D22*
X022400Y033600D02*
D03*
X021400D02*
D03*
X022400Y034600D02*
D03*
X021400D02*
D03*
X022400Y035600D02*
D03*
X021400D02*
D03*
X022400Y036600D02*
D03*
X024050Y033050D02*
D03*
X025050Y034050D02*
D03*
X024050D02*
D03*
X025050Y035050D02*
D03*
X024050D02*
D03*
D23*
X021400Y036600D02*
D03*
X025050Y033050D02*
D03*
D24*
X027050Y034310D02*
D03*
Y033090D02*
D03*
D25*
X028550Y038700D02*
D03*
X020850Y037500D02*
D03*
X036800Y038850D02*
D03*
X023350Y031200D02*
D03*
X025500D02*
D03*
X033450Y033000D02*
D03*
X033050Y034550D02*
D03*
X033850Y035000D02*
D03*
X034091Y034491D02*
D03*
X029000Y037400D02*
D03*
X029350Y037850D02*
D03*
X024000Y035850D02*
D03*
X024500Y036750D02*
D03*
X022950Y032800D02*
D03*
X032000Y031750D02*
D03*
X031450Y031050D02*
D03*
X036300Y038300D02*
D03*
X027900Y036500D02*
D03*
X027800Y035450D02*
D03*
X028600Y036800D02*
D03*
X034500Y035950D02*
D03*
X034200Y039000D02*
D03*
X037550Y038150D02*
D03*
X039150Y033100D02*
D03*
X036400Y031600D02*
D03*
X031150Y032150D02*
D03*
X023250Y035100D02*
D03*
X024450Y038300D02*
D03*
X023300Y038700D02*
D03*
D26*
X030892Y035437D02*
D03*
Y035693D02*
D03*
Y035948D02*
D03*
Y036204D02*
D03*
Y036460D02*
D03*
Y036716D02*
D03*
Y036972D02*
D03*
Y037228D02*
D03*
Y037484D02*
D03*
Y037740D02*
D03*
Y037996D02*
D03*
Y038252D02*
D03*
Y038507D02*
D03*
Y038763D02*
D03*
X033608Y035437D02*
D03*
Y035693D02*
D03*
Y035948D02*
D03*
Y036204D02*
D03*
Y036460D02*
D03*
Y036716D02*
D03*
Y036972D02*
D03*
Y037228D02*
D03*
Y037484D02*
D03*
Y037740D02*
D03*
Y037996D02*
D03*
Y038252D02*
D03*
Y038507D02*
D03*
Y038763D02*
D03*
D27*
X025308Y036894D02*
D03*
Y037800D02*
D03*
Y038706D02*
D03*
D28*
X027592Y037800D02*
D03*
M02*
