%FSAX24Y24*%
%MOIN*%
G70*
G01*
G75*
%ADD10R,0.0433X0.0551*%
%ADD11R,0.0472X0.0787*%
%ADD12R,0.0787X0.0472*%
%ADD13R,0.0925X0.0197*%
%ADD14R,0.0984X0.0925*%
%ADD15R,0.0551X0.0433*%
%ADD16O,0.0650X0.0217*%
%ADD17O,0.0217X0.0650*%
%ADD18R,0.0591X0.0591*%
%ADD19C,0.0200*%
%ADD20C,0.0100*%
%ADD21C,0.0080*%
%ADD22C,0.0591*%
%ADD23R,0.0591X0.0591*%
%ADD24C,0.0512*%
%ADD25C,0.0350*%
%ADD26O,0.0827X0.0138*%
%ADD27R,0.0945X0.0394*%
%ADD28R,0.0945X0.1299*%
%ADD29C,0.0050*%
%ADD30C,0.0067*%
%ADD31C,0.0160*%
D29*
X022223Y033600D02*
X022577D01*
X022400Y033423D02*
Y033777D01*
X021223Y033600D02*
X021577D01*
X021400Y033423D02*
Y033777D01*
X022223Y034600D02*
X022577D01*
X022400Y034423D02*
Y034777D01*
X021223Y034600D02*
X021577D01*
X021400Y034423D02*
Y034777D01*
X022223Y035600D02*
X022577D01*
X022400Y035423D02*
Y035777D01*
X021223Y035600D02*
X021577D01*
X021400Y035423D02*
Y035777D01*
X022223Y036600D02*
X022577D01*
X022400Y036423D02*
Y036777D01*
X021223Y036600D02*
X021577D01*
X021400Y036423D02*
Y036777D01*
X026912Y034310D02*
X027188D01*
X027050Y034172D02*
Y034448D01*
X026912Y033090D02*
X027188D01*
X027050Y032952D02*
Y033228D01*
X024873Y033050D02*
X025227D01*
X025050Y032873D02*
Y033227D01*
X023873Y033050D02*
X024227D01*
X024050Y032873D02*
Y033227D01*
X024873Y034050D02*
X025227D01*
X025050Y033873D02*
Y034227D01*
X023873Y034050D02*
X024227D01*
X024050Y033873D02*
Y034227D01*
X024873Y035050D02*
X025227D01*
X025050Y034873D02*
Y035227D01*
X023873Y035050D02*
X024227D01*
X024050Y034873D02*
Y035227D01*
X028425Y038700D02*
X028675D01*
X028550Y038575D02*
Y038825D01*
X020725Y037500D02*
X020975D01*
X020850Y037375D02*
Y037625D01*
X036675Y038850D02*
X036925D01*
X036800Y038725D02*
Y038975D01*
X023225Y031200D02*
X023475D01*
X023350Y031075D02*
Y031325D01*
X025375Y031200D02*
X025625D01*
X025500Y031075D02*
Y031325D01*
X033325Y033000D02*
X033575D01*
X033450Y032875D02*
Y033125D01*
X032925Y034550D02*
X033175D01*
X033050Y034425D02*
Y034675D01*
X033725Y035000D02*
X033975D01*
X033850Y034875D02*
Y035125D01*
X033966Y034491D02*
X034216D01*
X034091Y034366D02*
Y034616D01*
X028875Y037400D02*
X029125D01*
X029000Y037275D02*
Y037525D01*
X029225Y037850D02*
X029475D01*
X029350Y037725D02*
Y037975D01*
X023875Y035850D02*
X024125D01*
X024000Y035725D02*
Y035975D01*
X024375Y036750D02*
X024625D01*
X024500Y036625D02*
Y036875D01*
X022825Y032800D02*
X023075D01*
X022950Y032675D02*
Y032925D01*
X031875Y031750D02*
X032125D01*
X032000Y031625D02*
Y031875D01*
X031325Y031050D02*
X031575D01*
X031450Y030925D02*
Y031175D01*
X036175Y038300D02*
X036425D01*
X036300Y038175D02*
Y038425D01*
X027775Y036500D02*
X028025D01*
X027900Y036375D02*
Y036625D01*
X027675Y035450D02*
X027925D01*
X027800Y035325D02*
Y035575D01*
X028475Y036800D02*
X028725D01*
X028600Y036675D02*
Y036925D01*
X034375Y035950D02*
X034625D01*
X034500Y035825D02*
Y036075D01*
X034075Y039000D02*
X034325D01*
X034200Y038875D02*
Y039125D01*
X037425Y038150D02*
X037675D01*
X037550Y038025D02*
Y038275D01*
X039025Y033100D02*
X039275D01*
X039150Y032975D02*
Y033225D01*
X036275Y031600D02*
X036525D01*
X036400Y031475D02*
Y031725D01*
X031025Y032150D02*
X031275D01*
X031150Y032025D02*
Y032275D01*
X023125Y035100D02*
X023375D01*
X023250Y034975D02*
Y035225D01*
X024325Y038300D02*
X024575D01*
X024450Y038175D02*
Y038425D01*
X023175Y038700D02*
X023425D01*
X023300Y038575D02*
Y038825D01*
M02*
