%FSAX24Y24*%
%MOIN*%
G70*
G01*
G75*
G04 Layer_Physical_Order=1*
G04 Layer_Color=255*
%ADD10R,0.0177X0.0114*%
%ADD11R,0.0114X0.0177*%
%ADD12R,0.0315X0.0114*%
%ADD13R,0.0126X0.0354*%
%ADD14O,0.0116X0.0354*%
%ADD15O,0.0354X0.0116*%
%ADD16R,0.0433X0.0551*%
%ADD17R,0.0866X0.0787*%
%ADD18R,0.0551X0.0433*%
%ADD19C,0.0100*%
%ADD20C,0.0080*%
%ADD21C,0.0591*%
%ADD22R,0.0591X0.0591*%
%ADD23C,0.0350*%
G36*
X026050Y030265D02*
X026004Y030246D01*
X026000Y030250D01*
X020150D01*
Y044800D01*
X026050D01*
Y030265D01*
D02*
G37*
%LPC*%
G36*
X025780Y044633D02*
X020500D01*
X020449Y044622D01*
X020406Y044594D01*
X020378Y044551D01*
X020367Y044500D01*
Y030500D01*
X020367Y030500D01*
X020367D01*
X020378Y030449D01*
X020406Y030406D01*
X020449Y030378D01*
X020500Y030367D01*
X025780D01*
X025831Y030378D01*
X025874Y030406D01*
X025902Y030449D01*
X025913Y030500D01*
Y044500D01*
X025902Y044551D01*
X025874Y044594D01*
X025831Y044622D01*
X025780Y044633D01*
D02*
G37*
%LPD*%
G36*
X020856Y035906D02*
X020899Y035878D01*
X020950Y035867D01*
X023145D01*
X023217Y035795D01*
Y031450D01*
X023228Y031399D01*
X023256Y031356D01*
X023256Y031356D01*
X023256Y031356D01*
X023506Y031106D01*
X023506Y031106D01*
X023506D01*
X023506Y031106D01*
X023506D01*
X023506Y031106D01*
Y031106D01*
Y031106D01*
D01*
D01*
X023506D01*
Y031106D01*
X023549Y031078D01*
X023600Y031067D01*
X024525D01*
Y030975D01*
X025275D01*
Y031725D01*
X024525D01*
Y031333D01*
X023655D01*
X023483Y031505D01*
Y033465D01*
X023529Y033484D01*
X023706Y033306D01*
X023749Y033278D01*
X023800Y033267D01*
X025200D01*
X025251Y033278D01*
X025294Y033306D01*
X025294Y033306D01*
X025294Y033306D01*
X025401Y033414D01*
X025448Y033395D01*
Y033021D01*
X025098Y032671D01*
X025089Y032678D01*
X024998Y032716D01*
X024900Y032729D01*
X024802Y032716D01*
X024711Y032678D01*
X024632Y032618D01*
X024572Y032539D01*
X024534Y032448D01*
X024521Y032350D01*
X024534Y032252D01*
X024572Y032161D01*
X024632Y032082D01*
X024711Y032022D01*
X024802Y031984D01*
X024900Y031971D01*
X024998Y031984D01*
X025089Y032022D01*
X025168Y032082D01*
X025228Y032161D01*
X025266Y032252D01*
X025279Y032350D01*
X025266Y032448D01*
X025253Y032480D01*
X025601Y032828D01*
X025647Y032809D01*
Y030633D01*
X020633D01*
Y036065D01*
X020679Y036084D01*
X020856Y035906D01*
D02*
G37*
G36*
X023287Y038034D02*
Y036275D01*
X023145Y036133D01*
X022285D01*
X022266Y036179D01*
X022605Y036517D01*
X022637Y036500D01*
X023150D01*
X023140Y036549D01*
X023117Y036585D01*
X023184Y036652D01*
X023212Y036695D01*
X023223Y036745D01*
Y038052D01*
X023246Y038061D01*
X023287Y038034D01*
D02*
G37*
G36*
X025015Y037798D02*
X025025Y037749D01*
X024840Y037564D01*
X024087D01*
Y036617D01*
X025113D01*
Y037491D01*
X025221Y037599D01*
X025267Y037580D01*
Y033655D01*
X025145Y033533D01*
X023855D01*
X023733Y033655D01*
Y035915D01*
X023779Y035934D01*
X023906Y035806D01*
X023949Y035778D01*
X024000Y035767D01*
X024047Y035777D01*
X024087D01*
Y035436D01*
X024467D01*
Y034894D01*
X024451Y034890D01*
X024366Y034834D01*
X024310Y034750D01*
X024300Y034700D01*
X024800D01*
X024790Y034750D01*
X024734Y034834D01*
X024733Y034835D01*
Y035436D01*
X025113D01*
Y035859D01*
X024600D01*
Y035909D01*
X024550D01*
Y036383D01*
X024087D01*
Y036066D01*
X024041Y036047D01*
X023983Y036105D01*
Y037545D01*
X024055Y037617D01*
X024750D01*
X024801Y037628D01*
X024844Y037656D01*
X024994Y037807D01*
X025015Y037798D01*
D02*
G37*
G36*
X021331Y036751D02*
X021374Y036722D01*
X021425Y036712D01*
X022359D01*
X022378Y036666D01*
X021845Y036133D01*
X021005D01*
X020813Y036325D01*
Y036894D01*
X021187D01*
X021331Y036751D01*
D02*
G37*
G36*
X022307Y038404D02*
Y038372D01*
Y038176D01*
X022412D01*
Y037847D01*
X022416Y037827D01*
X022385Y037788D01*
X021749D01*
X021408Y038129D01*
X021427Y038176D01*
X021837D01*
Y038372D01*
Y038402D01*
X021849Y038412D01*
X021929D01*
Y037977D01*
X022215D01*
Y038412D01*
X022298D01*
X022307Y038404D01*
D02*
G37*
G36*
X022425Y043257D02*
Y043067D01*
X022417Y043026D01*
Y042788D01*
X022422Y042763D01*
X022387Y042728D01*
X022362Y042733D01*
X022124D01*
X022070Y042722D01*
X022024Y042692D01*
X021994Y042646D01*
X021983Y042592D01*
X021994Y042538D01*
X022024Y042494D01*
X021994Y042449D01*
X021983Y042395D01*
X021994Y042341D01*
X022024Y042297D01*
X021994Y042252D01*
X021983Y042198D01*
X021994Y042145D01*
X022024Y042100D01*
X021994Y042055D01*
X021983Y042002D01*
X021994Y041948D01*
X022024Y041903D01*
X021994Y041859D01*
X021983Y041805D01*
X021994Y041751D01*
X022024Y041706D01*
X021994Y041662D01*
X021983Y041608D01*
X021994Y041554D01*
X022024Y041508D01*
X022070Y041478D01*
X022124Y041467D01*
X022362D01*
X022387Y041472D01*
X022422Y041437D01*
X022417Y041412D01*
Y041174D01*
X022428Y041120D01*
X022458Y041074D01*
X022504Y041044D01*
X022558Y041033D01*
X022576Y041037D01*
X022614Y041005D01*
Y040908D01*
X022589Y040883D01*
X021605D01*
X021433Y041055D01*
Y041982D01*
X021484Y042016D01*
X021540Y042101D01*
X021560Y042200D01*
X021540Y042299D01*
X021484Y042384D01*
X021400Y042440D01*
X021300Y042460D01*
X021200Y042440D01*
X021116Y042384D01*
X021060Y042299D01*
X021042Y042212D01*
X020993Y042216D01*
Y043175D01*
X021105Y043287D01*
X022395D01*
X022425Y043257D01*
D02*
G37*
G36*
X025647Y042742D02*
X025400D01*
Y042445D01*
X025300D01*
Y042742D01*
X024994D01*
D01*
D01*
X024994Y042742D01*
X024956D01*
Y042742D01*
X024650D01*
Y042445D01*
X024550D01*
Y042742D01*
X024397D01*
X024378Y042788D01*
X024694Y043104D01*
X024694Y043104D01*
X024694Y043104D01*
X024722Y043147D01*
X024733Y043197D01*
Y043745D01*
X024789Y043802D01*
X024850Y043790D01*
X024950Y043810D01*
X025034Y043866D01*
X025090Y043951D01*
X025110Y044050D01*
X025090Y044149D01*
X025034Y044234D01*
X024950Y044290D01*
X024850Y044310D01*
X024750Y044290D01*
X024666Y044234D01*
X024610Y044149D01*
X024590Y044050D01*
X024602Y043989D01*
X024506Y043894D01*
X024478Y043851D01*
X024467Y043800D01*
Y043252D01*
X024174Y042959D01*
X024128Y042978D01*
Y043394D01*
X024292D01*
Y043700D01*
X023995D01*
Y043750D01*
X023945D01*
Y044106D01*
X023913D01*
X023769Y044249D01*
X023726Y044278D01*
X023675Y044288D01*
X023134D01*
X023084Y044278D01*
X023041Y044249D01*
X022937Y044146D01*
X022918Y044159D01*
X022869Y044169D01*
Y043919D01*
X022819D01*
Y043869D01*
X022569D01*
X022578Y043819D01*
X022607Y043777D01*
X022583Y043733D01*
X020930D01*
X020879Y043722D01*
X020836Y043694D01*
X020679Y043536D01*
X020633Y043555D01*
Y044367D01*
X025647D01*
Y042742D01*
D02*
G37*
G36*
X021060Y042101D02*
X021116Y042016D01*
X021167Y041982D01*
Y041000D01*
X021178Y040949D01*
X021206Y040906D01*
X021206Y040906D01*
X021206D01*
Y040906D01*
X021206Y040906D01*
X021456Y040656D01*
X021456Y040656D01*
X021456D01*
X021456Y040656D01*
X021456D01*
X021456Y040656D01*
Y040656D01*
Y040656D01*
D01*
D01*
X021456D01*
Y040656D01*
X021499Y040628D01*
X021550Y040617D01*
X021908D01*
Y040606D01*
X021908D01*
Y040433D01*
X021468D01*
X021434Y040484D01*
X021349Y040540D01*
X021250Y040560D01*
X021151Y040540D01*
X021066Y040484D01*
X021040Y040445D01*
X020993Y040460D01*
Y042184D01*
X021042Y042188D01*
X021060Y042101D01*
D02*
G37*
G36*
X024244Y041558D02*
Y041558D01*
X024244Y041558D01*
X024956D01*
Y041558D01*
X024956D01*
X024956Y041558D01*
X024994D01*
Y041558D01*
X025647D01*
Y040931D01*
X025601Y040912D01*
X025357Y041157D01*
X025317Y041183D01*
X025270Y041192D01*
X024530D01*
X024483Y041183D01*
X024443Y041157D01*
X024209Y040922D01*
X024143D01*
X024096Y040913D01*
X024041Y040995D01*
X024040Y040999D01*
X023984Y041084D01*
X023900Y041140D01*
X023850Y041150D01*
Y040900D01*
X023750D01*
Y041160D01*
X023687Y041173D01*
X023683Y041176D01*
Y041412D01*
X023678Y041437D01*
X023713Y041472D01*
X023738Y041467D01*
X023976D01*
X024017Y041475D01*
X024058D01*
X024109Y041485D01*
X024152Y041514D01*
X024210Y041572D01*
X024244Y041558D01*
D02*
G37*
%LPC*%
G36*
X021725Y031825D02*
X021400D01*
Y031500D01*
X021725D01*
Y031825D01*
D02*
G37*
G36*
X021300D02*
X020975D01*
Y031500D01*
X021300D01*
Y031825D01*
D02*
G37*
G36*
Y031400D02*
X020975D01*
Y031075D01*
X021300D01*
Y031400D01*
D02*
G37*
G36*
X021725D02*
X021400D01*
Y031075D01*
X021725D01*
Y031400D01*
D02*
G37*
G36*
X021350Y032829D02*
X021252Y032816D01*
X021161Y032778D01*
X021082Y032718D01*
X021022Y032639D01*
X020984Y032548D01*
X020971Y032450D01*
X020984Y032352D01*
X021022Y032261D01*
X021082Y032182D01*
X021161Y032122D01*
X021252Y032084D01*
X021350Y032071D01*
X021448Y032084D01*
X021539Y032122D01*
X021618Y032182D01*
X021678Y032261D01*
X021716Y032352D01*
X021729Y032450D01*
X021716Y032548D01*
X021678Y032639D01*
X021618Y032718D01*
X021539Y032778D01*
X021448Y032816D01*
X021350Y032829D01*
D02*
G37*
G36*
X023150Y036400D02*
X022950D01*
Y036200D01*
X022999Y036210D01*
X023084Y036266D01*
X023140Y036351D01*
X023150Y036400D01*
D02*
G37*
G36*
X024292Y044106D02*
X024045D01*
Y043800D01*
X024292D01*
Y044106D01*
D02*
G37*
G36*
X022769Y044169D02*
X022719Y044159D01*
X022635Y044103D01*
X022578Y044018D01*
X022569Y043969D01*
X022769D01*
Y044169D01*
D02*
G37*
G36*
X022850Y036400D02*
X022650D01*
X022660Y036351D01*
X022716Y036266D01*
X022801Y036210D01*
X022850Y036200D01*
Y036400D01*
D02*
G37*
G36*
X024500Y034600D02*
X024300D01*
X024310Y034550D01*
X024366Y034466D01*
X024451Y034410D01*
X024500Y034400D01*
Y034600D01*
D02*
G37*
G36*
X024800D02*
X024600D01*
Y034400D01*
X024650Y034410D01*
X024734Y034466D01*
X024790Y034550D01*
X024800Y034600D01*
D02*
G37*
G36*
X025113Y036383D02*
X024650D01*
Y035959D01*
X025113D01*
Y036383D01*
D02*
G37*
%LPD*%
D10*
X023950Y039050D02*
D03*
Y038853D02*
D03*
Y038656D02*
D03*
Y038459D02*
D03*
X024954D02*
D03*
Y038656D02*
D03*
Y038853D02*
D03*
Y039050D02*
D03*
D11*
X024157Y038253D02*
D03*
X024354D02*
D03*
X024550D02*
D03*
X024747D02*
D03*
Y039257D02*
D03*
X024550D02*
D03*
X024354D02*
D03*
X024157D02*
D03*
D12*
X021600Y038313D02*
D03*
Y038509D02*
D03*
Y038706D02*
D03*
Y038903D02*
D03*
Y039100D02*
D03*
X022545Y038313D02*
D03*
Y038509D02*
D03*
Y038706D02*
D03*
Y038903D02*
D03*
Y039100D02*
D03*
D13*
X022072Y039179D02*
D03*
Y038234D02*
D03*
D14*
X022558Y042907D02*
D03*
X022755D02*
D03*
X022952D02*
D03*
X023148D02*
D03*
X023345D02*
D03*
X023542D02*
D03*
Y041293D02*
D03*
X023345D02*
D03*
X023148D02*
D03*
X022952D02*
D03*
X022755D02*
D03*
X022558D02*
D03*
D15*
X023857Y042592D02*
D03*
Y042395D02*
D03*
Y042198D02*
D03*
Y042002D02*
D03*
Y041805D02*
D03*
Y041608D02*
D03*
X022243D02*
D03*
Y041805D02*
D03*
Y042002D02*
D03*
Y042198D02*
D03*
Y042395D02*
D03*
Y042592D02*
D03*
D16*
X021695Y037250D02*
D03*
X021105D02*
D03*
X024405Y040400D02*
D03*
X024995D02*
D03*
X022795Y040250D02*
D03*
X022205D02*
D03*
X023995Y043750D02*
D03*
X023405D02*
D03*
D17*
X024600Y037091D02*
D03*
Y035909D02*
D03*
D18*
X025350Y042445D02*
D03*
Y041855D02*
D03*
X024600Y042445D02*
D03*
Y041855D02*
D03*
D19*
X023411Y039257D02*
X024157D01*
X022545Y038903D02*
X022803D01*
X023050Y039150D01*
X023002Y038848D02*
X023220Y039065D01*
X022763Y038509D02*
X023090Y038182D01*
X022545Y038509D02*
X022763D01*
X022545Y037847D02*
Y038313D01*
Y037847D02*
X022910Y037482D01*
X021283Y038313D02*
X021600D01*
X021220Y038250D02*
X021283Y038313D01*
X021220Y038130D02*
Y038250D01*
X021106Y038706D02*
X021600D01*
X021040Y038640D02*
X021106Y038706D01*
X021040Y037810D02*
Y038640D01*
X021590Y038893D02*
X021600Y038903D01*
X021029Y038893D02*
X021590D01*
X020860Y038725D02*
X021029Y038893D01*
X020860Y037495D02*
Y038725D01*
X023148Y040502D02*
X023300Y040350D01*
X023148Y040502D02*
Y041293D01*
X024995Y040250D02*
Y040400D01*
Y040145D02*
Y040250D01*
Y040400D02*
X025045Y040195D01*
X024954Y040209D02*
X024995Y040250D01*
X024622Y039772D02*
X024995Y040145D01*
Y040250D02*
X025045Y040300D01*
X024923Y039042D02*
Y039087D01*
X024936Y039100D01*
Y039457D01*
X024622Y039772D02*
X024936Y039457D01*
X025045Y040195D02*
Y040300D01*
X020860Y038725D02*
Y039260D01*
X021050Y039450D01*
X021200Y039600D01*
X022900D01*
X024954Y037954D02*
Y038459D01*
X024629Y038000D02*
X024739Y038110D01*
Y038245D02*
X024747Y038253D01*
X024739Y038110D02*
Y038245D01*
X024747Y038253D02*
X024750Y038250D01*
X024739Y039264D02*
Y039399D01*
Y039264D02*
X024747Y039257D01*
X024389Y039750D02*
X024739Y039399D01*
X023900Y039750D02*
X024389D01*
X023505Y038559D02*
X023605Y038459D01*
X023950D01*
X023505Y038559D02*
X023800Y038853D01*
X023950D01*
X023420Y036220D02*
Y038107D01*
X023013Y038513D02*
X023420Y038107D01*
X023013Y038513D02*
Y038604D01*
X023459Y039050D01*
X022819Y043919D02*
X022897D01*
X023134Y044156D01*
X023675D01*
X023995Y043835D01*
Y043750D02*
Y043835D01*
X023857Y042592D02*
X023995Y042730D01*
Y043750D01*
X024600Y042445D02*
X025350D01*
X024600Y041855D02*
X025350D01*
X022900Y039600D02*
X023050Y039450D01*
Y039150D02*
Y039450D01*
X023947Y038850D02*
X023950Y038853D01*
X023941Y038450D02*
X023950Y038459D01*
X024600Y040900D02*
X025200D01*
X025400Y040700D01*
X024455Y040755D02*
X024600Y040900D01*
X024455Y040300D02*
Y040755D01*
X023345Y043691D02*
X023405Y043750D01*
X023345Y042907D02*
Y043691D01*
X023459Y039050D02*
X023950D01*
X022755Y042907D02*
Y043445D01*
X022600Y043600D02*
X022755Y043445D01*
X020680Y043350D02*
X020930Y043600D01*
X022600D01*
X020680Y036270D02*
X020950Y036000D01*
X022558Y042907D02*
Y043312D01*
X022450Y043420D02*
X022558Y043312D01*
X020860Y043230D02*
X021050Y043420D01*
X022450D01*
X020860Y039890D02*
Y043230D01*
Y039890D02*
X020970Y039780D01*
X023200Y036000D02*
X023350Y035850D01*
Y031450D02*
Y035850D01*
Y031450D02*
X023600Y031200D01*
X024750D01*
X024900Y031350D01*
X025400Y033600D02*
Y040700D01*
X025200Y033400D02*
X025400Y033600D01*
X023800Y033400D02*
X025200D01*
X023600Y033600D02*
X023800Y033400D01*
X023600Y033600D02*
Y037450D01*
X023700Y038000D02*
X024629D01*
X023600Y037900D02*
X023700Y038000D01*
X023600Y037450D02*
Y037900D01*
X024750Y037750D02*
X024954Y037954D01*
X024000Y037750D02*
X024750D01*
X023850Y037600D02*
X024000Y037750D01*
X023850Y036050D02*
Y037600D01*
Y036050D02*
X024000Y035900D01*
X024009Y035909D01*
X024600D01*
X021040Y037810D02*
X021100Y037750D01*
X023857Y041608D02*
X024058D01*
X024200Y041750D01*
X024495D01*
X024450Y041705D02*
X024495Y041750D01*
X024194Y042175D02*
X024515Y041855D01*
X024194Y042175D02*
Y042792D01*
X024600Y043197D01*
Y043800D01*
X024850Y044050D01*
X024495Y041750D02*
X024600Y041855D01*
X024600Y041855D01*
X024515Y041855D02*
X024600D01*
X024600D01*
X021900Y036000D02*
X023200D01*
X023420Y036220D01*
X020860Y037495D02*
X021105Y037250D01*
X021100Y037750D02*
X021281D01*
X021695Y037335D01*
Y037250D02*
Y037335D01*
X020680Y036270D02*
Y043350D01*
X021695Y037250D02*
X022350D01*
X024600Y034700D02*
Y035909D01*
X024550Y034650D02*
X024600Y034700D01*
X022730Y037093D02*
Y037407D01*
X022482Y036844D02*
X022730Y037093D01*
X021425Y036844D02*
X022482D01*
X021105Y037165D02*
X021425Y036844D01*
X021105Y037165D02*
Y037250D01*
X022900Y036450D02*
X022910Y036460D01*
X021220Y038130D02*
X021694Y037656D01*
X022482D01*
X022730Y037407D01*
X020950Y036000D02*
X021900D01*
X022910Y037010D02*
Y037482D01*
X021900Y036000D02*
X022910Y037010D01*
X023090Y036745D02*
Y038182D01*
X022900Y036555D02*
X023090Y036745D01*
X022900Y036450D02*
Y036555D01*
X023148Y041293D02*
X023148Y041293D01*
X022747Y041285D02*
X022755Y041293D01*
X022944Y041285D02*
X022952Y041293D01*
X023141Y041285D02*
X023148Y041293D01*
X023141Y041285D02*
X023141Y041285D01*
X023148Y041293D01*
X023141Y041285D02*
Y041285D01*
X023220Y039065D02*
X023411Y039257D01*
X023148Y041293D02*
Y041293D01*
X021250Y040300D02*
X022155D01*
X022205Y040250D01*
X023141Y041285D02*
X023148Y041293D01*
X022952Y040406D02*
Y041293D01*
X022795Y040250D02*
X022952Y040406D01*
X022747Y040853D02*
Y041285D01*
X021550Y040750D02*
X022650D01*
X021300Y041000D02*
X021550Y040750D01*
X021300Y041000D02*
Y042200D01*
X022650Y040750D02*
Y040756D01*
X022747Y040853D01*
D20*
X022861Y038706D02*
X023002Y038848D01*
X022545Y038706D02*
X022861D01*
X023668Y040900D02*
X023800D01*
X023468Y040700D02*
X023668Y040900D01*
X023468Y040700D02*
Y040996D01*
Y040599D02*
Y040700D01*
X023300Y039900D02*
X023595Y040195D01*
Y040472D01*
X023468Y040599D02*
X023595Y040472D01*
X024285Y040825D02*
X024530Y041070D01*
X024285Y040800D02*
Y040825D01*
X024143Y040800D02*
X024285D01*
X024068Y040725D02*
X024143Y040800D01*
X024530Y041070D02*
X025270D01*
X024900Y032350D02*
X024950D01*
X025570Y032970D01*
Y040770D01*
X025270Y041070D02*
X025570Y040770D01*
X023747Y040120D02*
X023916D01*
X024068Y040272D01*
Y040725D01*
X025095Y039729D02*
X025163Y039662D01*
Y038941D02*
Y039662D01*
X025092Y038871D02*
X025163Y038941D01*
X024972Y038871D02*
X025092D01*
X024954Y038853D02*
X024972Y038871D01*
X024600Y037091D02*
Y037151D01*
X025163Y037714D01*
Y038568D01*
X025092Y038639D02*
X025163Y038568D01*
X024972Y038639D02*
X025092D01*
X024954Y038656D02*
X024972Y038639D01*
X023327Y041275D02*
X023345Y041293D01*
X023530Y039903D02*
X023747Y040120D01*
X023220Y039065D02*
Y039520D01*
X020970Y039780D02*
X022960D01*
X023220Y039520D01*
X023530Y039375D02*
Y039903D01*
X023411Y039257D02*
X023530Y039375D01*
X023345Y041293D02*
X023363Y041275D01*
Y041101D02*
Y041275D01*
Y041101D02*
X023468Y040996D01*
X023145Y039900D02*
X023300D01*
X022795Y040250D02*
X023145Y039900D01*
D21*
X024900Y032350D02*
D03*
X021350Y032450D02*
D03*
D22*
X024900Y031350D02*
D03*
X021350Y031450D02*
D03*
D23*
X023800Y040900D02*
D03*
X023300Y040350D02*
D03*
X025095Y039729D02*
D03*
X021050Y039450D02*
D03*
X023505Y038559D02*
D03*
X022819Y043919D02*
D03*
X023900Y039750D02*
D03*
X024850Y044050D02*
D03*
X022350Y037250D02*
D03*
X024550Y034650D02*
D03*
X022900Y036450D02*
D03*
X021250Y040300D02*
D03*
X021300Y042200D02*
D03*
M02*
