%FSAX24Y24*%
%MOIN*%
G70*
G01*
G75*
G04 Layer_Color=2752767*
%ADD10R,0.0177X0.0114*%
%ADD11R,0.0114X0.0177*%
%ADD12R,0.0315X0.0114*%
%ADD13R,0.0126X0.0354*%
%ADD14O,0.0116X0.0354*%
%ADD15O,0.0354X0.0116*%
%ADD16R,0.0433X0.0551*%
%ADD17R,0.0866X0.0787*%
%ADD18R,0.0551X0.0433*%
%ADD19C,0.0080*%
%ADD20C,0.0591*%
%ADD21R,0.0591X0.0591*%
%ADD22C,0.0350*%
%ADD23C,0.0100*%
%ADD24R,0.0629X0.0621*%
%ADD25R,0.0449X0.0425*%
%ADD26R,0.1064X0.1062*%
%ADD27C,0.0050*%
%ADD28C,0.0067*%
D27*
X024700Y032150D02*
Y032550D01*
X025100D01*
Y032150D01*
X024700D01*
Y031150D02*
Y031550D01*
X025100D01*
Y031150D01*
X024700D01*
X021150Y032250D02*
Y032650D01*
X021550D01*
Y032250D01*
X021150D01*
Y031250D02*
Y031650D01*
X021550D01*
Y031250D01*
X021150D01*
D28*
X024000Y040900D02*
G03*
X024000Y040900I-000200J000000D01*
G01*
X023500Y040350D02*
G03*
X023500Y040350I-000200J000000D01*
G01*
X025295Y039729D02*
G03*
X025295Y039729I-000200J000000D01*
G01*
X021250Y039450D02*
G03*
X021250Y039450I-000200J000000D01*
G01*
X023705Y038559D02*
G03*
X023705Y038559I-000200J000000D01*
G01*
X024100Y039750D02*
G03*
X024100Y039750I-000200J000000D01*
G01*
X022550Y037250D02*
G03*
X022550Y037250I-000200J000000D01*
G01*
X024750Y034650D02*
G03*
X024750Y034650I-000200J000000D01*
G01*
X023100Y036450D02*
G03*
X023100Y036450I-000200J000000D01*
G01*
X021450Y040300D02*
G03*
X021450Y040300I-000200J000000D01*
G01*
X021500Y042200D02*
G03*
X021500Y042200I-000200J000000D01*
G01*
X025150Y043360D02*
G03*
X025150Y043360I-000200J000000D01*
G01*
X022610Y043930D02*
G03*
X022610Y043930I-000200J000000D01*
G01*
M02*
