%FSAX24Y24*%
%MOIN*%
G70*
G01*
G75*
%ADD10R,0.0551X0.0433*%
%ADD11R,0.0433X0.0551*%
%ADD12R,0.0866X0.0787*%
%ADD13O,0.0354X0.0116*%
%ADD14O,0.0116X0.0354*%
%ADD15R,0.0126X0.0354*%
%ADD16R,0.0315X0.0114*%
%ADD17R,0.0114X0.0177*%
%ADD18R,0.0177X0.0114*%
%ADD19C,0.0100*%
%ADD20C,0.0080*%
%ADD21R,0.0591X0.0591*%
%ADD22C,0.0591*%
%ADD23C,0.0350*%
D10*
X024600Y041855D02*
D03*
Y042445D02*
D03*
X025350Y041855D02*
D03*
Y042445D02*
D03*
D11*
X023405Y043750D02*
D03*
X023995D02*
D03*
X022205Y040250D02*
D03*
X022795D02*
D03*
X024995Y040400D02*
D03*
X024405D02*
D03*
X021105Y037250D02*
D03*
X021695D02*
D03*
D12*
X024600Y035909D02*
D03*
Y037091D02*
D03*
D13*
X022243Y042592D02*
D03*
Y042395D02*
D03*
Y042198D02*
D03*
Y042002D02*
D03*
Y041805D02*
D03*
Y041608D02*
D03*
X023857D02*
D03*
Y041805D02*
D03*
Y042002D02*
D03*
Y042198D02*
D03*
Y042395D02*
D03*
Y042592D02*
D03*
D14*
X022558Y041293D02*
D03*
X022755D02*
D03*
X022952D02*
D03*
X023148D02*
D03*
X023345D02*
D03*
X023542D02*
D03*
Y042907D02*
D03*
X023345D02*
D03*
X023148D02*
D03*
X022952D02*
D03*
X022755D02*
D03*
X022558D02*
D03*
D15*
X022072Y038234D02*
D03*
Y039179D02*
D03*
D16*
X022545Y039100D02*
D03*
Y038903D02*
D03*
Y038706D02*
D03*
Y038509D02*
D03*
Y038313D02*
D03*
X021600Y039100D02*
D03*
Y038903D02*
D03*
Y038706D02*
D03*
Y038509D02*
D03*
Y038313D02*
D03*
D17*
X024157Y039257D02*
D03*
X024354D02*
D03*
X024550D02*
D03*
X024747D02*
D03*
Y038253D02*
D03*
X024550D02*
D03*
X024354D02*
D03*
X024157D02*
D03*
D18*
X024954Y039050D02*
D03*
Y038853D02*
D03*
Y038656D02*
D03*
Y038459D02*
D03*
X023950D02*
D03*
Y038656D02*
D03*
Y038853D02*
D03*
Y039050D02*
D03*
D21*
X021350Y031450D02*
D03*
X024900Y031350D02*
D03*
D22*
X021350Y032450D02*
D03*
X024900Y032350D02*
D03*
M02*
