%FSAX24Y24*%
%MOIN*%
G70*
G01*
G75*
G04 Layer_Physical_Order=2*
G04 Layer_Color=16711680*
%ADD10R,0.0177X0.0114*%
%ADD11R,0.0114X0.0177*%
%ADD12R,0.0315X0.0114*%
%ADD13R,0.0126X0.0354*%
%ADD14O,0.0116X0.0354*%
%ADD15O,0.0354X0.0116*%
%ADD16R,0.0433X0.0551*%
%ADD17R,0.0866X0.0787*%
%ADD18R,0.0551X0.0433*%
%ADD19C,0.0100*%
%ADD20C,0.0080*%
%ADD21C,0.0591*%
%ADD22R,0.0591X0.0591*%
%ADD23C,0.0350*%
G36*
X026050Y044800D02*
Y030200D01*
X020150D01*
Y044850D01*
X026000D01*
X026050Y044800D01*
D02*
G37*
%LPC*%
G36*
X025780Y044633D02*
X020500D01*
X020449Y044622D01*
X020406Y044594D01*
X020378Y044551D01*
X020367Y044500D01*
Y030500D01*
X020378Y030449D01*
X020406Y030406D01*
X020449Y030378D01*
X020500Y030367D01*
X025780D01*
X025831Y030378D01*
X025874Y030406D01*
X025902Y030449D01*
X025913Y030500D01*
Y044500D01*
X025902Y044551D01*
X025874Y044594D01*
X025831Y044622D01*
X025780Y044633D01*
D02*
G37*
%LPD*%
G36*
X021414Y044321D02*
X021206Y044114D01*
X021178Y044071D01*
X021167Y044020D01*
Y042418D01*
X021116Y042384D01*
X021060Y042299D01*
X021040Y042200D01*
X021060Y042101D01*
X021116Y042016D01*
X021200Y041960D01*
X021300Y041940D01*
X021400Y041960D01*
X021484Y042016D01*
X021540Y042101D01*
X021560Y042200D01*
X021540Y042299D01*
X021484Y042384D01*
X021433Y042418D01*
Y043965D01*
X021655Y044187D01*
X022676D01*
X022690Y044140D01*
X022635Y044103D01*
X022578Y044018D01*
X022569Y043969D01*
X023069D01*
X023059Y044018D01*
X023003Y044103D01*
X022947Y044140D01*
X022962Y044187D01*
X024578D01*
X024610Y044149D01*
X024590Y044050D01*
X024610Y043951D01*
X024666Y043866D01*
X024750Y043810D01*
X024850Y043790D01*
X024950Y043810D01*
X025034Y043866D01*
X025090Y043951D01*
X025108Y044041D01*
X025255Y044187D01*
X025467D01*
Y038081D01*
X025423Y038057D01*
X025401Y038072D01*
X025350Y038083D01*
X024169D01*
X023753Y038498D01*
X023765Y038559D01*
X023753Y038619D01*
X023994Y038860D01*
X024007Y038880D01*
X024055Y038865D01*
Y038447D01*
X024061Y038415D01*
X024079Y038389D01*
X024105Y038371D01*
X024136Y038365D01*
X024766D01*
X024797Y038371D01*
X024823Y038389D01*
X024841Y038415D01*
X024847Y038447D01*
Y039068D01*
X024841Y039099D01*
X024823Y039125D01*
X024797Y039143D01*
X024766Y039149D01*
X024136D01*
X024105Y039143D01*
X024079Y039125D01*
X024033Y039156D01*
Y039532D01*
X024084Y039566D01*
X024140Y039650D01*
X024160Y039750D01*
X024140Y039850D01*
X024084Y039934D01*
X024000Y039990D01*
X023900Y040010D01*
X023800Y039990D01*
X023716Y039934D01*
X023660Y039850D01*
X023640Y039750D01*
X023652Y039689D01*
X023545Y039583D01*
X021268D01*
X021234Y039634D01*
X021149Y039690D01*
X021050Y039710D01*
X020951Y039690D01*
X020866Y039634D01*
X020810Y039550D01*
X020790Y039450D01*
X020810Y039351D01*
X020866Y039266D01*
X020951Y039210D01*
X021050Y039190D01*
X021149Y039210D01*
X021234Y039266D01*
X021268Y039317D01*
X023600D01*
X023651Y039328D01*
X023694Y039356D01*
X023694Y039356D01*
X023694Y039356D01*
X023721Y039384D01*
X023767Y039365D01*
Y039008D01*
X023566Y038807D01*
X023505Y038819D01*
X023406Y038799D01*
X023322Y038743D01*
X023265Y038658D01*
X023245Y038559D01*
X023265Y038459D01*
X023322Y038375D01*
X023406Y038319D01*
X023505Y038299D01*
X023566Y038311D01*
X023978Y037899D01*
X023978Y037899D01*
X024006Y037856D01*
X024049Y037828D01*
X024100Y037817D01*
X025295D01*
X025467Y037645D01*
Y030985D01*
X025295Y030813D01*
X020855D01*
X020813Y030855D01*
Y032275D01*
X020855Y032317D01*
X020999D01*
X021022Y032261D01*
X021082Y032182D01*
X021161Y032122D01*
X021252Y032084D01*
X021350Y032071D01*
X021448Y032084D01*
X021539Y032122D01*
X021618Y032182D01*
X021678Y032261D01*
X021716Y032352D01*
X021729Y032450D01*
X021716Y032548D01*
X021678Y032639D01*
X021618Y032718D01*
X021539Y032778D01*
X021448Y032816D01*
X021350Y032829D01*
X021252Y032816D01*
X021161Y032778D01*
X021082Y032718D01*
X021022Y032639D01*
X020999Y032583D01*
X020800D01*
X020749Y032572D01*
X020706Y032544D01*
X020679Y032516D01*
X020633Y032535D01*
Y044367D01*
X021395D01*
X021414Y044321D01*
D02*
G37*
%LPC*%
G36*
X022850Y036400D02*
X022650D01*
X022660Y036351D01*
X022716Y036266D01*
X022801Y036210D01*
X022850Y036200D01*
Y036400D01*
D02*
G37*
G36*
X024500Y034900D02*
X024451Y034890D01*
X024366Y034834D01*
X024310Y034750D01*
X024300Y034700D01*
X024500D01*
Y034900D01*
D02*
G37*
G36*
X024600D02*
Y034700D01*
X024800D01*
X024790Y034750D01*
X024734Y034834D01*
X024650Y034890D01*
X024600Y034900D01*
D02*
G37*
G36*
X022950Y036700D02*
Y036500D01*
X023150D01*
X023140Y036549D01*
X023084Y036634D01*
X022999Y036690D01*
X022950Y036700D01*
D02*
G37*
G36*
X022850D02*
X022801Y036690D01*
X022716Y036634D01*
X022660Y036549D01*
X022650Y036500D01*
X022850D01*
Y036700D01*
D02*
G37*
G36*
X023150Y036400D02*
X022950D01*
Y036200D01*
X022999Y036210D01*
X023084Y036266D01*
X023140Y036351D01*
X023150Y036400D01*
D02*
G37*
G36*
X024800Y034600D02*
X024600D01*
Y034400D01*
X024650Y034410D01*
X024734Y034466D01*
X024790Y034550D01*
X024800Y034600D01*
D02*
G37*
G36*
X021725Y031400D02*
X021400D01*
Y031075D01*
X021725D01*
Y031400D01*
D02*
G37*
G36*
X021300D02*
X020975D01*
Y031075D01*
X021300D01*
Y031400D01*
D02*
G37*
G36*
X025275Y031725D02*
X024525D01*
Y030975D01*
X025275D01*
Y031725D01*
D02*
G37*
G36*
X021300Y031825D02*
X020975D01*
Y031500D01*
X021300D01*
Y031825D01*
D02*
G37*
G36*
X024500Y034600D02*
X024300D01*
X024310Y034550D01*
X024366Y034466D01*
X024451Y034410D01*
X024500Y034400D01*
Y034600D01*
D02*
G37*
G36*
X024900Y032729D02*
X024802Y032716D01*
X024711Y032678D01*
X024632Y032618D01*
X024572Y032539D01*
X024534Y032448D01*
X024521Y032350D01*
X024534Y032252D01*
X024572Y032161D01*
X024632Y032082D01*
X024711Y032022D01*
X024802Y031984D01*
X024900Y031971D01*
X024998Y031984D01*
X025089Y032022D01*
X025168Y032082D01*
X025228Y032161D01*
X025266Y032252D01*
X025279Y032350D01*
X025266Y032448D01*
X025228Y032539D01*
X025168Y032618D01*
X025089Y032678D01*
X024998Y032716D01*
X024900Y032729D01*
D02*
G37*
G36*
X021725Y031825D02*
X021400D01*
Y031500D01*
X021725D01*
Y031825D01*
D02*
G37*
G36*
X022300Y037200D02*
X022100D01*
X022110Y037150D01*
X022166Y037066D01*
X022250Y037010D01*
X022300Y037000D01*
Y037200D01*
D02*
G37*
G36*
X024050Y040850D02*
X023850D01*
Y040650D01*
X023900Y040660D01*
X023984Y040716D01*
X024040Y040800D01*
X024050Y040850D01*
D02*
G37*
G36*
X023750Y041150D02*
X023700Y041140D01*
X023616Y041084D01*
X023560Y040999D01*
X023550Y040950D01*
X023750D01*
Y041150D01*
D02*
G37*
G36*
X023300Y040610D02*
X023201Y040590D01*
X023116Y040534D01*
X023060Y040450D01*
X023040Y040350D01*
X023052Y040289D01*
X022945Y040183D01*
X021526D01*
X021494Y040221D01*
X021510Y040300D01*
X021490Y040399D01*
X021434Y040484D01*
X021349Y040540D01*
X021250Y040560D01*
X021151Y040540D01*
X021066Y040484D01*
X021010Y040399D01*
X020990Y040300D01*
X021010Y040201D01*
X021066Y040116D01*
X021151Y040060D01*
X021216Y040047D01*
X021306Y039956D01*
Y039956D01*
D01*
Y039956D01*
X021306Y039956D01*
D01*
D01*
X021306D01*
X021306Y039956D01*
Y039956D01*
Y039956D01*
D01*
D01*
X021306D01*
Y039956D01*
X021349Y039928D01*
X021400Y039917D01*
X023000D01*
X023051Y039928D01*
X023094Y039956D01*
X023094Y039956D01*
X023094Y039956D01*
X023239Y040102D01*
X023300Y040090D01*
X023400Y040110D01*
X023484Y040166D01*
X023540Y040251D01*
X023560Y040350D01*
X023540Y040450D01*
X023484Y040534D01*
X023400Y040590D01*
X023300Y040610D01*
D02*
G37*
G36*
X023750Y040850D02*
X023550D01*
X023560Y040800D01*
X023616Y040716D01*
X023700Y040660D01*
X023750Y040650D01*
Y040850D01*
D02*
G37*
G36*
X022769Y043869D02*
X022569D01*
X022578Y043819D01*
X022635Y043735D01*
X022719Y043678D01*
X022769Y043669D01*
Y043869D01*
D02*
G37*
G36*
X023069D02*
X022869D01*
Y043669D01*
X022918Y043678D01*
X023003Y043735D01*
X023059Y043819D01*
X023069Y043869D01*
D02*
G37*
G36*
X023850Y041150D02*
Y040950D01*
X024050D01*
X024040Y040999D01*
X023984Y041084D01*
X023900Y041140D01*
X023850Y041150D01*
D02*
G37*
G36*
X023582Y042714D02*
X022518D01*
X022487Y042708D01*
X022461Y042690D01*
X022443Y042663D01*
X022437Y042632D01*
Y041571D01*
X022443Y041539D01*
X022461Y041513D01*
X022487Y041495D01*
X022518Y041489D01*
X023582D01*
X023613Y041495D01*
X023640Y041513D01*
X023658Y041539D01*
X023664Y041571D01*
Y042632D01*
X023658Y042663D01*
X023640Y042690D01*
X023613Y042708D01*
X023582Y042714D01*
D02*
G37*
G36*
X022400Y037500D02*
Y037300D01*
X022600D01*
X022590Y037350D01*
X022534Y037434D01*
X022450Y037490D01*
X022400Y037500D01*
D02*
G37*
G36*
X022298Y039000D02*
X021849D01*
X021818Y038993D01*
X021792Y038976D01*
X021774Y038949D01*
X021768Y038918D01*
Y038494D01*
X021774Y038462D01*
X021792Y038436D01*
X021818Y038418D01*
X021849Y038412D01*
X022298D01*
X022329Y038418D01*
X022356Y038436D01*
X022373Y038462D01*
X022380Y038494D01*
Y038918D01*
X022373Y038949D01*
X022356Y038976D01*
X022329Y038993D01*
X022298Y039000D01*
D02*
G37*
G36*
X022600Y037200D02*
X022400D01*
Y037000D01*
X022450Y037010D01*
X022534Y037066D01*
X022590Y037150D01*
X022600Y037200D01*
D02*
G37*
G36*
X022300Y037500D02*
X022250Y037490D01*
X022166Y037434D01*
X022110Y037350D01*
X022100Y037300D01*
X022300D01*
Y037500D01*
D02*
G37*
G36*
X025045Y039980D02*
X024996Y039970D01*
X024911Y039913D01*
X024855Y039829D01*
X024845Y039779D01*
X025045D01*
Y039980D01*
D02*
G37*
G36*
X025145D02*
Y039779D01*
X025345D01*
X025335Y039829D01*
X025279Y039913D01*
X025194Y039970D01*
X025145Y039980D01*
D02*
G37*
G36*
X025045Y039679D02*
X024845D01*
X024855Y039630D01*
X024911Y039546D01*
X024996Y039489D01*
X025045Y039479D01*
Y039679D01*
D02*
G37*
G36*
X025345D02*
X025145D01*
Y039479D01*
X025194Y039489D01*
X025279Y039546D01*
X025335Y039630D01*
X025345Y039679D01*
D02*
G37*
%LPD*%
D19*
X021400Y040050D02*
X023000D01*
X023300Y040350D01*
X023505Y038559D02*
X023900Y038953D01*
Y039750D01*
X023600Y039450D02*
X023900Y039750D01*
X021050Y039450D02*
X023600D01*
X025350Y030680D02*
X025600Y030930D01*
X020800Y030680D02*
X025350D01*
X020680Y030800D02*
X020800Y030680D01*
X020680Y030800D02*
Y032330D01*
X020800Y032450D01*
X021350D01*
X025600Y030930D02*
Y037700D01*
X025350Y037950D02*
X025600Y037700D01*
X024100Y037950D02*
X025350D01*
X024100D02*
Y037964D01*
X023505Y038559D02*
X024100Y037964D01*
X024850Y044050D02*
X024930D01*
X025200Y044320D01*
X025530D02*
X025600Y044250D01*
Y037700D02*
Y044250D01*
X021250Y040200D02*
X021400Y040050D01*
X021250Y040200D02*
Y040300D01*
X025200Y044320D02*
X025530D01*
X021300Y044020D02*
X021600Y044320D01*
X021300Y042200D02*
Y044020D01*
X021600Y044320D02*
X025200D01*
D21*
X024900Y032350D02*
D03*
X021350Y032450D02*
D03*
D22*
X024900Y031350D02*
D03*
X021350Y031450D02*
D03*
D23*
X023800Y040900D02*
D03*
X023300Y040350D02*
D03*
X025095Y039729D02*
D03*
X021050Y039450D02*
D03*
X023505Y038559D02*
D03*
X022819Y043919D02*
D03*
X023900Y039750D02*
D03*
X024850Y044050D02*
D03*
X022350Y037250D02*
D03*
X024550Y034650D02*
D03*
X022900Y036450D02*
D03*
X021250Y040300D02*
D03*
X021300Y042200D02*
D03*
M02*
