%FSAX24Y24*%
%MOIN*%
G70*
G01*
G75*
G04 Layer_Color=2752767*
%ADD10R,0.0126X0.0354*%
%ADD11R,0.0315X0.0126*%
%ADD12R,0.0118X0.0177*%
%ADD13R,0.0177X0.0118*%
%ADD14O,0.0118X0.0354*%
%ADD15O,0.0354X0.0118*%
%ADD16R,0.0866X0.0787*%
%ADD17R,0.0433X0.0551*%
%ADD18R,0.0551X0.0433*%
%ADD19C,0.0100*%
%ADD20C,0.0080*%
%ADD21C,0.0591*%
%ADD22R,0.0591X0.0591*%
%ADD23C,0.0300*%
%ADD24C,0.0098*%
%ADD25C,0.0079*%
%ADD26R,0.0206X0.0434*%
%ADD27R,0.0395X0.0206*%
%ADD28R,0.0198X0.0257*%
%ADD29R,0.0257X0.0198*%
%ADD30O,0.0198X0.0434*%
%ADD31O,0.0434X0.0198*%
%ADD32R,0.0946X0.0867*%
%ADD33R,0.0513X0.0631*%
%ADD34R,0.0631X0.0513*%
%ADD35C,0.0671*%
%ADD36R,0.0671X0.0671*%
%ADD37C,0.0380*%
%ADD38C,0.0060*%
%ADD39C,0.0039*%
%ADD40R,0.0484X0.0444*%
%ADD41R,0.0681X0.0685*%
%ADD42R,0.1065X0.1069*%
%ADD43C,0.0050*%
%ADD44C,0.0067*%
D43*
X024700Y032150D02*
Y032550D01*
X025100D01*
Y032150D01*
X024700D01*
Y031150D02*
Y031550D01*
X025100D01*
Y031150D01*
X024700D01*
X021150Y032250D02*
Y032650D01*
X021550D01*
Y032250D01*
X021150D01*
Y031250D02*
Y031650D01*
X021550D01*
Y031250D01*
X021150D01*
D44*
X024000Y040900D02*
G03*
X024000Y040900I-000200J000000D01*
G01*
X023500Y040350D02*
G03*
X023500Y040350I-000200J000000D01*
G01*
X025295Y039729D02*
G03*
X025295Y039729I-000200J000000D01*
G01*
X021250Y039450D02*
G03*
X021250Y039450I-000200J000000D01*
G01*
X023705Y038559D02*
G03*
X023705Y038559I-000200J000000D01*
G01*
X023019Y043919D02*
G03*
X023019Y043919I-000200J000000D01*
G01*
X024100Y039750D02*
G03*
X024100Y039750I-000200J000000D01*
G01*
X025050Y044050D02*
G03*
X025050Y044050I-000200J000000D01*
G01*
X022550Y037250D02*
G03*
X022550Y037250I-000200J000000D01*
G01*
X024750Y034650D02*
G03*
X024750Y034650I-000200J000000D01*
G01*
X023100Y036450D02*
G03*
X023100Y036450I-000200J000000D01*
G01*
X021450Y040300D02*
G03*
X021450Y040300I-000200J000000D01*
G01*
X021500Y042200D02*
G03*
X021500Y042200I-000200J000000D01*
G01*
M02*
