%FSAX24Y24*%
%MOIN*%
G70*
G01*
G75*
G04 Layer_Color=8388736*
%ADD10R,0.0177X0.0114*%
%ADD11R,0.0114X0.0177*%
%ADD12R,0.0315X0.0114*%
%ADD13R,0.0126X0.0354*%
%ADD14O,0.0116X0.0354*%
%ADD15O,0.0354X0.0116*%
%ADD16R,0.0433X0.0551*%
%ADD17R,0.0866X0.0787*%
%ADD18R,0.0551X0.0433*%
%ADD19C,0.0100*%
%ADD20C,0.0080*%
%ADD21C,0.0591*%
%ADD22R,0.0591X0.0591*%
%ADD23C,0.0350*%
%ADD24C,0.0098*%
%ADD25C,0.0079*%
%ADD26R,0.0257X0.0194*%
%ADD27R,0.0194X0.0257*%
%ADD28R,0.0395X0.0194*%
%ADD29R,0.0206X0.0434*%
%ADD30O,0.0196X0.0434*%
%ADD31O,0.0434X0.0196*%
%ADD32R,0.0513X0.0631*%
%ADD33R,0.0946X0.0867*%
%ADD34R,0.0631X0.0513*%
%ADD35C,0.0671*%
%ADD36R,0.0671X0.0671*%
%ADD37C,0.0430*%
D26*
X023950Y039050D02*
D03*
Y038853D02*
D03*
Y038656D02*
D03*
Y038459D02*
D03*
X024954D02*
D03*
Y038656D02*
D03*
Y038853D02*
D03*
Y039050D02*
D03*
D27*
X024157Y038253D02*
D03*
X024354D02*
D03*
X024550D02*
D03*
X024747D02*
D03*
Y039257D02*
D03*
X024550D02*
D03*
X024354D02*
D03*
X024157D02*
D03*
D28*
X021600Y038313D02*
D03*
Y038509D02*
D03*
Y038706D02*
D03*
Y038903D02*
D03*
Y039100D02*
D03*
X022545Y038313D02*
D03*
Y038509D02*
D03*
Y038706D02*
D03*
Y038903D02*
D03*
Y039100D02*
D03*
D29*
X022072Y039179D02*
D03*
Y038234D02*
D03*
D30*
X022558Y042907D02*
D03*
X022755D02*
D03*
X022952D02*
D03*
X023148D02*
D03*
X023345D02*
D03*
X023542D02*
D03*
Y041293D02*
D03*
X023345D02*
D03*
X023148D02*
D03*
X022952D02*
D03*
X022755D02*
D03*
X022558D02*
D03*
D31*
X023857Y042592D02*
D03*
Y042395D02*
D03*
Y042198D02*
D03*
Y042002D02*
D03*
Y041805D02*
D03*
Y041608D02*
D03*
X022243D02*
D03*
Y041805D02*
D03*
Y042002D02*
D03*
Y042198D02*
D03*
Y042395D02*
D03*
Y042592D02*
D03*
D32*
X021695Y037250D02*
D03*
X021105D02*
D03*
X024405Y040400D02*
D03*
X024995D02*
D03*
X022795Y040250D02*
D03*
X022205D02*
D03*
X023995Y043750D02*
D03*
X023405D02*
D03*
D33*
X024600Y037091D02*
D03*
Y035909D02*
D03*
D34*
X025350Y042445D02*
D03*
Y041855D02*
D03*
X024600Y042445D02*
D03*
Y041855D02*
D03*
D35*
X024900Y032350D02*
D03*
X021350Y032450D02*
D03*
D36*
X024900Y031350D02*
D03*
X021350Y031450D02*
D03*
D37*
X023800Y040900D02*
D03*
X023300Y040350D02*
D03*
X025095Y039729D02*
D03*
X021050Y039450D02*
D03*
X023505Y038559D02*
D03*
X022819Y043919D02*
D03*
X023900Y039750D02*
D03*
X024850Y044050D02*
D03*
X022350Y037250D02*
D03*
X024550Y034650D02*
D03*
X022900Y036450D02*
D03*
X021250Y040300D02*
D03*
X021300Y042200D02*
D03*
M02*
