%FSAX24Y24*%
%MOIN*%
G70*
G01*
G75*
G04 Layer_Color=2752767*
%ADD10R,0.0591X0.0512*%
%ADD11R,0.0866X0.0787*%
%ADD12R,0.0354X0.0114*%
%ADD13R,0.0114X0.0354*%
%ADD14R,0.0394X0.0114*%
%ADD15R,0.0114X0.0394*%
%ADD16R,0.0512X0.0114*%
%ADD17R,0.0126X0.0512*%
%ADD18C,0.0200*%
%ADD19C,0.0080*%
%ADD20C,0.0100*%
%ADD21C,0.0591*%
%ADD22R,0.0591X0.0591*%
%ADD23C,0.0350*%
%ADD24R,0.0649X0.0649*%
%ADD25R,0.1032X0.1035*%
%ADD26R,0.0532X0.0524*%
%ADD27C,0.0050*%
%ADD28C,0.0067*%
D27*
X022350Y030800D02*
Y031200D01*
X022750D01*
Y030800D01*
X022350D01*
X023350D02*
Y031200D01*
X023750D01*
Y030800D01*
X023350D01*
X022350Y039150D02*
Y039550D01*
X022750D01*
Y039150D01*
X022350D01*
X023350D02*
Y039550D01*
X023750D01*
Y039150D01*
X023350D01*
D28*
X024550Y030850D02*
G03*
X024550Y030850I-000200J000000D01*
G01*
X021700Y031650D02*
G03*
X021700Y031650I-000200J000000D01*
G01*
X022150Y033500D02*
G03*
X022150Y033500I-000200J000000D01*
G01*
X021700Y039300D02*
G03*
X021700Y039300I-000200J000000D01*
G01*
X024700Y039350D02*
G03*
X024700Y039350I-000200J000000D01*
G01*
X023650Y035900D02*
G03*
X023650Y035900I-000200J000000D01*
G01*
X024150Y036450D02*
G03*
X024150Y036450I-000200J000000D01*
G01*
Y035250D02*
G03*
X024150Y035250I-000200J000000D01*
G01*
X022500Y035350D02*
G03*
X022500Y035350I-000200J000000D01*
G01*
X024050Y033800D02*
G03*
X024050Y033800I-000200J000000D01*
G01*
X021650Y033850D02*
G03*
X021650Y033850I-000200J000000D01*
G01*
X025050Y032050D02*
G03*
X025050Y032050I-000200J000000D01*
G01*
X022700Y035850D02*
G03*
X022700Y035850I-000200J000000D01*
G01*
X025150Y038850D02*
G03*
X025150Y038850I-000200J000000D01*
G01*
X024300Y032550D02*
G03*
X024300Y032550I-000200J000000D01*
G01*
X021500Y036700D02*
G03*
X021500Y036700I-000200J000000D01*
G01*
X021900Y038700D02*
G03*
X021900Y038700I-000200J000000D01*
G01*
X024850Y031250D02*
G03*
X024850Y031250I-000200J000000D01*
G01*
M02*
