%FSAX24Y24*%
%MOIN*%
G70*
G01*
G75*
G04 Layer_Physical_Order=2*
G04 Layer_Color=16711680*
%ADD10R,0.0177X0.0114*%
%ADD11R,0.0114X0.0177*%
%ADD12R,0.0315X0.0114*%
%ADD13R,0.0126X0.0354*%
%ADD14O,0.0116X0.0354*%
%ADD15O,0.0354X0.0116*%
%ADD16R,0.0433X0.0551*%
%ADD17R,0.0866X0.0787*%
%ADD18R,0.0551X0.0433*%
%ADD19C,0.0080*%
%ADD20C,0.0591*%
%ADD21R,0.0591X0.0591*%
%ADD22C,0.0350*%
G36*
X026260Y044919D02*
Y030020D01*
X020020D01*
Y044970D01*
X026207D01*
X026260Y044919D01*
D02*
G37*
%LPC*%
G36*
X025780Y044653D02*
X020500D01*
X020441Y044641D01*
X020392Y044608D01*
X020359Y044559D01*
X020347Y044500D01*
Y030500D01*
X020359Y030441D01*
X020392Y030392D01*
X020441Y030359D01*
X020500Y030347D01*
X025780D01*
X025839Y030359D01*
X025888Y030392D01*
X025921Y030441D01*
X025933Y030500D01*
Y044500D01*
X025921Y044559D01*
X025888Y044608D01*
X025839Y044641D01*
X025780Y044653D01*
D02*
G37*
%LPD*%
G36*
X021351Y044273D02*
X021199Y044121D01*
X021168Y044075D01*
X021157Y044020D01*
X021157Y044020D01*
Y042437D01*
X021104Y042396D01*
X021060Y042339D01*
X021032Y042272D01*
X021023Y042200D01*
X021032Y042128D01*
X021060Y042061D01*
X021104Y042004D01*
X021161Y041960D01*
X021228Y041932D01*
X021300Y041923D01*
X021372Y041932D01*
X021439Y041960D01*
X021496Y042004D01*
X021540Y042061D01*
X021568Y042128D01*
X021577Y042200D01*
X021568Y042272D01*
X021540Y042339D01*
X021496Y042396D01*
X021443Y042437D01*
Y043961D01*
X021659Y044177D01*
X022163D01*
X022198Y044105D01*
X022170Y044069D01*
X022142Y044002D01*
X022139Y043980D01*
X022681D01*
X022678Y044002D01*
X022650Y044069D01*
X022622Y044105D01*
X022657Y044177D01*
X025401D01*
X025457Y044121D01*
Y043669D01*
X025291Y043503D01*
X025187D01*
X025146Y043556D01*
X025089Y043600D01*
X025022Y043628D01*
X024950Y043637D01*
X024878Y043628D01*
X024811Y043600D01*
X024754Y043556D01*
X024710Y043499D01*
X024682Y043432D01*
X024673Y043360D01*
X024682Y043288D01*
X024710Y043221D01*
X024754Y043164D01*
X024811Y043120D01*
X024878Y043092D01*
X024950Y043083D01*
X025022Y043092D01*
X025089Y043120D01*
X025146Y043164D01*
X025187Y043217D01*
X025350D01*
X025350Y043217D01*
X025395Y043226D01*
X025419Y043207D01*
X025457Y043150D01*
Y038160D01*
X025419Y038103D01*
X025395Y038084D01*
X025350Y038093D01*
X025350Y038093D01*
X024174D01*
X023774Y038492D01*
X023783Y038559D01*
X023774Y038626D01*
X023961Y038812D01*
X024034Y038782D01*
Y038447D01*
X024042Y038408D01*
X024064Y038375D01*
X024097Y038352D01*
X024136Y038345D01*
X024766D01*
X024805Y038352D01*
X024838Y038375D01*
X024860Y038408D01*
X024867Y038447D01*
Y039068D01*
X024860Y039107D01*
X024838Y039140D01*
X024805Y039162D01*
X024766Y039170D01*
X024136D01*
X024105Y039163D01*
X024086Y039178D01*
X024043Y039244D01*
Y039513D01*
X024096Y039554D01*
X024140Y039611D01*
X024168Y039678D01*
X024177Y039750D01*
X024168Y039822D01*
X024140Y039889D01*
X024096Y039946D01*
X024039Y039990D01*
X023972Y040018D01*
X023900Y040027D01*
X023828Y040018D01*
X023761Y039990D01*
X023704Y039946D01*
X023660Y039889D01*
X023632Y039822D01*
X023623Y039750D01*
X023631Y039683D01*
X023541Y039593D01*
X021287D01*
X021246Y039646D01*
X021189Y039690D01*
X021122Y039718D01*
X021050Y039727D01*
X020978Y039718D01*
X020911Y039690D01*
X020854Y039646D01*
X020810Y039589D01*
X020782Y039522D01*
X020773Y039450D01*
X020782Y039378D01*
X020810Y039311D01*
X020854Y039254D01*
X020911Y039210D01*
X020978Y039182D01*
X021050Y039173D01*
X021122Y039182D01*
X021189Y039210D01*
X021246Y039254D01*
X021287Y039307D01*
X023600D01*
X023600Y039307D01*
X023655Y039318D01*
X023687Y039340D01*
X023757Y039302D01*
Y039013D01*
X023572Y038828D01*
X023505Y038836D01*
X023434Y038827D01*
X023367Y038799D01*
X023309Y038755D01*
X023265Y038698D01*
X023238Y038631D01*
X023228Y038559D01*
X023238Y038487D01*
X023265Y038420D01*
X023309Y038363D01*
X023367Y038319D01*
X023434Y038291D01*
X023505Y038282D01*
X023572Y038290D01*
X023970Y037892D01*
X023999Y037849D01*
D01*
X023999D01*
Y037849D01*
D01*
X023999D01*
Y037849D01*
X023999D01*
X023999Y037849D01*
Y037849D01*
X023999Y037849D01*
Y037849D01*
X024045Y037818D01*
X024100Y037807D01*
X025291D01*
X025457Y037641D01*
Y030989D01*
X025291Y030823D01*
X020879D01*
X020823Y030879D01*
Y032191D01*
X020918Y032286D01*
X020996Y032271D01*
X021005Y032251D01*
X021068Y032168D01*
X021151Y032105D01*
X021247Y032065D01*
X021350Y032051D01*
X021453Y032065D01*
X021549Y032105D01*
X021632Y032168D01*
X021695Y032251D01*
X021735Y032347D01*
X021749Y032450D01*
X021735Y032553D01*
X021695Y032649D01*
X021632Y032732D01*
X021549Y032795D01*
X021453Y032835D01*
X021350Y032849D01*
X021247Y032835D01*
X021151Y032795D01*
X021068Y032732D01*
X021005Y032649D01*
X020981Y032593D01*
X020880D01*
X020880Y032593D01*
X020825Y032582D01*
X020779Y032551D01*
X020779Y032551D01*
X020727Y032499D01*
X020653Y032529D01*
Y044347D01*
X021321D01*
X021351Y044273D01*
D02*
G37*
%LPC*%
G36*
X024600Y034921D02*
Y034700D01*
X024821D01*
X024818Y034722D01*
X024790Y034789D01*
X024746Y034846D01*
X024689Y034890D01*
X024622Y034918D01*
X024600Y034921D01*
D02*
G37*
G36*
X024500D02*
X024478Y034918D01*
X024411Y034890D01*
X024354Y034846D01*
X024310Y034789D01*
X024282Y034722D01*
X024279Y034700D01*
X024500D01*
Y034921D01*
D02*
G37*
G36*
X024821Y034600D02*
X024600D01*
Y034379D01*
X024622Y034382D01*
X024689Y034410D01*
X024746Y034454D01*
X024790Y034511D01*
X024818Y034578D01*
X024821Y034600D01*
D02*
G37*
G36*
X022850Y036400D02*
X022629D01*
X022632Y036378D01*
X022660Y036311D01*
X022704Y036254D01*
X022761Y036210D01*
X022828Y036182D01*
X022850Y036179D01*
Y036400D01*
D02*
G37*
G36*
X022950Y036721D02*
Y036500D01*
X023171D01*
X023168Y036522D01*
X023140Y036589D01*
X023096Y036646D01*
X023039Y036690D01*
X022972Y036718D01*
X022950Y036721D01*
D02*
G37*
G36*
X022850D02*
X022828Y036718D01*
X022761Y036690D01*
X022704Y036646D01*
X022660Y036589D01*
X022632Y036522D01*
X022629Y036500D01*
X022850D01*
Y036721D01*
D02*
G37*
G36*
X023171Y036400D02*
X022950D01*
Y036179D01*
X022972Y036182D01*
X023039Y036210D01*
X023096Y036254D01*
X023140Y036311D01*
X023168Y036378D01*
X023171Y036400D01*
D02*
G37*
G36*
X021745Y031400D02*
X021400D01*
Y031055D01*
X021745D01*
Y031400D01*
D02*
G37*
G36*
X021300D02*
X020955D01*
Y031055D01*
X021300D01*
Y031400D01*
D02*
G37*
G36*
X025295Y031745D02*
X024505D01*
Y030955D01*
X025295D01*
Y031745D01*
D02*
G37*
G36*
X021300Y031845D02*
X020955D01*
Y031500D01*
X021300D01*
Y031845D01*
D02*
G37*
G36*
X024500Y034600D02*
X024279D01*
X024282Y034578D01*
X024310Y034511D01*
X024354Y034454D01*
X024411Y034410D01*
X024478Y034382D01*
X024500Y034379D01*
Y034600D01*
D02*
G37*
G36*
X024900Y032749D02*
X024797Y032735D01*
X024701Y032695D01*
X024618Y032632D01*
X024555Y032549D01*
X024515Y032453D01*
X024501Y032350D01*
X024515Y032247D01*
X024555Y032151D01*
X024618Y032068D01*
X024701Y032005D01*
X024797Y031965D01*
X024900Y031951D01*
X025003Y031965D01*
X025099Y032005D01*
X025182Y032068D01*
X025245Y032151D01*
X025285Y032247D01*
X025299Y032350D01*
X025285Y032453D01*
X025245Y032549D01*
X025182Y032632D01*
X025099Y032695D01*
X025003Y032735D01*
X024900Y032749D01*
D02*
G37*
G36*
X021745Y031845D02*
X021400D01*
Y031500D01*
X021745D01*
Y031845D01*
D02*
G37*
G36*
X022300Y037200D02*
X022079D01*
X022082Y037178D01*
X022110Y037111D01*
X022154Y037054D01*
X022211Y037010D01*
X022278Y036982D01*
X022300Y036979D01*
Y037200D01*
D02*
G37*
G36*
X024071Y040850D02*
X023850D01*
Y040629D01*
X023872Y040632D01*
X023939Y040660D01*
X023996Y040704D01*
X024040Y040761D01*
X024068Y040828D01*
X024071Y040850D01*
D02*
G37*
G36*
X023750Y041171D02*
X023728Y041168D01*
X023661Y041140D01*
X023604Y041096D01*
X023560Y041039D01*
X023532Y040972D01*
X023529Y040950D01*
X023750D01*
Y041171D01*
D02*
G37*
G36*
X023300Y040627D02*
X023228Y040618D01*
X023161Y040590D01*
X023104Y040546D01*
X023060Y040489D01*
X023032Y040422D01*
X023023Y040350D01*
X023031Y040283D01*
X022941Y040193D01*
X021574D01*
X021521Y040253D01*
X021527Y040300D01*
X021518Y040372D01*
X021490Y040439D01*
X021446Y040496D01*
X021389Y040540D01*
X021322Y040568D01*
X021250Y040577D01*
X021178Y040568D01*
X021111Y040540D01*
X021054Y040496D01*
X021010Y040439D01*
X020982Y040372D01*
X020973Y040300D01*
X020982Y040228D01*
X021010Y040161D01*
X021054Y040104D01*
X021111Y040060D01*
X021178Y040032D01*
X021222Y040026D01*
X021299Y039949D01*
X021345Y039918D01*
X021400Y039907D01*
X021400Y039907D01*
X023000D01*
X023000Y039907D01*
X023055Y039918D01*
X023101Y039949D01*
X023233Y040081D01*
X023300Y040073D01*
X023372Y040082D01*
X023439Y040110D01*
X023496Y040154D01*
X023540Y040211D01*
X023568Y040278D01*
X023577Y040350D01*
X023568Y040422D01*
X023540Y040489D01*
X023496Y040546D01*
X023439Y040590D01*
X023372Y040618D01*
X023300Y040627D01*
D02*
G37*
G36*
X023750Y040850D02*
X023529D01*
X023532Y040828D01*
X023560Y040761D01*
X023604Y040704D01*
X023661Y040660D01*
X023728Y040632D01*
X023750Y040629D01*
Y040850D01*
D02*
G37*
G36*
X022360Y043880D02*
X022139D01*
X022142Y043858D01*
X022170Y043791D01*
X022214Y043734D01*
X022271Y043690D01*
X022338Y043662D01*
X022360Y043659D01*
Y043880D01*
D02*
G37*
G36*
X022681D02*
X022460D01*
Y043659D01*
X022482Y043662D01*
X022549Y043690D01*
X022606Y043734D01*
X022650Y043791D01*
X022678Y043858D01*
X022681Y043880D01*
D02*
G37*
G36*
X023850Y041171D02*
Y040950D01*
X024071D01*
X024068Y040972D01*
X024040Y041039D01*
X023996Y041096D01*
X023939Y041140D01*
X023872Y041168D01*
X023850Y041171D01*
D02*
G37*
G36*
X023582Y042734D02*
X022518D01*
X022479Y042726D01*
X022446Y042704D01*
X022424Y042671D01*
X022416Y042632D01*
Y041571D01*
X022424Y041532D01*
X022446Y041499D01*
X022479Y041476D01*
X022518Y041469D01*
X023582D01*
X023621Y041476D01*
X023654Y041499D01*
X023676Y041532D01*
X023684Y041571D01*
Y042632D01*
X023676Y042671D01*
X023654Y042704D01*
X023621Y042726D01*
X023582Y042734D01*
D02*
G37*
G36*
X022400Y037521D02*
Y037300D01*
X022621D01*
X022618Y037322D01*
X022590Y037389D01*
X022546Y037446D01*
X022489Y037490D01*
X022422Y037518D01*
X022400Y037521D01*
D02*
G37*
G36*
X022298Y039020D02*
X021849D01*
X021810Y039012D01*
X021777Y038990D01*
X021755Y038957D01*
X021747Y038918D01*
Y038494D01*
X021755Y038455D01*
X021777Y038421D01*
X021810Y038399D01*
X021849Y038392D01*
X022298D01*
X022337Y038399D01*
X022370Y038421D01*
X022392Y038455D01*
X022400Y038494D01*
Y038918D01*
X022392Y038957D01*
X022370Y038990D01*
X022337Y039012D01*
X022298Y039020D01*
D02*
G37*
G36*
X022621Y037200D02*
X022400D01*
Y036979D01*
X022422Y036982D01*
X022489Y037010D01*
X022546Y037054D01*
X022590Y037111D01*
X022618Y037178D01*
X022621Y037200D01*
D02*
G37*
G36*
X022300Y037521D02*
X022278Y037518D01*
X022211Y037490D01*
X022154Y037446D01*
X022110Y037389D01*
X022082Y037322D01*
X022079Y037300D01*
X022300D01*
Y037521D01*
D02*
G37*
G36*
X025045Y040000D02*
X025023Y039997D01*
X024956Y039970D01*
X024899Y039926D01*
X024855Y039868D01*
X024827Y039801D01*
X024824Y039779D01*
X025045D01*
Y040000D01*
D02*
G37*
G36*
X025145D02*
Y039779D01*
X025366D01*
X025363Y039801D01*
X025335Y039868D01*
X025291Y039926D01*
X025234Y039970D01*
X025167Y039997D01*
X025145Y040000D01*
D02*
G37*
G36*
X025045Y039679D02*
X024824D01*
X024827Y039658D01*
X024855Y039591D01*
X024899Y039533D01*
X024956Y039489D01*
X025023Y039462D01*
X025045Y039459D01*
Y039679D01*
D02*
G37*
G36*
X025366D02*
X025145D01*
Y039459D01*
X025167Y039462D01*
X025234Y039489D01*
X025291Y039533D01*
X025335Y039591D01*
X025363Y039658D01*
X025366Y039679D01*
D02*
G37*
%LPD*%
D19*
X023900Y038953D02*
Y039750D01*
X023505Y038559D02*
X023900Y038953D01*
X021400Y040050D02*
X023000D01*
X023600Y039450D02*
X023900Y039750D01*
X021050Y039450D02*
X023600D01*
X024100Y037950D02*
X025350D01*
X024100D02*
Y037964D01*
X023505Y038559D02*
X024100Y037964D01*
X021250Y040200D02*
X021400Y040050D01*
X021250Y040200D02*
Y040300D01*
X021300Y042200D02*
Y044020D01*
X024950Y043360D02*
X025350D01*
X021300Y044020D02*
X021600Y044320D01*
X025460D01*
X025600Y044180D01*
Y043610D02*
Y044180D01*
X025350Y043360D02*
X025600Y043610D01*
Y037700D02*
Y043610D01*
X025350Y037950D02*
X025600Y037700D01*
X025600Y037700D01*
X025600Y030930D02*
Y037700D01*
X020880Y032450D02*
X021350D01*
X025350Y030680D02*
X025600Y030930D01*
X020820Y030680D02*
X025350D01*
X020680Y030820D02*
X020820Y030680D01*
X020680Y030820D02*
Y032250D01*
X020880Y032450D01*
X023000Y040050D02*
X023300Y040350D01*
D20*
X024900Y032350D02*
D03*
X021350Y032450D02*
D03*
D21*
X024900Y031350D02*
D03*
X021350Y031450D02*
D03*
D22*
X023800Y040900D02*
D03*
X023300Y040350D02*
D03*
X025095Y039729D02*
D03*
X021050Y039450D02*
D03*
X023505Y038559D02*
D03*
X023900Y039750D02*
D03*
X022350Y037250D02*
D03*
X024550Y034650D02*
D03*
X022900Y036450D02*
D03*
X021250Y040300D02*
D03*
X021300Y042200D02*
D03*
X024950Y043360D02*
D03*
X022410Y043930D02*
D03*
M02*
