M48
;Layer_Color=9474304
;FILE_FORMAT=2:4
INCH
;TYPE=PLATED
T1F00S00C0.0250
T2F00S00C0.0354
%
T01
X024350Y030850
X024650Y031250
X024850Y032050
X024100Y032550
X023850Y033800
X023950Y035250
X023450Y035900
X022500Y035850
X022300Y035350
X021950Y033500
X021450Y033850
X021500Y031650
X021300Y036700
X021700Y038700
X021500Y039300
X024500Y039350
X024950Y038850
X023950Y036450
T02
X022550Y031000
X023550
Y039350
X022550
M30
