%FSAX24Y24*%
%MOIN*%
G70*
G01*
G75*
G04 Layer_Physical_Order=1*
G04 Layer_Color=255*
%ADD10R,0.0126X0.0354*%
%ADD11R,0.0315X0.0126*%
%ADD12R,0.0118X0.0177*%
%ADD13R,0.0177X0.0118*%
%ADD14O,0.0118X0.0354*%
%ADD15O,0.0354X0.0118*%
%ADD16R,0.0866X0.0787*%
%ADD17R,0.0433X0.0551*%
%ADD18R,0.0551X0.0433*%
%ADD19C,0.0100*%
%ADD20C,0.0080*%
%ADD21C,0.0591*%
%ADD22R,0.0591X0.0591*%
%ADD23C,0.0300*%
G36*
X026050Y030265D02*
X026004Y030246D01*
X026000Y030250D01*
X020150D01*
Y044800D01*
X026050D01*
Y030265D01*
D02*
G37*
%LPC*%
G36*
X025780Y044612D02*
X020500D01*
X020457Y044604D01*
X020421Y044579D01*
X020396Y044543D01*
X020388Y044500D01*
Y030500D01*
X020388Y030500D01*
X020388D01*
X020396Y030457D01*
X020421Y030421D01*
X020457Y030396D01*
X020500Y030388D01*
X025780D01*
X025823Y030396D01*
X025859Y030421D01*
X025884Y030457D01*
X025892Y030500D01*
Y044500D01*
X025884Y044543D01*
X025859Y044579D01*
X025823Y044604D01*
X025780Y044612D01*
D02*
G37*
%LPD*%
G36*
X022327Y038412D02*
Y038386D01*
Y038190D01*
X022433D01*
Y037847D01*
X022433Y037847D01*
X022441Y037806D01*
X022436Y037801D01*
X022387Y037768D01*
X021741D01*
X021365Y038143D01*
X021384Y038190D01*
X021817D01*
Y038386D01*
Y038410D01*
X021832Y038420D01*
X021949D01*
Y037997D01*
X022195D01*
Y038420D01*
X022316D01*
X022327Y038412D01*
D02*
G37*
G36*
X022938Y039404D02*
Y039196D01*
X022809Y039067D01*
X022762Y039086D01*
Y039223D01*
X022327D01*
Y039026D01*
Y039002D01*
X022316Y038994D01*
X022195D01*
Y039416D01*
X021949D01*
Y038994D01*
X021832D01*
X021817Y039003D01*
Y039026D01*
Y039223D01*
X021383D01*
Y039026D01*
Y039006D01*
X021029D01*
X021011Y039002D01*
X020972Y039034D01*
Y039212D01*
X021011Y039244D01*
X021050Y039236D01*
X021132Y039252D01*
X021201Y039299D01*
X021248Y039368D01*
X021264Y039450D01*
X021295Y039488D01*
X022854D01*
X022938Y039404D01*
D02*
G37*
G36*
X025058Y037838D02*
X025061Y037834D01*
Y037756D01*
X024849Y037544D01*
X024107D01*
Y036637D01*
X025093D01*
Y037500D01*
X025235Y037641D01*
X025240Y037649D01*
X025288Y037635D01*
Y033646D01*
X025154Y033512D01*
X023846D01*
X023712Y033646D01*
Y035972D01*
X023760Y035987D01*
X023771Y035971D01*
X023921Y035821D01*
X023957Y035796D01*
X024000Y035788D01*
X024043Y035796D01*
X024044Y035797D01*
X024107D01*
Y035456D01*
X024488D01*
Y034852D01*
X024468Y034848D01*
X024399Y034801D01*
X024352Y034732D01*
X024346Y034700D01*
X024754D01*
X024748Y034732D01*
X024712Y034785D01*
Y035456D01*
X025093D01*
Y035859D01*
X024600D01*
Y035909D01*
X024550D01*
Y036363D01*
X024107D01*
Y036022D01*
X024037D01*
X023962Y036096D01*
Y037554D01*
X024046Y037638D01*
X024750D01*
X024750Y037638D01*
X024793Y037646D01*
X024829Y037671D01*
X025014Y037856D01*
X025058Y037838D01*
D02*
G37*
G36*
X021346Y036765D02*
X021346Y036765D01*
X021382Y036741D01*
X021425Y036732D01*
X021425Y036732D01*
X022408D01*
X022427Y036686D01*
X021854Y036112D01*
X020996D01*
X020792Y036316D01*
Y036914D01*
X020828D01*
Y036914D01*
X021196D01*
X021346Y036765D01*
D02*
G37*
G36*
X023308Y038061D02*
Y036266D01*
X023154Y036112D01*
X022236D01*
X022217Y036158D01*
X022932Y036873D01*
X022978Y036854D01*
Y036792D01*
X022838Y036652D01*
X022818Y036648D01*
X022749Y036601D01*
X022702Y036532D01*
X022696Y036500D01*
X023104D01*
X023098Y036532D01*
X023073Y036570D01*
X023169Y036666D01*
X023169Y036666D01*
X023194Y036703D01*
X023202Y036745D01*
X023202Y036745D01*
Y038101D01*
X023248Y038120D01*
X023308Y038061D01*
D02*
G37*
G36*
X020871Y035921D02*
X020871Y035921D01*
X020907Y035896D01*
X020907Y035896D01*
X020907Y035896D01*
D01*
X020907Y035896D01*
X020907Y035896D01*
X020950Y035888D01*
X020950Y035888D01*
X021900D01*
X021900Y035888D01*
X021900Y035888D01*
X023154D01*
X023238Y035804D01*
Y031450D01*
X023238Y031450D01*
X023246Y031407D01*
X023271Y031371D01*
X023521Y031121D01*
X023521Y031121D01*
X023557Y031096D01*
X023600Y031088D01*
X024545D01*
Y030995D01*
X025255D01*
Y031705D01*
X024545D01*
Y031312D01*
X023646D01*
X023462Y031496D01*
Y033522D01*
X023510Y033537D01*
X023521Y033521D01*
X023721Y033321D01*
X023721Y033321D01*
X023757Y033296D01*
X023757Y033296D01*
X023757Y033296D01*
D01*
X023757Y033296D01*
X023757Y033296D01*
X023800Y033288D01*
X023800Y033288D01*
X025200D01*
X025200Y033288D01*
X025243Y033296D01*
X025279Y033321D01*
X025422Y033463D01*
X025468Y033444D01*
Y033012D01*
X025100Y032644D01*
X025079Y032660D01*
X024993Y032696D01*
X024900Y032708D01*
X024807Y032696D01*
X024721Y032660D01*
X024647Y032603D01*
X024590Y032529D01*
X024554Y032443D01*
X024542Y032350D01*
X024554Y032257D01*
X024590Y032171D01*
X024647Y032097D01*
X024721Y032040D01*
X024807Y032004D01*
X024900Y031992D01*
X024993Y032004D01*
X025079Y032040D01*
X025153Y032097D01*
X025210Y032171D01*
X025246Y032257D01*
X025258Y032350D01*
X025246Y032443D01*
X025229Y032485D01*
X025622Y032877D01*
X025668Y032858D01*
Y030612D01*
X020612D01*
Y036114D01*
X020658Y036133D01*
X020871Y035921D01*
D02*
G37*
G36*
X025668Y042722D02*
X025400D01*
Y042445D01*
X025300D01*
Y042722D01*
X025014D01*
Y042557D01*
X024936D01*
Y042722D01*
X024650D01*
Y042445D01*
X024550D01*
Y042722D01*
X024348D01*
X024329Y042768D01*
X024679Y043118D01*
X024679Y043118D01*
X024704Y043154D01*
X024712Y043197D01*
Y043754D01*
X024804Y043845D01*
X024850Y043836D01*
X024932Y043852D01*
X025001Y043899D01*
X025048Y043968D01*
X025064Y044050D01*
X025048Y044132D01*
X025001Y044201D01*
X024932Y044248D01*
X024850Y044264D01*
X024768Y044248D01*
X024699Y044201D01*
X024652Y044132D01*
X024636Y044050D01*
X024645Y044004D01*
X024521Y043879D01*
X024496Y043843D01*
X024488Y043800D01*
X024488Y043800D01*
Y043244D01*
X024154Y042910D01*
X024107Y042929D01*
Y043414D01*
X024272D01*
Y043700D01*
X023995D01*
Y043750D01*
X023945D01*
Y044086D01*
X023904D01*
X023754Y044235D01*
X023718Y044259D01*
X023675Y044268D01*
X023675Y044268D01*
X023134D01*
X023091Y044259D01*
X023055Y044235D01*
X023055Y044235D01*
X022922Y044102D01*
X022901Y044117D01*
X022869Y044123D01*
Y043919D01*
Y043715D01*
X022901Y043721D01*
X022970Y043767D01*
X023017Y043837D01*
X023027Y043890D01*
X023082Y043945D01*
X023128Y043925D01*
Y043414D01*
X023233D01*
Y043169D01*
X023194Y043137D01*
X023148Y043147D01*
X023102Y043137D01*
X023063Y043111D01*
X023037D01*
X022998Y043137D01*
X022952Y043147D01*
X022906Y043137D01*
X022867Y043169D01*
Y043445D01*
X022858Y043488D01*
X022834Y043525D01*
X022834Y043525D01*
X022679Y043679D01*
X022643Y043704D01*
X022600Y043712D01*
X022600Y043712D01*
X020930D01*
X020887Y043704D01*
X020851Y043679D01*
X020851Y043679D01*
X020658Y043487D01*
X020612Y043506D01*
Y044388D01*
X025668D01*
Y042722D01*
D02*
G37*
G36*
X022446Y043266D02*
Y043072D01*
X022436Y043025D01*
Y042789D01*
X022446Y042743D01*
X022452Y042734D01*
X022416Y042698D01*
X022407Y042704D01*
X022361Y042714D01*
X022125D01*
X022078Y042704D01*
X022039Y042678D01*
X022013Y042639D01*
X022003Y042592D01*
X022013Y042546D01*
X022039Y042506D01*
Y042481D01*
X022013Y042442D01*
X022003Y042395D01*
X022013Y042349D01*
X022039Y042309D01*
Y042284D01*
X022013Y042245D01*
X022003Y042198D01*
X022013Y042152D01*
X022039Y042113D01*
Y042087D01*
X022013Y042048D01*
X022003Y042002D01*
X022013Y041955D01*
X022039Y041916D01*
Y041891D01*
X022013Y041851D01*
X022003Y041805D01*
X022013Y041758D01*
X022039Y041719D01*
Y041694D01*
X022013Y041654D01*
X022003Y041608D01*
X022013Y041561D01*
X022039Y041522D01*
X022078Y041496D01*
X022125Y041486D01*
X022361D01*
X022407Y041496D01*
X022416Y041502D01*
X022452Y041466D01*
X022446Y041457D01*
X022436Y041411D01*
Y041175D01*
X022446Y041128D01*
X022472Y041089D01*
X022511Y041063D01*
X022558Y041053D01*
X022596Y041061D01*
X022635Y041029D01*
Y040900D01*
X022597Y040862D01*
X021596D01*
X021412Y041046D01*
Y042022D01*
X021451Y042049D01*
X021498Y042118D01*
X021514Y042200D01*
X021498Y042282D01*
X021451Y042351D01*
X021382Y042398D01*
X021300Y042414D01*
X021218Y042398D01*
X021149Y042351D01*
X021102Y042282D01*
X021086Y042200D01*
X021102Y042118D01*
X021149Y042049D01*
X021188Y042022D01*
Y041000D01*
X021188Y041000D01*
X021196Y040957D01*
X021221Y040921D01*
X021471Y040671D01*
X021471Y040671D01*
X021507Y040646D01*
X021507Y040646D01*
X021507Y040646D01*
D01*
X021507Y040646D01*
X021507Y040646D01*
X021550Y040638D01*
X022650D01*
X022693Y040646D01*
X022729Y040671D01*
X022742Y040689D01*
X022793Y040741D01*
X022839Y040722D01*
Y040586D01*
X022519D01*
D01*
D01*
X022519Y040586D01*
X022481D01*
Y040586D01*
X021928D01*
Y040412D01*
X021428D01*
X021401Y040451D01*
X021332Y040498D01*
X021250Y040514D01*
X021168Y040498D01*
X021099Y040451D01*
X021052Y040382D01*
X021036Y040300D01*
X021052Y040218D01*
X021099Y040149D01*
X021168Y040102D01*
X021250Y040086D01*
X021332Y040102D01*
X021401Y040149D01*
X021428Y040188D01*
X021928D01*
Y039917D01*
X021928Y039917D01*
X021928D01*
X021928Y039914D01*
X021896Y039882D01*
X021027D01*
X020972Y039936D01*
Y043184D01*
X021096Y043308D01*
X022404D01*
X022446Y043266D01*
D02*
G37*
G36*
X024128Y040122D02*
Y040064D01*
X024681D01*
Y040064D01*
X024690D01*
X024710Y040018D01*
X024542Y039851D01*
X024526Y039826D01*
X024476Y039821D01*
X024468Y039829D01*
X024432Y039854D01*
X024389Y039862D01*
X024389Y039862D01*
X024078D01*
X024051Y039901D01*
X023982Y039948D01*
X023900Y039964D01*
X023818Y039948D01*
X023749Y039901D01*
X023702Y039832D01*
X023686Y039750D01*
X023702Y039668D01*
X023749Y039599D01*
X023818Y039552D01*
X023900Y039536D01*
X023982Y039552D01*
X024051Y039599D01*
X024078Y039638D01*
X024342D01*
X024529Y039451D01*
X024509Y039405D01*
X024038D01*
Y039369D01*
X023637D01*
X023632Y039375D01*
Y039861D01*
X023789Y040018D01*
X023916D01*
X023955Y040026D01*
X023988Y040048D01*
X024082Y040142D01*
X024128Y040122D01*
D02*
G37*
G36*
X025014Y041578D02*
X025668D01*
Y040882D01*
X025622Y040863D01*
X025343Y041142D01*
X025309Y041164D01*
X025270Y041172D01*
X024530D01*
X024491Y041164D01*
X024457Y041142D01*
X024217Y040902D01*
X024143D01*
X024104Y040894D01*
X024071Y040872D01*
X024055Y040856D01*
X024010Y040879D01*
X024014Y040900D01*
D01*
X024014Y040900D01*
X024014D01*
X023998Y040982D01*
X023951Y041051D01*
X023882Y041098D01*
X023850Y041104D01*
Y040900D01*
X023750D01*
Y041104D01*
X023718Y041098D01*
X023673Y041067D01*
X023637Y041103D01*
X023654Y041128D01*
X023664Y041175D01*
Y041411D01*
X023654Y041457D01*
X023648Y041466D01*
X023684Y041502D01*
X023693Y041496D01*
X023739Y041486D01*
X023975D01*
X024022Y041496D01*
X024058D01*
X024058Y041496D01*
X024101Y041504D01*
X024137Y041529D01*
X024218Y041610D01*
X024264Y041590D01*
Y041578D01*
X024936D01*
Y041743D01*
X025014D01*
Y041578D01*
D02*
G37*
%LPC*%
G36*
X021705Y031805D02*
X021400D01*
Y031500D01*
X021705D01*
Y031805D01*
D02*
G37*
G36*
X021350Y032808D02*
X021257Y032796D01*
X021171Y032760D01*
X021097Y032703D01*
X021040Y032629D01*
X021004Y032543D01*
X020992Y032450D01*
X021004Y032357D01*
X021040Y032271D01*
X021097Y032197D01*
X021171Y032140D01*
X021257Y032104D01*
X021350Y032092D01*
X021443Y032104D01*
X021529Y032140D01*
X021603Y032197D01*
X021660Y032271D01*
X021696Y032357D01*
X021708Y032450D01*
X021696Y032543D01*
X021660Y032629D01*
X021603Y032703D01*
X021529Y032760D01*
X021443Y032796D01*
X021350Y032808D01*
D02*
G37*
G36*
X021300Y031805D02*
X020995D01*
Y031500D01*
X021300D01*
Y031805D01*
D02*
G37*
G36*
Y031400D02*
X020995D01*
Y031095D01*
X021300D01*
Y031400D01*
D02*
G37*
G36*
X021705D02*
X021400D01*
Y031095D01*
X021705D01*
Y031400D01*
D02*
G37*
G36*
X022769Y043869D02*
X022615D01*
X022621Y043837D01*
X022667Y043767D01*
X022737Y043721D01*
X022769Y043715D01*
Y043869D01*
D02*
G37*
G36*
X023104Y036400D02*
X022950D01*
Y036246D01*
X022982Y036252D01*
X023051Y036299D01*
X023098Y036368D01*
X023104Y036400D01*
D02*
G37*
G36*
X022769Y044123D02*
X022737Y044117D01*
X022667Y044070D01*
X022621Y044001D01*
X022615Y043969D01*
X022769D01*
Y044123D01*
D02*
G37*
G36*
X024272Y044086D02*
X024045D01*
Y043800D01*
X024272D01*
Y044086D01*
D02*
G37*
G36*
X024754Y034600D02*
X024600D01*
Y034446D01*
X024632Y034452D01*
X024701Y034499D01*
X024748Y034568D01*
X024754Y034600D01*
D02*
G37*
G36*
X024500D02*
X024346D01*
X024352Y034568D01*
X024399Y034499D01*
X024468Y034452D01*
X024500Y034446D01*
Y034600D01*
D02*
G37*
G36*
X022850Y036400D02*
X022696D01*
X022702Y036368D01*
X022749Y036299D01*
X022818Y036252D01*
X022850Y036246D01*
Y036400D01*
D02*
G37*
G36*
X025093Y036363D02*
X024650D01*
Y035959D01*
X025093D01*
Y036363D01*
D02*
G37*
%LPD*%
D10*
X022072Y038234D02*
D03*
Y039179D02*
D03*
D11*
X022545Y039100D02*
D03*
Y038903D02*
D03*
Y038706D02*
D03*
Y038509D02*
D03*
Y038313D02*
D03*
X021600Y039100D02*
D03*
Y038903D02*
D03*
Y038706D02*
D03*
Y038509D02*
D03*
Y038313D02*
D03*
D12*
X024157Y039257D02*
D03*
X024354D02*
D03*
X024550D02*
D03*
X024747D02*
D03*
Y038253D02*
D03*
X024550D02*
D03*
X024354D02*
D03*
X024157D02*
D03*
D13*
X024954Y039050D02*
D03*
Y038853D02*
D03*
Y038656D02*
D03*
Y038459D02*
D03*
X023950D02*
D03*
Y038656D02*
D03*
Y038853D02*
D03*
Y039050D02*
D03*
D14*
X022558Y042907D02*
D03*
X022755D02*
D03*
X022952D02*
D03*
X023148D02*
D03*
X023345D02*
D03*
X023542D02*
D03*
Y041293D02*
D03*
X023345D02*
D03*
X023148D02*
D03*
X022952D02*
D03*
X022755D02*
D03*
X022558D02*
D03*
D15*
X023857Y042592D02*
D03*
Y042395D02*
D03*
Y042198D02*
D03*
Y042002D02*
D03*
Y041805D02*
D03*
Y041608D02*
D03*
X022243D02*
D03*
Y041805D02*
D03*
Y042002D02*
D03*
Y042198D02*
D03*
Y042395D02*
D03*
Y042592D02*
D03*
D16*
X024600Y037091D02*
D03*
Y035909D02*
D03*
D17*
X021695Y037250D02*
D03*
X021105D02*
D03*
X022795Y040250D02*
D03*
X022205D02*
D03*
X024405Y040400D02*
D03*
X024995D02*
D03*
X023995Y043750D02*
D03*
X023405D02*
D03*
D18*
X025350Y042445D02*
D03*
Y041855D02*
D03*
X024600Y042445D02*
D03*
Y041855D02*
D03*
D19*
X023411Y039257D02*
X024157D01*
X022545Y038903D02*
X022803D01*
X023050Y039150D01*
X023002Y038848D02*
X023220Y039065D01*
X022763Y038509D02*
X023090Y038182D01*
X022545Y038509D02*
X022763D01*
X022545Y037847D02*
Y038313D01*
Y037847D02*
X022910Y037482D01*
X021283Y038313D02*
X021600D01*
X021220Y038250D02*
X021283Y038313D01*
X021220Y038130D02*
Y038250D01*
X021106Y038706D02*
X021600D01*
X021040Y038640D02*
X021106Y038706D01*
X021040Y037810D02*
Y038640D01*
X021590Y038893D02*
X021600Y038903D01*
X021029Y038893D02*
X021590D01*
X020860Y038725D02*
X021029Y038893D01*
X020860Y037495D02*
Y038725D01*
X023148Y040502D02*
X023300Y040350D01*
X023148Y040502D02*
Y041293D01*
X024995Y040250D02*
Y040400D01*
Y040145D02*
Y040250D01*
Y040400D02*
X025045Y040195D01*
X024954Y040209D02*
X024995Y040250D01*
X024622Y039772D02*
X024995Y040145D01*
Y040250D02*
X025045Y040300D01*
X024923Y039042D02*
Y039087D01*
X024936Y039100D01*
Y039457D01*
X024622Y039772D02*
X024936Y039457D01*
X025045Y040195D02*
Y040300D01*
X020860Y038725D02*
Y039260D01*
X021050Y039450D01*
X021200Y039600D01*
X022900D01*
X024954Y037954D02*
Y038459D01*
X024629Y038000D02*
X024739Y038110D01*
Y038245D02*
X024747Y038253D01*
X024739Y038110D02*
Y038245D01*
X024747Y038253D02*
X024750Y038250D01*
X024739Y039264D02*
Y039399D01*
Y039264D02*
X024747Y039257D01*
X024389Y039750D02*
X024739Y039399D01*
X023900Y039750D02*
X024389D01*
X023505Y038559D02*
X023605Y038459D01*
X023950D01*
X023505Y038559D02*
X023800Y038853D01*
X023950D01*
X023420Y036220D02*
Y038107D01*
X023013Y038513D02*
X023420Y038107D01*
X023013Y038513D02*
Y038604D01*
X023459Y039050D01*
X022819Y043919D02*
X022897D01*
X023134Y044156D01*
X023675D01*
X023995Y043835D01*
Y043750D02*
Y043835D01*
X023857Y042592D02*
X023995Y042730D01*
Y043750D01*
X024600Y042445D02*
X025350D01*
X024600Y041855D02*
X025350D01*
X022900Y039600D02*
X023050Y039450D01*
Y039150D02*
Y039450D01*
X023947Y038850D02*
X023950Y038853D01*
X023941Y038450D02*
X023950Y038459D01*
X024600Y040900D02*
X025200D01*
X025400Y040700D01*
X024455Y040755D02*
X024600Y040900D01*
X024455Y040300D02*
Y040755D01*
X023345Y043691D02*
X023405Y043750D01*
X023345Y042907D02*
Y043691D01*
X023459Y039050D02*
X023950D01*
X022755Y042907D02*
Y043445D01*
X022600Y043600D02*
X022755Y043445D01*
X020680Y043350D02*
X020930Y043600D01*
X022600D01*
X020680Y036270D02*
X020950Y036000D01*
X022558Y042907D02*
Y043312D01*
X022450Y043420D02*
X022558Y043312D01*
X020860Y043230D02*
X021050Y043420D01*
X022450D01*
X020860Y039890D02*
Y043230D01*
Y039890D02*
X020970Y039780D01*
X023200Y036000D02*
X023350Y035850D01*
Y031450D02*
Y035850D01*
Y031450D02*
X023600Y031200D01*
X024750D01*
X024900Y031350D01*
X025400Y033600D02*
Y040700D01*
X025200Y033400D02*
X025400Y033600D01*
X023800Y033400D02*
X025200D01*
X023600Y033600D02*
X023800Y033400D01*
X023600Y033600D02*
Y037450D01*
X023700Y038000D02*
X024629D01*
X023600Y037900D02*
X023700Y038000D01*
X023600Y037450D02*
Y037900D01*
X024750Y037750D02*
X024954Y037954D01*
X024000Y037750D02*
X024750D01*
X023850Y037600D02*
X024000Y037750D01*
X023850Y036050D02*
Y037600D01*
Y036050D02*
X024000Y035900D01*
X024009Y035909D01*
X024600D01*
X021040Y037810D02*
X021100Y037750D01*
X023857Y041608D02*
X024058D01*
X024200Y041750D01*
X024495D01*
X024450Y041705D02*
X024495Y041750D01*
X024194Y042175D02*
X024515Y041855D01*
X024194Y042175D02*
Y042792D01*
X024600Y043197D01*
Y043800D01*
X024850Y044050D01*
X024495Y041750D02*
X024600Y041855D01*
X024600Y041855D01*
X024515Y041855D02*
X024600D01*
X024600D01*
X021900Y036000D02*
X023200D01*
X023420Y036220D01*
X020860Y037495D02*
X021105Y037250D01*
X021100Y037750D02*
X021281D01*
X021695Y037335D01*
Y037250D02*
Y037335D01*
X020680Y036270D02*
Y043350D01*
X021695Y037250D02*
X022350D01*
X024600Y034700D02*
Y035909D01*
X024550Y034650D02*
X024600Y034700D01*
X022730Y037093D02*
Y037407D01*
X022482Y036844D02*
X022730Y037093D01*
X021425Y036844D02*
X022482D01*
X021105Y037165D02*
X021425Y036844D01*
X021105Y037165D02*
Y037250D01*
X022900Y036450D02*
X022910Y036460D01*
X021220Y038130D02*
X021694Y037656D01*
X022482D01*
X022730Y037407D01*
X020950Y036000D02*
X021900D01*
X022910Y037010D02*
Y037482D01*
X021900Y036000D02*
X022910Y037010D01*
X023090Y036745D02*
Y038182D01*
X022900Y036555D02*
X023090Y036745D01*
X022900Y036450D02*
Y036555D01*
X023148Y041293D02*
X023148Y041293D01*
X022747Y041285D02*
X022755Y041293D01*
X022944Y041285D02*
X022952Y041293D01*
X023141Y041285D02*
X023148Y041293D01*
X023141Y041285D02*
X023141Y041285D01*
X023148Y041293D01*
X023141Y041285D02*
Y041285D01*
X023220Y039065D02*
X023411Y039257D01*
X023148Y041293D02*
Y041293D01*
X021250Y040300D02*
X022155D01*
X022205Y040250D01*
X023141Y041285D02*
X023148Y041293D01*
X022952Y040406D02*
Y041293D01*
X022795Y040250D02*
X022952Y040406D01*
X022747Y040853D02*
Y041285D01*
X021550Y040750D02*
X022650D01*
X021300Y041000D02*
X021550Y040750D01*
X021300Y041000D02*
Y042200D01*
X022650Y040750D02*
Y040756D01*
X022747Y040853D01*
D20*
X022861Y038706D02*
X023002Y038848D01*
X022545Y038706D02*
X022861D01*
X023668Y040900D02*
X023800D01*
X023468Y040700D02*
X023668Y040900D01*
X023468Y040700D02*
Y040996D01*
Y040599D02*
Y040700D01*
X023300Y039900D02*
X023595Y040195D01*
Y040472D01*
X023468Y040599D02*
X023595Y040472D01*
X024285Y040825D02*
X024530Y041070D01*
X024285Y040800D02*
Y040825D01*
X024143Y040800D02*
X024285D01*
X024068Y040725D02*
X024143Y040800D01*
X024530Y041070D02*
X025270D01*
X024900Y032350D02*
X024950D01*
X025570Y032970D01*
Y040770D01*
X025270Y041070D02*
X025570Y040770D01*
X023747Y040120D02*
X023916D01*
X024068Y040272D01*
Y040725D01*
X025095Y039729D02*
X025163Y039662D01*
Y038941D02*
Y039662D01*
X025092Y038871D02*
X025163Y038941D01*
X024972Y038871D02*
X025092D01*
X024954Y038853D02*
X024972Y038871D01*
X024600Y037091D02*
Y037151D01*
X025163Y037714D01*
Y038568D01*
X025092Y038639D02*
X025163Y038568D01*
X024972Y038639D02*
X025092D01*
X024954Y038656D02*
X024972Y038639D01*
X023327Y041275D02*
X023345Y041293D01*
X023530Y039903D02*
X023747Y040120D01*
X023220Y039065D02*
Y039520D01*
X020970Y039780D02*
X022960D01*
X023220Y039520D01*
X023530Y039375D02*
Y039903D01*
X023411Y039257D02*
X023530Y039375D01*
X023345Y041293D02*
X023363Y041275D01*
Y041101D02*
Y041275D01*
Y041101D02*
X023468Y040996D01*
X023145Y039900D02*
X023300D01*
X022795Y040250D02*
X023145Y039900D01*
D21*
X024900Y032350D02*
D03*
X021350Y032450D02*
D03*
D22*
X024900Y031350D02*
D03*
X021350Y031450D02*
D03*
D23*
X023800Y040900D02*
D03*
X023300Y040350D02*
D03*
X025095Y039729D02*
D03*
X021050Y039450D02*
D03*
X023505Y038559D02*
D03*
X022819Y043919D02*
D03*
X023900Y039750D02*
D03*
X024850Y044050D02*
D03*
X022350Y037250D02*
D03*
X024550Y034650D02*
D03*
X022900Y036450D02*
D03*
X021250Y040300D02*
D03*
X021300Y042200D02*
D03*
M02*
