%FSAX24Y24*%
%MOIN*%
G70*
G01*
G75*
G04 Layer_Physical_Order=1*
G04 Layer_Color=255*
%ADD10R,0.0591X0.0512*%
%ADD11R,0.0866X0.0787*%
%ADD12R,0.0354X0.0114*%
%ADD13R,0.0114X0.0354*%
%ADD14R,0.0394X0.0114*%
%ADD15R,0.0114X0.0394*%
%ADD16R,0.0512X0.0114*%
%ADD17R,0.0126X0.0512*%
%ADD18C,0.0200*%
%ADD19C,0.0080*%
%ADD20C,0.0100*%
%ADD21C,0.0591*%
%ADD22R,0.0591X0.0591*%
%ADD23C,0.0350*%
D10*
X021250Y033235D02*
D03*
Y032565D02*
D03*
X024750Y033785D02*
D03*
Y033115D02*
D03*
X021300Y037515D02*
D03*
Y038185D02*
D03*
X024750Y038035D02*
D03*
Y037365D02*
D03*
Y035915D02*
D03*
Y036585D02*
D03*
Y035235D02*
D03*
Y034565D02*
D03*
D11*
X021350Y034559D02*
D03*
Y035741D02*
D03*
D12*
X022361Y034950D02*
D03*
Y034753D02*
D03*
Y034556D02*
D03*
Y034359D02*
D03*
X023543D02*
D03*
Y034556D02*
D03*
Y034753D02*
D03*
Y034950D02*
D03*
D13*
X022657Y034064D02*
D03*
X022854D02*
D03*
X023050D02*
D03*
X023247D02*
D03*
Y035245D02*
D03*
X023050D02*
D03*
X022854D02*
D03*
X022657D02*
D03*
D14*
X022232Y037900D02*
D03*
Y037703D02*
D03*
Y037506D02*
D03*
Y037309D02*
D03*
Y037113D02*
D03*
Y036916D02*
D03*
X023885D02*
D03*
Y037113D02*
D03*
Y037309D02*
D03*
Y037506D02*
D03*
Y037703D02*
D03*
Y037900D02*
D03*
D15*
X022567Y036581D02*
D03*
X022763D02*
D03*
X022960D02*
D03*
X023157D02*
D03*
X023354D02*
D03*
X023551D02*
D03*
Y038235D02*
D03*
X023354D02*
D03*
X023157D02*
D03*
X022960D02*
D03*
X022763D02*
D03*
X022567D02*
D03*
D16*
X023483Y032950D02*
D03*
Y032753D02*
D03*
Y032556D02*
D03*
Y032359D02*
D03*
Y032163D02*
D03*
X022262D02*
D03*
Y032359D02*
D03*
Y032556D02*
D03*
Y032753D02*
D03*
Y032950D02*
D03*
D17*
X022872Y031946D02*
D03*
Y033167D02*
D03*
D18*
X023550Y031150D02*
X023850Y030850D01*
X024350D01*
X023550Y031000D02*
X023700Y030850D01*
X024350D02*
X025019D01*
X025269Y031100D01*
Y031300D01*
X021250Y031900D02*
X021500Y031650D01*
X021250Y031900D02*
Y032565D01*
X021181Y031150D02*
X022550D01*
X020731Y033200D02*
X021315D01*
X024750Y035235D02*
Y035915D01*
X025269Y036550D02*
Y038531D01*
X024750Y036585D02*
X025234D01*
X025269Y036550D01*
X024750Y036585D02*
Y037365D01*
X025269Y034600D02*
Y036550D01*
X024750Y034565D02*
X025234D01*
X025269Y034600D01*
X020731Y033200D02*
Y035150D01*
Y031600D02*
Y033200D01*
X024950Y038850D02*
X025269Y038531D01*
X021300Y038185D02*
X021665D01*
X021800Y038050D01*
X021300Y038185D02*
X021700Y038585D01*
Y038700D01*
X020731Y031600D02*
X021181Y031150D01*
X025269Y031300D02*
Y034600D01*
X021800Y036450D02*
Y038050D01*
X021350Y036000D02*
X021800Y036450D01*
X021350Y035741D02*
Y036000D01*
D19*
X023550Y031000D02*
X023600Y031200D01*
X024222Y032000D02*
X024650Y031572D01*
X023913Y032000D02*
X024222D01*
X023750Y032163D02*
X023913Y032000D01*
X023483Y032163D02*
X023750D01*
X024650Y031250D02*
Y031572D01*
X024044Y032606D02*
X024100Y032550D01*
X024146Y032954D02*
Y033450D01*
X022550Y031150D02*
Y031875D01*
Y031000D02*
Y031150D01*
X022262Y032163D02*
X022550Y031875D01*
X021528Y033200D02*
X021956Y032772D01*
X021493Y033235D02*
X021528Y033200D01*
X022050D01*
X021315D02*
X021528D01*
X021253Y033235D02*
X021493D01*
X021250D02*
X021253D01*
X021956Y032772D02*
X022243D01*
X022262Y032753D01*
X021250Y032565D02*
X021259Y032556D01*
X022262D01*
X023841Y032359D02*
X024000Y032200D01*
X023483Y032359D02*
X023841D01*
X024000Y032200D02*
X024450D01*
X024094Y032556D02*
X024100Y032550D01*
X023483Y032556D02*
X024094D01*
X023853Y032753D02*
X023950Y032850D01*
X023483Y032753D02*
X023853D01*
X023425Y033579D02*
X023950Y033054D01*
Y032850D02*
Y033054D01*
X023227Y033579D02*
X023425D01*
X023248Y033600D02*
X023300D01*
X023227Y033579D02*
X023248Y033600D01*
X022479Y033579D02*
X023227D01*
X022100Y033200D02*
X022479Y033579D01*
X021950Y033200D02*
X022100D01*
X022059Y034359D02*
X022361D01*
X021253Y033235D02*
X021950Y033931D01*
Y034250D01*
X022059Y034359D01*
X022550Y038251D02*
Y039350D01*
Y038251D02*
X022567Y038235D01*
X022763D02*
Y038763D01*
X023350Y039350D01*
X023550D01*
X023354Y038235D02*
Y038654D01*
X023450Y038750D01*
X024500D01*
X024750Y038500D01*
Y038035D02*
Y038500D01*
X023885Y037900D02*
X024234D01*
X024334Y037800D01*
X024749Y037366D02*
X024750Y037365D01*
X024334Y037500D02*
Y037800D01*
X024450Y037366D02*
X024749D01*
X024334Y037500D02*
X024450Y037384D01*
Y037366D02*
Y037384D01*
X024735Y035900D02*
X024750Y035915D01*
X020731Y035150D02*
X021757D01*
X021850D01*
X024706Y034609D02*
X024750Y034565D01*
X024300Y034700D02*
X024391Y034609D01*
X024450Y035900D02*
X024735D01*
X023885Y036916D02*
X024084D01*
X024250Y036750D01*
Y036100D02*
Y036750D01*
Y036100D02*
X024450Y035900D01*
X023157Y036581D02*
X023176Y036562D01*
X023354Y036246D02*
Y036581D01*
Y036246D02*
X023400Y036200D01*
X023157Y036215D02*
Y036581D01*
Y036215D02*
X023450Y035922D01*
Y035900D02*
Y035922D01*
X022763Y036263D02*
Y036581D01*
X022700Y036200D02*
X022763Y036263D01*
X022300Y035011D02*
X022361Y034950D01*
X023950Y036400D02*
Y036450D01*
Y036400D02*
X024250Y036100D01*
X024300Y034700D02*
Y035507D01*
X024207Y035600D02*
X024300Y035507D01*
X023945Y035245D02*
X023950Y035250D01*
X024089Y034950D02*
X024139Y034900D01*
X024300Y034050D02*
X024550Y033800D01*
Y033785D02*
Y033800D01*
X023247Y035245D02*
X023945D01*
X023543Y034950D02*
X024089D01*
X022300Y035011D02*
Y035350D01*
X021850Y035150D02*
X021997Y035003D01*
Y034803D02*
Y035003D01*
X022050Y034750D02*
X022053Y034753D01*
X021997Y034803D02*
X022050Y034750D01*
X022053Y034753D02*
X022361D01*
X023543Y034556D02*
X023561Y034538D01*
X023770D01*
X023850Y034457D01*
Y033800D02*
Y034457D01*
X021350Y033950D02*
X021450Y033850D01*
X021350Y033950D02*
Y034559D01*
X024391Y034609D02*
X024706D01*
X024435Y034565D02*
X024750D01*
X024391Y034609D02*
X024435Y034565D01*
X024139Y034633D02*
Y034900D01*
Y034633D02*
X024300Y034472D01*
Y034050D02*
Y034472D01*
X023543Y034753D02*
X023897D01*
X023978Y034557D02*
Y034672D01*
Y034557D02*
X024011Y034524D01*
Y034058D02*
Y034524D01*
Y034058D02*
X024146Y033923D01*
X023543Y034359D02*
X023554Y034348D01*
Y033677D02*
Y034348D01*
Y033677D02*
X023727Y033504D01*
X024092D01*
X024146Y033450D01*
X024750Y033115D02*
X024850Y033015D01*
Y032050D02*
Y033015D01*
X022657Y035245D02*
Y035693D01*
X022500Y035850D02*
X022657Y035693D01*
X022960Y035971D02*
X023327Y035604D01*
X023346D01*
X023350Y035600D01*
X022600Y036200D02*
X022700D01*
X023247Y035245D02*
Y035456D01*
X024000Y035600D02*
X024207D01*
X023400Y036200D02*
X023750D01*
X023900Y036050D01*
Y035700D02*
Y036050D01*
Y035700D02*
X024000Y035600D01*
X023350D02*
X024000D01*
X022600Y036200D02*
X022796Y036003D01*
Y035907D02*
Y036003D01*
Y035907D02*
X023247Y035456D01*
X022960Y035971D02*
Y036581D01*
X024146Y032954D02*
X024450Y032650D01*
X021300Y036700D02*
Y037515D01*
X021050Y032365D02*
X021250Y032565D01*
X023550Y031150D02*
X023600Y031200D01*
X024450Y032200D02*
Y032650D01*
Y032000D02*
Y032200D01*
Y032000D02*
X025150Y031300D01*
X025269D01*
X024146Y033450D02*
Y033923D01*
X021757Y035150D02*
X021950Y035343D01*
X022100Y036200D02*
X022600D01*
X021950Y035343D02*
Y036050D01*
X022100Y036200D01*
X023897Y034753D02*
X023978Y034672D01*
D20*
X021950Y033500D02*
X022200Y033750D01*
X023156D01*
X023238Y034055D02*
X023247Y034064D01*
X023238Y033833D02*
Y034055D01*
X023156Y033750D02*
X023238Y033833D01*
X021550Y039350D02*
X022550D01*
X021500Y039300D02*
X021550Y039350D01*
X023550D02*
X024500D01*
D21*
X022550Y031000D02*
D03*
Y039350D02*
D03*
D22*
X023550Y031000D02*
D03*
Y039350D02*
D03*
D23*
X024350Y030850D02*
D03*
X021500Y031650D02*
D03*
X021950Y033500D02*
D03*
X021500Y039300D02*
D03*
X024500Y039350D02*
D03*
X023450Y035900D02*
D03*
X023950Y036450D02*
D03*
Y035250D02*
D03*
X022300Y035350D02*
D03*
X023850Y033800D02*
D03*
X021450Y033850D02*
D03*
X024850Y032050D02*
D03*
X022500Y035850D02*
D03*
X024950Y038850D02*
D03*
X024100Y032550D02*
D03*
X021300Y036700D02*
D03*
X021700Y038700D02*
D03*
X024650Y031250D02*
D03*
M02*
