%FSAX24Y24*%
%MOIN*%
G70*
G01*
G75*
G04 Layer_Color=16711935*
%ADD10R,0.0126X0.0354*%
%ADD11R,0.0315X0.0126*%
%ADD12R,0.0118X0.0177*%
%ADD13R,0.0177X0.0118*%
%ADD14O,0.0118X0.0354*%
%ADD15O,0.0354X0.0118*%
%ADD16R,0.0866X0.0787*%
%ADD17R,0.0433X0.0551*%
%ADD18R,0.0551X0.0433*%
%ADD19C,0.0100*%
%ADD20C,0.0080*%
%ADD21C,0.0591*%
%ADD22R,0.0591X0.0591*%
%ADD23C,0.0300*%
%ADD24C,0.0098*%
%ADD25C,0.0079*%
%ADD26R,0.0206X0.0434*%
%ADD27R,0.0395X0.0206*%
%ADD28R,0.0198X0.0257*%
%ADD29R,0.0257X0.0198*%
%ADD30O,0.0198X0.0434*%
%ADD31O,0.0434X0.0198*%
%ADD32R,0.0946X0.0867*%
%ADD33R,0.0513X0.0631*%
%ADD34R,0.0631X0.0513*%
%ADD35C,0.0671*%
%ADD36R,0.0671X0.0671*%
%ADD37C,0.0380*%
%ADD38C,0.0060*%
D19*
X025780Y027200D02*
Y030350D01*
X020500Y027200D02*
Y030350D01*
X019500Y027300D02*
X020500D01*
X025780D02*
X026780D01*
X019900Y027500D02*
X020500Y027300D01*
X019900Y027100D02*
X020500Y027300D01*
X025780D02*
X026380Y027100D01*
X025780Y027300D02*
X026380Y027500D01*
X015900Y044500D02*
X020350D01*
X015900Y030500D02*
X020350D01*
X016000Y040949D02*
Y044500D01*
Y030500D02*
Y033731D01*
X015800Y043900D02*
X016000Y044500D01*
X016200Y043900D01*
X016000Y030500D02*
X016200Y031100D01*
X015800D02*
X016000Y030500D01*
D38*
X020181Y026460D02*
X019781D01*
Y026160D01*
X019981Y026260D01*
X020081D01*
X020181Y026160D01*
Y025960D01*
X020081Y025860D01*
X019881D01*
X019781Y025960D01*
X020781Y025860D02*
X020381D01*
X020781Y026260D01*
Y026360D01*
X020681Y026460D01*
X020481D01*
X020381Y026360D01*
X020981D02*
X021081Y026460D01*
X021281D01*
X021381Y026360D01*
Y026260D01*
X021281Y026160D01*
X021381Y026060D01*
Y025960D01*
X021281Y025860D01*
X021081D01*
X020981Y025960D01*
Y026060D01*
X021081Y026160D01*
X020981Y026260D01*
Y026360D01*
X021081Y026160D02*
X021281D01*
X021580Y025860D02*
Y025960D01*
X021680D01*
Y025860D01*
X021580D01*
X022080Y026360D02*
X022180Y026460D01*
X022380D01*
X022480Y026360D01*
Y025960D01*
X022380Y025860D01*
X022180D01*
X022080Y025960D01*
Y026360D01*
X022680D02*
X022780Y026460D01*
X022980D01*
X023080Y026360D01*
Y025960D01*
X022980Y025860D01*
X022780D01*
X022680Y025960D01*
Y026360D01*
X023280D02*
X023380Y026460D01*
X023580D01*
X023680Y026360D01*
Y026260D01*
X023480Y026060D01*
Y025960D02*
Y025860D01*
X024080D02*
X023880Y026060D01*
Y026260D01*
X024080Y026460D01*
X024380Y025860D02*
Y026260D01*
X024480D01*
X024579Y026160D01*
Y025860D01*
Y026160D01*
X024679Y026260D01*
X024779Y026160D01*
Y025860D01*
X024979D02*
X025179D01*
X025079D01*
Y026260D01*
X024979D01*
X025479Y025860D02*
X025679D01*
X025579D01*
Y026460D01*
X025479D01*
X025979Y025860D02*
X026179Y026060D01*
Y026260D01*
X025979Y026460D01*
X016360Y033891D02*
Y034091D01*
Y033991D01*
X015760D01*
X015860Y033891D01*
X016360Y034691D02*
X015760D01*
X016060Y034391D01*
Y034791D01*
X015860Y034991D02*
X015760Y035091D01*
Y035291D01*
X015860Y035391D01*
X016260D01*
X016360Y035291D01*
Y035091D01*
X016260Y034991D01*
X015860D01*
Y035591D02*
X015760Y035691D01*
Y035890D01*
X015860Y035990D01*
X016260D01*
X016360Y035890D01*
Y035691D01*
X016260Y035591D01*
X015860D01*
X016360Y036190D02*
X016260D01*
Y036290D01*
X016360D01*
Y036190D01*
X015860Y036690D02*
X015760Y036790D01*
Y036990D01*
X015860Y037090D01*
X016260D01*
X016360Y036990D01*
Y036790D01*
X016260Y036690D01*
X015860D01*
Y037290D02*
X015760Y037390D01*
Y037590D01*
X015860Y037690D01*
X016260D01*
X016360Y037590D01*
Y037390D01*
X016260Y037290D01*
X015860D01*
Y037890D02*
X015760Y037990D01*
Y038190D01*
X015860Y038290D01*
X015960D01*
X016160Y038090D01*
X016260D02*
X016360D01*
Y038690D02*
X016160Y038490D01*
X015960D01*
X015760Y038690D01*
X016360Y038989D02*
X015960D01*
Y039089D01*
X016060Y039189D01*
X016360D01*
X016060D01*
X015960Y039289D01*
X016060Y039389D01*
X016360D01*
Y039589D02*
Y039789D01*
Y039689D01*
X015960D01*
Y039589D01*
X016360Y040089D02*
Y040289D01*
Y040189D01*
X015760D01*
Y040089D01*
X016360Y040589D02*
X016160Y040789D01*
X015960D01*
X015760Y040589D01*
M02*
