%FSAX24Y24*%
%MOIN*%
G70*
G01*
G75*
G04 Layer_Physical_Order=2*
G04 Layer_Color=16711680*
%ADD10R,0.0126X0.0354*%
%ADD11R,0.0315X0.0126*%
%ADD12R,0.0118X0.0177*%
%ADD13R,0.0177X0.0118*%
%ADD14O,0.0118X0.0354*%
%ADD15O,0.0354X0.0118*%
%ADD16R,0.0866X0.0787*%
%ADD17R,0.0433X0.0551*%
%ADD18R,0.0551X0.0433*%
%ADD19C,0.0100*%
%ADD20C,0.0080*%
%ADD21C,0.0591*%
%ADD22R,0.0591X0.0591*%
%ADD23C,0.0300*%
G36*
X026050Y044800D02*
Y030200D01*
X020150D01*
Y044850D01*
X026000D01*
X026050Y044800D01*
D02*
G37*
%LPC*%
G36*
X025780Y044612D02*
X020500D01*
X020457Y044604D01*
X020421Y044579D01*
X020396Y044543D01*
X020388Y044500D01*
Y030500D01*
X020396Y030457D01*
X020421Y030421D01*
X020457Y030396D01*
X020500Y030388D01*
X025780D01*
X025823Y030396D01*
X025859Y030421D01*
X025884Y030457D01*
X025892Y030500D01*
Y044500D01*
X025884Y044543D01*
X025859Y044579D01*
X025823Y044604D01*
X025780Y044612D01*
D02*
G37*
%LPD*%
G36*
X021463Y044342D02*
X021221Y044099D01*
X021196Y044063D01*
X021188Y044020D01*
X021188Y044020D01*
Y042378D01*
X021149Y042351D01*
X021102Y042282D01*
X021086Y042200D01*
X021102Y042118D01*
X021149Y042049D01*
X021218Y042002D01*
X021300Y041986D01*
X021382Y042002D01*
X021451Y042049D01*
X021498Y042118D01*
X021514Y042200D01*
X021498Y042282D01*
X021451Y042351D01*
X021412Y042378D01*
Y043974D01*
X021646Y044208D01*
X024650D01*
X024673Y044164D01*
X024652Y044132D01*
X024636Y044050D01*
X024652Y043968D01*
X024699Y043899D01*
X024768Y043852D01*
X024850Y043836D01*
X024932Y043852D01*
X025001Y043899D01*
X025048Y043968D01*
X025058Y044019D01*
X025246Y044208D01*
X025484D01*
X025488Y044204D01*
Y038036D01*
X025442Y038017D01*
X025429Y038029D01*
X025393Y038054D01*
X025350Y038062D01*
X025350Y038062D01*
X024161D01*
X023710Y038513D01*
X023720Y038559D01*
X023710Y038605D01*
X023979Y038874D01*
X023979Y038874D01*
X023999Y038903D01*
X024046Y038889D01*
Y038412D01*
X024065Y038366D01*
X024111Y038347D01*
X024793D01*
X024838Y038366D01*
X024857Y038412D01*
Y039097D01*
X024838Y039143D01*
X024793Y039162D01*
X024111D01*
X024065Y039143D01*
X024061Y039133D01*
X024012Y039143D01*
Y039572D01*
X024051Y039599D01*
X024098Y039668D01*
X024114Y039750D01*
X024098Y039832D01*
X024051Y039901D01*
X023982Y039948D01*
X023900Y039964D01*
X023818Y039948D01*
X023749Y039901D01*
X023702Y039832D01*
X023686Y039750D01*
X023695Y039704D01*
X023554Y039562D01*
X021228D01*
X021201Y039601D01*
X021132Y039648D01*
X021050Y039664D01*
X020968Y039648D01*
X020899Y039601D01*
X020852Y039532D01*
X020836Y039450D01*
X020852Y039368D01*
X020899Y039299D01*
X020968Y039252D01*
X021050Y039236D01*
X021132Y039252D01*
X021201Y039299D01*
X021228Y039338D01*
X023600D01*
X023600Y039338D01*
X023643Y039346D01*
X023679Y039371D01*
X023742Y039433D01*
X023788Y039414D01*
Y039000D01*
X023552Y038764D01*
X023505Y038773D01*
X023424Y038757D01*
X023354Y038710D01*
X023308Y038641D01*
X023291Y038559D01*
X023308Y038477D01*
X023354Y038408D01*
X023424Y038361D01*
X023505Y038345D01*
X023552Y038354D01*
X023996Y037910D01*
X023996Y037907D01*
X024021Y037871D01*
X024057Y037846D01*
X024100Y037838D01*
X025304D01*
X025488Y037654D01*
Y030976D01*
X025304Y030792D01*
X020846D01*
X020792Y030846D01*
Y032284D01*
X020846Y032338D01*
X021012D01*
X021040Y032271D01*
X021097Y032197D01*
X021171Y032140D01*
X021257Y032104D01*
X021350Y032092D01*
X021443Y032104D01*
X021529Y032140D01*
X021603Y032197D01*
X021660Y032271D01*
X021696Y032357D01*
X021708Y032450D01*
X021696Y032543D01*
X021660Y032629D01*
X021603Y032703D01*
X021529Y032760D01*
X021443Y032796D01*
X021350Y032808D01*
X021257Y032796D01*
X021171Y032760D01*
X021097Y032703D01*
X021040Y032629D01*
X021012Y032562D01*
X020800D01*
X020800Y032562D01*
X020757Y032554D01*
X020721Y032529D01*
X020721Y032529D01*
X020658Y032467D01*
X020612Y032486D01*
Y044388D01*
X021444D01*
X021463Y044342D01*
D02*
G37*
%LPC*%
G36*
X022850Y036400D02*
X022696D01*
X022702Y036368D01*
X022749Y036299D01*
X022818Y036252D01*
X022850Y036246D01*
Y036400D01*
D02*
G37*
G36*
X024600Y034854D02*
Y034700D01*
X024754D01*
X024748Y034732D01*
X024701Y034801D01*
X024632Y034848D01*
X024600Y034854D01*
D02*
G37*
G36*
X024500D02*
X024468Y034848D01*
X024399Y034801D01*
X024352Y034732D01*
X024346Y034700D01*
X024500D01*
Y034854D01*
D02*
G37*
G36*
X023104Y036400D02*
X022950D01*
Y036246D01*
X022982Y036252D01*
X023051Y036299D01*
X023098Y036368D01*
X023104Y036400D01*
D02*
G37*
G36*
X022950Y036654D02*
Y036500D01*
X023104D01*
X023098Y036532D01*
X023051Y036601D01*
X022982Y036648D01*
X022950Y036654D01*
D02*
G37*
G36*
X022300Y037200D02*
X022146D01*
X022152Y037168D01*
X022199Y037099D01*
X022268Y037052D01*
X022300Y037046D01*
Y037200D01*
D02*
G37*
G36*
X022850Y036654D02*
X022818Y036648D01*
X022749Y036601D01*
X022702Y036532D01*
X022696Y036500D01*
X022850D01*
Y036654D01*
D02*
G37*
G36*
X021705Y031400D02*
X021400D01*
Y031095D01*
X021705D01*
Y031400D01*
D02*
G37*
G36*
X021300Y031805D02*
X020995D01*
Y031500D01*
X021300D01*
Y031805D01*
D02*
G37*
G36*
X025255Y031705D02*
X024545D01*
Y030995D01*
X025255D01*
Y031705D01*
D02*
G37*
G36*
X021300Y031400D02*
X020995D01*
Y031095D01*
X021300D01*
Y031400D01*
D02*
G37*
G36*
X024500Y034600D02*
X024346D01*
X024352Y034568D01*
X024399Y034499D01*
X024468Y034452D01*
X024500Y034446D01*
Y034600D01*
D02*
G37*
G36*
X024754D02*
X024600D01*
Y034446D01*
X024632Y034452D01*
X024701Y034499D01*
X024748Y034568D01*
X024754Y034600D01*
D02*
G37*
G36*
X021705Y031805D02*
X021400D01*
Y031500D01*
X021705D01*
Y031805D01*
D02*
G37*
G36*
X024900Y032708D02*
X024807Y032696D01*
X024721Y032660D01*
X024647Y032603D01*
X024590Y032529D01*
X024554Y032443D01*
X024542Y032350D01*
X024554Y032257D01*
X024590Y032171D01*
X024647Y032097D01*
X024721Y032040D01*
X024807Y032004D01*
X024900Y031992D01*
X024993Y032004D01*
X025079Y032040D01*
X025153Y032097D01*
X025210Y032171D01*
X025246Y032257D01*
X025258Y032350D01*
X025246Y032443D01*
X025210Y032529D01*
X025153Y032603D01*
X025079Y032660D01*
X024993Y032696D01*
X024900Y032708D01*
D02*
G37*
G36*
X022554Y037200D02*
X022400D01*
Y037046D01*
X022432Y037052D01*
X022501Y037099D01*
X022548Y037168D01*
X022554Y037200D01*
D02*
G37*
G36*
X023850Y041104D02*
Y040950D01*
X024004D01*
X023998Y040982D01*
X023951Y041051D01*
X023882Y041098D01*
X023850Y041104D01*
D02*
G37*
G36*
X023583Y042699D02*
X022518D01*
X022472Y042680D01*
X022453Y042634D01*
Y041565D01*
X022472Y041519D01*
X022518Y041500D01*
X023583D01*
X023629Y041519D01*
X023648Y041565D01*
Y042634D01*
X023629Y042680D01*
X023583Y042699D01*
D02*
G37*
G36*
X024004Y040850D02*
X023850D01*
Y040696D01*
X023882Y040702D01*
X023951Y040749D01*
X023998Y040818D01*
X024004Y040850D01*
D02*
G37*
G36*
X023750Y041104D02*
X023718Y041098D01*
X023649Y041051D01*
X023602Y040982D01*
X023596Y040950D01*
X023750D01*
Y041104D01*
D02*
G37*
G36*
X022769Y044123D02*
X022737Y044117D01*
X022667Y044070D01*
X022621Y044001D01*
X022615Y043969D01*
X022769D01*
Y044123D01*
D02*
G37*
G36*
X022869D02*
Y043969D01*
X023023D01*
X023017Y044001D01*
X022970Y044070D01*
X022901Y044117D01*
X022869Y044123D01*
D02*
G37*
G36*
X022769Y043869D02*
X022615D01*
X022621Y043837D01*
X022667Y043767D01*
X022737Y043721D01*
X022769Y043715D01*
Y043869D01*
D02*
G37*
G36*
X023023D02*
X022869D01*
Y043715D01*
X022901Y043721D01*
X022970Y043767D01*
X023017Y043837D01*
X023023Y043869D01*
D02*
G37*
G36*
X023750Y040850D02*
X023596D01*
X023602Y040818D01*
X023649Y040749D01*
X023718Y040702D01*
X023750Y040696D01*
Y040850D01*
D02*
G37*
G36*
X022316Y038994D02*
X021832D01*
X021786Y038975D01*
X021767Y038929D01*
Y038485D01*
X021786Y038439D01*
X021832Y038420D01*
X022316D01*
X022361Y038439D01*
X022380Y038485D01*
Y038929D01*
X022361Y038975D01*
X022316Y038994D01*
D02*
G37*
G36*
X025045Y039679D02*
X024891D01*
X024897Y039648D01*
X024944Y039578D01*
X025013Y039532D01*
X025045Y039525D01*
Y039679D01*
D02*
G37*
G36*
X022300Y037454D02*
X022268Y037448D01*
X022199Y037401D01*
X022152Y037332D01*
X022146Y037300D01*
X022300D01*
Y037454D01*
D02*
G37*
G36*
X022400D02*
Y037300D01*
X022554D01*
X022548Y037332D01*
X022501Y037401D01*
X022432Y037448D01*
X022400Y037454D01*
D02*
G37*
G36*
X025145Y039934D02*
Y039779D01*
X025299D01*
X025293Y039811D01*
X025246Y039881D01*
X025177Y039927D01*
X025145Y039934D01*
D02*
G37*
G36*
X023300Y040564D02*
X023218Y040548D01*
X023149Y040501D01*
X023102Y040432D01*
X023086Y040350D01*
X023095Y040304D01*
X022954Y040162D01*
X021463D01*
X021440Y040206D01*
X021448Y040218D01*
X021464Y040300D01*
X021448Y040382D01*
X021401Y040451D01*
X021332Y040498D01*
X021250Y040514D01*
X021168Y040498D01*
X021099Y040451D01*
X021052Y040382D01*
X021036Y040300D01*
X021052Y040218D01*
X021099Y040149D01*
X021168Y040102D01*
X021194Y040097D01*
X021321Y039971D01*
X021357Y039946D01*
X021400Y039938D01*
X021400Y039938D01*
X023000D01*
X023000Y039938D01*
X023043Y039946D01*
X023079Y039971D01*
X023254Y040145D01*
X023300Y040136D01*
X023382Y040152D01*
X023451Y040199D01*
X023498Y040268D01*
X023514Y040350D01*
X023498Y040432D01*
X023451Y040501D01*
X023382Y040548D01*
X023300Y040564D01*
D02*
G37*
G36*
X025299Y039679D02*
X025145D01*
Y039525D01*
X025177Y039532D01*
X025246Y039578D01*
X025293Y039648D01*
X025299Y039679D01*
D02*
G37*
G36*
X025045Y039934D02*
X025013Y039927D01*
X024944Y039881D01*
X024897Y039811D01*
X024891Y039779D01*
X025045D01*
Y039934D01*
D02*
G37*
%LPD*%
D19*
X021400Y040050D02*
X023000D01*
X023300Y040350D01*
X023505Y038559D02*
X023900Y038953D01*
Y039750D01*
X023600Y039450D02*
X023900Y039750D01*
X021050Y039450D02*
X023600D01*
X025350Y030680D02*
X025600Y030930D01*
X020800Y030680D02*
X025350D01*
X020680Y030800D02*
X020800Y030680D01*
X020680Y030800D02*
Y032330D01*
X020800Y032450D01*
X021350D01*
X025600Y030930D02*
Y037700D01*
X025350Y037950D02*
X025600Y037700D01*
X024100Y037950D02*
X025350D01*
X024100D02*
Y037964D01*
X023505Y038559D02*
X024100Y037964D01*
X024850Y044050D02*
X024930D01*
X025200Y044320D01*
X025530D02*
X025600Y044250D01*
Y037700D02*
Y044250D01*
X021250Y040200D02*
X021400Y040050D01*
X021250Y040200D02*
Y040300D01*
X025200Y044320D02*
X025530D01*
X021300Y044020D02*
X021600Y044320D01*
X021300Y042200D02*
Y044020D01*
X021600Y044320D02*
X025200D01*
D21*
X024900Y032350D02*
D03*
X021350Y032450D02*
D03*
D22*
X024900Y031350D02*
D03*
X021350Y031450D02*
D03*
D23*
X023800Y040900D02*
D03*
X023300Y040350D02*
D03*
X025095Y039729D02*
D03*
X021050Y039450D02*
D03*
X023505Y038559D02*
D03*
X022819Y043919D02*
D03*
X023900Y039750D02*
D03*
X024850Y044050D02*
D03*
X022350Y037250D02*
D03*
X024550Y034650D02*
D03*
X022900Y036450D02*
D03*
X021250Y040300D02*
D03*
X021300Y042200D02*
D03*
M02*
