%FSAX24Y24*%
%MOIN*%
G70*
G01*
G75*
%ADD10R,0.0591X0.0512*%
%ADD11R,0.0866X0.0787*%
%ADD12R,0.0354X0.0114*%
%ADD13R,0.0114X0.0354*%
%ADD14R,0.0394X0.0114*%
%ADD15R,0.0114X0.0394*%
%ADD16R,0.0512X0.0114*%
%ADD17R,0.0126X0.0512*%
%ADD18C,0.0200*%
%ADD19C,0.0080*%
%ADD20C,0.0100*%
%ADD21C,0.0591*%
%ADD22R,0.0591X0.0591*%
%ADD23C,0.0350*%
%ADD24R,0.0649X0.0649*%
%ADD25R,0.1032X0.1035*%
%ADD26R,0.0532X0.0524*%
%ADD27C,0.0050*%
%ADD28C,0.0067*%
D27*
X022373Y031000D02*
X022727D01*
X022550Y030823D02*
Y031177D01*
X023373Y031000D02*
X023727D01*
X023550Y030823D02*
Y031177D01*
X022373Y039350D02*
X022727D01*
X022550Y039173D02*
Y039527D01*
X023373Y039350D02*
X023727D01*
X023550Y039173D02*
Y039527D01*
X024225Y030850D02*
X024475D01*
X024350Y030725D02*
Y030975D01*
X021375Y031650D02*
X021625D01*
X021500Y031525D02*
Y031775D01*
X021825Y033500D02*
X022075D01*
X021950Y033375D02*
Y033625D01*
X021375Y039300D02*
X021625D01*
X021500Y039175D02*
Y039425D01*
X024375Y039350D02*
X024625D01*
X024500Y039225D02*
Y039475D01*
X023325Y035900D02*
X023575D01*
X023450Y035775D02*
Y036025D01*
X023825Y036450D02*
X024075D01*
X023950Y036325D02*
Y036575D01*
X023825Y035250D02*
X024075D01*
X023950Y035125D02*
Y035375D01*
X022175Y035350D02*
X022425D01*
X022300Y035225D02*
Y035475D01*
X023725Y033800D02*
X023975D01*
X023850Y033675D02*
Y033925D01*
X021325Y033850D02*
X021575D01*
X021450Y033725D02*
Y033975D01*
X024725Y032050D02*
X024975D01*
X024850Y031925D02*
Y032175D01*
X022375Y035850D02*
X022625D01*
X022500Y035725D02*
Y035975D01*
X024825Y038850D02*
X025075D01*
X024950Y038725D02*
Y038975D01*
X023975Y032550D02*
X024225D01*
X024100Y032425D02*
Y032675D01*
X021175Y036700D02*
X021425D01*
X021300Y036575D02*
Y036825D01*
X021575Y038700D02*
X021825D01*
X021700Y038575D02*
Y038825D01*
X024525Y031250D02*
X024775D01*
X024650Y031125D02*
Y031375D01*
M02*
