%FSAX24Y24*%
%MOIN*%
G70*
G01*
G75*
%ADD10R,0.0126X0.0354*%
%ADD11R,0.0315X0.0126*%
%ADD12R,0.0118X0.0177*%
%ADD13R,0.0177X0.0118*%
%ADD14O,0.0118X0.0354*%
%ADD15O,0.0354X0.0118*%
%ADD16R,0.0866X0.0787*%
%ADD17R,0.0433X0.0551*%
%ADD18R,0.0551X0.0433*%
%ADD19C,0.0100*%
%ADD20C,0.0080*%
%ADD21C,0.0591*%
%ADD22R,0.0591X0.0591*%
%ADD23C,0.0300*%
%ADD24C,0.0098*%
%ADD25C,0.0079*%
G36*
X024236Y039640D02*
X024187D01*
Y039961D01*
X024075Y039640D01*
X024030D01*
X023919Y039967D01*
Y039640D01*
X023870D01*
Y040024D01*
X023946D01*
X024037Y039752D01*
Y039751D01*
X024038Y039750D01*
X024038Y039748D01*
X024039Y039745D01*
X024041Y039739D01*
X024044Y039730D01*
X024047Y039721D01*
X024050Y039712D01*
X024053Y039703D01*
X024055Y039695D01*
X024056Y039696D01*
X024056Y039699D01*
X024058Y039704D01*
X024060Y039710D01*
X024063Y039719D01*
X024067Y039730D01*
X024071Y039742D01*
X024076Y039757D01*
X024168Y040024D01*
X024236D01*
Y039640D01*
D02*
G37*
G36*
X024866Y040030D02*
X024871D01*
X024881Y040029D01*
X024893Y040027D01*
X024905Y040025D01*
X024918Y040021D01*
X024931Y040017D01*
X024932D01*
X024933Y040016D01*
X024934Y040016D01*
X024937Y040015D01*
X024943Y040011D01*
X024951Y040007D01*
X024959Y040002D01*
X024968Y039995D01*
X024976Y039988D01*
X024984Y039979D01*
X024985Y039978D01*
X024987Y039975D01*
X024991Y039970D01*
X024995Y039962D01*
X024999Y039954D01*
X025004Y039942D01*
X025009Y039930D01*
X025013Y039916D01*
X024967Y039904D01*
Y039905D01*
X024967Y039905D01*
X024966Y039907D01*
X024966Y039909D01*
X024964Y039914D01*
X024962Y039921D01*
X024958Y039929D01*
X024954Y039936D01*
X024951Y039944D01*
X024946Y039950D01*
X024945Y039951D01*
X024943Y039953D01*
X024940Y039956D01*
X024936Y039960D01*
X024931Y039964D01*
X024924Y039969D01*
X024917Y039973D01*
X024909Y039977D01*
X024908Y039977D01*
X024905Y039979D01*
X024900Y039980D01*
X024893Y039982D01*
X024886Y039984D01*
X024877Y039986D01*
X024867Y039987D01*
X024856Y039987D01*
X024850D01*
X024847Y039987D01*
X024844D01*
X024836Y039986D01*
X024826Y039985D01*
X024816Y039983D01*
X024806Y039980D01*
X024796Y039976D01*
X024795Y039976D01*
X024791Y039975D01*
X024787Y039972D01*
X024781Y039969D01*
X024775Y039965D01*
X024767Y039960D01*
X024761Y039955D01*
X024755Y039949D01*
X024754Y039948D01*
X024752Y039946D01*
X024749Y039942D01*
X024746Y039937D01*
X024742Y039932D01*
X024738Y039925D01*
X024734Y039918D01*
X024730Y039910D01*
Y039910D01*
X024730Y039909D01*
X024729Y039907D01*
X024728Y039904D01*
X024727Y039901D01*
X024726Y039897D01*
X024724Y039893D01*
X024723Y039888D01*
X024720Y039876D01*
X024718Y039863D01*
X024716Y039849D01*
X024716Y039833D01*
Y039833D01*
Y039831D01*
Y039828D01*
X024716Y039825D01*
Y039820D01*
X024717Y039815D01*
X024717Y039809D01*
X024718Y039803D01*
X024720Y039789D01*
X024723Y039775D01*
X024727Y039760D01*
X024733Y039747D01*
Y039746D01*
X024734Y039745D01*
X024735Y039743D01*
X024736Y039741D01*
X024740Y039735D01*
X024746Y039727D01*
X024754Y039719D01*
X024762Y039710D01*
X024773Y039703D01*
X024785Y039695D01*
X024785D01*
X024786Y039695D01*
X024788Y039694D01*
X024791Y039693D01*
X024794Y039692D01*
X024797Y039690D01*
X024806Y039687D01*
X024817Y039684D01*
X024830Y039682D01*
X024843Y039679D01*
X024857Y039679D01*
X024862D01*
X024866Y039679D01*
X024869D01*
X024877Y039681D01*
X024887Y039682D01*
X024898Y039684D01*
X024910Y039687D01*
X024921Y039691D01*
X024922D01*
X024923Y039692D01*
X024924Y039692D01*
X024926Y039693D01*
X024932Y039696D01*
X024939Y039699D01*
X024947Y039703D01*
X024955Y039708D01*
X024963Y039713D01*
X024969Y039718D01*
Y039790D01*
X024856D01*
Y039836D01*
X025019D01*
Y039693D01*
X025019Y039693D01*
X025018Y039692D01*
X025016Y039690D01*
X025013Y039688D01*
X025009Y039686D01*
X025006Y039683D01*
X025001Y039680D01*
X024996Y039677D01*
X024984Y039669D01*
X024971Y039662D01*
X024957Y039654D01*
X024942Y039648D01*
X024941D01*
X024940Y039648D01*
X024938Y039647D01*
X024935Y039646D01*
X024931Y039645D01*
X024927Y039643D01*
X024922Y039642D01*
X024917Y039641D01*
X024905Y039638D01*
X024891Y039636D01*
X024876Y039634D01*
X024860Y039633D01*
X024855D01*
X024851Y039634D01*
X024846D01*
X024840Y039634D01*
X024833Y039636D01*
X024826Y039636D01*
X024810Y039639D01*
X024792Y039643D01*
X024775Y039649D01*
X024766Y039653D01*
X024757Y039657D01*
X024756Y039658D01*
X024755Y039658D01*
X024752Y039660D01*
X024749Y039662D01*
X024745Y039664D01*
X024741Y039667D01*
X024731Y039675D01*
X024720Y039685D01*
X024708Y039697D01*
X024697Y039711D01*
X024687Y039727D01*
Y039728D01*
X024686Y039729D01*
X024685Y039732D01*
X024683Y039735D01*
X024681Y039739D01*
X024680Y039745D01*
X024678Y039750D01*
X024675Y039757D01*
X024673Y039764D01*
X024671Y039773D01*
X024669Y039781D01*
X024668Y039790D01*
X024665Y039809D01*
X024664Y039830D01*
Y039830D01*
Y039833D01*
Y039835D01*
X024664Y039839D01*
Y039844D01*
X024665Y039850D01*
X024666Y039856D01*
X024666Y039864D01*
X024668Y039871D01*
X024669Y039880D01*
X024674Y039898D01*
X024679Y039916D01*
X024687Y039934D01*
X024688Y039935D01*
X024688Y039936D01*
X024689Y039939D01*
X024691Y039942D01*
X024694Y039946D01*
X024696Y039951D01*
X024704Y039961D01*
X024714Y039974D01*
X024725Y039985D01*
X024739Y039997D01*
X024746Y040002D01*
X024754Y040007D01*
X024755Y040007D01*
X024756Y040008D01*
X024759Y040009D01*
X024762Y040011D01*
X024766Y040012D01*
X024771Y040015D01*
X024777Y040017D01*
X024784Y040019D01*
X024791Y040021D01*
X024799Y040023D01*
X024807Y040025D01*
X024816Y040027D01*
X024835Y040030D01*
X024845Y040031D01*
X024863D01*
X024866Y040030D01*
D02*
G37*
G36*
X024636Y039640D02*
X024578D01*
X024533Y039757D01*
X024372D01*
X024331Y039640D01*
X024277D01*
X024423Y040024D01*
X024479D01*
X024636Y039640D01*
D02*
G37*
G36*
X025114Y041332D02*
X025113Y041331D01*
X025112Y041330D01*
X025110Y041328D01*
X025107Y041325D01*
X025104Y041321D01*
X025100Y041316D01*
X025095Y041311D01*
X025090Y041304D01*
X025085Y041297D01*
X025079Y041290D01*
X025073Y041281D01*
X025067Y041272D01*
X025060Y041262D01*
X025054Y041251D01*
X025047Y041240D01*
X025040Y041228D01*
X025040Y041228D01*
X025039Y041225D01*
X025037Y041222D01*
X025034Y041217D01*
X025031Y041211D01*
X025028Y041204D01*
X025024Y041196D01*
X025020Y041188D01*
X025016Y041178D01*
X025011Y041168D01*
X025006Y041157D01*
X025002Y041145D01*
X024993Y041121D01*
X024985Y041095D01*
Y041095D01*
X024984Y041093D01*
X024984Y041090D01*
X024983Y041087D01*
X024981Y041083D01*
X024980Y041077D01*
X024979Y041071D01*
X024978Y041064D01*
X024976Y041057D01*
X024974Y041048D01*
X024971Y041031D01*
X024969Y041011D01*
X024967Y040990D01*
X024919D01*
Y040991D01*
Y040992D01*
Y040994D01*
X024919Y040998D01*
Y041002D01*
X024920Y041008D01*
X024920Y041014D01*
X024921Y041021D01*
X024922Y041028D01*
X024923Y041036D01*
X024925Y041045D01*
X024926Y041055D01*
X024928Y041065D01*
X024930Y041076D01*
X024936Y041099D01*
Y041099D01*
X024936Y041102D01*
X024938Y041105D01*
X024939Y041110D01*
X024941Y041115D01*
X024943Y041122D01*
X024945Y041130D01*
X024949Y041138D01*
X024952Y041148D01*
X024955Y041157D01*
X024964Y041178D01*
X024974Y041200D01*
X024985Y041223D01*
X024985Y041223D01*
X024986Y041225D01*
X024988Y041228D01*
X024990Y041233D01*
X024993Y041238D01*
X024997Y041244D01*
X025001Y041250D01*
X025005Y041258D01*
X025016Y041274D01*
X025027Y041290D01*
X025040Y041307D01*
X025053Y041324D01*
X024865D01*
Y041369D01*
X025114D01*
Y041332D01*
D02*
G37*
G36*
X024370Y041380D02*
X024375Y041380D01*
X024381Y041379D01*
X024388Y041378D01*
X024395Y041377D01*
X024410Y041374D01*
X024426Y041369D01*
X024435Y041365D01*
X024443Y041361D01*
X024450Y041356D01*
X024458Y041351D01*
X024459Y041351D01*
X024460Y041350D01*
X024462Y041349D01*
X024465Y041346D01*
X024467Y041343D01*
X024471Y041339D01*
X024475Y041335D01*
X024480Y041330D01*
X024484Y041325D01*
X024489Y041318D01*
X024494Y041311D01*
X024498Y041304D01*
X024502Y041296D01*
X024506Y041287D01*
X024510Y041279D01*
X024513Y041269D01*
X024463Y041257D01*
Y041258D01*
X024462Y041259D01*
X024461Y041261D01*
X024460Y041264D01*
X024459Y041267D01*
X024457Y041271D01*
X024453Y041280D01*
X024448Y041290D01*
X024441Y041300D01*
X024433Y041310D01*
X024424Y041318D01*
X024423Y041319D01*
X024419Y041321D01*
X024414Y041324D01*
X024406Y041328D01*
X024397Y041331D01*
X024386Y041335D01*
X024374Y041337D01*
X024360Y041337D01*
X024355D01*
X024353Y041337D01*
X024349D01*
X024344Y041336D01*
X024334Y041335D01*
X024322Y041332D01*
X024310Y041329D01*
X024297Y041323D01*
X024285Y041316D01*
X024285D01*
X024284Y041315D01*
X024280Y041312D01*
X024275Y041307D01*
X024269Y041301D01*
X024262Y041292D01*
X024255Y041283D01*
X024249Y041271D01*
X024244Y041259D01*
Y041258D01*
X024243Y041257D01*
X024243Y041255D01*
X024242Y041253D01*
X024241Y041249D01*
X024240Y041245D01*
X024238Y041236D01*
X024236Y041225D01*
X024234Y041213D01*
X024233Y041199D01*
X024232Y041185D01*
Y041184D01*
Y041183D01*
Y041180D01*
Y041176D01*
X024233Y041173D01*
Y041168D01*
X024233Y041162D01*
X024234Y041156D01*
X024235Y041143D01*
X024238Y041128D01*
X024242Y041114D01*
X024246Y041099D01*
Y041099D01*
X024247Y041098D01*
X024248Y041096D01*
X024249Y041093D01*
X024252Y041087D01*
X024257Y041079D01*
X024263Y041070D01*
X024271Y041060D01*
X024280Y041052D01*
X024290Y041044D01*
X024291D01*
X024292Y041044D01*
X024294Y041043D01*
X024296Y041042D01*
X024299Y041041D01*
X024302Y041039D01*
X024310Y041036D01*
X024320Y041032D01*
X024331Y041029D01*
X024343Y041027D01*
X024356Y041027D01*
X024360D01*
X024363Y041027D01*
X024367D01*
X024371Y041028D01*
X024381Y041030D01*
X024393Y041033D01*
X024404Y041037D01*
X024416Y041043D01*
X024423Y041047D01*
X024428Y041051D01*
X024429Y041052D01*
X024429Y041052D01*
X024431Y041054D01*
X024433Y041055D01*
X024435Y041058D01*
X024438Y041062D01*
X024441Y041065D01*
X024444Y041069D01*
X024448Y041074D01*
X024451Y041080D01*
X024455Y041085D01*
X024458Y041092D01*
X024461Y041099D01*
X024464Y041107D01*
X024466Y041115D01*
X024469Y041124D01*
X024520Y041112D01*
Y041111D01*
X024519Y041109D01*
X024518Y041105D01*
X024516Y041101D01*
X024515Y041096D01*
X024512Y041090D01*
X024510Y041083D01*
X024506Y041076D01*
X024499Y041060D01*
X024489Y041045D01*
X024482Y041037D01*
X024476Y041029D01*
X024470Y041023D01*
X024462Y041016D01*
X024461Y041016D01*
X024460Y041014D01*
X024457Y041013D01*
X024455Y041011D01*
X024450Y041008D01*
X024446Y041006D01*
X024440Y041003D01*
X024434Y041000D01*
X024426Y040997D01*
X024419Y040994D01*
X024410Y040991D01*
X024401Y040988D01*
X024392Y040986D01*
X024382Y040985D01*
X024371Y040984D01*
X024360Y040983D01*
X024354D01*
X024350Y040984D01*
X024345D01*
X024339Y040984D01*
X024332Y040986D01*
X024324Y040987D01*
X024308Y040989D01*
X024292Y040994D01*
X024275Y041000D01*
X024267Y041004D01*
X024259Y041008D01*
X024259Y041009D01*
X024258Y041009D01*
X024255Y041011D01*
X024253Y041013D01*
X024250Y041016D01*
X024246Y041019D01*
X024242Y041023D01*
X024237Y041027D01*
X024233Y041032D01*
X024228Y041037D01*
X024218Y041050D01*
X024208Y041065D01*
X024200Y041082D01*
Y041082D01*
X024199Y041084D01*
X024198Y041087D01*
X024197Y041090D01*
X024196Y041094D01*
X024194Y041100D01*
X024192Y041106D01*
X024190Y041113D01*
X024188Y041120D01*
X024186Y041128D01*
X024183Y041145D01*
X024181Y041165D01*
X024180Y041185D01*
Y041185D01*
Y041188D01*
Y041191D01*
X024181Y041195D01*
Y041200D01*
X024181Y041206D01*
X024182Y041213D01*
X024183Y041220D01*
X024186Y041236D01*
X024189Y041254D01*
X024195Y041272D01*
X024203Y041289D01*
X024203Y041290D01*
X024204Y041291D01*
X024205Y041294D01*
X024207Y041296D01*
X024209Y041300D01*
X024212Y041305D01*
X024219Y041315D01*
X024229Y041326D01*
X024240Y041337D01*
X024253Y041348D01*
X024268Y041357D01*
X024268Y041358D01*
X024270Y041359D01*
X024272Y041360D01*
X024275Y041361D01*
X024279Y041363D01*
X024284Y041365D01*
X024289Y041367D01*
X024295Y041369D01*
X024302Y041371D01*
X024309Y041374D01*
X024325Y041377D01*
X024343Y041380D01*
X024361Y041381D01*
X024366D01*
X024370Y041380D01*
D02*
G37*
G36*
X024581Y043189D02*
X024585Y043188D01*
X024589Y043186D01*
X024594Y043185D01*
X024600Y043182D01*
X024607Y043180D01*
X024614Y043176D01*
X024630Y043169D01*
X024645Y043159D01*
X024653Y043152D01*
X024661Y043146D01*
X024667Y043140D01*
X024674Y043132D01*
X024674Y043131D01*
X024676Y043130D01*
X024677Y043127D01*
X024679Y043125D01*
X024682Y043120D01*
X024684Y043116D01*
X024687Y043110D01*
X024690Y043104D01*
X024693Y043096D01*
X024696Y043089D01*
X024699Y043080D01*
X024702Y043071D01*
X024704Y043062D01*
X024705Y043052D01*
X024706Y043041D01*
X024707Y043030D01*
Y043030D01*
Y043028D01*
Y043024D01*
X024706Y043020D01*
Y043015D01*
X024706Y043009D01*
X024704Y043002D01*
X024703Y042994D01*
X024701Y042978D01*
X024696Y042962D01*
X024690Y042945D01*
X024686Y042937D01*
X024682Y042929D01*
X024681Y042929D01*
X024681Y042928D01*
X024679Y042925D01*
X024677Y042923D01*
X024674Y042920D01*
X024671Y042916D01*
X024667Y042912D01*
X024663Y042907D01*
X024658Y042903D01*
X024653Y042898D01*
X024640Y042888D01*
X024625Y042878D01*
X024608Y042870D01*
X024608D01*
X024606Y042869D01*
X024603Y042868D01*
X024600Y042867D01*
X024596Y042866D01*
X024590Y042864D01*
X024584Y042862D01*
X024577Y042860D01*
X024570Y042858D01*
X024562Y042856D01*
X024545Y042853D01*
X024525Y042851D01*
X024505Y042850D01*
X024499D01*
X024495Y042851D01*
X024490D01*
X024484Y042851D01*
X024477Y042852D01*
X024470Y042853D01*
X024454Y042856D01*
X024436Y042859D01*
X024418Y042865D01*
X024401Y042873D01*
X024400Y042873D01*
X024399Y042874D01*
X024396Y042875D01*
X024394Y042877D01*
X024390Y042879D01*
X024385Y042882D01*
X024375Y042889D01*
X024364Y042899D01*
X024353Y042910D01*
X024342Y042923D01*
X024333Y042938D01*
X024332Y042938D01*
X024331Y042940D01*
X024330Y042942D01*
X024329Y042945D01*
X024327Y042949D01*
X024325Y042954D01*
X024323Y042959D01*
X024321Y042965D01*
X024319Y042972D01*
X024316Y042979D01*
X024313Y042995D01*
X024310Y043013D01*
X024309Y043031D01*
Y043031D01*
Y043034D01*
Y043036D01*
X024310Y043040D01*
X024310Y043045D01*
X024311Y043051D01*
X024311Y043058D01*
X024313Y043065D01*
X024316Y043080D01*
X024321Y043096D01*
X024325Y043105D01*
X024329Y043113D01*
X024334Y043120D01*
X024339Y043128D01*
X024339Y043129D01*
X024340Y043130D01*
X024341Y043132D01*
X024344Y043135D01*
X024347Y043137D01*
X024351Y043141D01*
X024355Y043145D01*
X024360Y043150D01*
X024365Y043154D01*
X024372Y043159D01*
X024379Y043164D01*
X024386Y043168D01*
X024394Y043172D01*
X024403Y043176D01*
X024411Y043180D01*
X024421Y043183D01*
X024433Y043133D01*
X024432D01*
X024431Y043132D01*
X024429Y043131D01*
X024426Y043130D01*
X024423Y043129D01*
X024419Y043127D01*
X024410Y043123D01*
X024400Y043118D01*
X024390Y043111D01*
X024380Y043103D01*
X024372Y043094D01*
X024371Y043093D01*
X024369Y043089D01*
X024366Y043084D01*
X024362Y043076D01*
X024359Y043067D01*
X024355Y043056D01*
X024353Y043044D01*
X024353Y043030D01*
Y043029D01*
Y043028D01*
Y043025D01*
X024353Y043023D01*
Y043019D01*
X024354Y043014D01*
X024355Y043004D01*
X024358Y042992D01*
X024361Y042980D01*
X024367Y042967D01*
X024374Y042955D01*
Y042955D01*
X024375Y042954D01*
X024378Y042950D01*
X024383Y042945D01*
X024389Y042939D01*
X024398Y042932D01*
X024407Y042925D01*
X024419Y042919D01*
X024431Y042914D01*
X024432D01*
X024433Y042913D01*
X024435Y042913D01*
X024437Y042912D01*
X024441Y042911D01*
X024445Y042910D01*
X024454Y042908D01*
X024465Y042906D01*
X024477Y042904D01*
X024491Y042903D01*
X024505Y042902D01*
X024514D01*
X024517Y042903D01*
X024522D01*
X024528Y042903D01*
X024534Y042904D01*
X024547Y042906D01*
X024562Y042908D01*
X024576Y042912D01*
X024591Y042916D01*
X024591D01*
X024592Y042917D01*
X024594Y042918D01*
X024597Y042919D01*
X024603Y042922D01*
X024611Y042927D01*
X024620Y042933D01*
X024630Y042941D01*
X024638Y042950D01*
X024646Y042960D01*
Y042961D01*
X024646Y042962D01*
X024647Y042964D01*
X024648Y042966D01*
X024650Y042969D01*
X024651Y042972D01*
X024654Y042980D01*
X024658Y042990D01*
X024661Y043001D01*
X024663Y043013D01*
X024663Y043026D01*
Y043026D01*
Y043028D01*
Y043030D01*
X024663Y043033D01*
Y043037D01*
X024662Y043041D01*
X024660Y043051D01*
X024657Y043063D01*
X024653Y043074D01*
X024647Y043086D01*
X024643Y043093D01*
X024639Y043098D01*
X024638Y043099D01*
X024638Y043099D01*
X024636Y043101D01*
X024635Y043103D01*
X024632Y043105D01*
X024628Y043108D01*
X024625Y043111D01*
X024621Y043114D01*
X024616Y043118D01*
X024610Y043121D01*
X024605Y043125D01*
X024598Y043128D01*
X024591Y043131D01*
X024583Y043134D01*
X024575Y043136D01*
X024566Y043139D01*
X024578Y043190D01*
X024579D01*
X024581Y043189D01*
D02*
G37*
G36*
X025550Y043363D02*
X025250D01*
X025250Y043363D01*
X025253Y043360D01*
X025256Y043357D01*
X025260Y043351D01*
X025265Y043345D01*
X025270Y043337D01*
X025276Y043328D01*
X025282Y043318D01*
Y043318D01*
X025283Y043317D01*
X025285Y043314D01*
X025288Y043308D01*
X025291Y043302D01*
X025295Y043294D01*
X025299Y043286D01*
X025303Y043277D01*
X025306Y043269D01*
X025261D01*
Y043270D01*
X025260Y043271D01*
X025259Y043273D01*
X025258Y043276D01*
X025256Y043279D01*
X025254Y043283D01*
X025248Y043292D01*
X025242Y043303D01*
X025234Y043315D01*
X025225Y043326D01*
X025216Y043338D01*
X025215Y043338D01*
X025215Y043339D01*
X025213Y043341D01*
X025211Y043343D01*
X025206Y043348D01*
X025199Y043354D01*
X025191Y043361D01*
X025183Y043368D01*
X025174Y043374D01*
X025164Y043380D01*
Y043411D01*
X025550D01*
Y043363D01*
D02*
G37*
G36*
X025369Y043784D02*
X025376D01*
X025384Y043783D01*
X025392Y043782D01*
X025411Y043780D01*
X025431Y043777D01*
X025450Y043774D01*
X025460Y043771D01*
X025468Y043768D01*
X025468D01*
X025470Y043767D01*
X025472Y043766D01*
X025475Y043765D01*
X025478Y043764D01*
X025483Y043761D01*
X025492Y043756D01*
X025503Y043749D01*
X025514Y043741D01*
X025524Y043731D01*
X025534Y043720D01*
Y043720D01*
X025535Y043719D01*
X025536Y043717D01*
X025537Y043715D01*
X025539Y043711D01*
X025541Y043708D01*
X025543Y043704D01*
X025545Y043699D01*
X025549Y043689D01*
X025553Y043676D01*
X025556Y043662D01*
X025557Y043646D01*
Y043646D01*
Y043644D01*
Y043642D01*
X025556Y043639D01*
Y043635D01*
X025556Y043631D01*
X025553Y043620D01*
X025551Y043609D01*
X025546Y043596D01*
X025540Y043584D01*
X025536Y043578D01*
X025532Y043573D01*
X025531Y043572D01*
X025531Y043572D01*
X025529Y043570D01*
X025527Y043568D01*
X025524Y043566D01*
X025521Y043563D01*
X025513Y043558D01*
X025503Y043552D01*
X025491Y043547D01*
X025477Y043542D01*
X025461Y043539D01*
X025457Y043584D01*
X025458D01*
X025459Y043585D01*
X025460D01*
X025462Y043585D01*
X025468Y043587D01*
X025475Y043589D01*
X025483Y043592D01*
X025491Y043596D01*
X025498Y043600D01*
X025504Y043606D01*
X025504Y043606D01*
X025506Y043609D01*
X025508Y043613D01*
X025511Y043617D01*
X025513Y043623D01*
X025516Y043630D01*
X025517Y043639D01*
X025518Y043648D01*
Y043649D01*
Y043651D01*
X025517Y043655D01*
X025517Y043660D01*
X025516Y043666D01*
X025514Y043673D01*
X025512Y043679D01*
X025508Y043685D01*
X025508Y043686D01*
X025507Y043688D01*
X025504Y043691D01*
X025501Y043695D01*
X025497Y043699D01*
X025493Y043704D01*
X025488Y043708D01*
X025482Y043712D01*
X025481Y043713D01*
X025478Y043714D01*
X025475Y043716D01*
X025470Y043719D01*
X025463Y043721D01*
X025455Y043724D01*
X025446Y043727D01*
X025436Y043730D01*
X025436D01*
X025435Y043730D01*
X025433D01*
X025431Y043731D01*
X025426Y043732D01*
X025418Y043734D01*
X025410Y043735D01*
X025400Y043736D01*
X025390Y043736D01*
X025379Y043737D01*
X025369D01*
X025370Y043736D01*
X025373Y043734D01*
X025377Y043731D01*
X025382Y043727D01*
X025388Y043721D01*
X025394Y043715D01*
X025400Y043707D01*
X025406Y043698D01*
X025406Y043697D01*
X025408Y043694D01*
X025410Y043689D01*
X025412Y043682D01*
X025415Y043674D01*
X025417Y043665D01*
X025419Y043655D01*
X025420Y043645D01*
Y043644D01*
Y043643D01*
Y043640D01*
X025419Y043637D01*
X025418Y043633D01*
X025418Y043628D01*
X025417Y043623D01*
X025415Y043617D01*
X025411Y043604D01*
X025408Y043598D01*
X025405Y043591D01*
X025401Y043584D01*
X025396Y043577D01*
X025391Y043570D01*
X025385Y043564D01*
X025385Y043564D01*
X025384Y043563D01*
X025382Y043562D01*
X025379Y043559D01*
X025375Y043557D01*
X025371Y043554D01*
X025366Y043551D01*
X025361Y043548D01*
X025355Y043545D01*
X025348Y043542D01*
X025340Y043539D01*
X025332Y043537D01*
X025324Y043534D01*
X025314Y043533D01*
X025305Y043532D01*
X025294Y043532D01*
X025289D01*
X025285Y043532D01*
X025280Y043533D01*
X025274Y043533D01*
X025268Y043534D01*
X025260Y043536D01*
X025246Y043540D01*
X025238Y043543D01*
X025230Y043546D01*
X025222Y043550D01*
X025215Y043555D01*
X025207Y043560D01*
X025200Y043566D01*
X025200Y043566D01*
X025199Y043568D01*
X025197Y043569D01*
X025195Y043572D01*
X025192Y043575D01*
X025189Y043580D01*
X025186Y043584D01*
X025182Y043590D01*
X025179Y043595D01*
X025176Y043602D01*
X025170Y043617D01*
X025168Y043625D01*
X025166Y043634D01*
X025165Y043643D01*
X025164Y043652D01*
Y043653D01*
Y043654D01*
Y043656D01*
X025165Y043659D01*
Y043661D01*
X025165Y043665D01*
X025167Y043675D01*
X025169Y043685D01*
X025173Y043697D01*
X025178Y043709D01*
X025185Y043720D01*
Y043721D01*
X025186Y043721D01*
X025187Y043723D01*
X025189Y043725D01*
X025193Y043731D01*
X025199Y043738D01*
X025208Y043745D01*
X025218Y043754D01*
X025229Y043761D01*
X025243Y043767D01*
X025243D01*
X025244Y043768D01*
X025246Y043769D01*
X025249Y043770D01*
X025253Y043771D01*
X025258Y043773D01*
X025264Y043774D01*
X025270Y043776D01*
X025277Y043777D01*
X025285Y043779D01*
X025294Y043780D01*
X025304Y043781D01*
X025314Y043782D01*
X025325Y043784D01*
X025337Y043784D01*
X025362D01*
X025369Y043784D01*
D02*
G37*
G36*
X025431Y043189D02*
X025435Y043188D01*
X025439Y043186D01*
X025444Y043185D01*
X025450Y043182D01*
X025457Y043180D01*
X025464Y043176D01*
X025480Y043169D01*
X025495Y043159D01*
X025503Y043152D01*
X025511Y043146D01*
X025517Y043140D01*
X025524Y043132D01*
X025524Y043131D01*
X025526Y043130D01*
X025527Y043127D01*
X025529Y043125D01*
X025532Y043120D01*
X025534Y043116D01*
X025537Y043110D01*
X025540Y043104D01*
X025543Y043096D01*
X025546Y043089D01*
X025549Y043080D01*
X025552Y043071D01*
X025554Y043062D01*
X025555Y043052D01*
X025556Y043041D01*
X025557Y043030D01*
Y043030D01*
Y043028D01*
Y043024D01*
X025556Y043020D01*
Y043015D01*
X025556Y043009D01*
X025554Y043002D01*
X025553Y042994D01*
X025551Y042978D01*
X025546Y042962D01*
X025540Y042945D01*
X025536Y042937D01*
X025532Y042929D01*
X025531Y042929D01*
X025531Y042928D01*
X025529Y042925D01*
X025527Y042923D01*
X025524Y042920D01*
X025521Y042916D01*
X025517Y042912D01*
X025513Y042907D01*
X025508Y042903D01*
X025503Y042898D01*
X025490Y042888D01*
X025475Y042878D01*
X025458Y042870D01*
X025458D01*
X025456Y042869D01*
X025453Y042868D01*
X025450Y042867D01*
X025446Y042866D01*
X025440Y042864D01*
X025434Y042862D01*
X025427Y042860D01*
X025420Y042858D01*
X025412Y042856D01*
X025395Y042853D01*
X025375Y042851D01*
X025355Y042850D01*
X025349D01*
X025345Y042851D01*
X025340D01*
X025334Y042851D01*
X025327Y042852D01*
X025320Y042853D01*
X025304Y042856D01*
X025286Y042859D01*
X025268Y042865D01*
X025251Y042873D01*
X025250Y042873D01*
X025249Y042874D01*
X025246Y042875D01*
X025244Y042877D01*
X025240Y042879D01*
X025235Y042882D01*
X025225Y042889D01*
X025214Y042899D01*
X025203Y042910D01*
X025192Y042923D01*
X025183Y042938D01*
X025182Y042938D01*
X025181Y042940D01*
X025180Y042942D01*
X025179Y042945D01*
X025177Y042949D01*
X025175Y042954D01*
X025173Y042959D01*
X025171Y042965D01*
X025169Y042972D01*
X025166Y042979D01*
X025163Y042995D01*
X025160Y043013D01*
X025159Y043031D01*
Y043031D01*
Y043034D01*
Y043036D01*
X025160Y043040D01*
X025160Y043045D01*
X025161Y043051D01*
X025161Y043058D01*
X025163Y043065D01*
X025166Y043080D01*
X025171Y043096D01*
X025175Y043105D01*
X025179Y043113D01*
X025184Y043120D01*
X025189Y043128D01*
X025189Y043129D01*
X025190Y043130D01*
X025191Y043132D01*
X025194Y043135D01*
X025197Y043137D01*
X025201Y043141D01*
X025205Y043145D01*
X025210Y043150D01*
X025215Y043154D01*
X025222Y043159D01*
X025229Y043164D01*
X025236Y043168D01*
X025244Y043172D01*
X025253Y043176D01*
X025261Y043180D01*
X025271Y043183D01*
X025283Y043133D01*
X025282D01*
X025281Y043132D01*
X025279Y043131D01*
X025276Y043130D01*
X025273Y043129D01*
X025269Y043127D01*
X025260Y043123D01*
X025250Y043118D01*
X025240Y043111D01*
X025230Y043103D01*
X025222Y043094D01*
X025221Y043093D01*
X025219Y043089D01*
X025216Y043084D01*
X025212Y043076D01*
X025209Y043067D01*
X025205Y043056D01*
X025203Y043044D01*
X025203Y043030D01*
Y043029D01*
Y043028D01*
Y043025D01*
X025203Y043023D01*
Y043019D01*
X025204Y043014D01*
X025205Y043004D01*
X025208Y042992D01*
X025211Y042980D01*
X025217Y042967D01*
X025224Y042955D01*
Y042955D01*
X025225Y042954D01*
X025228Y042950D01*
X025233Y042945D01*
X025239Y042939D01*
X025248Y042932D01*
X025257Y042925D01*
X025269Y042919D01*
X025281Y042914D01*
X025282D01*
X025283Y042913D01*
X025285Y042913D01*
X025287Y042912D01*
X025291Y042911D01*
X025295Y042910D01*
X025304Y042908D01*
X025315Y042906D01*
X025327Y042904D01*
X025341Y042903D01*
X025355Y042902D01*
X025364D01*
X025367Y042903D01*
X025372D01*
X025378Y042903D01*
X025384Y042904D01*
X025397Y042906D01*
X025412Y042908D01*
X025426Y042912D01*
X025441Y042916D01*
X025441D01*
X025442Y042917D01*
X025444Y042918D01*
X025447Y042919D01*
X025453Y042922D01*
X025461Y042927D01*
X025470Y042933D01*
X025480Y042941D01*
X025488Y042950D01*
X025496Y042960D01*
Y042961D01*
X025496Y042962D01*
X025497Y042964D01*
X025498Y042966D01*
X025499Y042969D01*
X025501Y042972D01*
X025504Y042980D01*
X025508Y042990D01*
X025511Y043001D01*
X025513Y043013D01*
X025513Y043026D01*
Y043026D01*
Y043028D01*
Y043030D01*
X025513Y043033D01*
Y043037D01*
X025512Y043041D01*
X025510Y043051D01*
X025507Y043063D01*
X025503Y043074D01*
X025497Y043086D01*
X025493Y043093D01*
X025489Y043098D01*
X025488Y043099D01*
X025488Y043099D01*
X025486Y043101D01*
X025485Y043103D01*
X025482Y043105D01*
X025478Y043108D01*
X025475Y043111D01*
X025471Y043114D01*
X025466Y043118D01*
X025460Y043121D01*
X025455Y043125D01*
X025448Y043128D01*
X025441Y043131D01*
X025433Y043134D01*
X025425Y043136D01*
X025416Y043139D01*
X025428Y043190D01*
X025429D01*
X025431Y043189D01*
D02*
G37*
G36*
X024700Y043226D02*
X024694D01*
X024689Y043227D01*
X024684Y043227D01*
X024679Y043229D01*
X024673Y043230D01*
X024667Y043232D01*
X024667D01*
X024666Y043232D01*
X024663Y043233D01*
X024658Y043236D01*
X024651Y043239D01*
X024643Y043243D01*
X024635Y043249D01*
X024626Y043255D01*
X024616Y043263D01*
X024616D01*
X024615Y043264D01*
X024612Y043267D01*
X024607Y043272D01*
X024600Y043279D01*
X024591Y043287D01*
X024581Y043298D01*
X024570Y043311D01*
X024558Y043325D01*
X024558Y043325D01*
X024556Y043327D01*
X024553Y043331D01*
X024550Y043335D01*
X024546Y043340D01*
X024541Y043346D01*
X024535Y043352D01*
X024529Y043359D01*
X024516Y043373D01*
X024502Y043387D01*
X024496Y043393D01*
X024489Y043399D01*
X024483Y043405D01*
X024477Y043409D01*
X024476D01*
X024476Y043411D01*
X024474Y043412D01*
X024472Y043413D01*
X024466Y043417D01*
X024459Y043421D01*
X024450Y043425D01*
X024440Y043429D01*
X024430Y043431D01*
X024420Y043432D01*
X024419D01*
X024415Y043432D01*
X024410Y043431D01*
X024404Y043429D01*
X024396Y043427D01*
X024388Y043423D01*
X024380Y043418D01*
X024373Y043412D01*
X024371Y043411D01*
X024369Y043408D01*
X024366Y043404D01*
X024363Y043398D01*
X024359Y043390D01*
X024356Y043381D01*
X024354Y043371D01*
X024353Y043359D01*
Y043358D01*
Y043357D01*
Y043356D01*
X024354Y043353D01*
X024354Y043347D01*
X024356Y043339D01*
X024358Y043331D01*
X024362Y043321D01*
X024367Y043312D01*
X024374Y043304D01*
X024375Y043303D01*
X024378Y043301D01*
X024382Y043297D01*
X024389Y043294D01*
X024396Y043290D01*
X024406Y043287D01*
X024418Y043285D01*
X024430Y043283D01*
X024425Y043235D01*
X024425D01*
X024423Y043236D01*
X024420D01*
X024416Y043236D01*
X024412Y043237D01*
X024407Y043239D01*
X024401Y043240D01*
X024395Y043242D01*
X024381Y043246D01*
X024368Y043253D01*
X024361Y043257D01*
X024355Y043262D01*
X024349Y043267D01*
X024343Y043272D01*
X024343Y043273D01*
X024342Y043274D01*
X024340Y043276D01*
X024339Y043278D01*
X024336Y043282D01*
X024334Y043286D01*
X024331Y043290D01*
X024329Y043296D01*
X024326Y043302D01*
X024323Y043308D01*
X024321Y043316D01*
X024319Y043323D01*
X024317Y043332D01*
X024315Y043341D01*
X024315Y043350D01*
X024314Y043360D01*
Y043361D01*
Y043362D01*
Y043366D01*
X024315Y043369D01*
X024315Y043374D01*
X024316Y043379D01*
X024317Y043386D01*
X024318Y043392D01*
X024322Y043406D01*
X024328Y043421D01*
X024331Y043428D01*
X024335Y043435D01*
X024340Y043442D01*
X024345Y043448D01*
X024346Y043448D01*
X024346Y043449D01*
X024349Y043451D01*
X024351Y043453D01*
X024354Y043456D01*
X024358Y043458D01*
X024361Y043461D01*
X024366Y043464D01*
X024377Y043470D01*
X024390Y043475D01*
X024397Y043478D01*
X024405Y043479D01*
X024413Y043480D01*
X024421Y043480D01*
X024425D01*
X024429Y043480D01*
X024435Y043479D01*
X024442Y043478D01*
X024450Y043476D01*
X024458Y043474D01*
X024466Y043470D01*
X024467Y043470D01*
X024470Y043469D01*
X024475Y043467D01*
X024481Y043463D01*
X024487Y043459D01*
X024496Y043453D01*
X024504Y043447D01*
X024514Y043439D01*
X024515Y043438D01*
X024518Y043435D01*
X024521Y043432D01*
X024524Y043429D01*
X024527Y043426D01*
X024531Y043422D01*
X024536Y043417D01*
X024541Y043412D01*
X024546Y043406D01*
X024552Y043399D01*
X024558Y043392D01*
X024566Y043384D01*
X024573Y043376D01*
X024581Y043367D01*
X024581Y043366D01*
X024582Y043365D01*
X024584Y043363D01*
X024586Y043360D01*
X024590Y043357D01*
X024593Y043353D01*
X024600Y043344D01*
X024608Y043335D01*
X024617Y043326D01*
X024624Y043318D01*
X024627Y043315D01*
X024630Y043312D01*
X024630Y043311D01*
X024632Y043310D01*
X024634Y043307D01*
X024637Y043305D01*
X024641Y043302D01*
X024645Y043298D01*
X024654Y043292D01*
Y043481D01*
X024700D01*
Y043226D01*
D02*
G37*
G36*
X024528Y043782D02*
X024535D01*
X024542Y043781D01*
X024550Y043781D01*
X024567Y043779D01*
X024586Y043776D01*
X024603Y043773D01*
X024612Y043771D01*
X024620Y043768D01*
X024621D01*
X024622Y043767D01*
X024624Y043766D01*
X024627Y043765D01*
X024631Y043764D01*
X024635Y043762D01*
X024644Y043757D01*
X024654Y043752D01*
X024665Y043745D01*
X024675Y043736D01*
X024684Y043726D01*
Y043726D01*
X024686Y043725D01*
X024687Y043724D01*
X024688Y043721D01*
X024689Y043719D01*
X024692Y043716D01*
X024696Y043707D01*
X024699Y043697D01*
X024703Y043686D01*
X024706Y043672D01*
X024707Y043657D01*
Y043656D01*
Y043655D01*
Y043651D01*
X024706Y043648D01*
X024706Y043643D01*
X024704Y043638D01*
X024703Y043631D01*
X024702Y043625D01*
X024699Y043618D01*
X024697Y043611D01*
X024694Y043604D01*
X024690Y043596D01*
X024686Y043589D01*
X024680Y043582D01*
X024674Y043575D01*
X024667Y043569D01*
X024667Y043569D01*
X024665Y043568D01*
X024662Y043566D01*
X024658Y043563D01*
X024653Y043560D01*
X024646Y043558D01*
X024638Y043554D01*
X024630Y043550D01*
X024620Y043547D01*
X024608Y043544D01*
X024595Y043540D01*
X024581Y043538D01*
X024565Y043535D01*
X024548Y043533D01*
X024530Y043532D01*
X024511Y043532D01*
X024500D01*
X024494Y043532D01*
X024487D01*
X024480Y043533D01*
X024471Y043533D01*
X024454Y043535D01*
X024436Y043538D01*
X024418Y043541D01*
X024409Y043543D01*
X024401Y043545D01*
X024400D01*
X024399Y043546D01*
X024397Y043547D01*
X024394Y043548D01*
X024390Y043549D01*
X024386Y043552D01*
X024377Y043556D01*
X024367Y043562D01*
X024356Y043569D01*
X024346Y043577D01*
X024337Y043587D01*
Y043588D01*
X024336Y043588D01*
X024335Y043590D01*
X024334Y043592D01*
X024331Y043595D01*
X024330Y043598D01*
X024325Y043606D01*
X024321Y043616D01*
X024318Y043628D01*
X024315Y043642D01*
X024314Y043657D01*
Y043658D01*
Y043658D01*
Y043660D01*
Y043662D01*
X024315Y043668D01*
X024316Y043675D01*
X024318Y043684D01*
X024320Y043692D01*
X024323Y043702D01*
X024327Y043711D01*
Y043711D01*
X024328Y043712D01*
X024329Y043715D01*
X024332Y043719D01*
X024336Y043725D01*
X024341Y043731D01*
X024348Y043737D01*
X024355Y043744D01*
X024363Y043750D01*
X024364Y043750D01*
X024367Y043752D01*
X024372Y043755D01*
X024379Y043759D01*
X024388Y043762D01*
X024397Y043766D01*
X024408Y043770D01*
X024420Y043774D01*
X024421D01*
X024422Y043774D01*
X024424Y043775D01*
X024426Y043775D01*
X024430Y043776D01*
X024434Y043776D01*
X024439Y043777D01*
X024444Y043778D01*
X024450Y043779D01*
X024457Y043780D01*
X024465Y043780D01*
X024472Y043781D01*
X024481Y043782D01*
X024490D01*
X024500Y043782D01*
X024522D01*
X024528Y043782D01*
D02*
G37*
G36*
X024741Y040990D02*
X024693D01*
Y041290D01*
X024693Y041290D01*
X024690Y041287D01*
X024687Y041284D01*
X024681Y041280D01*
X024675Y041275D01*
X024667Y041270D01*
X024658Y041264D01*
X024648Y041258D01*
X024648D01*
X024647Y041257D01*
X024644Y041255D01*
X024638Y041252D01*
X024632Y041249D01*
X024624Y041245D01*
X024616Y041241D01*
X024607Y041237D01*
X024599Y041234D01*
Y041279D01*
X024600D01*
X024601Y041280D01*
X024603Y041281D01*
X024606Y041282D01*
X024609Y041284D01*
X024613Y041286D01*
X024622Y041292D01*
X024633Y041298D01*
X024645Y041306D01*
X024656Y041315D01*
X024668Y041324D01*
X024668Y041325D01*
X024669Y041325D01*
X024671Y041327D01*
X024673Y041329D01*
X024678Y041334D01*
X024685Y041341D01*
X024691Y041349D01*
X024698Y041357D01*
X024704Y041366D01*
X024710Y041376D01*
X024741D01*
Y040990D01*
D02*
G37*
G36*
X021339Y033529D02*
X021344Y033529D01*
X021350Y033527D01*
X021356Y033526D01*
X021363Y033525D01*
X021378Y033520D01*
X021386Y033518D01*
X021393Y033514D01*
X021401Y033510D01*
X021409Y033504D01*
X021416Y033499D01*
X021423Y033492D01*
X021424Y033491D01*
X021425Y033490D01*
X021427Y033488D01*
X021429Y033485D01*
X021432Y033481D01*
X021435Y033476D01*
X021438Y033471D01*
X021442Y033465D01*
X021445Y033458D01*
X021448Y033450D01*
X021452Y033441D01*
X021454Y033432D01*
X021457Y033422D01*
X021458Y033412D01*
X021459Y033400D01*
X021460Y033388D01*
Y033388D01*
Y033386D01*
Y033383D01*
Y033379D01*
X021459Y033375D01*
X021459Y033369D01*
Y033364D01*
X021458Y033358D01*
X021456Y033344D01*
X021453Y033330D01*
X021449Y033316D01*
X021443Y033303D01*
Y033303D01*
X021443Y033302D01*
X021442Y033300D01*
X021441Y033298D01*
X021437Y033293D01*
X021432Y033286D01*
X021425Y033278D01*
X021417Y033271D01*
X021407Y033263D01*
X021396Y033256D01*
X021396D01*
X021395Y033255D01*
X021393Y033254D01*
X021391Y033253D01*
X021388Y033252D01*
X021384Y033251D01*
X021376Y033247D01*
X021367Y033244D01*
X021355Y033242D01*
X021343Y033239D01*
X021330Y033239D01*
X021324D01*
X021320Y033239D01*
X021315Y033240D01*
X021309Y033241D01*
X021302Y033242D01*
X021296Y033243D01*
X021281Y033248D01*
X021272Y033251D01*
X021265Y033254D01*
X021257Y033259D01*
X021249Y033264D01*
X021242Y033269D01*
X021235Y033276D01*
X021234Y033277D01*
X021233Y033278D01*
X021231Y033280D01*
X021229Y033283D01*
X021226Y033287D01*
X021224Y033292D01*
X021220Y033297D01*
X021217Y033304D01*
X021214Y033311D01*
X021210Y033319D01*
X021207Y033328D01*
X021205Y033338D01*
X021202Y033348D01*
X021201Y033359D01*
X021200Y033372D01*
X021199Y033384D01*
Y033385D01*
Y033388D01*
X021200Y033392D01*
Y033397D01*
X021200Y033403D01*
X021201Y033411D01*
X021202Y033419D01*
X021205Y033428D01*
X021207Y033436D01*
X021210Y033446D01*
X021213Y033456D01*
X021217Y033465D01*
X021222Y033474D01*
X021228Y033483D01*
X021234Y033491D01*
X021242Y033499D01*
X021242Y033499D01*
X021244Y033500D01*
X021246Y033501D01*
X021249Y033504D01*
X021252Y033506D01*
X021256Y033509D01*
X021261Y033511D01*
X021266Y033514D01*
X021272Y033517D01*
X021279Y033520D01*
X021294Y033525D01*
X021311Y033529D01*
X021320Y033529D01*
X021330Y033530D01*
X021335D01*
X021339Y033529D01*
D02*
G37*
G36*
X022026D02*
X022030Y033529D01*
X022036Y033527D01*
X022042Y033526D01*
X022049Y033525D01*
X022056Y033523D01*
X022064Y033520D01*
X022071Y033518D01*
X022079Y033514D01*
X022087Y033509D01*
X022094Y033504D01*
X022102Y033498D01*
X022108Y033491D01*
X022109Y033491D01*
X022110Y033490D01*
X022112Y033488D01*
X022114Y033484D01*
X022117Y033480D01*
X022119Y033476D01*
X022123Y033470D01*
X022126Y033464D01*
X022129Y033456D01*
X022133Y033449D01*
X022135Y033440D01*
X022138Y033430D01*
X022140Y033420D01*
X022142Y033409D01*
X022143Y033397D01*
X022144Y033384D01*
Y033384D01*
Y033382D01*
Y033378D01*
X022143Y033372D01*
X021935D01*
Y033372D01*
Y033370D01*
X021936Y033368D01*
Y033364D01*
X021936Y033360D01*
X021937Y033356D01*
X021939Y033346D01*
X021942Y033335D01*
X021947Y033323D01*
X021953Y033312D01*
X021961Y033302D01*
X021961D01*
X021962Y033300D01*
X021965Y033298D01*
X021970Y033294D01*
X021977Y033290D01*
X021986Y033286D01*
X021996Y033282D01*
X022007Y033279D01*
X022013Y033278D01*
X022019Y033278D01*
X022024D01*
X022029Y033278D01*
X022035Y033279D01*
X022042Y033281D01*
X022049Y033283D01*
X022057Y033287D01*
X022064Y033291D01*
X022064Y033292D01*
X022067Y033294D01*
X022070Y033297D01*
X022074Y033302D01*
X022079Y033308D01*
X022084Y033315D01*
X022089Y033324D01*
X022093Y033335D01*
X022142Y033329D01*
Y033328D01*
X022141Y033327D01*
X022141Y033325D01*
X022140Y033322D01*
X022138Y033318D01*
X022137Y033314D01*
X022132Y033304D01*
X022127Y033294D01*
X022119Y033283D01*
X022110Y033272D01*
X022099Y033262D01*
X022098D01*
X022097Y033261D01*
X022095Y033260D01*
X022093Y033258D01*
X022090Y033257D01*
X022087Y033255D01*
X022082Y033253D01*
X022077Y033251D01*
X022072Y033248D01*
X022066Y033246D01*
X022052Y033243D01*
X022037Y033240D01*
X022019Y033239D01*
X022013D01*
X022009Y033239D01*
X022004Y033240D01*
X021998Y033241D01*
X021992Y033242D01*
X021984Y033243D01*
X021969Y033248D01*
X021961Y033251D01*
X021953Y033254D01*
X021944Y033259D01*
X021937Y033264D01*
X021929Y033269D01*
X021922Y033276D01*
X021922Y033277D01*
X021921Y033278D01*
X021919Y033280D01*
X021917Y033283D01*
X021914Y033287D01*
X021911Y033292D01*
X021908Y033297D01*
X021905Y033303D01*
X021901Y033310D01*
X021898Y033318D01*
X021895Y033327D01*
X021892Y033337D01*
X021890Y033347D01*
X021888Y033358D01*
X021887Y033369D01*
X021887Y033382D01*
Y033382D01*
Y033385D01*
Y033388D01*
X021887Y033393D01*
X021888Y033399D01*
X021888Y033406D01*
X021890Y033414D01*
X021891Y033421D01*
X021896Y033439D01*
X021898Y033448D01*
X021902Y033458D01*
X021906Y033466D01*
X021911Y033475D01*
X021917Y033483D01*
X021923Y033491D01*
X021923Y033491D01*
X021925Y033493D01*
X021927Y033494D01*
X021929Y033497D01*
X021933Y033500D01*
X021937Y033503D01*
X021942Y033507D01*
X021948Y033510D01*
X021954Y033514D01*
X021962Y033518D01*
X021969Y033521D01*
X021978Y033524D01*
X021987Y033526D01*
X021996Y033528D01*
X022006Y033529D01*
X022017Y033530D01*
X022022D01*
X022026Y033529D01*
D02*
G37*
G36*
X025125Y033135D02*
X025075D01*
X024995Y033427D01*
Y033428D01*
X024994Y033429D01*
X024994Y033431D01*
X024993Y033434D01*
X024992Y033440D01*
X024990Y033447D01*
X024988Y033455D01*
X024986Y033462D01*
X024984Y033468D01*
X024983Y033471D01*
X024983Y033472D01*
Y033472D01*
X024982Y033471D01*
X024982Y033468D01*
X024981Y033463D01*
X024979Y033457D01*
X024977Y033450D01*
X024975Y033442D01*
X024973Y033435D01*
X024971Y033427D01*
X024890Y033135D01*
X024837D01*
X024736Y033519D01*
X024789D01*
X024846Y033267D01*
Y033267D01*
X024847Y033265D01*
X024847Y033263D01*
X024848Y033260D01*
X024848Y033257D01*
X024850Y033253D01*
X024851Y033248D01*
X024852Y033242D01*
X024855Y033230D01*
X024857Y033217D01*
X024860Y033203D01*
X024863Y033188D01*
Y033189D01*
X024863Y033191D01*
X024865Y033194D01*
X024865Y033198D01*
X024866Y033203D01*
X024868Y033208D01*
X024871Y033220D01*
X024874Y033233D01*
X024875Y033239D01*
X024877Y033244D01*
X024878Y033249D01*
X024879Y033254D01*
X024880Y033257D01*
X024881Y033259D01*
X024953Y033519D01*
X025015D01*
X025069Y033324D01*
Y033324D01*
X025070Y033321D01*
X025072Y033317D01*
X025073Y033312D01*
X025074Y033305D01*
X025077Y033298D01*
X025079Y033290D01*
X025081Y033280D01*
X025084Y033270D01*
X025086Y033259D01*
X025091Y033237D01*
X025096Y033213D01*
X025100Y033188D01*
Y033189D01*
X025100Y033190D01*
Y033192D01*
X025102Y033195D01*
X025102Y033198D01*
X025103Y033202D01*
X025104Y033207D01*
X025105Y033213D01*
X025108Y033225D01*
X025112Y033239D01*
X025115Y033255D01*
X025119Y033272D01*
X025179Y033519D01*
X025231D01*
X025125Y033135D01*
D02*
G37*
G36*
X024719Y033474D02*
X024593D01*
Y033135D01*
X024542D01*
Y033474D01*
X024415D01*
Y033519D01*
X024719D01*
Y033474D01*
D02*
G37*
G36*
X025338Y033135D02*
X025287D01*
Y033519D01*
X025338D01*
Y033135D01*
D02*
G37*
G36*
X021031Y033629D02*
X021040Y033628D01*
X021050Y033627D01*
X021060Y033626D01*
X021068Y033625D01*
X021069D01*
X021073Y033624D01*
X021078Y033623D01*
X021085Y033621D01*
X021092Y033619D01*
X021100Y033615D01*
X021108Y033611D01*
X021115Y033607D01*
X021116Y033606D01*
X021119Y033605D01*
X021122Y033601D01*
X021126Y033597D01*
X021131Y033592D01*
X021136Y033586D01*
X021142Y033579D01*
X021146Y033570D01*
X021147Y033569D01*
X021148Y033566D01*
X021150Y033561D01*
X021152Y033555D01*
X021154Y033547D01*
X021156Y033538D01*
X021157Y033528D01*
X021158Y033518D01*
Y033517D01*
Y033515D01*
Y033513D01*
X021157Y033509D01*
X021157Y033505D01*
X021156Y033500D01*
X021155Y033495D01*
X021154Y033489D01*
X021150Y033476D01*
X021148Y033469D01*
X021145Y033462D01*
X021141Y033455D01*
X021137Y033448D01*
X021132Y033441D01*
X021126Y033435D01*
X021126Y033434D01*
X021125Y033433D01*
X021123Y033431D01*
X021120Y033430D01*
X021117Y033427D01*
X021113Y033424D01*
X021107Y033421D01*
X021101Y033418D01*
X021094Y033415D01*
X021085Y033412D01*
X021076Y033409D01*
X021066Y033407D01*
X021055Y033404D01*
X021043Y033403D01*
X021029Y033402D01*
X021014Y033401D01*
X020916D01*
Y033245D01*
X020865D01*
Y033629D01*
X021023D01*
X021031Y033629D01*
D02*
G37*
G36*
X023998Y044725D02*
X024003Y044725D01*
X024008Y044724D01*
X024014Y044723D01*
X024020Y044722D01*
X024035Y044718D01*
X024049Y044712D01*
X024056Y044709D01*
X024064Y044705D01*
X024070Y044700D01*
X024076Y044695D01*
X024077Y044694D01*
X024078Y044694D01*
X024079Y044691D01*
X024081Y044689D01*
X024084Y044686D01*
X024087Y044682D01*
X024090Y044679D01*
X024093Y044674D01*
X024099Y044663D01*
X024104Y044650D01*
X024106Y044643D01*
X024107Y044635D01*
X024109Y044627D01*
X024109Y044619D01*
Y044618D01*
Y044615D01*
X024109Y044611D01*
X024108Y044605D01*
X024107Y044598D01*
X024105Y044590D01*
X024102Y044582D01*
X024099Y044574D01*
X024099Y044573D01*
X024097Y044570D01*
X024095Y044565D01*
X024092Y044559D01*
X024087Y044553D01*
X024082Y044544D01*
X024075Y044536D01*
X024067Y044526D01*
X024066Y044525D01*
X024064Y044522D01*
X024061Y044519D01*
X024058Y044516D01*
X024055Y044513D01*
X024050Y044509D01*
X024046Y044504D01*
X024040Y044499D01*
X024035Y044494D01*
X024028Y044488D01*
X024021Y044482D01*
X024013Y044474D01*
X024004Y044467D01*
X023995Y044459D01*
X023995Y044459D01*
X023994Y044458D01*
X023991Y044456D01*
X023989Y044454D01*
X023985Y044450D01*
X023981Y044447D01*
X023973Y044440D01*
X023963Y044432D01*
X023954Y044423D01*
X023946Y044416D01*
X023943Y044413D01*
X023940Y044410D01*
X023940Y044410D01*
X023938Y044408D01*
X023936Y044406D01*
X023933Y044403D01*
X023930Y044399D01*
X023927Y044395D01*
X023920Y044386D01*
X024110D01*
Y044340D01*
X023855D01*
Y044341D01*
Y044343D01*
Y044346D01*
X023855Y044351D01*
X023856Y044356D01*
X023857Y044361D01*
X023858Y044367D01*
X023860Y044373D01*
Y044373D01*
X023861Y044374D01*
X023862Y044377D01*
X023864Y044382D01*
X023868Y044389D01*
X023872Y044397D01*
X023878Y044405D01*
X023884Y044414D01*
X023892Y044424D01*
Y044424D01*
X023893Y044425D01*
X023895Y044428D01*
X023900Y044433D01*
X023908Y044440D01*
X023916Y044449D01*
X023926Y044459D01*
X023939Y044470D01*
X023953Y044482D01*
X023954Y044482D01*
X023956Y044484D01*
X023959Y044487D01*
X023963Y044490D01*
X023968Y044494D01*
X023974Y044499D01*
X023980Y044505D01*
X023988Y044511D01*
X024001Y044524D01*
X024015Y044538D01*
X024022Y044544D01*
X024028Y044551D01*
X024034Y044557D01*
X024038Y044563D01*
Y044564D01*
X024039Y044564D01*
X024040Y044566D01*
X024041Y044568D01*
X024045Y044574D01*
X024050Y044581D01*
X024054Y044590D01*
X024057Y044600D01*
X024060Y044610D01*
X024061Y044620D01*
Y044621D01*
Y044621D01*
X024060Y044625D01*
X024060Y044630D01*
X024058Y044636D01*
X024056Y044644D01*
X024052Y044652D01*
X024047Y044660D01*
X024040Y044667D01*
X024039Y044669D01*
X024036Y044671D01*
X024032Y044674D01*
X024026Y044677D01*
X024019Y044681D01*
X024010Y044684D01*
X023999Y044686D01*
X023988Y044687D01*
X023984D01*
X023982Y044686D01*
X023975Y044686D01*
X023968Y044684D01*
X023959Y044682D01*
X023950Y044678D01*
X023941Y044673D01*
X023933Y044666D01*
X023931Y044665D01*
X023929Y044662D01*
X023926Y044658D01*
X023923Y044651D01*
X023919Y044644D01*
X023915Y044634D01*
X023913Y044622D01*
X023912Y044610D01*
X023864Y044615D01*
Y044615D01*
X023864Y044617D01*
Y044620D01*
X023865Y044624D01*
X023866Y044628D01*
X023867Y044633D01*
X023869Y044639D01*
X023870Y044645D01*
X023875Y044659D01*
X023882Y044672D01*
X023885Y044679D01*
X023890Y044685D01*
X023895Y044691D01*
X023901Y044697D01*
X023902Y044697D01*
X023903Y044698D01*
X023904Y044700D01*
X023907Y044701D01*
X023910Y044704D01*
X023914Y044706D01*
X023919Y044709D01*
X023924Y044711D01*
X023930Y044714D01*
X023937Y044717D01*
X023944Y044719D01*
X023952Y044721D01*
X023960Y044723D01*
X023969Y044725D01*
X023979Y044725D01*
X023989Y044726D01*
X023994D01*
X023998Y044725D01*
D02*
G37*
G36*
X023370Y044730D02*
X023375Y044730D01*
X023381Y044729D01*
X023388Y044728D01*
X023395Y044727D01*
X023410Y044724D01*
X023426Y044719D01*
X023435Y044715D01*
X023443Y044711D01*
X023450Y044706D01*
X023458Y044701D01*
X023459Y044701D01*
X023460Y044700D01*
X023462Y044699D01*
X023465Y044696D01*
X023467Y044693D01*
X023471Y044689D01*
X023475Y044685D01*
X023480Y044680D01*
X023484Y044675D01*
X023489Y044668D01*
X023494Y044661D01*
X023498Y044654D01*
X023502Y044646D01*
X023506Y044637D01*
X023510Y044629D01*
X023513Y044619D01*
X023463Y044607D01*
Y044608D01*
X023462Y044609D01*
X023461Y044611D01*
X023460Y044614D01*
X023459Y044617D01*
X023458Y044621D01*
X023453Y044630D01*
X023448Y044640D01*
X023441Y044650D01*
X023433Y044660D01*
X023424Y044668D01*
X023423Y044669D01*
X023419Y044671D01*
X023414Y044674D01*
X023406Y044678D01*
X023397Y044681D01*
X023386Y044685D01*
X023374Y044687D01*
X023360Y044687D01*
X023355D01*
X023353Y044687D01*
X023349D01*
X023344Y044686D01*
X023334Y044685D01*
X023322Y044682D01*
X023310Y044679D01*
X023297Y044673D01*
X023285Y044666D01*
X023285D01*
X023284Y044665D01*
X023280Y044662D01*
X023275Y044657D01*
X023269Y044651D01*
X023262Y044642D01*
X023255Y044633D01*
X023249Y044621D01*
X023244Y044609D01*
Y044608D01*
X023243Y044607D01*
X023243Y044605D01*
X023242Y044603D01*
X023241Y044599D01*
X023240Y044595D01*
X023238Y044586D01*
X023236Y044575D01*
X023234Y044563D01*
X023233Y044549D01*
X023232Y044535D01*
Y044534D01*
Y044533D01*
Y044530D01*
Y044526D01*
X023233Y044523D01*
Y044518D01*
X023233Y044512D01*
X023234Y044506D01*
X023235Y044493D01*
X023238Y044478D01*
X023242Y044464D01*
X023246Y044449D01*
Y044449D01*
X023247Y044448D01*
X023248Y044446D01*
X023249Y044443D01*
X023252Y044437D01*
X023257Y044429D01*
X023263Y044420D01*
X023271Y044410D01*
X023280Y044402D01*
X023290Y044394D01*
X023291D01*
X023292Y044394D01*
X023294Y044393D01*
X023296Y044392D01*
X023299Y044391D01*
X023302Y044389D01*
X023310Y044386D01*
X023320Y044382D01*
X023331Y044379D01*
X023343Y044377D01*
X023356Y044377D01*
X023360D01*
X023363Y044377D01*
X023367D01*
X023371Y044378D01*
X023381Y044380D01*
X023393Y044383D01*
X023404Y044387D01*
X023416Y044393D01*
X023423Y044397D01*
X023428Y044401D01*
X023429Y044402D01*
X023429Y044402D01*
X023431Y044404D01*
X023433Y044405D01*
X023435Y044408D01*
X023438Y044412D01*
X023441Y044415D01*
X023444Y044419D01*
X023448Y044424D01*
X023451Y044430D01*
X023455Y044435D01*
X023458Y044442D01*
X023461Y044449D01*
X023464Y044457D01*
X023466Y044465D01*
X023469Y044474D01*
X023520Y044462D01*
Y044461D01*
X023519Y044459D01*
X023518Y044455D01*
X023516Y044451D01*
X023515Y044446D01*
X023512Y044440D01*
X023510Y044433D01*
X023506Y044426D01*
X023499Y044410D01*
X023489Y044395D01*
X023482Y044387D01*
X023476Y044379D01*
X023470Y044373D01*
X023462Y044366D01*
X023461Y044366D01*
X023460Y044364D01*
X023458Y044363D01*
X023455Y044361D01*
X023450Y044358D01*
X023446Y044356D01*
X023440Y044353D01*
X023434Y044350D01*
X023426Y044347D01*
X023419Y044344D01*
X023410Y044341D01*
X023401Y044338D01*
X023392Y044336D01*
X023382Y044335D01*
X023371Y044334D01*
X023360Y044333D01*
X023354D01*
X023350Y044334D01*
X023345D01*
X023339Y044334D01*
X023332Y044336D01*
X023324Y044337D01*
X023308Y044339D01*
X023292Y044344D01*
X023275Y044350D01*
X023267Y044354D01*
X023259Y044358D01*
X023259Y044359D01*
X023258Y044359D01*
X023255Y044361D01*
X023253Y044363D01*
X023250Y044366D01*
X023246Y044369D01*
X023242Y044373D01*
X023237Y044377D01*
X023233Y044382D01*
X023228Y044387D01*
X023218Y044400D01*
X023208Y044415D01*
X023200Y044432D01*
Y044432D01*
X023199Y044434D01*
X023198Y044437D01*
X023197Y044440D01*
X023196Y044444D01*
X023194Y044450D01*
X023192Y044456D01*
X023190Y044463D01*
X023188Y044470D01*
X023186Y044478D01*
X023183Y044495D01*
X023181Y044515D01*
X023180Y044535D01*
Y044535D01*
Y044538D01*
Y044541D01*
X023181Y044545D01*
Y044550D01*
X023181Y044556D01*
X023182Y044563D01*
X023183Y044570D01*
X023186Y044586D01*
X023189Y044604D01*
X023195Y044622D01*
X023203Y044639D01*
X023203Y044640D01*
X023204Y044641D01*
X023205Y044644D01*
X023207Y044646D01*
X023209Y044650D01*
X023212Y044655D01*
X023219Y044665D01*
X023229Y044676D01*
X023240Y044687D01*
X023253Y044698D01*
X023268Y044707D01*
X023268Y044708D01*
X023270Y044709D01*
X023272Y044710D01*
X023275Y044711D01*
X023279Y044713D01*
X023284Y044715D01*
X023289Y044717D01*
X023295Y044719D01*
X023302Y044721D01*
X023309Y044724D01*
X023325Y044727D01*
X023343Y044730D01*
X023361Y044731D01*
X023366D01*
X023370Y044730D01*
D02*
G37*
G36*
X023699Y044725D02*
X023704Y044725D01*
X023709Y044724D01*
X023716Y044723D01*
X023722Y044722D01*
X023736Y044718D01*
X023751Y044712D01*
X023758Y044709D01*
X023765Y044705D01*
X023772Y044700D01*
X023778Y044695D01*
X023778Y044694D01*
X023779Y044694D01*
X023781Y044691D01*
X023783Y044689D01*
X023786Y044686D01*
X023788Y044682D01*
X023791Y044679D01*
X023794Y044674D01*
X023800Y044663D01*
X023805Y044650D01*
X023808Y044643D01*
X023809Y044635D01*
X023810Y044627D01*
X023810Y044619D01*
Y044618D01*
Y044615D01*
X023810Y044611D01*
X023809Y044605D01*
X023808Y044598D01*
X023806Y044590D01*
X023804Y044582D01*
X023800Y044574D01*
X023800Y044573D01*
X023799Y044570D01*
X023797Y044565D01*
X023793Y044559D01*
X023789Y044553D01*
X023783Y044544D01*
X023777Y044536D01*
X023769Y044526D01*
X023768Y044525D01*
X023765Y044522D01*
X023762Y044519D01*
X023759Y044516D01*
X023756Y044513D01*
X023752Y044509D01*
X023747Y044504D01*
X023742Y044499D01*
X023736Y044494D01*
X023729Y044488D01*
X023722Y044482D01*
X023714Y044474D01*
X023706Y044467D01*
X023697Y044459D01*
X023696Y044459D01*
X023695Y044458D01*
X023693Y044456D01*
X023690Y044454D01*
X023687Y044450D01*
X023683Y044447D01*
X023674Y044440D01*
X023665Y044432D01*
X023656Y044423D01*
X023648Y044416D01*
X023645Y044413D01*
X023642Y044410D01*
X023641Y044410D01*
X023640Y044408D01*
X023637Y044406D01*
X023635Y044403D01*
X023632Y044399D01*
X023628Y044395D01*
X023622Y044386D01*
X023811D01*
Y044340D01*
X023556D01*
Y044341D01*
Y044343D01*
Y044346D01*
X023557Y044351D01*
X023557Y044356D01*
X023559Y044361D01*
X023560Y044367D01*
X023562Y044373D01*
Y044373D01*
X023562Y044374D01*
X023564Y044377D01*
X023566Y044382D01*
X023569Y044389D01*
X023573Y044397D01*
X023579Y044405D01*
X023585Y044414D01*
X023593Y044424D01*
Y044424D01*
X023594Y044425D01*
X023597Y044428D01*
X023602Y044433D01*
X023609Y044440D01*
X023617Y044449D01*
X023628Y044459D01*
X023641Y044470D01*
X023655Y044482D01*
X023655Y044482D01*
X023657Y044484D01*
X023661Y044487D01*
X023665Y044490D01*
X023670Y044494D01*
X023676Y044499D01*
X023682Y044505D01*
X023689Y044511D01*
X023703Y044524D01*
X023717Y044538D01*
X023723Y044544D01*
X023729Y044551D01*
X023735Y044557D01*
X023739Y044563D01*
Y044564D01*
X023741Y044564D01*
X023742Y044566D01*
X023743Y044568D01*
X023747Y044574D01*
X023751Y044581D01*
X023755Y044590D01*
X023759Y044600D01*
X023761Y044610D01*
X023762Y044620D01*
Y044621D01*
Y044621D01*
X023762Y044625D01*
X023761Y044630D01*
X023759Y044636D01*
X023757Y044644D01*
X023753Y044652D01*
X023748Y044660D01*
X023742Y044667D01*
X023741Y044669D01*
X023738Y044671D01*
X023734Y044674D01*
X023728Y044677D01*
X023720Y044681D01*
X023711Y044684D01*
X023701Y044686D01*
X023689Y044687D01*
X023686D01*
X023683Y044686D01*
X023677Y044686D01*
X023669Y044684D01*
X023661Y044682D01*
X023651Y044678D01*
X023642Y044673D01*
X023634Y044666D01*
X023633Y044665D01*
X023631Y044662D01*
X023627Y044658D01*
X023624Y044651D01*
X023620Y044644D01*
X023617Y044634D01*
X023615Y044622D01*
X023613Y044610D01*
X023565Y044615D01*
Y044615D01*
X023566Y044617D01*
Y044620D01*
X023566Y044624D01*
X023567Y044628D01*
X023568Y044633D01*
X023570Y044639D01*
X023572Y044645D01*
X023576Y044659D01*
X023583Y044672D01*
X023587Y044679D01*
X023592Y044685D01*
X023597Y044691D01*
X023602Y044697D01*
X023603Y044697D01*
X023604Y044698D01*
X023606Y044700D01*
X023608Y044701D01*
X023612Y044704D01*
X023616Y044706D01*
X023620Y044709D01*
X023626Y044711D01*
X023632Y044714D01*
X023638Y044717D01*
X023646Y044719D01*
X023653Y044721D01*
X023662Y044723D01*
X023671Y044725D01*
X023680Y044725D01*
X023690Y044726D01*
X023696D01*
X023699Y044725D01*
D02*
G37*
G36*
X021775Y033245D02*
X021727D01*
X021683Y033412D01*
X021671Y033459D01*
X021615Y033245D01*
X021565D01*
X021481Y033524D01*
X021530D01*
X021575Y033363D01*
X021590Y033303D01*
Y033303D01*
X021591Y033304D01*
X021591Y033307D01*
X021592Y033309D01*
X021593Y033312D01*
X021593Y033315D01*
X021594Y033319D01*
X021595Y033323D01*
X021597Y033329D01*
X021599Y033335D01*
X021600Y033342D01*
X021603Y033350D01*
X021605Y033360D01*
X021649Y033524D01*
X021697D01*
X021739Y033362D01*
X021753Y033308D01*
X021769Y033362D01*
X021817Y033524D01*
X021863D01*
X021775Y033245D01*
D02*
G37*
G36*
X022312Y033529D02*
X022319Y033528D01*
X022326Y033526D01*
X022334Y033523D01*
X022342Y033519D01*
X022352Y033514D01*
X022335Y033471D01*
X022334Y033471D01*
X022332Y033473D01*
X022329Y033474D01*
X022324Y033476D01*
X022319Y033478D01*
X022313Y033479D01*
X022307Y033480D01*
X022301Y033481D01*
X022298D01*
X022295Y033480D01*
X022291Y033480D01*
X022287Y033479D01*
X022282Y033477D01*
X022277Y033475D01*
X022273Y033471D01*
X022272Y033471D01*
X022271Y033470D01*
X022269Y033468D01*
X022266Y033465D01*
X022264Y033461D01*
X022261Y033456D01*
X022258Y033451D01*
X022256Y033445D01*
X022255Y033444D01*
X022255Y033441D01*
X022254Y033436D01*
X022252Y033429D01*
X022250Y033421D01*
X022249Y033412D01*
X022249Y033402D01*
X022248Y033390D01*
Y033245D01*
X022201D01*
Y033524D01*
X022244D01*
Y033481D01*
X022244Y033482D01*
X022246Y033486D01*
X022249Y033491D01*
X022254Y033497D01*
X022258Y033503D01*
X022263Y033510D01*
X022268Y033515D01*
X022273Y033520D01*
X022274Y033520D01*
X022275Y033521D01*
X022279Y033523D01*
X022282Y033525D01*
X022286Y033526D01*
X022292Y033528D01*
X022297Y033529D01*
X022304Y033530D01*
X022307D01*
X022312Y033529D01*
D02*
G37*
G36*
X022544Y043434D02*
X022549Y043434D01*
X022555Y043432D01*
X022561Y043431D01*
X022568Y043430D01*
X022583Y043425D01*
X022591Y043423D01*
X022598Y043419D01*
X022606Y043415D01*
X022614Y043409D01*
X022621Y043404D01*
X022628Y043397D01*
X022629Y043396D01*
X022630Y043395D01*
X022632Y043393D01*
X022634Y043390D01*
X022637Y043386D01*
X022640Y043381D01*
X022643Y043376D01*
X022647Y043370D01*
X022650Y043363D01*
X022653Y043355D01*
X022657Y043346D01*
X022659Y043337D01*
X022662Y043327D01*
X022663Y043316D01*
X022664Y043305D01*
X022665Y043293D01*
Y043293D01*
Y043291D01*
Y043288D01*
Y043284D01*
X022664Y043280D01*
X022664Y043274D01*
Y043269D01*
X022663Y043263D01*
X022661Y043249D01*
X022658Y043235D01*
X022654Y043221D01*
X022648Y043208D01*
Y043208D01*
X022648Y043207D01*
X022647Y043205D01*
X022646Y043203D01*
X022642Y043198D01*
X022637Y043191D01*
X022630Y043183D01*
X022622Y043176D01*
X022612Y043168D01*
X022601Y043161D01*
X022601D01*
X022600Y043160D01*
X022598Y043159D01*
X022596Y043158D01*
X022593Y043157D01*
X022590Y043156D01*
X022581Y043152D01*
X022572Y043149D01*
X022560Y043147D01*
X022548Y043144D01*
X022535Y043144D01*
X022529D01*
X022525Y043144D01*
X022520Y043145D01*
X022514Y043146D01*
X022507Y043147D01*
X022501Y043148D01*
X022486Y043153D01*
X022477Y043156D01*
X022470Y043159D01*
X022462Y043164D01*
X022454Y043169D01*
X022447Y043174D01*
X022440Y043181D01*
X022439Y043182D01*
X022438Y043183D01*
X022436Y043185D01*
X022434Y043188D01*
X022431Y043192D01*
X022429Y043197D01*
X022425Y043202D01*
X022422Y043209D01*
X022419Y043216D01*
X022415Y043224D01*
X022412Y043233D01*
X022410Y043243D01*
X022407Y043253D01*
X022406Y043264D01*
X022405Y043277D01*
X022404Y043289D01*
Y043290D01*
Y043293D01*
X022405Y043297D01*
Y043302D01*
X022405Y043308D01*
X022406Y043316D01*
X022407Y043324D01*
X022410Y043333D01*
X022412Y043341D01*
X022415Y043351D01*
X022418Y043361D01*
X022422Y043370D01*
X022427Y043379D01*
X022433Y043388D01*
X022439Y043396D01*
X022447Y043404D01*
X022447Y043404D01*
X022449Y043405D01*
X022451Y043406D01*
X022454Y043409D01*
X022457Y043411D01*
X022461Y043414D01*
X022466Y043416D01*
X022471Y043419D01*
X022477Y043422D01*
X022484Y043425D01*
X022499Y043430D01*
X022516Y043434D01*
X022525Y043434D01*
X022535Y043435D01*
X022540D01*
X022544Y043434D01*
D02*
G37*
G36*
X022626Y039550D02*
X022579D01*
Y039934D01*
X022626D01*
Y039550D01*
D02*
G37*
G36*
X023681Y036589D02*
X023685Y036588D01*
X023689Y036586D01*
X023694Y036585D01*
X023700Y036582D01*
X023707Y036580D01*
X023714Y036576D01*
X023730Y036569D01*
X023745Y036559D01*
X023753Y036552D01*
X023761Y036546D01*
X023767Y036540D01*
X023774Y036532D01*
X023774Y036531D01*
X023776Y036530D01*
X023777Y036528D01*
X023779Y036525D01*
X023782Y036520D01*
X023784Y036516D01*
X023787Y036510D01*
X023790Y036504D01*
X023793Y036496D01*
X023796Y036489D01*
X023799Y036480D01*
X023802Y036471D01*
X023804Y036462D01*
X023805Y036452D01*
X023806Y036441D01*
X023807Y036430D01*
Y036430D01*
Y036428D01*
Y036424D01*
X023806Y036420D01*
Y036415D01*
X023806Y036409D01*
X023804Y036402D01*
X023803Y036394D01*
X023801Y036378D01*
X023796Y036362D01*
X023790Y036345D01*
X023786Y036337D01*
X023782Y036329D01*
X023781Y036329D01*
X023781Y036328D01*
X023779Y036325D01*
X023777Y036323D01*
X023774Y036320D01*
X023771Y036316D01*
X023767Y036312D01*
X023763Y036307D01*
X023758Y036303D01*
X023753Y036298D01*
X023740Y036288D01*
X023725Y036278D01*
X023708Y036270D01*
X023708D01*
X023706Y036269D01*
X023703Y036268D01*
X023700Y036267D01*
X023696Y036266D01*
X023690Y036264D01*
X023684Y036262D01*
X023677Y036260D01*
X023670Y036258D01*
X023662Y036256D01*
X023645Y036253D01*
X023625Y036251D01*
X023605Y036250D01*
X023599D01*
X023595Y036251D01*
X023590D01*
X023584Y036251D01*
X023577Y036252D01*
X023570Y036253D01*
X023554Y036256D01*
X023536Y036259D01*
X023518Y036265D01*
X023501Y036273D01*
X023500Y036273D01*
X023499Y036274D01*
X023496Y036275D01*
X023494Y036277D01*
X023490Y036279D01*
X023485Y036282D01*
X023475Y036289D01*
X023464Y036299D01*
X023453Y036310D01*
X023442Y036323D01*
X023433Y036338D01*
X023432Y036338D01*
X023431Y036340D01*
X023430Y036342D01*
X023429Y036345D01*
X023427Y036349D01*
X023425Y036354D01*
X023423Y036359D01*
X023421Y036365D01*
X023419Y036372D01*
X023416Y036379D01*
X023413Y036395D01*
X023410Y036413D01*
X023409Y036431D01*
Y036431D01*
Y036434D01*
Y036436D01*
X023410Y036440D01*
X023410Y036445D01*
X023411Y036451D01*
X023412Y036458D01*
X023413Y036465D01*
X023416Y036480D01*
X023421Y036496D01*
X023425Y036505D01*
X023429Y036513D01*
X023434Y036520D01*
X023439Y036528D01*
X023439Y036529D01*
X023440Y036530D01*
X023441Y036532D01*
X023444Y036535D01*
X023447Y036537D01*
X023451Y036541D01*
X023455Y036545D01*
X023460Y036550D01*
X023465Y036554D01*
X023472Y036559D01*
X023479Y036564D01*
X023486Y036568D01*
X023494Y036572D01*
X023503Y036576D01*
X023511Y036580D01*
X023521Y036583D01*
X023533Y036533D01*
X023532D01*
X023531Y036532D01*
X023529Y036531D01*
X023526Y036530D01*
X023523Y036529D01*
X023519Y036528D01*
X023510Y036523D01*
X023500Y036518D01*
X023490Y036511D01*
X023480Y036503D01*
X023472Y036494D01*
X023471Y036493D01*
X023469Y036489D01*
X023466Y036484D01*
X023462Y036476D01*
X023459Y036467D01*
X023455Y036456D01*
X023453Y036444D01*
X023453Y036430D01*
Y036429D01*
Y036428D01*
Y036425D01*
X023453Y036423D01*
Y036419D01*
X023454Y036414D01*
X023455Y036404D01*
X023458Y036392D01*
X023461Y036380D01*
X023467Y036367D01*
X023474Y036355D01*
Y036355D01*
X023475Y036354D01*
X023478Y036350D01*
X023483Y036345D01*
X023489Y036339D01*
X023498Y036332D01*
X023507Y036325D01*
X023519Y036319D01*
X023531Y036314D01*
X023532D01*
X023533Y036313D01*
X023535Y036313D01*
X023537Y036312D01*
X023541Y036311D01*
X023545Y036310D01*
X023554Y036308D01*
X023565Y036306D01*
X023577Y036304D01*
X023591Y036303D01*
X023605Y036302D01*
X023614D01*
X023617Y036303D01*
X023622D01*
X023628Y036303D01*
X023634Y036304D01*
X023647Y036305D01*
X023662Y036308D01*
X023676Y036312D01*
X023691Y036316D01*
X023691D01*
X023692Y036317D01*
X023694Y036318D01*
X023697Y036319D01*
X023703Y036322D01*
X023711Y036327D01*
X023720Y036333D01*
X023730Y036341D01*
X023738Y036350D01*
X023746Y036360D01*
Y036361D01*
X023746Y036362D01*
X023747Y036364D01*
X023748Y036366D01*
X023749Y036369D01*
X023751Y036372D01*
X023754Y036380D01*
X023758Y036390D01*
X023761Y036401D01*
X023763Y036413D01*
X023763Y036426D01*
Y036426D01*
Y036428D01*
Y036430D01*
X023763Y036433D01*
Y036437D01*
X023762Y036441D01*
X023760Y036451D01*
X023757Y036463D01*
X023753Y036474D01*
X023747Y036486D01*
X023743Y036493D01*
X023739Y036498D01*
X023738Y036499D01*
X023738Y036499D01*
X023736Y036501D01*
X023735Y036503D01*
X023732Y036505D01*
X023728Y036508D01*
X023725Y036511D01*
X023721Y036514D01*
X023716Y036518D01*
X023710Y036521D01*
X023705Y036525D01*
X023698Y036528D01*
X023691Y036531D01*
X023683Y036534D01*
X023675Y036536D01*
X023666Y036539D01*
X023678Y036590D01*
X023679D01*
X023681Y036589D01*
D02*
G37*
G36*
X022404Y039834D02*
X022409Y039834D01*
X022414Y039832D01*
X022421Y039831D01*
X022428Y039830D01*
X022434Y039828D01*
X022442Y039825D01*
X022449Y039823D01*
X022457Y039819D01*
X022465Y039814D01*
X022473Y039809D01*
X022480Y039803D01*
X022487Y039796D01*
X022487Y039796D01*
X022488Y039795D01*
X022490Y039793D01*
X022492Y039789D01*
X022495Y039785D01*
X022498Y039781D01*
X022501Y039775D01*
X022504Y039769D01*
X022508Y039761D01*
X022511Y039754D01*
X022514Y039745D01*
X022517Y039735D01*
X022519Y039725D01*
X022520Y039714D01*
X022522Y039702D01*
X022522Y039689D01*
Y039689D01*
Y039687D01*
Y039683D01*
X022522Y039677D01*
X022313D01*
Y039677D01*
Y039675D01*
X022314Y039673D01*
Y039669D01*
X022315Y039665D01*
X022316Y039661D01*
X022317Y039651D01*
X022321Y039640D01*
X022325Y039628D01*
X022331Y039617D01*
X022339Y039607D01*
X022340D01*
X022340Y039606D01*
X022343Y039603D01*
X022348Y039599D01*
X022355Y039595D01*
X022364Y039591D01*
X022374Y039587D01*
X022385Y039584D01*
X022391Y039583D01*
X022398Y039583D01*
X022402D01*
X022407Y039583D01*
X022413Y039584D01*
X022420Y039586D01*
X022428Y039588D01*
X022435Y039592D01*
X022442Y039596D01*
X022443Y039597D01*
X022446Y039599D01*
X022449Y039602D01*
X022453Y039607D01*
X022457Y039613D01*
X022462Y039620D01*
X022467Y039629D01*
X022472Y039640D01*
X022520Y039634D01*
Y039633D01*
X022520Y039632D01*
X022519Y039630D01*
X022518Y039627D01*
X022517Y039623D01*
X022515Y039619D01*
X022510Y039609D01*
X022505Y039599D01*
X022497Y039588D01*
X022488Y039577D01*
X022477Y039567D01*
X022477D01*
X022476Y039566D01*
X022474Y039565D01*
X022472Y039563D01*
X022468Y039562D01*
X022465Y039560D01*
X022461Y039558D01*
X022456Y039556D01*
X022450Y039553D01*
X022444Y039551D01*
X022431Y039548D01*
X022415Y039545D01*
X022398Y039544D01*
X022392D01*
X022388Y039544D01*
X022383Y039545D01*
X022377Y039546D01*
X022370Y039547D01*
X022363Y039548D01*
X022347Y039553D01*
X022339Y039556D01*
X022331Y039559D01*
X022323Y039564D01*
X022315Y039569D01*
X022308Y039574D01*
X022301Y039581D01*
X022300Y039582D01*
X022299Y039583D01*
X022297Y039585D01*
X022295Y039588D01*
X022292Y039592D01*
X022290Y039597D01*
X022286Y039602D01*
X022283Y039608D01*
X022280Y039615D01*
X022276Y039623D01*
X022274Y039632D01*
X022271Y039642D01*
X022269Y039652D01*
X022267Y039663D01*
X022266Y039674D01*
X022265Y039687D01*
Y039687D01*
Y039690D01*
Y039693D01*
X022266Y039698D01*
X022266Y039704D01*
X022267Y039711D01*
X022268Y039719D01*
X022270Y039726D01*
X022274Y039744D01*
X022277Y039753D01*
X022280Y039763D01*
X022285Y039771D01*
X022290Y039780D01*
X022295Y039788D01*
X022301Y039796D01*
X022302Y039796D01*
X022303Y039798D01*
X022305Y039799D01*
X022308Y039802D01*
X022311Y039805D01*
X022316Y039808D01*
X022321Y039812D01*
X022327Y039815D01*
X022333Y039819D01*
X022340Y039823D01*
X022348Y039826D01*
X022356Y039829D01*
X022365Y039831D01*
X022375Y039833D01*
X022385Y039834D01*
X022395Y039835D01*
X022401D01*
X022404Y039834D01*
D02*
G37*
G36*
X021709Y039550D02*
X021651D01*
X021606Y039667D01*
X021445D01*
X021404Y039550D01*
X021350D01*
X021497Y039934D01*
X021552D01*
X021709Y039550D01*
D02*
G37*
G36*
X021775Y036785D02*
X021779D01*
X021784Y036785D01*
X021794Y036782D01*
X021806Y036780D01*
X021818Y036775D01*
X021830Y036769D01*
X021836Y036765D01*
X021842Y036760D01*
X021842Y036760D01*
X021843Y036759D01*
X021845Y036757D01*
X021846Y036756D01*
X021849Y036753D01*
X021851Y036750D01*
X021857Y036742D01*
X021864Y036732D01*
X021869Y036720D01*
X021874Y036706D01*
X021877Y036690D01*
X021830Y036686D01*
Y036687D01*
X021830Y036687D01*
X021829Y036691D01*
X021827Y036696D01*
X021825Y036702D01*
X021823Y036709D01*
X021820Y036715D01*
X021816Y036721D01*
X021812Y036726D01*
X021811Y036727D01*
X021809Y036730D01*
X021805Y036733D01*
X021799Y036737D01*
X021792Y036740D01*
X021784Y036744D01*
X021775Y036746D01*
X021765Y036747D01*
X021761D01*
X021756Y036746D01*
X021751Y036745D01*
X021745Y036744D01*
X021738Y036741D01*
X021731Y036739D01*
X021725Y036734D01*
X021724Y036734D01*
X021721Y036731D01*
X021717Y036727D01*
X021712Y036722D01*
X021706Y036715D01*
X021700Y036707D01*
X021695Y036697D01*
X021689Y036686D01*
Y036686D01*
X021689Y036685D01*
X021688Y036683D01*
X021687Y036681D01*
X021686Y036677D01*
X021685Y036674D01*
X021684Y036669D01*
X021683Y036664D01*
X021681Y036658D01*
X021680Y036651D01*
X021679Y036644D01*
X021679Y036636D01*
X021678Y036627D01*
X021677Y036618D01*
X021676Y036608D01*
Y036598D01*
X021677Y036599D01*
X021679Y036602D01*
X021683Y036606D01*
X021688Y036612D01*
X021694Y036619D01*
X021701Y036625D01*
X021709Y036631D01*
X021718Y036636D01*
X021718D01*
X021719Y036637D01*
X021722Y036639D01*
X021727Y036640D01*
X021734Y036643D01*
X021741Y036645D01*
X021750Y036647D01*
X021760Y036649D01*
X021770Y036649D01*
X021774D01*
X021778Y036649D01*
X021782Y036648D01*
X021786Y036648D01*
X021792Y036646D01*
X021797Y036645D01*
X021810Y036641D01*
X021817Y036638D01*
X021824Y036634D01*
X021830Y036630D01*
X021837Y036626D01*
X021844Y036620D01*
X021850Y036614D01*
X021851Y036614D01*
X021852Y036613D01*
X021854Y036611D01*
X021855Y036608D01*
X021858Y036604D01*
X021861Y036600D01*
X021864Y036595D01*
X021867Y036590D01*
X021870Y036584D01*
X021873Y036577D01*
X021876Y036569D01*
X021879Y036562D01*
X021880Y036553D01*
X021882Y036544D01*
X021883Y036534D01*
X021884Y036524D01*
Y036524D01*
Y036523D01*
Y036521D01*
Y036518D01*
X021883Y036515D01*
Y036512D01*
X021881Y036503D01*
X021880Y036492D01*
X021877Y036481D01*
X021873Y036469D01*
X021867Y036457D01*
Y036457D01*
X021867Y036456D01*
X021866Y036454D01*
X021865Y036452D01*
X021861Y036447D01*
X021856Y036439D01*
X021850Y036432D01*
X021843Y036424D01*
X021834Y036416D01*
X021825Y036409D01*
X021824D01*
X021824Y036409D01*
X021822Y036408D01*
X021820Y036407D01*
X021814Y036404D01*
X021807Y036402D01*
X021797Y036398D01*
X021787Y036396D01*
X021775Y036394D01*
X021763Y036393D01*
X021760D01*
X021757Y036394D01*
X021753D01*
X021748Y036394D01*
X021742Y036396D01*
X021735Y036397D01*
X021729Y036399D01*
X021721Y036401D01*
X021713Y036404D01*
X021705Y036407D01*
X021697Y036412D01*
X021689Y036417D01*
X021681Y036422D01*
X021674Y036429D01*
X021667Y036437D01*
X021666Y036437D01*
X021665Y036439D01*
X021663Y036441D01*
X021661Y036445D01*
X021658Y036450D01*
X021655Y036456D01*
X021652Y036463D01*
X021648Y036470D01*
X021644Y036480D01*
X021641Y036490D01*
X021638Y036502D01*
X021635Y036515D01*
X021633Y036529D01*
X021631Y036545D01*
X021630Y036562D01*
X021629Y036579D01*
Y036580D01*
Y036580D01*
Y036582D01*
Y036584D01*
X021630Y036590D01*
Y036598D01*
X021630Y036606D01*
X021632Y036617D01*
X021633Y036629D01*
X021634Y036641D01*
X021637Y036654D01*
X021639Y036668D01*
X021643Y036681D01*
X021647Y036695D01*
X021652Y036707D01*
X021657Y036720D01*
X021663Y036731D01*
X021670Y036741D01*
X021671Y036742D01*
X021672Y036743D01*
X021674Y036745D01*
X021677Y036749D01*
X021680Y036752D01*
X021685Y036755D01*
X021690Y036760D01*
X021696Y036764D01*
X021703Y036767D01*
X021710Y036772D01*
X021718Y036775D01*
X021726Y036779D01*
X021736Y036782D01*
X021746Y036784D01*
X021756Y036785D01*
X021768Y036786D01*
X021772D01*
X021775Y036785D01*
D02*
G37*
G36*
X021511Y036400D02*
X021463D01*
Y036700D01*
X021463Y036700D01*
X021460Y036697D01*
X021457Y036694D01*
X021451Y036690D01*
X021445Y036685D01*
X021437Y036680D01*
X021428Y036674D01*
X021418Y036668D01*
X021418D01*
X021417Y036667D01*
X021414Y036665D01*
X021408Y036662D01*
X021402Y036659D01*
X021394Y036655D01*
X021386Y036651D01*
X021377Y036647D01*
X021369Y036644D01*
Y036689D01*
X021370D01*
X021371Y036690D01*
X021373Y036691D01*
X021376Y036692D01*
X021379Y036694D01*
X021383Y036696D01*
X021392Y036702D01*
X021403Y036708D01*
X021415Y036716D01*
X021426Y036725D01*
X021438Y036734D01*
X021438Y036735D01*
X021439Y036735D01*
X021441Y036737D01*
X021443Y036739D01*
X021448Y036744D01*
X021455Y036751D01*
X021461Y036759D01*
X021468Y036767D01*
X021474Y036776D01*
X021480Y036786D01*
X021511D01*
Y036400D01*
D02*
G37*
G36*
X021140Y036790D02*
X021145Y036790D01*
X021151Y036789D01*
X021158Y036788D01*
X021165Y036787D01*
X021180Y036784D01*
X021196Y036779D01*
X021205Y036775D01*
X021213Y036771D01*
X021220Y036766D01*
X021228Y036761D01*
X021229Y036761D01*
X021230Y036760D01*
X021232Y036759D01*
X021235Y036756D01*
X021237Y036753D01*
X021241Y036749D01*
X021245Y036745D01*
X021250Y036740D01*
X021254Y036735D01*
X021259Y036728D01*
X021264Y036721D01*
X021268Y036714D01*
X021272Y036706D01*
X021276Y036697D01*
X021280Y036689D01*
X021283Y036679D01*
X021233Y036667D01*
Y036668D01*
X021232Y036669D01*
X021231Y036671D01*
X021230Y036674D01*
X021229Y036677D01*
X021228Y036681D01*
X021223Y036690D01*
X021218Y036700D01*
X021211Y036710D01*
X021203Y036720D01*
X021194Y036728D01*
X021193Y036729D01*
X021189Y036731D01*
X021184Y036734D01*
X021176Y036738D01*
X021167Y036741D01*
X021156Y036745D01*
X021144Y036747D01*
X021130Y036747D01*
X021125D01*
X021123Y036747D01*
X021119D01*
X021114Y036746D01*
X021104Y036745D01*
X021092Y036742D01*
X021080Y036739D01*
X021067Y036733D01*
X021055Y036726D01*
X021055D01*
X021054Y036725D01*
X021050Y036722D01*
X021045Y036717D01*
X021039Y036711D01*
X021032Y036702D01*
X021025Y036693D01*
X021019Y036681D01*
X021014Y036669D01*
Y036668D01*
X021013Y036667D01*
X021013Y036665D01*
X021012Y036663D01*
X021011Y036659D01*
X021010Y036655D01*
X021008Y036646D01*
X021006Y036635D01*
X021004Y036623D01*
X021003Y036609D01*
X021002Y036595D01*
Y036594D01*
Y036593D01*
Y036590D01*
Y036586D01*
X021003Y036583D01*
Y036578D01*
X021003Y036572D01*
X021004Y036566D01*
X021005Y036553D01*
X021008Y036538D01*
X021012Y036524D01*
X021016Y036509D01*
Y036509D01*
X021017Y036508D01*
X021018Y036506D01*
X021019Y036503D01*
X021022Y036497D01*
X021027Y036489D01*
X021033Y036480D01*
X021041Y036470D01*
X021050Y036462D01*
X021060Y036454D01*
X021061D01*
X021062Y036454D01*
X021064Y036453D01*
X021066Y036452D01*
X021069Y036451D01*
X021072Y036449D01*
X021080Y036446D01*
X021090Y036442D01*
X021101Y036439D01*
X021113Y036437D01*
X021126Y036437D01*
X021130D01*
X021133Y036437D01*
X021137D01*
X021141Y036438D01*
X021151Y036440D01*
X021163Y036443D01*
X021174Y036447D01*
X021186Y036453D01*
X021193Y036457D01*
X021198Y036461D01*
X021199Y036462D01*
X021199Y036462D01*
X021201Y036464D01*
X021203Y036465D01*
X021205Y036468D01*
X021208Y036472D01*
X021211Y036475D01*
X021214Y036479D01*
X021218Y036484D01*
X021221Y036490D01*
X021225Y036495D01*
X021228Y036502D01*
X021231Y036509D01*
X021234Y036517D01*
X021236Y036525D01*
X021239Y036534D01*
X021290Y036522D01*
Y036521D01*
X021289Y036519D01*
X021288Y036515D01*
X021286Y036511D01*
X021285Y036506D01*
X021282Y036500D01*
X021280Y036493D01*
X021276Y036486D01*
X021269Y036470D01*
X021259Y036455D01*
X021252Y036447D01*
X021246Y036439D01*
X021240Y036433D01*
X021232Y036426D01*
X021231Y036426D01*
X021230Y036424D01*
X021228Y036423D01*
X021225Y036421D01*
X021220Y036418D01*
X021216Y036416D01*
X021210Y036413D01*
X021204Y036410D01*
X021196Y036407D01*
X021189Y036404D01*
X021180Y036401D01*
X021171Y036398D01*
X021162Y036396D01*
X021152Y036395D01*
X021141Y036394D01*
X021130Y036393D01*
X021124D01*
X021120Y036394D01*
X021115D01*
X021109Y036394D01*
X021102Y036396D01*
X021094Y036397D01*
X021078Y036399D01*
X021062Y036404D01*
X021045Y036410D01*
X021037Y036414D01*
X021029Y036418D01*
X021029Y036419D01*
X021028Y036419D01*
X021025Y036421D01*
X021023Y036423D01*
X021020Y036426D01*
X021016Y036429D01*
X021012Y036433D01*
X021007Y036437D01*
X021003Y036442D01*
X020998Y036447D01*
X020988Y036460D01*
X020978Y036475D01*
X020970Y036492D01*
Y036492D01*
X020969Y036494D01*
X020968Y036497D01*
X020967Y036500D01*
X020966Y036504D01*
X020964Y036510D01*
X020962Y036516D01*
X020960Y036523D01*
X020958Y036530D01*
X020956Y036538D01*
X020953Y036555D01*
X020951Y036575D01*
X020950Y036595D01*
Y036595D01*
Y036598D01*
Y036601D01*
X020951Y036605D01*
Y036610D01*
X020951Y036616D01*
X020952Y036623D01*
X020953Y036630D01*
X020956Y036646D01*
X020959Y036664D01*
X020965Y036682D01*
X020973Y036699D01*
X020973Y036700D01*
X020974Y036701D01*
X020975Y036704D01*
X020977Y036706D01*
X020979Y036710D01*
X020982Y036715D01*
X020989Y036725D01*
X020999Y036736D01*
X021010Y036747D01*
X021023Y036758D01*
X021038Y036767D01*
X021038Y036768D01*
X021040Y036769D01*
X021042Y036770D01*
X021045Y036771D01*
X021049Y036773D01*
X021054Y036775D01*
X021059Y036777D01*
X021065Y036779D01*
X021072Y036781D01*
X021079Y036784D01*
X021095Y036787D01*
X021113Y036790D01*
X021131Y036791D01*
X021136D01*
X021140Y036790D01*
D02*
G37*
G36*
X021864Y039834D02*
X021868D01*
X021872Y039834D01*
X021883Y039832D01*
X021894Y039829D01*
X021907Y039825D01*
X021919Y039819D01*
X021931Y039811D01*
X021931D01*
X021932Y039810D01*
X021935Y039807D01*
X021940Y039802D01*
X021946Y039795D01*
X021952Y039786D01*
X021958Y039775D01*
X021964Y039762D01*
X021968Y039747D01*
X021922Y039740D01*
Y039740D01*
X021921Y039741D01*
X021921Y039744D01*
X021919Y039749D01*
X021916Y039755D01*
X021913Y039762D01*
X021909Y039769D01*
X021904Y039776D01*
X021898Y039781D01*
X021898Y039782D01*
X021896Y039784D01*
X021892Y039786D01*
X021887Y039789D01*
X021881Y039791D01*
X021874Y039794D01*
X021867Y039795D01*
X021858Y039796D01*
X021855D01*
X021852Y039795D01*
X021846Y039795D01*
X021838Y039793D01*
X021829Y039790D01*
X021819Y039785D01*
X021810Y039779D01*
X021805Y039775D01*
X021801Y039770D01*
Y039770D01*
X021800Y039769D01*
X021798Y039768D01*
X021797Y039765D01*
X021796Y039763D01*
X021793Y039759D01*
X021792Y039755D01*
X021790Y039751D01*
X021787Y039745D01*
X021786Y039739D01*
X021783Y039733D01*
X021782Y039725D01*
X021781Y039718D01*
X021780Y039709D01*
X021778Y039699D01*
Y039689D01*
Y039689D01*
Y039687D01*
Y039684D01*
X021779Y039680D01*
Y039675D01*
X021780Y039670D01*
X021781Y039658D01*
X021783Y039645D01*
X021787Y039631D01*
X021792Y039619D01*
X021796Y039613D01*
X021800Y039608D01*
X021801Y039607D01*
X021803Y039604D01*
X021808Y039600D01*
X021815Y039596D01*
X021823Y039591D01*
X021832Y039587D01*
X021843Y039584D01*
X021850Y039583D01*
X021856Y039583D01*
X021857D01*
X021860Y039583D01*
X021866Y039584D01*
X021872Y039585D01*
X021879Y039587D01*
X021887Y039590D01*
X021894Y039594D01*
X021902Y039599D01*
X021903Y039600D01*
X021904Y039603D01*
X021908Y039607D01*
X021912Y039613D01*
X021916Y039620D01*
X021920Y039629D01*
X021923Y039640D01*
X021926Y039652D01*
X021972Y039646D01*
Y039645D01*
X021972Y039644D01*
X021971Y039642D01*
X021970Y039638D01*
X021969Y039634D01*
X021968Y039629D01*
X021964Y039618D01*
X021959Y039607D01*
X021952Y039594D01*
X021943Y039582D01*
X021938Y039576D01*
X021933Y039571D01*
X021932Y039570D01*
X021931Y039569D01*
X021929Y039568D01*
X021927Y039567D01*
X021924Y039564D01*
X021921Y039562D01*
X021916Y039560D01*
X021912Y039557D01*
X021901Y039552D01*
X021887Y039548D01*
X021873Y039545D01*
X021864Y039544D01*
X021856Y039544D01*
X021851D01*
X021847Y039544D01*
X021842Y039545D01*
X021836Y039546D01*
X021830Y039547D01*
X021823Y039548D01*
X021808Y039553D01*
X021801Y039556D01*
X021793Y039559D01*
X021786Y039564D01*
X021778Y039569D01*
X021771Y039574D01*
X021765Y039581D01*
X021764Y039582D01*
X021763Y039583D01*
X021761Y039585D01*
X021759Y039588D01*
X021757Y039592D01*
X021753Y039597D01*
X021751Y039602D01*
X021747Y039608D01*
X021744Y039615D01*
X021741Y039624D01*
X021738Y039632D01*
X021736Y039642D01*
X021734Y039652D01*
X021732Y039664D01*
X021731Y039675D01*
X021730Y039688D01*
Y039689D01*
Y039690D01*
Y039693D01*
Y039696D01*
X021731Y039700D01*
Y039704D01*
X021731Y039709D01*
X021732Y039715D01*
X021734Y039727D01*
X021736Y039740D01*
X021740Y039754D01*
X021745Y039767D01*
Y039768D01*
X021745Y039769D01*
X021746Y039770D01*
X021747Y039773D01*
X021751Y039779D01*
X021756Y039786D01*
X021762Y039794D01*
X021770Y039803D01*
X021780Y039811D01*
X021790Y039818D01*
X021791D01*
X021792Y039818D01*
X021793Y039819D01*
X021796Y039820D01*
X021798Y039821D01*
X021802Y039823D01*
X021810Y039826D01*
X021820Y039829D01*
X021831Y039832D01*
X021843Y039834D01*
X021857Y039835D01*
X021861D01*
X021864Y039834D01*
D02*
G37*
G36*
X022133D02*
X022136D01*
X022141Y039834D01*
X022151Y039832D01*
X022163Y039829D01*
X022175Y039825D01*
X022187Y039819D01*
X022199Y039811D01*
X022200D01*
X022200Y039810D01*
X022204Y039807D01*
X022209Y039802D01*
X022215Y039795D01*
X022221Y039786D01*
X022227Y039775D01*
X022232Y039762D01*
X022236Y039747D01*
X022190Y039740D01*
Y039740D01*
X022190Y039741D01*
X022189Y039744D01*
X022187Y039749D01*
X022185Y039755D01*
X022182Y039762D01*
X022178Y039769D01*
X022173Y039776D01*
X022167Y039781D01*
X022166Y039782D01*
X022164Y039784D01*
X022160Y039786D01*
X022156Y039789D01*
X022150Y039791D01*
X022143Y039794D01*
X022135Y039795D01*
X022127Y039796D01*
X022124D01*
X022121Y039795D01*
X022115Y039795D01*
X022106Y039793D01*
X022098Y039790D01*
X022088Y039785D01*
X022078Y039779D01*
X022074Y039775D01*
X022069Y039770D01*
Y039770D01*
X022068Y039769D01*
X022067Y039768D01*
X022066Y039765D01*
X022064Y039763D01*
X022062Y039759D01*
X022060Y039755D01*
X022058Y039751D01*
X022056Y039745D01*
X022054Y039739D01*
X022052Y039733D01*
X022050Y039725D01*
X022049Y039718D01*
X022048Y039709D01*
X022047Y039699D01*
Y039689D01*
Y039689D01*
Y039687D01*
Y039684D01*
X022048Y039680D01*
Y039675D01*
X022048Y039670D01*
X022050Y039658D01*
X022052Y039645D01*
X022056Y039631D01*
X022061Y039619D01*
X022064Y039613D01*
X022068Y039608D01*
X022069Y039607D01*
X022072Y039604D01*
X022077Y039600D01*
X022083Y039596D01*
X022091Y039591D01*
X022101Y039587D01*
X022112Y039584D01*
X022118Y039583D01*
X022124Y039583D01*
X022125D01*
X022129Y039583D01*
X022134Y039584D01*
X022140Y039585D01*
X022148Y039587D01*
X022155Y039590D01*
X022163Y039594D01*
X022170Y039599D01*
X022171Y039600D01*
X022173Y039603D01*
X022176Y039607D01*
X022180Y039613D01*
X022184Y039620D01*
X022189Y039629D01*
X022192Y039640D01*
X022194Y039652D01*
X022241Y039646D01*
Y039645D01*
X022240Y039644D01*
X022240Y039642D01*
X022239Y039638D01*
X022238Y039634D01*
X022237Y039629D01*
X022233Y039618D01*
X022228Y039607D01*
X022221Y039594D01*
X022212Y039582D01*
X022207Y039576D01*
X022201Y039571D01*
X022201Y039570D01*
X022200Y039569D01*
X022198Y039568D01*
X022196Y039567D01*
X022193Y039564D01*
X022189Y039562D01*
X022185Y039560D01*
X022180Y039557D01*
X022169Y039552D01*
X022156Y039548D01*
X022141Y039545D01*
X022133Y039544D01*
X022125Y039544D01*
X022119D01*
X022115Y039544D01*
X022110Y039545D01*
X022105Y039546D01*
X022099Y039547D01*
X022092Y039548D01*
X022077Y039553D01*
X022070Y039556D01*
X022062Y039559D01*
X022054Y039564D01*
X022047Y039569D01*
X022040Y039574D01*
X022033Y039581D01*
X022033Y039582D01*
X022032Y039583D01*
X022030Y039585D01*
X022028Y039588D01*
X022025Y039592D01*
X022022Y039597D01*
X022019Y039602D01*
X022016Y039608D01*
X022013Y039615D01*
X022010Y039624D01*
X022007Y039632D01*
X022004Y039642D01*
X022002Y039652D01*
X022000Y039664D01*
X021999Y039675D01*
X021999Y039688D01*
Y039689D01*
Y039690D01*
Y039693D01*
Y039696D01*
X021999Y039700D01*
Y039704D01*
X022000Y039709D01*
X022000Y039715D01*
X022002Y039727D01*
X022005Y039740D01*
X022008Y039754D01*
X022013Y039767D01*
Y039768D01*
X022014Y039769D01*
X022015Y039770D01*
X022016Y039773D01*
X022019Y039779D01*
X022024Y039786D01*
X022031Y039794D01*
X022039Y039803D01*
X022048Y039811D01*
X022059Y039818D01*
X022059D01*
X022060Y039818D01*
X022062Y039819D01*
X022064Y039820D01*
X022067Y039821D01*
X022070Y039823D01*
X022079Y039826D01*
X022088Y039829D01*
X022100Y039832D01*
X022112Y039834D01*
X022125Y039835D01*
X022130D01*
X022133Y039834D01*
D02*
G37*
G36*
X023800Y036763D02*
X023500D01*
X023500Y036763D01*
X023503Y036760D01*
X023506Y036757D01*
X023510Y036751D01*
X023515Y036745D01*
X023520Y036737D01*
X023526Y036728D01*
X023532Y036718D01*
Y036718D01*
X023533Y036717D01*
X023535Y036714D01*
X023538Y036708D01*
X023541Y036702D01*
X023545Y036694D01*
X023549Y036686D01*
X023553Y036677D01*
X023556Y036669D01*
X023511D01*
Y036670D01*
X023510Y036671D01*
X023509Y036673D01*
X023508Y036676D01*
X023506Y036679D01*
X023504Y036683D01*
X023498Y036692D01*
X023492Y036703D01*
X023484Y036715D01*
X023475Y036726D01*
X023466Y036738D01*
X023465Y036738D01*
X023465Y036739D01*
X023463Y036741D01*
X023461Y036743D01*
X023456Y036748D01*
X023449Y036755D01*
X023441Y036761D01*
X023433Y036768D01*
X023424Y036774D01*
X023414Y036780D01*
Y036811D01*
X023800D01*
Y036763D01*
D02*
G37*
G36*
X023699Y037184D02*
X023703Y037183D01*
X023708Y037182D01*
X023713Y037181D01*
X023720Y037180D01*
X023732Y037176D01*
X023740Y037173D01*
X023746Y037169D01*
X023753Y037165D01*
X023760Y037161D01*
X023767Y037155D01*
X023773Y037149D01*
X023774Y037149D01*
X023775Y037147D01*
X023777Y037146D01*
X023778Y037143D01*
X023781Y037139D01*
X023784Y037135D01*
X023787Y037130D01*
X023790Y037125D01*
X023793Y037119D01*
X023796Y037111D01*
X023799Y037104D01*
X023802Y037096D01*
X023803Y037087D01*
X023805Y037078D01*
X023806Y037068D01*
X023807Y037058D01*
Y037057D01*
Y037055D01*
Y037052D01*
X023806Y037048D01*
X023806Y037043D01*
X023805Y037038D01*
X023804Y037031D01*
X023802Y037025D01*
X023798Y037010D01*
X023796Y037002D01*
X023793Y036995D01*
X023789Y036987D01*
X023784Y036979D01*
X023779Y036972D01*
X023773Y036965D01*
X023773Y036965D01*
X023772Y036964D01*
X023770Y036962D01*
X023767Y036960D01*
X023764Y036958D01*
X023760Y036954D01*
X023756Y036952D01*
X023750Y036948D01*
X023744Y036945D01*
X023738Y036942D01*
X023724Y036937D01*
X023716Y036934D01*
X023707Y036933D01*
X023698Y036932D01*
X023690Y036931D01*
X023686D01*
X023683Y036932D01*
X023680D01*
X023676Y036932D01*
X023667Y036933D01*
X023657Y036935D01*
X023647Y036939D01*
X023637Y036944D01*
X023627Y036950D01*
X023626D01*
X023626Y036951D01*
X023623Y036953D01*
X023619Y036958D01*
X023613Y036964D01*
X023607Y036971D01*
X023601Y036981D01*
X023596Y036991D01*
X023592Y037004D01*
Y037004D01*
X023592Y037003D01*
X023591Y037001D01*
X023590Y036999D01*
X023588Y036994D01*
X023585Y036988D01*
X023580Y036980D01*
X023575Y036973D01*
X023569Y036967D01*
X023562Y036960D01*
X023561Y036960D01*
X023559Y036958D01*
X023554Y036956D01*
X023549Y036954D01*
X023541Y036951D01*
X023533Y036949D01*
X023524Y036947D01*
X023514Y036947D01*
X023510D01*
X023506Y036947D01*
X023503Y036948D01*
X023499Y036948D01*
X023489Y036950D01*
X023478Y036954D01*
X023466Y036959D01*
X023460Y036963D01*
X023454Y036967D01*
X023449Y036971D01*
X023443Y036976D01*
X023443Y036977D01*
X023442Y036978D01*
X023440Y036980D01*
X023439Y036982D01*
X023436Y036985D01*
X023434Y036989D01*
X023431Y036993D01*
X023429Y036998D01*
X023426Y037003D01*
X023423Y037009D01*
X023421Y037016D01*
X023419Y037023D01*
X023415Y037039D01*
X023415Y037048D01*
X023414Y037056D01*
Y037057D01*
Y037059D01*
Y037061D01*
X023415Y037065D01*
X023415Y037069D01*
X023416Y037074D01*
X023416Y037080D01*
X023418Y037085D01*
X023421Y037099D01*
X023426Y037112D01*
X023430Y037119D01*
X023434Y037125D01*
X023439Y037131D01*
X023444Y037137D01*
X023444Y037138D01*
X023445Y037139D01*
X023446Y037140D01*
X023449Y037142D01*
X023452Y037145D01*
X023455Y037147D01*
X023464Y037153D01*
X023474Y037159D01*
X023486Y037164D01*
X023500Y037167D01*
X023508Y037168D01*
X023515Y037169D01*
X023520D01*
X023525Y037168D01*
X023531Y037167D01*
X023539Y037165D01*
X023546Y037162D01*
X023554Y037159D01*
X023562Y037154D01*
X023563Y037154D01*
X023565Y037151D01*
X023569Y037148D01*
X023573Y037144D01*
X023578Y037137D01*
X023583Y037130D01*
X023588Y037122D01*
X023592Y037112D01*
Y037112D01*
X023593Y037114D01*
X023594Y037115D01*
X023595Y037117D01*
X023597Y037124D01*
X023601Y037132D01*
X023607Y037140D01*
X023613Y037149D01*
X023621Y037157D01*
X023630Y037165D01*
X023630D01*
X023631Y037166D01*
X023634Y037168D01*
X023640Y037171D01*
X023647Y037175D01*
X023656Y037178D01*
X023666Y037181D01*
X023678Y037184D01*
X023691Y037184D01*
X023696D01*
X023699Y037184D01*
D02*
G37*
G36*
X022354Y043434D02*
X022360Y043433D01*
X022368Y043431D01*
X022375Y043428D01*
X022384Y043424D01*
X022394Y043419D01*
X022376Y043376D01*
X022376Y043376D01*
X022374Y043378D01*
X022370Y043379D01*
X022366Y043381D01*
X022361Y043383D01*
X022355Y043384D01*
X022349Y043385D01*
X022343Y043386D01*
X022340D01*
X022337Y043385D01*
X022333Y043385D01*
X022329Y043384D01*
X022324Y043382D01*
X022319Y043380D01*
X022315Y043376D01*
X022314Y043376D01*
X022313Y043375D01*
X022311Y043373D01*
X022308Y043370D01*
X022305Y043366D01*
X022303Y043361D01*
X022300Y043356D01*
X022298Y043350D01*
X022297Y043349D01*
X022296Y043346D01*
X022295Y043341D01*
X022294Y043334D01*
X022292Y043326D01*
X022291Y043316D01*
X022290Y043307D01*
X022290Y043295D01*
Y043150D01*
X022243D01*
Y043429D01*
X022285D01*
Y043386D01*
X022286Y043387D01*
X022288Y043391D01*
X022291Y043396D01*
X022295Y043402D01*
X022300Y043408D01*
X022305Y043415D01*
X022310Y043420D01*
X022315Y043425D01*
X022315Y043425D01*
X022317Y043426D01*
X022320Y043428D01*
X022324Y043430D01*
X022328Y043431D01*
X022334Y043433D01*
X022339Y043434D01*
X022345Y043435D01*
X022349D01*
X022354Y043434D01*
D02*
G37*
G36*
X022097Y043146D02*
Y043145D01*
X022096Y043143D01*
X022095Y043141D01*
X022094Y043138D01*
X022092Y043134D01*
X022091Y043130D01*
X022087Y043121D01*
X022083Y043110D01*
X022078Y043099D01*
X022074Y043090D01*
X022072Y043086D01*
X022070Y043082D01*
X022069Y043081D01*
X022068Y043078D01*
X022065Y043075D01*
X022062Y043070D01*
X022057Y043064D01*
X022052Y043058D01*
X022047Y043053D01*
X022041Y043048D01*
X022041Y043048D01*
X022038Y043047D01*
X022035Y043045D01*
X022030Y043043D01*
X022025Y043041D01*
X022018Y043039D01*
X022011Y043038D01*
X022002Y043037D01*
X022000D01*
X021997Y043038D01*
X021993D01*
X021989Y043039D01*
X021984Y043040D01*
X021978Y043041D01*
X021972Y043043D01*
X021967Y043087D01*
X021968D01*
X021970Y043087D01*
X021973Y043086D01*
X021976Y043085D01*
X021985Y043083D01*
X021994Y043083D01*
X021997D01*
X022000Y043083D01*
X022003D01*
X022011Y043085D01*
X022015Y043087D01*
X022019Y043088D01*
X022020D01*
X022021Y043089D01*
X022022Y043091D01*
X022025Y043092D01*
X022030Y043097D01*
X022034Y043103D01*
Y043103D01*
X022035Y043104D01*
X022036Y043107D01*
X022037Y043110D01*
X022040Y043114D01*
X022042Y043121D01*
X022045Y043129D01*
X022048Y043138D01*
Y043139D01*
X022050Y043141D01*
X022051Y043145D01*
X022053Y043150D01*
X021947Y043429D01*
X021997D01*
X022056Y043267D01*
Y043267D01*
X022056Y043266D01*
X022057Y043264D01*
X022057Y043262D01*
X022058Y043259D01*
X022059Y043255D01*
X022062Y043248D01*
X022066Y043238D01*
X022069Y043227D01*
X022072Y043215D01*
X022076Y043203D01*
Y043203D01*
X022076Y043204D01*
X022077Y043206D01*
X022077Y043208D01*
X022078Y043211D01*
X022079Y043214D01*
X022081Y043223D01*
X022084Y043232D01*
X022088Y043243D01*
X022091Y043254D01*
X022096Y043266D01*
X022155Y043429D01*
X022203D01*
X022097Y043146D01*
D02*
G37*
G36*
X021753Y043540D02*
X021757D01*
X021768Y043539D01*
X021779Y043537D01*
X021791Y043535D01*
X021805Y043531D01*
X021818Y043527D01*
X021818D01*
X021819Y043526D01*
X021821Y043526D01*
X021823Y043525D01*
X021829Y043521D01*
X021837Y043517D01*
X021845Y043512D01*
X021854Y043505D01*
X021862Y043498D01*
X021870Y043489D01*
X021871Y043488D01*
X021874Y043485D01*
X021877Y043480D01*
X021881Y043472D01*
X021886Y043464D01*
X021891Y043452D01*
X021896Y043440D01*
X021900Y043426D01*
X021854Y043414D01*
Y043415D01*
X021853Y043415D01*
X021852Y043417D01*
X021852Y043419D01*
X021850Y043424D01*
X021848Y043431D01*
X021845Y043439D01*
X021841Y043446D01*
X021837Y043454D01*
X021832Y043460D01*
X021831Y043461D01*
X021830Y043463D01*
X021826Y043466D01*
X021823Y043470D01*
X021818Y043474D01*
X021811Y043479D01*
X021804Y043483D01*
X021795Y043487D01*
X021794Y043487D01*
X021791Y043489D01*
X021786Y043490D01*
X021780Y043492D01*
X021772Y043494D01*
X021763Y043496D01*
X021753Y043497D01*
X021743Y043497D01*
X021736D01*
X021734Y043497D01*
X021730D01*
X021722Y043496D01*
X021713Y043495D01*
X021702Y043493D01*
X021692Y043490D01*
X021682Y043486D01*
X021681Y043486D01*
X021678Y043485D01*
X021673Y043482D01*
X021668Y043479D01*
X021661Y043475D01*
X021654Y043470D01*
X021647Y043465D01*
X021641Y043459D01*
X021640Y043458D01*
X021638Y043456D01*
X021635Y043452D01*
X021632Y043447D01*
X021628Y043442D01*
X021624Y043435D01*
X021620Y043428D01*
X021617Y043420D01*
Y043420D01*
X021616Y043419D01*
X021615Y043417D01*
X021614Y043414D01*
X021613Y043411D01*
X021612Y043407D01*
X021611Y043403D01*
X021609Y043398D01*
X021607Y043386D01*
X021604Y043373D01*
X021603Y043359D01*
X021602Y043343D01*
Y043343D01*
Y043341D01*
Y043338D01*
X021603Y043335D01*
Y043330D01*
X021603Y043325D01*
X021604Y043319D01*
X021604Y043313D01*
X021607Y043299D01*
X021609Y043285D01*
X021614Y043270D01*
X021619Y043257D01*
Y043256D01*
X021620Y043255D01*
X021621Y043253D01*
X021623Y043251D01*
X021627Y043245D01*
X021633Y043237D01*
X021640Y043229D01*
X021649Y043220D01*
X021659Y043213D01*
X021671Y043205D01*
X021672D01*
X021673Y043205D01*
X021674Y043204D01*
X021677Y043203D01*
X021680Y043202D01*
X021684Y043201D01*
X021693Y043197D01*
X021704Y043194D01*
X021716Y043192D01*
X021729Y043189D01*
X021743Y043189D01*
X021749D01*
X021752Y043189D01*
X021755D01*
X021764Y043191D01*
X021774Y043192D01*
X021784Y043194D01*
X021796Y043197D01*
X021808Y043201D01*
X021808D01*
X021809Y043202D01*
X021810Y043202D01*
X021813Y043203D01*
X021819Y043206D01*
X021825Y043209D01*
X021833Y043213D01*
X021841Y043218D01*
X021849Y043223D01*
X021856Y043228D01*
Y043300D01*
X021743D01*
Y043346D01*
X021906D01*
Y043203D01*
X021905Y043203D01*
X021904Y043202D01*
X021902Y043201D01*
X021899Y043198D01*
X021896Y043196D01*
X021892Y043193D01*
X021887Y043190D01*
X021882Y043187D01*
X021870Y043179D01*
X021857Y043172D01*
X021843Y043164D01*
X021828Y043158D01*
X021827D01*
X021826Y043158D01*
X021824Y043157D01*
X021821Y043156D01*
X021818Y043155D01*
X021813Y043153D01*
X021808Y043152D01*
X021803Y043151D01*
X021791Y043148D01*
X021777Y043146D01*
X021762Y043144D01*
X021746Y043143D01*
X021741D01*
X021737Y043144D01*
X021732D01*
X021726Y043144D01*
X021719Y043146D01*
X021712Y043146D01*
X021696Y043149D01*
X021679Y043153D01*
X021661Y043159D01*
X021652Y043163D01*
X021643Y043167D01*
X021643Y043168D01*
X021641Y043168D01*
X021639Y043170D01*
X021635Y043172D01*
X021632Y043174D01*
X021628Y043177D01*
X021617Y043185D01*
X021606Y043195D01*
X021594Y043207D01*
X021583Y043221D01*
X021573Y043237D01*
Y043238D01*
X021572Y043239D01*
X021571Y043242D01*
X021569Y043245D01*
X021568Y043249D01*
X021566Y043255D01*
X021564Y043260D01*
X021562Y043267D01*
X021559Y043274D01*
X021557Y043283D01*
X021556Y043291D01*
X021554Y043300D01*
X021551Y043319D01*
X021550Y043340D01*
Y043340D01*
Y043343D01*
Y043345D01*
X021551Y043349D01*
Y043354D01*
X021551Y043360D01*
X021552Y043366D01*
X021553Y043374D01*
X021554Y043381D01*
X021556Y043390D01*
X021560Y043408D01*
X021566Y043426D01*
X021573Y043444D01*
X021574Y043445D01*
X021574Y043446D01*
X021576Y043449D01*
X021578Y043452D01*
X021580Y043456D01*
X021583Y043461D01*
X021591Y043471D01*
X021600Y043484D01*
X021612Y043495D01*
X021625Y043507D01*
X021633Y043512D01*
X021640Y043517D01*
X021641Y043517D01*
X021643Y043518D01*
X021645Y043519D01*
X021648Y043521D01*
X021653Y043522D01*
X021658Y043525D01*
X021663Y043527D01*
X021670Y043529D01*
X021677Y043531D01*
X021685Y043533D01*
X021693Y043535D01*
X021702Y043537D01*
X021721Y043540D01*
X021731Y043541D01*
X021749D01*
X021753Y043540D01*
D02*
G37*
G36*
X022190Y041090D02*
X022195Y041090D01*
X022201Y041089D01*
X022208Y041089D01*
X022215Y041087D01*
X022230Y041083D01*
X022246Y041079D01*
X022255Y041075D01*
X022263Y041071D01*
X022270Y041066D01*
X022278Y041061D01*
X022279Y041061D01*
X022280Y041060D01*
X022282Y041059D01*
X022285Y041056D01*
X022287Y041053D01*
X022291Y041049D01*
X022295Y041045D01*
X022300Y041040D01*
X022304Y041035D01*
X022309Y041028D01*
X022314Y041021D01*
X022318Y041014D01*
X022322Y041006D01*
X022326Y040997D01*
X022330Y040989D01*
X022333Y040979D01*
X022283Y040967D01*
Y040968D01*
X022282Y040969D01*
X022281Y040971D01*
X022280Y040974D01*
X022279Y040977D01*
X022278Y040981D01*
X022273Y040990D01*
X022268Y041000D01*
X022261Y041010D01*
X022253Y041020D01*
X022244Y041028D01*
X022243Y041029D01*
X022239Y041031D01*
X022234Y041034D01*
X022226Y041038D01*
X022217Y041041D01*
X022206Y041045D01*
X022194Y041047D01*
X022180Y041047D01*
X022175D01*
X022173Y041047D01*
X022169D01*
X022164Y041046D01*
X022154Y041045D01*
X022142Y041042D01*
X022130Y041039D01*
X022117Y041033D01*
X022105Y041026D01*
X022105D01*
X022104Y041025D01*
X022100Y041022D01*
X022095Y041017D01*
X022089Y041011D01*
X022082Y041002D01*
X022075Y040993D01*
X022069Y040981D01*
X022064Y040969D01*
Y040968D01*
X022063Y040967D01*
X022063Y040965D01*
X022062Y040963D01*
X022061Y040959D01*
X022060Y040955D01*
X022058Y040946D01*
X022056Y040935D01*
X022054Y040923D01*
X022053Y040909D01*
X022052Y040895D01*
Y040894D01*
Y040893D01*
Y040890D01*
Y040886D01*
X022053Y040883D01*
Y040878D01*
X022053Y040872D01*
X022054Y040866D01*
X022055Y040853D01*
X022058Y040838D01*
X022062Y040824D01*
X022066Y040809D01*
Y040809D01*
X022067Y040808D01*
X022068Y040806D01*
X022069Y040803D01*
X022072Y040797D01*
X022077Y040789D01*
X022083Y040780D01*
X022091Y040770D01*
X022100Y040762D01*
X022110Y040754D01*
X022111D01*
X022112Y040754D01*
X022114Y040753D01*
X022116Y040752D01*
X022119Y040750D01*
X022122Y040749D01*
X022130Y040746D01*
X022140Y040742D01*
X022151Y040739D01*
X022163Y040737D01*
X022176Y040737D01*
X022180D01*
X022183Y040737D01*
X022187D01*
X022191Y040738D01*
X022201Y040740D01*
X022213Y040743D01*
X022224Y040747D01*
X022236Y040753D01*
X022243Y040757D01*
X022248Y040761D01*
X022249Y040762D01*
X022249Y040762D01*
X022251Y040764D01*
X022253Y040765D01*
X022255Y040768D01*
X022258Y040772D01*
X022261Y040775D01*
X022264Y040779D01*
X022268Y040784D01*
X022271Y040790D01*
X022275Y040795D01*
X022278Y040802D01*
X022281Y040809D01*
X022284Y040817D01*
X022286Y040825D01*
X022289Y040834D01*
X022340Y040822D01*
Y040821D01*
X022339Y040819D01*
X022338Y040815D01*
X022336Y040811D01*
X022335Y040806D01*
X022332Y040800D01*
X022330Y040793D01*
X022326Y040786D01*
X022319Y040770D01*
X022309Y040755D01*
X022302Y040747D01*
X022296Y040739D01*
X022290Y040733D01*
X022282Y040726D01*
X022281Y040726D01*
X022280Y040724D01*
X022278Y040723D01*
X022275Y040721D01*
X022270Y040718D01*
X022266Y040716D01*
X022260Y040713D01*
X022254Y040710D01*
X022246Y040707D01*
X022239Y040704D01*
X022230Y040701D01*
X022221Y040698D01*
X022212Y040696D01*
X022202Y040695D01*
X022191Y040694D01*
X022180Y040693D01*
X022174D01*
X022170Y040694D01*
X022165D01*
X022159Y040694D01*
X022152Y040696D01*
X022144Y040697D01*
X022128Y040699D01*
X022112Y040704D01*
X022095Y040710D01*
X022087Y040714D01*
X022079Y040718D01*
X022079Y040719D01*
X022078Y040719D01*
X022075Y040721D01*
X022073Y040723D01*
X022070Y040726D01*
X022066Y040729D01*
X022062Y040733D01*
X022057Y040737D01*
X022053Y040742D01*
X022048Y040747D01*
X022038Y040760D01*
X022028Y040775D01*
X022020Y040792D01*
Y040792D01*
X022019Y040794D01*
X022018Y040797D01*
X022017Y040800D01*
X022016Y040804D01*
X022014Y040810D01*
X022012Y040816D01*
X022010Y040823D01*
X022008Y040830D01*
X022006Y040838D01*
X022003Y040855D01*
X022001Y040875D01*
X022000Y040895D01*
Y040895D01*
Y040898D01*
Y040901D01*
X022001Y040905D01*
Y040910D01*
X022001Y040916D01*
X022002Y040923D01*
X022003Y040930D01*
X022006Y040946D01*
X022009Y040964D01*
X022015Y040982D01*
X022023Y040999D01*
X022023Y041000D01*
X022024Y041001D01*
X022025Y041004D01*
X022027Y041006D01*
X022029Y041010D01*
X022032Y041015D01*
X022039Y041025D01*
X022049Y041036D01*
X022060Y041047D01*
X022073Y041058D01*
X022088Y041067D01*
X022088Y041068D01*
X022090Y041069D01*
X022092Y041070D01*
X022095Y041071D01*
X022099Y041073D01*
X022104Y041075D01*
X022109Y041077D01*
X022115Y041079D01*
X022122Y041081D01*
X022129Y041083D01*
X022145Y041087D01*
X022163Y041090D01*
X022181Y041091D01*
X022186D01*
X022190Y041090D01*
D02*
G37*
G36*
X022859Y040700D02*
X022812D01*
Y041000D01*
X022811Y041000D01*
X022809Y040997D01*
X022805Y040994D01*
X022800Y040990D01*
X022794Y040985D01*
X022786Y040980D01*
X022777Y040974D01*
X022767Y040968D01*
X022766D01*
X022766Y040967D01*
X022763Y040965D01*
X022757Y040962D01*
X022750Y040959D01*
X022743Y040955D01*
X022734Y040951D01*
X022726Y040947D01*
X022718Y040944D01*
Y040989D01*
X022718D01*
X022719Y040990D01*
X022722Y040991D01*
X022724Y040992D01*
X022728Y040994D01*
X022731Y040996D01*
X022741Y041002D01*
X022752Y041008D01*
X022763Y041016D01*
X022775Y041025D01*
X022786Y041034D01*
X022787Y041035D01*
X022788Y041035D01*
X022789Y041037D01*
X022791Y041039D01*
X022796Y041044D01*
X022803Y041051D01*
X022810Y041059D01*
X022817Y041067D01*
X022823Y041076D01*
X022829Y041086D01*
X022859D01*
Y040700D01*
D02*
G37*
G36*
X022519Y041085D02*
X022524Y041085D01*
X022529Y041084D01*
X022536Y041083D01*
X022542Y041082D01*
X022556Y041078D01*
X022571Y041072D01*
X022578Y041069D01*
X022585Y041065D01*
X022592Y041060D01*
X022598Y041055D01*
X022598Y041054D01*
X022599Y041054D01*
X022601Y041051D01*
X022603Y041049D01*
X022606Y041046D01*
X022608Y041042D01*
X022611Y041039D01*
X022614Y041034D01*
X022620Y041023D01*
X022625Y041010D01*
X022628Y041003D01*
X022629Y040995D01*
X022630Y040987D01*
X022630Y040979D01*
Y040978D01*
Y040975D01*
X022630Y040971D01*
X022629Y040965D01*
X022628Y040958D01*
X022626Y040950D01*
X022624Y040942D01*
X022620Y040934D01*
X022620Y040933D01*
X022619Y040930D01*
X022617Y040925D01*
X022613Y040919D01*
X022609Y040913D01*
X022603Y040904D01*
X022597Y040896D01*
X022589Y040886D01*
X022588Y040885D01*
X022585Y040882D01*
X022582Y040879D01*
X022579Y040876D01*
X022576Y040873D01*
X022572Y040869D01*
X022567Y040864D01*
X022562Y040859D01*
X022556Y040854D01*
X022549Y040848D01*
X022542Y040842D01*
X022534Y040834D01*
X022526Y040827D01*
X022517Y040819D01*
X022516Y040819D01*
X022515Y040818D01*
X022513Y040816D01*
X022510Y040814D01*
X022507Y040810D01*
X022503Y040807D01*
X022494Y040800D01*
X022485Y040792D01*
X022476Y040783D01*
X022468Y040776D01*
X022465Y040773D01*
X022462Y040770D01*
X022461Y040770D01*
X022460Y040768D01*
X022457Y040766D01*
X022455Y040763D01*
X022452Y040759D01*
X022448Y040755D01*
X022442Y040746D01*
X022631D01*
Y040700D01*
X022376D01*
Y040701D01*
Y040703D01*
Y040706D01*
X022377Y040711D01*
X022377Y040716D01*
X022379Y040721D01*
X022380Y040727D01*
X022382Y040733D01*
Y040733D01*
X022382Y040734D01*
X022384Y040737D01*
X022386Y040742D01*
X022389Y040749D01*
X022393Y040757D01*
X022399Y040765D01*
X022405Y040774D01*
X022413Y040784D01*
Y040784D01*
X022414Y040785D01*
X022417Y040788D01*
X022422Y040793D01*
X022429Y040800D01*
X022437Y040809D01*
X022448Y040819D01*
X022461Y040830D01*
X022475Y040842D01*
X022475Y040842D01*
X022477Y040844D01*
X022481Y040847D01*
X022485Y040850D01*
X022490Y040854D01*
X022496Y040859D01*
X022502Y040865D01*
X022509Y040871D01*
X022523Y040884D01*
X022537Y040898D01*
X022543Y040904D01*
X022549Y040911D01*
X022555Y040917D01*
X022559Y040923D01*
Y040924D01*
X022561Y040924D01*
X022562Y040926D01*
X022563Y040928D01*
X022567Y040934D01*
X022571Y040941D01*
X022575Y040950D01*
X022579Y040960D01*
X022581Y040970D01*
X022582Y040980D01*
Y040981D01*
Y040981D01*
X022582Y040985D01*
X022581Y040990D01*
X022579Y040996D01*
X022577Y041004D01*
X022573Y041012D01*
X022568Y041020D01*
X022562Y041027D01*
X022561Y041029D01*
X022558Y041031D01*
X022554Y041034D01*
X022548Y041037D01*
X022540Y041041D01*
X022531Y041044D01*
X022521Y041046D01*
X022509Y041047D01*
X022506D01*
X022503Y041046D01*
X022497Y041046D01*
X022489Y041044D01*
X022481Y041042D01*
X022471Y041038D01*
X022462Y041033D01*
X022454Y041026D01*
X022453Y041025D01*
X022451Y041022D01*
X022447Y041018D01*
X022444Y041011D01*
X022440Y041004D01*
X022437Y040994D01*
X022435Y040982D01*
X022433Y040970D01*
X022385Y040975D01*
Y040975D01*
X022386Y040977D01*
Y040980D01*
X022386Y040984D01*
X022387Y040988D01*
X022389Y040993D01*
X022390Y040999D01*
X022392Y041005D01*
X022396Y041019D01*
X022403Y041032D01*
X022407Y041039D01*
X022412Y041045D01*
X022417Y041051D01*
X022422Y041057D01*
X022423Y041057D01*
X022424Y041058D01*
X022426Y041060D01*
X022428Y041061D01*
X022432Y041064D01*
X022436Y041066D01*
X022440Y041069D01*
X022446Y041071D01*
X022452Y041074D01*
X022458Y041077D01*
X022466Y041079D01*
X022473Y041081D01*
X022482Y041083D01*
X022491Y041085D01*
X022500Y041085D01*
X022510Y041086D01*
X022516D01*
X022519Y041085D01*
D02*
G37*
%LPC*%
G36*
X021330Y033491D02*
X021326D01*
X021323Y033490D01*
X021317Y033490D01*
X021309Y033488D01*
X021300Y033484D01*
X021290Y033480D01*
X021280Y033473D01*
X021275Y033469D01*
X021271Y033464D01*
Y033464D01*
X021270Y033463D01*
X021268Y033461D01*
X021267Y033459D01*
X021265Y033456D01*
X021263Y033453D01*
X021261Y033449D01*
X021259Y033444D01*
X021257Y033439D01*
X021255Y033433D01*
X021253Y033426D01*
X021251Y033419D01*
X021250Y033412D01*
X021249Y033403D01*
X021248Y033394D01*
X021247Y033384D01*
Y033384D01*
Y033382D01*
Y033379D01*
X021248Y033375D01*
Y033371D01*
X021249Y033366D01*
X021250Y033354D01*
X021253Y033341D01*
X021257Y033328D01*
X021263Y033315D01*
X021267Y033309D01*
X021271Y033304D01*
X021271D01*
X021272Y033303D01*
X021275Y033300D01*
X021280Y033296D01*
X021287Y033291D01*
X021295Y033286D01*
X021305Y033282D01*
X021317Y033279D01*
X021323Y033278D01*
X021330Y033278D01*
X021333D01*
X021336Y033278D01*
X021342Y033279D01*
X021350Y033281D01*
X021359Y033284D01*
X021369Y033289D01*
X021378Y033296D01*
X021383Y033300D01*
X021388Y033304D01*
X021388Y033305D01*
X021389Y033305D01*
X021390Y033307D01*
X021392Y033309D01*
X021393Y033312D01*
X021396Y033315D01*
X021398Y033320D01*
X021400Y033324D01*
X021402Y033330D01*
X021404Y033336D01*
X021406Y033343D01*
X021408Y033350D01*
X021409Y033358D01*
X021411Y033367D01*
X021412Y033376D01*
Y033386D01*
Y033387D01*
Y033388D01*
Y033391D01*
X021411Y033394D01*
Y033399D01*
X021411Y033404D01*
X021409Y033415D01*
X021406Y033428D01*
X021402Y033441D01*
X021396Y033453D01*
X021392Y033459D01*
X021388Y033464D01*
Y033465D01*
X021387Y033465D01*
X021383Y033469D01*
X021378Y033473D01*
X021372Y033478D01*
X021363Y033483D01*
X021353Y033487D01*
X021342Y033490D01*
X021336Y033490D01*
X021330Y033491D01*
D02*
G37*
G36*
X023691Y037136D02*
X023688D01*
X023686Y037135D01*
X023680Y037135D01*
X023671Y037133D01*
X023663Y037130D01*
X023653Y037126D01*
X023644Y037121D01*
X023635Y037113D01*
X023634Y037112D01*
X023632Y037109D01*
X023628Y037104D01*
X023624Y037097D01*
X023620Y037089D01*
X023616Y037079D01*
X023614Y037068D01*
X023612Y037056D01*
Y037055D01*
Y037054D01*
Y037053D01*
X023613Y037050D01*
X023614Y037044D01*
X023615Y037036D01*
X023618Y037028D01*
X023622Y037019D01*
X023627Y037009D01*
X023635Y037001D01*
X023636Y037000D01*
X023638Y036998D01*
X023643Y036994D01*
X023650Y036990D01*
X023658Y036986D01*
X023667Y036983D01*
X023678Y036980D01*
X023690Y036979D01*
X023693D01*
X023697Y036980D01*
X023702Y036980D01*
X023708Y036981D01*
X023715Y036983D01*
X023721Y036985D01*
X023728Y036988D01*
X023729Y036989D01*
X023732Y036990D01*
X023735Y036992D01*
X023739Y036995D01*
X023744Y036999D01*
X023749Y037004D01*
X023753Y037010D01*
X023758Y037016D01*
X023758Y037018D01*
X023759Y037020D01*
X023761Y037024D01*
X023763Y037029D01*
X023764Y037035D01*
X023766Y037042D01*
X023767Y037050D01*
X023768Y037058D01*
Y037058D01*
Y037059D01*
Y037061D01*
X023767Y037063D01*
X023767Y037070D01*
X023765Y037078D01*
X023762Y037086D01*
X023759Y037096D01*
X023753Y037105D01*
X023746Y037114D01*
X023745Y037115D01*
X023742Y037117D01*
X023737Y037121D01*
X023731Y037125D01*
X023723Y037129D01*
X023714Y037132D01*
X023703Y037135D01*
X023691Y037136D01*
D02*
G37*
G36*
X023515Y037120D02*
X023510D01*
X023505Y037119D01*
X023499Y037118D01*
X023493Y037116D01*
X023485Y037112D01*
X023478Y037108D01*
X023471Y037102D01*
X023470Y037101D01*
X023468Y037099D01*
X023465Y037095D01*
X023462Y037090D01*
X023459Y037083D01*
X023456Y037076D01*
X023454Y037067D01*
X023453Y037058D01*
Y037057D01*
Y037056D01*
Y037053D01*
X023454Y037048D01*
X023455Y037041D01*
X023458Y037034D01*
X023460Y037026D01*
X023465Y037019D01*
X023471Y037012D01*
X023471Y037011D01*
X023474Y037009D01*
X023478Y037006D01*
X023483Y037004D01*
X023489Y037000D01*
X023496Y036998D01*
X023504Y036995D01*
X023513Y036995D01*
X023514D01*
X023517Y036995D01*
X023522Y036996D01*
X023528Y036997D01*
X023535Y036999D01*
X023542Y037002D01*
X023550Y037006D01*
X023557Y037012D01*
X023557Y037013D01*
X023560Y037015D01*
X023562Y037019D01*
X023565Y037024D01*
X023569Y037031D01*
X023571Y037039D01*
X023574Y037048D01*
X023574Y037058D01*
Y037058D01*
Y037059D01*
X023574Y037062D01*
X023573Y037067D01*
X023572Y037074D01*
X023570Y037081D01*
X023567Y037088D01*
X023562Y037096D01*
X023557Y037102D01*
X023556Y037103D01*
X023554Y037105D01*
X023550Y037108D01*
X023545Y037111D01*
X023539Y037115D01*
X023532Y037117D01*
X023524Y037120D01*
X023515Y037120D01*
D02*
G37*
G36*
X022017Y033491D02*
X022014D01*
X022012Y033490D01*
X022006Y033490D01*
X021998Y033488D01*
X021989Y033485D01*
X021980Y033481D01*
X021971Y033476D01*
X021962Y033469D01*
X021961Y033468D01*
X021959Y033465D01*
X021955Y033460D01*
X021951Y033453D01*
X021947Y033445D01*
X021943Y033435D01*
X021939Y033424D01*
X021938Y033411D01*
X022094D01*
Y033412D01*
Y033413D01*
X022093Y033414D01*
Y033416D01*
X022092Y033423D01*
X022090Y033430D01*
X022088Y033439D01*
X022085Y033448D01*
X022080Y033456D01*
X022075Y033463D01*
Y033464D01*
X022074Y033464D01*
X022072Y033468D01*
X022067Y033472D01*
X022060Y033477D01*
X022052Y033482D01*
X022042Y033486D01*
X022030Y033490D01*
X022024Y033490D01*
X022017Y033491D01*
D02*
G37*
G36*
X024528Y043734D02*
X024502D01*
X024495Y043734D01*
X024488D01*
X024479Y043733D01*
X024470Y043732D01*
X024459Y043731D01*
X024438Y043729D01*
X024427Y043727D01*
X024418Y043725D01*
X024408Y043722D01*
X024399Y043719D01*
X024391Y043716D01*
X024385Y043712D01*
X024384D01*
X024384Y043711D01*
X024382Y043710D01*
X024380Y043708D01*
X024375Y043703D01*
X024369Y043697D01*
X024363Y043689D01*
X024358Y043679D01*
X024356Y043674D01*
X024354Y043669D01*
X024354Y043663D01*
X024353Y043656D01*
Y043656D01*
Y043655D01*
Y043653D01*
X024354Y043651D01*
X024355Y043645D01*
X024356Y043638D01*
X024360Y043629D01*
X024365Y043620D01*
X024368Y043616D01*
X024371Y043611D01*
X024376Y043608D01*
X024381Y043604D01*
X024381D01*
X024383Y043603D01*
X024385Y043601D01*
X024388Y043600D01*
X024392Y043598D01*
X024397Y043596D01*
X024403Y043594D01*
X024410Y043592D01*
X024419Y043590D01*
X024428Y043588D01*
X024439Y043585D01*
X024450Y043584D01*
X024464Y043582D01*
X024478Y043581D01*
X024494Y043580D01*
X024511Y043580D01*
X024520D01*
X024526Y043580D01*
X024534D01*
X024542Y043581D01*
X024552Y043581D01*
X024562Y043583D01*
X024583Y043585D01*
X024594Y043587D01*
X024604Y043589D01*
X024613Y043591D01*
X024622Y043595D01*
X024630Y043598D01*
X024637Y043602D01*
X024637D01*
X024638Y043603D01*
X024642Y043606D01*
X024647Y043611D01*
X024652Y043617D01*
X024658Y043625D01*
X024663Y043635D01*
X024667Y043645D01*
X024667Y043651D01*
X024668Y043657D01*
Y043658D01*
Y043659D01*
Y043660D01*
X024667Y043663D01*
X024666Y043668D01*
X024664Y043676D01*
X024660Y043684D01*
X024654Y043694D01*
X024651Y043698D01*
X024647Y043702D01*
X024642Y043707D01*
X024637Y043711D01*
X024636D01*
X024635Y043712D01*
X024633Y043714D01*
X024631Y043715D01*
X024627Y043717D01*
X024622Y043719D01*
X024616Y043721D01*
X024610Y043723D01*
X024601Y043725D01*
X024592Y043727D01*
X024582Y043729D01*
X024571Y043731D01*
X024557Y043732D01*
X024543Y043733D01*
X024528Y043734D01*
D02*
G37*
G36*
X024450Y039984D02*
Y039984D01*
X024449Y039982D01*
Y039980D01*
X024448Y039978D01*
X024448Y039974D01*
X024447Y039970D01*
X024444Y039961D01*
X024442Y039950D01*
X024438Y039937D01*
X024434Y039924D01*
X024429Y039910D01*
X024387Y039798D01*
X024517D01*
X024477Y039904D01*
Y039904D01*
X024477Y039906D01*
X024476Y039909D01*
X024474Y039912D01*
X024473Y039916D01*
X024471Y039921D01*
X024469Y039926D01*
X024467Y039932D01*
X024463Y039945D01*
X024458Y039958D01*
X024454Y039971D01*
X024450Y039984D01*
D02*
G37*
G36*
X025292Y043732D02*
X025288D01*
X025285Y043731D01*
X025281D01*
X025277Y043731D01*
X025269Y043729D01*
X025258Y043727D01*
X025247Y043723D01*
X025236Y043717D01*
X025227Y043710D01*
X025226D01*
X025226Y043709D01*
X025223Y043706D01*
X025219Y043702D01*
X025215Y043696D01*
X025211Y043688D01*
X025207Y043679D01*
X025204Y043669D01*
X025203Y043664D01*
Y043658D01*
Y043658D01*
Y043656D01*
Y043655D01*
X025204Y043653D01*
X025204Y043646D01*
X025206Y043639D01*
X025209Y043630D01*
X025214Y043621D01*
X025220Y043611D01*
X025225Y043607D01*
X025229Y043603D01*
X025230D01*
X025230Y043601D01*
X025232Y043600D01*
X025234Y043599D01*
X025239Y043595D01*
X025247Y043591D01*
X025256Y043587D01*
X025268Y043583D01*
X025281Y043581D01*
X025296Y043580D01*
X025299D01*
X025302Y043580D01*
X025305D01*
X025309Y043581D01*
X025317Y043583D01*
X025326Y043585D01*
X025336Y043589D01*
X025346Y043594D01*
X025355Y043601D01*
X025356Y043603D01*
X025359Y043605D01*
X025362Y043610D01*
X025366Y043616D01*
X025371Y043625D01*
X025375Y043634D01*
X025377Y043645D01*
X025378Y043656D01*
Y043657D01*
Y043658D01*
Y043660D01*
X025377Y043662D01*
X025377Y043668D01*
X025375Y043675D01*
X025372Y043684D01*
X025369Y043693D01*
X025363Y043702D01*
X025355Y043710D01*
X025354Y043711D01*
X025351Y043714D01*
X025346Y043717D01*
X025339Y043721D01*
X025330Y043725D01*
X025319Y043729D01*
X025306Y043731D01*
X025292Y043732D01*
D02*
G37*
G36*
X022535Y043396D02*
X022531D01*
X022528Y043395D01*
X022522Y043395D01*
X022514Y043393D01*
X022505Y043389D01*
X022495Y043385D01*
X022485Y043378D01*
X022480Y043374D01*
X022476Y043369D01*
Y043369D01*
X022475Y043368D01*
X022474Y043366D01*
X022472Y043364D01*
X022470Y043361D01*
X022469Y043358D01*
X022466Y043354D01*
X022464Y043349D01*
X022462Y043344D01*
X022460Y043338D01*
X022458Y043331D01*
X022456Y043324D01*
X022455Y043316D01*
X022454Y043308D01*
X022453Y043299D01*
X022452Y043289D01*
Y043289D01*
Y043287D01*
Y043284D01*
X022453Y043280D01*
Y043276D01*
X022454Y043271D01*
X022455Y043259D01*
X022458Y043246D01*
X022462Y043233D01*
X022468Y043220D01*
X022472Y043214D01*
X022476Y043209D01*
X022476D01*
X022477Y043208D01*
X022480Y043205D01*
X022485Y043201D01*
X022492Y043196D01*
X022500Y043191D01*
X022510Y043187D01*
X022522Y043184D01*
X022528Y043183D01*
X022535Y043183D01*
X022538D01*
X022541Y043183D01*
X022547Y043184D01*
X022555Y043186D01*
X022564Y043189D01*
X022574Y043194D01*
X022583Y043201D01*
X022588Y043205D01*
X022593Y043209D01*
X022593Y043210D01*
X022594Y043211D01*
X022595Y043212D01*
X022597Y043214D01*
X022598Y043217D01*
X022601Y043220D01*
X022603Y043225D01*
X022605Y043229D01*
X022607Y043235D01*
X022609Y043241D01*
X022611Y043248D01*
X022613Y043255D01*
X022614Y043263D01*
X022616Y043272D01*
X022617Y043281D01*
Y043291D01*
Y043292D01*
Y043293D01*
Y043296D01*
X022616Y043299D01*
Y043304D01*
X022616Y043309D01*
X022614Y043320D01*
X022611Y043333D01*
X022607Y043346D01*
X022601Y043358D01*
X022597Y043364D01*
X022593Y043369D01*
Y043370D01*
X022592Y043370D01*
X022588Y043374D01*
X022583Y043378D01*
X022577Y043383D01*
X022568Y043388D01*
X022558Y043392D01*
X022547Y043395D01*
X022541Y043395D01*
X022535Y043396D01*
D02*
G37*
G36*
X021760Y036608D02*
X021757D01*
X021755Y036607D01*
X021749Y036606D01*
X021741Y036605D01*
X021733Y036602D01*
X021724Y036598D01*
X021715Y036592D01*
X021706Y036584D01*
X021705Y036583D01*
X021703Y036580D01*
X021699Y036575D01*
X021695Y036568D01*
X021691Y036560D01*
X021687Y036549D01*
X021685Y036538D01*
X021684Y036524D01*
Y036523D01*
Y036520D01*
X021684Y036515D01*
X021685Y036509D01*
X021686Y036502D01*
X021688Y036494D01*
X021690Y036486D01*
X021694Y036478D01*
X021694Y036477D01*
X021696Y036474D01*
X021698Y036470D01*
X021701Y036465D01*
X021705Y036460D01*
X021710Y036454D01*
X021716Y036449D01*
X021723Y036444D01*
X021724Y036443D01*
X021726Y036442D01*
X021730Y036440D01*
X021735Y036438D01*
X021740Y036436D01*
X021747Y036434D01*
X021754Y036433D01*
X021762Y036432D01*
X021765D01*
X021767Y036433D01*
X021773Y036433D01*
X021780Y036435D01*
X021787Y036438D01*
X021796Y036442D01*
X021805Y036448D01*
X021810Y036452D01*
X021814Y036456D01*
Y036457D01*
X021815Y036457D01*
X021817Y036460D01*
X021820Y036466D01*
X021825Y036473D01*
X021829Y036483D01*
X021832Y036494D01*
X021834Y036507D01*
X021835Y036522D01*
Y036522D01*
Y036523D01*
Y036525D01*
X021835Y036528D01*
Y036532D01*
X021834Y036535D01*
X021832Y036544D01*
X021830Y036554D01*
X021826Y036565D01*
X021821Y036575D01*
X021814Y036584D01*
X021812Y036585D01*
X021810Y036588D01*
X021805Y036591D01*
X021799Y036596D01*
X021791Y036600D01*
X021783Y036604D01*
X021772Y036606D01*
X021760Y036608D01*
D02*
G37*
G36*
X021026Y033584D02*
X020916D01*
Y033446D01*
X021019D01*
X021023Y033447D01*
X021027D01*
X021031Y033448D01*
X021042Y033449D01*
X021054Y033451D01*
X021065Y033454D01*
X021076Y033459D01*
X021081Y033461D01*
X021085Y033465D01*
X021086Y033466D01*
X021088Y033468D01*
X021091Y033473D01*
X021095Y033478D01*
X021099Y033485D01*
X021103Y033494D01*
X021105Y033504D01*
X021106Y033516D01*
Y033516D01*
Y033517D01*
Y033520D01*
X021105Y033525D01*
X021104Y033530D01*
X021103Y033536D01*
X021101Y033544D01*
X021098Y033550D01*
X021094Y033557D01*
X021093Y033557D01*
X021091Y033560D01*
X021089Y033562D01*
X021085Y033566D01*
X021080Y033570D01*
X021075Y033574D01*
X021069Y033577D01*
X021061Y033580D01*
X021061D01*
X021059Y033580D01*
X021055Y033581D01*
X021051Y033582D01*
X021044Y033582D01*
X021036Y033583D01*
X021026Y033584D01*
D02*
G37*
G36*
X021523Y039894D02*
Y039894D01*
X021523Y039892D01*
Y039890D01*
X021521Y039888D01*
X021521Y039884D01*
X021520Y039880D01*
X021518Y039871D01*
X021515Y039860D01*
X021511Y039847D01*
X021507Y039834D01*
X021502Y039820D01*
X021460Y039708D01*
X021590D01*
X021550Y039814D01*
Y039814D01*
X021550Y039816D01*
X021549Y039819D01*
X021548Y039822D01*
X021546Y039826D01*
X021544Y039831D01*
X021543Y039836D01*
X021540Y039842D01*
X021536Y039855D01*
X021531Y039868D01*
X021527Y039881D01*
X021523Y039894D01*
D02*
G37*
G36*
X022396Y039796D02*
X022392D01*
X022390Y039795D01*
X022384Y039795D01*
X022377Y039793D01*
X022368Y039790D01*
X022358Y039786D01*
X022350Y039781D01*
X022341Y039774D01*
X022340Y039773D01*
X022337Y039770D01*
X022333Y039765D01*
X022330Y039758D01*
X022325Y039750D01*
X022321Y039740D01*
X022318Y039729D01*
X022316Y039716D01*
X022472D01*
Y039716D01*
Y039718D01*
X022472Y039719D01*
Y039721D01*
X022471Y039728D01*
X022469Y039735D01*
X022466Y039744D01*
X022463Y039753D01*
X022459Y039761D01*
X022454Y039768D01*
Y039769D01*
X022453Y039769D01*
X022450Y039773D01*
X022445Y039777D01*
X022438Y039782D01*
X022430Y039787D01*
X022420Y039791D01*
X022408Y039795D01*
X022402Y039795D01*
X022396Y039796D01*
D02*
G37*
%LPD*%
D19*
X021345Y039135D02*
G03*
X021345Y039135I-000017J000000D01*
G01*
X021482Y039037D02*
Y039214D01*
X021565Y039297D01*
X021702D01*
X022502D02*
X022663D01*
Y039128D02*
Y039297D01*
X022525Y038116D02*
X022663D01*
Y038285D01*
X021482Y038116D02*
Y038297D01*
X021486Y038112D02*
X021639D01*
D24*
X021898Y042592D02*
G03*
X021898Y042592I-000049J000000D01*
G01*
X025240Y037563D02*
G03*
X025240Y037563I-000049J000000D01*
G01*
D25*
X023901Y039257D02*
X023950Y039306D01*
X024039D01*
X024865D02*
X025003D01*
Y039168D02*
Y039306D01*
Y038204D02*
Y038341D01*
X024865Y038204D02*
X025003D01*
X023901D02*
X024039D01*
X023901D02*
Y038341D01*
Y039168D02*
Y039257D01*
X022223Y042809D02*
Y042927D01*
X022341D01*
X022223Y041273D02*
Y041391D01*
Y041273D02*
X022341D01*
X023877D02*
Y041391D01*
X023759Y041273D02*
X023877D01*
Y042809D02*
Y042927D01*
X023759D02*
X023877D01*
X025171Y036697D02*
Y037228D01*
Y035772D02*
X025191D01*
X024029Y036697D02*
Y037228D01*
X024009Y035772D02*
X024029D01*
X025191D02*
Y037228D01*
X024009Y035772D02*
Y037228D01*
X024400Y030850D02*
Y032850D01*
Y030850D02*
X025400D01*
Y032850D01*
X024400D02*
X025400D01*
X020850Y030950D02*
Y032950D01*
Y030950D02*
X021850D01*
Y032950D01*
X020850D02*
X021850D01*
M02*
