%FSAX24Y24*%
%MOIN*%
G70*
G01*
G75*
G04 Layer_Physical_Order=2*
G04 Layer_Color=16711680*
%ADD10R,0.0591X0.0512*%
%ADD11R,0.0866X0.0787*%
%ADD12R,0.0354X0.0114*%
%ADD13R,0.0114X0.0354*%
%ADD14R,0.0394X0.0114*%
%ADD15R,0.0114X0.0394*%
%ADD16R,0.0512X0.0114*%
%ADD17R,0.0126X0.0512*%
%ADD18C,0.0200*%
%ADD19C,0.0080*%
%ADD20C,0.0100*%
%ADD21C,0.0591*%
%ADD22R,0.0591X0.0591*%
%ADD23C,0.0350*%
G36*
X021720Y035350D02*
X021740Y035200D01*
X021798Y035060D01*
X021856Y034984D01*
Y034354D01*
X021784Y034318D01*
X021740Y034352D01*
X021600Y034410D01*
X021450Y034430D01*
X021300Y034410D01*
X021201Y034369D01*
X021135Y034414D01*
Y035406D01*
X021671D01*
X021720Y035350D01*
D02*
G37*
G36*
X021300Y033290D02*
X021421Y033274D01*
X021448Y033210D01*
X021540Y033090D01*
X021660Y032998D01*
X021800Y032940D01*
X021950Y032920D01*
X022100Y032940D01*
X022141Y032957D01*
X022177Y032942D01*
X022215Y032912D01*
X022203Y032821D01*
Y032529D01*
X021144D01*
X021135Y032538D01*
Y033286D01*
X021201Y033331D01*
X021300Y033290D01*
D02*
G37*
G36*
X021750Y038127D02*
X021850Y038140D01*
X021985Y038196D01*
X022159D01*
X022193Y038128D01*
X022152Y038030D01*
X022139Y037926D01*
Y037144D01*
X021666D01*
X021590Y037202D01*
X021450Y037260D01*
X021300Y037280D01*
X021195Y037266D01*
X021135Y037319D01*
Y038367D01*
X021211Y038393D01*
X021290Y038290D01*
X021410Y038198D01*
X021550Y038140D01*
X021650Y038127D01*
Y038700D01*
X021750D01*
Y038127D01*
D02*
G37*
G36*
X024865Y038144D02*
Y035150D01*
X024875Y035073D01*
Y034544D01*
X023680D01*
Y034668D01*
X023746Y034712D01*
X023800Y034690D01*
X023950Y034670D01*
X024100Y034690D01*
X024240Y034748D01*
X024360Y034840D01*
X024452Y034960D01*
X024510Y035100D01*
X024530Y035250D01*
X024510Y035400D01*
X024452Y035540D01*
X024444Y035551D01*
Y036149D01*
X024452Y036160D01*
X024510Y036300D01*
X024530Y036450D01*
X024510Y036600D01*
X024452Y036740D01*
X024360Y036860D01*
X024240Y036952D01*
X024100Y037010D01*
X023978Y037026D01*
Y037926D01*
X023964Y038030D01*
X023923Y038128D01*
X023957Y038196D01*
X024800D01*
X024805Y038196D01*
X024865Y038144D01*
D02*
G37*
D18*
X024050Y031650D02*
X024294Y031406D01*
Y030906D02*
Y031406D01*
Y030906D02*
X024350Y030850D01*
X021500Y031650D02*
X024050D01*
X021700Y038700D02*
X024800D01*
X024950Y038850D01*
D19*
X023625Y032075D02*
X024100Y032550D01*
X022700Y033500D02*
X024650D01*
X025069Y034100D02*
X025319Y034350D01*
Y035150D01*
X023950Y036450D02*
X024000Y036400D01*
Y035300D02*
Y036400D01*
X023950Y035250D02*
X024000Y035300D01*
X022500Y034100D02*
X025069D01*
X022300Y034300D02*
X022500Y034100D01*
X022300Y034300D02*
Y035350D01*
X021500Y033800D02*
X023850D01*
X021450Y033850D02*
X021500Y033800D01*
X022650Y036700D02*
X023450Y035900D01*
X020881Y035850D02*
X022500D01*
X020681Y036050D02*
X020881Y035850D01*
X021300Y036700D02*
X022650D01*
X024650Y033500D02*
X024850Y033300D01*
Y032050D02*
Y033300D01*
X024650Y031250D02*
X025079D01*
X025319Y031490D01*
Y034000D01*
D20*
X020956Y032075D02*
X023625D01*
X020681Y032350D02*
X020956Y032075D01*
X021950Y033500D02*
X022700D01*
X021131Y039300D02*
X021500D01*
X020681Y038850D02*
X021131Y039300D01*
X024500Y039350D02*
X025019D01*
X025319Y039050D01*
Y035150D02*
Y039050D01*
X020681Y036050D02*
Y038850D01*
X025319Y034000D02*
Y034350D01*
X020681Y032350D02*
Y036050D01*
D21*
X022550Y031000D02*
D03*
Y039350D02*
D03*
D22*
X023550Y031000D02*
D03*
Y039350D02*
D03*
D23*
X024350Y030850D02*
D03*
X021500Y031650D02*
D03*
X021950Y033500D02*
D03*
X021500Y039300D02*
D03*
X024500Y039350D02*
D03*
X023450Y035900D02*
D03*
X023950Y036450D02*
D03*
Y035250D02*
D03*
X022300Y035350D02*
D03*
X023850Y033800D02*
D03*
X021450Y033850D02*
D03*
X024850Y032050D02*
D03*
X022500Y035850D02*
D03*
X024950Y038850D02*
D03*
X024100Y032550D02*
D03*
X021300Y036700D02*
D03*
X021700Y038700D02*
D03*
X024650Y031250D02*
D03*
M02*
