%FSAX24Y24*%
%MOIN*%
G70*
G01*
G75*
%ADD10R,0.0126X0.0354*%
%ADD11R,0.0315X0.0126*%
%ADD12R,0.0118X0.0177*%
%ADD13R,0.0177X0.0118*%
%ADD14O,0.0118X0.0354*%
%ADD15O,0.0354X0.0118*%
%ADD16R,0.0866X0.0787*%
%ADD17R,0.0433X0.0551*%
%ADD18R,0.0551X0.0433*%
%ADD19C,0.0100*%
%ADD20C,0.0080*%
%ADD21C,0.0591*%
%ADD22R,0.0591X0.0591*%
%ADD23C,0.0300*%
%ADD24C,0.0098*%
%ADD25C,0.0079*%
%ADD26R,0.0206X0.0434*%
%ADD27R,0.0395X0.0206*%
%ADD28R,0.0198X0.0257*%
%ADD29R,0.0257X0.0198*%
%ADD30O,0.0198X0.0434*%
%ADD31O,0.0434X0.0198*%
%ADD32R,0.0946X0.0867*%
%ADD33R,0.0513X0.0631*%
%ADD34R,0.0631X0.0513*%
%ADD35C,0.0671*%
%ADD36R,0.0671X0.0671*%
%ADD37C,0.0380*%
%ADD38C,0.0060*%
%ADD39C,0.0039*%
%ADD40R,0.0484X0.0444*%
%ADD41R,0.0681X0.0685*%
%ADD42R,0.1065X0.1069*%
%ADD43C,0.0050*%
%ADD44C,0.0067*%
D43*
X024723Y032350D02*
X025077D01*
X024900Y032173D02*
Y032527D01*
X024723Y031350D02*
X025077D01*
X024900Y031173D02*
Y031527D01*
X021173Y032450D02*
X021527D01*
X021350Y032273D02*
Y032627D01*
X021173Y031450D02*
X021527D01*
X021350Y031273D02*
Y031627D01*
X023720Y040900D02*
X023880D01*
X023800Y040820D02*
Y040980D01*
X023220Y040350D02*
X023380D01*
X023300Y040270D02*
Y040430D01*
X025015Y039729D02*
X025175D01*
X025095Y039649D02*
Y039809D01*
X020970Y039450D02*
X021130D01*
X021050Y039370D02*
Y039530D01*
X023425Y038559D02*
X023585D01*
X023505Y038479D02*
Y038639D01*
X022739Y043919D02*
X022899D01*
X022819Y043839D02*
Y043999D01*
X023820Y039750D02*
X023980D01*
X023900Y039670D02*
Y039830D01*
X024770Y044050D02*
X024930D01*
X024850Y043970D02*
Y044130D01*
X022270Y037250D02*
X022430D01*
X022350Y037170D02*
Y037330D01*
X024470Y034650D02*
X024630D01*
X024550Y034570D02*
Y034730D01*
X022820Y036450D02*
X022980D01*
X022900Y036370D02*
Y036530D01*
X021170Y040300D02*
X021330D01*
X021250Y040220D02*
Y040380D01*
X021220Y042200D02*
X021380D01*
X021300Y042120D02*
Y042280D01*
M02*
